<svg id="Layer_1" data-name="Layer 1" xmlns="http://www.w3.org/2000/svg" viewBox="0 0 426.23 229.62"><defs><style>.cls-1{fill:#1b4789;}.cls-2{fill:#f8ddbf;}.cls-3{fill:#233862;}.cls-4{fill:#fab17d;}.cls-5{fill:#919acd;}.cls-6{fill:#142c50;}.cls-7{fill:#1d3868;}.cls-8{fill:#ee985e;}.cls-9{fill:#6d7cbd;}.cls-10{fill:#fff;}.cls-11{fill:#f89747;}.cls-12{fill:#ec7d29;}.cls-13{fill:#1e1852;}.cls-14{fill:#aa453e;}.cls-15{fill:#0f1131;}.cls-16{fill:#1c335f;}.cls-17{fill:#21407a;}.cls-18{fill:#bfc8e6;}.cls-19{fill:#f9a462;}.cls-20{fill:#e9945b;}.cls-21{fill:#f47d48;}.cls-22{fill:#fee5cf;}.cls-23{fill:#f4a269;}.cls-24{fill:#1b2e4c;}.cls-25{fill:#e56538;opacity:0.4;isolation:isolate;}</style></defs><g id="Group_2123" data-name="Group 2123"><path id="Path_4763" data-name="Path 4763" class="cls-1" d="M390.56,191.25a64,64,0,0,1-2,11.59A31,31,0,0,1,378,218.91,32.24,32.24,0,0,1,357.85,226h-.18L332,225.86h-.92l-20.73-.09-6.66,0L287,225.66l-4.93,0-25.65-.12-4.37,0-17.16-.08-28.28-.13h-1.12l-30.11-.15-14.48-.07h-3.23l-24.39-.12-4.94,0-15.1-.08-7.93,0-21.46-.1H82.18l-7.76,0A28.55,28.55,0,0,1,59,220.05a27.58,27.58,0,0,1-11.25-14.64c0-.14-.09-.29-.14-.44a115,115,0,0,1-3.28-13.72c-.38-2.18-.71-4.43-1-6.75-2.72-25-1.57-67.3,34.42-92.82C105.71,71.86,77.78,40,103.52,22c19.57-13.73,33.94-6.71,48.79-6,8.52.41,1.63-4.4,1.63-4.4.35,0,4.15-4.82,4.8-4.81C172.3,6.89,203,12.32,220,9.91c8.18-1.15,38.84-5,40.48-5.16,31.73-2.3,51,15.34,69.44,34.22,3.71,3.8,26.55,20.27,13.25,47.3-8.4,17.07,20.81,36.58,33.31,56.07,10.19,15.9,13.9,30.13,14.22,42.17A65.87,65.87,0,0,1,390.56,191.25Z"/><path id="Path_4764" data-name="Path 4764" class="cls-2" d="M168.72,39.92,138.06,184.66H276.42L250.9,39.92,233.2,40,212,102.56,186.42,40Z"/><g id="Group_2088" data-name="Group 2088"><rect id="Rectangle_473" data-name="Rectangle 473" class="cls-3" x="111.41" y="36.18" width="230.85" height="1.92"/><rect id="Rectangle_474" data-name="Rectangle 474" class="cls-3" x="111.41" y="27.16" width="243.05" height="1.92"/><rect id="Rectangle_475" data-name="Rectangle 475" class="cls-3" x="122.45" y="25.42" width="1.23" height="14.42" transform="translate(20.66 108.29) rotate(-51.31)"/><rect id="Rectangle_476" data-name="Rectangle 476" class="cls-3" x="135.96" y="25.42" width="1.23" height="14.42" transform="translate(25.73 118.83) rotate(-51.31)"/><rect id="Rectangle_477" data-name="Rectangle 477" class="cls-3" x="150.27" y="25.42" width="1.23" height="14.42" transform="translate(31.14 130.05) rotate(-51.33)"/><rect id="Rectangle_478" data-name="Rectangle 478" class="cls-3" x="163.78" y="25.42" width="1.23" height="14.42" transform="translate(36.16 140.54) rotate(-51.31)"/><rect id="Rectangle_479" data-name="Rectangle 479" class="cls-3" x="178.47" y="25.42" width="1.23" height="14.42" transform="translate(41.66 152.01) rotate(-51.31)"/><rect id="Rectangle_480" data-name="Rectangle 480" class="cls-3" x="191.98" y="25.42" width="1.23" height="14.42" transform="translate(46.73 162.56) rotate(-51.31)"/><rect id="Rectangle_481" data-name="Rectangle 481" class="cls-3" x="205.35" y="25.42" width="1.23" height="14.42" transform="translate(51.8 173.05) rotate(-51.33)"/><rect id="Rectangle_482" data-name="Rectangle 482" class="cls-3" x="218.85" y="25.42" width="1.23" height="14.42" transform="translate(56.8 183.53) rotate(-51.31)"/><rect id="Rectangle_483" data-name="Rectangle 483" class="cls-3" x="233.9" y="25.42" width="1.23" height="14.42" transform="translate(62.51 195.35) rotate(-51.33)"/><rect id="Rectangle_484" data-name="Rectangle 484" class="cls-3" x="247.41" y="25.42" width="1.23" height="14.42" transform="translate(67.5 205.82) rotate(-51.31)"/><rect id="Rectangle_485" data-name="Rectangle 485" class="cls-3" x="261.66" y="25.42" width="1.23" height="14.42" transform="translate(72.85 216.94) rotate(-51.31)"/><rect id="Rectangle_486" data-name="Rectangle 486" class="cls-3" x="275.18" y="25.42" width="1.23" height="14.42" transform="translate(78 227.57) rotate(-51.33)"/><rect id="Rectangle_487" data-name="Rectangle 487" class="cls-3" x="291.79" y="25.42" width="1.23" height="14.42" transform="translate(84.23 240.54) rotate(-51.33)"/><rect id="Rectangle_488" data-name="Rectangle 488" class="cls-3" x="305.3" y="25.42" width="1.23" height="14.42" transform="translate(89.2 250.99) rotate(-51.31)"/><rect id="Rectangle_489" data-name="Rectangle 489" class="cls-3" x="322.47" y="25.42" width="1.23" height="14.42" transform="translate(95.64 264.4) rotate(-51.31)"/></g><g id="Group_2097" data-name="Group 2097"><g id="Group_2096" data-name="Group 2096"><path id="Path_4765" data-name="Path 4765" class="cls-4" d="M130.49,120.8s.4-2.84,1.35-3a2.15,2.15,0,0,1,2.14,1.61c0,.78-2.14,2.63-2.14,2.63Z"/><path id="Path_4766" data-name="Path 4766" class="cls-5" d="M116.85,112.88S123,124.36,125.49,124s5-3.16,5-3.16l1.35,1.29s-3.17,6.63-6.43,6.94-8-3.54-8-3.54Z"/><path id="Path_4767" data-name="Path 4767" class="cls-6" d="M120.91,183.22H112c-.64-.43.17-4.66.17-4.66s2.43-.93,2.85.95,3.1,2.47,4.51,2.7A1.52,1.52,0,0,1,120.91,183.22Z"/><path id="Path_4768" data-name="Path 4768" class="cls-6" d="M107.7,183.22H98.8c-.63-.43.18-4.66.18-4.66s2.43-.93,2.85.95,3.1,2.47,4.51,2.7A1.5,1.5,0,0,1,107.7,183.22Z"/><path id="Path_4769" data-name="Path 4769" class="cls-7" d="M118.51,140.07s-.4,5-.87,11c-.64,8.15-2.36,28.37-2.36,28.37s-1.13,1-3.64.43a79.65,79.65,0,0,1-2.76-14.93l0-.39c-.6-8.1-1.52-25.17-1.52-25.17Z"/><path id="Path_4770" data-name="Path 4770" class="cls-6" d="M118.65,138.34s-.54,6.72-1,12.72l-8.76,13.87,0-.39c-.6-8.1-1.52-25.16-1.52-25.16Z"/><path id="Path_4771" data-name="Path 4771" class="cls-7" d="M116.1,138.34s-6.36,15.83-8.4,21.83c-1.44,4.27-5.53,19.26-5.53,19.26a4.07,4.07,0,0,1-3.26-.5s-1.52-15.31,1.54-19.63c1.63-2.29.4-23.82,7-24S116.1,138.34,116.1,138.34Z"/><path id="Path_4772" data-name="Path 4772" class="cls-4" d="M113.26,115a4,4,0,0,1-2.74.37,5.75,5.75,0,0,1-1.86-.78,5.93,5.93,0,0,1-.75-.57l.09-.14a8,8,0,0,0,.77-5.09,2.06,2.06,0,0,1,.7.12c1.26.3,3.8,1,3.91,1h0s0,.6.14,1.66c0,.1,0,.2,0,.3s0,.26,0,.39A9.36,9.36,0,0,1,113.26,115Z"/><path id="Path_4773" data-name="Path 4773" class="cls-8" d="M113.52,111.63c-1.88.43-4.7-2.35-4.7-2.35a3.17,3.17,0,0,1,.65-.36c1.26.3,3.8,1,3.91,1h0S113.41,110.56,113.52,111.63Z"/><path id="Path_4774" data-name="Path 4774" class="cls-5" d="M119.57,143.83s-17.62.9-17.48-.12c0-.35.5-5.16.88-9.68.1-1.15.18-2.28.25-3.31.13-1.76.22-3.23.22-4,0-1.92,0-3.79.09-5.37,0,0-.88-6.18.1-7.2,1.15-1.18,4.51-1.55,4.72-1.5l.2,0s2.86,1.61,5,.42h.06c.52.08,3.1.68,4,1.62a8.35,8.35,0,0,1,1.57,4.52C119.22,122.2,120.41,143.83,119.57,143.83Z"/><path id="Path_4775" data-name="Path 4775" class="cls-9" d="M113.62,111.43l-.29,13.63,3.08-4.92-1.48-1.31,1.92-1.72-1.28-5.32Z"/><path id="Path_4776" data-name="Path 4776" class="cls-10" d="M108.73,111.68l3.11,1.74,2.08-1.74-.6,13.38Z"/><g id="Group_2094" data-name="Group 2094"><path id="Path_4777" data-name="Path 4777" class="cls-11" d="M120.89,105.05a4.83,4.83,0,0,0-6,1h0a6.55,6.55,0,0,0-.89,1.08,5.61,5.61,0,0,0-.44,5.75h0a3.85,3.85,0,0,0,1.27,1.36,11.8,11.8,0,0,0,2.51.92c.44.08.65.88.65.88l.27,0s-.22-.59.71-1,3.24.82,3.6,1.43-.42,1.07-.42,1.07l.2.36c.58-.37,1.47.36,1.47.36v0a4.13,4.13,0,1,0,4.22-6.68c-.28-.17-.88-.61-.79-1.13l-.41,0s-.11.9-.81.81-2.72-1.73-2.75-2.74.61-1,.61-1l-.08-.26s-.83.13-1.07-.24A12.07,12.07,0,0,0,120.89,105.05Z"/><rect id="Rectangle_490" data-name="Rectangle 490" class="cls-10" x="119.73" y="111.96" width="2.97" height="0.37" transform="translate(-39.07 151.91) rotate(-56.71)"/><path id="Path_4778" data-name="Path 4778" class="cls-12" d="M136.11,121.21l-.58.88L123.39,115l1.27-1.92Z"/><path id="Path_4779" data-name="Path 4779" class="cls-10" d="M122.25,114.65s-.15.31-.76.2a2.94,2.94,0,0,1-.69-.28c-.63-.37-1.6-1.08-2.17-1h0c-.13,0-.26.12-.23.18s0,.07.16.07.24.32,0,.31-.27-.16-.27-.16c-.11-.47.4-.49.4-.49a4,4,0,0,1,2.17.79l.67.38c.44.19.64,0,.65,0s.09-.26,0-.28-.06,0-.15.09-.4,0-.25-.17.28-.12.28-.12a.34.34,0,0,1,.25.42A.33.33,0,0,1,122.25,114.65Z"/><path id="Path_4780" data-name="Path 4780" class="cls-10" d="M124.19,111.69s.23-.25-.12-.77a2.61,2.61,0,0,0-.53-.52c-.59-.43-1.63-1-1.81-1.58h0c0-.13,0-.28.07-.28s.07,0,.13.12.39.1.29-.12-.26-.18-.26-.18c-.47.09-.29.56-.29.56.15.58,1,1.22,1.59,1.68l.61.46c.35.33.24.6.23.61s-.2.18-.24.12,0,0,0-.17-.15-.37-.27-.16,0,.3,0,.3a.34.34,0,0,0,.48,0A.24.24,0,0,0,124.19,111.69Z"/><rect id="Rectangle_491" data-name="Rectangle 491" class="cls-12" x="136.35" y="120.73" width="1.25" height="3.25" transform="translate(-40.49 169.69) rotate(-56.71)"/><g id="Group_2093" data-name="Group 2093"><g id="Group_2089" data-name="Group 2089"><path id="Path_4781" data-name="Path 4781" class="cls-10" d="M118.36,110.87c.09.09,2.26,2,2.35,2h0l16.48,9.66,0,0-16.48-9.65-2.35-2Z"/></g><g id="Group_2090" data-name="Group 2090"><path id="Path_4782" data-name="Path 4782" class="cls-10" d="M118.51,110.65l2.46,1.87,16.29,10,0,0-16.29-10-2.45-1.87Z"/></g><g id="Group_2091" data-name="Group 2091"><path id="Path_4783" data-name="Path 4783" class="cls-10" d="M118.92,110v0l2.78,1.37,15.67,10.84,0,0-15.68-10.85Z"/></g><g id="Group_2092" data-name="Group 2092"><path id="Path_4784" data-name="Path 4784" class="cls-10" d="M118.81,110.19l2.58,1.84,15.92,10.34,0,0L121.41,112l-2.57-1.84Z"/></g></g><path id="Path_4785" data-name="Path 4785" class="cls-12" d="M134.63,123.13h0a.52.52,0,0,0,.15.72l.1.06a.53.53,0,0,0,.72-.14h0a.53.53,0,0,0-.15-.72l-.1-.07A.52.52,0,0,0,134.63,123.13Z"/><rect id="Rectangle_492" data-name="Rectangle 492" class="cls-12" x="134.84" y="122.74" width="1.36" height="0.32" transform="translate(-41.61 168.7) rotate(-56.7)"/><path id="Path_4786" data-name="Path 4786" class="cls-12" d="M136,123.58h0a.38.38,0,0,0,.11.52l.08.05a.38.38,0,0,0,.52-.11h0a.38.38,0,0,0-.11-.52l-.07,0A.39.39,0,0,0,136,123.58Z"/><rect id="Rectangle_493" data-name="Rectangle 493" class="cls-12" x="136.15" y="123.3" width="0.99" height="0.24" transform="translate(-41.52 169.89) rotate(-56.71)"/><path id="Path_4787" data-name="Path 4787" class="cls-12" d="M136.76,119.89h0a.52.52,0,0,1,.72-.15l.1.07a.53.53,0,0,1,.15.72h0a.53.53,0,0,1-.72.14l-.1-.06A.52.52,0,0,1,136.76,119.89Z"/><rect id="Rectangle_494" data-name="Rectangle 494" class="cls-12" x="136.23" y="120.64" width="1.36" height="0.32" transform="translate(-39.23 168.9) rotate(-56.7)"/><path id="Path_4788" data-name="Path 4788" class="cls-12" d="M137.71,121h0a.38.38,0,0,1,.52-.11l.08.05a.38.38,0,0,1,.11.52h0a.37.37,0,0,1-.52.11l-.08,0A.38.38,0,0,1,137.71,121Z"/><rect id="Rectangle_495" data-name="Rectangle 495" class="cls-12" x="137.33" y="121.51" width="0.99" height="0.24" transform="translate(-39.5 170.06) rotate(-56.71)"/><path id="Path_4789" data-name="Path 4789" class="cls-12" d="M118.57,111.89c-.15-.1-4.79-4.28-4.79-4.28l.44-.68,5.7,2.89Z"/><path id="Path_4790" data-name="Path 4790" class="cls-12" d="M114.92,106.05h0a6.86,6.86,0,0,0-.88,1.07,5.63,5.63,0,0,0-.45,5.76h0s1.82-.36,2.22-1.72-1.84-2.83-1.85-2.84S115.53,106.9,114.92,106.05Z"/></g><g id="Group_2095" data-name="Group 2095"><path id="Path_4791" data-name="Path 4791" class="cls-13" d="M112,130l-.39-.3c-.12-.09,0-.44.26-.78l12.65-16.4c.26-.34.57-.54.69-.45l.39.3.4-.51-.4-.3c-.21-.17-.78.2-1.26.83l-12.65,16.4c-.47.62-.69,1.26-.48,1.42l.4.3Z"/><rect id="Rectangle_496" data-name="Rectangle 496" class="cls-13" x="106.98" y="121.11" width="23.57" height="0.12" transform="translate(-49.72 141.2) rotate(-52.35)"/></g><path id="Path_4792" data-name="Path 4792" class="cls-4" d="M114.16,109.82a9.58,9.58,0,0,1-1.76.41c-1.45.19-3.35.08-3.94-1.67-1-2.94-2.29-4.7.67-5.9a4.67,4.67,0,0,1,3.28-.43,2.39,2.39,0,0,1,1.21,1C114.2,104.18,115.35,109.3,114.16,109.82Z"/><path id="Path_4793" data-name="Path 4793" class="cls-6" d="M112.55,100.3a1.48,1.48,0,0,1,1.37,1.59,2,2,0,0,1,0,.24c-.19.74-.86,1.42-2.74,1.73-.8.13-.87,1.56-.88,2s-.07.72-1.07.49a.5.5,0,0,0-.36,0c-.41.25.12,1.44.28,1.7,0,0,.23.85-.28,1.27-.07,0-1.07.48-3.48-3.21a3.42,3.42,0,0,1-.16-3.14c.59-1.26,3-3.38,5.11-3.12C111.43,100,112,100.24,112.55,100.3Z"/><path id="Path_4794" data-name="Path 4794" class="cls-10" d="M114.18,107.92s.06.38-.82.68c0,0-.74.26-.88-.13A2.5,2.5,0,0,1,114.18,107.92Z"/><path id="Path_4795" data-name="Path 4795" class="cls-4" d="M108.52,127.85a16,16,0,0,1,3.62-1.83c.63-.07,3,.35,3,.66,0,1.47-3,2.07-3.39,2.13a10,10,0,0,0-1.8.31C109.47,129.32,108.52,127.85,108.52,127.85Z"/><path id="Path_4796" data-name="Path 4796" class="cls-14" d="M111.76,113.35s-1.19-.57-1.29-.41-.11,1.14.09,1.29,1.21-.38,1.23-.49A1.29,1.29,0,0,0,111.76,113.35Z"/><path id="Path_4797" data-name="Path 4797" class="cls-14" d="M112.06,113.68s1.21.53,1.3.36.07-1.15-.13-1.29-1.2.43-1.22.54A1.74,1.74,0,0,0,112.06,113.68Z"/><path id="Path_4798" data-name="Path 4798" class="cls-14" d="M111.56,113.52a.3.3,0,0,1,.29-.32.3.3,0,0,1,.31.28.31.31,0,0,1-.27.32.3.3,0,0,1-.32-.28Z"/><path id="Path_4799" data-name="Path 4799" class="cls-9" d="M108.73,111.68l4.6,13.38-3.86-4.26.87-1.77-2.43-.87-.84-5.4Z"/><path id="Path_4800" data-name="Path 4800" class="cls-9" d="M109.9,129.12S106.42,133.8,103,134c.1-1.15.18-2.28.25-3.31Z"/><path id="Path_4801" data-name="Path 4801" class="cls-5" d="M103.63,114.12a19.4,19.4,0,0,0-4,8c-1.42,5.28-1.59,9.16,0,9.8s7.13-.63,10.28-2.77l-.7-1.69s-5.13-.94-5-1.41,3.64-6.27,3.68-7.86S104.33,113.61,103.63,114.12Z"/><path id="Path_4802" data-name="Path 4802" class="cls-4" d="M132.09,117.84s-1.25-.13-1.05.41a1.76,1.76,0,0,0,1.57.87,1,1,0,0,0,.85-.33A1.54,1.54,0,0,0,132.09,117.84Z"/></g><circle id="Ellipse_54" data-name="Ellipse 54" class="cls-15" cx="113.42" cy="133.56" r="0.52"/><path id="Path_4803" data-name="Path 4803" class="cls-15" d="M112.9,137.83a.52.52,0,1,1,.52.51h0A.51.51,0,0,1,112.9,137.83Z"/></g><g id="Group_2099" data-name="Group 2099"><g id="Group_2098" data-name="Group 2098"><path id="Path_4804" data-name="Path 4804" class="cls-4" d="M158.2,126.65a6,6,0,0,0-2.64.6c-.74.56-.59,1.75-1.78,2.25s-1.51.76-1,1a4.51,4.51,0,0,0,3.47-.63c.7-.6,1.43-1.17,2.19-1.7Z"/><path id="Path_4805" data-name="Path 4805" class="cls-4" d="M155.56,127.25s-1.45.52-1.67.67,1.27.36,1.27.36Z"/><path id="Path_4806" data-name="Path 4806" class="cls-4" d="M203.85,126.65a6.07,6.07,0,0,1,2.64.6c.74.56.59,1.75,1.77,2.25s1.52.76,1,1a4.5,4.5,0,0,1-3.46-.63c-.7-.6-1.43-1.17-2.19-1.7Z"/><path id="Path_4807" data-name="Path 4807" class="cls-4" d="M206.49,127.25s1.44.52,1.67.67-1.27.36-1.27.36Z"/><path id="Path_4808" data-name="Path 4808" class="cls-5" d="M205.18,126.79,203.9,129s-3.45-.73-6.45-1.69a21.53,21.53,0,0,1-2.83-1.1,17.93,17.93,0,0,1-4.66-3.74h0c-.71-.77-1.15-1.32-1.15-1.32l-2.7-12.82a12.34,12.34,0,0,1,4.15,2c1.55,1.3,5.07,10.27,7.92,12S205.18,126.79,205.18,126.79Z"/><path id="Path_4809" data-name="Path 4809" class="cls-5" d="M176.58,108l-2.91,12.79a27.56,27.56,0,0,1-2.2,2.38,15.26,15.26,0,0,1-3.61,2.68,30.14,30.14,0,0,1-3.52,1.37c-2.8.92-5.7,1.63-5.7,1.63l-1.1-2.23s3.91-2.9,6.76-4.67,6.52-11,8.07-12.35A9.31,9.31,0,0,1,176.58,108Z"/><path id="Path_4810" data-name="Path 4810" class="cls-16" d="M193,183.29h-9.51c-.68-.46.18-5,.18-5s2.6-1,3,1,3.31,2.64,4.82,2.88A1.62,1.62,0,0,1,193,183.29Z"/><path id="Path_4811" data-name="Path 4811" class="cls-16" d="M178.86,183.29h-9.51c-.68-.46.18-5,.18-5s2.6-1,3.05,1,3.3,2.64,4.81,2.88A1.62,1.62,0,0,1,178.86,183.29Z"/><path id="Path_4812" data-name="Path 4812" class="cls-17" d="M190.4,137.2s-.43,5.33-.93,11.74c-.69,8.71-2.53,30.3-2.53,30.3s-1.21,1-3.88.47a85.55,85.55,0,0,1-3-16l0-.42c-.63-8.65-1.62-26.88-1.62-26.88Z"/><path id="Path_4813" data-name="Path 4813" class="cls-3" d="M190.55,135.36s-.58,7.17-1.08,13.58l-9.36,14.82c0-.14,0-.28,0-.42-.63-8.65-1.61-26.88-1.61-26.88Z"/><path id="Path_4814" data-name="Path 4814" class="cls-17" d="M187.82,135.36s-6.79,16.9-9,23.31c-1.54,4.56-5.9,20.58-5.9,20.58a4.37,4.37,0,0,1-3.49-.54s-1.63-16.36,1.65-21c1.74-2.45.43-25.45,7.48-25.64S187.82,135.36,187.82,135.36Z"/><path id="Path_4815" data-name="Path 4815" class="cls-4" d="M183.19,110.43a4.26,4.26,0,0,1-2.93.4,6.07,6.07,0,0,1-2-.84,6.68,6.68,0,0,1-.8-.6,1.5,1.5,0,0,0,.1-.15,8.58,8.58,0,0,0,.82-5.43,1.94,1.94,0,0,1,.75.12c1.34.32,4,1.09,4.17,1.12h0s0,.64.15,1.78l0,.31c0,.14,0,.28,0,.43A9.55,9.55,0,0,1,183.19,110.43Z"/><path id="Path_4816" data-name="Path 4816" class="cls-8" d="M183.47,106.83c-2,.46-5-2.51-5-2.51a2.93,2.93,0,0,1,.69-.39c1.34.32,4,1.09,4.17,1.12h0S183.36,105.69,183.47,106.83Z"/><path id="Path_4817" data-name="Path 4817" class="cls-5" d="M190.8,141.53s-11.53,2.1-20.26-.15c-.26-.07,2.23-9,2.65-15.17.15-2.24-1.36-7.8-1.3-8.78,0,0,0-6.86,1-8,1.22-1.27,4.82-1.65,5.05-1.61l.2,0s3.06,1.73,5.33.45h.07c.55.09,3.32.73,4.27,1.74a8.82,8.82,0,0,1,1.68,4.82C189.56,118.12,191.43,141.53,190.8,141.53Z"/><path id="Path_4818" data-name="Path 4818" class="cls-9" d="M183.67,107.36l-.4,13.81,3.29-5.25-1.58-1.4,2-1.84-.91-4.33Z"/><path id="Path_4819" data-name="Path 4819" class="cls-18" d="M178.36,106.87l3.32,1.87,1.82-1.6.89,1.18-1.12,12.85-5.64-13.34Z"/><path id="Path_4820" data-name="Path 4820" class="cls-4" d="M184.16,104.89a11.26,11.26,0,0,1-1.89.44c-1.54.2-3.57.08-4.2-1.78-1.08-3.15-2.45-5,.71-6.31a5,5,0,0,1,3.51-.46,2.55,2.55,0,0,1,1.3,1.12C184.2,98.86,185.43,104.34,184.16,104.89Z"/><path id="Path_4821" data-name="Path 4821" class="cls-7" d="M182.44,94.72a1.58,1.58,0,0,1,1.46,1.7,2.17,2.17,0,0,1,0,.25c-.21.79-.92,1.52-2.93,1.85-.85.14-.93,1.67-.94,2.09s-.07.77-1.14.52a.5.5,0,0,0-.38,0c-.45.26.12,1.54.29,1.81,0,0,.24.91-.3,1.36-.07.05-1.14.52-3.72-3.43a3.69,3.69,0,0,1-.16-3.36c.62-1.34,3.15-3.6,5.45-3.33C181.24,94.35,181.8,94.66,182.44,94.72Z"/><path id="Path_4822" data-name="Path 4822" class="cls-15" d="M181.6,108.66s-1.28-.61-1.39-.44-.11,1.22.1,1.38,1.3-.41,1.32-.52A3,3,0,0,0,181.6,108.66Z"/><path id="Path_4823" data-name="Path 4823" class="cls-15" d="M181.91,109s1.3.57,1.4.39.07-1.23-.14-1.38-1.28.46-1.3.57A2,2,0,0,0,181.91,109Z"/><path id="Path_4824" data-name="Path 4824" class="cls-15" d="M181.39,108.84a.32.32,0,1,1,.64,0,.32.32,0,0,1-.3.35h0A.32.32,0,0,1,181.39,108.84Z"/><path id="Path_4825" data-name="Path 4825" class="cls-9" d="M177.86,107.52l5.41,13.65-4.13-4.55.93-1.89-2.59-.92-.9-5.78Z"/><path id="Path_4826" data-name="Path 4826" class="cls-10" d="M184.15,102.92a.49.49,0,0,1-.49.5.5.5,0,0,1-.51-.49.51.51,0,0,1,.4-.5A.55.55,0,0,1,184.15,102.92Z"/><path id="Path_4827" data-name="Path 4827" class="cls-15" d="M183.31,134.12a.45.45,0,1,1,.63,0h0A.44.44,0,0,1,183.31,134.12Z"/><path id="Path_4828" data-name="Path 4828" class="cls-15" d="M183.31,127.41a.45.45,0,1,1,.63,0h0A.44.44,0,0,1,183.31,127.41Z"/><path id="Path_4829" data-name="Path 4829" class="cls-15" d="M183,121.39a.45.45,0,1,1,.64-.64.45.45,0,0,1,0,.64.47.47,0,0,1-.64,0Z"/><path id="Path_4830" data-name="Path 4830" class="cls-9" d="M197.45,127.33a22.09,22.09,0,0,1-2.83-1.1,17.93,17.93,0,0,1-4.66-3.74h0c0-.1-.59-2.53,0-2.72s2.44,3.9,4.53,5.12A12.84,12.84,0,0,1,197.45,127.33Z"/><path id="Path_4831" data-name="Path 4831" class="cls-9" d="M172.69,122c-1,1-2.45,3-4.83,3.93-1,.4-2.22.94-3.52,1.37-.07-.75.75-1.5,3.52-2.36,3.41-1.06,2.74-5.37,3.61-5.42S172.69,122,172.69,122Z"/></g></g><g id="Group_2102" data-name="Group 2102"><path id="Path_4832" data-name="Path 4832" class="cls-4" d="M205.14,117.14a5.06,5.06,0,0,0-1.91-1.21c-.77-.11-1.39.68-2.38.28s-1.34-.45-1.18,0a3.76,3.76,0,0,0,2.41,1.68c.77.06,1.54.16,2.3.29Z"/><path id="Path_4833" data-name="Path 4833" class="cls-19" d="M235.81,128.5s13.87,8.56,18.58,29.7,11.7,24.7,11.7,24.7H218s2.56-40.91,9.6-52.54C227.59,130.36,234.07,129.25,235.81,128.5Z"/><path id="Path_4834" data-name="Path 4834" class="cls-3" d="M226.11,102.62s5-4.26,6.66-.68c0,0,.66.21,1.27,1.65.25.6,1.28,1.1,1.16,2.54-.24,3-3,4.46-3.86,3.76-.57-.46-1.24.56-1.24.56Z"/><path id="Path_4835" data-name="Path 4835" class="cls-4" d="M236.4,119.77c0-3.53-.51-5.25-2.05-5.82a13,13,0,0,0-2.57-.07c-.48-.06-1.5-1.64-1.85-4.36l-.2.07-3.45,1.17s.23,1.1.37,2.15c.12.87.14,1.41-.2,1.68s-2.09,1.08-2.09,1.08a40.89,40.89,0,0,0-.25,7.5C224.35,127,236.39,120.38,236.4,119.77Z"/><path id="Path_4836" data-name="Path 4836" class="cls-20" d="M226.11,110.18s.17.7.4,1.83c2-.32,2.83-1,3.34-1.87Z"/><path id="Path_4837" data-name="Path 4837" class="cls-21" d="M236,119.21l-.16,9.3a12.05,12.05,0,0,1-1.14.85,27.57,27.57,0,0,1-5.09,2.56c-1.26,0-2.63-2.08-2.63-2.08a60.84,60.84,0,0,1-3.67-6.3c-.75-1.78.65-6.41,1-7.6a1.45,1.45,0,0,1,.2-.34,18.75,18.75,0,0,0,9.82-1.63l0,0,.06.2.15.48h0Z"/><path id="Path_4838" data-name="Path 4838" class="cls-4" d="M229.42,121.15c-1.3,0-4.92-5.55-4.92-5.55a26,26,0,0,0,9.81-1.63C234.35,114,230.71,121.11,229.42,121.15Z"/><g id="Group_2100" data-name="Group 2100"><path id="Path_4839" data-name="Path 4839" class="cls-10" d="M231.28,113.75a.28.28,0,0,1,.25-.29.26.26,0,0,1,.29.24.27.27,0,0,1-.23.3A.29.29,0,0,1,231.28,113.75Z"/><path id="Path_4840" data-name="Path 4840" class="cls-10" d="M231.13,114.29a.27.27,0,0,1,.25-.29.26.26,0,0,1,.29.24.27.27,0,0,1-.23.3A.3.3,0,0,1,231.13,114.29Z"/><path id="Path_4841" data-name="Path 4841" class="cls-10" d="M230.93,114.81a.26.26,0,0,1,.24-.29.27.27,0,0,1,.3.24.28.28,0,0,1-.24.3A.29.29,0,0,1,230.93,114.81Z"/><path id="Path_4842" data-name="Path 4842" class="cls-10" d="M230.72,115.34a.29.29,0,0,1,.25-.3.27.27,0,0,1,.29.25.26.26,0,0,1-.23.29.28.28,0,0,1-.31-.24Z"/><path id="Path_4843" data-name="Path 4843" class="cls-10" d="M230.41,115.78a.27.27,0,0,1,.24-.3.29.29,0,0,1,.3.25.27.27,0,0,1-.24.29A.27.27,0,0,1,230.41,115.78Z"/><path id="Path_4844" data-name="Path 4844" class="cls-10" d="M230.08,116.23a.27.27,0,0,1,.25-.29.26.26,0,0,1,.29.24.27.27,0,0,1-.23.29A.28.28,0,0,1,230.08,116.23Z"/><path id="Path_4845" data-name="Path 4845" class="cls-10" d="M229.65,116.52a.28.28,0,0,1,.24-.29.27.27,0,0,1,.3.24.28.28,0,0,1-.23.3A.28.28,0,0,1,229.65,116.52Z"/><path id="Path_4846" data-name="Path 4846" class="cls-10" d="M229.12,116.7a.29.29,0,0,1,.25-.3.27.27,0,0,1,.29.25.27.27,0,0,1-.23.29.28.28,0,0,1-.31-.24Z"/><path id="Path_4847" data-name="Path 4847" class="cls-10" d="M228.57,116.78a.27.27,0,0,1,.24-.3.29.29,0,0,1,.3.25.27.27,0,0,1-.24.29.27.27,0,0,1-.3-.24Z"/><path id="Path_4848" data-name="Path 4848" class="cls-10" d="M228,116.74a.26.26,0,0,1,.24-.29.27.27,0,1,1,.06.54A.27.27,0,0,1,228,116.74Z"/><path id="Path_4849" data-name="Path 4849" class="cls-10" d="M227.53,116.52a.28.28,0,0,1,.24-.29.27.27,0,0,1,.3.24.28.28,0,0,1-.23.3.27.27,0,0,1-.31-.24Z"/><path id="Path_4850" data-name="Path 4850" class="cls-10" d="M227.1,116.21a.26.26,0,0,1,.24-.29.27.27,0,0,1,.3.24.27.27,0,0,1-.24.29A.27.27,0,0,1,227.1,116.21Z"/><path id="Path_4851" data-name="Path 4851" class="cls-10" d="M226.72,115.81a.26.26,0,0,1,.24-.29.27.27,0,0,1,.3.24.27.27,0,1,1-.54,0Z"/><path id="Path_4852" data-name="Path 4852" class="cls-10" d="M226.39,115.39a.27.27,0,0,1,.24-.3.29.29,0,0,1,.3.25.27.27,0,0,1-.24.29.26.26,0,0,1-.3-.24Z"/><path id="Path_4853" data-name="Path 4853" class="cls-10" d="M226.05,114.93a.3.3,0,0,1,.26-.32.28.28,0,0,1,.31.26.27.27,0,0,1-.25.31A.28.28,0,0,1,226.05,114.93Z"/><path id="Path_4854" data-name="Path 4854" class="cls-10" d="M226.41,114.2a.28.28,0,0,1,.26-.31.28.28,0,0,1,.31.26.29.29,0,0,1-.25.31.29.29,0,0,1-.32-.26Z"/><path id="Path_4855" data-name="Path 4855" class="cls-10" d="M227,114.26a.28.28,0,0,1,.26-.31.29.29,0,0,1,.31.26.3.3,0,0,1-.25.31A.29.29,0,0,1,227,114.26Z"/><path id="Path_4856" data-name="Path 4856" class="cls-10" d="M227.52,114.23a.29.29,0,0,1,.57-.06.28.28,0,0,1-.25.32.29.29,0,0,1-.32-.26Z"/><path id="Path_4857" data-name="Path 4857" class="cls-10" d="M228.07,114.2a.29.29,0,0,1,.57-.06.28.28,0,0,1-.25.32A.29.29,0,0,1,228.07,114.2Z"/><path id="Path_4858" data-name="Path 4858" class="cls-10" d="M228.63,114.17a.29.29,0,0,1,.26-.32.28.28,0,0,1,.31.26.28.28,0,0,1-.25.31A.28.28,0,0,1,228.63,114.17Z"/><path id="Path_4859" data-name="Path 4859" class="cls-10" d="M229.17,114.05a.29.29,0,0,1,.57,0,.28.28,0,0,1-.25.31A.29.29,0,0,1,229.17,114.05Z"/><path id="Path_4860" data-name="Path 4860" class="cls-10" d="M229.69,113.94a.3.3,0,0,1,.26-.32.31.31,0,0,1,.32.26.29.29,0,1,1-.58.06Z"/><path id="Path_4861" data-name="Path 4861" class="cls-10" d="M230.23,113.79a.29.29,0,0,1,.57-.05.28.28,0,0,1-.25.31A.29.29,0,0,1,230.23,113.79Z"/><path id="Path_4862" data-name="Path 4862" class="cls-10" d="M230.69,113.46a.37.37,0,0,1,.74-.07.36.36,0,0,1-.32.4.37.37,0,0,1-.42-.33Z"/></g><g id="Group_2101" data-name="Group 2101"><path id="Path_4863" data-name="Path 4863" class="cls-3" d="M230.41,109.49a10.5,10.5,0,0,0,1.81-2.8c.35-1,.5-4.73-3.3-4.86a5.14,5.14,0,0,0-2.22.43c-.9.4-2.27,1.36-1.54,4.81l.15,1.14Z"/><path id="Path_4864" data-name="Path 4864" class="cls-4" d="M225.52,110.75s4.63.9,5.15-2,1.45-4.73-1.48-5.42-3.72.31-4.12,1.23S224.32,110.44,225.52,110.75Z"/><path id="Path_4865" data-name="Path 4865" class="cls-3" d="M227.08,102.88s.67,3.62,2.54,4.47a3.93,3.93,0,0,0,2.81.47,5.58,5.58,0,0,1-1.24-3.59S228.33,101.43,227.08,102.88Z"/><path id="Path_4866" data-name="Path 4866" class="cls-3" d="M227.35,103.21a4.09,4.09,0,0,0-1.45,1.29c-.36.7-.73,2.2-1.17,2.07,0,0-.55-2.48.76-3.6S227.35,103.21,227.35,103.21Z"/><path id="Path_4867" data-name="Path 4867" class="cls-10" d="M226.14,109.09a.38.38,0,0,1-.7-.31.39.39,0,0,1,.42-.23A.44.44,0,0,1,226.14,109.09Z"/></g><path id="Path_4868" data-name="Path 4868" class="cls-21" d="M224.5,115.6s-1.88-3.17-2.76-2.69-6.84,7.46-10.13,6.62-4.4-3.32-6.47-3.08l-1.06,1.93a5.09,5.09,0,0,0,1.51,3.47,15.49,15.49,0,0,0,7.95,3.58c2.17.11,9.65-3.18,9.65-3.18Z"/><path id="Path_4869" data-name="Path 4869" class="cls-4" d="M203.23,115.93a14.94,14.94,0,0,0-1.38-.59c-.22,0,.54,1,.54,1Z"/><path id="Path_4870" data-name="Path 4870" class="cls-4" d="M253.47,125.33a5.18,5.18,0,0,1,2.24.32c.66.42.62,1.42,1.64,1.75s1.31.52.9.76a3.74,3.74,0,0,1-2.93-.28c-.63-.45-1.28-.87-1.94-1.26Z"/><path id="Path_4871" data-name="Path 4871" class="cls-4" d="M255.71,125.65s1.24.33,1.44.44-1,.39-1,.39Z"/><path id="Path_4872" data-name="Path 4872" class="cls-21" d="M234.31,114s1.22-2.39,2.09-2.11,6.35,10.17,8.36,10.76,8.53,1.82,9,2.81-1.34,2.6-2.68,2.56a47.36,47.36,0,0,1-9.06-1.73c-1.7-.72-6.2-4.57-6.2-4.57Z"/></g><path id="Path_4873" data-name="Path 4873" class="cls-3" d="M387.22,188.09a66.46,66.46,0,0,1-2,11.9,31.72,31.72,0,0,1-30.76,23.76c-58.06-.23-225.71-1.07-282.07-1.36a28.05,28.05,0,0,1-26.72-20.21,121.25,121.25,0,0,1-3.27-14.08Z"/><path id="Path_4874" data-name="Path 4874" class="cls-9" d="M390.08,188.09H42.41c-.38-2.24-.71-4.55-1-6.93h348.8C390.31,183.47,390.25,185.79,390.08,188.09Z"/><g id="Group_2103" data-name="Group 2103"><path id="Path_4875" data-name="Path 4875" class="cls-21" d="M389.66,193c-9.67.18-8.35,2.44-17.55-.6-1.72-.57-3.89-3.88-8.85-5.89a18.25,18.25,0,0,0-13.72.21l5-71c-59.92-17.16-88-92.94-94-111.24,38.86-2.94,80-3.56,98.41,8.14C383,28,385.68,61,384,92c-.3,5.56-.75,11-1.24,16.35,0,.39-.07.77-.1,1.15C379.35,144.66,394.92,157.74,389.66,193Z"/></g><g id="Group_2104" data-name="Group 2104"><path id="Path_4876" data-name="Path 4876" class="cls-21" d="M69.34,118.82l4.19,72.87a8.51,8.51,0,0,1-8.19.69c-5.34-2.44-9.07,3.38-10.77,3-5.91-1.38-3.5-3.58-12.8-3.76-6.16-24.53,3.66-43.64.5-79.09a1.94,1.94,0,0,0,0-.24c-.46-5.23-.9-10.65-1.2-16.13C39.28,64.55,41.61,30.66,65.13,15c17.71-11.78,57.34-11.15,94.76-8.2C154.12,25.25,127,101.55,69.34,118.82Z"/></g><g id="Group_2106" data-name="Group 2106"><g id="Group_2105" data-name="Group 2105"><path id="Path_4877" data-name="Path 4877" class="cls-3" d="M183.31,45.78l-15-.1c-1.44,0-2-1-1.18-2.3l3.76-6.07a5.23,5.23,0,0,1,4-2.26l15,.1c1.44,0,2,1,1.18,2.3l-3.76,6.06A5.21,5.21,0,0,1,183.31,45.78Z"/><path id="Path_4878" data-name="Path 4878" class="cls-22" d="M183,44.86l-13.28-.09c-1.22,0-1.67-.88-1-2l3-4.91A4.46,4.46,0,0,1,175.18,36l13.28.09c1.22,0,1.67.88,1,2l-3.05,4.91A4.45,4.45,0,0,1,183,44.86Z"/></g><path id="Path_4879" data-name="Path 4879" class="cls-3" d="M174.87,35.05h-5.62a2.07,2.07,0,0,0-2.08,2.05l-.08,6.28,5.3-7.41Z"/></g><g id="Group_2108" data-name="Group 2108"><g id="Group_2107" data-name="Group 2107"><path id="Path_4880" data-name="Path 4880" class="cls-3" d="M236.31,45.78l15-.1c1.44,0,2-1,1.18-2.3l-3.76-6.07a5.23,5.23,0,0,0-4-2.26l-15,.1c-1.44,0-2,1-1.18,2.3l3.76,6.06A5.21,5.21,0,0,0,236.31,45.78Z"/><path id="Path_4881" data-name="Path 4881" class="cls-22" d="M236.62,44.86l13.28-.09c1.22,0,1.67-.88,1-2l-3.05-4.91A4.45,4.45,0,0,0,244.44,36l-13.28.09c-1.22,0-1.67.88-1,2l3,4.91A4.45,4.45,0,0,0,236.62,44.86Z"/></g><path id="Path_4882" data-name="Path 4882" class="cls-3" d="M244.74,35.05h5.63a2.07,2.07,0,0,1,2.08,2.05l.07,6.28L247.22,36Z"/></g><g id="Group_2121" data-name="Group 2121"><g id="Group_2111" data-name="Group 2111"><g id="Group_2109" data-name="Group 2109"><path id="Path_4883" data-name="Path 4883" class="cls-6" d="M317.27,183.15h0a.52.52,0,0,1-.5-.54v0l2-21.48,1.71.16-2.82,21.6A.33.33,0,0,1,317.27,183.15Z"/></g><g id="Group_2110" data-name="Group 2110"><path id="Path_4884" data-name="Path 4884" class="cls-6" d="M336.18,183.15h0a.52.52,0,0,0,.5-.54v0l-2-21.48-1.71.16,2.82,21.6A.32.32,0,0,0,336.18,183.15Z"/></g><path id="Path_4885" data-name="Path 4885" class="cls-6" d="M335.6,158.24,339.08,141a3.81,3.81,0,0,0-3.17-4.36,3.76,3.76,0,0,0-.82,0l-6.72.15a5.32,5.32,0,0,0-5,3.84l-5.1,17.63Z"/><path id="Path_4886" data-name="Path 4886" class="cls-6" d="M333.49,158.24,337,141a3.81,3.81,0,0,0-3.17-4.36,3.73,3.73,0,0,0-.82,0l-6.72.15a5.33,5.33,0,0,0-5,3.84l-5.1,17.63Z"/><path id="Rectangle_497" data-name="Rectangle 497" class="cls-6" d="M308.63,158.24h27v1.57a1.57,1.57,0,0,1-1.57,1.57h-25.4a1.57,1.57,0,0,1-1.57-1.57h0A1.57,1.57,0,0,1,308.63,158.24Z"/><path id="Rectangle_498" data-name="Rectangle 498" class="cls-6" d="M306,158.24h15.38a1.57,1.57,0,0,1,1.57,1.57h0a1.57,1.57,0,0,1-1.57,1.57H306a1.57,1.57,0,0,1-1.57-1.57h0a1.57,1.57,0,0,1,1.57-1.57Z"/></g><g id="Group_2120" data-name="Group 2120"><path id="Path_4887" data-name="Path 4887" class="cls-4" d="M325.84,128.11a1.85,1.85,0,0,0,.44-1.29h0a1.72,1.72,0,0,1-1.35-1.3,12.44,12.44,0,0,1-.3-2.12l-.22.06-3.79,1s.17,1.2.25,2.34l0,.47a.38.38,0,0,1-.29.37h0c-1.18.23-1.25,2,.27,2.49a1.28,1.28,0,0,0,1.32.65c1.24-.06,3.9-1.55,3.67-2.61Z"/><path id="Path_4888" data-name="Path 4888" class="cls-6" d="M321.09,116.06a1.93,1.93,0,0,1,1.24-2.43,2.62,2.62,0,0,1,.38-.09c2.2-.29,4.39,1.53,5.16,4.4.51,1.9-.27,4.52-2,4.32S321.09,116.06,321.09,116.06Z"/><path id="Path_4889" data-name="Path 4889" class="cls-23" d="M318.11,129.11s-.73,1.41-3.09,5.29c-2.2,3.61-2,2.32-2.79,1.17-.62-.92-2.71-4.38-2.71-4.38l-1,1.75s3.25,8.84,4.88,8,6.32-5.26,7.08-7.18S318.11,129.11,318.11,129.11Z"/><g id="Group_2112" data-name="Group 2112"><path id="Path_4890" data-name="Path 4890" class="cls-4" d="M315.24,178c.44.76-6.74,4.21-6.22,3.63l.42-.46.26-.3a8.41,8.41,0,0,0,1.3-3.19c.37-1.11-1.44-6.32-1.44-6.32l3.5.8s.36,2.53.57,3.59a3.2,3.2,0,0,0,1,1.54A3.7,3.7,0,0,1,315.24,178Z"/><path id="Path_4891" data-name="Path 4891" class="cls-6" d="M313.41,180.09c-1.25.66-.74.74-2.35,1.88s-2.54,1-2.78.8.46-.87,1.15-1.65h0a5.54,5.54,0,0,0,2.68-1.2c1-.86,1.82-2.08,2.51-2.68a3.64,3.64,0,0,1,.6.7C315.68,178.72,314.66,179.43,313.41,180.09Z"/></g><path id="Path_4892" data-name="Path 4892" class="cls-4" d="M325.36,149.1s-20,.19-20.81,4c-1.71,8.24-4.82,24.89-4.82,24.89s-.34.91.39,1a5.69,5.69,0,0,0,2.1-.82s6.43-11.67,6.92-13.8c.63-2.71.93-4.84,2.15-5s16.46,1.21,18.6-2.92S325.36,149.1,325.36,149.1Z"/><path id="Path_4893" data-name="Path 4893" class="cls-23" d="M320.62,124.48s.17,1.2.25,2.34c2.14-.2,3.15-2.23,3.54-3.35Z"/><path id="Path_4894" data-name="Path 4894" class="cls-5" d="M329.84,146.27c-1.18-3.65-.17-13.07-.2-13.27-.79-4.72-3.37-6.18-3.37-6.18s-1.48,2.87-3.85,2.87-1.82-2-1.82-2-2.16.26-2.67.81a20.57,20.57,0,0,0-2.07,3.58s-.05.82,2,1.22a27.73,27.73,0,0,0-.55,3.73c-.05,1.1.75,4.56,1,6.71.08.76.65,2.52-.59,2.94C313.78,147.94,330.34,147.83,329.84,146.27Z"/><path id="Path_4895" data-name="Path 4895" class="cls-6" d="M324.77,123a11.39,11.39,0,0,0,1.18-3.39c.12-1.1-.7-5.08-4.7-4.24a5.49,5.49,0,0,0-2.22,1c-.84.65-2,2-.37,5.42l.45,1.17Z"/><path id="Path_4896" data-name="Path 4896" class="cls-5" d="M329.17,144.4a35.62,35.62,0,0,1,2.33,10.18c.21,3.69-5.46,4.6-9.8,4.76S313,161.1,313.25,163s.27,9.39.27,9.39-3.23,1.31-5.33-.56-6.54.32-8.4-1.28a17.2,17.2,0,0,1-3.28-4.31s7.28-14.14,9.87-16.28,12.25-3.44,12.25-3.44Z"/><path id="Path_4897" data-name="Path 4897" class="cls-4" d="M320,125.6s5.08-.25,4.87-3.41.31-5.33-2.94-5.3-3.8,1.27-4,2.35S318.65,125.59,320,125.6Z"/><path id="Path_4898" data-name="Path 4898" class="cls-6" d="M319.59,117s1.64,3.62,3.81,4,3.06-.22,3.06-.22a6.07,6.07,0,0,1-2.22-3.44S320.52,115.14,319.59,117Z"/><path id="Path_4899" data-name="Path 4899" class="cls-6" d="M320,117.25a4.35,4.35,0,0,0-1.18,1.72c-.2.82-.2,2.49-.69,2.46,0,0-1.22-2.45-.14-4S320,117.25,320,117.25Z"/><g id="Group_2118" data-name="Group 2118"><path id="Path_4900" data-name="Path 4900" class="cls-11" d="M309.75,169.9c-.12-1,1.48-2,1.48-2l-.24-.56s-1.13.86-2.52-.9-.31-7.44.76-8.6,2.55.21,2.55.21l.63-.65c-.9-.77-.5-2.38-.28-3.06A9.2,9.2,0,1,0,295.36,149h0s-.48,2.54-2,2.73l.17.89s2-.34,2.25,1.22-1.95,6.92-4.07,7.62-2.6-.63-2.6-.63l-.51.34s.81,1.66.17,2.43a27.19,27.19,0,0,0-3,5.18,8.66,8.66,0,0,0-.2,4.14h0c.75,4,4.17,7.73,9,9.17a14.51,14.51,0,0,0,3.05.57h0c5.38.41,10.26-2.32,11.62-6.88A26.68,26.68,0,0,0,309.75,169.9Z"/><rect id="Rectangle_499" data-name="Rectangle 499" class="cls-10" x="299.19" y="159.93" width="0.83" height="6.62" transform="translate(57.54 403.69) rotate(-73.39)"/><path id="Path_4901" data-name="Path 4901" class="cls-12" d="M312,126.43l-2.25-.67-10.46,29.57,4.93,1.47Z"/><path id="Path_4902" data-name="Path 4902" class="cls-10" d="M297.78,157.5s-.69-.32-1.58.76a6.18,6.18,0,0,0-.77,1.46c-.53,1.54-1.18,4.14-2.21,4.88h0c-.24.15-.6.18-.64,0s-.07-.15.17-.35,0-.9-.44-.54-.21.65-.21.65c.48,1,1.38.26,1.38.26,1.15-.68,2-2.81,2.57-4.45.19-.55.49-1.38.6-1.6.47-1,1.11-.89,1.14-.89.3,0,.52.31.42.45s-.08.14-.38.06-.7.56-.18.67.65-.21.65-.21a.76.76,0,0,0-.19-1.06A.71.71,0,0,0,297.78,157.5Z"/><path id="Path_4903" data-name="Path 4903" class="cls-10" d="M305.34,159.75s.75.11.9,1.5a6.47,6.47,0,0,1-.15,1.64c-.4,1.58-1.29,4.12-.83,5.29h0v0c.12.26.4.48.53.38s.14-.08,0-.39.53-.72.66-.21-.17.66-.17.66c-.93.55-1.3-.53-1.3-.54-.59-1.2-.14-3.44.29-5.13.14-.56.35-1.42.38-1.66.13-1.06-.45-1.36-.47-1.38-.27-.14-.6,0-.6.15s0,.16.29.26.27.86-.22.66-.43-.53-.43-.53a.76.76,0,0,1,.74-.79A1,1,0,0,1,305.34,159.75Z"/><rect id="Rectangle_500" data-name="Rectangle 500" class="cls-12" x="308.21" y="121.83" width="7.24" height="2.78" transform="translate(104.62 386.83) rotate(-73.39)"/><g id="Group_2117" data-name="Group 2117"><g id="Group_2113" data-name="Group 2113"><path id="Path_4904" data-name="Path 4904" class="cls-10" d="M296.56,169.51c0-.28,1-6.71,1.06-7h0l14.08-40.86.08,0-14.07,40.86c0,.24-1,6.7-1.06,7Z"/></g><g id="Group_2114" data-name="Group 2114"><path id="Path_4905" data-name="Path 4905" class="cls-10" d="M297.14,169.68l1.49-6.85L312,121.73l.09,0-13.34,41.09-1.48,6.85Z"/></g><g id="Group_2115" data-name="Group 2115"><path id="Path_4906" data-name="Path 4906" class="cls-10" d="M298.72,170.17l-.08,0,2.75-6.45,11-41.73.08,0-11,41.75Z"/></g><g id="Group_2116" data-name="Group 2116"><path id="Path_4907" data-name="Path 4907" class="cls-10" d="M298.29,170l1.73-7,12.18-41.24.08,0-12.17,41.23-1.73,7Z"/></g></g><path id="Path_4908" data-name="Path 4908" class="cls-12" d="M306.71,125.27h0a1.16,1.16,0,0,1-.78-1.44l.08-.26a1.16,1.16,0,0,1,1.44-.78h0a1.15,1.15,0,0,1,.77,1.44l-.08.26A1.15,1.15,0,0,1,306.71,125.27Z"/><rect id="Rectangle_501" data-name="Rectangle 501" class="cls-12" x="308.2" y="122.85" width="0.72" height="3.03" transform="translate(101.19 384.51) rotate(-73.39)"/><path id="Path_4909" data-name="Path 4909" class="cls-12" d="M308.39,122.54h0a.83.83,0,0,1-.56-1l.06-.19a.84.84,0,0,1,1-.56h0a.83.83,0,0,1,.56,1l-.05.19A.85.85,0,0,1,308.39,122.54Z"/><rect id="Rectangle_502" data-name="Rectangle 502" class="cls-12" x="309.47" y="120.79" width="0.52" height="2.19" transform="translate(104.39 383.86) rotate(-73.39)"/><path id="Path_4910" data-name="Path 4910" class="cls-12" d="M315,127.74h0a1.16,1.16,0,0,0,1.44-.78l.08-.26a1.16,1.16,0,0,0-.77-1.44h0a1.16,1.16,0,0,0-1.44.78l-.08.26A1.16,1.16,0,0,0,315,127.74Z"/><rect id="Rectangle_503" data-name="Rectangle 503" class="cls-12" x="313.58" y="124.46" width="0.72" height="3.03" transform="translate(103.49 390.81) rotate(-73.39)"/><path id="Path_4911" data-name="Path 4911" class="cls-12" d="M315.08,124.54h0a.84.84,0,0,0,1-.57l.06-.19a.84.84,0,0,0-.57-1h0a.84.84,0,0,0-1,.56l-.06.2A.84.84,0,0,0,315.08,124.54Z"/><rect id="Rectangle_504" data-name="Rectangle 504" class="cls-12" x="314.05" y="122.16" width="0.52" height="2.19" transform="translate(106.29 389.18) rotate(-73.38)"/><path id="Path_4912" data-name="Path 4912" class="cls-12" d="M295.46,167.49c-.11.38-2,14.18-2,14.18l1.72.51,5.58-13.11Z"/><path id="Path_4913" data-name="Path 4913" class="cls-11" d="M313.45,121.34l-.26.93-1.93-.54.31-.92Z"/></g><path id="Path_4914" data-name="Path 4914" class="cls-4" d="M328.11,129.25s2.11,0,2.56,2.66-9.7,14-12.31,13.3c-2.9-.73-9.55-5.8-9.55-5.8l.8-1s8.47,3,9,2.82S327.2,129,328.11,129.25Z"/><path id="Path_4915" data-name="Path 4915" class="cls-5" d="M326.28,126.82s3.27.58,4.4,2.29c.9,1.36,0,6.1,0,6.1a19.32,19.32,0,0,1-7.22-.47Z"/><g id="Group_2119" data-name="Group 2119"><path id="Path_4916" data-name="Path 4916" class="cls-4" d="M310,138.51s-3.43-1.45-4-1.25a7.8,7.8,0,0,0-2.32,1.38c-.23.34,1.24-.07,1.7-.11a4.28,4.28,0,0,1,1.36.57,4.3,4.3,0,0,0,2,.47,2.41,2.41,0,0,1,.76.32Z"/><path id="Path_4917" data-name="Path 4917" class="cls-4" d="M305.66,138.16a7,7,0,0,1-1.11.83.62.62,0,0,1-.38,0l.62-.75Z"/><path id="Path_4918" data-name="Path 4918" class="cls-4" d="M306,137.26l-2.2.62a.38.38,0,0,0,.31.19A4.7,4.7,0,0,0,305,138Z"/><path id="Path_4919" data-name="Path 4919" class="cls-4" d="M308.69,139.57a2,2,0,0,1-1.35.23c-.66-.17-1.26-.13-1.25-.3s.93-.43.93-.43Z"/></g><path id="Path_4920" data-name="Path 4920" class="cls-23" d="M308.15,129.48s1.6-.35,1.53.24-1.47,1.84-1.87,1.49S307.79,129.69,308.15,129.48Z"/></g></g><g id="Group_2122" data-name="Group 2122"><path id="Path_4921" data-name="Path 4921" class="cls-24" d="M173.56,216.28a2.72,2.72,0,0,0-1-1.84c-2.14-1.78-7.54-6.41-8-8-.13-.43-.26-.83-.4-1.19-.89-2.33-2-3.24-3.06-3.63a26.71,26.71,0,0,0-6.13-1.32v0c1,.11,1.52.23,1.52.23a3.48,3.48,0,0,0-1.58-1.17,8.89,8.89,0,0,1,.05-1.71h0a5.94,5.94,0,0,0,2.08-3c.43-.47.8-1.23.69-1.55a.64.64,0,0,0-.14-.22l.18-.34c.46-.38.39-1.32.67-1.73s.75-1.79.41-2.2a3.43,3.43,0,0,1-.58-2.06c-.09-1.12-.9-.61-1.58-.76s-.54-.36-.88-1.18-1.09-.75-2.25-.51-.91-.51-2.1-.68-1.67.95-2.72,1-1.23,1.18-2.18,1.79,0,2.65,0,2.65c0,.45,0,0-.47.79s.33,1.27.05,2.29.77.91.77.91,0,0,0,.05a.36.36,0,0,0-.49.13.49.49,0,0,0,0,.11c-.17.49.77,2,1.35,2a5.37,5.37,0,0,0,1.58,2.68,14.45,14.45,0,0,1,.06,1.47,5,5,0,0,0-2.15,1.27c-.5.07-1,.16-1.44.26a9.48,9.48,0,0,0-3.65,1.48c-1.81,1.4-6.9,9.28-8.87,12.38a6.17,6.17,0,0,0-.92,2.7l-.63,5.44,24.49.12h0l3.24,0,14.54.07C173.93,220.14,173.62,216.84,173.56,216.28Zm-24.22-16.09h0c-.63,0-1.23.1-1.81.18.62-.08,1.22-.15,1.81-.19Z"/><path id="Path_4922" data-name="Path 4922" class="cls-24" d="M230.93,213.92h0a3.25,3.25,0,0,0-1.16-2.17c-2.52-2.1-8.89-7.55-9.44-9.4-1.13-3.79-2.6-5.15-4.08-5.68a32,32,0,0,0-7.23-1.56,14.52,14.52,0,0,1,0-3.16h0a7,7,0,0,0,2.44-3.6c.51-.56,1-1.45.82-1.83a.48.48,0,0,0-.19-.27,3.9,3.9,0,0,0,.42-.93c.5-1.68.69-5.09-1.53-6.92-1.93-1.59-4.34-2.62-6.74-2a8,8,0,0,0-5.12,5,6.79,6.79,0,0,0,.26,4.72.41.41,0,0,0-.46.33c-.2.58.91,2.31,1.59,2.31a6.49,6.49,0,0,0,1.86,3.17,14,14,0,0,1,0,3c-3.65.24-6.81,1-8.47,2.31-2.13,1.65-8.14,10.94-10.45,14.59a7.11,7.11,0,0,0-1.09,3.18L182,218.3h46.52C229.73,218.25,231,215.09,230.93,213.92Z"/><path id="Path_4923" data-name="Path 4923" class="cls-24" d="M251,213v10.3l-17.22-.08-28.4-.14h-1.13l1.8-2.84c.21-.31.48-.66.78-1s.48-.58.74-.87a31.29,31.29,0,0,1,2.4-2.49c2.33-2,8.24-7,8.75-8.71a10.72,10.72,0,0,1,2-4,4.29,4.29,0,0,1,1.79-1.24,26.25,26.25,0,0,1,3.23-.9,34,34,0,0,1,3.48-.54,13.76,13.76,0,0,0,0-2.94s-2.14.89-2.65-5.34a1.11,1.11,0,0,1-.39-.33c-1.71-1-1.78-2.64-1.48-4.18.53-2.7,2.87-6.34,6.76-5.91a8.77,8.77,0,0,0,2.23-.07c1.45-.22,3.8-.3,4.91,1.27,4.31,6.07-1,9.52-.2,11.68s6,5.06,4.83,7.83h0a9.37,9.37,0,0,1,1.3,1.37C246.28,205.91,248.91,209.79,251,213Z"/><path id="Path_4924" data-name="Path 4924" class="cls-24" d="M207.37,220c0,.51-.91,1.83-2,3h-1.13L174,222.89l-14.54-.07-.65-2.62-.12-.49a3.38,3.38,0,0,1,.65-3l.09-.11c.92-1.13,2.17-2.42,2.48-2.92s.8-1.26,1.34-2.08a1.91,1.91,0,0,1-.78-1.6,7.73,7.73,0,0,1,1.69-4.77c2-2.82,4.91-4.95,3.07-8.4-1.28-2.41,4.35-6.26,5.08-8.23s1.09-4.38,3.22-6,5.61-.93,5.61-.93c4.11-1.13,6.58,2.56,7.1,5.23.28,1.4.21,2.86-1.3,3.79a2.93,2.93,0,0,1-.45.76,6.74,6.74,0,0,1-1.61,3.77c.08,1,.46,1.75,1.17,1.85,3.24.48,4.21,1.74,4.49,3a3.56,3.56,0,0,1,.6.34c.94.65,1.84,1.9,2.58,4.37.47,1.56,5.87,6.18,8,8a29,29,0,0,1,3.59,4l.94,1.49.55.87Z"/><path id="Path_4925" data-name="Path 4925" class="cls-24" d="M128.42,220c.05.45-.71,1.55-1.65,2.62l-15.16-.08-8,0-21.55-.1H80.43l-.67-2.72a3.4,3.4,0,0,1,.64-3c.94-1.16,2.25-2.51,2.58-3l1.34-2.08a1.92,1.92,0,0,1-.78-1.6c-.08-3.22,2.18-5.33,3.78-7.42,1.33-1.73,2.2-3.44,1-5.75s4.35-6.27,5.08-8.24,1.09-4.38,3.22-5.95,5.6-.92,5.6-.92c4.11-1.14,6.59,2.55,7.11,5.23.28,1.4.21,2.85-1.3,3.79a3.24,3.24,0,0,1-.45.76,6.72,6.72,0,0,1-1.62,3.77c.09,1,.47,1.74,1.18,1.85,3.24.47,4.21,1.74,4.48,3,1.16.52,2.3,1.73,3.19,4.71a7.11,7.11,0,0,0,1.59,2.14,84.37,84.37,0,0,0,6.42,5.83,31,31,0,0,1,3.59,4Z"/><path id="Path_4926" data-name="Path 4926" class="cls-24" d="M158.82,220.2a16.82,16.82,0,0,1-2.6,2.6h0l-24.48-.12-5,0-15.17-.08-1.23-5.08a3.62,3.62,0,0,1,.66-3.08c1-1.22,2.3-2.64,2.64-3.18.62-1,1.59-2.55,2.7-4.26,2.48-3.86,5.63-8.53,6.9-9.54,1.45-1.14,4.19-1.84,7.35-2.05,0-.18,0-.35.05-.53-3.68-.08-7.22-1.21-8.62-4.68-1.07-2.64,1.52-3.13,2.26-5.19s1.11-4.58,3.29-6.23,5.74-1,5.74-1c4.21-1.19,6.74,2.67,7.28,5.47.27,1.46.21,3-1.33,4a3.37,3.37,0,0,1-.47.8,7.89,7.89,0,0,1-1,3,1.16,1.16,0,0,0,.39.26c1.2.49,2,1.88,1.16,2.17a25.13,25.13,0,0,1-3.09.83c0,.42,0,.84.08,1.23a27.54,27.54,0,0,1,6.28,1.38c1.1.4,2.2,1.36,3.12,3.79q.21.57.42,1.26c.47,1.63,6,6.47,8.2,8.34a31.2,31.2,0,0,1,3.67,4.19l1.34,2.17.74,1.2A5.26,5.26,0,0,1,158.82,220.2Z"/><path id="Path_4927" data-name="Path 4927" class="cls-24" d="M82.11,222.44H80.43l-7.78,0a28.26,28.26,0,0,1-26.8-19.75,3.88,3.88,0,0,1,.42-.39c1.41-1.1,4.09-1.76,7.19-2,0-.17,0-.34,0-.5-3.59-.08-7-1.16-8.42-4.48-1-2.52,1.48-3,2.2-5s1.09-4.38,3.22-5.95,5.61-.92,5.61-.92c4.11-1.14,6.59,2.55,7.11,5.23.27,1.4.21,2.85-1.3,3.79a3.24,3.24,0,0,1-.45.76,7.43,7.43,0,0,1-.94,2.86.9.9,0,0,0,.38.25c1.17.47,2,1.8,1.14,2.07a24.42,24.42,0,0,1-3,.8c0,.4,0,.8.07,1.17a27.47,27.47,0,0,1,6.14,1.33,4.27,4.27,0,0,1,2.2,1.88,12.13,12.13,0,0,1,1.26,2.94c.46,1.56,5.87,6.18,8,8a31.81,31.81,0,0,1,3.1,3.36c.18.23.35.44.48.64l2,3.23A1.37,1.37,0,0,1,82.11,222.44Z"/><path id="Path_4928" data-name="Path 4928" class="cls-24" d="M300,209.19a2.8,2.8,0,0,0-1-1.84c-1.35-1.13-4-3.39-5.9-5.3a9.31,9.31,0,0,1-2.11-2.68c-1-3.21-2.21-4.37-3.46-4.81a26.93,26.93,0,0,0-6.14-1.33v0c1,.11,1.52.23,1.52.23a3.34,3.34,0,0,0-1.58-1.17,9.75,9.75,0,0,1,.06-1.71h0a6,6,0,0,0,2.07-3.05c.43-.48.8-1.23.69-1.55a.46.46,0,0,0-.14-.22,2.31,2.31,0,0,0,.18-.35c.46-.37.4-1.31.67-1.72s.75-1.79.41-2.2a3.44,3.44,0,0,1-.58-2.07c-.09-1.12-.9-.61-1.57-.76s-.55-.36-.89-1.17-1.09-.75-2.24-.51-.92-.51-2.11-.68-1.67.95-2.71,1S274,178.41,273,179s0,2.64,0,2.64c0,.46,0,0-.47.79s.34,1.27.05,2.29.78.92.78.92,0,0,0,0a.37.37,0,0,0-.49.14.36.36,0,0,0,0,.11c-.17.49.77,2,1.35,2a5.37,5.37,0,0,0,1.58,2.68,14.45,14.45,0,0,1,.06,1.47,5,5,0,0,0-2.15,1.27,11.29,11.29,0,0,0-5.09,1.74c-1,.77-3,3.48-4.88,6.29-1.58,2.31-3.1,4.69-4,6.09a6,6,0,0,0-.92,2.7l-3.45,13.14,25.75.12,4.95,0,16.75.07C301.9,218.05,300.09,209.84,300,209.19Zm-24.23-16.1v0c-.71,0-1.4.12-2.05.21C274.45,193.22,275.14,193.14,275.8,193.09Z"/><path id="Path_4929" data-name="Path 4929" class="cls-24" d="M357.22,223.75h-.17l-25.79-.11h-.93l-20.82-.1.19-1.9a7,7,0,0,1,1.09-3.17c2-3.17,6.8-10.58,9.42-13.57a8.27,8.27,0,0,1,1-1c1.66-1.29,4.82-2.08,8.47-2.32a14.74,14.74,0,0,0,0-3,6.39,6.39,0,0,1-1.86-3.16c-.68,0-1.79-1.73-1.59-2.31.1-.29.28-.36.46-.33a6.8,6.8,0,0,1-.26-4.72,8.07,8.07,0,0,1,5.12-5c2.4-.67,4.82.36,6.75,1.95,2.21,1.83,2,5.24,1.53,6.92a4.05,4.05,0,0,1-.43.92.54.54,0,0,1,.19.28c.13.38-.3,1.27-.81,1.82a7,7,0,0,1-2.45,3.6h0a14.6,14.6,0,0,0,0,3.17,32,32,0,0,1,7.24,1.56,4.85,4.85,0,0,1,2.32,1.82,12.58,12.58,0,0,1,1.75,3.86c.55,1.84,6.93,7.29,9.45,9.4a3.26,3.26,0,0,1,1.15,2.17A6.55,6.55,0,0,1,357.22,223.75Z"/><path id="Path_4930" data-name="Path 4930" class="cls-24" d="M103.65,222.55l-21.54-.11H80.43l-7.78,0a28.2,28.2,0,0,1-15.52-4.73c2.6-4.06,7.95-12.24,9.94-13.78.11-.09.23-.17.36-.26,1.74-1.13,4.71-1.83,8.1-2.05a14.74,14.74,0,0,0,0-3,6.39,6.39,0,0,1-1.87-3.17c-.68,0-1.78-1.73-1.58-2.31.1-.29.28-.35.45-.33a6.91,6.91,0,0,1-.26-4.72,8.07,8.07,0,0,1,5.12-5c2.4-.67,4.82.36,6.75,1.95,2.21,1.83,2,5.24,1.53,6.92a3.57,3.57,0,0,1-.43.93.5.5,0,0,1,.2.27c.13.38-.31,1.27-.82,1.83a7,7,0,0,1-2.44,3.6h0a13.91,13.91,0,0,0,0,3.16,35.57,35.57,0,0,1,5.13.92c.73.19,1.43.4,2.1.64,1.48.53,3,1.89,4.08,5.68.55,1.84,6.92,7.3,9.44,9.4a3.28,3.28,0,0,1,1.16,2.17A5.09,5.09,0,0,1,103.65,222.55Z"/><path id="Path_4931" data-name="Path 4931" class="cls-24" d="M377.46,213v3.52a31.92,31.92,0,0,1-20.23,7.26h-.17l-25.8-.11h-.93l2.18-3.44c.21-.3.47-.65.77-1a35.58,35.58,0,0,1,3.15-3.35c2.33-2,8.24-7,8.75-8.71a15.72,15.72,0,0,1,.74-2,5.42,5.42,0,0,1,3-3.25,29.57,29.57,0,0,1,6.7-1.45h0a13,13,0,0,0,0-2.93s-2.13.89-2.64-5.34a1.07,1.07,0,0,1-.39-.34c-1.72-1-1.79-2.63-1.48-4.18.52-2.7,2.87-6.33,6.75-5.91a8.31,8.31,0,0,0,2.23-.06c1.45-.23,3.8-.3,4.92,1.27,4.3,6.06-1,9.52-.2,11.67s6,5.07,4.82,7.83h0C371.12,203.52,374.75,208.84,377.46,213Z"/><path id="Path_4932" data-name="Path 4932" class="cls-24" d="M333.83,220c.06.6-1.28,2.32-2.57,3.6h-.93l-20.81-.09-6.69,0-16.74-.08-.93-3.72a3.44,3.44,0,0,1,.65-2.95c.94-1.16,2.25-2.52,2.58-3s.8-1.27,1.33-2.09a1.9,1.9,0,0,1-.78-1.6c-.08-3.5,2.62-5.7,4.21-8,1.07-1.54,1.65-3.12.56-5.17-1.29-2.42,4.35-6.27,5.07-8.24s1.09-4.38,3.22-6,5.61-.92,5.61-.92c4.11-1.14,6.59,2.55,7.11,5.23.27,1.4.21,2.85-1.3,3.78a3.7,3.7,0,0,1-.45.77,6.79,6.79,0,0,1-1.62,3.77c.09,1,.46,1.74,1.17,1.84,3.25.48,4.22,1.75,4.49,3,1.16.52,2.29,1.73,3.18,4.71l0,.06c.58,1.61,5.88,6.15,8,7.91a29,29,0,0,1,3.59,4l1.49,2.36Z"/><path id="Path_4933" data-name="Path 4933" class="cls-24" d="M281.13,223.41l-25.75-.13-4.39,0-17.22-.08-.44-1.76a3.38,3.38,0,0,1,.65-2.95c.93-1.16,2.25-2.52,2.57-3,1.59-2.5,5.55-8.65,8-11.66a10.3,10.3,0,0,1,1.42-1.53c1.41-1.09,4.09-1.76,7.18-2,0-.17,0-.34,0-.5-3.6-.08-7.06-1.16-8.43-4.47-1-2.53,1.49-3,2.21-5s1.09-4.38,3.22-5.95,5.61-.92,5.61-.92c4.11-1.14,6.59,2.55,7.11,5.23.27,1.4.21,2.85-1.3,3.79a3.28,3.28,0,0,1-.46.76,7.26,7.26,0,0,1-.94,2.86,1,1,0,0,0,.38.25c1.18.47,2,1.8,1.14,2.08a27.93,27.93,0,0,1-3,.8c0,.4,0,.8.08,1.17a28.13,28.13,0,0,1,5,1c.4.11.79.24,1.16.37,1.26.45,2.5,1.6,3.46,4.82.47,1.56,5.87,6.19,8,8a29.64,29.64,0,0,1,3.59,4l2,3.23A3.39,3.39,0,0,1,281.13,223.41Z"/></g><path id="Path_4934" data-name="Path 4934" class="cls-25" d="M146.64,19.24S134.26,83,49.56,113.74l14,6.59S130.32,106.2,146.64,19.24Z"/><path id="Path_4935" data-name="Path 4935" class="cls-19" d="M42.42,107.77s14.2,7.5,27.59,8a9.7,9.7,0,0,1,.34,8.73A63.82,63.82,0,0,1,43,120.69Z"/><path id="Path_4936" data-name="Path 4936" class="cls-25" d="M124.27,24c-.17.46-17.55,50.06-78.44,88.35a14.9,14.9,0,0,1-3.27,0c-.52-5.23-1-10.65-1.35-16.13C56,88.3,90.32,75,124.27,24Z"/><path id="Path_4937" data-name="Path 4937" class="cls-25" d="M281.19,18.62s13.43,64.34,94.95,94.6l-15,4.86S296.9,104.18,281.19,18.62Z"/><path id="Path_4938" data-name="Path 4938" class="cls-25" d="M383.12,94.73c-.34,5.72-.84,11.38-1.39,16.86a6.83,6.83,0,0,0-3,1c-60.9-38.3-78.7-88.84-78.86-89.3C333.2,73.44,367.85,86.84,383.12,94.73Z"/><path id="Path_4939" data-name="Path 4939" class="cls-19" d="M381.78,108s-15.07,7.68-29.26,8.18a9.64,9.64,0,0,0-.37,9,70.15,70.15,0,0,0,29-3.91Z"/></g></svg>