<svg id="Layer_1" data-name="Layer 1" xmlns="http://www.w3.org/2000/svg" viewBox="0 0 426.23 229.62"><defs><style>.cls-1{fill:#fab17d;}.cls-2{fill:#233862;}.cls-3{fill:#efcbab;}.cls-4{fill:#d8a987;}.cls-5{fill:#ee985f;}.cls-6{fill:#122644;}.cls-7{fill:#fff;}.cls-8{fill:#d3e2f4;}.cls-9{fill:#ee984a;}.cls-10{fill:#1b4789;}.cls-11{fill:#bd3f40;}.cls-12{fill:#fff0e7;}.cls-13{fill:#fcecdb;}.cls-14{fill:#942424;}.cls-15{fill:#ca4c43;}.cls-16{fill:#ee985e;}.cls-17{fill:#f89747;}.cls-18{fill:#ddb08f;}.cls-19{fill:#b56f40;}.cls-20{fill:#99592d;}.cls-21{fill:#2c3a64;}.cls-22{fill:#ee7e28;}.cls-23{fill:#ab453f;}.cls-24{fill:#6cb7bf;}.cls-25{fill:#87d0cd;}.cls-26{fill:#5c83c2;}.cls-27{fill:#7a96cd;}.cls-28{fill:#ec7d29;}</style></defs><g id="Group_1938" data-name="Group 1938"><path id="Path_3974" data-name="Path 3974" class="cls-1" d="M36.43,119.56l-1.94,21.15,2.88.45,8.13-18.82Z"/><path id="Path_3975" data-name="Path 3975" class="cls-1" d="M37.74,139a8.84,8.84,0,0,0-.25,3.86c.28,1.1-1.43,2.61-3.32,4.7-.19.21-.54,0-.5-.28a2.23,2.23,0,0,1,.15-.52,16.7,16.7,0,0,1,1.33-2.18c-.08-.31-2.1.78-3.23,1.53-.66.44-2.57,2.5-3.08,2.2s.31-2.3,1.2-3.76,4.06-2.7,4.46-3.82S37.74,139,37.74,139Z"/><path id="Path_3976" data-name="Path 3976" class="cls-2" d="M47,42.87l21.06-9L87.5,43.15,68.09,53Z"/><g id="Group_1931" data-name="Group 1931"><g id="Group_1930" data-name="Group 1930"><path id="Path_3977" data-name="Path 3977" class="cls-3" d="M50.44,53.19l.3-.4C46.5,49.6,47.32,44.26,47.57,43a.4.4,0,0,0-.16-.41h0a.21.21,0,0,0-.3.06.12.12,0,0,0,0,.08C46.79,44.2,46,49.86,50.44,53.19Z"/></g><path id="Path_3978" data-name="Path 3978" class="cls-4" d="M50.74,52.79l.63.23-.53.68-.4-.52Z"/><path id="Path_3979" data-name="Path 3979" class="cls-3" d="M51.37,53s.79.57,1.06.4c0,0-.25.75-.64.83a2.72,2.72,0,0,1-.95-.54Z"/></g><path id="Path_3980" data-name="Path 3980" class="cls-1" d="M60.64,203.36l-1.43,6-1.9,8H51.39L51,209.7l-.27-5.89Z"/><path id="Path_3981" data-name="Path 3981" class="cls-2" d="M49.05,226.09a15.17,15.17,0,0,1,.41-3.86c.41-1,1.93-4.9,1.93-4.9h5.92a35.55,35.55,0,0,1,1.17,4.76c.07,1.17,0,4,0,4Z"/><path id="Path_3982" data-name="Path 3982" class="cls-2" d="M86.66,226.09a16.13,16.13,0,0,0-.41-3.86c-.42-1-1.93-4.9-1.93-4.9H78.39a38.89,38.89,0,0,0-1.17,4.76c-.07,1.17,0,4,0,4Z"/><path id="Path_3983" data-name="Path 3983" class="cls-1" d="M62.93,63.32s-.21,6.45-1,9.35l-6.54,14.1,14.48,20L80,80.91,74.1,72.8s-1.77-8.66-.84-11.87S62.93,63.32,62.93,63.32Z"/><path id="Path_3984" data-name="Path 3984" class="cls-5" d="M62.89,64.21s2,4.69,5.62,4.58S73,64.54,73,64.54Z"/><path id="Path_3985" data-name="Path 3985" class="cls-6" d="M60.7,60.41a58.48,58.48,0,0,0-2-7.7c-.83-1.79-1.51-9.78,7.65-10.19,0,0,3.51.41,5.44-.76,0,0,0,1.17-.48,1.58,0,0,2.38-1.5,4.86,1.26S75.29,57.74,75.5,60Z"/><path id="Path_3986" data-name="Path 3986" class="cls-1" d="M68.09,67c-2.66,0-7.55-3.59-7.55-8V52.17A2.73,2.73,0,0,1,63,49.26H73.16a2.74,2.74,0,0,1,2.48,2.91v6.45C75.64,63.22,71.13,67,68.09,67Z"/><path id="Path_3987" data-name="Path 3987" class="cls-6" d="M60.54,55.82s0-4.1,3.27-4.74,10.53,2,11.57-1-14.08-2.94-14.84-1S60.54,55.82,60.54,55.82Z"/><path id="Path_3988" data-name="Path 3988" class="cls-7" d="M61.89,72.67,68,74l6.12-1.48L75.64,82l-6.87,23.39-7.52-28Z"/><path id="Path_3989" data-name="Path 3989" class="cls-8" d="M61.6,74.59l4.81,3.59L68,75.6l1.46,2.58,5.13-4.46-1-1.17L68,74l-6.06-.28Z"/><path id="Path_3990" data-name="Path 3990" class="cls-9" d="M86.8,125.6l-14.41.9c-.09-.13-.18-.13-.28,0l-4.24.26-18.08-1.13s-4.55,20.76-2.76,48.4c.57,8.83,1.84,34.95,3.06,44.19l12.39.13c1.6-10.45,3.46-36.52,4.46-41,.45-2,.87-4.05,1.27-6a38.82,38.82,0,0,1,.58,5.26,47.32,47.32,0,0,0,1.27,8.29c1,5,4.11,27.85,5,33.83h13c.16-8.24.86-36.2,1-44.66C89.49,151.51,86.8,125.6,86.8,125.6Z"/><path id="Path_3991" data-name="Path 3991" class="cls-10" d="M96.75,198.51c-6.63,3.47-51.76,7.59-59.85-2C35.53,194.93,54.76,74,54.76,74s1.24-.36,3.33-.75c1.06-.2,2.35-.41,3.81-.59,0,.45,3.13,20.09,7.37,27.74,0,0,4.8-10.57,4.83-27.63a1.07,1.07,0,0,0,0-.25c.91.1,1.84.22,2.76.38.39.07.78.14,1.17.23a37.62,37.62,0,0,1,4.47,1.17S98.14,197.78,96.75,198.51Z"/><path id="Path_3992" data-name="Path 3992" class="cls-10" d="M60,72.91s-6.91,53.05-9.55,57c-1.11,1.66-2.74,1.93-4.65,1.56a10.18,10.18,0,0,1-1.12-.28l-5.3-2h0c-.86-.35-1.73-.67-2.59-.94-5.44-1.68-5-6.26-3.55-12.51s11-36.31,14.29-38.43A31.16,31.16,0,0,1,60,72.91Z"/><path id="Path_3993" data-name="Path 3993" class="cls-1" d="M74.07,72.55a54.52,54.52,0,0,0-12.18.14v0S73.16,65.69,74.07,72.55Z"/><path id="Path_3994" data-name="Path 3994" class="cls-11" d="M70.1,105.34c-7-5.14-12-32.07-12-32.07,1.07-.2,2.35-.41,3.81-.58,0,.45,3,19,7.2,26.66,0,0,5-9.49,5-26.55l0-.25c.91.1,1.83.22,2.75.38.4.07.79.14,1.18.23C78,87.53,70.1,105.34,70.1,105.34Z"/><path id="Path_3995" data-name="Path 3995" class="cls-12" d="M65.73,61.91a20.18,20.18,0,0,1,4.66,0,2.73,2.73,0,0,1-2.09,1.27A2.55,2.55,0,0,1,65.73,61.91Z"/><path id="Path_3996" data-name="Path 3996" class="cls-10" d="M58.05,46l.19,3.1s7.14-4.77,18.84-.39l-.16-4.48a3.12,3.12,0,0,0-1.49-2.08c-2.2-1.26-7.33-3.6-15.45.32A4.45,4.45,0,0,0,58.05,46Z"/><path id="Path_3997" data-name="Path 3997" class="cls-7" d="M62.42,69.82,60,72.92l6.44,4.39L68,74Z"/><path id="Path_3998" data-name="Path 3998" class="cls-7" d="M73.58,69.82,68,74l1.61,3.28,5.54-4.64Z"/><path id="Path_3999" data-name="Path 3999" class="cls-8" d="M67.77,81.29a.43.43,0,0,1,.63,0,.44.44,0,0,1,0,.62.43.43,0,0,1-.63,0,.42.42,0,0,1,0-.62Z"/><circle id="Ellipse_45" data-name="Ellipse 45" class="cls-8" cx="68.08" cy="86.38" r="0.44"/><path id="Path_4000" data-name="Path 4000" class="cls-8" d="M67.77,91a.45.45,0,1,1,0,.63.43.43,0,0,1,0-.63Z"/><path id="Path_4001" data-name="Path 4001" class="cls-10" d="M82.47,74.33a14,14,0,0,1,6.66,7.12c2.32,5.31,12,19.82,11.67,26.62s-1.59,13-8.06,13.19c-4.44.15-9-4.2-9-10.7S82.47,74.33,82.47,74.33Z"/><path id="Path_4002" data-name="Path 4002" class="cls-2" d="M96.25,117.45c-.17,1.83-.86,3.31-2.5,3.72-5.19,1.3-7.48-3.71-6.39-8.61,0-.16.08-.32.12-.47,1.11-3.59,5.1-4.14,6.57-4.22.34,0,.55,0,.55,0l.08.23C95.05,109.19,96.58,114,96.25,117.45Z"/><path id="Path_4003" data-name="Path 4003" class="cls-1" d="M96.25,117.45s-15.12-6.81-21.11-14.62c-.44-.58.69-1.28.69-1.28l18.22,6.32.63.22C95.06,109.19,96.58,114,96.25,117.45Z"/><g id="Group_1937" data-name="Group 1937"><rect id="Rectangle_405" data-name="Rectangle 405" class="cls-13" x="58.47" y="101.92" width="19.98" height="26.34"/><g id="Group_1933" data-name="Group 1933"><path id="Path_4004" data-name="Path 4004" class="cls-14" d="M66.69,120.48l-2.25,3.75,1.42-.2.61,1.13,1.91-3.45Z"/><path id="Path_4005" data-name="Path 4005" class="cls-14" d="M69.66,120.25,71.91,124l-1.42-.2-.61,1.13L68,121.48Z"/><path id="Path_4006" data-name="Path 4006" class="cls-11" d="M65.9,119.65a2.62,2.62,0,0,1,2.49-2.49c1.78-.27,2.49,1.11,2.49,2.49a2.49,2.49,0,0,1-2.49,2.5h0a2.38,2.38,0,0,1-2.49-2.26A1,1,0,0,1,65.9,119.65Z"/><g id="Group_1932" data-name="Group 1932"><path id="Path_4007" data-name="Path 4007" class="cls-14" d="M68.39,121.64a2.19,2.19,0,0,1-1.6-.73,1.58,1.58,0,0,1-.39-1.28h0a2.09,2.09,0,0,1,2-2,1.65,1.65,0,0,1,1.37.33,2.18,2.18,0,0,1,.64,1.66A2,2,0,0,1,68.39,121.64Zm.33-3.78a1.55,1.55,0,0,0-.31,0,1.87,1.87,0,0,0-1.78,1.77h0a1.35,1.35,0,0,0,.34,1.1,1.92,1.92,0,0,0,1.42.65,1.77,1.77,0,0,0,1.76-1.76,2,2,0,0,0-.56-1.49,1.34,1.34,0,0,0-.88-.3Z"/></g></g><g id="Group_1934" data-name="Group 1934"><path id="Path_4008" data-name="Path 4008" class="cls-10" d="M71.25,105.09H65.69a.17.17,0,0,1-.17-.17h0a.17.17,0,0,1,.17-.17h5.56a.17.17,0,0,1,.16.17h0A.17.17,0,0,1,71.25,105.09Z"/><path id="Path_4009" data-name="Path 4009" class="cls-10" d="M72.33,105.78H64.61a.16.16,0,0,1-.17-.16h0a.17.17,0,0,1,.17-.17h7.72a.18.18,0,0,1,.17.17h0A.17.17,0,0,1,72.33,105.78Z"/></g><g id="Group_1935" data-name="Group 1935"><path id="Path_4010" data-name="Path 4010" class="cls-10" d="M74.16,111.6H62.77a.19.19,0,0,1-.19-.19h0a.19.19,0,0,1,.19-.19H74.16a.18.18,0,0,1,.19.19h0A.18.18,0,0,1,74.16,111.6Z"/><path id="Path_4011" data-name="Path 4011" class="cls-10" d="M74.16,112.55H62.77a.19.19,0,0,1-.19-.19h0a.2.2,0,0,1,.19-.19H74.16a.19.19,0,0,1,.19.19h0A.18.18,0,0,1,74.16,112.55Z"/><path id="Path_4012" data-name="Path 4012" class="cls-10" d="M74.16,113.39H62.77a.19.19,0,0,1-.19-.19h0a.2.2,0,0,1,.19-.19H74.16a.19.19,0,0,1,.19.19h0A.18.18,0,0,1,74.16,113.39Z"/><path id="Path_4013" data-name="Path 4013" class="cls-10" d="M74.16,114.31H62.77a.19.19,0,0,1-.19-.19h0a.19.19,0,0,1,.19-.19H74.16a.18.18,0,0,1,.19.19h0A.18.18,0,0,1,74.16,114.31Z"/></g><path id="Path_4014" data-name="Path 4014" class="cls-10" d="M75.12,119.74a6.84,6.84,0,0,1-1.15.78.87.87,0,0,0,.06-.32c0-.14-.12-.2-.23-.25l-.07,0a.14.14,0,0,0,0-.16.11.11,0,0,0-.15-.06.12.12,0,0,0-.07.07s0,0,0,0l0,0,.18-.38a.07.07,0,0,0,0-.08.22.22,0,0,0-.3,0,.39.39,0,0,0,0,.39v0a4.08,4.08,0,0,1-.28.44l0,0a.39.39,0,0,1-.08-.1,1.11,1.11,0,0,0,.08-.37.06.06,0,0,0-.06-.07h0a.3.3,0,0,0-.18.32.28.28,0,0,0,0,.13,1.18,1.18,0,0,1-.11.19.07.07,0,0,0,0,.09h0a1.08,1.08,0,0,1-.2.4.24.24,0,0,1-.34,0,.45.45,0,0,1-.08-.26q0-.32,0-.63a1.57,1.57,0,0,1,0-.3s0-.14.08,0a.47.47,0,0,1,0,.17.08.08,0,0,0,.07.07s.07,0,.07-.06.06-.32-.06-.39-.19,0-.24.11a1.87,1.87,0,0,0-.07,1c0,.26.12.57.44.49s.42-.47.49-.73a0,0,0,0,0,0,0h0l0,0,.06.06a.64.64,0,0,0-.1.13.06.06,0,0,0,0,.08.16.16,0,0,0,.23,0,.2.2,0,0,0,.06-.14.19.19,0,0,0,0-.1c.1-.14.19-.28.28-.43a.2.2,0,0,0,.16.07h0a.27.27,0,0,0,.12.09l.12.07c.07.05,0,.11,0,.19s-.05.2-.08.3a.64.64,0,0,0-.33.34.35.35,0,0,0,.13.4s.07,0,.1,0h0a6.08,6.08,0,0,0,.21-.6v0l.38-.2a8.56,8.56,0,0,0,.92-.66C75.28,119.79,75.19,119.68,75.12,119.74Zm-1.7-.18c0-.06,0-.16.09-.16l-.09.19v0Zm.18,1.61c-.06-.11,0-.24.12-.33l-.12.33Z"/><g id="Group_1936" data-name="Group 1936"><path id="Path_4015" data-name="Path 4015" class="cls-10" d="M77.67,127.5H59.4V102.83H77.67Zm-18.06-.21H77.46V103H59.61Z"/></g></g><path id="Path_4016" data-name="Path 4016" class="cls-1" d="M71.41,99.91s-3.68,3.17-2.35,3.64,4.88-1.63,5.58-1.63h2.3s-2.28-2.64-3.48-2.57A5.1,5.1,0,0,0,71.41,99.91Z"/><path id="Path_4017" data-name="Path 4017" class="cls-2" d="M50.43,94.29,45.79,131.5a10.18,10.18,0,0,1-1.12-.28l-5.3-2h0s1.63-1.69,3.84-7.55S50.43,94.29,50.43,94.29Z"/></g><g id="Group_1946" data-name="Group 1946"><path id="Path_4052" data-name="Path 4052" class="cls-1" d="M306,100.08a9.89,9.89,0,0,0-1.63-1.73c-.86-.67-1.77-1.92-1.51-2.32a32,32,0,0,1,2.87-2.32l1.38,3.43Z"/><path id="Path_4053" data-name="Path 4053" class="cls-2" d="M328.39,60.13l22.62-9,12.64,12.2-21.5,8.39Z"/><path id="Path_4054" data-name="Path 4054" class="cls-1" d="M316.05,108.45l-9-11.56-1.07,3.2s9.22,21,13.44,19C321.39,118.2,316.05,108.45,316.05,108.45Z"/><path id="Path_4055" data-name="Path 4055" class="cls-15" d="M344.2,70.74s-4.4,2.58-1.7,7.6c0,0-3.85-.7-4.68-1.86a3,3,0,0,0,.24.72s-4.51-.57-5.34-2.25c-1.71-3.46,2.44-3.25,4.24-6.84,2.35-4.7,6-8.39,11.24-5.8,0,0,7.28-.4,4,8.93S352,81.4,352,81.4a4.39,4.39,0,0,1-1.4.08s-.55-.39-.58-.76a2,2,0,0,0,.09.77s-3.44-.57-4.78-2.28S343.2,72.58,344.2,70.74Z"/><path id="Path_4056" data-name="Path 4056" class="cls-1" d="M337.85,85.76h0S337.82,85.76,337.85,85.76Z"/><path id="Path_4057" data-name="Path 4057" class="cls-1" d="M348.53,82.69c.13,1.15.28,2.19.35,2.69s.85,6.66-.61,6.72-5.09,7.55-6.73,7.49c-1.83-.07-3.45-13.83-3.69-13.83.47-.2,1.9-4.73,2.35-6.45.54-2.1,1-4.36,1-4.36l7.43.47.44,0a27.38,27.38,0,0,0-.6,2.86c0,.11,0,.24-.05.35A19.4,19.4,0,0,0,348.53,82.69Z"/><path id="Path_4058" data-name="Path 4058" class="cls-15" d="M340.15,74.2a21.39,21.39,0,0,1-1-6.74c.17-2.09,3.5-8,10.66-5A3.67,3.67,0,0,1,353.26,64c1.33,1.52,3,4.49-1.28,10.25l-1.25,2Z"/><path id="Path_4059" data-name="Path 4059" class="cls-16" d="M348.53,82.69c-5.19-1.52-7.4-7.52-7.4-7.52,2.2.06,5.06,1.58,7.3,3.13,0,.12,0,.24-.05.36A19.4,19.4,0,0,0,348.53,82.69Z"/><path id="Path_4060" data-name="Path 4060" class="cls-1" d="M348.9,80.58s-9.39-2.32-7.85-8.14,1.36-10,7.41-8.81,6.63,3.76,6.59,5.83S351.38,81,348.9,80.58Z"/><path id="Path_4061" data-name="Path 4061" class="cls-15" d="M352.75,64.62s-4.36,6.15-8.55,6.12-5.62-1.53-5.62-1.53a11.46,11.46,0,0,0,5.37-5.6S351.68,60.86,352.75,64.62Z"/><path id="Path_4062" data-name="Path 4062" class="cls-15" d="M352,65a8.43,8.43,0,0,1,1.58,3.64c.08,1.6-.52,4.71.4,4.84,0,0,3.15-4.13,1.68-7.33C354.07,62.76,352,65,352,65Z"/><path id="Path_4063" data-name="Path 4063" class="cls-15" d="M352.27,65.33S348.55,72,343,73c0,0,6.12-3.08,7.79-7.69S352.27,65.33,352.27,65.33Z"/><path id="Path_4064" data-name="Path 4064" class="cls-7" d="M347.43,76.85s.12.88.69,1.1a8.43,8.43,0,0,0,2.21.5,7.66,7.66,0,0,0,.72-.79A11.6,11.6,0,0,0,347.43,76.85Z"/><path id="Path_4065" data-name="Path 4065" class="cls-1" d="M343.93,165.89c-.12.5-.24,1-.35,1.48-.71,2.94-1.37,5.66-1.79,7.95-.53,3-.66,5.17,0,6.1,1.82,2.39,1.36,15.2.76,24.43-.36,5.49-.76,9.71-.76,9.71L338.52,219s-1-5.45-2.37-12.06c-1.78-8.89-4.06-19.87-5-22.56-.71-2.14-1.75-11.24-2.66-20.54,0-.47-.09-.93-.14-1.4-.16-1.62-.31-3.24-.45-4.83a81.85,81.85,0,0,1,.36-17.07,20.09,20.09,0,0,1,9.87-4c3.27-.29,6.35.75,7.87,4.78C348.26,147.12,346,157.22,343.93,165.89Z"/><path id="Path_4066" data-name="Path 4066" class="cls-16" d="M343.93,165.89c-4.54-3.28-10.94-9.12-13.26-18.69-.44-4.76,3.31-9.28,7.5-10.71,3.28-.29,6.35.75,7.88,4.77C348.26,147.12,346,157.22,343.93,165.89Z"/><path id="Path_4067" data-name="Path 4067" class="cls-1" d="M360.5,108.08l22.33,5.77v2.6s-22.22-.26-23.65-2.73S360.5,108.08,360.5,108.08Z"/><path id="Path_4068" data-name="Path 4068" class="cls-1" d="M382.83,194l-1,4.31s-4.62-2.38-10.47-5.46c-9.13-4.8-21.27-11.31-23.65-13.14-1.57-1.2-3.64-7.74-5.56-15.13-2.86-11-5.38-24-5.38-24s4.23-16.29,15.57-6.32c6.78,6,5.73,17.46,5,26.4-.49,6-.85,10.85,1.4,12.1,3.23,1.8,11.06,8.39,16.59,14.84a38,38,0,0,1,4.75,6.65Z"/><path id="Path_4069" data-name="Path 4069" class="cls-1" d="M382.83,113.84s4.1-2,5.72-2.21,4.37-.26,4.37,0a12.26,12.26,0,0,1-3.71,2.21c-.79.13-2.28,1.24-1.83,1.37s2.87-.42,2.9,0-1.46.69-1.72,1a3.08,3.08,0,0,1-2.64.52c-1.47-.2-3.09-.29-3.09-.29Z"/><path id="Path_4070" data-name="Path 4070" class="cls-10" d="M382.83,175.23c-14.42,20.76-51.62,23.09-51.62,23.09-6-22-3.57-77.78-2.18-98.5-.09-3.62.05-6.68.64-7.85.93-1.84,6-5,7.76-6.6a3.09,3.09,0,0,1,.78-.2c.27,1,3.63,12.32,4,12.09s6-11.05,6.58-12.32c.61,0,1,0,1.14,0,1,0,6.38,1.12,6.83,2,.16.3,1.7,4.4,3.64,9.82h0c3.64,10.17,9,8.26,11.09,11.27,1.34,1.89.76,5.42-1.71,8.47-.21.26-.43.51-.67.76-1.88,2-4.43,3.17-8.57,2.56a11.77,11.77,0,0,1-4.83-2.63C359.76,132.58,382.83,175.23,382.83,175.23Z"/><path id="Path_4071" data-name="Path 4071" class="cls-17" d="M338.46,84.64l-1.95,1.12s5.33,15.08,5.59,15S350.37,85,350.37,85l-1.63-.68-6.57,12.91Z"/><path id="Path_4072" data-name="Path 4072" class="cls-10" d="M355.08,65.2s-6.83-3.83-18.12,2.91l.49-1.86a6.14,6.14,0,0,1,3-3.86,16.64,16.64,0,0,1,8.08-1.77,6.9,6.9,0,0,1,6.1,3.77Z"/><g id="Group_1944" data-name="Group 1944"><g id="Group_1943" data-name="Group 1943"><path id="Path_4073" data-name="Path 4073" class="cls-3" d="M321,70.12l-.17-.57c6.05-1.8,7.35-8.08,7.57-9.54a.47.47,0,0,1,.35-.39h0a.26.26,0,0,1,.32.18.24.24,0,0,1,0,.12C328.84,61.61,327.35,68.25,321,70.12Z"/></g><path id="Path_4074" data-name="Path 4074" class="cls-4" d="M320.87,69.55h-.8l.3,1,.67-.41Z"/><path id="Path_4075" data-name="Path 4075" class="cls-3" d="M320.06,69.55s-1.11.31-1.35,0c0,0,0,.94.37,1.19a3.15,3.15,0,0,0,1.29-.21Z"/></g><path id="Path_4076" data-name="Path 4076" class="cls-7" d="M338.86,86s1.79,3.28,8.89.29l-5.58,11Z"/><path id="Path_4077" data-name="Path 4077" class="cls-10" d="M336.51,85.76S335.58,117,327.88,123a4.6,4.6,0,0,1-1.73.89c-3.89,1-6.71-1.33-8.62-4.54-2.66-4.46-3.56-10.64-3.11-12.06.86-2.72,2.83,2.08,7,.76s5.27-18,8.17-20.48C330.34,87,336.51,85.76,336.51,85.76Z"/><g id="Group_1945" data-name="Group 1945"><path id="Path_4078" data-name="Path 4078" class="cls-3" d="M298.94,108a22.07,22.07,0,0,1-2.26-1.43,9.14,9.14,0,0,1-1.37-1.19,2.66,2.66,0,0,1-.47-.68S304.24,93.36,305,92s7.84-12.3,7.84-12.3a18,18,0,0,1,1.91,1.08c.38.26.8.55,1.2.86a7.51,7.51,0,0,1,1.85,2s-10.33,10.46-11.06,12S298.94,108,298.94,108Z"/><path id="Path_4079" data-name="Path 4079" class="cls-18" d="M296.68,106.54a9.14,9.14,0,0,1-1.37-1.19,2.66,2.66,0,0,1-.47-.68S304.24,93.36,305,92s7.84-12.3,7.84-12.3a18,18,0,0,1,1.91,1.08c.38.26.8.55,1.2.86-2.9,3-10.72,11-11.39,12.41S298.79,103.29,296.68,106.54Z"/><path id="Path_4080" data-name="Path 4080" class="cls-15" d="M306.35,89.82s-2.78,2.69-3.09,4.53l2.9,2.32a19.21,19.21,0,0,0,3.34-4.32Z"/></g><path id="Path_4081" data-name="Path 4081" class="cls-1" d="M307.05,96.89a5.58,5.58,0,0,0-.23-2.47c-.42-.64-.45-2.41-.85-2.22s-.13,1.63-.38,2.33-.61,4,.38,4.58S307.05,96.89,307.05,96.89Z"/><path id="Path_4082" data-name="Path 4082" class="cls-1" d="M304.23,92.31s-1.15-.18-1.57.58-.94,2-.15,2.5S304.23,92.31,304.23,92.31Z"/><path id="Path_4083" data-name="Path 4083" class="cls-7" d="M342.6,205.85c-.36,5.49-.76,9.71-.76,9.71L338.52,219s-1-5.45-2.38-12.07C336.14,206.91,339.86,208.21,342.6,205.85Z"/><path id="Path_4084" data-name="Path 4084" class="cls-2" d="M345.17,220.5l-1.79,1c-.65.23-1.19.3-1.85.55a3.79,3.79,0,0,0-1.73,1.27c-.5,2.06-1.22,1.93-1.22,1.93l-7.19.06c-.34-.16.23-1.62.51-1.89.68-.67,2.71-.33,3.45-2.44.42-1.18,2.48-4.86,2.48-4.86h0a6.83,6.83,0,0,1,2.53.32c1.07.22,1.52-2,1.52-2a2.22,2.22,0,0,1,1.51,1.42,8.68,8.68,0,0,0,2.07,2.52c.46.43.81.72.81.72S346.6,219.48,345.17,220.5Z"/><path id="Path_4085" data-name="Path 4085" class="cls-7" d="M382.83,194l-1,4.31s-4.62-2.38-10.47-5.46a9.81,9.81,0,0,0,3.95-5.2,38,38,0,0,1,4.75,6.65Z"/><path id="Path_4086" data-name="Path 4086" class="cls-2" d="M388.8,195.69h0a1.89,1.89,0,0,1-1.17-1.23c-.27-.65-.35-1.18-.6-1.82l-1-1.76c-1.06-1.4-1.44-1.08-1.44-1.08s-.28.36-.69.83a8.56,8.56,0,0,1-2.46,2.14,2.23,2.23,0,0,0-1.06.83,2.1,2.1,0,0,0-.31.72s2.19.38,2,1.46a7,7,0,0,0-.25,2.54h0s3.73,2,4.93,2.34a9.28,9.28,0,0,1,3.92,2.79,1.24,1.24,0,0,0,1.05.33c.56-.09,1.28-.27,1.44-.62Z"/><path id="Path_4087" data-name="Path 4087" class="cls-2" d="M340.69,106.89a1.08,1.08,0,1,1,2.16,0,1.08,1.08,0,0,1-2.16,0Z"/><path id="Path_4088" data-name="Path 4088" class="cls-2" d="M340.69,114.9a1.08,1.08,0,0,1,2.16,0,1.08,1.08,0,0,1-2.16,0Z"/><path id="Path_4089" data-name="Path 4089" class="cls-2" d="M369.75,116.54c-.21.26-.44.52-.67.77-1.88,2-4.43,3.16-8.58,2.55a11.78,11.78,0,0,1-4.82-2.62s-3.43-9.35-3-10.67,7.06,8.93,12.53,9.41A40.54,40.54,0,0,1,369.75,116.54Z"/><path id="Path_4090" data-name="Path 4090" class="cls-2" d="M329.51,109.27,327.88,123a4.6,4.6,0,0,1-1.73.89c-3.89,1-6.71-1.33-8.62-4.54,2,.28,6.82.71,7.88-1.4C326.74,115.31,329.51,109.27,329.51,109.27Z"/></g><g id="Group_1954" data-name="Group 1954"><path id="Path_4091" data-name="Path 4091" class="cls-19" d="M235.11,34.4a11.52,11.52,0,0,0,2.41-3,15,15,0,0,0,.41-4.62.53.53,0,0,0-.69.31.27.27,0,0,0,0,.12c-.15.64-.4,2.11-1,2.41s-1.74.26-2,1.78A4.29,4.29,0,0,0,235.11,34.4Z"/><path id="Path_4092" data-name="Path 4092" class="cls-19" d="M230.67,34.7s-1.76-3.61-1.4-4.78S235,27.45,235.75,28s0,7.29,0,7.29Z"/><path id="Path_4093" data-name="Path 4093" class="cls-19" d="M287.64,143.37s-.25,3,.78,4.4,1.6,2.72,1.94,2.08-.56-2.9-.26-2.85,1.14,2.67,1.57,3.5,1.33,2.11,1.93,1.46-.56-6.77-1-7.55-1.46-2.5-1.46-2.5Z"/><path id="Path_4094" data-name="Path 4094" class="cls-2" d="M250.42,53.6,271,42l13.84,17.16L266,68.32Z"/><path id="Path_4095" data-name="Path 4095" class="cls-15" d="M259.07,59.07a4.35,4.35,0,0,1-1.64,2.51c-1.21.65.69,2.43.22,3.74s1.44,3,1.44,3l13.31,1.54a3.82,3.82,0,0,0,2.12-3.14c.18-2.29.38-5.14.38-5.14l-5.82-4.44-8.37.4Z"/><g id="Group_1947" data-name="Group 1947"><path id="Path_4096" data-name="Path 4096" class="cls-3" d="M214.35,36.88a25,25,0,0,1-1-3,10.85,10.85,0,0,1-.39-2.12,3.22,3.22,0,0,1,.06-1s17.15-3.55,18.84-4.23,16.44-5.63,16.44-5.63a21.21,21.21,0,0,1,1,2.43c.17.52.34,1.1.48,1.69a8.94,8.94,0,0,1,.21,3.26s-17.39,2.07-19.19,2.93S214.35,36.88,214.35,36.88Z"/><path id="Path_4097" data-name="Path 4097" class="cls-18" d="M213.31,33.86a11.09,11.09,0,0,1-.39-2.13,3.26,3.26,0,0,1,.06-1s17.16-3.54,18.84-4.23,16.44-5.62,16.44-5.62a21.81,21.81,0,0,1,1,2.42,16,16,0,0,1,.48,1.69c-4.9.6-18.17,2.3-19.82,3.09S217.69,32.41,213.31,33.86Z"/><path id="Path_4098" data-name="Path 4098" class="cls-15" d="M234.73,25.49s-4.58.44-6.24,1.91l1,4.32s4.21-.43,6.32-1.54Z"/></g><path id="Path_4099" data-name="Path 4099" class="cls-2" d="M238.89,225.27a15.12,15.12,0,0,1,.39-3.67c.4-.91,1.84-4.64,1.84-4.64h5.63a34.52,34.52,0,0,1,1.11,4.51c.06,1.11,0,3.8,0,3.8Z"/><path id="Path_4100" data-name="Path 4100" class="cls-2" d="M274.63,225.27a15.13,15.13,0,0,0-.4-3.67c-.39-.91-1.83-4.64-1.83-4.64h-5.63a34.52,34.52,0,0,0-1.11,4.51c-.06,1.11,0,3.8,0,3.8Z"/><path id="Path_4101" data-name="Path 4101" class="cls-19" d="M260.55,70.17s-1.13,6-2.33,8.63l-6.8,3.34L260.94,101,274,89.16l-4.35-8.47s-.41-8.38.93-11.26S260.55,70.17,260.55,70.17Z"/><path id="Path_4102" data-name="Path 4102" class="cls-20" d="M260.38,71s1.16,4.69,4.62,5.12,4.84-3.34,4.84-3.34Z"/><path id="Path_4103" data-name="Path 4103" class="cls-19" d="M264.86,74.36c-2.49-.43-6.57-4.46-5.93-8.57l1-6.43A2.6,2.6,0,0,1,262.66,57l9.52,1.46a2.6,2.6,0,0,1,1.91,3.1l-.93,6C272.5,71.92,267.72,74.85,264.86,74.36Z"/><path id="Path_4104" data-name="Path 4104" class="cls-17" d="M239.6,129.85c0-.74,1,29.86-.49,47.23-1.45,17.16,0,41,0,41a11.12,11.12,0,0,0,9.81,0s5.6-33.14,5.57-41c0-8.4,6.09-45.91,6.09-45.91Z"/><path id="Path_4105" data-name="Path 4105" class="cls-17" d="M274.42,218.11a11.12,11.12,0,0,1-9.81,0s-5.6-33.14-5.56-41c0-3.55-1.07-12.29-2.33-21.2C255,143.68,253,131.17,253,131.17l21.81-1.36s-1.8,30.12-.33,47.27S274.42,218.11,274.42,218.11Z"/><g id="Group_1951" data-name="Group 1951"><g id="Group_1948" data-name="Group 1948"><path id="Path_4106" data-name="Path 4106" class="cls-21" d="M262.82,66.22c-.93-.14-2.76-.64-2.83-2.3a1.48,1.48,0,0,1,.45-1.22,1.77,1.77,0,0,1,1.45-.36l2.86.44a1.26,1.26,0,0,1,1.06.63,1.89,1.89,0,0,1-.3,1.6,2.09,2.09,0,0,1-2.17,1.27A4.6,4.6,0,0,1,262.82,66.22Zm-1-3.7a1.58,1.58,0,0,0-1.29.32,1.3,1.3,0,0,0-.4,1.07,2.11,2.11,0,0,0,1.61,1.86,6.09,6.09,0,0,0,1.57.32h0c.79.12,1.42-.26,2-1.18.12-.21.52-.92.28-1.42a1.1,1.1,0,0,0-.91-.53Z"/></g><g id="Group_1949" data-name="Group 1949"><path id="Path_4107" data-name="Path 4107" class="cls-21" d="M269.41,67.23a3.18,3.18,0,0,1-.52-.1c-.87-.13-1.4-.72-1.68-1.85a1.89,1.89,0,0,1,.2-1.62,1.25,1.25,0,0,1,1.2-.29l2.85.44a1.78,1.78,0,0,1,1.28.79,1.49,1.49,0,0,1,.07,1.3C272.23,67.46,270.34,67.38,269.41,67.23Zm-.83-3.68a1.12,1.12,0,0,0-1,.24c-.37.4-.21,1.2-.15,1.44.26,1,.75,1.6,1.54,1.71h0a5.73,5.73,0,0,0,1.6.17,2.08,2.08,0,0,0,2.09-1.29,1.28,1.28,0,0,0-.06-1.13,1.55,1.55,0,0,0-1.13-.7Z"/></g><g id="Group_1950" data-name="Group 1950"><path id="Path_4108" data-name="Path 4108" class="cls-21" d="M265.45,64.23a.11.11,0,0,1-.09-.13.11.11,0,0,1,.08-.09,2.7,2.7,0,0,1,2.16.34.11.11,0,0,1,0,.16.12.12,0,0,1-.15,0,2.46,2.46,0,0,0-2-.3Z"/></g></g><path id="Path_4109" data-name="Path 4109" class="cls-7" d="M262.93,82.13l-6.44-2.79s-3.33,26.48,1.12,28.12c0,0,12.68-22.53,11.82-25.42Z"/><path id="Path_4110" data-name="Path 4110" class="cls-8" d="M258.86,77.66a6.29,6.29,0,0,0-2.77,1.22s1.38,4.49,5.05,5.83l1.58-2.58A7.81,7.81,0,0,1,258.86,77.66Z"/><path id="Path_4111" data-name="Path 4111" class="cls-8" d="M262.72,82.13s6-.23,6.9-3.12a4.91,4.91,0,0,1,1.15,3.28s-1.9,2.87-6.64,2.9Z"/><path id="Path_4112" data-name="Path 4112" class="cls-12" d="M263.22,69.86a19.93,19.93,0,0,1,4.6.7,2.73,2.73,0,0,1-2.25,1A2.56,2.56,0,0,1,263.22,69.86Z"/><path id="Path_4113" data-name="Path 4113" class="cls-19" d="M240.61,60.45c-2.9,1.82-6.85,4.3-10.08,6.25a12.06,12.06,0,0,1-.34-1.47c-1.07-6.83.48-30.53.48-30.53a7,7,0,0,1,2.19-.64,3,3,0,0,1,2.89,1.24S239.41,56.16,240.61,60.45Z"/><path id="Path_4114" data-name="Path 4114" class="cls-10" d="M291.89,142.9l-2.18.91a6.41,6.41,0,0,1-8.29-3.66c0-.1-.08-.2-.11-.3-1.54-4.76-1.7-9.88-2.27-14.09-.28-2.08-.6-6.35-1.86-9.68h0l2.2,73.68c-32.88,2.33-48.93-16.57-48.93-16.57-.85-19.95,7.13-64.89,10-80.47-1.4-3.16-11.35-12.25-13-21.17-.77-4.14,1.65-7.07,4.58-9A27.12,27.12,0,0,1,240.27,59L250.9,73.24a6.27,6.27,0,0,1,.89,1.16c.82,1.67,5.08,4.44,5.08,4.44s.45,24,1.32,24.72c1.25-.47,9.64-17.26,11.49-22.86a61.81,61.81,0,0,1,8.59,3.07s5.76,3.07,6.57,16.46c.69,11.36,7.63,25.85,9.2,39A3.49,3.49,0,0,1,291.89,142.9Z"/><path id="Path_4115" data-name="Path 4115" class="cls-15" d="M255.66,78s.78,23.14,1.77,28.94l14.76-25.5-2-.76-11.66,21.14-1.15-23Z"/><path id="Path_4116" data-name="Path 4116" class="cls-7" d="M258.86,77.11a6.41,6.41,0,0,0-2.77,1.22s1.38,4.49,5.05,5.83l1.58-2A10.17,10.17,0,0,1,258.86,77.11Z"/><path id="Path_4117" data-name="Path 4117" class="cls-7" d="M262.72,82.13s6-.78,6.9-3.67a4.91,4.91,0,0,1,1.15,3.28s-1.9,2.87-6.64,2.9Z"/><circle id="Ellipse_46" data-name="Ellipse 46" class="cls-2" cx="255" cy="109.42" r="1.09"/><path id="Path_4118" data-name="Path 4118" class="cls-2" d="M251.86,119.24a1.09,1.09,0,1,1,1.09,1.09h0A1.09,1.09,0,0,1,251.86,119.24Z"/><g id="Group_1953" data-name="Group 1953"><g id="Group_1952" data-name="Group 1952"><path id="Path_4119" data-name="Path 4119" class="cls-3" d="M251.91,64.47l.36-.35c-3.65-3.85-2-9-1.5-10.13a.4.4,0,0,0-.09-.43h0a.22.22,0,0,0-.31,0,.22.22,0,0,0-.05.08C249.81,55,248.1,60.45,251.91,64.47Z"/></g><path id="Path_4120" data-name="Path 4120" class="cls-4" d="M252.27,64.12l.59.34-.64.58-.31-.58Z"/><path id="Path_4121" data-name="Path 4121" class="cls-3" d="M252.86,64.46s.68.69,1,.57c0,0-.38.69-.77.7a2.47,2.47,0,0,1-.85-.69Z"/></g><path id="Path_4122" data-name="Path 4122" class="cls-15" d="M259.41,60.46s2.55.18,3.31-1.12c0,0,2.07.52,3-.26,0,0,3.2.65,3.29-.64,0,0,2.45,4.9,5.13,3.87s-4.29-6-4.29-6l-9.13,1.22Z"/><path id="Path_4123" data-name="Path 4123" class="cls-10" d="M259.6,56.8l-.53,2.27s7.13-2.53,15.83,2.51l-.1-3.67a2.46,2.46,0,0,0-.9-1.84c-1.57-1.3-5.34-3.85-12.3-1.82A3.56,3.56,0,0,0,259.6,56.8Z"/><path id="Path_4124" data-name="Path 4124" class="cls-19" d="M228.44,28.73a2.21,2.21,0,0,1,.15-2c.64-.91,4.87-2.3,5.26-1.57s.15,3.3-1.21,3.86S228.55,29.3,228.44,28.73Z"/><path id="Path_4125" data-name="Path 4125" class="cls-2" d="M240.47,92.71c-1.4-3.16-11.35-12.25-13-21.16-.77-4.15,1.64-7.08,4.58-9a16.48,16.48,0,0,0,2.53,11.91C238.48,80.06,240.47,92.71,240.47,92.71Z"/><path id="Path_4126" data-name="Path 4126" class="cls-2" d="M289.71,143.8a6.4,6.4,0,0,1-8.29-3.65,2.83,2.83,0,0,1-.11-.31c-1.54-4.75-1.7-9.87-2.27-14.09-.28-2.07-.6-6.34-1.86-9.67a83,83,0,0,1,7.3,15.85C287.93,141.76,286.86,143.2,289.71,143.8Z"/></g><g id="Group_1959" data-name="Group 1959"><path id="Path_4131" data-name="Path 4131" class="cls-1" d="M160.81,166.59c1.32-2.06-9.77-24.87-3.82-37.57.74-1.58,14.56.79,14.56.79s2.83,32.06,1.24,40.55c-1.12,6-3.32,23.69-4.51,33.56V204c-.28,2.35-.51,4.24-.65,5.42a5.65,5.65,0,0,0,.31,2.64c.88,2.41,2.79,7.41,3.75,8.1,0,0-5.23,1.5-6.24.91s-3.55-9.8-3.55-9.8a4.57,4.57,0,0,0,.45-2.79c-.2-1.25-.5-3.22-.84-5.65h0C157,184.59,157.67,171.52,160.81,166.59Z"/><path id="Path_4132" data-name="Path 4132" class="cls-1" d="M131.27,207.51a4.52,4.52,0,0,0,1.41-2.44c.26-1.25.67-3.2,1.21-5.58h0c2.23-18.67,7.49-30.66,12.17-34.15,2-1.47-.36-26.72,9.7-36.5,1.25-1.21,13.34,5.88,13.34,5.88s-8.68,31-13.17,38.38c-3.17,5.21-11.47,21-16.08,29.8h0c-1.11,2.13-2,3.85-2.56,4.92a5.67,5.67,0,0,0-.65,2.58c0,2.57-.37,9.45.64,10a9.65,9.65,0,0,1,1.63,1.2s-4.77-.41-5.35-.44-4.23-11.47-4.3-11.69h0C130,208.72,130.73,208,131.27,207.51Z"/><path id="Path_4133" data-name="Path 4133" class="cls-2" d="M126.89,213.72l-1.2,7,.63.47,3.76-5.42Z"/><path id="Path_4134" data-name="Path 4134" class="cls-10" d="M127,214.26c4.1,2.15,4.7,9.31,5.35,10.85l7.49,0c1.13-.38.68-2-1-3.48,0,0-4.77-.41-5.35-.44s-4.23-11.47-4.3-11.69C127.54,211.38,125.87,213.66,127,214.26Z"/><path id="Path_4135" data-name="Path 4135" class="cls-17" d="M133.56,190.53c.33,9,18.15,7.24,18.15,7.24l2.36-11.4,1.56-7.57.52-2.5-.78-.37L144,170.54l-3.55-1.68-.14.45-6.12,19.14h0Z"/><path id="Path_4136" data-name="Path 4136" class="cls-22" d="M134.22,188.46c5.15-5.3,19.85-2.09,19.85-2.09l1.56-7.56-.26-2.88L144,170.55l-3.7-1.24-6.11,19.14Z"/><path id="Path_4137" data-name="Path 4137" class="cls-2" d="M160.53,218.42l1,6.69h1.08l.51-5.19Z"/><path id="Path_4138" data-name="Path 4138" class="cls-10" d="M160.53,218.42c2.28,1.05,4.76,5.48,5.92,6.69l9.44.07c1.18-1-2.95-4.1-4.21-5,0,0-5.23,1.5-6.23.91s-3.56-9.8-3.56-9.8C160.77,213.43,158.86,217.65,160.53,218.42Z"/><path id="Path_4139" data-name="Path 4139" class="cls-17" d="M156.15,173l2.35,25.73c4.36,5.52,15.86,2.13,15.86,2.13s.88-21.26,1.32-22.1l-1.66-.49Z"/><path id="Path_4140" data-name="Path 4140" class="cls-22" d="M156.15,173l2.35,25.73c.12-12.67,16.5-11.39,16.5-11.39l-1-9.07Z"/><path id="Path_4141" data-name="Path 4141" class="cls-2" d="M176.22,52.12l-24-9.52-13.44,13,22.84,8.91Z"/><path id="Path_4142" data-name="Path 4142" class="cls-6" d="M165,56.51s.05,2.86,2.15,3.75c4.35,1.85.21,4,4.48,7,1,.7,1.69,5-5.1,5.66s-7.65,1.22-7.65,1.22a10.53,10.53,0,0,1-10.63-.09c-3.24-1.93.84-7.3-.65-8.67-2-1.84-2.26-7.86.65-10.35a25,25,0,0,1,7.57-3.94Z"/><g id="Group_1957" data-name="Group 1957"><g id="Group_1956" data-name="Group 1956"><path id="Path_4143" data-name="Path 4143" class="cls-3" d="M184,62.73l.17-.6c-6.43-1.9-7.8-8.58-8-10.14a.5.5,0,0,0-.37-.41h0a.28.28,0,0,0-.34.2.45.45,0,0,0,0,.11C175.75,53.7,177.33,60.75,184,62.73Z"/></g><path id="Path_4144" data-name="Path 4144" class="cls-4" d="M184.22,62.13h.85l-.33,1-.7-.43Z"/><path id="Path_4145" data-name="Path 4145" class="cls-3" d="M185.07,62.13s1.18.33,1.43,0c0,0,0,1-.39,1.26a3.21,3.21,0,0,1-1.37-.22Z"/></g><path id="Path_4146" data-name="Path 4146" class="cls-1" d="M166.44,74.7a5.13,5.13,0,0,1-2.58-3c-.78-2.12-1.46-4.43-1.46-4.43l-2.09.34-5.58.92-.46.07a25.85,25.85,0,0,1,1,3.31,17.27,17.27,0,0,1,.52,4.58,1.94,1.94,0,0,1-1,1.75c-.15.1,5.89,19.9,8.8,18.92C166.14,96.32,166.68,74.63,166.44,74.7Z"/><path id="Path_4147" data-name="Path 4147" class="cls-16" d="M155.82,76.51c3.35-1.36,6.58-9.22,6.58-9.22a4.18,4.18,0,0,0-2.09.34,12.71,12.71,0,0,0-5,4.3A17.27,17.27,0,0,1,155.82,76.51Z"/><path id="Path_4148" data-name="Path 4148" class="cls-1" d="M153.68,73.31s10-1.62,8.86-7.8-.56-10.57-7-9.8-7.22,3.35-7.35,5.5S151.06,73.57,153.68,73.31Z"/><path id="Path_4149" data-name="Path 4149" class="cls-1" d="M152.79,79.06S136,74,134.78,72.59s-4.1-20.08-4.1-22.77l-2.44.35s-1.82,21.25.28,26.06,23.3,12.42,23.3,12.42Z"/><path id="Path_4150" data-name="Path 4150" class="cls-17" d="M165.93,74.46s-2.06,6.43-10.15,2.38l8.49,18.68,2.22-16.7Z"/><path id="Path_4151" data-name="Path 4151" class="cls-1" d="M172.8,76.35s-1,3.35,18.45,14l14.36-9.83,1.72,1.44s-13.77,16.6-15.92,16.25-16.93-10.09-16.93-10.09Z"/><path id="Path_4152" data-name="Path 4152" class="cls-10" d="M119.88,159.35a31.07,31.07,0,0,0,1.73,4.07c2.07,4.15,6.14,10.48,13,14.29,7.72,4.32,32.72,12.57,49.9,8.57,0,0-1.63-54.36-5.24-76.71-.08-.51-.17-1-.25-1.5,1,4,6.42,5.34,8.62,4.6,4.84-1.63,6.53-5.39,6.75-9.37.36-6.13-2.74-12.79-3.1-13-7.93-4.5-9.4-11.66-13.26-14.21-3.44-2.28-11.65-1.68-12.06-1.64l-1.8,17.86-8.35-15.48s-13.47-1.17-21-4.25c0,0-22.51,31.15,5.37,30.74,0,7.18-3.35,13.7-6.59,23.4S119.88,159.35,119.88,159.35Z"/><path id="Path_4153" data-name="Path 4153" class="cls-7" d="M155.84,68.8s-.11,1-.74,1.26a9.44,9.44,0,0,1-2.5.62,8.57,8.57,0,0,1-.83-.88A13.28,13.28,0,0,1,155.84,68.8Z"/><path id="Path_4154" data-name="Path 4154" class="cls-1" d="M130.74,49.83s1-.72.48-2.68c-.36-1.32-.12-2.39-.4-2.36s-.53,1.75-.7,2.17-2.38-3.88-3-3.55-1.68,2,1,7.79Z"/><path id="Path_4155" data-name="Path 4155" class="cls-1" d="M205.61,80.48s1.53-3.63,2-4.37c1-1.48,3.88-2.41,4.07-1.75s-1.85,1.61-1.93,3.12c0,.42.83-.39,1.36-.71.32-.19.51,0,.34.21-.84,1.23-1.3,2.49-2.11,3a11.64,11.64,0,0,0-2,2Z"/><path id="Path_4156" data-name="Path 4156" class="cls-23" d="M165.93,74.46l-1.8,17.86-8.32-15.81h-3L165,98.78l3.14-24.42Z"/><path id="Path_4157" data-name="Path 4157" class="cls-6" d="M149.56,55.94s-2.92,3.43,6.28,5.12a4.53,4.53,0,0,1,3.79,5.16c0,.22-.09.44-.15.65-1.2,3.58,1.82,7.43,6.27,6,3.54-1.1-2.23-17.64-5.37-17.89S149.56,55.94,149.56,55.94Z"/><path id="Path_4158" data-name="Path 4158" class="cls-6" d="M152.79,56.73s-3,2.12-3.21,3.82-.94,4.13-2.07,2.41a4.76,4.76,0,0,1,0-5.61c1.32-1.57,4.27-2.27,4.9-1.73A1,1,0,0,1,152.79,56.73Z"/><path id="Path_4159" data-name="Path 4159" class="cls-10" d="M147.57,55.74s5.65-4.86,17.64,2.3l.16-3c-.46-1.76-1-1.74-2.63-2.6a17.74,17.74,0,0,0-8.58-1.88c-2.74,0-4.34-.33-5.58,2.11Z"/><g id="Group_1958" data-name="Group 1958"><path id="Path_4160" data-name="Path 4160" class="cls-3" d="M222.32,89.71a25.37,25.37,0,0,0,2-2.5,10.83,10.83,0,0,0,1.08-1.87,3.07,3.07,0,0,0,.27-.94s-15-9.08-16.34-10.29-13.61-10.8-13.61-10.8a21.28,21.28,0,0,0-1.73,2c-.34.44-.69.93-1,1.44a8.67,8.67,0,0,0-1.29,3s15.69,7.76,17.1,9.17S222.32,89.71,222.32,89.71Z"/><path id="Path_4161" data-name="Path 4161" class="cls-18" d="M224.31,87.21a10.83,10.83,0,0,0,1.08-1.87,3.07,3.07,0,0,0,.27-.94s-15-9.08-16.34-10.29-13.61-10.8-13.61-10.8a21.28,21.28,0,0,0-1.73,2c-.34.44-.69.93-1,1.44,4.41,2.2,16.36,8.24,17.65,9.53S220.67,84.38,224.31,87.21Z"/><path id="Path_4162" data-name="Path 4162" class="cls-15" d="M206.92,72.16s4.17,2,5.24,3.89l-2.35,3.75S206,78,204.36,76.23Z"/></g><path id="Path_4163" data-name="Path 4163" class="cls-1" d="M209.38,79.94a4.76,4.76,0,0,0,1.69-1.22c.63-.79,1.48-2.06.42-1.74s-2.94,1.65-3.65,1.77-.45.68-.5.84A9.37,9.37,0,0,0,209.38,79.94Z"/><path id="Path_4164" data-name="Path 4164" class="cls-2" d="M119.88,159.35a31.07,31.07,0,0,0,1.73,4.07,87.51,87.51,0,0,0,15.18-21.51c7.56-15.77,3.36-38.57,3.36-38.57,0,7.17-3.35,13.69-6.59,23.39S119.88,159.35,119.88,159.35Z"/><path id="Path_4165" data-name="Path 4165" class="cls-2" d="M166.49,105.22a.75.75,0,1,0-.75.76A.76.76,0,0,0,166.49,105.22Z"/><path id="Path_4166" data-name="Path 4166" class="cls-2" d="M166.49,118.9a.75.75,0,1,0-1.5,0,.75.75,0,0,0,1.5,0Z"/><path id="Path_4167" data-name="Path 4167" class="cls-2" d="M179.22,109.57c-.08-.51-.16-1-.25-1.5,1.05,4,6.42,5.34,8.62,4.6,4.84-1.63,6.53-5.39,6.76-9.37-.52.27-8.38,4.28-12,1.92s-6-7.84-6.1-8Z"/></g><g id="Group_1960" data-name="Group 1960"><path id="Path_4168" data-name="Path 4168" class="cls-24" d="M337.47,36.17a8.16,8.16,0,0,1-4.75,1.52,7.42,7.42,0,0,1-3.91-1.87l-1.38,2.68s3.53,1.92,6.45,1.21a7.45,7.45,0,0,0,2.94-1.88A2.56,2.56,0,0,0,337.47,36.17Z"/><path id="Path_4169" data-name="Path 4169" class="cls-25" d="M337.16,30.74l3.7-1.74s-.15,7.86-6.52,10.56C334.34,39.56,338.18,34,337.16,30.74Z"/></g><g id="Group_1961" data-name="Group 1961"><path id="Path_4170" data-name="Path 4170" class="cls-24" d="M16.26,107.71a8.19,8.19,0,0,1-4.76,1.52,7.35,7.35,0,0,1-3.9-1.87L6.22,110s3.53,1.92,6.44,1.22a7.45,7.45,0,0,0,2.94-1.89A2.48,2.48,0,0,0,16.26,107.71Z"/><path id="Path_4171" data-name="Path 4171" class="cls-25" d="M16,102.28l3.7-1.74s-.16,7.86-6.52,10.56C13.13,111.1,17,105.54,16,102.28Z"/></g><g id="Group_1962" data-name="Group 1962"><path id="Path_4172" data-name="Path 4172" class="cls-26" d="M153.72,24.3s5.37-3.74,9.41,1.83l4.43-1.91s-2.19-3.45-10.78-1.92C151.16,23.3,153.72,24.3,153.72,24.3Z"/><path id="Path_4173" data-name="Path 4173" class="cls-27" d="M148.42,28s1.47-6,12.49-6c0,0-4.13.39-7.36,5.75Z"/></g><path id="Path_4174" data-name="Path 4174" class="cls-28" d="M207.48,9.27s-3-1.87-3.28-4.14c0,0-2.89.16-3.52,1.1,0,0,1.33,3.75,2.9,4.45C203.57,10.68,207.09,10.92,207.48,9.27Z"/><path id="Path_4175" data-name="Path 4175" class="cls-28" d="M404.3,167.25s-3-1.87-3.28-4.14c0,0-2.89.16-3.51,1.09,0,0,1.33,3.75,2.89,4.46C400.4,168.66,403.91,168.89,404.3,167.25Z"/></svg>