<svg id="Layer_1" data-name="Layer 1" xmlns="http://www.w3.org/2000/svg" viewBox="0 0 426.23 229.62"><defs><style>.cls-1{fill:#d4d0e8;}.cls-1,.cls-10,.cls-11,.cls-12,.cls-13,.cls-14,.cls-15,.cls-16,.cls-17,.cls-19,.cls-2,.cls-20,.cls-21,.cls-23,.cls-24,.cls-25,.cls-28,.cls-29,.cls-3,.cls-4,.cls-5,.cls-7,.cls-8,.cls-9{fill-rule:evenodd;}.cls-2{fill:#383260;}.cls-3{fill:#86a7a6;}.cls-4,.cls-6{fill:#fff;}.cls-5{fill:#e3e1f1;}.cls-7{fill:#6f8c8a;}.cls-8{fill:#9fbbc1;}.cls-9{fill:#a85269;}.cls-10{fill:#c37584;}.cls-11{fill:#d38e9e;}.cls-12{fill:#e7bfc4;}.cls-13{fill:#e6b5a3;}.cls-14{fill:#d2887a;}.cls-15{fill:#f4f4fa;}.cls-16{fill:#e4b5a1;}.cls-17{fill:#443e71;}.cls-18,.cls-22,.cls-26,.cls-27{fill:none;stroke-linecap:round;stroke-linejoin:round;stroke-width:0.71px;}.cls-18{stroke:#c8c4e0;}.cls-19{fill:#714360;}.cls-20{fill:#86526a;}.cls-21{fill:#643a54;}.cls-22{stroke:#383260;}.cls-23{fill:#c8c4e0;}.cls-24{fill:#f0d6ca;}.cls-25{fill:#efd4c9;}.cls-26{stroke:#d2887a;}.cls-27{stroke:#714360;}.cls-28{fill:#efedf6;}.cls-29{fill:#d9d5eb;}.cls-30{fill:#bab6d7;}</style></defs><g id="Group_2526" data-name="Group 2526"><path id="Path_6077" data-name="Path 6077" class="cls-1" d="M113.29,211.58C88.91,211.58,69,192.31,69,168.75h0c0-23.56,20-42.84,44.33-42.84h0c10.31,0,18.75-8.15,18.75-18.11h0c0-10-8.44-18.11-18.75-18.11h-2.23c-10.72,0-19.48-8.48-19.48-18.83h0C91.58,60.5,100.34,52,111.06,52h6.85a7.48,7.48,0,0,0,7.58-7.33h0a7.49,7.49,0,0,0-7.58-7.34h-5a5.17,5.17,0,0,1-5.24-5h0a5.17,5.17,0,0,1,5.24-5.06h33.8a8.11,8.11,0,0,0,8.22-7.95h0a8.11,8.11,0,0,0-8.22-8H136.57a5.16,5.16,0,0,1-5.23-5.06h0a5.16,5.16,0,0,1,5.23-5.06h148a6.73,6.73,0,0,1,6.83,6.6h0a6.74,6.74,0,0,1-6.83,6.6h-2.83A10.59,10.59,0,0,0,271,24.8h0a10.59,10.59,0,0,0,10.73,10.38h32.56a6.73,6.73,0,0,1,6.83,6.6h0a6.73,6.73,0,0,1-6.83,6.6h-6.56a9.76,9.76,0,0,0-9.9,9.56h0a9.76,9.76,0,0,0,9.9,9.57h8.93c14,0,25.43,11.06,25.43,24.57h0c0,13.52-11.45,24.57-25.43,24.57h-2.91c-13.45,0-24.46,10.64-24.46,23.64h0c0,13,11,23.63,24.46,23.63h6.3c13.56,0,24.66,10.73,24.66,23.83h0c0,13.11-11.1,23.83-24.66,23.83ZM302.08,14.43a6.6,6.6,0,1,0-6.83-6.6A6.72,6.72,0,0,0,302.08,14.43ZM98.18,37.36a5.06,5.06,0,1,0-5.23-5A5.14,5.14,0,0,0,98.18,37.36Z"/><path id="Path_6078" data-name="Path 6078" class="cls-2" d="M323.77,211.3H100.4c-2.3,0-4.17,1.52-4.17,3.38h0c0,1.85,1.87,3.37,4.17,3.37h13.12c2.36,0,4.28,1.56,4.28,3.47h0c0,1.91-1.92,3.47-4.28,3.47h-1.41a2.44,2.44,0,0,0-2.66,2.15h0a2.44,2.44,0,0,0,2.66,2.15H292.45c2.39,0,4.35-1.58,4.35-3.52h0c0-1.93-2-3.51-4.35-3.51h-1.19a2.4,2.4,0,0,1-2.59-2.1h0a2.38,2.38,0,0,1,2.59-2.1h32.51c2.3,0,4.18-1.52,4.18-3.38h0c0-1.86-1.88-3.38-4.18-3.38Zm-19.09,18c-2.37,0-4.32-1.58-4.32-3.5v-.05c0-1.92,1.95-3.49,4.32-3.49h0c2.37,0,4.31,1.57,4.31,3.49v.05C309,227.72,307.05,229.3,304.68,229.3Z"/><g id="Group_2512" data-name="Group 2512"><g id="Group_2499" data-name="Group 2499"><path id="Path_6079" data-name="Path 6079" class="cls-3" d="M293.94,92.24a.32.32,0,0,1,.42-.2.33.33,0,0,1,.21.42v0s-1.46,3.84-3.18,4.6a.33.33,0,0,1-.27-.61C292.57,95.82,293.94,92.25,293.94,92.24Z"/><path id="Path_6080" data-name="Path 6080" class="cls-3" d="M269.93,72.5a.34.34,0,0,1,.62-.26,10.57,10.57,0,0,0,1.87,3,.33.33,0,0,1-.47.47h0A11.61,11.61,0,0,1,269.93,72.5Z"/><path id="Path_6081" data-name="Path 6081" class="cls-3" d="M267.83,123.81a.33.33,0,0,1,.18-.43.34.34,0,0,1,.44.18s1.53,3.79,3.3,5.19a.34.34,0,0,1,.05.47.33.33,0,0,1-.47.06h0C269.43,127.76,267.83,123.82,267.83,123.81Z"/></g><path id="Path_6082" data-name="Path 6082" class="cls-4" d="M286.1,155.93a4.68,4.68,0,0,1-9.36,0V84.65a68.72,68.72,0,0,0-137.44,0v71.28a4.68,4.68,0,0,1-9.36,0h0V84.65a78.08,78.08,0,0,1,156.16,0Z"/><path id="Path_6083" data-name="Path 6083" class="cls-5" d="M278.75,149.12V84.65a69.94,69.94,0,0,0-5.38-27A71.41,71.41,0,0,0,235,19.29a70.41,70.41,0,0,0-53.94,0,71.48,71.48,0,0,0-23,15.4,70.53,70.53,0,0,0-20.78,50v64.47H136V84.65a72.07,72.07,0,1,1,144.13,0v64.47Zm-146.8,0h1.33V84.65A74.33,74.33,0,0,1,139,56.15a75.48,75.48,0,0,1,40.56-40.56,74.37,74.37,0,0,1,57,0,75.45,75.45,0,0,1,40.56,40.56,74,74,0,0,1,5.68,28.5v64.47h1.34V84.65a75.4,75.4,0,0,0-5.79-29A76.72,76.72,0,0,0,237,14.36a75.66,75.66,0,0,0-58,0,76.72,76.72,0,0,0-41.28,41.28,75.4,75.4,0,0,0-5.79,29Z"/><path id="Rectangle_750" data-name="Rectangle 750" class="cls-6" d="M129.06,147.09h11.11a4.26,4.26,0,0,1,4.27,4.26h0V212a4.27,4.27,0,0,1-4.27,4.26H129.06A4.26,4.26,0,0,1,124.8,212h0V151.35A4.26,4.26,0,0,1,129.06,147.09Z"/><path id="Rectangle_751" data-name="Rectangle 751" class="cls-6" d="M275.87,147.09H287a4.26,4.26,0,0,1,4.26,4.26h0V212a4.26,4.26,0,0,1-4.26,4.26H275.87A4.27,4.27,0,0,1,271.6,212h0V151.35A4.26,4.26,0,0,1,275.87,147.09Z"/><path id="Path_6084" data-name="Path 6084" class="cls-5" d="M139.3,139.41l-9.36,2.79v4.89h9.36Z"/><path id="Path_6085" data-name="Path 6085" class="cls-5" d="M286.1,139.41l-9.36,2.79v4.89h9.36Z"/><g id="Group_2500" data-name="Group 2500"><path id="Path_6086" data-name="Path 6086" class="cls-5" d="M140.63,151h0a.68.68,0,0,1,.67.67v56a.67.67,0,0,1-.67.67h0a.67.67,0,0,1-.67-.67v-56A.68.68,0,0,1,140.63,151Z"/><path id="Path_6087" data-name="Path 6087" class="cls-5" d="M134.62,151h0a.67.67,0,0,1,.66.67v56a.67.67,0,0,1-.66.67h0a.67.67,0,0,1-.67-.67v-56A.68.68,0,0,1,134.62,151Z"/><path id="Path_6088" data-name="Path 6088" class="cls-5" d="M128.6,151h0a.68.68,0,0,1,.67.67v56a.67.67,0,0,1-.67.67h0a.68.68,0,0,1-.67-.67v-56A.68.68,0,0,1,128.6,151Z"/></g><g id="Group_2501" data-name="Group 2501"><path id="Path_6089" data-name="Path 6089" class="cls-5" d="M287.43,151h0a.68.68,0,0,1,.67.67v56a.67.67,0,0,1-.67.67h0a.67.67,0,0,1-.66-.67v-56A.67.67,0,0,1,287.43,151Z"/><path id="Path_6090" data-name="Path 6090" class="cls-5" d="M281.42,151h0a.68.68,0,0,1,.67.67v56a.67.67,0,0,1-.67.67h0a.67.67,0,0,1-.67-.67v-56A.68.68,0,0,1,281.42,151Z"/><path id="Path_6091" data-name="Path 6091" class="cls-5" d="M275.41,151h0a.68.68,0,0,1,.67.67v56a.67.67,0,0,1-.67.67h0a.67.67,0,0,1-.67-.67v-56A.68.68,0,0,1,275.41,151Z"/></g><path id="Path_6092" data-name="Path 6092" class="cls-7" d="M275,70.56a.81.81,0,0,1,.29-.12c.15.7.29,1.39.41,2.1a4.29,4.29,0,0,0-1.32,1.36c-3.56,6.09,7.73,10.58,11.25,12.72,8.5,5.18,8.09,18.34.51,24.08V108c5.28-5.29,5.24-15.47-1.53-19.6-4.3-2.62-16.41-7.93-11.94-15.57A6.34,6.34,0,0,1,275,70.56Zm1.78,48.5a23.84,23.84,0,0,0-2.47,3.51c-2.46,4.35-2.76,9.21,2.47,13.75v2.36a1,1,0,0,1-.61-.22c-6.92-5.52-6.63-11.55-3.59-16.93a28.54,28.54,0,0,1,4.2-5.52Z"/><path id="Path_6093" data-name="Path 6093" class="cls-8" d="M275.09,81.7a5.16,5.16,0,0,0-.83-.46,7.3,7.3,0,0,0-2-.65A4.46,4.46,0,0,0,267.4,83a.36.36,0,0,0,.07.44,4.47,4.47,0,0,0,5.41.7,7.28,7.28,0,0,0,1.66-1.26,6.22,6.22,0,0,0,.64-.71.35.35,0,0,0-.08-.49Z"/><path id="Path_6094" data-name="Path 6094" class="cls-8" d="M285.59,87.84a6.17,6.17,0,0,1-.66-.69,7.3,7.3,0,0,1-1.11-1.75A4.47,4.47,0,0,1,285,80.06a.36.36,0,0,1,.45,0,4.47,4.47,0,0,1,2,5.07,7.88,7.88,0,0,1-.8,1.92,8.37,8.37,0,0,1-.53.79.36.36,0,0,1-.5,0Z"/><path id="Path_6095" data-name="Path 6095" class="cls-8" d="M290.29,98.37a6,6,0,0,0-.11-.94,7.26,7.26,0,0,0-.63-2,4.46,4.46,0,0,0-4.83-2.54.34.34,0,0,0-.31.31A4.45,4.45,0,0,0,287,98a7.31,7.31,0,0,0,2,.62,7.5,7.5,0,0,0,.94.1.35.35,0,0,0,.36-.35v0Z"/><path id="Path_6096" data-name="Path 6096" class="cls-8" d="M289.28,106a6.4,6.4,0,0,1,.31-.9,7.25,7.25,0,0,1,1.05-1.8,4.45,4.45,0,0,1,5.26-1.43.35.35,0,0,1,.24.38,4.47,4.47,0,0,1-3.57,4.12,7.64,7.64,0,0,1-2.08.17,6,6,0,0,1-.94-.11.35.35,0,0,1-.27-.43Z"/><path id="Path_6097" data-name="Path 6097" class="cls-8" d="M273.49,120.6a8.43,8.43,0,0,1-.55-.78,7.37,7.37,0,0,1-.85-1.9,4.46,4.46,0,0,1,1.9-5.11.36.36,0,0,1,.45,0,4.46,4.46,0,0,1,1.27,5.3,7.2,7.2,0,0,1-1.07,1.79,6,6,0,0,1-.64.7.36.36,0,0,1-.5,0h0Z"/><path id="Path_6098" data-name="Path 6098" class="cls-8" d="M272.44,130.36a6,6,0,0,0,.95,0,7.83,7.83,0,0,0,2-.48,4.47,4.47,0,0,0,2.91-4.62.35.35,0,0,0-.29-.34,4.47,4.47,0,0,0-5,2.22,7.46,7.46,0,0,0-.76,1.93,6,6,0,0,0-.17.94.35.35,0,0,0,.31.38Z"/><path id="Path_6099" data-name="Path 6099" class="cls-8" d="M273.31,134.72a7.3,7.3,0,0,1-.91.27,7.65,7.65,0,0,1-2.08.2,4.45,4.45,0,0,1-4.23-3.44.35.35,0,0,1,.17-.42,4.46,4.46,0,0,1,5.43.5,7.54,7.54,0,0,1,1.34,1.59,6.12,6.12,0,0,1,.47.83.34.34,0,0,1,0,.28A.3.3,0,0,1,273.31,134.72Z"/><g id="Group_2502" data-name="Group 2502"><path id="Path_6100" data-name="Path 6100" class="cls-9" d="M268.17,70.16s.24-1.6,1.15-2,3.1,3.68,1.37,5.08-4.64-1.12-5-1.73S267.05,69.88,268.17,70.16Z"/><path id="Path_6101" data-name="Path 6101" class="cls-10" d="M269.9,69.57s1.18-1.11,2.16-.86.12,4.81-2.12,4.81S267,69.74,267.11,69,269.2,68.65,269.9,69.57Z"/><path id="Path_6102" data-name="Path 6102" class="cls-11" d="M268.84,69.89s.61-1.5,1.6-1.7,2.13,4.31.11,5.26-4.23-2.2-4.46-2.88S267.82,69.35,268.84,69.89Z"/></g><g id="Group_2503" data-name="Group 2503"><path id="Path_6103" data-name="Path 6103" class="cls-9" d="M294.88,89.86s1.4-.83,2.3-.38-.9,4.72-3.08,4.26-2.05-4.32-1.82-5S294.4,88.82,294.88,89.86Z"/><path id="Path_6104" data-name="Path 6104" class="cls-10" d="M296.43,90.83s1.61.22,2,1.14-3.66,3.11-5.07,1.38,1.1-4.64,1.71-5S296.7,89.71,296.43,90.83Z"/><path id="Path_6105" data-name="Path 6105" class="cls-11" d="M295.52,90.21s1.55-.48,2.32.17-2,4.37-4,3.4-1-4.67-.58-5.28S295.29,89.08,295.52,90.21Z"/></g><g id="Group_2504" data-name="Group 2504"><path id="Path_6106" data-name="Path 6106" class="cls-9" d="M267.22,121.16s-1.39-.84-2.3-.39.91,4.72,3.09,4.26,2.05-4.31,1.82-5S267.71,120.11,267.22,121.16Z"/><path id="Path_6107" data-name="Path 6107" class="cls-10" d="M265.68,122.12s-1.61.22-2,1.14,3.67,3.11,5.08,1.38-1.1-4.64-1.71-5S265.4,121,265.68,122.12Z"/><path id="Path_6108" data-name="Path 6108" class="cls-11" d="M266.59,121.5s-1.55-.48-2.33.17,2,4.38,4,3.4,1-4.67.58-5.28S266.81,120.37,266.59,121.5Z"/></g><g id="Group_2505" data-name="Group 2505"><path id="Path_6109" data-name="Path 6109" class="cls-3" d="M122.1,92.24a.33.33,0,0,0-.43-.19.33.33,0,0,0-.19.43s1.46,3.84,3.18,4.6a.34.34,0,0,0,.44-.18.35.35,0,0,0-.17-.43C123.47,95.82,122.1,92.25,122.1,92.24Z"/><path id="Path_6110" data-name="Path 6110" class="cls-3" d="M146.11,72.5a.34.34,0,0,0-.16-.45.33.33,0,0,0-.44.16l0,0a10.57,10.57,0,0,1-1.87,3,.33.33,0,0,0,.47.47A11.38,11.38,0,0,0,146.11,72.5Z"/><path id="Path_6111" data-name="Path 6111" class="cls-3" d="M148.21,123.81a.33.33,0,0,0-.18-.43.34.34,0,0,0-.44.18h0s-1.53,3.79-3.3,5.19a.34.34,0,0,0-.07.47.34.34,0,0,0,.47.07h0C146.61,127.76,148.2,123.82,148.21,123.81Z"/></g><path id="Path_6112" data-name="Path 6112" class="cls-7" d="M141.08,70.56a.79.79,0,0,0-.3-.12c-.15.7-.28,1.39-.41,2.1a4.09,4.09,0,0,1,1.32,1.36C145.25,80,134,84.48,130.45,86.62c-8.5,5.18-8.09,18.34-.52,24.08V108c-5.28-5.29-5.24-15.47,1.53-19.6,4.3-2.62,16.42-7.93,11.94-15.57a6.31,6.31,0,0,0-2.32-2.27Zm-1.78,48.5a24.62,24.62,0,0,1,2.47,3.51c2.46,4.35,2.76,9.21-2.47,13.75v2.36a1,1,0,0,0,.61-.22c6.92-5.52,6.63-11.55,3.59-16.93a28.54,28.54,0,0,0-4.2-5.52Z"/><path id="Path_6113" data-name="Path 6113" class="cls-8" d="M141,81.7a5.16,5.16,0,0,1,.83-.46,7.19,7.19,0,0,1,2-.65A4.47,4.47,0,0,1,148.64,83a.35.35,0,0,1-.08.44,4.46,4.46,0,0,1-5.41.7,7.28,7.28,0,0,1-1.66-1.26,6.14,6.14,0,0,1-.63-.71.35.35,0,0,1,.08-.49Z"/><path id="Path_6114" data-name="Path 6114" class="cls-8" d="M130.45,87.84a6.17,6.17,0,0,0,.66-.69,7.62,7.62,0,0,0,1.11-1.75,4.47,4.47,0,0,0-1.13-5.34.36.36,0,0,0-.45,0,4.47,4.47,0,0,0-2,5.07,7.88,7.88,0,0,0,.8,1.92,6.81,6.81,0,0,0,.53.79.38.38,0,0,0,.24.13A.33.33,0,0,0,130.45,87.84Z"/><path id="Path_6115" data-name="Path 6115" class="cls-8" d="M125.75,98.37a7.5,7.5,0,0,1,.1-.94,7.28,7.28,0,0,1,.64-2,4.46,4.46,0,0,1,4.83-2.54.35.35,0,0,1,.31.31A4.46,4.46,0,0,1,129,98a7.31,7.31,0,0,1-2,.62,7.5,7.5,0,0,1-.94.1.36.36,0,0,1-.36-.35v0Z"/><path id="Path_6116" data-name="Path 6116" class="cls-8" d="M126.76,106a6.4,6.4,0,0,0-.31-.9,7.25,7.25,0,0,0-1-1.8,4.45,4.45,0,0,0-5.26-1.43.35.35,0,0,0-.24.38,4.47,4.47,0,0,0,3.57,4.12,7.64,7.64,0,0,0,2.08.17,6,6,0,0,0,.94-.11.36.36,0,0,0,.28-.42Z"/><path id="Path_6117" data-name="Path 6117" class="cls-8" d="M203.28,13.75a6.94,6.94,0,0,0,.2-1,7.71,7.71,0,0,0,0-2.25,4.83,4.83,0,0,0-4.11-4.24.39.39,0,0,0-.43.23,4.81,4.81,0,0,0,1.06,5.8,7.47,7.47,0,0,0,1.84,1.3,5.53,5.53,0,0,0,.93.42.38.38,0,0,0,.49-.23v0Z"/><path id="Path_6118" data-name="Path 6118" class="cls-8" d="M142.55,120.6a8.43,8.43,0,0,0,.55-.78,7.72,7.72,0,0,0,.85-1.9,4.46,4.46,0,0,0-1.9-5.11.36.36,0,0,0-.45,0,4.46,4.46,0,0,0-1.27,5.3,7.2,7.2,0,0,0,1.07,1.79,7,7,0,0,0,.63.7.37.37,0,0,0,.51,0h0Z"/><path id="Path_6119" data-name="Path 6119" class="cls-3" d="M200.61,13.77a8.23,8.23,0,0,0-3.21-.61,4.82,4.82,0,0,0-4.71,3.56.37.37,0,0,0,.17.45,4.84,4.84,0,0,0,5.89-.33,8.6,8.6,0,0,0,1.52-1.67,9.77,9.77,0,0,0,.53-.88.39.39,0,0,0,0-.3A.36.36,0,0,0,200.61,13.77Z"/><path id="Path_6120" data-name="Path 6120" class="cls-8" d="M143.6,130.36a7.54,7.54,0,0,1-.95,0,7.83,7.83,0,0,1-2-.48,4.47,4.47,0,0,1-2.91-4.62.35.35,0,0,1,.29-.34,4.47,4.47,0,0,1,5,2.22,8.17,8.17,0,0,1,.94,2.87.36.36,0,0,1-.32.38Z"/><path id="Path_6121" data-name="Path 6121" class="cls-8" d="M142.73,134.72a7.3,7.3,0,0,0,.91.27,7.62,7.62,0,0,0,2.07.2,4.47,4.47,0,0,0,4.24-3.44.35.35,0,0,0-.17-.41,4.46,4.46,0,0,0-5.43.5,7.34,7.34,0,0,0-1.35,1.59,6.07,6.07,0,0,0-.46.83.35.35,0,0,0,.18.46h0Z"/><g id="Group_2506" data-name="Group 2506"><path id="Path_6122" data-name="Path 6122" class="cls-9" d="M147.86,70.16s-.23-1.6-1.15-2-3.1,3.68-1.36,5.08,4.64-1.12,5-1.73S149,69.88,147.86,70.16Z"/><path id="Path_6123" data-name="Path 6123" class="cls-10" d="M146.14,69.57S145,68.46,144,68.71s-.11,4.81,2.12,4.81,2.92-3.78,2.84-4.5S146.84,68.65,146.14,69.57Z"/><path id="Path_6124" data-name="Path 6124" class="cls-11" d="M147.2,69.89s-.61-1.5-1.6-1.7-2.14,4.31-.12,5.26,4.24-2.2,4.47-2.88S148.22,69.35,147.2,69.89Z"/></g><path id="Path_6125" data-name="Path 6125" class="cls-8" d="M212.51,13.75a8.59,8.59,0,0,1-.2-1,8.07,8.07,0,0,1,0-2.25,4.85,4.85,0,0,1,4.11-4.24.39.39,0,0,1,.43.23,4.82,4.82,0,0,1-1.05,5.8,7.86,7.86,0,0,1-1.84,1.3A5.63,5.63,0,0,1,213,14a.38.38,0,0,1-.49-.24h0Z"/><path id="Path_6126" data-name="Path 6126" class="cls-3" d="M215.19,13.77a7.91,7.91,0,0,1,1-.33,8,8,0,0,1,2.24-.28,4.81,4.81,0,0,1,4.7,3.56.37.37,0,0,1-.17.45,4.83,4.83,0,0,1-5.89-.33,8.25,8.25,0,0,1-1.51-1.67,8,8,0,0,1-.54-.88.38.38,0,0,1,.18-.51Z"/><path id="Path_6127" data-name="Path 6127" class="cls-8" d="M211.94,13a7,7,0,0,1,1,.26,7.88,7.88,0,0,1,2,1,4.82,4.82,0,0,1,2,5.54.39.39,0,0,1-.38.3,4.85,4.85,0,0,1-4.78-3.47,8,8,0,0,1-.37-2.23,5.8,5.8,0,0,1,0-1,.38.38,0,0,1,.42-.34Z"/><g id="Group_2507" data-name="Group 2507"><path id="Path_6128" data-name="Path 6128" class="cls-9" d="M121.15,89.86s-1.39-.83-2.3-.38.91,4.72,3.09,4.26,2-4.32,1.82-5S121.64,88.82,121.15,89.86Z"/><path id="Path_6129" data-name="Path 6129" class="cls-10" d="M119.61,90.83s-1.61.22-2,1.14,3.67,3.11,5.08,1.38-1.1-4.64-1.71-5S119.33,89.71,119.61,90.83Z"/><path id="Path_6130" data-name="Path 6130" class="cls-11" d="M120.52,90.21s-1.55-.48-2.33.17,2,4.37,4,3.4,1-4.67.57-5.28S120.74,89.08,120.52,90.21Z"/></g><g id="Group_2508" data-name="Group 2508"><path id="Path_6131" data-name="Path 6131" class="cls-9" d="M148.81,121.16s1.4-.84,2.3-.39-.9,4.72-3.08,4.26-2.05-4.31-1.82-5S148.33,120.11,148.81,121.16Z"/><path id="Path_6132" data-name="Path 6132" class="cls-10" d="M150.36,122.12s1.61.22,2,1.14-3.67,3.11-5.08,1.38,1.1-4.64,1.71-5S150.63,121,150.36,122.12Z"/><path id="Path_6133" data-name="Path 6133" class="cls-11" d="M149.45,121.5s1.55-.48,2.33.17-2,4.38-4,3.4-1-4.67-.58-5.28S149.23,120.37,149.45,121.5Z"/></g><path id="Path_6134" data-name="Path 6134" class="cls-8" d="M203.85,13a7.36,7.36,0,0,0-1,.26,8,8,0,0,0-2,1,4.83,4.83,0,0,0-2,5.54.39.39,0,0,0,.38.3A4.85,4.85,0,0,0,204,16.63a8,8,0,0,0,.37-2.23,5.8,5.8,0,0,0,0-1,.38.38,0,0,0-.42-.34Z"/><g id="Group_2509" data-name="Group 2509"><path id="Path_6135" data-name="Path 6135" class="cls-11" d="M211.75,4.93h0a2,2,0,0,0-2.88,0l-.84.84-.85-.84a2,2,0,0,0-2.87,0h0a2,2,0,0,0,0,2.87,2,2,0,0,0-2.87,0h0a2,2,0,0,0,0,2.87l.85.85-.85.84a2,2,0,0,0,0,2.87h0a2,2,0,0,0,2.87,0,2,2,0,0,0,0,2.87h0a2,2,0,0,0,2.87,0l.85-.84.84.84a2,2,0,0,0,2.88,0h0a2,2,0,0,0,0-2.87,2,2,0,0,0,2.87,0h0a2,2,0,0,0,0-2.87l-.85-.84.85-.85a2,2,0,0,0,0-2.87h0a2,2,0,0,0-2.87,0A2,2,0,0,0,211.75,4.93Z"/><path id="Path_6136" data-name="Path 6136" class="cls-4" d="M208,12.91a1.4,1.4,0,1,0-1.39-1.39h0A1.39,1.39,0,0,0,208,12.91Z"/><path id="Path_6137" data-name="Path 6137" class="cls-12" d="M205.79,13.3a.32.32,0,0,1,.45.45l-1,1a.32.32,0,0,1-.45-.45Zm2.55,2.45a.32.32,0,1,1-.63,0V14.36a.32.32,0,1,1,.63,0Zm0-7.08a.32.32,0,1,1-.63,0V7.28a.32.32,0,1,1,.63,0V8.66Zm2.9,5.61a.32.32,0,0,1-.45.45h0l-1-1a.32.32,0,0,1,.45-.45l1,1Zm-5-5a.31.31,0,0,1,0,.45.33.33,0,0,1-.45,0l-1-1a.33.33,0,0,1,0-.45.31.31,0,0,1,.45,0Zm6,1.92a.32.32,0,0,1,.32.32.32.32,0,0,1-.32.32h-1.38a.32.32,0,0,1-.32-.32.32.32,0,0,1,.32-.32h1.38Zm-7.08,0a.32.32,0,0,1,.32.32.32.32,0,0,1-.32.32H203.8a.32.32,0,0,1-.32-.32.32.32,0,0,1,.32-.32Zm5.62-2.9a.31.31,0,0,1,.45,0,.33.33,0,0,1,0,.45l-1,1a.32.32,0,0,1-.45,0,.32.32,0,0,1,0-.43Z"/></g><g id="Group_2510" data-name="Group 2510"><path id="Path_6138" data-name="Path 6138" class="cls-12" d="M200.07,8.36h0a1.11,1.11,0,0,0-1.52.4l-.34.57L197.65,9a1.12,1.12,0,0,0-1.53.4h0a1.11,1.11,0,0,0,.4,1.52,1.13,1.13,0,0,0-1.53.4h0a1.12,1.12,0,0,0,.4,1.53l.57.33-.33.57a1.13,1.13,0,0,0,.4,1.53h0a1.13,1.13,0,0,0,1.53-.4,1.11,1.11,0,0,0,.4,1.52h0a1.11,1.11,0,0,0,1.52-.4l.33-.57.57.33a1.12,1.12,0,0,0,1.53-.4h0a1.11,1.11,0,0,0-.4-1.52,1.13,1.13,0,0,0,1.53-.4h0a1.12,1.12,0,0,0-.4-1.53l-.57-.33.33-.57a1.11,1.11,0,0,0-.4-1.52h0a1.11,1.11,0,0,0-1.53.4A1.12,1.12,0,0,0,200.07,8.36Z"/><path id="Path_6139" data-name="Path 6139" class="cls-4" d="M198.83,11.64a.77.77,0,1,0,.39,1.48.75.75,0,0,0,.54-.93.76.76,0,0,0-.93-.55Z"/><path id="Path_6140" data-name="Path 6140" class="cls-11" d="M198.08,13.65a.19.19,0,0,1,.25,0,.18.18,0,0,1,0,.22l-.38.65a.18.18,0,0,1-.25,0,.19.19,0,0,1-.05-.21Zm1.7.94a.17.17,0,0,1-.12.21.18.18,0,0,1-.22-.12h0l-.19-.74a.17.17,0,0,1,.12-.21.18.18,0,0,1,.22.12Zm-1-3.76a.18.18,0,0,1-.13.21.17.17,0,0,1-.21-.12h0l-.19-.75a.18.18,0,0,1,.11-.22.17.17,0,0,1,.22.12h0l.2.74Zm2.33,2.57a.18.18,0,0,1,.09.24.18.18,0,0,1-.23.08l0,0-.66-.38a.17.17,0,0,1,0-.24.17.17,0,0,1,.21-.06l.66.38Zm-3.36-2a.17.17,0,0,1,.09.23.18.18,0,0,1-.23.09l0,0-.66-.39a.19.19,0,0,1-.09-.23.18.18,0,0,1,.24-.09l0,0Zm3.47.17a.17.17,0,0,1,.21.12.18.18,0,0,1-.12.22l-.74.2a.17.17,0,0,1-.21-.13.17.17,0,0,1,.12-.21h0l.74-.2Zm-3.76,1a.17.17,0,0,1,.21.13.18.18,0,0,1-.13.21l-.73.19a.18.18,0,0,1-.22-.12.18.18,0,0,1,.13-.21ZM200,10.29a.18.18,0,0,1,.23-.09.17.17,0,0,1,.09.23l0,0-.38.65a.17.17,0,0,1-.32-.14l0,0Z"/></g><g id="Group_2511" data-name="Group 2511"><path id="Path_6141" data-name="Path 6141" class="cls-12" d="M216.13,8.36h0a1.12,1.12,0,0,1,1.53.4l.33.57.57-.33a1.13,1.13,0,0,1,1.53.4h0a1.11,1.11,0,0,1-.4,1.52,1.11,1.11,0,0,1,1.52.4h0a1.12,1.12,0,0,1-.4,1.53l-.56.33.33.57a1.13,1.13,0,0,1-.4,1.53h0a1.13,1.13,0,0,1-1.53-.4,1.11,1.11,0,0,1-.4,1.52h0a1.12,1.12,0,0,1-1.53-.4l-.33-.57-.57.33a1.11,1.11,0,0,1-1.52-.4h0a1.11,1.11,0,0,1,.4-1.52,1.12,1.12,0,0,1-1.53-.4h0a1.12,1.12,0,0,1,.4-1.53l.57-.33-.33-.57a1.11,1.11,0,0,1,.4-1.52h0a1.1,1.1,0,0,1,1.52.4A1.12,1.12,0,0,1,216.13,8.36Z"/><path id="Path_6142" data-name="Path 6142" class="cls-4" d="M217.38,11.64a.77.77,0,0,1,.54.94.75.75,0,0,1-.93.54.76.76,0,0,1-.55-.93.78.78,0,0,1,.94-.55Z"/><path id="Path_6143" data-name="Path 6143" class="cls-11" d="M218.12,13.65a.17.17,0,1,0-.32.14l0,0,.39.65a.17.17,0,0,0,.23.09.19.19,0,0,0,.09-.23l0,0Zm-1.7.94a.17.17,0,0,0,.13.21.17.17,0,0,0,.21-.12h0l.2-.74a.18.18,0,0,0-.11-.22.17.17,0,0,0-.22.12h0l-.2.74Zm1-3.76a.18.18,0,0,0,.13.21.17.17,0,0,0,.21-.12h0l.2-.74a.18.18,0,0,0-.12-.22.18.18,0,0,0-.22.11v0l-.2.74Zm-2.33,2.57a.18.18,0,0,0-.09.24.18.18,0,0,0,.23.08l0,0,.66-.38a.19.19,0,0,0,.09-.23.18.18,0,0,0-.24-.09l0,0Zm3.37-2a.17.17,0,0,0,.14.32l0,0,.66-.39a.16.16,0,0,0,0-.24.18.18,0,0,0-.21-.06Zm-3.47.17a.18.18,0,0,0-.22.13.18.18,0,0,0,.13.21l.73.2a.18.18,0,0,0,.22-.13.17.17,0,0,0-.13-.21Zm3.76,1a.17.17,0,0,0-.21.13.17.17,0,0,0,.12.21l.74.19a.17.17,0,1,0,.09-.33h0Zm-2.58-2.33a.18.18,0,0,0-.24,0,.19.19,0,0,0-.06.22l.38.65a.18.18,0,0,0,.24.09.18.18,0,0,0,.08-.23l0,0Z"/></g></g><g id="Group_2521" data-name="Group 2521"><path id="Path_6144" data-name="Path 6144" class="cls-5" d="M225.09,46.7c14-1,8,10,11.08,23.72,6,26.82,36.77,66.45,4.67,97.87S203.45,133,203.45,133l-1.16-6.47s6-19.9,5.14-41.79-1.16-32.33,7-34.15S225.09,46.7,225.09,46.7Z"/><path id="Path_6145" data-name="Path 6145" class="cls-13" d="M208.24,76.31,204.87,84l.77,14.22,4.86-8.13,3-5.68S211.4,77.41,208.24,76.31Z"/><path id="Path_6146" data-name="Path 6146" class="cls-14" d="M205.34,83,204.87,84l.77,14.23,3.05-5.1Z"/><path id="Path_6147" data-name="Path 6147" class="cls-14" d="M193.43,204.64s.73,2.77.77,3a22,22,0,0,1-3.15,1.9l-2-.79.31-3.54Z"/><path id="Path_6148" data-name="Path 6148" class="cls-14" d="M170.77,205.34s-.73,2.77-.77,3a22,22,0,0,0,3.15,1.9l1.68-1.4,0-2.93Z"/><path id="Path_6149" data-name="Path 6149" class="cls-15" d="M173.65,68.56a3.86,3.86,0,0,0-1.83,1.78c-.57,1.26-8.95,12.89-8.95,12.89l3.95,6.16L174,83S177.14,73.8,173.65,68.56Z"/><path id="Path_6150" data-name="Path 6150" class="cls-16" d="M199.47,107.66l-.89,1.67-1.45-3.81,2,.77Z"/><path id="Path_6151" data-name="Path 6151" class="cls-15" d="M196.93,103.92a3.76,3.76,0,0,0,1.23,2.07,3.81,3.81,0,0,1,1.24,2.09l.56-.66s1.79.71,2.22-.52,2.37-5.4,3.4-7.45,1.22-6,.89-8.36S202.36,73,201.25,71.71a16.71,16.71,0,0,0-3.2-2.54,40,40,0,0,0-.5,6.65c.17,2.24.66,11.26.66,11.26s-.7,2.74-.1,3.49.82-.23.82-.23l.83,1.52s-.48.43-.47.65a1.8,1.8,0,0,0,.21.56l-2.2,3.43Z"/><path id="Path_6152" data-name="Path 6152" class="cls-17" d="M196.28,103.24s3.31,5.08,3.85,16.83-2.47,38-2.41,42.28-.67,20.76-1.32,25-1.81,17-2.05,17.86-.66.87-1.29,1a12.67,12.67,0,0,1-4.33-.42c-.72-.41-.58-35.1-.91-42.16s-1.27-34.1-1.7-35.73-2.41-20.66-2.29-24.13S196.28,103.24,196.28,103.24Z"/><g id="Group_2513" data-name="Group 2513"><path id="Path_6153" data-name="Path 6153" class="cls-18" d="M199.76,91.86a4.92,4.92,0,0,1,3.3-.09"/><path id="Path_6154" data-name="Path 6154" class="cls-18" d="M199.51,93.07s2.49.05,3,.9"/><path id="Path_6155" data-name="Path 6155" class="cls-18" d="M203.57,103.68A23.27,23.27,0,0,0,205,96.39"/><line id="Line_1" data-name="Line 1" class="cls-18" x1="205.66" y1="87.2" x2="202.65" y2="80.45"/></g><path id="Path_6156" data-name="Path 6156" class="cls-2" d="M196.28,103.24a21.38,21.38,0,0,1,2.18,5.55c-4.4,2.24-9.52,2.62-14.2,2.24-.28-3.35-.47-6.19-.43-7.33C184,100.22,196.28,103.24,196.28,103.24Z"/><path id="Path_6157" data-name="Path 6157" class="cls-17" d="M190.58,105.14s-3.36,18.1-6.41,38.88-2.69,22.13-3.57,28.3-5.3,33.72-5.43,34.28-4.39,1.14-5.54.08c0,0-.37-.25-.39-1.74s1.87-35.22,2.12-36.83-4.78-40,4-63.36C175.34,104.74,187.66,101,190.58,105.14Z"/><path id="Path_6158" data-name="Path 6158" class="cls-2" d="M190.58,105.14s-.41,2.2-1.07,6A45.63,45.63,0,0,1,173.94,109c.42-1.46.89-2.89,1.4-4.26C175.34,104.74,187.66,101,190.58,105.14Z"/><path id="Path_6159" data-name="Path 6159" class="cls-13" d="M199,93.18s2,0,2.56.76a.65.65,0,0,1,0,.73l-.13.1s.5.85.6,1.11a4.89,4.89,0,0,1,.26,1.37c0,.27-.31,0-.31,0l.12.64s0,.24-.2.31-.5-.22-.61-.38a7.85,7.85,0,0,1-.38-.77s-.26.16-.45,0a5.19,5.19,0,0,0-1.17-.78,2.72,2.72,0,0,0-1.29.21s-.34-.24-.19-1.28A4.47,4.47,0,0,1,199,93.18Z"/><path id="Path_6160" data-name="Path 6160" class="cls-14" d="M199,93.18a9.78,9.78,0,0,1,1.2.13,2.94,2.94,0,0,0-.48.84c-.07.31-.21,1.5-.3,2.24a.49.49,0,0,0-.17-.06,2.73,2.73,0,0,0-.94.08,2.07,2.07,0,0,1-.58-.67,3.88,3.88,0,0,1,0-.48A4.52,4.52,0,0,1,199,93.18Z"/><path id="Path_6161" data-name="Path 6161" class="cls-4" d="M183.21,65.18s-8.33,2.64-9.56,3.39c.79.93,2,9.51.38,14.47,0,0,1.16,9,1.14,10.25s-1.59,9.09-1.55,10.06a16.24,16.24,0,0,0,.81,3.06,36.9,36.9,0,0,0,12.92,3.31c7.52.55,11-1.59,11.92-3.2s-.83-11.23-.37-13.3,2-8.86,1.89-10.32S199,70.21,198.61,69.65s-7.52-3.84-7.52-3.84Z"/><path id="Path_6162" data-name="Path 6162" class="cls-4" d="M171.2,59.07l-5-.69s-.24-.1-.26-.07c-3.5,3.77-1.16,9.47-2.58,14.43-1.72,6-3.69,10.66-.38,15.56a3.25,3.25,0,0,0,4.16,1.06c4.4-2.89,2.76-7.94,3.41-15,.42-4.67,3.65-9.76.72-15.12C171.23,59.17,171.23,59.07,171.2,59.07Z"/><path id="Path_6163" data-name="Path 6163" class="cls-19" d="M187.87,214.65s12.11.15,12.57,0,.67-.43.67-1.06v-1.35c0-.48-.15-1-1.52-1.43a15.76,15.76,0,0,0-2-.77c-1-.25-1.81-3.25-2.05-3.43a4.19,4.19,0,0,0-1.72-.18c-.74,0-1.94,0-2.3,1s-1.9,1.08-2.49.79c0,0-.56,0-.7.39s-.4,3.4-.43,3.72a.58.58,0,0,0,.08.46,2.2,2.2,0,0,0-.3.31,2.58,2.58,0,0,0-.07.68C187.64,214.06,187.61,214.63,187.87,214.65Z"/><path id="Path_6164" data-name="Path 6164" class="cls-20" d="M200.61,211.3a3.84,3.84,0,0,0-1-.49,12.66,12.66,0,0,1-2.37-1.36l-3.76-.13-.07.72s-.62.13-.38.59.78,1.09,2.48,1.09h4.57C200.56,211.72,200.59,211.57,200.61,211.3Z"/><path id="Path_6165" data-name="Path 6165" class="cls-20" d="M187.87,214.65l2.82,0c1.41-.42,2.65-.88,2.65-.88s-2.36-3.66-2.22-4a18,18,0,0,1,1.81-2l-.59-1.16a1.35,1.35,0,0,0-.79.78c-.37.94-1.9,1.07-2.49.78,0,0-.56,0-.7.39s-.4,3.4-.44,3.72a.62.62,0,0,0,.09.46.85.85,0,0,0-.37,1C187.64,214.06,187.61,214.63,187.87,214.65Z"/><path id="Path_6166" data-name="Path 6166" class="cls-21" d="M198,210.36c-.07,0-.13-.45-.13-.45s-2.08-3.12-2.32-3.3a4.19,4.19,0,0,0-1.72-.18,3.1,3.1,0,0,0-1.9.44h0c-1.11.93.62,2.18,1.34,3.1C193.62,210.4,196.49,210.43,198,210.36Z"/><path id="Path_6167" data-name="Path 6167" class="cls-4" d="M200.44,212.77c-.41.13-11.65,0-12.43,0s-.25.22-.3.32a2.21,2.21,0,0,0-.06.68c0,.29,0,.85.22.87,0,0,12.11.15,12.58,0s.66-.42.66-1.06v-1.35c0-.27,0-.15,0-.23A.81.81,0,0,1,200.44,212.77Z"/><path id="Path_6168" data-name="Path 6168" class="cls-19" d="M175.94,214.65s-12.11.15-12.57,0-.67-.43-.67-1.06v-1.35c0-.48.15-1,1.52-1.43a15.76,15.76,0,0,1,2-.77c1-.25,1.81-3.25,2.05-3.43a4.19,4.19,0,0,1,1.72-.18c.74,0,1.94,0,2.3,1s1.9,1.08,2.48.79c0,0,.57,0,.7.39s.4,3.4.44,3.72a.67.67,0,0,1-.08.46,2.2,2.2,0,0,1,.3.31,2.57,2.57,0,0,1,.06.68C176.17,214.06,176.2,214.63,175.94,214.65Z"/><path id="Path_6169" data-name="Path 6169" class="cls-20" d="M163.19,211.3a4.05,4.05,0,0,1,1-.49,12.66,12.66,0,0,0,2.37-1.36l3.76-.13.06.72s.62.13.39.59-.79,1.09-2.48,1.09h-4.57C163.24,211.72,163.22,211.57,163.19,211.3Z"/><path id="Path_6170" data-name="Path 6170" class="cls-20" d="M175.94,214.65l-2.82,0c-1.42-.42-2.66-.88-2.66-.88s2.36-3.66,2.23-4a18,18,0,0,0-1.81-2l.59-1.16a1.35,1.35,0,0,1,.79.78c.36.94,1.9,1.07,2.49.78,0,0,.56,0,.7.39s.4,3.4.43,3.72a.58.58,0,0,1-.08.46.85.85,0,0,1,.37,1C176.17,214.06,176.2,214.63,175.94,214.65Z"/><path id="Path_6171" data-name="Path 6171" class="cls-21" d="M165.79,210.36c.07,0,.13-.45.13-.45s2.07-3.12,2.32-3.3a4.17,4.17,0,0,1,1.72-.18,3.12,3.12,0,0,1,1.9.44h0c1.1.93-.62,2.18-1.34,3.1C170.19,210.4,167.32,210.43,165.79,210.36Z"/><path id="Path_6172" data-name="Path 6172" class="cls-4" d="M163.36,212.77c.42.13,11.65,0,12.43,0s.26.22.3.32a2.22,2.22,0,0,1,.07.68c0,.29,0,.85-.23.87,0,0-12.11.15-12.57,0s-.67-.42-.67-1.06v-1.35c0-.27,0-.15,0-.23A.8.8,0,0,0,163.36,212.77Z"/><g id="Group_2514" data-name="Group 2514"><path id="Path_6173" data-name="Path 6173" class="cls-18" d="M171,71.67a27.46,27.46,0,0,0-.66,7.56"/><path id="Path_6174" data-name="Path 6174" class="cls-18" d="M170.39,75.43s.82,1.44,1.22,1.94"/><path id="Path_6175" data-name="Path 6175" class="cls-18" d="M163.76,70.46s.06,6.1.12,9.2"/><path id="Path_6176" data-name="Path 6176" class="cls-18" d="M169.09,87.39a70.53,70.53,0,0,1,3.27-6.27"/><path id="Path_6177" data-name="Path 6177" class="cls-18" d="M169.81,60a10.3,10.3,0,0,1-.3,7.77"/><path id="Path_6178" data-name="Path 6178" class="cls-18" d="M167.56,58.89a13.55,13.55,0,0,0-1.27,4.57"/></g><g id="Group_2515" data-name="Group 2515"><path id="Path_6179" data-name="Path 6179" class="cls-22" d="M177.29,107.59s-1,4.67-4.29,4.84"/><path id="Path_6180" data-name="Path 6180" class="cls-22" d="M197.05,108.38s.86,3.32,2.2,3.85"/><path id="Path_6181" data-name="Path 6181" class="cls-22" d="M186.33,129.94s1.75-14,2.2-20.16"/><path id="Path_6182" data-name="Path 6182" class="cls-22" d="M190.52,109.79s-1,10.23-1.27,10.93a10.1,10.1,0,0,1-2.08,2.26"/></g><path id="Path_6183" data-name="Path 6183" class="cls-13" d="M172.73,57.41a6.29,6.29,0,0,1,3-1.63c.52-.16-.41-2.21-2-.81,0,0-1.3.49-1.5.08s2-6.14,2.26-6.75a.69.69,0,0,0-.3-.92.72.72,0,0,0-.25-.07c-.25.06-.63.94-1.18,2a15.24,15.24,0,0,1-1.32,2.37c-.14,0-.36-.1-.26-.82a39.87,39.87,0,0,0,.58-5c-.16-.32-.79-.34-1.05.23s-.78,4.58-1,5.07-.61.2-.66-.17,0-4.8-.17-5.12-.79-.3-.92.36-.31,4.9-.47,5.16-.58.25-.87-.51a20.65,20.65,0,0,0-.92-2.57c-.19-.14-.82.36-.65,1.2s.51,3,.52,3.28c.09,1.7-.27,3.26,0,4.57a3.28,3.28,0,0,0,.57,1.33C168.09,61.54,171,59.49,172.73,57.41Z"/><path id="Path_6184" data-name="Path 6184" class="cls-23" d="M251.85,205.78a1.57,1.57,0,0,1,1.59.7c.47.89-.8,1.5-.8,1.5a1.06,1.06,0,0,1,.28,1.08.6.6,0,0,1-.8.29l0,0s1.12,2.09-2.05,2.11c0,0,.14,1.28-1.6,1,0,0-.38,2.8-3.61,1.78a1.82,1.82,0,0,1-2.21,1.19c-1.72-.38-2.56-3.14-2.56-3.14Z"/><path id="Path_6185" data-name="Path 6185" class="cls-5" d="M251.52,197.08a1.71,1.71,0,0,1,1.25.21c.57.38.16,1.29-.1,1.61a1.42,1.42,0,0,1,.47.9.62.62,0,0,1-.49.6s1.44,2.88-1.21,4.28-4.13-3.32-4.13-3.32Z"/><path id="Path_6186" data-name="Path 6186" class="cls-4" d="M230.25,104.05a21.32,21.32,0,0,1,2,1.94c11.73,14.17,7.44,32.69,19.21,91a9.59,9.59,0,0,1-1.05,6s-20.19-46.33-25.57-74.4C223.09,119.46,230.25,104.68,230.25,104.05Z"/><path id="Path_6187" data-name="Path 6187" class="cls-5" d="M229.34,102.36c7.68,7.9,9.89,70.13,22.51,103.42,0,0,.87,1.4-.93,3A27.21,27.21,0,0,1,240.33,214C236.2,214.8,229.34,102.36,229.34,102.36Z"/><path id="Path_6188" data-name="Path 6188" class="cls-2" d="M231.53,55.69a24.47,24.47,0,0,0-.15,7.3c.57,3.33,4.16,11.67-4.74,13.28s-15.79-.57-16.3-6.56.94-7.42.94-11.89Z"/><path id="Path_6189" data-name="Path 6189" class="cls-23" d="M190,205.78a1.57,1.57,0,0,0-1.59.7c-.47.89.8,1.5.8,1.5a1.06,1.06,0,0,0-.28,1.08.6.6,0,0,0,.8.29l0,0s-1.13,2.09,2,2.11c0,0-.14,1.28,1.6,1,0,0,.38,2.8,3.61,1.78a1.83,1.83,0,0,0,2.21,1.19c1.72-.38,2.56-3.14,2.56-3.14Z"/><path id="Path_6190" data-name="Path 6190" class="cls-5" d="M190.36,197.08a1.72,1.72,0,0,0-1.25.21c-.57.38-.16,1.29.1,1.61a1.44,1.44,0,0,0-.47.9.63.63,0,0,0,.5.6s-1.44,2.88,1.21,4.28,4.13-3.32,4.13-3.32Z"/><path id="Path_6191" data-name="Path 6191" class="cls-4" d="M211.63,104.05a21.32,21.32,0,0,0-2,1.94c-11.72,14.17-7.44,32.69-19.21,91a9.59,9.59,0,0,0,1.05,6s20.19-46.33,25.56-74.4C218.8,119.46,211.64,104.68,211.63,104.05Z"/><path id="Path_6192" data-name="Path 6192" class="cls-5" d="M212.56,102.36c-7.69,7.9-9.9,70.13-22.52,103.42,0,0-.87,1.4.93,3A27.21,27.21,0,0,0,201.56,214C205.69,214.8,212.56,102.36,212.56,102.36Z"/><path id="Path_6193" data-name="Path 6193" class="cls-5" d="M242.12,216.73l1.32-.2a3.81,3.81,0,0,1,1.94,1c.53.71.32,3-2.68,2.35A1.43,1.43,0,0,1,241,221a1.49,1.49,0,0,1-.45-.19s-1,3.5-5.32,1.31a2.62,2.62,0,0,1-3.09.47,3.7,3.7,0,0,1-3.52.9,1.3,1.3,0,0,1-1.1.75c-.73,0-.73-.32-.73-.32s-1.31,1.14-3.23-.32a4.32,4.32,0,0,1-5.24,0c-1.91,1.46-3.22.32-3.22.32s0,.3-.73.32a1.3,1.3,0,0,1-1.1-.75,3.7,3.7,0,0,1-3.52-.9,2.62,2.62,0,0,1-3.09-.47c-4.3,2.19-5.32-1.31-5.32-1.31a1.43,1.43,0,0,1-2-.45,1.25,1.25,0,0,1-.18-.45c-3,.7-3.2-1.64-2.68-2.35a3.85,3.85,0,0,1,1.94-1l1.32.2L221,220.46Z"/><path id="Path_6194" data-name="Path 6194" class="cls-4" d="M232.86,83.93a14.71,14.71,0,0,1,.43,1.47c.76,3.2-1.51,7.86-2.1,9.19a36.09,36.09,0,0,0-1.26,4.55H212a36.09,36.09,0,0,0-1.26-4.55c-.58-1.33-2.85-6-2.1-9.19.1-.43.24-.9.4-1.38h0a18.13,18.13,0,0,0-.75-7.71,2.81,2.81,0,0,1,1.08-.6l4.74-1.7.09,0c5.88,11.41,7.65,11.43,13.47.18l5.1,1.34a4.8,4.8,0,0,1,1,.43A18.05,18.05,0,0,0,232.86,83.93Z"/><path id="Path_6195" data-name="Path 6195" class="cls-4" d="M229.93,99.14c-.47,2.1-.8,4.18-.52,4.54,4,4.93,5.45,73.41,14.06,112.6a1.62,1.62,0,0,1-.55,1.14c-.55.43-8.19,3.87-22,3.9s-21.42-3.47-22-3.9a1.54,1.54,0,0,1-.55-1.14c8.61-39.19,10.1-107.68,14.05-112.6.29-.36-.05-2.44-.52-4.54Z"/><path id="Path_6196" data-name="Path 6196" class="cls-9" d="M220.94,94.42h-.78c-.7,0-5.91,2.11-9.3.62a.88.88,0,0,0-.12.32c0,.13.92,5.24.89,5.65s-2.3,4.46-2.33,4.7a11.93,11.93,0,0,0,6.6,4,1.61,1.61,0,0,0,1.62-.81c.67-1,2-3.17,2.33-3.7a1.2,1.2,0,0,1,2.19,0c.32.53,1.65,2.68,2.32,3.7a1.61,1.61,0,0,0,1.62.81,11.93,11.93,0,0,0,6.6-4c0-.24-2.3-4.29-2.33-4.7s.89-5.52.89-5.65A.88.88,0,0,0,231,95c-3.38,1.49-8.6-.62-9.3-.62Z"/><path id="Path_6197" data-name="Path 6197" class="cls-13" d="M218.13,72.48l-.71.4a1.21,1.21,0,0,1-1,.7c-.8.18-2.31.4-2.31.4v3.37a6.81,6.81,0,0,0,6.79,6.79h0a6.8,6.8,0,0,0,6.79-6.79V74.2l-2.57-.68h0a1.16,1.16,0,0,1-.72-.63l-.71-.4-2.81.39Z"/><path id="Path_6198" data-name="Path 6198" class="cls-14" d="M225.42,73.59a1.25,1.25,0,0,1-1-.7l-.71-.4-2,.28Z"/><path id="Path_6199" data-name="Path 6199" class="cls-13" d="M221.05,65.3H221a3.65,3.65,0,0,0-3.7,3.61l-.05,5.8a3.68,3.68,0,0,0,3.61,3.7h.07a3.67,3.67,0,0,0,3.7-3.62l0-5.79A3.67,3.67,0,0,0,221.05,65.3Z"/><path id="Path_6200" data-name="Path 6200" class="cls-14" d="M217.67,67.3a3.62,3.62,0,0,0-.4,1.61l0,2.85,7.37,1.65,0-4.41a3.94,3.94,0,0,0-.07-.77c-1.73-.73-4.18-1.75-4.31-1.73S218.74,66.93,217.67,67.3Z"/><g id="Group_2516" data-name="Group 2516"><path id="Path_6201" data-name="Path 6201" class="cls-14" d="M212.74,61a1.9,1.9,0,1,0,1.9,1.9h0A1.9,1.9,0,0,0,212.74,61Z"/><path id="Path_6202" data-name="Path 6202" class="cls-14" d="M229.2,61a1.9,1.9,0,1,0,1.9,1.9h0A1.9,1.9,0,0,0,229.2,61Z"/></g><path id="Path_6203" data-name="Path 6203" class="cls-13" d="M220.82,49.06h0A8.09,8.09,0,0,0,212.63,57l.09,7.14c0,1.82,3.73,7.4,7.59,7.67,4.4.31,9-5.38,9-7.87l-.09-7.13A8.12,8.12,0,0,0,220.82,49.06Z"/><path id="Path_6204" data-name="Path 6204" class="cls-2" d="M229,54a2.08,2.08,0,0,0-.59-.87h0a10.46,10.46,0,0,0-5-2.46c-1.1,0-3.77,5.1-1.83,3.36s4.57.6,4.57.6-.73,4.17,2.09,4.7c0,0-.14,3.22,1.09,3.32,0,0,.49-1.69,1.23-1l-1.77-7A4.57,4.57,0,0,1,229,54Z"/><path id="Path_6205" data-name="Path 6205" class="cls-14" d="M225.43,63.33a1.16,1.16,0,1,0,1.2,1.13,1.17,1.17,0,0,0-1.2-1.13Z"/><path id="Path_6206" data-name="Path 6206" class="cls-14" d="M216.13,63.6a1.16,1.16,0,0,0,.07,2.32,1.17,1.17,0,0,0,1.13-1.19h0A1.16,1.16,0,0,0,216.13,63.6Z"/><path id="Path_6207" data-name="Path 6207" class="cls-2" d="M225.77,58.72a2.37,2.37,0,0,0-2.17,0,.25.25,0,1,1-.23-.44h0a2.89,2.89,0,0,1,2.64,0,.25.25,0,0,1,.11.33.25.25,0,0,1-.34.11Z"/><path id="Path_6208" data-name="Path 6208" class="cls-2" d="M226.11,54.57c-1-5.69-3.21-2.33-4.36.54-.94,2.34-3.36,5.46-9.07,5.46a3,3,0,0,1-1.4-2.75V52.09c0-1.51,2.24-7.06,6.51-8.1a10.61,10.61,0,0,1,8.65,1.87,13.86,13.86,0,0,1,1.87,3.39c4.75.46,3.6,4.48,2.79,8.65a31.92,31.92,0,0,1-1.82,4C229.06,59.72,228.86,51.89,226.11,54.57Z"/><path id="Path_6209" data-name="Path 6209" class="cls-17" d="M211.28,53.65v-1c2.59,0,10-.73,10.59-8.8a10.73,10.73,0,0,1,4.52,1.94c-1.39,2.38-4,6-7.9,7.37A11.63,11.63,0,0,1,211.28,53.65Z"/><path id="Path_6210" data-name="Path 6210" class="cls-23" d="M223,103.87a.32.32,0,0,1,.11.44.31.31,0,0,1-.43.12h0l-1.73-1-1.72,1a.32.32,0,1,1-.32-.56l1.4-.81-1.4-.81a.31.31,0,0,1-.12-.43.32.32,0,0,1,.44-.12l1.72,1,1.72-1a.32.32,0,0,1,.32.56l-1.4.8Z"/><path id="Path_6211" data-name="Path 6211" class="cls-4" d="M223,101.69a.32.32,0,0,1,.11.44.31.31,0,0,1-.43.11l-1.73-1-1.72,1a.31.31,0,0,1-.44-.1.32.32,0,0,1,.1-.44h0l1.4-.81-1.4-.81a.32.32,0,0,1,.29-.57h0l1.72,1,1.73-1a.32.32,0,0,1,.32.56l-1.4.81Z"/><path id="Path_6212" data-name="Path 6212" class="cls-23" d="M223,99.5a.32.32,0,0,1,.11.44.31.31,0,0,1-.43.12l-1.73-1-1.72,1a.32.32,0,1,1-.32-.56h0l1.4-.81-1.4-.81a.31.31,0,0,1-.12-.43.32.32,0,0,1,.44-.12l1.72,1,1.73-1a.32.32,0,0,1,.44.12.32.32,0,0,1-.12.43l-1.4.81Z"/><path id="Path_6213" data-name="Path 6213" class="cls-4" d="M223,97.32a.33.33,0,0,1,.14.43.32.32,0,0,1-.43.14l0,0-1.73-1-1.72,1a.32.32,0,1,1-.32-.55l1.4-.81-1.4-.81a.33.33,0,0,1-.12-.44.34.34,0,0,1,.44-.12l1.72,1,1.73-1a.33.33,0,0,1,.44.12.34.34,0,0,1-.12.44l-1.4.81Z"/><path id="Path_6214" data-name="Path 6214" class="cls-2" d="M224.71,60h0a.79.79,0,0,1,.51.18.36.36,0,0,0,.22-.16.12.12,0,0,1,.17,0,.13.13,0,0,1,.06.16.53.53,0,0,1-.27.24h0a.59.59,0,0,0,.33-.2.13.13,0,0,1,.19,0,.13.13,0,0,1,0,.17.81.81,0,0,1-.37.26h0a.85.85,0,0,0,.38-.12.13.13,0,0,1,.18.05.12.12,0,0,1,0,.16,1.16,1.16,0,0,1-.4.16l-.18,0v1a.8.8,0,0,1-.81.8h0a.8.8,0,0,1-.8-.8V60.78A.8.8,0,0,1,224.71,60Z"/><path id="Path_6215" data-name="Path 6215" class="cls-2" d="M216.93,60h0a.82.82,0,0,0-.52.18.31.31,0,0,1-.21-.16.14.14,0,0,0-.18-.06.13.13,0,0,0-.05.18.51.51,0,0,0,.26.24h0a.59.59,0,0,1-.33-.2.13.13,0,0,0-.19,0,.13.13,0,0,0,0,.18.81.81,0,0,0,.37.26h0a.85.85,0,0,1-.38-.12.13.13,0,0,0-.18,0h0a.12.12,0,0,0,0,.17h0a1.16,1.16,0,0,0,.4.16l.18,0v1a.8.8,0,0,0,.81.8h0a.8.8,0,0,0,.8-.8V60.78A.8.8,0,0,0,216.93,60Z"/><path id="Path_6216" data-name="Path 6216" class="cls-24" d="M219.83,62.93a5.47,5.47,0,0,0-.6,1.15c0,.27.62.8,1,.3S220.25,62.57,219.83,62.93Z"/><path id="Path_6217" data-name="Path 6217" class="cls-14" d="M222.94,66.23a.16.16,0,0,0-.13-.29,5.7,5.7,0,0,1-4.58,0A.17.17,0,0,0,218,66a.16.16,0,0,0,.08.21h0A6.08,6.08,0,0,0,222.94,66.23Z"/><path id="Path_6218" data-name="Path 6218" class="cls-13" d="M187.36,55h-.08a3.81,3.81,0,0,0-4,3.53l0,5.65a3.8,3.8,0,0,0,3.93,3.61h.07a3.81,3.81,0,0,0,4-3.53l.05-5.65A3.79,3.79,0,0,0,187.36,55Z"/><path id="Path_6219" data-name="Path 6219" class="cls-14" d="M183.26,60.43l0,2.3,7.66,4.08a4.09,4.09,0,0,0,.33-1.54l0-4.87Z"/><path id="Path_6220" data-name="Path 6220" class="cls-14" d="M196.93,51.5h.2a2.69,2.69,0,1,1-2.82,2.55,2.66,2.66,0,0,1,.69-1.67c.06.8.33,1.75,1.35,1.69l-.27-1.53a.92.92,0,0,1,.8-1Z"/><path id="Path_6221" data-name="Path 6221" class="cls-14" d="M178.42,50l-.2,0h0a2.68,2.68,0,1,0,2.24.58c0,.8-.09,1.78-1.1,1.86l0-1.55a.92.92,0,0,0-.93-.92Z"/><path id="Path_6222" data-name="Path 6222" class="cls-13" d="M188.85,37.07a9.26,9.26,0,0,0-9.38,9.06l-.11,6.75,0,1.63a9.25,9.25,0,0,0,.19,2,11,11,0,0,0,9.53,7.29c3.69.13,6.6-2.33,8.45-7a9.17,9.17,0,0,0,.26-2l0-1.62.12-6.76A9.24,9.24,0,0,0,188.85,37.07Z"/><path id="Path_6223" data-name="Path 6223" class="cls-14" d="M194.12,54.36a1.22,1.22,0,1,0,1.21,1.22h0A1.22,1.22,0,0,0,194.12,54.36Z"/><path id="Path_6224" data-name="Path 6224" class="cls-14" d="M184.36,54.2a1.22,1.22,0,1,0,1.21,1.22h0A1.22,1.22,0,0,0,184.36,54.2Z"/><path id="Path_6225" data-name="Path 6225" class="cls-2" d="M184.58,49.51a.34.34,0,0,1-.46-.14.35.35,0,0,1,.15-.46h0a3.08,3.08,0,0,1,2.89,0,.34.34,0,0,1-.34.59A2.37,2.37,0,0,0,184.58,49.51Z"/><path id="Path_6226" data-name="Path 6226" class="cls-2" d="M195.78,49.28a2.4,2.4,0,0,0-2.24,0,.34.34,0,1,1-.36-.57h0a3.08,3.08,0,0,1,2.89-.07.34.34,0,0,1,.15.45.35.35,0,0,1-.44.16Z"/><path id="Path_6227" data-name="Path 6227" class="cls-25" d="M190.83,53.75a5.29,5.29,0,0,1,.81,1.63c0,.5-.9.29-1.06,0S190.29,53.55,190.83,53.75Z"/><path id="Path_6228" data-name="Path 6228" class="cls-14" d="M187.41,58.54a.25.25,0,0,1-.11-.33.27.27,0,0,1,.3-.12s2.84,1.23,4.57-.06a.24.24,0,0,1,.34,0,.24.24,0,0,1,0,.33h0C190.5,59.87,187.42,58.54,187.41,58.54Z"/><path id="Path_6229" data-name="Path 6229" class="cls-2" d="M194.05,50.86h0a.89.89,0,0,0-.89.82l0,.85a.82.82,0,0,0,.76.88h0a.89.89,0,0,0,.89-.82l.05-.85a.82.82,0,0,0-.76-.88Z"/><path id="Path_6230" data-name="Path 6230" class="cls-2" d="M196.91,45.49a8.83,8.83,0,0,1,.52,1.73c.07.66.36,6.11.36,6.11s1.58-4.75,1.82-6-1.21-3.62-2.29-4.24S196.91,45.49,196.91,45.49Z"/><path id="Path_6231" data-name="Path 6231" class="cls-2" d="M179.35,53.26s1.56-.24,1.45-3.33a13.94,13.94,0,0,0,2.12-2.6,6.65,6.65,0,0,0-.28-2.84s7.33,2.53,14.27,1a8.55,8.55,0,0,0,1.32-4.72c-.28-2.22-3.47-5.62-5.28-6.18s-1.6.77-1.6.77a22.76,22.76,0,0,0-7.43.9c-4.1,1.18-4.85,2.91-4.58,4.93,0,0-1.94,1.24-2.08,2.29a53.22,53.22,0,0,0,.83,6.53A3.87,3.87,0,0,1,179.35,53.26Z"/><path id="Path_6232" data-name="Path 6232" class="cls-20" d="M183.22,64.35s3.87,2.89,4.67,3.35L186.5,70a.73.73,0,0,1-1,.24.48.48,0,0,1-.11-.09,49.62,49.62,0,0,1-3-4.73Z"/><path id="Path_6233" data-name="Path 6233" class="cls-20" d="M191.23,65.27l-3.34,2.43,1.33,2.3s.44.45.83.28,2.28-3.91,2.28-3.91Z"/><path id="Path_6234" data-name="Path 6234" class="cls-2" d="M181.8,108.9a33.34,33.34,0,0,0,.92-4.76c.25-1.86.4-3.73.52-5.6.27-4.26.31-8.52.31-12.79a29.93,29.93,0,0,0-.42-4.44c-.29-1.84-.64-3.68-1-5.5-.67-3.19-1.44-6.37-2.25-9.53a.26.26,0,0,0-.13-.16.23.23,0,0,0-.2,0l-1.78.6a.24.24,0,0,0-.16.3c.77,3,1.5,6,2.15,9.07.38,1.79.74,3.59,1,5.4a27.7,27.7,0,0,1,.42,4.27c0,4.21,0,8.43-.3,12.64-.11,1.82-.26,3.64-.5,5.44a30.54,30.54,0,0,1-.86,4.46.27.27,0,0,0,0,.2.3.3,0,0,0,.15.12c.6.17,1.21.32,1.82.46A.25.25,0,0,0,181.8,108.9Z"/><path id="Path_6235" data-name="Path 6235" class="cls-2" d="M194.44,67.53c.49,3.18.9,6.4,1.16,9.6.13,1.56.22,3.12.24,4.68a24.22,24.22,0,0,1-.2,3.9c-.24,1.64-.35,3.35-.43,5-.1,2.07-.13,4.14-.15,6.21,0,2.32,0,4.65.08,7,.05,1.7.1,3.41.24,5.1a.24.24,0,0,0,.27.23h.06a10.62,10.62,0,0,0,1.86-.82.25.25,0,0,0,.12-.23c-.1-1.62-.15-3.25-.19-4.86-.05-2.12-.07-4.25-.06-6.37s.05-4,.14-6.05c.08-1.6.18-3.24.41-4.82a26.52,26.52,0,0,0,.23-4.08c0-1.6-.1-3.2-.23-4.79-.23-2.91-.58-5.82-1-8.71a.23.23,0,0,0-.13-.18c-.68-.36-1.37-.69-2.06-1a.24.24,0,0,0-.33.12.2.2,0,0,0,0,.15Z"/><path id="Path_6236" data-name="Path 6236" class="cls-18" d="M199.18,72.26a19.75,19.75,0,0,0-.57-2.62m-25-1.08c.79.93,2,9.52.38,14.47m25.23,23.49c1-1.61-.82-11.24-.37-13.3s2-8.87,1.9-10.32c0-.58-.32-2.65-.68-5"/><path id="Path_6237" data-name="Path 6237" class="cls-2" d="M185.24,50.86h0a.9.9,0,0,0-.89.82l0,.85a.83.83,0,0,0,.76.88h.06a.88.88,0,0,0,.88-.81l.06-.85a.84.84,0,0,0-.77-.89Z"/><path id="Path_6238" data-name="Path 6238" class="cls-17" d="M183.2,36.48c2.77,1.59,7.38,3.09,11.62-.73a12.2,12.2,0,0,1,3,3.71c-2.71,1-6.9,2.09-10.78.86a12.85,12.85,0,0,1-5.37-3.19A10.93,10.93,0,0,1,183.2,36.48Z"/><path id="Path_6239" data-name="Path 6239" class="cls-13" d="M237.47,80c1.63,5,5.79,19.66,5.79,19.66s1.15,4.28-.91,6.86-17.18,19.21-17.18,19.21l-1.08-3.06.26-1.88,12.78-18.49-5-12.44c-1.88-5.2-2.55-11.84.92-14.19A8.42,8.42,0,0,1,237.47,80Z"/><path id="Path_6240" data-name="Path 6240" class="cls-14" d="M232,118.11c-1.67,1.86-3.26,3.61-4.48,5l-3.41-.76.22-1.55,2.05-3,.35.38,1.65-1.06Z"/><path id="Path_6241" data-name="Path 6241" class="cls-18" d="M223,94.72s-2.54-.77-5.27-1.35"/><path id="Path_6242" data-name="Path 6242" class="cls-18" d="M209,84s1.08-3,1.29-3.83"/><path id="Path_6243" data-name="Path 6243" class="cls-26" d="M221.91,82.33A9.49,9.49,0,0,0,220.1,87"/><path id="Path_6244" data-name="Path 6244" class="cls-27" d="M211.63,101a14.11,14.11,0,0,1,0,2.6"/><path id="Path_6245" data-name="Path 6245" class="cls-27" d="M230.26,101s-.43,3.14-.5,3.85"/><path id="Path_6246" data-name="Path 6246" class="cls-26" d="M237.13,102.26a2,2,0,0,1,1.54-.06"/><path id="Path_6247" data-name="Path 6247" class="cls-7" d="M227.91,116.76a7.63,7.63,0,0,0-1.06.32,8.74,8.74,0,0,0-2.14,1.12,5.19,5.19,0,0,0-1.93,6,.41.41,0,0,0,.43.3,5.16,5.16,0,0,0,5-3.93,9.39,9.39,0,0,0,.23-3.5.41.41,0,0,0-.47-.34Z"/><path id="Path_6248" data-name="Path 6248" class="cls-3" d="M220,131a3.48,3.48,0,1,0,6.93-.6,3.41,3.41,0,0,0-.15-.76,4.52,4.52,0,1,0-.64-9,4.64,4.64,0,0,0-.83.14,3.48,3.48,0,1,0-6.51.38,5,5,0,0,0,.09,10A4.56,4.56,0,0,0,220,131Z"/><path id="Path_6249" data-name="Path 6249" class="cls-8" d="M220.63,123.32c0-.29-.11-.58-.19-.87a7.31,7.31,0,0,0-.78-1.79,4.19,4.19,0,0,0-4.74-1.92.33.33,0,0,0-.26.32,4.18,4.18,0,0,0,2.86,4.24,7,7,0,0,0,1.91.39,6.63,6.63,0,0,0,.89,0,.3.3,0,0,0,.23-.13A.33.33,0,0,0,220.63,123.32Z"/><path id="Path_6250" data-name="Path 6250" class="cls-8" d="M231,132.7a5,5,0,0,0-.19-.87,6.78,6.78,0,0,0-.77-1.79,4.19,4.19,0,0,0-4.74-1.93.33.33,0,0,0-.27.33,4.19,4.19,0,0,0,2.87,4.24,6.89,6.89,0,0,0,1.91.38,4.41,4.41,0,0,0,.89,0,.32.32,0,0,0,.3-.36Z"/><path id="Path_6251" data-name="Path 6251" class="cls-7" d="M221.19,128.34a5.92,5.92,0,0,0-.75.22,6.69,6.69,0,0,0-1.52.8,3.67,3.67,0,0,0-1.36,4.27.28.28,0,0,0,.3.21,3.65,3.65,0,0,0,3.51-2.78,6.14,6.14,0,0,0,.21-1.7,5.11,5.11,0,0,0-.05-.78.28.28,0,0,0-.12-.19A.26.26,0,0,0,221.19,128.34Z"/><g id="Group_2517" data-name="Group 2517"><path id="Path_6252" data-name="Path 6252" class="cls-9" d="M221.42,118.69s.18-1,.79-1.31,2,2.46.82,3.35-3-.8-3.28-1.21S220.69,118.49,221.42,118.69Z"/><path id="Path_6253" data-name="Path 6253" class="cls-10" d="M222.56,118.33s.79-.71,1.43-.54,0,3.16-1.46,3.13-1.86-2.52-1.8-3S222.11,117.71,222.56,118.33Z"/><path id="Path_6254" data-name="Path 6254" class="cls-11" d="M221.86,118.52s.42-1,1.07-1.09,1.34,2.86,0,3.45-2.75-1.5-2.89-1.95S221.2,118.15,221.86,118.52Z"/></g><g id="Group_2518" data-name="Group 2518"><path id="Path_6255" data-name="Path 6255" class="cls-5" d="M227.8,123.85s-.21-1.31-1-1.64-2.47,3.06-1,4.18,3.78-1,4.08-1.51S228.72,123.6,227.8,123.85Z"/><path id="Path_6256" data-name="Path 6256" class="cls-28" d="M226.39,123.39s-1-.88-1.79-.67,0,3.94,1.82,3.9,2.31-3.14,2.24-3.73S226.94,122.63,226.39,123.39Z"/><path id="Path_6257" data-name="Path 6257" class="cls-4" d="M227.26,123.63s-.52-1.22-1.34-1.36-1.67,3.57,0,4.31,3.43-1.88,3.61-2.44S228.08,123.17,227.26,123.63Z"/></g><g id="Group_2519" data-name="Group 2519"><path id="Path_6258" data-name="Path 6258" class="cls-29" d="M217.45,123.8s.16-1.79,1.15-2.31,3.64,3.89,1.8,5.53-5.19-1-5.65-1.63S216.2,123.55,217.45,123.8Z"/><path id="Path_6259" data-name="Path 6259" class="cls-5" d="M219.32,123s1.24-1.29,2.34-1.08.4,5.31-2.06,5.44-3.44-4-3.39-4.8S218.49,122.06,219.32,123Z"/><path id="Path_6260" data-name="Path 6260" class="cls-15" d="M218.17,123.45s.58-1.7,1.67-2,2.6,4.65.43,5.8-4.81-2.18-5.1-2.92S217,122.92,218.17,123.45Z"/></g><g id="Group_2520" data-name="Group 2520"><path id="Path_6261" data-name="Path 6261" class="cls-9" d="M222.6,127.86s.5-1.23,1.31-1.38,1.74,3.53.08,4.3-3.46-1.81-3.65-2.37S221.77,127.42,222.6,127.86Z"/><path id="Path_6262" data-name="Path 6262" class="cls-10" d="M224.08,127.73s1.17-.64,1.9-.25-.86,3.84-2.64,3.4-1.56-3.58-1.36-4.13S223.71,126.86,224.08,127.73Z"/><path id="Path_6263" data-name="Path 6263" class="cls-11" d="M223.18,127.78s.78-1.08,1.61-1,.84,3.85-.95,4.2-2.93-2.58-3-3.16S222.48,127.15,223.18,127.78Z"/></g><path id="Path_6264" data-name="Path 6264" class="cls-14" d="M167.45,54.75a.24.24,0,0,0,.19.45s2.85-1.23,4.58.06a.24.24,0,1,0,.3-.37h0C170.55,53.42,167.46,54.75,167.45,54.75Z"/></g><g id="Group_2525" data-name="Group 2525"><path id="Path_6265" data-name="Path 6265" class="cls-4" d="M123.4,63.67h0a3.48,3.48,0,0,0-4.89,0l-.58.59-.59-.59a3.46,3.46,0,0,0-4.88,0h0a3.48,3.48,0,0,0,0,4.89l.59.58L117.93,74l4.88-4.89.59-.58A3.48,3.48,0,0,0,123.4,63.67Z"/><g id="Group_2524" data-name="Group 2524"><path id="Path_6266" data-name="Path 6266" class="cls-4" d="M254.84,52.9a.55.55,0,0,1,.55-.55.54.54,0,0,1,.54.55v2.45a.54.54,0,0,1-.54.54.55.55,0,0,1-.55-.54Zm-3.71,2a.55.55,0,0,1,0-.77.54.54,0,0,1,.73,0l1.73,1.73a.53.53,0,0,1,0,.77.55.55,0,0,1-.77,0l-1.73-1.73Zm-1.22,4a.55.55,0,1,1,0-1.09h2.45a.55.55,0,1,1,0,1.09h-2.45Zm2,3.72a.54.54,0,0,1-.77,0,.53.53,0,0,1,0-.72l1.73-1.74a.55.55,0,0,1,.77,0,.53.53,0,0,1,0,.77l-1.73,1.74Zm4,1.22a.54.54,0,0,1-.54.54.55.55,0,0,1-.55-.54V61.4a.55.55,0,0,1,.55-.54.54.54,0,0,1,.54.54Zm3.72-2a.54.54,0,0,1-.77.77h0l-1.74-1.74a.54.54,0,1,1,.77-.77l1.74,1.73Zm1.22-4a.55.55,0,0,1,.55.55.55.55,0,0,1-.55.54h-2.45a.55.55,0,1,1,0-1.09h2.45Zm-2-3.71a.54.54,0,1,1,.77.77h0l-1.73,1.73a.54.54,0,1,1-.77-.77Z"/><path id="Path_6267" data-name="Path 6267" class="cls-4" d="M158.76,96.33a.55.55,0,0,1,.55-.55.54.54,0,0,1,.54.55v2.45a.54.54,0,0,1-.54.54.55.55,0,0,1-.55-.54Zm-3.71,2a.54.54,0,0,1,.77-.77l1.73,1.73a.53.53,0,0,1,0,.77.55.55,0,0,1-.77,0Zm-1.22,4a.55.55,0,0,1,0-1.09h2.46a.55.55,0,1,1,0,1.09h-2.45Zm2,3.72a.55.55,0,0,1-.77,0,.53.53,0,0,1,0-.77l1.73-1.74a.54.54,0,1,1,.77.77h0l-1.73,1.74Zm4,1.22a.54.54,0,0,1-.54.54.55.55,0,0,1-.55-.54v-2.45a.55.55,0,0,1,.55-.55.54.54,0,0,1,.54.55h0Zm3.72-2a.54.54,0,0,1,0,.77.55.55,0,0,1-.77,0l0,0-1.73-1.74a.53.53,0,0,1,0-.77.55.55,0,0,1,.77,0l1.73,1.74Zm1.22-4a.55.55,0,1,1,0,1.09h-2.45a.55.55,0,0,1-.55-.54.55.55,0,0,1,.55-.55Zm-2-3.71a.53.53,0,0,1,.77,0,.55.55,0,0,1,0,.77l-1.74,1.73a.54.54,0,1,1-.77-.77Z"/><g id="Group_2522" data-name="Group 2522"><rect id="Rectangle_752" data-name="Rectangle 752" class="cls-30" x="321.83" y="201.56" width="3.22" height="3.22" rx="1.3"/><path id="Rectangle_753" data-name="Rectangle 753" class="cls-6" d="M317.18,201.56h.61a1.3,1.3,0,0,1,1.3,1.3h0v.61a1.3,1.3,0,0,1-1.3,1.3h-.61a1.3,1.3,0,0,1-1.3-1.3v-.61a1.3,1.3,0,0,1,1.3-1.3Z"/><rect id="Rectangle_754" data-name="Rectangle 754" class="cls-30" x="309.92" y="201.56" width="3.22" height="3.22" rx="1.3"/><path id="Rectangle_755" data-name="Rectangle 755" class="cls-6" d="M305.27,201.56h.61a1.3,1.3,0,0,1,1.3,1.3h0v.61a1.3,1.3,0,0,1-1.3,1.3h-.61a1.3,1.3,0,0,1-1.3-1.3v-.61a1.3,1.3,0,0,1,1.3-1.3Z"/><path id="Rectangle_756" data-name="Rectangle 756" class="cls-30" d="M299.31,201.56h.61a1.3,1.3,0,0,1,1.3,1.3h0v.61a1.3,1.3,0,0,1-1.3,1.3h-.61a1.31,1.31,0,0,1-1.3-1.3v-.61a1.3,1.3,0,0,1,1.3-1.3Z"/><path id="Rectangle_757" data-name="Rectangle 757" class="cls-6" d="M311,195.07h.61a1.3,1.3,0,0,1,1.3,1.3h0V197a1.3,1.3,0,0,1-1.3,1.3H311a1.3,1.3,0,0,1-1.3-1.3v-.61a1.3,1.3,0,0,1,1.3-1.3Z"/><path id="Rectangle_758" data-name="Rectangle 758" class="cls-30" d="M305.05,195.07h.61a1.3,1.3,0,0,1,1.3,1.3h0V197a1.3,1.3,0,0,1-1.3,1.3h-.61a1.3,1.3,0,0,1-1.3-1.3v-.61a1.3,1.3,0,0,1,1.3-1.3Z"/><path id="Rectangle_759" data-name="Rectangle 759" class="cls-6" d="M299.1,195.07h.61a1.3,1.3,0,0,1,1.3,1.3h0V197a1.3,1.3,0,0,1-1.3,1.3h-.61a1.3,1.3,0,0,1-1.3-1.3v-.61a1.3,1.3,0,0,1,1.3-1.3Z"/></g><g id="Group_2523" data-name="Group 2523"><path id="Rectangle_760" data-name="Rectangle 760" class="cls-30" d="M233.18,29.12h.61a1.3,1.3,0,0,1,1.3,1.3h0V31a1.3,1.3,0,0,1-1.3,1.3h-.61a1.29,1.29,0,0,1-1.3-1.29v-.62a1.3,1.3,0,0,1,1.3-1.3Z"/><path id="Rectangle_761" data-name="Rectangle 761" class="cls-6" d="M227.22,29.12h.61a1.3,1.3,0,0,1,1.3,1.3h0V31a1.3,1.3,0,0,1-1.3,1.3h-.61a1.31,1.31,0,0,1-1.3-1.29v-.62a1.31,1.31,0,0,1,1.3-1.3Z"/><path id="Rectangle_762" data-name="Rectangle 762" class="cls-30" d="M221.27,29.12h.61a1.3,1.3,0,0,1,1.3,1.3h0V31a1.3,1.3,0,0,1-1.3,1.3h-.61A1.3,1.3,0,0,1,220,31v-.62a1.3,1.3,0,0,1,1.3-1.3Z"/><path id="Rectangle_763" data-name="Rectangle 763" class="cls-6" d="M215.32,29.12h.61a1.31,1.31,0,0,1,1.31,1.31h0V31a1.3,1.3,0,0,1-1.3,1.3h-.62A1.3,1.3,0,0,1,214,31h0v-.62a1.3,1.3,0,0,1,1.3-1.3Z"/><rect id="Rectangle_764" data-name="Rectangle 764" class="cls-30" x="208.06" y="29.12" width="3.22" height="3.22" rx="1.3"/><path id="Rectangle_765" data-name="Rectangle 765" class="cls-6" d="M221.05,22.63h.61a1.3,1.3,0,0,1,1.3,1.3h0v.61a1.3,1.3,0,0,1-1.3,1.3h-.61a1.31,1.31,0,0,1-1.3-1.29v-.62a1.31,1.31,0,0,1,1.3-1.3Z"/><rect id="Rectangle_766" data-name="Rectangle 766" class="cls-30" x="213.8" y="22.63" width="3.22" height="3.22" rx="1.3"/><rect id="Rectangle_767" data-name="Rectangle 767" class="cls-6" x="207.85" y="22.63" width="3.22" height="3.22" rx="1.3"/></g><path id="Path_6268" data-name="Path 6268" class="cls-4" d="M322.8,176.54h0a3.46,3.46,0,0,0-4.88,0l-.59.58-.59-.58a3.46,3.46,0,0,0-4.88,0h0a3.46,3.46,0,0,0,0,4.88l.59.59,4.88,4.88,4.88-4.88.59-.59A3.46,3.46,0,0,0,322.8,176.54Z"/><path id="Path_6269" data-name="Path 6269" class="cls-4" d="M113.68,177.65a1.77,1.77,0,1,0-1.77-1.77A1.77,1.77,0,0,0,113.68,177.65Z"/><path id="Path_6270" data-name="Path 6270" class="cls-4" d="M161.09,147.94a1.77,1.77,0,1,0-1.77-1.77A1.78,1.78,0,0,0,161.09,147.94Z"/><path id="Path_6271" data-name="Path 6271" class="cls-4" d="M260.14,92.75A1.77,1.77,0,1,0,258.37,91,1.77,1.77,0,0,0,260.14,92.75Z"/><path id="Path_6272" data-name="Path 6272" class="cls-4" d="M315.32,92.75A1.77,1.77,0,1,0,313.55,91,1.77,1.77,0,0,0,315.32,92.75Z"/><path id="Path_6273" data-name="Path 6273" class="cls-4" d="M304.71,175.53a1.77,1.77,0,1,0-1.77-1.77A1.77,1.77,0,0,0,304.71,175.53Z"/><path id="Path_6274" data-name="Path 6274" class="cls-4" d="M266.5,179.07a1.77,1.77,0,1,0-1.77-1.77A1.79,1.79,0,0,0,266.5,179.07Z"/><path id="Path_6275" data-name="Path 6275" class="cls-4" d="M173.82,34a1.77,1.77,0,1,0-1.77-1.77h0A1.77,1.77,0,0,0,173.82,34Z"/></g><path id="Path_6276" data-name="Path 6276" class="cls-4" d="M267.73,10.61h0a3.48,3.48,0,0,0-4.89,0l-.58.59-.59-.59a3.46,3.46,0,0,0-4.88,0h0a3.45,3.45,0,0,0,0,4.88l.58.59L262.26,21l4.88-4.88.59-.59A3.46,3.46,0,0,0,267.73,10.61Z"/></g></g></svg>