<svg id="Layer_1" data-name="Layer 1" xmlns="http://www.w3.org/2000/svg" viewBox="0 0 426.23 229.62"><defs><style>.cls-1{fill:#e5b0b4;}.cls-2{fill:#c25228;}.cls-3{fill:#d8dfeb;}.cls-4{fill:#555da4;}.cls-5{fill:#e3e9ee;}.cls-6{fill:#4f559e;}.cls-7{fill:#f0d171;}.cls-8{fill:#d78587;}.cls-9{fill:#b84926;}.cls-10{fill:#d25d29;}.cls-11{fill:#d9a7ad;}.cls-12{fill:#555da1;}.cls-13{fill:#b7bed4;}.cls-14{fill:#221e4f;}.cls-15{fill:#323481;}.cls-16{fill:#2a295e;}.cls-17{fill:#dc8c39;opacity:0.2;}.cls-17,.cls-22{isolation:isolate;}.cls-18{fill:#c3592b;}.cls-19{fill:#cfd4ea;}.cls-20{fill:#dde3f2;}.cls-21{fill:#da8b38;}.cls-22{fill:#edcb76;opacity:0.5;}</style></defs><g id="Group_389" data-name="Group 389"><g id="Group_388" data-name="Group 388"><g id="Group_365" data-name="Group 365"><g id="Group_361" data-name="Group 361"><path id="Path_1717" data-name="Path 1717" class="cls-1" d="M288,205.58C284.93,101.47,273.47,93,273.47,93l-27.19,8.2s-2,103.6-2,105l6.21-.7c3.37-8.41,9-47,12.86-76.49l18.13,76.82Z"/><path id="Path_1718" data-name="Path 1718" class="cls-2" d="M251.85,204.48l-1.39,5.85H236.71S240.22,202.44,251.85,204.48Z"/><path id="Path_1719" data-name="Path 1719" class="cls-2" d="M289.38,204.48,288,210.33H274.24S277.76,202.44,289.38,204.48Z"/></g><g id="Group_364" data-name="Group 364"><path id="Path_1720" data-name="Path 1720" class="cls-1" d="M231.13,81.49,214.19,96.36l-3.38-3.09c2.19-2.82,11.74-15,14.05-17.5C227.07,77.84,229.12,79.65,231.13,81.49Z"/><path id="Path_1721" data-name="Path 1721" class="cls-3" d="M211.27,106.48A13.75,13.75,0,0,0,225,92.74H197.53a13.74,13.74,0,0,0,13.74,13.74Z"/><path id="Path_1722" data-name="Path 1722" class="cls-4" d="M289.89,179.17a363.62,363.62,0,0,1-3.12-48.24A63.11,63.11,0,0,0,285,116.25c-5-21-18.87-38-20.1-38.95-.75-.58-2.12-7.47-3.33-14.33-1.24-7.09-2.31-14.15-2.31-14.15-2.16-.87-8-2.92-8-2.92C239.82,56.55,229.53,49,229.53,49a6.15,6.15,0,0,0-3.73,4.82c-.78,3.89-.63,21.28-2.1,23l-2.5,3c1.5.83,3.75,2.11,5.65,3.35.63.4,1.21.8,1.73,1.17,1.48-1.47,2.7-2.71,2.81-2.89s1.07-3.37,2.22-7.27c4,7.5,11.14,17,11.9,18.24,1.05,1.75-6.33,85.31-6.33,85.31Z"/><path id="Path_1723" data-name="Path 1723" class="cls-5" d="M213.2,104.81a12.24,12.24,0,0,1-14.63-12h4.73A12.26,12.26,0,0,0,213.2,104.81Z"/><path id="Path_1724" data-name="Path 1724" class="cls-6" d="M285,116.25l-6.64-.3s-7.06-18.6-15.1-25.37c-4.86-4.08-14.21-3.17-14.34-3.09L261.52,63c1.2,6.86.87,11.14,3.32,14.32C265.79,78.54,279.91,95.21,285,116.25Z"/><path id="Path_1725" data-name="Path 1725" class="cls-1" d="M253,84c-2.37-1.89-5-4-7.43-6a12.3,12.3,0,0,0-1.3,1.09C236.16,87.66,229.46,94,226.7,96.44L226,97l-.52.46a1.14,1.14,0,0,1-.87.11,7.43,7.43,0,0,0-8.36,3s-1.38,2.22.55,2.46,1.24-.1,3.95.3,5.23-.31,6.44-1.78a1.86,1.86,0,0,1,.42-.37l1.51-.72h0c6.88-3.2,16.75-10.45,22-14.88C251.8,85,252.44,84.45,253,84Z"/><path id="Path_1726" data-name="Path 1726" class="cls-3" d="M206.75,91.17s-3.42-5.13-4.93-4.78S204.5,89,206,90.94Z"/><path id="Path_1727" data-name="Path 1727" class="cls-7" d="M224.1,92.74H198.44a6.41,6.41,0,0,1,4.78-1.45,10,10,0,0,0,4-1.32c1.4-1,5.6-1.48,7.88.31s4.86,1.32,6.26,1.55C222.55,92,223.65,92.2,224.1,92.74Z"/><path id="Path_1728" data-name="Path 1728" class="cls-6" d="M233.62,74.2c-1.16,3.91-2.12,7.12-2.23,7.3s-1.33,1.41-2.82,2.89c-.51-.38-1.1-.78-1.72-1.18.67-.65,2.11-2,2.75-2.61.85-.77,2.45-7,3.22-7.54C233.18,72.81,233.44,73.44,233.62,74.2Z"/><path id="Path_1729" data-name="Path 1729" class="cls-6" d="M250.2,68.17s-4.2,5.2-8.63,6.06-2,6.91,4.9,6.68S250.2,68.17,250.2,68.17Z"/><path id="Path_1730" data-name="Path 1730" class="cls-4" d="M251.17,45.9s8.43,1.36,9.52,3.69c0,0,4.66,21.76-4.87,31.86l-7.49,6.85s-5.28-7.37-5.87-7.45c0,0,4.28-3.78,4.47-4.37S249.57,54.33,251.17,45.9Z"/><g id="Group_363" data-name="Group 363"><path id="Path_1731" data-name="Path 1731" class="cls-8" d="M256.62,47.21c-4.48-1.31-7.88-3.12-8.67-4.64a74.07,74.07,0,0,1-3.54-11.46l-9.33,5.68a19.62,19.62,0,0,1,1.49,8.56c-.28.72-1.2,2.15-3.78,2.57a10,10,0,0,0-4.2,1.66C239.43,56.6,256.62,47.21,256.62,47.21Z"/><path id="Path_1732" data-name="Path 1732" class="cls-9" d="M238.07,17.18s.24-5.86,5.62-4.69,5.92,7.92,3.65,10.18a5.39,5.39,0,0,1-5.3,1.18Z"/><path id="Path_1733" data-name="Path 1733" class="cls-1" d="M233.78,39.87s12.49-2.61,10.74-10.36-1.3-13.31-9.35-12-8.93,4.64-9,7.37S230.48,40.35,233.78,39.87Z"/><path id="Path_1734" data-name="Path 1734" class="cls-10" d="M225.72,22.67s2.72-8.65,13.22-9,6.41,18.34,5.47,17.43C230.16,17.27,225.72,22.67,225.72,22.67Z"/><g id="Group_362" data-name="Group 362"><path id="Path_1735" data-name="Path 1735" class="cls-10" d="M225.93,21.43c-2,1.78,1.47,9,1.47,9,0-.45,0-7.28,2.27-8.77a2.58,2.58,0,0,0-3.62-.38Z"/><path id="Path_1736" data-name="Path 1736" class="cls-10" d="M229.67,21.7a10.19,10.19,0,0,1,3.76,2.84c1.7,2.05,5.28,4.94,9.2,3.53C242.64,28.07,238.35,18.82,229.67,21.7Z"/></g></g></g></g><g id="Group_366" data-name="Group 366"><path id="Path_1737" data-name="Path 1737" class="cls-11" d="M176.25,205.44l-4.08-.82,16.46-46.44s-28.29.23-35.44-3.19c-3-1.44.09-3.37,4.69-5.13a136.93,136.93,0,0,1,14.87-4.37h0l.75-.17,1.9.18c6,.62,24.41,2.88,27.13,7.41C205.47,157.8,176.25,205.44,176.25,205.44Z"/><path id="Path_1738" data-name="Path 1738" class="cls-9" d="M156.7,69c-.11-.15-1.17-2.47-4.48-1.45S145.57,71.2,145,77.74s-3.09,14.75-5.27,16.88-6.29,11.26-4,16H162Z"/><path id="Path_1739" data-name="Path 1739" class="cls-1" d="M168.48,193.4c-4.35,6.54-7.79,11.47-7.79,11.47l-3.38.22-1.81.11.15-.33,5.56-12.79,11.54-26.51s-16.88-2.69-24-6.11c-6.9-3.3-5.88-11.7-5.8-12.28v0h0s16.84,2.24,18,2.45c5.77,1.12,22.78,10,25.3,11.89C188.2,163,176.7,181.06,168.48,193.4Z"/><path id="Path_1740" data-name="Path 1740" class="cls-4" d="M158.61,69a4.09,4.09,0,0,0-4.19,0c-2.45,1.27-.9,4-.9,4Z"/><path id="Path_1741" data-name="Path 1741" class="cls-8" d="M169.32,96s-.87-.72-3.74-1.13c-1.89-3.38-.56-8.5-.56-8.5l-8.47-4.33a24.89,24.89,0,0,1-2.13,12.51,23.16,23.16,0,0,1-3,.79l8.81,8.26Z"/><path id="Path_1742" data-name="Path 1742" class="cls-1" d="M165.28,90s-10.63,1.3-10.86-6.19,4.2-12.35,7.17-12.29c5.9.11,6.87,2.49,7.55,5S170.18,89.44,165.28,90Z"/><path id="Path_1743" data-name="Path 1743" class="cls-12" d="M175.43,146.58c-13.4,5.85-32.61,2.12-32.61,2.12v-.2l1.31-22-1.8-15,3.2-13.79c5-2.51,4.75-2.5,8.88-3.1,1.57,1.62,4.7,4,8.18,3.55,2.62-.35,3.21-1.7,3.17-3.2a28.9,28.9,0,0,1,8.34,2.45Z"/><path id="Path_1744" data-name="Path 1744" class="cls-6" d="M150.91,147.79c-.91,1.14-5.39,1.54-8.08.71l1.32-22-1.8-15,1.74-.81s7.65,6.14,6.75,11S152.08,146.33,150.91,147.79Z"/><path id="Path_1745" data-name="Path 1745" class="cls-1" d="M195.26,117.7a9.65,9.65,0,0,0,2.2.31,4,4,0,0,1,5.48,1.13s.31.91,0,1.07c-1.09.53-1.14-.11-2.74.46s-2.81.47-3.59-.51L195.3,120S194.84,117.17,195.26,117.7Z"/><path id="Path_1746" data-name="Path 1746" class="cls-10" d="M168,73.21c-1.42-2.76-4.49-5.94-10.93-3.83-8.64,2.83-4.46,11.84-2.68,14.4,0,0,2.63-.43,2.91-2.25.21-1.34,1.07-4.18,3.08-5.67a4.9,4.9,0,0,1,.24,2.93,8.07,8.07,0,0,1-.43.89H170S170.66,74.34,168,73.21Z"/><path id="Path_1747" data-name="Path 1747" class="cls-12" d="M154.42,94.59s-7.61,0-10.48,2.44c-2.71,2.32-13.25,20.9-11.52,26.79l9-3.13L148.33,108Z"/><path id="Path_1748" data-name="Path 1748" class="cls-12" d="M165.77,94.93s7.6.82,9.66,2.76c0,0,6,14.11,6.6,17.56,0,0,11.52,1.46,14.14,2.48v2.38H176.7l-5.28-8.31Z"/><path id="Path_1749" data-name="Path 1749" class="cls-3" d="M168.48,193.4c-4.35,6.54-8,12.32-8,12.32l-5.28-.12,6-13.52A69.25,69.25,0,0,0,168.48,193.4Z"/><path id="Path_1750" data-name="Path 1750" class="cls-10" d="M153.89,205.48l1.31,4.73h11.08S169.57,204.16,153.89,205.48Z"/><path id="Path_1751" data-name="Path 1751" class="cls-3" d="M183.65,193.08c-3.79,6.76-7.05,13-7.05,13l-5.6-.43L176.65,192A66.18,66.18,0,0,0,183.65,193.08Z"/><path id="Path_1752" data-name="Path 1752" class="cls-10" d="M169.39,205.48l1.31,4.73h11.08S185.08,204.16,169.39,205.48Z"/><path id="Path_1753" data-name="Path 1753" class="cls-1" d="M161.26,120.11c.74-.84-.59-2.08-.59-2.08-4.2-3.39-8.14,1.11-8.14,1.11s-2.37.64-3.95,1Z"/></g><g id="Group_367" data-name="Group 367"><path id="Path_1754" data-name="Path 1754" class="cls-3" d="M276.41,119.76a6.64,6.64,0,0,0,6.65-6.65h-13.3a6.65,6.65,0,0,0,6.65,6.65Z"/><path id="Path_1755" data-name="Path 1755" class="cls-5" d="M277.35,119a5.93,5.93,0,0,1-7-4.68,5.51,5.51,0,0,1-.11-1.14h2.29A5.92,5.92,0,0,0,277.35,119Z"/><path id="Path_1756" data-name="Path 1756" class="cls-13" d="M274,119.32h4.8v.6H274Z"/></g><g id="Group_375" data-name="Group 375"><path id="Path_1757" data-name="Path 1757" class="cls-13" d="M320.78,208.43l3.31-43.28v-2.54a1.4,1.4,0,0,1,1.4-1.4h38.88a1.3,1.3,0,0,1,0-.21,144.21,144.21,0,0,1,6.74-42.3,79.05,79.05,0,0,1,6.4-15.14,1.69,1.69,0,1,1,2.9,1.74,78.64,78.64,0,0,0-6.14,14.57,141.82,141.82,0,0,0-6.53,41.34,1.75,1.75,0,0,1,0,.4l1.49,46.85a1.74,1.74,0,0,1-1.63,1.84h-.06a1.75,1.75,0,0,1-1.69-1.73l-1.33-41.77H327.35l-3.2,41.89a1.7,1.7,0,0,1-1.69,1.56h-.13A1.69,1.69,0,0,1,320.78,208.43Z"/><g id="Group_374" data-name="Group 374"><g id="Group_368" data-name="Group 368"><path id="Path_1758" data-name="Path 1758" class="cls-8" d="M331.35,71s-1.43,11.71-1.59,13.36l9.47,1.46,6.22-5.15A28.62,28.62,0,0,1,343,66.3Z"/><path id="Path_1759" data-name="Path 1759" class="cls-1" d="M330.17,71.88S343.74,72.5,344,64s2.18-14.07-6.48-14.82-10.43,2.42-11.21,5.22S326.64,71.5,330.17,71.88Z"/><path id="Path_1760" data-name="Path 1760" class="cls-4" d="M344,64s-1-11.28-13.11-10.88-6.86-11,3.53-12.71c0,0-1.08,4,5.45,4.66C353.59,46.45,345.22,62.25,344,64Z"/></g><g id="Group_371" data-name="Group 371"><path id="Path_1761" data-name="Path 1761" class="cls-14" d="M354.68,138.59s-18.51-.51-21.37-.87c-9.69-1.23-39.91,17.86-39.91,17.86L304.46,206l1.29,0a10.4,10.4,0,0,0-5.38,4.26h13.85l1.07-4.06.75,0c1.12-36-5.39-44.25-5.39-44.25s5.27-1,21.39-1c19.43.08,22.38-7.74,23.52-15C356,143.46,354.68,138.59,354.68,138.59Z"/><path id="Path_1762" data-name="Path 1762" class="cls-14" d="M322.41,205.16l-1.34,5.09H307.22S310.68,203.54,322.41,205.16Z"/><path id="Path_1763" data-name="Path 1763" class="cls-15" d="M362.41,146c-1.14,7.24-4.09,15.06-23.52,15-16.12-.07-21.39,1-21.39,1s6.51,8.25,5.39,44.25L311.31,206l-11.07-50.4s24-19.19,33.72-18c2.86.37,27,1.06,27,1.06S362.81,143.46,362.41,146Z"/><g id="Group_370" data-name="Group 370"><g id="Group_369" data-name="Group 369"><path id="Path_1764" data-name="Path 1764" class="cls-16" d="M310.7,154.75a6.71,6.71,0,0,0,1.68-.59,6.86,6.86,0,0,1,1.54-.54c5.93-.86,11.31-1.92,16.05-2.86l3.66-.71c10.8-2.08,16.93-3.22,17-3.23h0c-.06,0-6.24.78-17.05,2.86l-3.66.72c-4.74.93-10.11,2-16,2.85a6.89,6.89,0,0,0-1.63.58,6.73,6.73,0,0,1-1.58.55C309.1,154.6,309.14,155,310.7,154.75Z"/></g></g></g><g id="Group_372" data-name="Group 372"><path id="Path_1765" data-name="Path 1765" class="cls-7" d="M361.28,138.24c-.15.58-.32.61-.32.61H322.12s-1.55,1.2.35-13a1.94,1.94,0,0,0,0-.24c.27-2.7-.27-10.71-.73-16.52,0-.23,0-.45-.05-.67v-.1c-.12-1.47-.23-2.77-.31-3.76-.1-1.21-.17-1.94-.17-1.94l0,0-2,2.76L308.56,119.9H278.13l.18-4a102,102,0,0,1,12.3-3.1c3.3-.46,13.11-1.75,13.11-1.75s3.33-5.38,6.42-11c3.34-6,4.79-13.3,8.33-18.5,1.32-2,3.59-2.44,12.12-4.67.66,1.74,2.81,2.88,5.2,2.88,3.45,0,7.62-1.18,7.88-4.33,22.7,2.62,15.32,40.34,16.05,44.78C361.8,132.9,361.6,137,361.28,138.24Z"/><path id="Path_1766" data-name="Path 1766" class="cls-17" d="M346.3,138.84H325.76s-1.47-6.66-3.27-13.2c.27-2.69-.27-10.71-.73-16.52l-.06-.67a.27.27,0,0,0,0-.09c-.12-1.48-.23-2.78-.31-3.76-.1-1.21-.18-1.95-.18-1.95v0a44.59,44.59,0,0,1,1.21-10.55.72.72,0,0,1,1.39,0c2.79,10.13,15.6,14.89,20.28,9,5.07-6.34,8.88-1.64,1.28,12.06C338.72,125.13,346.3,138.84,346.3,138.84Z"/><path id="Path_1767" data-name="Path 1767" class="cls-17" d="M309.06,110.83c1.88-.65,5.39-3.17,10.11-5.39L308.56,119.9H278.13l.14-3.36C285.32,116,305.07,112.2,309.06,110.83Z"/></g><g id="Group_373" data-name="Group 373"><path id="Path_1768" data-name="Path 1768" class="cls-1" d="M279.73,119.91c-1.15-1.31.91-3.24.91-3.24,6.55-5.27,12.67,1.74,12.67,1.74s3.7,1,6.14,1.5Z"/><path id="Path_1769" data-name="Path 1769" class="cls-7" d="M346.38,76s-21.32,23.32-27.91,33.46c0,0-20,4.26-28.12,6.54l-.33,3.84,29.1.16S360.21,103.22,359,93.69C357.65,83,358,79.26,346.38,76Z"/></g></g></g><g id="Group_381" data-name="Group 381"><g id="Group_377" data-name="Group 377"><path id="Path_1770" data-name="Path 1770" class="cls-8" d="M92.3,84.51s-3,5.38-2.35,9.68l-5.42,10L75.78,91.86a29.41,29.41,0,0,0,6.25-11Z"/><g id="Group_376" data-name="Group 376"><path id="Path_1771" data-name="Path 1771" class="cls-18" d="M77.68,64.26c0-2.13,1.33-3.94,3.63-3.37,2.07.52,4.08.5,4.08,2.63s-1.72,4.6-3.85,4.6a3.86,3.86,0,0,1-3.86-3.86Z"/><path id="Path_1772" data-name="Path 1772" class="cls-10" d="M79,81.44s-10.83-9.23,0-16.85c0,0,8.52-4.85,14.21,1.72,3.45,4,4.94,6.89,2,10.46S79,81.44,79,81.44Z"/><path id="Path_1773" data-name="Path 1773" class="cls-1" d="M90.71,88.36s-11.5.53-11.72-6.92S75.41,69,84.69,68.37c7.64-.54,10.17,2.65,10.85,5.12S98.18,85.71,90.71,88.36Z"/><path id="Path_1774" data-name="Path 1774" class="cls-10" d="M77.14,67.78C74,68.8,79,81.44,79,81.44c10-4.53,12-9,12.17-11.4,1,3.54,4.86,5.47,4.84,5.56a14.78,14.78,0,0,0,.19-3.45C95,67.41,90.79,63.38,77.14,67.78Z"/></g></g><g id="Group_380" data-name="Group 380"><path id="Path_1775" data-name="Path 1775" class="cls-13" d="M102.28,208.34,99,165.05v-2.54a1.4,1.4,0,0,0-1.4-1.4H58.69a1.55,1.55,0,0,0,0-.21,144.26,144.26,0,0,0-6.74-42.3,79.59,79.59,0,0,0-6.4-15.14,1.69,1.69,0,0,0-2.9,1.75,78.6,78.6,0,0,1,6.13,14.57,141.1,141.1,0,0,1,6.53,41.34,1.32,1.32,0,0,0,.06.39l-1.5,46.85a1.77,1.77,0,0,0,1.64,1.85h.05a1.74,1.74,0,0,0,1.69-1.73l1.33-41.78H95.7l3.21,41.89a1.69,1.69,0,0,0,1.69,1.56h.13A1.68,1.68,0,0,0,102.28,208.34Z"/><g id="Group_379" data-name="Group 379"><path id="Path_1776" data-name="Path 1776" class="cls-1" d="M110.78,185c3.73,10.26,6.52,14.34,8.51,21.39l6.09-1.52-2.13-20Z"/><path id="Path_1777" data-name="Path 1777" class="cls-4" d="M117.9,204.16l1.2,6.05h12S128,202,117.9,204.16Z"/><path id="Path_1778" data-name="Path 1778" class="cls-1" d="M121.44,185c3.73,10.26,6.53,14.34,8.52,21.39l6.09-1.52-2.14-20Z"/><path id="Path_1779" data-name="Path 1779" class="cls-4" d="M128.56,204.16l1.21,6.05h12S138.67,202,128.56,204.16Z"/><path id="Path_1780" data-name="Path 1780" class="cls-4" d="M139.84,192.9l-27.26,2.91c-8-14.69-7.75-29-12.26-33a4.75,4.75,0,0,0-1.46-.81c-7-2.58-28.95.43-36.35-1.18-8-1.75-1-22.74-1-22.74l2.54-.26a159.4,159.4,0,0,1,62.87,6.9C132.11,146.14,139.84,192.9,139.84,192.9Z"/><path id="Path_1781" data-name="Path 1781" class="cls-6" d="M98.86,162c-7-2.58-28.95.43-36.35-1.18-8-1.75-1-22.74-1-22.74.85-.09,1.7-.18,2.53-.25.24,3.88,1.89,16.61,13,19.27C89,160,96.89,159.66,98.86,162Z"/><g id="Group_378" data-name="Group 378"><path id="Path_1782" data-name="Path 1782" class="cls-19" d="M94.53,116.43H89.59c.48,7.07,1,13.62,1.53,15.76a34.52,34.52,0,0,1,7.71,4.47l1.52-1.25.36-1.5c-2-2.32-5.5-6.58-6.62-7.75C93.76,125.82,94.12,121.54,94.53,116.43Z"/><path id="Path_1783" data-name="Path 1783" class="cls-20" d="M94.6,107.25a7.28,7.28,0,0,1,.65-3c.82-2.82-.38-5.68-1.22-7.37S90,94.19,90,94.19a6.83,6.83,0,0,1-3.89.75,11.71,11.71,0,0,1-8.81-4h0a4.78,4.78,0,0,1-.59-.41c-3.32.9-8.64,2.55-11,8.86-1.91,5.19-.9,14.66-2.8,19.81-4.2,11.43-1.44,18.87-1.44,18.87s3.6,1.24,13.16,1.19c8.17-.06,17.35-1.44,18.36-2.57,1.67-1.88,1.47-3.38.57-7.37-.1-.46-.22-1-.34-1.49-1.17-5.13.47-8.16.47-8.16C95.79,116.57,95.6,111.84,94.6,107.25Z"/><path id="Path_1784" data-name="Path 1784" class="cls-8" d="M100.48,133.92a6.85,6.85,0,0,1,7.89,3.52s1,2.17-.77,2.18-1.12-.24-3.62-.17a5.55,5.55,0,0,1-5.15-2.79Z"/><path id="Path_1785" data-name="Path 1785" class="cls-19" d="M93,136.71c-1,1.13-10.19,2.52-18.36,2.56-3.57-1.57-4.9-5.4-6.43-8.47-1.87-3.73-1.94-24-1.32-25.8s11-.23,13.21-.15,4.27,11,5,14.06,6,8.32,6,8.32a9.94,9.94,0,0,1,1.51,3.54C93.45,134.75,94.65,134.83,93,136.71Z"/><path id="Path_1786" data-name="Path 1786" class="cls-1" d="M97,136.71a6.51,6.51,0,0,1,8.08,1.42s1.43,1.76-.2,2.18-1.09,0-3.37.68-4.74.26-5.89-1Z"/><path id="Path_1787" data-name="Path 1787" class="cls-20" d="M76.66,90.55S68,92,66.4,99.87s5.36,25.65,7.7,28.68,9.24,9,21.6,11.58L98.18,136s-10.33-11.89-13.36-13.76S80.62,92,76.66,90.55Z"/></g></g></g></g><g id="Group_383" data-name="Group 383"><path id="Path_1788" data-name="Path 1788" class="cls-10" d="M124.3,118.69l1.13,1.22h15.62l1.2-1.13Z"/><path id="Path_1789" data-name="Path 1789" class="cls-10" d="M164.86,118.69l1.13,1.22h15.62l1.2-1.14Z"/><path id="Path_1790" data-name="Path 1790" class="cls-10" d="M250.66,118.69l1.13,1.22h15.62l1.2-1.14Z"/><g id="Group_382" data-name="Group 382"><path id="Path_1791" data-name="Path 1791" class="cls-10" d="M228.24,110.64a3.08,3.08,0,0,0-2.72-1.36,1.64,1.64,0,0,0-1.4,1.63Z"/><path id="Path_1792" data-name="Path 1792" class="cls-10" d="M229.25,111a2.47,2.47,0,0,1,2.41-2.41c2.37-.16,2.68,2.37,2.68,2.37Z"/><path id="Path_1793" data-name="Path 1793" class="cls-10" d="M234.61,110.6a4,4,0,0,1,3.11-2,3.35,3.35,0,0,1,3.07,1.9Z"/><path id="Path_1794" data-name="Path 1794" class="cls-3" d="M233,119.7a9.31,9.31,0,0,0,9.3-9.3H223.69a9.3,9.3,0,0,0,9.3,9.3Z"/><path id="Path_1795" data-name="Path 1795" class="cls-5" d="M234.3,118.57a8.31,8.31,0,0,1-9.75-6.56,8.49,8.49,0,0,1-.16-1.59h3.2A8.31,8.31,0,0,0,234.3,118.57Z"/><path id="Path_1796" data-name="Path 1796" class="cls-13" d="M229.53,119.08h6.72v.84h-6.7Z"/></g></g><g id="Group_387" data-name="Group 387"><g id="Group_384" data-name="Group 384"><path id="Path_1797" data-name="Path 1797" class="cls-21" d="M221.83,197.2V171.09h-6.69v26.18c-13.36.88-24.07,6.2-26.49,13h60.91C247.06,203.25,235.76,197.83,221.83,197.2Z"/><path id="Path_1798" data-name="Path 1798" class="cls-22" d="M249.56,210.28h-.37c-6.16-1.44-21.86-5.37-25.34-8.6-1.87-1.74-2.29-3.28-2.16-4.49C235.69,197.79,247.05,203.23,249.56,210.28Z"/></g><g id="Group_386" data-name="Group 386"><path id="Path_1799" data-name="Path 1799" class="cls-3" d="M334.43,191.76H105.49l.24-2.48,5.87-60.75a9.22,9.22,0,0,1,8.89-8.62h195.2a9.17,9.17,0,0,1,8.82,8Z"/><path id="Path_1800" data-name="Path 1800" class="cls-7" d="M165.69,119.91l53,27.18,58.11-27.17Z"/><g id="Group_385" data-name="Group 385"><path id="Path_1801" data-name="Path 1801" class="cls-19" d="M325.21,191.76H312.65l-1.76-53.5Z"/><path id="Path_1802" data-name="Path 1802" class="cls-19" d="M143.1,191.76h-5.38c.32-12.33,1.81-60.86,1.81-60.86Z"/><path id="Path_1803" data-name="Path 1803" class="cls-19" d="M305.27,191.76h-7.6c.45-7.23,2.56-35.67,2.56-35.67Z"/><path id="Path_1804" data-name="Path 1804" class="cls-19" d="M133.55,191.76H126c.44-7.23,2.55-35.67,2.55-35.67Z"/><path id="Path_1805" data-name="Path 1805" class="cls-19" d="M116.64,150.51l-4,41.25h-7.12l.24-2.48Z"/></g><path id="Path_1806" data-name="Path 1806" class="cls-17" d="M263.79,122.18s-53.27,13.17-52.22,15.5,4.78,5.71,7.57,5.13S263.79,122.18,263.79,122.18Z"/></g></g><path id="Path_1807" data-name="Path 1807" class="cls-13" d="M406.67,210.26H22.14a1,1,0,0,0-1,1v.06a1,1,0,0,0,1,1l384.53,0a1,1,0,0,0,1.05-1v-.07A1,1,0,0,0,406.67,210.26Z"/></g></g></svg>