<svg id="Layer_1" data-name="Layer 1" xmlns="http://www.w3.org/2000/svg" xmlns:xlink="http://www.w3.org/1999/xlink" viewBox="0 0 426.23 229.62"><defs><style>.cls-1{fill:#d3ab89;}.cls-2{fill:#b68358;}.cls-3{fill:#2f120c;}.cls-4{fill:#80706e;}.cls-5{fill:#9a8f8e;}.cls-6{fill:#e9c3b7;}.cls-7{fill:url(#linear-gradient);}.cls-8{fill:#232121;}.cls-9{fill:#cec8c1;}.cls-10{fill:#c6c4c2;}.cls-11{fill:#ce7f3d;}.cls-12{fill:url(#linear-gradient-2);}.cls-13{fill:url(#linear-gradient-3);}.cls-14{fill:#e8a56d;}.cls-15{fill:#fff;}.cls-16{fill:#bfb8b8;}.cls-17{fill:url(#linear-gradient-4);}.cls-18{fill:#5584c4;}.cls-19{fill:#ddac9e;}.cls-20{fill:url(#linear-gradient-5);}.cls-21{fill:#3d5ba9;}.cls-22{fill:#999897;}.cls-23{fill:#8b181a;}.cls-24{fill:#cd2027;}.cls-25{fill:url(#linear-gradient-6);}.cls-26{fill:#2b2b2b;}.cls-27{fill:#f6d8d0;}.cls-28{fill:#ecc0b7;}.cls-29{fill:#e0e0e0;}.cls-30{fill:#5e2015;}.cls-31{fill:#d8d8d8;}.cls-32{fill:url(#linear-gradient-7);}.cls-33{fill:url(#linear-gradient-8);}.cls-34{fill:#3cb579;}.cls-35{fill:#7dc78c;}.cls-36{fill:url(#linear-gradient-9);}.cls-37{fill:#7c6a66;}.cls-38{fill:#e2e2e2;}.cls-39,.cls-43{opacity:0.69;}.cls-39,.cls-40,.cls-42,.cls-43,.cls-44,.cls-46,.cls-57{isolation:isolate;}.cls-39{fill:url(#linear-gradient-10);}.cls-40,.cls-42,.cls-44,.cls-46{opacity:0.5;}.cls-40{fill:url(#linear-gradient-11);}.cls-41{fill:#e69e5c;}.cls-42{fill:url(#linear-gradient-12);}.cls-43{fill:url(#linear-gradient-13);}.cls-44{fill:url(#linear-gradient-14);}.cls-45{fill:#edddca;}.cls-46{fill:url(#linear-gradient-15);}.cls-47{fill:#e1813e;}.cls-48{fill:#2f110d;}.cls-49{fill:url(#linear-gradient-16);}.cls-50{fill:#5e1c17;}.cls-51{fill:url(#linear-gradient-17);}.cls-52{fill:#f1e5d5;}.cls-53{fill:url(#linear-gradient-18);}.cls-54{fill:url(#linear-gradient-19);}.cls-55{fill:url(#linear-gradient-20);}.cls-56{fill:#fbba88;}.cls-57{opacity:0.4;fill:url(#linear-gradient-21);}.cls-58{fill:url(#linear-gradient-22);}.cls-59{fill:url(#linear-gradient-23);}</style><linearGradient id="linear-gradient" x1="113.42" y1="156.41" x2="112.93" y2="157.83" gradientTransform="matrix(4.57, 0, 0, -5.35, -312.38, 828.34)" gradientUnits="userSpaceOnUse"><stop offset="0" stop-color="#fff"/><stop offset="0.64" stop-color="#c6c0b9"/></linearGradient><linearGradient id="linear-gradient-2" x1="68.68" y1="159.98" x2="68.68" y2="161.92" gradientTransform="matrix(57, 0, 0, -11.9, -3680.47, 2039.45)" gradientUnits="userSpaceOnUse"><stop offset="0.03" stop-color="#fff"/><stop offset="0.13" stop-color="#f9f9fb"/><stop offset="0.26" stop-color="#eeeaec"/><stop offset="0.4" stop-color="#dbd1d7"/><stop offset="0.55" stop-color="#beafb9"/><stop offset="0.7" stop-color="#9e8796"/></linearGradient><linearGradient id="linear-gradient-3" x1="68.6" y1="159.98" x2="68.6" y2="161.92" gradientTransform="matrix(58.01, 0, 0, -11.9, -3744.62, 2027.63)" gradientUnits="userSpaceOnUse"><stop offset="0" stop-color="#fff"/><stop offset="0.11" stop-color="#f9f9fb"/><stop offset="0.24" stop-color="#eeeaec"/><stop offset="0.39" stop-color="#dbd1d7"/><stop offset="0.55" stop-color="#beafb9"/><stop offset="0.7" stop-color="#9e8796"/></linearGradient><linearGradient id="linear-gradient-4" x1="72.67" y1="163.91" x2="73.19" y2="165.4" gradientTransform="matrix(29.83, 0, 0, -15.03, -1919.42, 2581.01)" gradientUnits="userSpaceOnUse"><stop offset="0.01" stop-color="#fff"/><stop offset="0.36" stop-color="#c8c8c8"/><stop offset="0.69" stop-color="#949494"/></linearGradient><linearGradient id="linear-gradient-5" x1="100.98" y1="157.58" x2="100.86" y2="158.25" gradientTransform="matrix(6.85, 0, 0, -10.14, -418.87, 1719.12)" gradientUnits="userSpaceOnUse"><stop offset="0" stop-color="#fff"/><stop offset="0.64" stop-color="#aca0a2"/></linearGradient><linearGradient id="linear-gradient-6" x1="105.11" y1="160.28" x2="106.11" y2="160.28" gradientTransform="matrix(6.07, 0, 0, -11.55, -372.13, 1940.85)" gradientUnits="userSpaceOnUse"><stop offset="0" stop-color="#fff"/><stop offset="0.7" stop-color="#b0b0b1"/></linearGradient><linearGradient id="linear-gradient-7" x1="91.1" y1="168.05" x2="90.65" y2="169.49" gradientTransform="matrix(8, 0, 0, -8.28, -458.64, 1370.83)" xlink:href="#linear-gradient"/><linearGradient id="linear-gradient-8" x1="78.36" y1="172.69" x2="77.94" y2="174.11" gradientTransform="matrix(15.23, 0, 0, -15.13, -892.75, 2589.72)" gradientUnits="userSpaceOnUse"><stop offset="0.25" stop-color="#fff"/><stop offset="0.64" stop-color="#c6c0b9"/></linearGradient><linearGradient id="linear-gradient-9" x1="74.86" y1="172.52" x2="75.91" y2="173.44" gradientTransform="matrix(23.86, 0, 0, -39.41, -1477.2, 6965.43)" gradientUnits="userSpaceOnUse"><stop offset="0.01" stop-color="#fff"/><stop offset="0.15" stop-color="#ebebeb"/><stop offset="0.44" stop-color="#bababa"/><stop offset="0.64" stop-color="#949494"/></linearGradient><linearGradient id="linear-gradient-10" x1="68.57" y1="169.55" x2="68.56" y2="170.51" gradientTransform="matrix(58.47, 0, 0, -24.75, -3871.01, 4249.96)" gradientUnits="userSpaceOnUse"><stop offset="0.15" stop-color="#fff"/><stop offset="0.2" stop-color="#f7f7f7"/><stop offset="0.28" stop-color="#e2e2e2"/><stop offset="0.37" stop-color="#c2c1c0"/><stop offset="0.48" stop-color="#929292"/><stop offset="0.59" stop-color="#565656"/><stop offset="0.72" stop-color="#0f0f0f"/><stop offset="0.74"/></linearGradient><linearGradient id="linear-gradient-11" x1="68.61" y1="168.6" x2="68.53" y2="170.44" gradientTransform="matrix(58.19, 0, 0, -23.1, -3852.55, 3971.34)" gradientUnits="userSpaceOnUse"><stop offset="0.15" stop-color="#fff"/><stop offset="0.21" stop-color="#f1f0f0"/><stop offset="0.32" stop-color="#c9c9c9"/><stop offset="0.46" stop-color="#8b8b8b"/><stop offset="0.64" stop-color="#363636"/><stop offset="0.74"/></linearGradient><linearGradient id="linear-gradient-12" x1="68.57" y1="169.55" x2="68.56" y2="170.51" gradientTransform="matrix(58.45, 0, 0, -24.76, -3869.58, 4283.45)" gradientUnits="userSpaceOnUse"><stop offset="0.07" stop-color="#fff"/><stop offset="0.13" stop-color="#f7f7f7"/><stop offset="0.22" stop-color="#e2e2e2"/><stop offset="0.33" stop-color="#c2c1c0"/><stop offset="0.45" stop-color="#929292"/><stop offset="0.59" stop-color="#565656"/><stop offset="0.73" stop-color="#0f0f0f"/><stop offset="0.76"/></linearGradient><linearGradient id="linear-gradient-13" x1="68.37" y1="169.55" x2="68.36" y2="170.51" gradientTransform="matrix(61.34, 0, 0, -24.75, -3876.12, 4249.96)" xlink:href="#linear-gradient-10"/><linearGradient id="linear-gradient-14" x1="68.41" y1="168.6" x2="68.33" y2="170.43" gradientTransform="matrix(61.05, 0, 0, -23.1, -3857.34, 3971.34)" xlink:href="#linear-gradient-11"/><linearGradient id="linear-gradient-15" x1="68.37" y1="169.55" x2="68.36" y2="170.51" gradientTransform="matrix(61.32, 0, 0, -24.76, -3874.7, 4283.45)" xlink:href="#linear-gradient-12"/><linearGradient id="linear-gradient-16" x1="117.11" y1="127.91" x2="116.4" y2="129.7" gradientTransform="matrix(5.54, 0, 0, -6.53, -465.77, 1035.81)" xlink:href="#linear-gradient"/><linearGradient id="linear-gradient-17" x1="80.56" y1="167.27" x2="80.83" y2="168.05" gradientTransform="matrix(15.27, 0, 0, -19.9, -1093.15, 3437.45)" xlink:href="#linear-gradient"/><linearGradient id="linear-gradient-18" x1="74.06" y1="16.85" x2="74.03" y2="24.36" gradientTransform="matrix(25.71, 0, 0, -1.31, -1672.02, 172.51)" gradientUnits="userSpaceOnUse"><stop offset="0.13" stop-color="#fff"/><stop offset="0.7" stop-color="#b0b0b1"/></linearGradient><linearGradient id="linear-gradient-19" x1="109.6" y1="179.87" x2="110.7" y2="181.24" gradientTransform="matrix(7.98, 0, 0, -13.3, -589.32, 2333.62)" gradientUnits="userSpaceOnUse"><stop offset="0.06" stop-color="#fff"/><stop offset="0.64" stop-color="#b9aba8"/></linearGradient><linearGradient id="linear-gradient-20" x1="82.7" y1="177.91" x2="83.21" y2="178.49" gradientTransform="matrix(20.54, 0, 0, -28.58, -1402.21, 5032.68)" xlink:href="#linear-gradient-18"/><linearGradient id="linear-gradient-21" x1="65.62" y1="173.1" x2="65.77" y2="174.45" gradientTransform="matrix(177.71, 0, 0, -50.21, -11497.98, 8930.16)" gradientUnits="userSpaceOnUse"><stop offset="0" stop-color="#fff"/><stop offset="0.16" stop-color="#fbfcfd"/><stop offset="0.29" stop-color="#f2f1f1"/><stop offset="0.41" stop-color="#e0e0e0"/><stop offset="0.52" stop-color="#c9c9c9"/><stop offset="0.63" stop-color="#ababab"/><stop offset="0.74" stop-color="#848484"/><stop offset="0.84" stop-color="#575757"/><stop offset="0.94" stop-color="#242424"/><stop offset="1"/></linearGradient><linearGradient id="linear-gradient-22" x1="68.23" y1="119.5" x2="68.24" y2="121.89" gradientTransform="matrix(63.45, 0, 0, -3.56, -4096.05, 601.49)" xlink:href="#linear-gradient-18"/><linearGradient id="linear-gradient-23" x1="75.63" y1="131.72" x2="76.63" y2="131.72" gradientTransform="matrix(42.85, 0, 0, -4.42, -2815.6, 753.76)" xlink:href="#linear-gradient-18"/></defs><g id="Group_2286" data-name="Group 2286"><g id="Group_2285" data-name="Group 2285"><path id="Path_5373" data-name="Path 5373" class="cls-1" d="M163.17,33.52h-1v-7h4.18v1h-3.17v2H166v1h-2.8Z"/><path id="Path_5374" data-name="Path 5374" class="cls-1" d="M170.63,31.46h-2.51c-.27.64-.62,1.48-.84,2.06h-1.09l2.81-7.1h.74l2.81,7.1h-1.08Zm-2.13-.95h1.74L169.38,28Z"/><path id="Path_5375" data-name="Path 5375" class="cls-1" d="M176.88,28.32a1.36,1.36,0,0,0-1.43-.89,1.69,1.69,0,0,0-1.27.53.89.89,0,0,0-.17.65c.05.73.84.82,1.59.89,1,.12,2.15.37,2.42,1.49a2.31,2.31,0,0,1,0,.46,2.64,2.64,0,0,1-5.12.24V31.5l1,0v.11c.07.65.86,1,1.51,1s1.57-.42,1.57-1.14a1,1,0,0,0,0-.24c-.12-.53-.84-.62-1.54-.69-1.09-.11-2.37-.36-2.48-1.82h0a1.88,1.88,0,0,1,.38-1.33,2.72,2.72,0,0,1,2.12-.93,2.24,2.24,0,0,1,2.39,1.85Z"/><path id="Path_5376" data-name="Path 5376" class="cls-1" d="M180.32,29.48h3v-3h1v7h-1v-3h-3v3h-1v-7h1Z"/><path id="Path_5377" data-name="Path 5377" class="cls-1" d="M188.75,27.53h-1.3v5h1.3v1h-3.61v-1h1.3v-5h-1.3v-1h3.61Z"/><path id="Path_5378" data-name="Path 5378" class="cls-1" d="M190.24,27.49a3.54,3.54,0,0,1,5,0l.05,0a3.59,3.59,0,0,1,0,5.06,3.54,3.54,0,0,1-5,.05l0-.05A3.61,3.61,0,0,1,190.24,27.49Zm4.34.72a2.53,2.53,0,0,0-1.82-.76,2.48,2.48,0,0,0-1.79.76,2.56,2.56,0,0,0,0,3.62,2.52,2.52,0,0,0,1.79.76,2.57,2.57,0,0,0,1.82-4.38Z"/><path id="Path_5379" data-name="Path 5379" class="cls-1" d="M197.47,33.52v-7h.78l3.42,4.94V26.51h1v7h-.8l-3.39-4.9v4.9Z"/><path id="Path_5380" data-name="Path 5380" class="cls-1" d="M210.8,26.52a1.75,1.75,0,0,1,1.7,1.16,1.6,1.6,0,0,1-.51,2,1.8,1.8,0,0,1,1.09,1.74,2,2,0,0,1-1.88,2.11h-3.31v-7Zm-1.91,2.79h1.89c1.1,0,1.12-1.82,0-1.82h-1.91Zm0,3.23h2.16a1.12,1.12,0,0,0,0-2.23h-2.16Z"/><path id="Path_5381" data-name="Path 5381" class="cls-1" d="M214.87,27.49a3.54,3.54,0,0,1,5,0l.05,0a3.59,3.59,0,0,1,0,5.06,3.54,3.54,0,0,1-5,.05l0-.05A3.61,3.61,0,0,1,214.87,27.49Zm4.34.72a2.53,2.53,0,0,0-1.81-.76,2.46,2.46,0,0,0-1.79.76,2.56,2.56,0,0,0,0,3.62h0a2.5,2.5,0,0,0,1.79.76,2.57,2.57,0,0,0,1.81-4.38Z"/><path id="Path_5382" data-name="Path 5382" class="cls-1" d="M222.24,31.42v-4.9h1v4.9c0,.78.83,1.16,1.57,1.16s1.56-.39,1.56-1.17V26.52h1v4.9a2.63,2.63,0,0,1-5.18,0Z"/><path id="Path_5383" data-name="Path 5383" class="cls-1" d="M229.55,33.55v-6.1h-2.12v-.94h5.24v.94h-2.11v6.1Z"/><path id="Path_5384" data-name="Path 5384" class="cls-1" d="M237.14,27.53h-1.3v5h1.3v1h-3.61v-1h1.3v-5h-1.3v-1h3.61Z"/><path id="Path_5385" data-name="Path 5385" class="cls-1" d="M245.21,33.52h-1.1l-.66-.59a3.73,3.73,0,0,1-4.74-.38,3.79,3.79,0,0,1-1-2.53,3.7,3.7,0,0,1,1-2.54,3.55,3.55,0,0,1,5,0l.05,0a3.66,3.66,0,0,1,1,2.54,3.57,3.57,0,0,1-.76,2.19l1.16,1.09ZM243,28.21a2.51,2.51,0,0,0-3.6,0,2.6,2.6,0,0,0,3.22,4l-1.94-1.73h1.4l1.19,1.08a2.66,2.66,0,0,0,.48-1.56A2.56,2.56,0,0,0,243,28.21Z"/><path id="Path_5386" data-name="Path 5386" class="cls-1" d="M246.06,31.42v-4.9h1v4.9c0,.78.83,1.16,1.57,1.16s1.56-.39,1.56-1.17V26.52h1v4.9a2.63,2.63,0,0,1-5.17,0Z"/><path id="Path_5387" data-name="Path 5387" class="cls-1" d="M253.42,32.51h3.25v1h-4.28v-7h4.27v1h-3.24v2h3.17v1h-3.17Z"/></g></g><g id="Group_2491" data-name="Group 2491"><rect id="Rectangle_737" data-name="Rectangle 737" class="cls-2" x="104.57" y="5.8" width="256.39" height="136.23"/><path id="Path_5370" data-name="Path 5370" class="cls-1" d="M109.22,11.59,101.64,9v138.4l7.58.9Z"/><rect id="Rectangle_738" data-name="Rectangle 738" class="cls-3" x="175.3" y="10.77" width="112.06" height="130.48"/><path id="Path_5388" data-name="Path 5388" class="cls-4" d="M384.7,153.9l-24.35-12.65H96S35.81,164.3,32.29,164.3v59.95H384.77Z"/><g id="Group_2331" data-name="Group 2331"><g id="Group_2303" data-name="Group 2303"><g id="Group_2302" data-name="Group 2302"><rect id="Rectangle_739" data-name="Rectangle 739" class="cls-5" x="210.89" y="92.36" width="2.35" height="10.04"/></g><path id="Path_5408" data-name="Path 5408" class="cls-5" d="M220.1,96.38a.44.44,0,0,1-.45.44H204.48a.44.44,0,0,1-.45-.44h0V85.89a.45.45,0,0,1,.45-.44h15.17a.45.45,0,0,1,.45.44h0Z"/></g><path id="Path_5409" data-name="Path 5409" d="M230.49,76.52c-.74.22-3.79,4.35-3.12,6.58s4.09,2,4.09,2l2.08-7Z"/><g id="Group_2308" data-name="Group 2308"><path id="Path_5410" data-name="Path 5410" class="cls-3" d="M229.05,71.11c-1.3,2.18,1,6.74,2.07,7.08,2.17.66,1.64,5.21,1.64,5.21V71Z"/><g id="Group_2305" data-name="Group 2305"><path id="Path_5411" data-name="Path 5411" class="cls-6" d="M232.68,85.63l-2.27-4.13a10.59,10.59,0,0,0,.69-4.13l1.8-.14h0l2-.06c0,3.68.91,4.2.91,4.2l-2.06,3.15Z"/><g id="Group_2304" data-name="Group 2304"><path id="Path_5412" data-name="Path 5412" class="cls-7" d="M232.87,77.16h0l2-.12a6.2,6.2,0,0,0,0,1.22c-.42.65-3.21,4.11-4,4.13-.68,0-.09-.62-.54-1.08.6-.61.8-3.85.79-4Z"/></g></g><g id="Group_2307" data-name="Group 2307"><g id="Group_2306" data-name="Group 2306"><path id="Path_5413" data-name="Path 5413" class="cls-6" d="M229.14,74.41c.38,2.51,2.48,4.61,3.7,4.57s3.06-1.46,3.5-4.69c.36-2.65-.37-5.27-3.68-5.18C229.55,69.19,228.73,71.78,229.14,74.41Z"/></g></g><path id="Path_5414" data-name="Path 5414" d="M232.62,71c-1,1-2.63.22-3,1.93a9.49,9.49,0,0,0,.4,4.3c.24.94-1.23-.64-1.54-3.6a4.54,4.54,0,0,1,1.63-4.22,3,3,0,0,1,2.55-.49C232.75,69.06,232.62,71,232.62,71Z"/><path id="Path_5415" data-name="Path 5415" class="cls-8" d="M232.64,71c.8.83,2.55,0,3,1.72a7.56,7.56,0,0,1,.11,3.63c-.29,1.18.39-.13.61-.75a8.3,8.3,0,0,0,.34-2.48A4.39,4.39,0,0,0,235,69.39c-1.15-.77-2.4-.72-2.4-.5S232.64,71,232.64,71Z"/><path id="Path_5416" data-name="Path 5416" class="cls-5" d="M230.71,80.3c-2.11,1-2.78,1-3.94,1.58-2.21,1.13-2.06,5.46-2.06,5.46s2.35.25,2.54.78A26,26,0,0,1,228.41,93c0,1-1,9.42-1,9.42l7.81-1L233.65,82.9s-2.22,1-3-2Z"/><path id="Path_5417" data-name="Path 5417" class="cls-9" d="M235.37,80.34c2.16.85,2.77.52,3.87,1.21s1.34,4.29,1.34,4.29-2.17.79-2.34,1.33a59.59,59.59,0,0,0-.83,6.08c0,.77,1.15,7.57,1.15,7.57l-5.73,1.26-.16-19a2.89,2.89,0,0,0,2.67-2.37Z"/><path id="Path_5418" data-name="Path 5418" class="cls-6" d="M228.76,93a2.5,2.5,0,0,0,1.23.23c1.1-.12,2.67-.34,2.85-.34a2.63,2.63,0,0,1,1.3.47c.39.23.12.39-.3.27l-.78-.22-.45.18-.09,0,1.31.4c.13,0,.74.42.91.5s.32.45-.08.37a13.84,13.84,0,0,1-1.43-.44c-.26-.08-.33,0-.33,0a6.34,6.34,0,0,1,1.77.72c.18.2,0,.38-.4.25l-1.6-.52,1.34.67s.29.47-.36.27c-1.11-.28-2.24-.51-3.37-.68-.59-.1-1.86-.22-1.93-.25C227.88,94.7,227.89,94,228.76,93Z"/><path id="Path_5419" data-name="Path 5419" class="cls-5" d="M224.88,85.07c-.2,1.87-1.45,7.22-1.45,8.26a2.23,2.23,0,0,0,1,2s4.8,1.8,4.83,1.35a16.08,16.08,0,0,1,.43-3.77,9.77,9.77,0,0,1-2.66-.76l1.27-4.31Z"/><path id="Path_5420" data-name="Path 5420" class="cls-6" d="M241.35,99c.15.4.39,1,.49,1.25s1.18.38,1.5.37a6.78,6.78,0,0,1,.72,0s.4-.19-.05-.32a5.19,5.19,0,0,0-1-.15l1.18,0a7.26,7.26,0,0,1,1.36.46c.28.08.77-.06.63-.2a11.35,11.35,0,0,0-1.61-1.13c-.32-.13-1.9-.23-2-.31A5,5,0,0,0,241.35,99Z"/><path id="Path_5421" data-name="Path 5421" class="cls-10" d="M240.07,83c.22.74,1.36,8.37,1.38,9s1.82,6.55,1.83,7-2.53.37-2.53.37a62.85,62.85,0,0,1-2.3-6.32c-.09-.95-1-6.19-1-6.19Z"/></g><g id="Group_2311" data-name="Group 2311"><g id="Group_2309" data-name="Group 2309"><path id="Path_5422" data-name="Path 5422" class="cls-11" d="M207.44,135.35h2.15V123.77h-2.15Z"/><path id="Path_5423" data-name="Path 5423" class="cls-11" d="M258.76,135.35h2.14V123.77h-2.14Z"/></g><path id="Path_5424" data-name="Path 5424" class="cls-11" d="M205.69,131.91h57V102.79h-57Z"/><path id="Path_5425" data-name="Path 5425" class="cls-12" d="M262.69,120.77l-16.06,11.16H205.69V120Z"/><path id="Path_5426" data-name="Path 5426" class="cls-13" d="M263.77,109l-6.11,11.15h-51.9V108.2Z"/><g id="Group_2310" data-name="Group 2310"><path id="Path_5427" data-name="Path 5427" class="cls-14" d="M266,119.58H202l3.69-1.37h57Z"/><rect id="Rectangle_740" data-name="Rectangle 740" class="cls-11" x="201.93" y="119.58" width="64.03" height="1.26"/></g><rect id="Rectangle_741" data-name="Rectangle 741" class="cls-14" x="201.71" y="100.38" width="64.93" height="9.06"/></g><path id="Path_5428" data-name="Path 5428" d="M229.43,78.19c-.39.73-1.84,3.4-.33,6s2.06,2.4,1.11,3.57c1.23-.89,1.56-2.12.62-4.3a5.61,5.61,0,0,1,0-4.24A8.34,8.34,0,0,0,229.43,78.19Z"/><g id="Group_2312" data-name="Group 2312"><rect id="Rectangle_742" data-name="Rectangle 742" class="cls-15" x="234.8" y="84.44" width="2.42" height="1.29"/><rect id="Rectangle_743" data-name="Rectangle 743" class="cls-16" x="235.04" y="84.65" width="1.92" height="0.87"/></g><path id="Path_5429" data-name="Path 5429" class="cls-17" d="M258.17,103.19l-24,15h24.35l5.49-2.78Z"/><g id="Group_2330" data-name="Group 2330"><path id="Path_5430" data-name="Path 5430" class="cls-6" d="M270.57,83.18c-1,.17-6.2,1.92-6.73,1.95s-4.1-3.4-4.1-3.4l-1.13.76s3.74,4.54,4.4,4.77a57.59,57.59,0,0,0,6.7.13C270.23,87.37,270.57,83.18,270.57,83.18Z"/><path id="Path_5431" data-name="Path 5431" class="cls-18" d="M269.58,82.94a28.33,28.33,0,0,1-4.65,1.76l.46,3,3.24.35Z"/><g id="Group_2314" data-name="Group 2314"><g id="Group_2313" data-name="Group 2313"><path id="Path_5432" data-name="Path 5432" class="cls-19" d="M268.63,111.65c-.23,1.67,1.11,6,1.59,6.76s1.74,10.88,1.63,12.2c-.13,1.63-1.73,3.62-3.61,4.5,1.07.66,3.3-.23,4.3-1.92.54-.91,1.69.63,1.9,0,.47-1.42-.32-1.9-.32-4s1.5-8.68,0-12c-.92-2-.47-4.92-.71-5.63S268.63,111.65,268.63,111.65Z"/></g><path id="Path_5433" data-name="Path 5433" d="M274.23,130.24a2.27,2.27,0,0,1,.66,2.16,11.16,11.16,0,0,0-.51,3.54c-.45.11-.46,0-.46,0s0-3-.43-2.83-1,2-1.75,2.82-3.79.59-4,.34a.79.79,0,0,1,.22-1.1,1.29,1.29,0,0,1,.16-.09,5.86,5.86,0,0,0,1.24-.71s1.8.63,2.52-.48S274.23,130.24,274.23,130.24Z"/></g><path id="Path_5434" data-name="Path 5434" class="cls-19" d="M257.88,79.9a7.13,7.13,0,0,0-2,.09.74.74,0,0,0-.31.62c0,.44-.2,1-.05,1.1s.28-.39.29-.58a1.88,1.88,0,0,1,.52-.78C256.4,80.35,257.88,79.9,257.88,79.9Z"/><path id="Path_5435" data-name="Path 5435" class="cls-6" d="M260,82c-.13-.07-2-2-2.12-2.08s-1.63.16-1.74.17a.44.44,0,0,0-.33.29,5.52,5.52,0,0,0-.18,1.62c.12.18.23,0,.32-.1l.37-1.07a2.91,2.91,0,0,1,.5-.16,1.54,1.54,0,0,1,.5.24l-.19.49s-.08.77.34.82a2.68,2.68,0,0,1,1.34.45C259,82.87,260,82,260,82Z"/><g id="Group_2315" data-name="Group 2315"><path id="Path_5436" data-name="Path 5436" class="cls-19" d="M268.55,78.75c1.12,1,2.19,1.76-.19,5.93-.42.75,1.64-1,2.91-1.64s1.13-1.77,1.86-2a8.49,8.49,0,0,1-.85-5.12C272.67,74.19,268.55,78.75,268.55,78.75Z"/><path id="Path_5437" data-name="Path 5437" class="cls-6" d="M272.29,73.45a3.79,3.79,0,0,0-4.19-3.33,4.67,4.67,0,0,0-.65.13c-2.21.46-3.06,2.46-2.48,5.24a9.86,9.86,0,0,0,.43,1.5,6.13,6.13,0,0,1-.1,1c0,.23.36.26.69.24a3.07,3.07,0,0,0,3.3,1.65C271.5,79.37,272.86,76.23,272.29,73.45Z"/><path id="Path_5438" data-name="Path 5438" class="cls-19" d="M272.34,73.45a3.77,3.77,0,0,0-4.19-3.33,4.53,4.53,0,0,0-.64.13c-.42.09.87,1.09.56,1.28.67.91,2.61,7.12.56,8.36a2.8,2.8,0,0,0,.71-.06C271.55,79.37,272.92,76.23,272.34,73.45Z"/><path id="Path_5439" data-name="Path 5439" d="M267.34,73.53l-2.54-.48c-.33-.52.35-2.72,3.75-3,3.11-.3,4.13,1.51,4.58,3.3s-.9,4.67-.9,4.67-2.64-1.12-2.28-1.78c.23-.41.45-1.82-.18-1.78-.3,0-.52.41-.52.41Z"/><path id="Path_5440" data-name="Path 5440" d="M264.83,72.38c-.79,0-1.56,1.76-.84,3a40.67,40.67,0,0,0,4.75-1.69l-2-1.28Z"/></g><path id="Path_5441" data-name="Path 5441" class="cls-6" d="M270,112.22c-.24,1.66,1.35,5.7,1.82,6.41s1.67,11.48,1.67,12.2a7,7,0,0,1-2.41,4.55c2.53.7,3.16-1.46,4.43-1.9,1-.36.92-.36,1.13-1,.47-1.43-.92-1.24-.92-3.38s2-8.18.46-11.51c-.92-2-.48-4.91-.72-5.62S270,112.22,270,112.22Z"/><g id="Group_2317" data-name="Group 2317"><g id="Group_2316" data-name="Group 2316"><path id="Path_5442" data-name="Path 5442" class="cls-20" d="M271.1,123.37l-.71-4.53c-.29-.47-1.45-2.9-.87-3.85,1.52-1,4.28-2.07,5-1.67a6.16,6.16,0,0,1,1,.77,9.43,9.43,0,0,0,.62,3.44C276.74,118.83,273,121.74,271.1,123.37Z"/></g></g><path id="Path_5443" data-name="Path 5443" class="cls-21" d="M271,82.41c-.58.44-2.44,1.72-2.44,1.72-1,1.9-2,3.52-2.23,4.2a4.13,4.13,0,0,0,.59,2.85,7.11,7.11,0,0,1,.75,2.62c0,.63.27,2.72.27,2.72s5.33-.36,6.1-.61c.47-.16.76-4.09.92-6.63s.19-5.48-2.06-8.26C272.12,81.62,271.92,81.74,271,82.41Z"/><g id="Group_2318" data-name="Group 2318"><path id="Path_5444" data-name="Path 5444" class="cls-18" d="M275,89.24c-.16,2.54-.45,6.47-.92,6.63h0l-2.39,1a3.32,3.32,0,0,1-.44-2.15c0-.37.32-9.08.32-10.27a3.06,3.06,0,0,0-.4-2.11c.74-.51,1.57-1.5,1.8-1.62C275.21,83.47,275.16,86.71,275,89.24Z"/></g><g id="Group_2320" data-name="Group 2320"><path id="Path_5445" data-name="Path 5445" class="cls-21" d="M274.31,94.92c2.54,3,2.82,7.88,3.54,11.79a50.39,50.39,0,0,1,.28,9.59l-11.4.11,1.22-21Z"/><g id="Group_2319" data-name="Group 2319"><path id="Path_5446" data-name="Path 5446" class="cls-18" d="M277.85,106.76a56.32,56.32,0,0,1,.44,9.54l-5.05.07c-.09-2.27-.39-12.82-.69-15-.28-2-1.41-6-1.28-6.27l3.06-.3C276.87,97.73,277.13,102.85,277.85,106.76Z"/></g></g><path id="Path_5447" data-name="Path 5447" class="cls-8" d="M276.29,131a2.29,2.29,0,0,1,.58,2.17,11.39,11.39,0,0,0-.63,3.52c-.45.1-.46,0-.46,0s.09-3-.33-2.85-1.09,1.93-1.84,2.77-3.72.58-3.89.33-.34-1,.33-1.3a6.09,6.09,0,0,0,1.26-.67s1.54.55,2.3-.54S276.29,131,276.29,131Z"/><path id="Path_5448" data-name="Path 5448" d="M272.92,74.17c.76.09,4.29,3.44,3.57,7.71s-.18,6.05,1.37,5.74c-1.87,1.61-4.52-.74-4-3.24.57-2.83-.33-2.42-.26-2.39.45.18,0,1.66-.35,2.25.4-.71-1.12-2-.41-3.4,1.36-2.78.4-4.17-.22-5.22A1.13,1.13,0,0,1,272.92,74.17Z"/><g id="Group_2323" data-name="Group 2323"><g id="Group_2322" data-name="Group 2322"><path id="Path_5449" data-name="Path 5449" class="cls-22" d="M256.49,84.1v-.79h0c0-.51.63-.79.61-1.16h0V82.1h0a.56.56,0,0,0-.53-.6.21.21,0,0,0-.11,0h0a.63.63,0,0,0-.64.62v0h0v.09h0a.13.13,0,0,1-.12.15h0a.15.15,0,0,1-.15-.12h0v-.12h0a.9.9,0,0,1,.85-.94h.09a.86.86,0,0,1,.92.8v.07h0v.05h0c-.05.58-.66.91-.62,1.16h0v.79h0a.13.13,0,0,1-.13.13h0a.13.13,0,0,1-.14-.13h0Z"/><rect id="Rectangle_744" data-name="Rectangle 744" class="cls-14" x="249.53" y="88.17" width="14.26" height="0.35"/><g id="Group_2321" data-name="Group 2321"><path id="Path_5450" data-name="Path 5450" class="cls-14" d="M256.64,85.11l7.37,3.7s.4-.55-.43-1.09-4.94-2.44-5.13-2.69-.88-1.56-1.83-1.56C256.64,84.18,256.64,85.11,256.64,85.11Z"/><path id="Path_5451" data-name="Path 5451" class="cls-11" d="M256.67,85.1l-7.38,3.7s-.4-.54.44-1.09,4.94-2.43,5.12-2.68.87-1.56,1.81-1.56C256.65,84.18,256.67,85.1,256.67,85.1Z"/></g></g><path id="Path_5452" data-name="Path 5452" class="cls-6" d="M252.86,85.9c0,1.65,2.25,4.54,4.34,4.54l.66,12.25s-5.82.2-6.65-.31,1.86-2.33-.31-10.38a2.65,2.65,0,0,0,1-1.76,12.7,12.7,0,0,0-.52-3.83Z"/><path id="Path_5453" data-name="Path 5453" class="cls-6" d="M260.2,85.9c0,1.65-1.7,4.38-3.79,4.38l0,12.46s5,0,5.49-.36c.82-.52-1.87-2.33.3-10.38a2.69,2.69,0,0,1-1-1.76,12.7,12.7,0,0,1,.53-3.83Z"/></g><path id="Path_5454" data-name="Path 5454" class="cls-6" d="M258.38,82.29a4.55,4.55,0,0,1-1.21-.14,4.36,4.36,0,0,0-1-.1c-.13.06-.39.27-.38,0s.09-.46.57-.49a1.78,1.78,0,0,0,1-.36c.23-.14.25-.38.34-.38A12.51,12.51,0,0,1,258.38,82.29Z"/><g id="Group_2326" data-name="Group 2326"><path id="Path_5455" data-name="Path 5455" class="cls-23" d="M258.52,102.85c-1.2.1-.48.2-.95,5.17s-.57,5.31-.57,5.31l5.07.46s.41-6-.81-7.88A14.76,14.76,0,0,0,258.52,102.85Z"/><g id="Group_2325" data-name="Group 2325"><path id="Path_5456" data-name="Path 5456" class="cls-22" d="M263.41,98.6v-.93h0c0-.6.74-.93.73-1.37h0v0h0a.68.68,0,0,0-.64-.72h-.17a.75.75,0,0,0-.75.75v0h0v.1h0a.16.16,0,0,1-.14.18h0a.16.16,0,0,1-.18-.14h0a.57.57,0,0,0,0-.13h0a1.07,1.07,0,0,1,1-1.11h0a.06.06,0,0,1,.06,0h0a1,1,0,0,1,1.08.94v.09h0v.06h0c-.06.68-.78,1.06-.73,1.36h0v.93h0a.16.16,0,0,1-.16.15h0a.15.15,0,0,1-.15-.15Z"/><rect id="Rectangle_745" data-name="Rectangle 745" class="cls-14" x="255.22" y="103.4" width="16.8" height="0.41"/><g id="Group_2324" data-name="Group 2324"><path id="Path_5457" data-name="Path 5457" class="cls-14" d="M263.59,99.78l8.69,4.37s.47-.65-.52-1.29-5.82-2.87-6-3.17-1.05-1.83-2.16-1.83C263.59,98.69,263.59,99.78,263.59,99.78Z"/><path id="Path_5458" data-name="Path 5458" class="cls-11" d="M263.63,99.78l-8.7,4.37s-.47-.65.52-1.29,5.82-2.87,6-3.17,1-1.83,2.14-1.83C263.6,98.7,263.63,99.78,263.63,99.78Z"/></g></g><path id="Path_5459" data-name="Path 5459" class="cls-24" d="M258,103c2.46-1.27,10.21-1.16,11.26.1,0,0,1.11.37,1.53,4.91s1.85,5.7,2.38,6c-1.22,1.43-1.06,2.06-2.53,1.74s-.22-.31-2,.22-3,1.16-4.54.42-1.27,0-2.54.1-2.95.06-3-.21a34.86,34.86,0,0,1,.05-8.23C258.89,104.33,258,103,258,103Z"/><path id="Path_5460" data-name="Path 5460" class="cls-23" d="M268.12,105.36c.37,2.32,1.8,9.61,2.9,10.35a1.52,1.52,0,0,1-1.16-.16,77.08,77.08,0,0,1-1.9-10.77C268.07,103.62,268.12,105.36,268.12,105.36Z"/><path id="Path_5461" data-name="Path 5461" class="cls-23" d="M263.2,105.45c0,2.07,1.62,10.84,1.72,11.19-.56-.07-1.3-.67-1.65-.63s-.57.17-.57,0S263.2,105.45,263.2,105.45Z"/><path id="Path_5462" data-name="Path 5462" class="cls-23" d="M260,106.65a84.55,84.55,0,0,0,.32,9.81c-.6.14-.81,0-.81,0Z"/></g><path id="Path_5463" data-name="Path 5463" class="cls-25" d="M270.59,83.55l-4.18,6.13s.56,1.34.95,2.12a10.2,10.2,0,0,1,.5,3.24c0,.56,4.63-2.79,4.63-4.74S270.59,83.55,270.59,83.55Z"/><g id="Group_2329" data-name="Group 2329"><path id="Path_5464" data-name="Path 5464" class="cls-6" d="M274.08,86.13c-.69-2.81-3.06-2.27-3-2.12-1,.36-.91,1.5-.63,2.66.33,1.37.84,5.28.5,5.73s-4.24,2.56-5,2.5-1.65-.59-2.24-.38a2.29,2.29,0,0,0-1.15,1.93c0,.33,0,.91.56.82s.62-.62,1.34-.71a7.4,7.4,0,0,1,1.56,0,4.21,4.21,0,0,0,.62,0c2-.16,6.12-1.19,7-2.6S274.57,88.17,274.08,86.13Z"/><g id="Group_2328" data-name="Group 2328"><path id="Path_5465" data-name="Path 5465" class="cls-21" d="M270.06,84.9c0,.79.18,6.42.18,6.42l4.22-.18s.65-6.2-.65-7.4c-1.14-1-2.46-1.16-3.1-.35A2.82,2.82,0,0,0,270.06,84.9Z"/><g id="Group_2327" data-name="Group 2327"><path id="Path_5466" data-name="Path 5466" class="cls-18" d="M273.81,83.75c1.3,1.2.76,7.34.76,7.34l-2.43.12a28.49,28.49,0,0,0,.07-4.8c-.11-1.71-.19-3.1-.7-3.49A2.69,2.69,0,0,1,273.81,83.75Z"/></g></g></g></g></g><g id="Group_2363" data-name="Group 2363"><path id="Path_5467" data-name="Path 5467" class="cls-15" d="M356.13,147.6c0-.89.12-1.64.65-2h0l.23.38c-.25.12-.44.76-.43,1.61h0a14.6,14.6,0,0,0,1.11,5.25h0l-.38.22a14.71,14.71,0,0,1-1.18-5.47Z"/><path id="Path_5468" data-name="Path 5468" class="cls-15" d="M357.61,145.87l-.17,0h0l-.1-.44a.82.82,0,0,1,.27,0h0c1.85.06,3.84,3.25,4.46,6.89h0l-.44.07c-.54-3.53-2.69-6.59-4-6.52Z"/><path id="Path_5469" data-name="Path 5469" class="cls-23" d="M356.42,152.49l6.34-1.25,6.49,19.54-9.59,2.37Z"/><path id="Path_5470" data-name="Path 5470" class="cls-26" d="M359.81,155.86a6.63,6.63,0,0,0,.05-1h0a26.44,26.44,0,0,0-.65-5.53h0c-.43-1.91-1.2-3.37-2-3.31h0a1,1,0,0,0-.56.17h0l-.22-.38a1.52,1.52,0,0,1,.77-.24h0c1.29.06,1.95,1.74,2.43,3.66h0a27.4,27.4,0,0,1,.66,5.63h0a9.46,9.46,0,0,1-.06,1.07h0l-.44-.07Z"/><path id="Path_5471" data-name="Path 5471" class="cls-27" d="M358.29,142.85c0-.26,0-1.14-.07-2.16a58.5,58.5,0,0,0-1.31-14.39c-.15-11.18-.56-18-3.24-20.78-1.44-1.52-1.07-1.47-2.57-1.74-1.26-.53-4.35-.33-5.79-3.1-.35-2-.8-4.74-.8-5.24l-2.61-.18h0l-2.71.18c0,.82-.71,7.06-.71,7.06l1.29,14.61c0,4.8,2,2.63,2.76,2.79,1,.22,5.4-4,5.88-5.23.9-2.35,1.9-.57,2.68-.47s1.95,13.43,2.06,14c0,0,.79,5.1,1.7,9.36h0c.22,2.34,1.07,4.54.92,5.21a9,9,0,0,0-.65,2.54c.07.57.1,1.54.27,2.43a7.1,7.1,0,0,1-.73-.24s-.23-.12-.25.2c-.05.77,1.15,1.36,1.75,1.31s2.45-.75,2.57-1.31S358.26,143.54,358.29,142.85Zm-2,5c-.06.09-.24.1-.45.07a5.41,5.41,0,0,0,.2-1.65c-.1-.61.06-.81.32-.4a3,3,0,0,1-.07,2Z"/><g id="Group_2333" data-name="Group 2333"><g id="Group_2332" data-name="Group 2332"><path id="Path_5472" data-name="Path 5472" class="cls-28" d="M299.08,172.72c1.3,4.05.85,6.8,1.1,8.46a55.49,55.49,0,0,0,3.88,15c3,7.18,2.54,8.75,2.39,11.6s-1.12,4.88.43,5.78,4.7-3,4.75-6.62c0-2.41-.68-3-1.2-4.59s-1.19-9.18-1.64-14.2-1.23-7.5-1.2-9.8a34.69,34.69,0,0,0-.63-6.75Z"/></g><path id="Path_5473" data-name="Path 5473" d="M310.92,203.4a3.53,3.53,0,0,1,1.24,2.92c0,1.6.18,5,.18,5s-.43.51-.54,0a23.63,23.63,0,0,0-.51-2.33c-.06-.13.07,3.72-.52,5.32-.79,2.19-3.37,1.72-3.37,1.72s2.28-2.47,3.41-8.87C311.35,204.12,310.92,203.4,310.92,203.4Z"/></g><path id="Path_5474" data-name="Path 5474" class="cls-29" d="M281,164.24a.3.3,0,0,1-.22-.33h0a37,37,0,0,1,2.2-6.3h0c1-2.2,1.9-4,2.92-4.16h0a.61.61,0,0,1,.48.25h0a.27.27,0,0,1,0,.37h0A.27.27,0,0,1,286,154h0c-.05-.05-.05,0-.06,0h0c-.29-.12-1.53,1.67-2.43,3.84h0a37,37,0,0,0-2.15,6.2h0a.28.28,0,0,1-.27.22H281Z"/><g id="Group_2337" data-name="Group 2337"><path id="Path_5475" data-name="Path 5475" class="cls-15" d="M286.9,164l-8-.67L274,196.68l12,1Z"/><g id="Group_2336" data-name="Group 2336"><g id="Group_2335" data-name="Group 2335"><g id="Group_2334" data-name="Group 2334"><path id="Path_5476" data-name="Path 5476" class="cls-29" d="M274,196.68l5.92.5,2.8-33.52-3.86-.32Z"/></g></g></g></g><path id="Path_5477" data-name="Path 5477" class="cls-29" d="M285,163a.27.27,0,0,1-.25-.29h0a31.07,31.07,0,0,1,1.34-7.22h0a.28.28,0,0,1,.35-.16h0a.28.28,0,0,1,.15.36h0a30.22,30.22,0,0,0-1.3,7.05h0a.28.28,0,0,1-.27.26Z"/><g id="Group_2338" data-name="Group 2338"><path id="Path_5478" data-name="Path 5478" class="cls-27" d="M315.83,172.89c-1.1,4.1-.71,9.42-.87,11.09a56.14,56.14,0,0,1-3.13,15.15c-2.66,7.32-2.46,8.19-2.17,11s.63,5.36.19,5.79c-3.2,3.2-5.56.44-5.21-3.18.25-2.67.45-4.74.71-6.3a13.14,13.14,0,0,1,.31-1.46c.44-1.65.71-8.56.91-13.6s.87-7.79.72-10.09c-.22-3.54,0-9.52,0-9.52Z"/><path id="Path_5479" data-name="Path 5479" class="cls-8" d="M309.79,210.75c.33,2.84-.92,4.76-2.4,4.76s-2.67-2.19-2.74-4.16c-.51,2.33-.87,4,0,6,1.42,3.52,4.38,2.88,5.52.22C311.43,214.52,309.79,210.75,309.79,210.75Z"/></g><path id="Path_5480" data-name="Path 5480" class="cls-30" d="M314.55,86c1.31,3.33,4.83,20.56,5.41,22s-13.71,2.85-13.71,2.85l-1.16-19.77Z"/><path id="Path_5481" data-name="Path 5481" class="cls-3" d="M298,85.76c-.65,2-6.05,23.41-6.05,23.41h16.63l-7-25.16Z"/><g id="Group_2339" data-name="Group 2339"><path id="Path_5482" data-name="Path 5482" class="cls-28" d="M335.28,201.07c.88,2,0,4.81-.54,6.56s-1,6.07,1.31,6.35c3.61.43,4.7-3,4.41-6.79a55.67,55.67,0,0,0-.91-6.67Z"/><path id="Path_5483" data-name="Path 5483" d="M334.73,207.63c-.11,1.86.25,4.29,1.75,4.81s3.84-3.5,4.16-4.7c.44,1.1.22,6.13-2.08,7.88s-3.72,2-4.27,1.21-1.63-4.6-.76-6.68A15.32,15.32,0,0,1,334.73,207.63Z"/></g><path id="Path_5484" data-name="Path 5484" d="M328.94,138.16c-1.32,3.94-2.43,6-1.75,15.21a171.29,171.29,0,0,0,3.28,24.07s1.53,19.69,3.72,27.13c1.75,1.53,7.44-.66,7.44-.66S339.29,181.14,339,177c-.22-3.21,1-24.73,1-26.48s1-13.24,1-13.24Z"/><path id="Path_5485" data-name="Path 5485" class="cls-27" d="M346.51,203.76c0,2.34-.56,6.75.24,9.57.27.94-.71,3.58-2.79,3.56a3.66,3.66,0,0,1-3.64-3.57c.21-3.94,1.6-8.15,1.82-10.14S346.51,203.76,346.51,203.76Z"/><path id="Path_5486" data-name="Path 5486" class="cls-8" d="M348.19,129.52c2.9,5.11,5.72,16,5.26,23.88s-3.38,18.63-3,26.5-2.36,23-3.09,25.69-7.51.29-7.51.29c-.66-4.81,1.24-18.74.65-28.66-.26-4.46.29-27.16-.76-27.46-.77-.22-.33-20.35-.33-20.35Z"/><path id="Path_5487" data-name="Path 5487" class="cls-28" d="M291.34,144.62c-.31,2.34-1.71,4.13-1.71,5.07s.48,2.58.14,3.57a28.92,28.92,0,0,1-1.31,3.69c-.62,1.25-.58-2-.27-2.81s.15-1.1-.31-.63a4.05,4.05,0,0,0-.47,2.66c.15.47,2.34.13,2.34.13s.34-.1.28.34c-.16,1-1.93,1.48-2.71,1.23-1-.32-3-1.7-3-2.49s1.75-5.46,1.91-6.4,1.13-6.79,1.13-6.79Z"/><path id="Path_5488" data-name="Path 5488" class="cls-31" d="M285.37,146.86l-.52,3.34,5.71.67.15-3.27Z"/><g id="Group_2341" data-name="Group 2341"><path id="Path_5489" data-name="Path 5489" class="cls-6" d="M307.18,109.26l-4.63-4.42s.84-6.53.84-7.39l3.45-.18h0l3.46.18c0,.86,1,7.86,1,7.86l-4.11,4Z"/><g id="Group_2340" data-name="Group 2340"><path id="Path_5490" data-name="Path 5490" class="cls-32" d="M306.79,97.11h0l3.45.19c0,.28.11,1.22.24,2.36-.86,1.28-5.1,5.61-6.76,5.61-1.39,0-.34.47-1.23-.46.18-1.4.8-7.19.8-7.51Z"/></g></g><g id="Group_2344" data-name="Group 2344"><g id="Group_2342" data-name="Group 2342"><path id="Path_5491" data-name="Path 5491" class="cls-27" d="M299.39,91.37c.66,5.09,4.78,9.42,7.24,9.42,2.74,0,6.25-2.78,7.31-9.29.86-5.34-.49-10.65-7.18-10.65C300.49,80.85,298.71,86,299.39,91.37Z"/></g><g id="Group_2343" data-name="Group 2343"><path id="Path_5492" data-name="Path 5492" class="cls-28" d="M299.39,91.37c-.46-5.35,1.09-10.49,7.34-10.52v19.93h-.1C304.17,100.79,300,98.07,299.39,91.37Z"/></g></g><path id="Path_5493" data-name="Path 5493" class="cls-3" d="M304.94,84.7c-2.06,2-3.7,3-4.5,6.47-.35,1.53-1.48,5-1.59,6.08-.2,2-2.08-3.45-2.08-3.45s-.49-9.28,4.69-12.7c2.29-1.51,3.5-.68,3.63-.37S304.94,84.7,304.94,84.7Z"/><path id="Path_5494" data-name="Path 5494" class="cls-30" d="M303.88,85.32c1.54,1.73,7.6,1.64,8.76,6,.32,1.21,1.94,6.31,1.09,8.2-1.1,2.49,2.08-3.06,2.08-3.06S316.58,88,313,82.91c-3.5-4.92-8.81-3-8.83-2.55S303.88,85.32,303.88,85.32Z"/><g id="Group_2346" data-name="Group 2346"><path id="Path_5495" data-name="Path 5495" class="cls-15" d="M311.15,103.81c.2-.26,2.19,1.15,4.39,1.27,1.06,0-2.93,11.24-8.08,13.2-7.62,2.88-9.34-10.78-9.57-11.93s4.73-2.08,4.73-2.65C304.63,104.84,309.22,106.28,311.15,103.81Z"/><g id="Group_2345" data-name="Group 2345"><path id="Path_5496" data-name="Path 5496" class="cls-31" d="M297.92,106.31c-.23-1.15,4.72-2.07,4.72-2.64.6,1.12,2.4,1.37,4.2,1.41l-.17,13.54C301.21,118,298.11,107.28,297.92,106.31Z"/></g></g><path id="Path_5497" data-name="Path 5497" class="cls-9" d="M302.19,103.12c-4.31,1.81-6.49,1.73-8.67,3.18s-3.37,7.43-3.37,7.43,4,5.1,4.4,6.19a58.9,58.9,0,0,1,2.24,13.64c0,.74,11.19.21,11.19.21l-.93-14a98.41,98.41,0,0,1-5-14.75Z"/><path id="Path_5498" data-name="Path 5498" class="cls-15" d="M311.92,103.81c4.31,1.82,5.32,1,7.5,2.49S326,121.64,326,121.64a11.6,11.6,0,0,0-3.66,2.57c-.27.31-4.15-4.22-4.21-4-.37,1.09-3.28,10.72-3,13.39.06.52-8,.63-8,.63l-.38-14.72a84.6,84.6,0,0,0,4.94-14.28Z"/><path id="Path_5499" data-name="Path 5499" d="M311,102.5a24.51,24.51,0,0,1,2.38,1.51l1.22,4.19-3.31-.23,2.22,2.6-6.92,9.19s2.73-12.3,3.59-14.21A7.53,7.53,0,0,0,311,102.5Z"/><path id="Path_5500" data-name="Path 5500" class="cls-26" d="M302.73,102.19c-.94.56-1.86,1.17-2.75,1.82l-.41,4.28,2.5-.32-1.64,2,6.32,10s-1.29-9.83-2-11.79C303.75,105.45,302.73,102.19,302.73,102.19Z"/><path id="Path_5501" data-name="Path 5501" class="cls-9" d="M290.19,113.49s-1.71,13.68-2.2,14.65-3.88,20.09-3.88,20.09l7.12,1.34s1.56-11.94,2.82-20c.75-4.81,1.09-7.65,1.18-8C295.48,120.57,290.19,113.49,290.19,113.49Z"/><g id="Group_2347" data-name="Group 2347"><path id="Path_5502" data-name="Path 5502" class="cls-26" d="M314.94,134c.64,1.76,5.47,13.85,4.59,24s-2.19,18.46-2.19,18.46l-11.71-.88V134Z"/><path id="Path_5503" data-name="Path 5503" d="M296.79,133.77A50.91,50.91,0,0,0,294,154.39,206.79,206.79,0,0,0,297.36,176l8.64-.43V134Z"/></g><path id="Path_5504" data-name="Path 5504" d="M315.23,132.29l-18.67-.07-.15,2.62,18.89-.22Z"/><path id="Path_5505" data-name="Path 5505" class="cls-15" d="M302.75,101.43a47.12,47.12,0,0,0,3.91,3.7c-1.29,1.29-3.81,4.16-3.81,4.16l-1.83-6Z"/><path id="Path_5506" data-name="Path 5506" class="cls-15" d="M306.75,105.13l4,4,2.13-5.14L311,101.87Z"/><path id="Path_5507" data-name="Path 5507" class="cls-27" d="M341.17,107.18l-3.85-5.66s.8-7.09.8-8l3.07-.2h.05l3,.2c0,.93,1.36,8.53,1.36,8.53l-4,4.28h0Z"/><path id="Path_5508" data-name="Path 5508" class="cls-28" d="M335.32,131.34c-2.85-.65-17.76-5.3-17.76-7,0-3.42,5.17-13.9,7.24-16.88,1.25-1.8,3.25-3.65,4.84-3.93,1.5-.64,7.35-.47,7.81-6.13,0,0,3.33.76,3.18,1.78s-.15,21.54-1.24,21.77-8.79-2.84-9.3-4.19c-.95-2.47-.17-2.82-1-2.71s-5.25,7.45-5.47,8.06,13.33,6.6,14.44,6.49Z"/><g id="Group_2348" data-name="Group 2348"><path id="Path_5509" data-name="Path 5509" class="cls-33" d="M340.41,93.86h.06l3.74.2c0,.3.3,2.79.45,4a30,30,0,0,1-12,10.74c-2.22,1.13-2.28-4.16-3.24-5.18,2.26-.4,6.25-1.67,7.17-3.5,1.07-2.11.77-5.55.77-5.81Z"/></g><g id="Group_2351" data-name="Group 2351"><g id="Group_2349" data-name="Group 2349"><path id="Path_5510" data-name="Path 5510" class="cls-27" d="M333.77,90c.67,5.23,4.91,9.69,7.44,9.69,2.81,0,6.43-2.86,7.52-9.55.88-5.5-.51-11-7.38-11C334.89,79.22,333.06,84.55,333.77,90Z"/></g><g id="Group_2350" data-name="Group 2350"><path id="Path_5511" data-name="Path 5511" class="cls-28" d="M333,89.52c-.48-5.5,1.12-10.79,7.55-10.82V99.19h-.1C338,99.2,333.64,96.4,333,89.52Z"/></g></g><path id="Path_5512" data-name="Path 5512" class="cls-8" d="M343,83.35c1.31,2.48,3,.92,3.76,4.45.28,1.26,1,4,.09,5.93-1.14,2.56,2.28-4.88,2.28-4.88s1.94-6.18-2.55-9.07c-2.4-1.54-3.27,0-3.28.44S343,83.35,343,83.35Z"/><path id="Path_5513" data-name="Path 5513" class="cls-34" d="M330.69,103.15c2,4,4.45,6.17,10.87,6.46.58,3.79,1.16,33.7,1.16,33.7l-15.75.33s2.52-12.15,3.72-14.55-.35-11.07-1.83-12.91c0,0,1.5-8.43-2.88-10.61C327.41,103.48,330.69,103.15,330.69,103.15Z"/><path id="Path_5514" data-name="Path 5514" class="cls-35" d="M350.05,103.38c-2,4-3.54,5.83-9.95,6.12-.59,3.8-.55,33.92-.55,33.92l14-.11s-1.48-10.07-3.17-13.57c-1.92-4-.79-11.58.8-13.56,0,0-1.68-4.38,2.58-10.72C353.11,103.7,350.05,103.38,350.05,103.38Z"/><path id="Path_5515" data-name="Path 5515" d="M335.34,85.32c-2,5.3-.44,7.66.76,8.53-.38.17-1.91.63-2-.69a3,3,0,0,0,2.17,2.56c-.87.87-2.19,1.2-2.46.82a6.81,6.81,0,0,0,1.64.93S334,99,330.94,96.85A11,11,0,0,1,326,86.47c1,1.64,1.86,1.53,2.19,1-.77,0-.77-1.91-.77-1.91a1.66,1.66,0,0,0,2.32-.27l.15-.22c1.06-1.72,2.07-4.6,5.57-6.24C337,78.12,335.34,85.32,335.34,85.32Z"/><path id="Path_5516" data-name="Path 5516" class="cls-8" d="M346,85.54c2,5.31.77,8.24-.43,9.12.38.16,1.71.58,1.75-.73-.08.69-1,1.6-2.7,2.11a2.15,2.15,0,0,0,2.7.15,6.74,6.74,0,0,1-1.53,1s1.78,1.2,4.81-1c2.7-1.6,4.08-3.68,3.5-8.53a2,2,0,0,1-1.9.65c.76,0,1.53-1,1.53-1a4,4,0,0,1-2.67-1.8c-1.06-1.72-2.08-4.6-5.58-6.24C344,78.56,346,85.54,346,85.54Z"/><path id="Path_5517" data-name="Path 5517" d="M345,83.53c-2.9,4.42-8,.37-9.8,3.21-.86,1.36-2.62,4.48-1.43,7.52.74,1.88-1.64-5-1.64-5s-2.26-6.81,3.07-10.32c2.35-1.56,7.48-2.17,10.06.24C345.49,79.43,345,83.53,345,83.53Z"/><path id="Path_5518" data-name="Path 5518" class="cls-8" d="M340.32,212c0,1.75,2.48,4.43,3.65,4.14s2.51-2.48,2.8-3.65c1.17,2.92-.06,7.8-2.8,7.88s-4.16-3.36-4.16-4.81A19.46,19.46,0,0,1,340.32,212Z"/><g id="Group_2352" data-name="Group 2352"><path id="Path_5519" data-name="Path 5519" class="cls-6" d="M319.58,126c-.93-.33-4.05-.9-4.5-1.41a15.92,15.92,0,0,0-2.24-2.47c-.58-.31-2.64-1.69-3-1.6s-.44.34,0,.68,1.61,1.57,1.28,1.64-3.48-1.22-4.08-1.31c-1-.15-.66.39-.66.39l2.73,1.31s-2.91-.9-3.34-.9-1.05.3-.4.6,3.29,1.59,3.29,1.59-2.78-1-3.13-1-.55.3.44.81a26.63,26.63,0,0,0,2.73,1.07l-2.71.06s-.73.23,1.27.77a35.74,35.74,0,0,0,6.43.77c.52,0,4.5,1.48,5.87,1.89S319.58,126,319.58,126Z"/><path id="Path_5520" data-name="Path 5520" class="cls-15" d="M316.89,124.39l-2.16-.55-1.35,4.62,2.69.82Z"/><path id="Path_5521" data-name="Path 5521" class="cls-15" d="M325.11,119.51a27.34,27.34,0,0,1,1.31,3.28c1.26,3.15.09,5.9-1.5,7-1.1.71-7.05,1.15-9.93.21.72-1,.6-5.74,1-6.23s5.07-.27,5.78-.37c1.69-.23,1.52-.83,2.07-1.65Z"/></g><g id="Group_2354" data-name="Group 2354"><path id="Path_5522" data-name="Path 5522" class="cls-26" d="M294.92,164.36l-6.64.35-.13,29.79,9.92-.52Z"/><g id="Group_2353" data-name="Group 2353"><path id="Path_5523" data-name="Path 5523" d="M288.15,194.5l4.88-.26-1.57-29.7-3.18.17Z"/></g></g><path id="Path_5524" data-name="Path 5524" class="cls-29" d="M291.62,164.2a16,16,0,0,0-1.8-6.74h0a7.53,7.53,0,0,0-2.15-2.81h0a37.63,37.63,0,0,1,1.12,8h0a.26.26,0,0,1-.25.28h0a.27.27,0,0,1-.27-.25h0a35.49,35.49,0,0,0-1.22-8.38h0a.25.25,0,0,1,0-.22h0a.26.26,0,0,1,.19-.13h.09c1.71.15,4.61,5,4.82,10.19h0a.26.26,0,0,1-.25.28h0a.28.28,0,0,1-.27-.26Z"/><g id="Group_2356" data-name="Group 2356"><path id="Path_5525" data-name="Path 5525" class="cls-15" d="M290,162h-6.47l-1.67,27h9.67Z"/><g id="Group_2355" data-name="Group 2355"><path id="Path_5526" data-name="Path 5526" class="cls-29" d="M281.87,188.9h4.77V162h-3.1Z"/></g></g><path id="Path_5527" data-name="Path 5527" class="cls-36" d="M315.22,137l-19.91,26.72L297.36,176l20,.43s2-14.15,1.82-18.38S315.22,137,315.22,137Z"/><path id="Path_5528" data-name="Path 5528" class="cls-26" d="M333.8,136.31c0-.22,0-.64,0-1.2h0a22.46,22.46,0,0,0-1.25-8.19h0a.41.41,0,0,0-.54-.22h0a.42.42,0,0,0-.22.55h0c1,2.42,1.18,5.95,1.18,7.86h0c0,.55,0,1,0,1.2h0a.42.42,0,0,0,.43.42h0a.41.41,0,0,0,.41-.42Z"/><path id="Path_5529" data-name="Path 5529" class="cls-28" d="M326.68,128.72c.12.09,8.41,2.62,8.57,2.68a5.62,5.62,0,0,0,3.11.44,10,10,0,0,1,4.11.06c1.37.36,1.64.31,1.75.1s-.74-.49-1.5-.84-2.41-.49-2.11-.59a37.85,37.85,0,0,1,3.79.82c.46.07,1.56,0,1.08-.31s-3.38-1.33-3.78-1.48,3.61,1,3.9,1,.32-.33-.3-.62c-.43-.2-3.09-1.11-3.38-1.2a6.88,6.88,0,0,1,1.28.15l1.26.31c.67.17,1.25-.05.4-.4a14.55,14.55,0,0,0-1.56-.7,13,13,0,0,0-2.16-.14,24.39,24.39,0,0,1-3.42.28c-3.25-.32-9.77-3.81-10.16-3.76Z"/><g id="Group_2357" data-name="Group 2357"><path id="Path_5530" data-name="Path 5530" class="cls-29" d="M339.94,139.47l4.1-.22.26,21.07-5.25,2.32Z"/><path id="Path_5531" data-name="Path 5531" class="cls-29" d="M344.05,139.15l-25-2.85-3.87.7-.19,2.17,25.71,2.73Z"/><path id="Path_5532" data-name="Path 5532" class="cls-15" d="M341,139.85,315.22,137l-3.9,21.73,27.74,3.91Z"/></g><path id="Path_5533" data-name="Path 5533" class="cls-37" d="M325.59,137.83a36.4,36.4,0,0,1,2.64-9.1h0c.93-2,2.08-3.07,2.51-2.94a.52.52,0,0,1,.48.37,2.29,2.29,0,0,0,.69.26l-.3-.65a1.17,1.17,0,0,0-.9-.55h0c-1.13-.12-2.09,1.14-3.1,3.16h0a38,38,0,0,0-2.7,9.3h0a.39.39,0,0,0,.3.44h0a.35.35,0,0,0,.4-.29h0Z"/><g id="Group_2359" data-name="Group 2359"><g id="Group_2358" data-name="Group 2358"><path id="Path_5534" data-name="Path 5534" class="cls-21" d="M337,136.81l3.36-.3-.15,30.66L336,169.58Z"/><path id="Path_5535" data-name="Path 5535" class="cls-21" d="M340.4,136.41l-16.15-1.87-4,.27-.07,2.16,17.6,2.24Z"/><path id="Path_5536" data-name="Path 5536" class="cls-18" d="M338,137.16l-17.69-2.35-5.06,30.76,20.84,4Z"/></g><path id="Path_5537" data-name="Path 5537" class="cls-38" d="M326.47,138.42a1.31,1.31,0,0,1,1.31-1.31h0a1.31,1.31,0,0,1,1.31,1.31h0a1.33,1.33,0,0,1-1.31,1.31h0A1.32,1.32,0,0,1,326.47,138.42Zm.7,0a.61.61,0,0,0,.61.61h0a.61.61,0,0,0,.61-.61h0a.61.61,0,0,0-.61-.61h0a.61.61,0,0,0-.61.61Z"/><path id="Path_5538" data-name="Path 5538" class="cls-26" d="M328.2,138.15a34.66,34.66,0,0,1,1.3-9.05h0c.64-2,1.5-2.9,1.95-2.84h0a1.21,1.21,0,0,1,.52.22,6.3,6.3,0,0,0,1,.45l-.77-1a1.11,1.11,0,0,0-.78-.44h0c-1.14.06-1.93,1.27-2.63,3.34h0a35.17,35.17,0,0,0-1.35,9.24h0a.38.38,0,0,0,.35.38h0a.36.36,0,0,0,.36-.35Z"/></g><path id="Path_5539" data-name="Path 5539" class="cls-26" d="M354.34,154.11c0-4.67,1.09-7.52,2-8h0l.17.41c-.48.13-1.77,3-1.73,7.58h0c0,.19,0,.38,0,.58h-.45v-.59Z"/><g id="Group_2362" data-name="Group 2362"><path id="Path_5540" data-name="Path 5540" class="cls-15" d="M353.45,153.87l7.9-.61,3.14,22.49-11.55.61Z"/><g id="Group_2361" data-name="Group 2361"><g id="Group_2360" data-name="Group 2360"><path id="Path_5541" data-name="Path 5541" class="cls-29" d="M353,176.36l5.74-.3-1.39-22.48-3.84.29Z"/></g></g></g></g><g id="Group_2373" data-name="Group 2373"><path id="Path_5542" data-name="Path 5542" class="cls-8" d="M122.29,28.06a3,3,0,0,0-.76,2.79c.33,1.08,1,3.66.81,4.52.58.13.59,0,.59,0s-.1-3.88.43-3.66,1.4,2.47,2.37,3.55,4.77.75,5,.43.44-1.35-.41-1.67a9,9,0,0,1-1.62-.86s-2,.7-3-.7S122.29,28.06,122.29,28.06Z"/><path id="Path_5543" data-name="Path 5543" class="cls-39" d="M167.37,36.5,149,60.76l-39.94.46-.19-15.31,8.28-9.44Z"/><path id="Path_5544" data-name="Path 5544" class="cls-8" d="M137.62,27.22a3.15,3.15,0,0,0-.8,3,24.24,24.24,0,0,1,.33,5.51,2.4,2.4,0,0,0,1.16,0s-.11-4.8.46-4.57,1.49,3.1,2.52,4.25,5.07.8,5.3.46.47-2.46-.45-2.8a6,6,0,0,0-1.71-.37s-2.11.75-3.14-.74S137.62,27.22,137.62,27.22Z"/><g id="Group_2365" data-name="Group 2365"><path id="Path_5545" data-name="Path 5545" class="cls-6" d="M130.2,43.11a3.42,3.42,0,0,0-.87,3.22c.37,1.25,1.18,4.22.94,5.2.66.16.68,0,.68,0s-.13-4.47.49-4.22,1.62,2.86,2.73,4.1,5.5.87,5.75.49.51-1.55-.48-1.92a9.29,9.29,0,0,1-1.87-1s-2.28.81-3.4-.8S130.2,43.11,130.2,43.11Z"/><g id="Group_2364" data-name="Group 2364"><path id="Path_5546" data-name="Path 5546" class="cls-40" d="M167.37,52.7,147.06,75.76l-37.78-.17-.1-14.36L117,52.66Z"/><path id="Path_5547" data-name="Path 5547" class="cls-6" d="M167.45,53.75c0,.08-.13.15-.28.15H116.86c-.15,0-.28-.07-.28-.15v-2c0-.09.13-.16.28-.16h50.31c.15,0,.28.07.28.16Z"/></g></g><g id="Group_2368" data-name="Group 2368"><path id="Path_5548" data-name="Path 5548" d="M156.43,57.37c-.3-1.6-.49-3.35-.64-3.84h0c-.17-.75-2.57-2-4.06-2h0c-1.75-.1-4.88-2.17-5.84-3.58h0a2.67,2.67,0,0,1-.5-1.46h0a1.29,1.29,0,0,1,1.23-1.34h.11a1.87,1.87,0,0,1,.34,0h0l-.08.46-.26,0h0a.79.79,0,0,0-.87.69.54.54,0,0,0,0,.18h0a2.26,2.26,0,0,0,.42,1.2h0c.79,1.24,4,3.35,5.47,3.37h0c1.68.1,4.07,1.13,4.49,2.32h0c.26.86.55,4.33,1.2,6h0c.21.55.48.81.6.78h0c.16,0,.5-.46.66-1.36h0a17.13,17.13,0,0,0,.25-3h0a9.18,9.18,0,0,0-.2-2.28h0a5,5,0,0,0-1.7-.93h0c-.8-.4-1.61-.59-1.72-1.24h0c0-.58.63-.71,1.16-.88h0A8.28,8.28,0,0,0,158,50h0c.19-.1.31-.44.31-.94h0a7,7,0,0,0-.93-3.19h0l.07-.1v-.35c.5.13.58.64.89,1.35h0a7.51,7.51,0,0,1,.45,2.3h0a1.49,1.49,0,0,1-.53,1.34h0a7.5,7.5,0,0,1-1.58.52h0c-.55.14-.84.36-.82.44h0s0,0,.06.08h0a1.69,1.69,0,0,0,.31.21h0a10.32,10.32,0,0,0,1.06.51h0c.82.37,1.66.65,1.94,1.16h0a8,8,0,0,1,.24,2.48h0a16.29,16.29,0,0,1-.25,3.12h0c-.2.9-.42,1.68-1.12,1.74h0C157,60.49,156.78,59,156.43,57.37Z"/><g id="Group_2367" data-name="Group 2367"><path id="Path_5549" data-name="Path 5549" d="M157.55,50.63a.88.88,0,0,1-.88.89H147.5a.89.89,0,0,1-.88-.88h0l.21-4.78a.89.89,0,0,1,.88-.88h8.74a.87.87,0,0,1,.88.88h0Z"/><g id="Group_2366" data-name="Group 2366"><path id="Path_5550" data-name="Path 5550" class="cls-8" d="M156.63,44.83h-9.08c-1.32,0-.82.49-.82,1v.08l5.31,2.56,5.35-2.57v-.06C157.4,45.33,157.89,44.81,156.63,44.83Z"/></g></g></g><g id="Group_2370" data-name="Group 2370"><path id="Path_5551" data-name="Path 5551" class="cls-23" d="M161.32,33.76c0,2-2.56,2.08-4.52,2.08h0c-2,0-4.53-.12-4.53-2.08v-.12c-.06-2.88,2.57-4,4.53-4h0c2,0,4.58,1.35,4.52,4Z"/><path id="Path_5552" data-name="Path 5552" class="cls-23" d="M153.5,30.68a3.17,3.17,0,0,1,3.3-3h0a3.18,3.18,0,0,1,3.3,3h0a3.18,3.18,0,0,1-3.3,3h0a3.17,3.17,0,0,1-3.3-3Zm.49,0a2.68,2.68,0,0,0,2.81,2.53h0a2.69,2.69,0,0,0,2.81-2.53h0a2.69,2.69,0,0,0-2.81-2.54h0A2.68,2.68,0,0,0,154,30.68Z"/><g id="Group_2369" data-name="Group 2369"><path id="Path_5553" data-name="Path 5553" class="cls-24" d="M153.57,30.57a.17.17,0,0,0,0,.24.11.11,0,0,0,.07.06,11.23,11.23,0,0,0,3.15,1.72A11.6,11.6,0,0,0,159.88,31a.58.58,0,0,0,.22-.26,5.14,5.14,0,0,0-3.33-1.27A5.2,5.2,0,0,0,153.57,30.57Z"/></g><path id="Path_5554" data-name="Path 5554" class="cls-41" d="M156.12,32.62a.68.68,0,0,1,.68-.67h0a.67.67,0,0,1,.67.67h0a.67.67,0,0,1-.67.67h0a.69.69,0,0,1-.68-.67Zm.25,0a.43.43,0,0,0,.43.43h0a.42.42,0,0,0,.42-.43h0a.42.42,0,0,0-.42-.43h0A.43.43,0,0,0,156.37,32.62Z"/></g><path id="Path_5555" data-name="Path 5555" class="cls-6" d="M167.45,37.55c0,.09-.13.16-.28.16H117c-.15,0-.28-.07-.28-.16v-2c0-.08.13-.15.28-.15h50.13c.16,0,.28.07.28.15Z"/><path id="Path_5556" data-name="Path 5556" class="cls-42" d="M167.37,69.81,149,94.07l-39.93.46-.17-15.34,8.26-9.42Z"/><g id="Group_2372" data-name="Group 2372"><path id="Path_5557" data-name="Path 5557" class="cls-23" d="M124.05,62.15a3,3,0,0,0-.76,2.8c.33,1.07,1,3.65.81,4.51.58.14.59,0,.59,0s-.1-3.88.43-3.66,1.4,2.47,2.37,3.55,4.77.75,5,.43.44-1.35-.41-1.67a8.39,8.39,0,0,1-1.62-.86s-2,.7-3-.7S124.05,62.15,124.05,62.15Z"/><g id="Group_2371" data-name="Group 2371"><path id="Path_5558" data-name="Path 5558" class="cls-8" d="M152.68,64.48c-.17.06-.24,0-.09.41.38,1.14,1.27,2.23,1.3,4.8.61.15.19,0,.19,0s-.11-4.09.46-3.86,1.49,2.4,2.52,3.54,5.07.8,5.3.46.47-2.46-.45-2.8a6,6,0,0,0-1.71-.37s-2,2.42-3.5.28A6.73,6.73,0,0,0,152.68,64.48Z"/><path id="Path_5559" data-name="Path 5559" class="cls-8" d="M155.92,66.12s-2.16-4-3.46-4v.64l3.2,3.23Z"/></g><path id="Path_5560" data-name="Path 5560" class="cls-6" d="M167.45,71.65c0,.08-.13.15-.28.15H117c-.15,0-.28-.07-.28-.15v-2c0-.09.13-.16.28-.16h50.13c.16,0,.28.07.28.16Z"/></g></g><g id="Group_2375" data-name="Group 2375"><path id="Path_5561" data-name="Path 5561" class="cls-11" d="M87.28,95.63c-.14-.72-1.37-.83-1.6-.18-.15.45-.88,3.33-5.43,4.2-1.54.3.85,2.34,1.74,2.47s-1-1.63.31-2C85.55,99.12,87.28,95.63,87.28,95.63Z"/><path id="Path_5562" data-name="Path 5562" class="cls-14" d="M88.7,95.63c-.24-.69-1.48-.62-1.61.05a7.25,7.25,0,0,1-3.81,5.62c-1.33.82-.9,1.62,0,1.62s1.08.16,1.91-.9A24,24,0,0,0,88.7,95.63Z"/><path id="Path_5563" data-name="Path 5563" class="cls-11" d="M89.71,96a.88.88,0,0,0-1.6,0c-.09.47,0,4-2.81,5.65-1.35.79.3,1.8,1.2,1.8s-.39-1.28.9-1.65C89,101.35,89.71,96,89.71,96Z"/><path id="Path_5564" data-name="Path 5564" class="cls-16" d="M102.36,90.58c-9.86,0-17.85,1.14-17.85,2.54s8,2.55,17.85,2.55,17.85-1.14,17.85-2.55S112.22,90.58,102.36,90.58Zm-.55,3.75c-8.12,0-14.92-1.28-15-1.5-.2-.81,6.86-1.51,15-1.51s15.78.62,15.78,1.45S109.92,94.33,101.81,94.33Z"/><path id="Path_5565" data-name="Path 5565" class="cls-11" d="M117.77,95.13c.25-.7,1.48-.62,1.61.05.09.47.4,3.43,4.78,4.94,1.48.51-1.18,2.19-2.08,2.19s1.2-1.47,0-2C119,98.83,117.77,95.13,117.77,95.13Z"/><path id="Path_5566" data-name="Path 5566" d="M124.67,100.12c-.9-2.25-4,2.24-8.16.73,0,0,2,38.45,2.24,39.12s5.39,0,6.52-.45c.4-.16-.07-9.86,0-15.37l.57,2.8a3.28,3.28,0,0,0,2.46-.22C128.41,125.27,129.23,106.26,124.67,100.12Z"/><path id="Path_5567" data-name="Path 5567" class="cls-14" d="M115.65,95.63c.24-.69,1.47-.62,1.6.05a7.23,7.23,0,0,0,3.82,5.62c1.33.82.9,1.62,0,1.62s-1.08.16-1.91-.9A24,24,0,0,1,115.65,95.63Z"/><path id="Path_5568" data-name="Path 5568" class="cls-15" d="M125.52,118.94s-1.91-14.3-3.48-17.18c-.09-.28-.19-.43-.3-.41-4.37,1-5.82-.74-6.2.53,0,0,.14,32.26.36,32.93s4.72,1.46,5.84,1c.59-.24,1-9.8,1-18.8l1,3.94Z"/><path id="Path_5569" data-name="Path 5569" d="M79.72,100.12c.9-2.25,3.78,1.72,8,1.5,0,0-1.92,32.88-2.15,33.55s-5,1.37-6.14.92c-.41-.17-.25-6.43-.31-11.94l-.57,2.8a3.31,3.31,0,0,1-2.47-.22C76,125.27,79.12,100.9,79.72,100.12Z"/><path id="Path_5570" data-name="Path 5570" class="cls-16" d="M80,119.46s.74-14.81,2.31-17.7c.09-.29.19-.43.29-.41,4.38,1,5-.37,5.33.9,0,0,.74,31.89.51,32.56s-4.71,1.46-5.84,1c-.59-.24-1-9.8-1-18.8l-1,3.93Z"/><path id="Path_5571" data-name="Path 5571" class="cls-5" d="M86.36,95.91a.22.22,0,0,1-.15-.26h0a2.38,2.38,0,0,0,.12-.69h0a1.32,1.32,0,0,0-.08-.44h0A3,3,0,0,1,86,93.37h0a1,1,0,0,1,.92-1.1h.06a1.41,1.41,0,0,1,1,.5h0a.21.21,0,0,1,0,.3h0a.21.21,0,0,1-.3,0h0a.92.92,0,0,0-.69-.34h0c-.3,0-.53.16-.55.68h0a2.58,2.58,0,0,0,.25,1h0a1.58,1.58,0,0,1,.12.61h0a3.12,3.12,0,0,1-.13.81h0a.23.23,0,0,1-.21.16h-.06Z"/><path id="Path_5572" data-name="Path 5572" class="cls-5" d="M87.87,96.12a.21.21,0,0,1-.18-.24h0a3,3,0,0,0,0-.42h0a1.2,1.2,0,0,0-.17-.67h0a2.52,2.52,0,0,1-.46-1.3h0a1,1,0,0,1,.93-1h.06a1.43,1.43,0,0,1,.9.35h0a.2.2,0,0,1,0,.29h0a.22.22,0,0,1-.3,0h0a1,1,0,0,0-.64-.24h0a.52.52,0,0,0-.56.47v.11h0a2.15,2.15,0,0,0,.4,1.06h0a1.66,1.66,0,0,1,.23.9h0a2.59,2.59,0,0,1,0,.48h0a.21.21,0,0,1-.21.19h0Z"/><path id="Path_5573" data-name="Path 5573" class="cls-24" d="M91.13,102.45c-.37-1.27-4.78-2.57-5.68-.33-.59,1.48-.73,30.9.39,31.35s5.92.15,6.14-.52S91.13,102.45,91.13,102.45Z"/><path id="Path_5574" data-name="Path 5574" class="cls-5" d="M118.32,95.22a1.71,1.71,0,0,1-.13-.54h0a1.36,1.36,0,0,1,.12-.49h0a2.71,2.71,0,0,0,.18-.89h0c0-.57-.26-.73-.56-.74h0a.91.91,0,0,0-.7.4h0a.22.22,0,0,1-.3,0h0a.22.22,0,0,1,0-.3h0a1.33,1.33,0,0,1,1-.56h0a1,1,0,0,1,1,1.1v.06h0a3.06,3.06,0,0,1-.21,1h0a1,1,0,0,0-.09.34h0a1,1,0,0,0,.11.39h0a.23.23,0,0,1-.13.28h-.07a.22.22,0,0,1-.2-.14Z"/><path id="Path_5575" data-name="Path 5575" class="cls-5" d="M116.24,95.94a2.59,2.59,0,0,1,0-.48h0a1.57,1.57,0,0,1,.22-.9h0a2.06,2.06,0,0,0,.4-1.07h0a.51.51,0,0,0-.46-.58h-.1a1,1,0,0,0-.62.25h0a.21.21,0,0,1-.3,0h0a.21.21,0,0,1,0-.3h0a1.43,1.43,0,0,1,.9-.35h0a1,1,0,0,1,1,1v0h0a2.45,2.45,0,0,1-.47,1.3h0a1.3,1.3,0,0,0-.16.67h0a3,3,0,0,0,0,.42h0a.21.21,0,0,1-.17.24h0a.21.21,0,0,1-.21-.17Z"/><path id="Path_5576" data-name="Path 5576" class="cls-5" d="M88.84,96.71a.22.22,0,0,1-.19-.25h0a3.87,3.87,0,0,0,0-.48h0a1.5,1.5,0,0,0-.16-.78h0a3.06,3.06,0,0,1-.46-1.44h0a1,1,0,0,1,1-1.11h0a1.36,1.36,0,0,1,.93.4h0a.21.21,0,0,1,0,.31h0a.21.21,0,0,1-.31,0h0a1,1,0,0,0-.62-.27h0c-.3,0-.53.17-.55.67h0a2.67,2.67,0,0,0,.4,1.22h0a2,2,0,0,1,.23,1h0a3.23,3.23,0,0,1,0,.53h0a.22.22,0,0,1-.22.19h0Z"/><path id="Path_5577" data-name="Path 5577" class="cls-11" d="M113.92,96a.89.89,0,0,1,1.19-.4.92.92,0,0,1,.42.45c.09.46,0,4,2.81,5.65,1.35.78-.3,1.8-1.2,1.8s.39-1.28-.9-1.65C114.67,101.39,113.92,96,113.92,96Z"/><path id="Path_5578" data-name="Path 5578" class="cls-5" d="M114.31,96.22a3.57,3.57,0,0,1,0-.47h0a1.59,1.59,0,0,1,.23-.88h0a2.12,2.12,0,0,0,.4-1h0a.53.53,0,0,0-.48-.57h-.09a1,1,0,0,0-.63.25h0a.22.22,0,0,1-.3,0h0a.22.22,0,0,1,0-.3h0a1.47,1.47,0,0,1,.9-.34h0a1,1,0,0,1,1,.94v0h0a2.42,2.42,0,0,1-.46,1.27h0a1.16,1.16,0,0,0-.16.65h0a2.73,2.73,0,0,0,0,.41h0a.21.21,0,0,1-.17.24h0a.21.21,0,0,1-.21-.18Z"/><path id="Path_5579" data-name="Path 5579" class="cls-35" d="M114.24,102.22c.37-1.27,3.81-2,4.71.22.6,1.47,2.46,35,1.34,35.47s-3.82.6-4.05-.07S114.24,102.22,114.24,102.22Z"/><path id="Path_5580" data-name="Path 5580" class="cls-14" d="M111.9,96.34c.24-.69,1.48-.62,1.61.06a7.86,7.86,0,0,0,1.51,5.72c1,1.23-.74,1.95-1.64,1.95s-1.12-.54-1.12-1.87S111.9,96.34,111.9,96.34Z"/><path id="Path_5581" data-name="Path 5581" class="cls-5" d="M112.35,97a4.55,4.55,0,0,1,0-.53h0a1.94,1.94,0,0,1,.23-1h0a2.63,2.63,0,0,0,.4-1.22h0c0-.49-.25-.65-.56-.67h0a.87.87,0,0,0-.6.28h0a.23.23,0,0,1-.32,0h0a.22.22,0,0,1,0-.32h0a1.32,1.32,0,0,1,.92-.4h0a1,1,0,0,1,1,1.07v0h0a3.06,3.06,0,0,1-.46,1.44h0a1.62,1.62,0,0,0-.17.78h0a3.57,3.57,0,0,0,0,.47h0a.22.22,0,0,1-.2.25h0a.23.23,0,0,1-.22-.2Z"/><path id="Path_5582" data-name="Path 5582" class="cls-18" d="M111.4,102.67c.37-1.28,3.81-2,4.71.22.59,1.47,1.86,35.17.73,35.62s-3.81.6-4-.07S111.4,102.67,111.4,102.67Z"/><path id="Path_5583" data-name="Path 5583" class="cls-11" d="M109.38,97.07a.88.88,0,0,1,1.19-.39.9.9,0,0,1,.42.44,7.88,7.88,0,0,0,1.51,5.73c1,1.24-.74,2-1.65,2s-1.12-.53-1.12-1.88S109.38,97.07,109.38,97.07Z"/><path id="Path_5584" data-name="Path 5584" class="cls-5" d="M109.88,97.2a1.55,1.55,0,0,1,0-.22h0a2.24,2.24,0,0,1,.42-1.16h0a2.49,2.49,0,0,0,.4-1.22h0c0-.49-.25-.65-.55-.66h0a.88.88,0,0,0-.61.27h0a.22.22,0,0,1-.32,0h0a.23.23,0,0,1,0-.32h0a1.36,1.36,0,0,1,.92-.4h0a1,1,0,0,1,1,1.08v0h0a3.06,3.06,0,0,1-.46,1.44h0a1.92,1.92,0,0,0-.37.94h0s0,.1,0,.15h0a.23.23,0,0,1-.19.25h0a.23.23,0,0,1-.23-.19Z"/><path id="Path_5585" data-name="Path 5585" class="cls-16" d="M108.65,103.45c.37-1.27,3.82-2,4.71.22.59,1.48,1.76,31.78.64,32.22s-3.82.6-4-.07S108.65,103.45,108.65,103.45Z"/><path id="Path_5586" data-name="Path 5586" class="cls-14" d="M106.85,97.46c.24-.69,1.48-.62,1.61.06a15.7,15.7,0,0,0,.82,5.44c.58,1.45-1.21,2.23-2.11,2.23s-1.48-1.16-.88-2.36S106.85,97.46,106.85,97.46Z"/><path id="Path_5587" data-name="Path 5587" class="cls-5" d="M107.38,97.31a1.82,1.82,0,0,1,0-.32h0a1.75,1.75,0,0,1,.3-.94h0a2.72,2.72,0,0,0,.41-1.26h0c0-.54-.28-.74-.58-.75h0a.81.81,0,0,0-.55.25h0a.22.22,0,0,1-.32,0h0a.23.23,0,0,1,0-.32h0a1.28,1.28,0,0,1,.86-.38h0a1.1,1.1,0,0,1,1,1.15v.05h0a3.11,3.11,0,0,1-.47,1.48h0a1.32,1.32,0,0,0-.24.72h0a2.11,2.11,0,0,0,0,.25h0a.23.23,0,0,1-.19.26h0a.23.23,0,0,1-.23-.2Z"/><path id="Path_5588" data-name="Path 5588" class="cls-23" d="M105.45,103.84c.37-1.27,3.82-2,4.71.23.59,1.47,1.12,38.45,0,38.9s-3.81.6-4-.07S105.45,103.84,105.45,103.84Z"/><path id="Path_5589" data-name="Path 5589" class="cls-11" d="M104.23,97.39c.24-.69,1.48-.62,1.61.06a15.73,15.73,0,0,0,.82,5.44c.58,1.45-1.21,2.23-2.11,2.23s-1.48-1.17-.88-2.36S104.23,97.39,104.23,97.39Z"/><path id="Path_5590" data-name="Path 5590" class="cls-5" d="M104.85,97.51a4.73,4.73,0,0,1,0-.53h0a1.94,1.94,0,0,1,.23-1h0a2.67,2.67,0,0,0,.4-1.22h0c0-.49-.25-.65-.55-.67h0a.89.89,0,0,0-.61.28h0a.23.23,0,0,1-.32,0h0a.22.22,0,0,1,0-.32h0a1.32,1.32,0,0,1,.92-.4h0a1,1,0,0,1,1,1.07v.05h0a3.09,3.09,0,0,1-.46,1.44h0a1.62,1.62,0,0,0-.17.78h0a3.73,3.73,0,0,0,0,.47h0a.22.22,0,0,1-.19.25h0a.23.23,0,0,1-.23-.19Z"/><path id="Path_5591" data-name="Path 5591" class="cls-15" d="M102.83,103.77c.37-1.28,3.82-2,4.71.22.59,1.48,1.13,36,0,36.45s-3.82.6-4-.07S102.83,103.77,102.83,103.77Z"/><g id="Group_2374" data-name="Group 2374"><path id="Path_5592" data-name="Path 5592" class="cls-16" d="M104.32,156.35c1.12.92,9.84,6.14,9.84,6.67v3.47h-1.84v-2.8l-9.49-4.35v-2.59Z"/><path id="Path_5593" data-name="Path 5593" class="cls-16" d="M101.76,156c-1.12.92-9,6.59-9,7.12v3.46h1.85v-2.8l8.58-4.8v-2.59Z"/><path id="Path_5594" data-name="Path 5594" class="cls-16" d="M102,156.08,87.7,159.15v4H89v-2.25l11.86-1.74Z"/><path id="Path_5595" data-name="Path 5595" class="cls-16" d="M103.8,156.08l14.28,3.07v4h-1.29v-2.25l-11.86-1.74Z"/></g><rect id="Rectangle_746" data-name="Rectangle 746" class="cls-16" x="101.54" y="115.5" width="2.69" height="41.54"/><path id="Path_5596" data-name="Path 5596" class="cls-14" d="M101.71,97.45a.89.89,0,0,1,1.19-.4.94.94,0,0,1,.41.45,15.56,15.56,0,0,0,.83,5.45c.58,1.45-1.22,2.22-2.11,2.22s-1.48-1.16-.89-2.36S101.71,97.45,101.71,97.45Z"/><path id="Path_5597" data-name="Path 5597" class="cls-5" d="M102.33,97.57a4.93,4.93,0,0,1,0-.54h0a2,2,0,0,1,.23-1h0a2.6,2.6,0,0,0,.4-1.27h0c0-.48-.24-.62-.32-.62h0s-.09,0-.12.15h0a.23.23,0,0,1-.27.17h0a.23.23,0,0,1-.17-.27h0a.58.58,0,0,1,.56-.5h0c.43,0,.77.44.77,1.07h0a3,3,0,0,1-.46,1.49h0a1.58,1.58,0,0,0-.17.77h0a2.42,2.42,0,0,0,0,.47h0a.23.23,0,0,1-.19.26h0a.23.23,0,0,1-.23-.19Z"/><path id="Path_5598" data-name="Path 5598" class="cls-21" d="M100.3,103.82c.38-1.27,3.82-2,4.72.23.59,1.47,1.12,36,0,36.45s-3.82.6-4-.08S100.3,103.82,100.3,103.82Z"/><path id="Path_5599" data-name="Path 5599" class="cls-11" d="M93.42,96.92a.88.88,0,0,0-1.19-.39.84.84,0,0,0-.42.45,7.87,7.87,0,0,1-1.52,5.72c-1,1.23.75,2,1.65,2s1.12-.54,1.12-1.87S93.42,96.92,93.42,96.92Z"/><path id="Path_5600" data-name="Path 5600" class="cls-5" d="M92.55,97.24a.23.23,0,0,1-.19-.26h0a3.59,3.59,0,0,0,0-.47h0a1.73,1.73,0,0,0-.16-.78h0a3,3,0,0,1-.46-1.44h0a1,1,0,0,1,.94-1.12h.06a1.36,1.36,0,0,1,.92.4h0a.22.22,0,0,1,0,.31h0a.24.24,0,0,1-.32,0h0a.89.89,0,0,0-.61-.28h0c-.3,0-.54.18-.55.67h0a2.49,2.49,0,0,0,.4,1.22h0a2.18,2.18,0,0,1,.22,1h0a4.9,4.9,0,0,1,0,.54h0a.22.22,0,0,1-.22.19h0Z"/><path id="Path_5601" data-name="Path 5601" class="cls-16" d="M94.15,103.3c-.38-1.27-3.82-2-4.72.23-.59,1.47-1.76,31.77-.63,32.22s3.81.6,4-.08S94.15,103.3,94.15,103.3Z"/><path id="Path_5602" data-name="Path 5602" class="cls-14" d="M96,97.31a.89.89,0,0,0-1.19-.39.92.92,0,0,0-.42.45,15.47,15.47,0,0,1-.83,5.44c-.58,1.46,1.22,2.23,2.12,2.23s1.48-1.16.88-2.36S96,97.31,96,97.31Z"/><path id="Path_5603" data-name="Path 5603" class="cls-5" d="M95.07,97.63a.23.23,0,0,1-.19-.25h0a2.59,2.59,0,0,0,0-.48h0a1.62,1.62,0,0,0-.17-.78h0a2.94,2.94,0,0,1-.45-1.44h0a1,1,0,0,1,.94-1.11h.06a1.36,1.36,0,0,1,.92.4h0a.22.22,0,0,1,0,.31h0a.22.22,0,0,1-.32,0h0A.93.93,0,0,0,95.3,94h0c-.3,0-.54.18-.55.67h0a2.56,2.56,0,0,0,.4,1.22h0a1.93,1.93,0,0,1,.22,1h0a3.27,3.27,0,0,1,0,.54h0a.22.22,0,0,1-.22.19Z"/><path id="Path_5604" data-name="Path 5604" class="cls-34" d="M97.35,103.69c-.37-1.27-3.82-2-4.71.23-.6,1.47-1.13,33.51,0,34s3.81.6,4-.08S97.35,103.69,97.35,103.69Z"/><path id="Path_5605" data-name="Path 5605" class="cls-11" d="M98.57,97.24a.9.9,0,0,0-1.2-.39.86.86,0,0,0-.41.45,15.51,15.51,0,0,1-.83,5.44c-.58,1.45,1.22,2.22,2.12,2.22s1.47-1.15.88-2.35S98.57,97.24,98.57,97.24Z"/><path id="Path_5606" data-name="Path 5606" class="cls-5" d="M97.69,97.55a.22.22,0,0,1-.19-.25h0a3.87,3.87,0,0,0,0-.48h0a1.47,1.47,0,0,0-.16-.77h0a3.09,3.09,0,0,1-.46-1.44h0a1,1,0,0,1,.94-1.12h.06a1.35,1.35,0,0,1,.92.39h0a.22.22,0,0,1,0,.32h0a.22.22,0,0,1-.31,0h0a.93.93,0,0,0-.62-.27h0c-.3,0-.53.17-.55.67h0a2.59,2.59,0,0,0,.4,1.21h0a2.07,2.07,0,0,1,.23,1h0a4.9,4.9,0,0,1,0,.54h0a.24.24,0,0,1-.23.19h0Z"/><path id="Path_5607" data-name="Path 5607" class="cls-15" d="M100,103.62c-.38-1.27-3.82-2-4.72.22-.59,1.48-1.12,36,0,36.45s3.82.6,4-.07S100,103.62,100,103.62Z"/><path id="Path_5608" data-name="Path 5608" class="cls-14" d="M101,97.45a.89.89,0,0,0-1.19-.4.92.92,0,0,0-.42.45,15.56,15.56,0,0,1-.83,5.45c-.57,1.45,1.22,2.22,2.12,2.22s1.48-1.16.88-2.36S101,97.45,101,97.45Z"/><path id="Path_5609" data-name="Path 5609" class="cls-5" d="M100.14,97.76a.23.23,0,0,1-.19-.26h0a3.57,3.57,0,0,0,0-.47h0a1.62,1.62,0,0,0-.17-.78h0a3.06,3.06,0,0,1-.46-1.44h0a1,1,0,0,1,1-1.11h0a1.36,1.36,0,0,1,.92.4h0a.22.22,0,0,1,0,.32h0a.22.22,0,0,1-.31,0h0a.93.93,0,0,0-.62-.27h0c-.31,0-.53.17-.55.66h0a2.6,2.6,0,0,0,.4,1.22h0a2.07,2.07,0,0,1,.23,1h0a4.9,4.9,0,0,1,0,.54h0a.24.24,0,0,1-.23.19h0Z"/><path id="Path_5610" data-name="Path 5610" d="M102.42,103.82c-.37-1.27-3.82-2-4.71.23-.6,1.47-1.13,36,0,36.45s3.81.6,4-.08S102.42,103.82,102.42,103.82Z"/></g><g id="Group_2388" data-name="Group 2388"><path id="Path_5611" data-name="Path 5611" class="cls-43" d="M348.41,36.5,330.06,60.76l-42.8.46-.2-15.31,11.16-9.44Z"/><g id="Group_2377" data-name="Group 2377"><path id="Path_5612" data-name="Path 5612" class="cls-6" d="M311.24,43.11a3.42,3.42,0,0,0-.87,3.22c.37,1.25,1.18,4.22.94,5.2.66.16.67,0,.67,0s-.12-4.47.5-4.22,1.61,2.86,2.73,4.1,5.5.87,5.75.49.51-1.55-.49-1.92a9.49,9.49,0,0,1-1.86-1s-2.28.81-3.4-.8S311.24,43.11,311.24,43.11Z"/><g id="Group_2376" data-name="Group 2376"><path id="Path_5613" data-name="Path 5613" class="cls-44" d="M348.41,52.7l-20.3,23.06-40.66-.16-.1-14.37L298,52.66Z"/><path id="Path_5614" data-name="Path 5614" class="cls-6" d="M348.49,53.75c0,.08-.13.15-.28.15H297.9c-.16,0-.28-.07-.28-.15v-2c0-.09.12-.16.28-.16h50.31c.15,0,.28.07.28.16Z"/></g></g><g id="Group_2380" data-name="Group 2380"><path id="Path_5615" data-name="Path 5615" d="M337.47,57.37c-.3-1.6-.49-3.35-.64-3.84h0c-.17-.75-2.57-2-4.06-2h0c-1.75-.1-4.88-2.17-5.85-3.58h0a2.75,2.75,0,0,1-.5-1.46h0a1.3,1.3,0,0,1,1.24-1.34h.11a2,2,0,0,1,.34,0h0l-.08.46-.26,0h0a.79.79,0,0,0-.87.69,1.09,1.09,0,0,0,0,.18h0a2.27,2.27,0,0,0,.43,1.2h0c.79,1.24,4,3.35,5.47,3.37h0c1.68.1,4.07,1.13,4.49,2.32h0c.26.86.54,4.33,1.2,6h0c.21.55.48.81.6.78h0c.16,0,.5-.46.66-1.36h0a17.12,17.12,0,0,0,.24-3h0a8.32,8.32,0,0,0-.2-2.28h0a5,5,0,0,0-1.7-.93h0c-.8-.4-1.6-.59-1.72-1.24h0c.06-.58.64-.71,1.17-.88h0A8.28,8.28,0,0,0,339,50h0c.18-.1.31-.44.31-.94h0a7,7,0,0,0-.93-3.19h0l.07-.1v-.35c.5.13.58.64.89,1.35h0a7.53,7.53,0,0,1,.46,2.3h0a1.5,1.5,0,0,1-.54,1.34h0a7.14,7.14,0,0,1-1.58.52h0c-.55.14-.84.36-.82.44h0l.07.08h0a1.61,1.61,0,0,0,.3.21h0a10.48,10.48,0,0,0,1.07.51h0c.81.37,1.65.65,1.94,1.16h0a8.6,8.6,0,0,1,.24,2.48h0a17.14,17.14,0,0,1-.26,3.12h0c-.2.9-.42,1.68-1.12,1.74h0c-1-.13-1.25-1.65-1.6-3.25Z"/><g id="Group_2379" data-name="Group 2379"><path id="Path_5616" data-name="Path 5616" d="M338.59,50.63a.89.89,0,0,1-.89.89h-9.16a.88.88,0,0,1-.88-.88h0l.21-4.78a.89.89,0,0,1,.88-.88h8.73a.88.88,0,0,1,.89.88h0Z"/><g id="Group_2378" data-name="Group 2378"><path id="Path_5617" data-name="Path 5617" class="cls-8" d="M337.67,44.83h-9.08c-1.32,0-.82.49-.82,1v.08l5.31,2.56,5.35-2.57v-.06C338.44,45.33,338.93,44.81,337.67,44.83Z"/></g></g></g><g id="Group_2382" data-name="Group 2382"><path id="Path_5618" data-name="Path 5618" class="cls-9" d="M340,33.76c0,2-2.57,2.08-4.53,2.08h0c-2,0-4.52-.12-4.52-2.08v-.12c-.06-2.88,2.57-4,4.52-4h0c2,0,4.59,1.35,4.53,4Z"/><path id="Path_5619" data-name="Path 5619" class="cls-9" d="M332.18,30.68a3.18,3.18,0,0,1,3.3-3h0a3.17,3.17,0,0,1,3.3,3h0a3.17,3.17,0,0,1-3.3,3h0a3.18,3.18,0,0,1-3.3-3Zm.49,0a2.69,2.69,0,0,0,2.81,2.53h0a2.7,2.7,0,0,0,2.82-2.53h0a2.7,2.7,0,0,0-2.82-2.54h0A2.69,2.69,0,0,0,332.67,30.68Z"/><g id="Group_2381" data-name="Group 2381"><path id="Path_5620" data-name="Path 5620" class="cls-45" d="M332.25,30.57a.17.17,0,0,0,0,.24.16.16,0,0,0,.08.06,11.1,11.1,0,0,0,3.15,1.72A11.9,11.9,0,0,0,338.57,31c.05-.05.18-.14.21-.26a5.15,5.15,0,0,0-3.33-1.27A5.24,5.24,0,0,0,332.25,30.57Z"/></g><path id="Path_5621" data-name="Path 5621" class="cls-15" d="M334.81,32.62a.67.67,0,0,1,.67-.67h0a.67.67,0,0,1,.68.67h0a.67.67,0,0,1-.67.67h0a.67.67,0,0,1-.67-.67Zm.24,0a.44.44,0,0,0,.43.43h0a.43.43,0,0,0,.43-.43h0a.43.43,0,0,0-.43-.43h0A.44.44,0,0,0,335.05,32.62Z"/></g><path id="Path_5622" data-name="Path 5622" class="cls-6" d="M348.49,37.55c0,.09-.13.16-.28.16H298.08c-.16,0-.28-.07-.28-.16v-2c0-.08.12-.15.28-.15h50.13c.16,0,.28.07.28.15Z"/><path id="Path_5623" data-name="Path 5623" class="cls-46" d="M348.41,69.81,330.06,94.07l-42.8.46-.18-15.34,11.14-9.42Z"/><g id="Group_2383" data-name="Group 2383"><path id="Path_5624" data-name="Path 5624" class="cls-6" d="M311.67,27.87c-.57,1.84-2.37,7-1.28,7.51.46.33,2.75.16,5.09.14,2.74,0,5.54.2,5.8,0,1.06-.81-1.39-7.65-1.39-7.65Z"/><path id="Path_5625" data-name="Path 5625" class="cls-6" d="M306.37,36.65a18.53,18.53,0,0,1-2.57-.28h0c-.51-.13-.84-.17-.91-.6h0a.6.6,0,0,1,.35-.48h0a3.69,3.69,0,0,1,.64-.29h0c1.36-.48,4.16-.3,5-1.45h0a3.51,3.51,0,0,0,.22-1h0c.09-.54.19-1.23.33-1.9h0c.29-1.33.63-2.73,1.74-2.83h0l0,.5c-.39,0-.79.56-1.05,1.48h0a22.58,22.58,0,0,0-.54,2.84h0a3.41,3.41,0,0,1-.33,1.2h0c-1.22,1.42-4.11,1.13-5.26,1.6h0a2.73,2.73,0,0,0-.6.28h0a1.78,1.78,0,0,0,.45.13h0a17.69,17.69,0,0,0,2.5.27h0c.38,0,.8,0,1.25,0h0a67.86,67.86,0,0,0,7.67-.55h0a22.4,22.4,0,0,0,5.13-1h0c.86-.5,1.21-2,1.2-3.31h0a5.28,5.28,0,0,0-.47-2.51h0a2.14,2.14,0,0,0-1.4-.43h-.12l0-.5h.16a2.51,2.51,0,0,1,1.76.59h0a5.22,5.22,0,0,1,.61,2.85h0c0,1.42-.31,3-1.44,3.73h0a22.13,22.13,0,0,1-5.33,1.08h0a71.55,71.55,0,0,1-7.73.55h0c-.46,0-.89,0-1.28,0Z"/><path id="Path_5626" data-name="Path 5626" class="cls-19" d="M311.19,27.64a.2.2,0,0,1,.21-.11l8.85,0s.15,0,.19.13a6.7,6.7,0,0,1,.37,2.18,27,27,0,0,1-5.1,1.77,25.74,25.74,0,0,1-5-1.78A6.46,6.46,0,0,1,311.19,27.64Z"/></g><g id="Group_2385" data-name="Group 2385"><g id="Group_2384" data-name="Group 2384"><path id="Path_5627" data-name="Path 5627" class="cls-47" d="M309.23,62.94l-.49,0a.51.51,0,0,1-.49-.51h0s0,0,0,0h0l0-.53a.51.51,0,0,1,.5-.49h0l.49,0a.51.51,0,0,1,.48.5h0v0l0,.53a.51.51,0,0,1-.49.49h0Zm0-.38h0a.15.15,0,0,0,.14-.13h0l0-.5v0h0a.13.13,0,0,0-.13-.13h0l-.5,0h0a.13.13,0,0,0-.13.14h0l0,.53h0a.14.14,0,0,0,.13.12h0l.47,0h0Z"/><path id="Path_5628" data-name="Path 5628" class="cls-47" d="M313.64,62.76a.5.5,0,0,1-.5-.48h0l0-.52v0h0a.52.52,0,0,1,.49-.51h0l.47,0h0a.5.5,0,0,1,.51.48h0l0,.53h0v0a.53.53,0,0,1-.48.51h0l-.5,0Zm.46-1.21-.5,0a.14.14,0,0,0-.13.14h0l0,.53a.14.14,0,0,0,.13.13h0l.49,0a.15.15,0,0,0,.13-.14h0l0-.53a.14.14,0,0,0-.13-.13h0v0Z"/><path id="Path_5629" data-name="Path 5629" d="M308.9,62a.27.27,0,0,1-.19-.31h0c.18-.77.68-2.53,2.52-2.54h0a.11.11,0,0,1,.08,0h0A2.85,2.85,0,0,1,314,61.59h0a.26.26,0,0,1-.19.31h0a.25.25,0,0,1-.31-.19h0a2.35,2.35,0,0,0-2.24-2.06h-.05c-1.41,0-1.82,1.36-2,2.15h0a.26.26,0,0,1-.25.2h-.07Z"/></g><path id="Path_5630" data-name="Path 5630" class="cls-8" d="M307.09,70.21c.66.43,10.26-.32,11.05-.76a.8.8,0,0,0,.44-.82c0-.62-.13-4.78-.87-6a1.63,1.63,0,0,0-1.1-.78c-.32,0-10.16.32-10.16.32Z"/><path id="Path_5631" data-name="Path 5631" d="M305,69.39c.24.8,2.64,1,2.77.84.33-.37.24-6.31-.65-7.58-.54-.76-1.13-.6-1.52.37A34,34,0,0,0,305,69.39Z"/><path id="Path_5632" data-name="Path 5632" class="cls-47" d="M309.92,63l-.49,0a.51.51,0,0,1-.49-.51h0s0,0,0,0h0l0-.53a.52.52,0,0,1,.51-.49h0l.49,0a.5.5,0,0,1,.48.51h-.09l.09,0,0,.53h0A.52.52,0,0,1,310,63h-.06Zm0-.37h0a.15.15,0,0,0,.15-.14h0l0-.48v0h0a.13.13,0,0,0-.13-.14h0l-.51,0a.14.14,0,0,0-.12.14h0l0,.54h0a.13.13,0,0,0,.13.12h0l.46,0h0Z"/><path id="Path_5633" data-name="Path 5633" class="cls-47" d="M314.34,62.78a.51.51,0,0,1-.51-.48h0l0-.52v0h0a.52.52,0,0,1,.49-.51h0l.47,0h.05a.51.51,0,0,1,.51.48h0l0,.53h0v0a.51.51,0,0,1-.48.51h0l-.5,0Zm-.17-1,0,.53a.13.13,0,0,0,.14.13h0l.49,0a.15.15,0,0,0,.13-.14h0l0-.53a.13.13,0,0,0-.13-.13h0v0l-.49,0a.13.13,0,0,0-.13.14h0Z"/><path id="Path_5634" data-name="Path 5634" d="M309.4,62.51l-.15.46.23.84.72.46.35-.59-.31-.89L310,62.5Z"/><path id="Path_5635" data-name="Path 5635" d="M314.36,62.32l-.16.46.23.84.73.46.34-.59-.31-.89-.24-.29Z"/><path id="Path_5636" data-name="Path 5636" class="cls-8" d="M309.37,61.73c0,.2.51.2.64.08a4.62,4.62,0,0,1,1.15-2.1,1.55,1.55,0,0,1,2,0,4.18,4.18,0,0,1,1.08,1.95c0,.07.68,0,.68-.09A3.49,3.49,0,0,0,313,59.14a2.85,2.85,0,0,0-3.52,2A3.12,3.12,0,0,0,309.37,61.73Z"/></g><g id="Group_2387" data-name="Group 2387"><g id="Group_2386" data-name="Group 2386"><path id="Path_5637" data-name="Path 5637" class="cls-47" d="M329.08,62.94l-.49,0a.52.52,0,0,1-.49-.52h0s0,0,0,0h0l0-.53a.51.51,0,0,1,.5-.49h0l.49,0a.53.53,0,0,1,.49.5h0v0l0,.52a.5.5,0,0,1-.48.49h-.05Zm0-.38h0a.13.13,0,0,0,.14-.13h0l0-.5v0h0a.13.13,0,0,0-.13-.13h0l-.5,0h0a.14.14,0,0,0-.13.14h0l0,.53h0a.15.15,0,0,0,.13.12h0l.47,0h0Z"/><path id="Path_5638" data-name="Path 5638" class="cls-47" d="M333.5,62.76a.51.51,0,0,1-.51-.48h0l0-.52v0h0a.51.51,0,0,1,.48-.51h0l.47,0h0a.51.51,0,0,1,.51.48h0l0,.53h0v0a.51.51,0,0,1-.48.51h0l-.5,0Zm.45-1.21-.49,0a.13.13,0,0,0-.13.14h0l0,.53a.14.14,0,0,0,.13.13h0l.49,0a.15.15,0,0,0,.13-.14h0l0-.53a.14.14,0,0,0-.13-.13h0v0Z"/><path id="Path_5639" data-name="Path 5639" d="M328.75,62a.26.26,0,0,1-.18-.32h0c.18-.77.68-2.53,2.52-2.54h0a.14.14,0,0,1,.09,0h0a2.83,2.83,0,0,1,2.7,2.46h0a.26.26,0,0,1-.19.31h0a.25.25,0,0,1-.31-.19h0a2.32,2.32,0,0,0-2.24-2.06h-.05c-1.41,0-1.82,1.36-2,2.15h0a.26.26,0,0,1-.25.2h-.07Z"/></g><path id="Path_5640" data-name="Path 5640" class="cls-8" d="M327,70.21c.66.43,10.26-.31,11.05-.76a.79.79,0,0,0,.44-.81c0-.63-.13-4.79-.87-6a1.62,1.62,0,0,0-1.1-.77c-.32,0-10.17.32-10.17.32Z"/><path id="Path_5641" data-name="Path 5641" d="M324.84,69.39c.25.8,2.64,1,2.77.84.34-.37.25-6.31-.65-7.58-.54-.76-1.12-.6-1.51.37A34,34,0,0,0,324.84,69.39Z"/><path id="Path_5642" data-name="Path 5642" class="cls-47" d="M329.77,63l-.48,0a.5.5,0,0,1-.49-.52h0v0h0l0-.53a.52.52,0,0,1,.51-.49h0l.49,0a.52.52,0,0,1,.49.51h-.1l.1,0,0,.53h0a.53.53,0,0,1-.47.49h-.07Zm0-.37h0a.14.14,0,0,0,.14-.14h0l0-.48a.11.11,0,0,1,0,0h0a.13.13,0,0,0-.13-.14h0l-.5,0a.13.13,0,0,0-.13.13h0l0,.54s0,0,0,0h0a.14.14,0,0,0,.14.12h0l.45,0s0,0,0,0h0s0,0,0,0Z"/><path id="Path_5643" data-name="Path 5643" class="cls-47" d="M334.19,62.78a.51.51,0,0,1-.51-.48h0l0-.52v0h0a.51.51,0,0,1,.48-.51h0l.48,0h0a.51.51,0,0,1,.51.48h0l0,.53h0v0a.51.51,0,0,1-.48.51h0l-.5,0Zm-.17-1,0,.53a.15.15,0,0,0,.14.13h0l.48,0a.14.14,0,0,0,.13-.15h0l0-.52a.15.15,0,0,0-.13-.14h0v0l-.49,0a.15.15,0,0,0-.13.14h0Z"/><path id="Path_5644" data-name="Path 5644" d="M329.26,62.51l-.16.46.24.84.72.46.34-.59-.31-.89-.24-.29Z"/><path id="Path_5645" data-name="Path 5645" d="M334.21,62.32l-.16.46.24.84.72.46.34-.59L335,62.6l-.24-.29Z"/><path id="Path_5646" data-name="Path 5646" class="cls-8" d="M329.23,61.73c0,.2.51.2.63.09a4.57,4.57,0,0,1,1.15-2.1,1.53,1.53,0,0,1,2,0,4.18,4.18,0,0,1,1.08,2c0,.06.68,0,.69-.09a3.55,3.55,0,0,0-1.89-2.44,2.87,2.87,0,0,0-3.53,2A2.51,2.51,0,0,0,329.23,61.73Z"/></g><path id="Path_5647" data-name="Path 5647" class="cls-6" d="M348.49,71.65c0,.08-.13.15-.28.15H298.08c-.16,0-.28-.07-.28-.15v-2c0-.09.12-.16.28-.16h50.13c.16,0,.28.07.28.16Z"/></g><g id="Group_2401" data-name="Group 2401"><path id="Path_5648" data-name="Path 5648" d="M135.77,151.64l3.86,0s1.88-31.5,1.05-34.64-2.82-3.55-3.45-3.13S135.77,151.64,135.77,151.64Z"/><g id="Group_2400" data-name="Group 2400"><path id="Path_5649" data-name="Path 5649" class="cls-48" d="M143.71,69.05c4.77-2.31,5.48,13.46,4.77,18.37-.58,4,2.09,5.23,2,5.5-.4,1.59-9,3.49-9,3.49-2.54.5,1.66-4.18-.07-6.89s1.59-18.17,1.8-18.87S143.71,69.05,143.71,69.05Z"/><g id="Group_2389" data-name="Group 2389"><path id="Path_5650" data-name="Path 5650" class="cls-27" d="M134.83,148.81c0,3.88-.76,5.29-2.73,6.5-.91.56.74,1.71.74,1.71a17,17,0,0,0,4.44-1.44c1.66-1.12.57-1.87.33-5.7C137.51,148.15,134.83,148.81,134.83,148.81Z"/><path id="Path_5651" data-name="Path 5651" d="M132.33,155.08c-.28.48-.18.42.44.47a7.33,7.33,0,0,0,5.45-1.81c1.26,3.16,0,3.31-3.29,3.68-1.48.17-4.2.85-5,0-.48-.52-.07-1,.91-1.63A4.82,4.82,0,0,1,132.33,155.08Z"/></g><path id="Path_5652" data-name="Path 5652" class="cls-8" d="M133.31,102.74c-.81,4.53-1.66,4.36-1.24,13.6s1.56,35.31,1.56,35.31l4.17,0,.14-36.86-.28-11.39Z"/><g id="Group_2390" data-name="Group 2390"><path id="Path_5653" data-name="Path 5653" class="cls-28" d="M145.3,150.68a11.65,11.65,0,0,0,.68,5.87c.41,1-4.3.85-4.3.85A23.75,23.75,0,0,0,142,151C141.65,149.28,145.3,150.68,145.3,150.68Z"/><path id="Path_5654" data-name="Path 5654" class="cls-8" d="M145.49,154.57c.22,2.1-.4,2.38-1.27,2.35-1.08,0-2.08.17-2.16-3a17.45,17.45,0,0,0-.31,3.06c.06,1.47,1.71,3,2.82,2.81a3.13,3.13,0,0,0,1.68-2.88A8.94,8.94,0,0,0,145.49,154.57Z"/></g><path id="Path_5655" data-name="Path 5655" class="cls-8" d="M144.83,100.59c1.19,4.46,1.83,4.94,2.18,14.17s-1.52,37.6-1.52,37.6h-3.72l-4.44-42.86.11-7.84Z"/><g id="Group_2391" data-name="Group 2391"><path id="Path_5656" data-name="Path 5656" d="M145.63,152.36H143.9c.19-19.91-1.07-47-4.09-51l4-.58,1.22-.11c1.17,4.39,1.8,4.92,2.15,14.11S145.63,152.36,145.63,152.36Z"/></g><g id="Group_2394" data-name="Group 2394"><path id="Path_5657" data-name="Path 5657" class="cls-6" d="M139,86.86l5.74-6.16s-1.64.14-1.34-6.7l-2.16,2h0l-2.52.14c1.1,4.86-1.22,4.83-1.22,4.83Z"/><g id="Group_2393" data-name="Group 2393"><g id="Group_2392" data-name="Group 2392"><path id="Path_5658" data-name="Path 5658" class="cls-49" d="M141.11,76h0l-2.23.11c0,.18-.06.78-.16,1.5.56.82,3.4,3.8,4.47,3.88a1,1,0,0,0,1.07-.89.89.89,0,0,0,0-.23c0-.57-.55-1.64-.66-2.6-.06-.42-.1-2.13-.1-2.8Z"/></g></g></g><g id="Group_2396" data-name="Group 2396"><g id="Group_2395" data-name="Group 2395"><path id="Path_5659" data-name="Path 5659" class="cls-6" d="M144.16,72.43c.2,3.25-1.63,6.32-3.8,6.32-1.76,0-3.26-1-4.72-5-1.2-3.23-1-6.7,3.24-7.51C142.85,65.5,143.94,69,144.16,72.43Z"/></g></g><g id="Group_2397" data-name="Group 2397"><path id="Path_5660" data-name="Path 5660" class="cls-19" d="M144.13,72.47a10.27,10.27,0,0,0-1.1-4.41l-2.7.76.5.34a10.71,10.71,0,0,1,1,5.34c0,1.86-1.14,4-2.46,4.15l.91.15C142.5,78.8,144.33,75.72,144.13,72.47Z"/></g><path id="Path_5661" data-name="Path 5661" class="cls-50" d="M140.46,69.5c-2.07-.88-5.43,1.2-5.43,2.66-1.07-1.46-.32-5.08,2.15-6,2.9-1,3.78-.9,4,.07C141.52,67.53,140.46,69.5,140.46,69.5Z"/><path id="Path_5662" data-name="Path 5662" class="cls-48" d="M141.13,66c1.29-.7,4.94,1,4.34,6.33-.34,3-2,4-2,4l.1-4.14L140.2,69.3Z"/><path id="Path_5663" data-name="Path 5663" class="cls-19" d="M142.68,71.46a.63.63,0,0,1,.88-.07.56.56,0,0,1,.18.27c.2.49.43,2.16-.14,2.43S142.68,71.46,142.68,71.46Z"/><path id="Path_5664" data-name="Path 5664" class="cls-19" d="M122.37,87.62a4.16,4.16,0,0,1-2.8-.24,20.3,20.3,0,0,0-2-.71,7.71,7.71,0,0,0-2,.6,4.26,4.26,0,0,0-1,1.3c-.1.25,0,.32.18.28a14.81,14.81,0,0,1,2.6-.82c.3.08.74.73.92.8s3,0,3.39.11S122.37,87.62,122.37,87.62Z"/><path id="Path_5665" data-name="Path 5665" class="cls-35" d="M138.09,80.42c-2.35,1-3.18,2.21-4.88,3.48a17.09,17.09,0,0,1-5.09,2.49c-.42.13-8.45.46-8.74.63a10.93,10.93,0,0,0,.88,2.66s8,.87,8.82.78c1.69-.2,7.64-2.47,8.87-2.81s.72-3.75,0-4.89A2.07,2.07,0,0,1,138.09,80.42Z"/><path id="Path_5666" data-name="Path 5666" class="cls-34" d="M136.91,81.34c-3.36,5.21-3.17,5.48-3.17,6.64s1,5,1,6-2.38,11-2.87,17.23c1.28.74,12,2.18,15.54.7,0,0-.15-3.56-.56-6.22-.59-3.85-1.8-7.7-1.07-11.72.28-1.57,3.62-9.58,3.09-10.84s-4.22-3.1-4.75-3.42c0,0-2.73,3.49-5.12,2.85a1.28,1.28,0,0,1-1-1.5,1.4,1.4,0,0,1,.13-.36A7.57,7.57,0,0,0,136.91,81.34Z"/><g id="Group_2398" data-name="Group 2398"><path id="Path_5667" data-name="Path 5667" class="cls-51" d="M145.76,99.27c.05.65-13.88,10.7-13.93,11l2.16-13,.35-.76,12.76-6.11c-.8,2.49-.79,2.86-1,3.62A10.29,10.29,0,0,0,145.76,99.27Z"/></g><path id="Path_5668" data-name="Path 5668" class="cls-15" d="M143.76,78.43l1,1.5L141,84.65l-1.88-2.46S143.56,80.69,143.76,78.43Z"/><path id="Path_5669" data-name="Path 5669" class="cls-15" d="M139.14,82.19a2,2,0,0,1-.43-2.51c-.78.66-1.45,1.19-1.45,1.19l0,2.53Z"/><path id="Path_5670" data-name="Path 5670" class="cls-15" d="M111.37,97.51c1.42-3.39,3-9.05,4.44-9.49h0l.12,0H116c2.71-.41,2.95,1.27,2.87,1.43a2.56,2.56,0,0,0,1.25,3.39l.05,0c1.33.61,4,.15,5.19-.5l2.48,1.9-.08.17a5.3,5.3,0,0,1,.62,2.2c.26,1.8.89,19.14.89,19.14l-2.54,1.1s-2-12.35-2.34-16.16a3.47,3.47,0,0,0-.06-.45c-3.67,6.6-.14,10.35.67,12.86a8.7,8.7,0,0,1-5.08-.65c-2.58-1.49-1.88-7.18-4.06-7.78s-2.22-3.67-2-6.41c-1.29,4.21-3.18,6-4,5.91a19.09,19.09,0,0,1-3-.74C109.37,101.49,109.9,101,111.37,97.51Z"/><g id="Group_2399" data-name="Group 2399"><path id="Path_5671" data-name="Path 5671" class="cls-19" d="M131.32,94.88c-1-.39-3.36-1.35-3.76-1.19a19.58,19.58,0,0,0-1.82,1.06,3,3,0,0,0-.74.87c-.09.22.12.59.36.35a10.22,10.22,0,0,1,1.16-.78s-.53.75-.46.93.22.2.22.2l.4-.18s-.3.29-.19.53.32,0,.48,0c-.15.16-.37.28-.11.46s.62-.06.62-.06-.24.23-.16.4.64.18.88.14,1-.06,1.8-.14c.45-.05,3.4-.17,3.4-.17l.15-1.66Z"/><path id="Path_5672" data-name="Path 5672" class="cls-35" d="M145.13,83.05c-.85.94-3,9.75-3.93,9.86s-10.34,1-10.66,1.36a26.76,26.76,0,0,0,.32,3.9s13.33-.31,14.72-1.26,3.86-11.67,3.62-12.85C148.48,80.49,145.13,83.05,145.13,83.05Z"/></g><path id="Path_5673" data-name="Path 5673" class="cls-19" d="M117.75,87.85c-.6.2-.78.47-1.43.69s-.9.23-.84.46.5.28,1,.15a10.7,10.7,0,0,1,1.37-.27,3.91,3.91,0,0,0,1.56-.07c.28-.1.55-.69-.41-1S117.75,87.85,117.75,87.85Z"/></g></g><g id="Group_2468" data-name="Group 2468"><g id="Group_2467" data-name="Group 2467"><path id="Path_5767" data-name="Path 5767" class="cls-52" d="M212.68,144.38c-.45.29-.36.52.21.52l32.1,0c.57,0,.58-.24,0-.52l-2.41-1.49a3.44,3.44,0,0,0-1.38-.32l-25.29,0a2.91,2.91,0,0,0-1.29.33Z"/><path id="Path_5768" data-name="Path 5768" class="cls-45" d="M212.12,167.37a1,1,0,0,0,1,1h0l31.67,0a1,1,0,0,0,1-1l0-21.89a1,1,0,0,0-1-1l-31.67,0a1,1,0,0,0-1,1h0Z"/><g id="Group_2466" data-name="Group 2466"><path id="Path_5769" data-name="Path 5769" d="M240.73,143.07c.19.38-.15,1.38-2.7,1s-14.8-.39-17.14-.09c-3.71.48-2.54-.79-2.23-2,0,0,.51-8-.48-9.63-1.22-2,3.32-5.56,5.23-6s11.86-.06,13.13.09c2.54.32,6.31,4.94,5.45,5.93C240.88,133.55,240.1,141.81,240.73,143.07Z"/><g id="Group_2465" data-name="Group 2465"><path id="Path_5770" data-name="Path 5770" class="cls-8" d="M220.89,143.94c-3.71.48-2.54-.79-2.23-2,0,0,.51-8-.48-9.63-1.22-2,3.32-5.56,5.23-6a39.84,39.84,0,0,1,6.64-.19l-.13,17.65C226.07,143.7,222.12,143.78,220.89,143.94Z"/></g><path id="Path_5771" data-name="Path 5771" d="M223.66,130.11a1,1,0,0,0,1,.95h0a1,1,0,0,0,1-.95h0V129a1,1,0,0,0-1-1h0a1,1,0,0,0-1,1Z"/><path id="Path_5772" data-name="Path 5772" class="cls-8" d="M234.74,130.14a.94.94,0,0,0,.94,1h0a1,1,0,0,0,.95-1V129a1,1,0,0,0-.95-.95h0a.94.94,0,0,0-.95.95h0Z"/><path id="Path_5773" data-name="Path 5773" d="M235.7,129.73a.63.63,0,0,0,.56-.7h0a18.48,18.48,0,0,0-.73-4.61h0a5.22,5.22,0,0,0-4.9-3.94h-.24a5.29,5.29,0,0,0-5.26,3.44h0a23.15,23.15,0,0,0-1.07,4.8h0a.64.64,0,0,0,.49.75h0a.64.64,0,0,0,.76-.48h0a22.26,22.26,0,0,1,1-4.58h0a4,4,0,0,1,4.09-2.66h.2c2.17.08,3.13,1.4,3.74,3.08h0a18.26,18.26,0,0,1,.68,4.34h0a.63.63,0,0,0,.63.57h.06Z"/></g></g><path id="Path_5774" data-name="Path 5774" class="cls-53" d="M218.48,143.66l3.34,1.31h22.37l-4-1.25Z"/></g><g id="Group_2470" data-name="Group 2470"><g id="Group_2469" data-name="Group 2469"><path id="Path_5775" data-name="Path 5775" class="cls-47" d="M205.47,153.36h-.09a1,1,0,0,1-.91-.91l-.05-1v-.08h0a1,1,0,0,1,.91-.92l.91,0h.06a1,1,0,0,1,.94.91l0,1h0s0,.05,0,.05h0a1,1,0,0,1-.92,1l-.91,0Zm0-.7h0l.87,0h0a.27.27,0,0,0,.25-.22h0a0,0,0,0,1,0,0h0l0-1h0a.26.26,0,0,0-.25-.24h0l-.94,0h0a.25.25,0,0,0-.24.25h0a.06.06,0,0,1,0,.06l0,.95h0a.25.25,0,0,0,.25.24h0Z"/><path id="Path_5776" data-name="Path 5776" class="cls-47" d="M197.22,153h0l-.92-.05h0a1,1,0,0,1-.9-1v0h.34l-.34,0,.06-1h0a1,1,0,0,1,1-.9h0c.08,0,.08,0,.08,0l.89.06h0a1,1,0,0,1,.9,1h0c0,.06,0,.07,0,.07l-.06,1h0a.94.94,0,0,1-.94.9Zm-.84-2.25v0h0a.26.26,0,0,0-.24.25l-.06,1h0a.26.26,0,0,0,.25.26l.91.06h0a.27.27,0,0,0,.25-.24l.06-1h0v0h0a.25.25,0,0,0-.24-.26h0l-.92,0Z"/><path id="Path_5777" data-name="Path 5777" d="M206.08,151.59a.5.5,0,0,0,.36-.59h0c-.34-1.44-1.27-4.73-4.71-4.76h-.16c-2.75.07-4.47,2-5.05,4.6h0a.5.5,0,0,0,.36.59h0a.49.49,0,0,0,.58-.37h0c.57-2.31,1.87-3.77,4.18-3.86h.09c2.63,0,3.4,2.55,3.78,4h0a.47.47,0,0,0,.46.37h0l.12,0Z"/></g><path id="Path_5778" data-name="Path 5778" class="cls-8" d="M209.47,166.94c-1.23.81-19.18-.59-20.65-1.41A1.52,1.52,0,0,1,188,164c.06-1.16.25-8.94,1.63-11.24a3.07,3.07,0,0,1,2.06-1.44l19,.59Z"/><path id="Path_5779" data-name="Path 5779" d="M213.39,165.41c-.46,1.5-4.93,1.85-5.18,1.57-.62-.7-.45-11.79,1.22-14.16,1-1.42,2.1-1.13,2.83.69S213.5,165,213.39,165.41Z"/><path id="Path_5780" data-name="Path 5780" class="cls-47" d="M204.18,153.4h-.11l0,0h0a1,1,0,0,1-.87-.9h0l0-1,.18,0h-.18a1,1,0,0,1,.9-1l.92,0h0a1,1,0,0,1,.95.91l.05,1h0s0,0,0,0h0a1,1,0,0,1-.92,1l-.9,0Zm0-.7h.06l.85,0h0a.27.27,0,0,0,.25-.22h0a0,0,0,0,1,0,0l-.05-1h0a.27.27,0,0,0-.24-.25l-.94,0h0a.26.26,0,0,0-.25.26h0a.34.34,0,0,1,0,.1l.05.91h0a.26.26,0,0,0,.27.24h0Z"/><path id="Path_5781" data-name="Path 5781" class="cls-47" d="M195.93,153.06h0L195,153h0a1,1,0,0,1-.9-.95v0h.35l-.35,0,.06-1h0a1,1,0,0,1,1-.9h.08l.88.06h0a.94.94,0,0,1,.9,1h0v.08l-.06,1h0a1,1,0,0,1-1,.9Zm.32-1.93h0a.26.26,0,0,0-.25-.26l-.91-.05v0h0a.27.27,0,0,0-.25.25l-.06,1h0a.26.26,0,0,0,.25.26l.9.06h0a.26.26,0,0,0,.26-.25l.06-1Z"/><path id="Path_5782" data-name="Path 5782" d="M205.14,152.56l.3.86L205,155l-1.35.86-.64-1.09.58-1.66.44-.54Z"/><path id="Path_5783" data-name="Path 5783" d="M195.89,152.21l.3.86-.44,1.55-1.35.87-.64-1.1.58-1.66.44-.55Z"/><path id="Path_5784" data-name="Path 5784" class="cls-8" d="M205.2,151.11c.05.37-.95.37-1.18.15s-.36-2.33-2.15-3.93a2.88,2.88,0,0,0-3.68,0,7.73,7.73,0,0,0-2,3.64c0,.12-1.27,0-1.28-.17a6.6,6.6,0,0,1,3.54-4.55C200.48,145.32,204.61,146.7,205.2,151.11Z"/></g><g id="Group_2483" data-name="Group 2483"><g id="Group_2482" data-name="Group 2482"><g id="Group_2476" data-name="Group 2476"><g id="Group_2473" data-name="Group 2473"><g id="Group_2471" data-name="Group 2471"><path id="Path_5785" data-name="Path 5785" class="cls-27" d="M161.93,162c.57,3.43-.12,5.6-.12,7a46,46,0,0,0,1.37,12.58c1.6,6.18,1.38,6.86.92,9.15s-1.83,4.34-.69,5.26a3.13,3.13,0,0,0,4.22-1.33,3,3,0,0,0,.35-1.42,47.22,47.22,0,0,0-.22-6.4c-.23-1.37.46-7.54.68-11.66s-.07-5.46.23-7.32a17.57,17.57,0,0,0-.23-5.83Z"/><path id="Path_5786" data-name="Path 5786" d="M163.83,191.76c-.45,1-.53,3.38.27,3.49s3.36-.36,3.85-4.39a10,10,0,0,0,0-2.56s1.05,3.18.6,5.13a19.81,19.81,0,0,1-1.47,3.86c-.69,1.71-3.1,2.83-3.9,2.25s-.64-2.41-.4-4A22.17,22.17,0,0,1,163.83,191.76Z"/></g><g id="Group_2472" data-name="Group 2472"><path id="Path_5787" data-name="Path 5787" class="cls-28" d="M177.07,162.37c-.16,3.47.78,5.54.94,6.9a45.89,45.89,0,0,1,.14,12.66c-.86,6.32-.54,7,.18,9.19s2.33,4.1,1.3,5.14a3.13,3.13,0,0,1-4.34-.81,3.1,3.1,0,0,1-.52-1.38,45.39,45.39,0,0,1-.54-6.38c.07-1.38-1.35-7.44-2.07-11.5s-.58-5.42-1.1-7.23a17.55,17.55,0,0,1-.47-5.82Z"/><path id="Path_5788" data-name="Path 5788" class="cls-21" d="M178.85,192.37c.57,1,1.23,2.94,0,3.29-.77.22-2.89-.71-4.15-4.06a8.48,8.48,0,0,1-.43-2.6s-.44,3.53.24,5.4a9.07,9.07,0,0,0,2.09,3.37c1.38,1.82,3.69,2.54,4.42,1.88s0-3.22-.75-4.64Z"/></g><path id="Path_5789" data-name="Path 5789" class="cls-54" d="M172.2,176.47c-.71-4.06-.58-5.42-1.1-7.23a15.51,15.51,0,0,1-.52-3.51l6.62-.49c.22,2,.74,3.33.85,4.31a47.43,47.43,0,0,1,.48,8.75l-5.94.24C172.45,177.82,172.32,177.12,172.2,176.47Z"/></g><path id="Path_5790" data-name="Path 5790" class="cls-52" d="M190.36,88c1.3.82,3.07,1.26,4.3,6.09,1.73,6.88-1.8,19.25-3.59,20.88-1.63-1.3-8-8.37-8-8.37Z"/><path id="Path_5791" data-name="Path 5791" class="cls-28" d="M183.76,105c3.75,2.65,4.33,5,5.16,7,0,0,4.14,13.5,5.09,14.89,2,3,4.8,14.93,5.16,15.55,2.06,2.1,2.08,2.79,2.08,2.79l.59,2.79s-.11.95-1.74-2c-.69-1.22-1.47-1.13-1.47-1.13l-.1.22.42,1.94-.15.12a20.48,20.48,0,0,1-1.3-1.76,6.64,6.64,0,0,1-.39-2.72c0-1.25-5.92-9.85-7.17-11.94s-2.63-7.9-4.3-10.4-6.67-7.5-7.09-10S183.76,105,183.76,105Z"/><path id="Path_5792" data-name="Path 5792" class="cls-23" d="M158.55,130.58a22.68,22.68,0,0,1,5.52-9.33,92.42,92.42,0,0,0,2-13s-1.24-3.46,1-5.89c1.49-1.59,7.2-2.19,9.28-1.5,10.77,3.58,10.22,7.1,10.22,7.1-1,3.1-.85,7-2.26,9.42-1,1.82-8.07,4.42-9.8,6.44,1.33,3,4.7,8,5.07,11.67.41,3.94-.6,26.7-1.9,30.61H161.81S156.75,136.75,158.55,130.58Z"/><g id="Group_2474" data-name="Group 2474"><path id="Path_5793" data-name="Path 5793" class="cls-24" d="M187.9,108.68c-.48,3.68-2.76,7.73-4.18,10.21-1,1.81-4.23,1.74-5.24,7.3,1.34,3,1,5.64,1.33,9.28.41,3.95-.6,26.7-1.9,30.61H170c-1-7-3.14-19.66-4.05-26.34-1.3-9.57,2.1-14.37,2.74-16.33s3.31-5.53,4.18-7.71c.72-1.78.46-11.66-1.82-14.76.75-.2,3.51-1,5.21-.3C186.81,104.71,187.9,108.68,187.9,108.68Z"/></g><g id="Group_2475" data-name="Group 2475"><path id="Path_5794" data-name="Path 5794" class="cls-19" d="M185.05,103.57a6.24,6.24,0,0,0-4,4c-.2.48-2.12,2-4.08-.32-.89-1-1.63-1.47-1.79-4.4,1.35-.83,3.2-3.74,3.53-7.47S185.05,103.57,185.05,103.57Z"/><path id="Path_5795" data-name="Path 5795" class="cls-19" d="M190.62,104a13.3,13.3,0,0,1,.31-1.89,19.73,19.73,0,0,0,1.45-2.26c2.7-4.92,2.25-9.2-1.66-11.35s-8.3-1.66-11,3.26-1.94,11.65,2,13.8c2.57,1.41,5.21.63,7.48-1.47C189.79,104.35,190.43,104.46,190.62,104Z"/></g><path id="Path_5796" data-name="Path 5796" class="cls-52" d="M191.55,95.83c1.63.66,2.28,2.28,1.63,4.65-.2.73,2-5.52.7-8.45s-2.93-4.35-4.56-4.14S191.55,95.83,191.55,95.83Z"/><path id="Path_5797" data-name="Path 5797" class="cls-15" d="M192.56,96.08c-.81.65-3.35.73-5.14.41s-3.92,1.79-3.92,1.79l-5.05-3.75s.49-6.8,7.17-7.51c4.4-.46,5.29,1.6,6,3.19C193.54,94.12,192.56,96.08,192.56,96.08Z"/><path id="Path_5798" data-name="Path 5798" class="cls-15" d="M186.11,96.16c-1.14.49-9.2,8-6.26,17.3-5.55-2.61-7.51-13.65-7.51-13.65s5.45-9.9,10.46-11.91C184.86,87.06,186.11,96.16,186.11,96.16Z"/></g><path id="Path_5799" data-name="Path 5799" class="cls-55" d="M158.53,141.8l17,23.19,3.5-18-9.53-10.59Z"/><g id="Group_2481" data-name="Group 2481"><g id="Group_2480" data-name="Group 2480"><g id="Group_2479" data-name="Group 2479"><g id="Group_2478" data-name="Group 2478"><path id="Path_5800" data-name="Path 5800" d="M155,139.38a1.14,1.14,0,0,0,.74,1.42h0l11.16,3.45a1.14,1.14,0,0,0,1.42-.75l1.54-5.9a1.14,1.14,0,0,0-.75-1.42l-10.63-3.29a1.14,1.14,0,0,0-1.42.75h0Z"/><g id="Group_2477" data-name="Group 2477"><path id="Path_5801" data-name="Path 5801" class="cls-8" d="M158.88,132.78l9.7,3.06a2.18,2.18,0,0,1,1.93,2.39.28.28,0,0,0,0,.09l-.4,1.64-14.55-4.51C155.75,134.82,156.34,132,158.88,132.78Z"/></g></g></g><path id="Path_5802" data-name="Path 5802" class="cls-56" d="M164.34,138.79a1,1,0,0,0,0-.52h0a1,1,0,0,0-.7-.83h0l-2.22-.75a1,1,0,0,0-.52-.05h0a1.07,1.07,0,0,0-.82.7h0l.21.08.22.08a.6.6,0,0,1,.46-.41h0a.6.6,0,0,1,.3,0h0l2.23.76a.6.6,0,0,1,.4.47h0a.52.52,0,0,1,0,.3h0a.6.6,0,0,1-.46.4h0a.61.61,0,0,1-.3,0h0l-2.22-.76a.6.6,0,0,1-.4-.47h0a.61.61,0,0,1,0-.3h0l-.21-.07-.22-.08a1.18,1.18,0,0,0,0,.53h0a1.1,1.1,0,0,0,.7.82h0l2.23.75a1,1,0,0,0,.52.05h0a1.08,1.08,0,0,0,.82-.7Z"/></g><path id="Path_5803" data-name="Path 5803" class="cls-27" d="M170.18,102c-5.78-2-11.11,13.66-12.07,16.83,0,0,.34,9,1.37,17.29a14.25,14.25,0,0,0,.54,4.5c.32,1.14.58,2.83,1.16,2.77a6.3,6.3,0,0,0-.13-1.37s.25,1.59.76,1.61c.22,0,.35-.37,0-1.93.3,1.33.41,1.92.85,1.88s0-1.79-.09-2.07c.4,1.25.61,2.25,1,1.64.29-.4-.39-2.39-.42-2.68s1.08,1,1.54,1.14.56.1-.11-1-.73-1.6-1.19-2.35a3.67,3.67,0,0,1-.91-1.9c-.29-1.36-.17-14.18.49-16.23s6.5-9.39,7.58-11.56S171.76,102.54,170.18,102Z"/></g></g><path id="Path_5804" data-name="Path 5804" class="cls-23" d="M169.1,101.24c-2.11.1-5.36,3.07-8.49,9.21a62.81,62.81,0,0,1,5.86,5.19s5.43-7.1,5.53-10.3c.1-3.38-1.91-4-1.91-4Z"/><path id="Path_5805" data-name="Path 5805" class="cls-24" d="M187.66,108.27c.78.75,3.51,9.55,3.51,9.55l-5.18,4-2.87-4.23Z"/></g><path id="Path_5806" data-name="Path 5806" class="cls-57" d="M168.78,174,86.1,224.25H215.15l48.66-26.34-92-2.38Z"/><path id="Path_5807" data-name="Path 5807" class="cls-52" d="M168.24,173.56c-.75,1-.74,1.91,0,1.91l95.88-.9c.73,0,1.19.05.39-1l-3.66-6.84c-.42-.35-.47-.62-1-.62h-86.7a2.66,2.66,0,0,0-1.64.62Z"/><path id="Rectangle_749" data-name="Rectangle 749" class="cls-45" d="M169.13,174h94.33a1.62,1.62,0,0,1,1.62,1.62h0v28.88a1.61,1.61,0,0,1-1.62,1.62H169.13a1.62,1.62,0,0,1-1.62-1.62h0V175.66A1.63,1.63,0,0,1,169.13,174Z"/><path id="Path_5808" data-name="Path 5808" class="cls-58" d="M257.74,170.57l-56.43.78,5.62,2.74,57.83,0Z"/><g id="Group_2486" data-name="Group 2486"><path id="Path_5809" data-name="Path 5809" class="cls-59" d="M187.24,169.73l-14.08,1-5.09,3.45h42.84Z"/><path id="Path_5810" data-name="Path 5810" d="M174.34,179.53c.41-2.16.67-4.52.87-5.17h0c.22-1,3.46-2.65,5.47-2.67h0c2.36-.13,6.58-2.94,7.88-4.83h0a3.71,3.71,0,0,0,.68-2h0a1.74,1.74,0,0,0-1.67-1.8h-.15a3.42,3.42,0,0,0-.45,0h0l.11.63a1.87,1.87,0,0,1,.34,0h0a1.07,1.07,0,0,1,1.18.93.88.88,0,0,1,0,.23h0a3.05,3.05,0,0,1-.57,1.63h0c-1.07,1.67-5.43,4.51-7.37,4.54h0c-2.27.13-5.49,1.53-6.06,3.13h0c-.35,1.16-.73,5.83-1.62,8h0c-.28.75-.64,1.1-.81,1.06h0c-.21,0-.67-.62-.88-1.83h0a22.43,22.43,0,0,1-.34-4.09h0a12.23,12.23,0,0,1,.27-3.08h0a6.71,6.71,0,0,1,2.29-1.24h0c1.08-.54,2.17-.8,2.32-1.67h0c-.08-.79-.86-1-1.57-1.2h0a9.83,9.83,0,0,1-2-.63h0c-.25-.14-.42-.6-.42-1.26h0a9.53,9.53,0,0,1,1.25-4.3h0l-.1-.14v-.48c-.67.19-.78.87-1.2,1.82h0a10.34,10.34,0,0,0-.61,3.11h0a2,2,0,0,0,.72,1.8h0a9.85,9.85,0,0,0,2.13.7h0c.74.19,1.13.49,1.1.59h0a.76.76,0,0,1-.08.11h0a2.34,2.34,0,0,1-.41.29h0a15.74,15.74,0,0,1-1.44.68h0c-1.1.5-2.23.88-2.61,1.56h0a11.1,11.1,0,0,0-.33,3.35h0a22.86,22.86,0,0,0,.35,4.21h0c.27,1.21.56,2.25,1.5,2.34h0c1.35-.17,1.7-2.23,2.17-4.38Z"/><g id="Group_2485" data-name="Group 2485"><path id="Path_5811" data-name="Path 5811" d="M172.83,170.44a1.19,1.19,0,0,0,1.19,1.2h12.36a1.19,1.19,0,0,0,1.19-1.19h0l-.29-6.44a1.19,1.19,0,0,0-1.18-1.19H174.32a1.19,1.19,0,0,0-1.19,1.19h0Z"/><g id="Group_2484" data-name="Group 2484"><path id="Path_5812" data-name="Path 5812" class="cls-8" d="M174.08,162.63h12.24c1.78,0,1.11.67,1.11,1.37l0,.1-7.16,3.45L173,164.09V164C173,163.31,172.38,162.59,174.08,162.63Z"/></g></g></g><g id="Group_2487" data-name="Group 2487"><path id="Path_5813" data-name="Path 5813" class="cls-21" d="M225.94,155.56c.81,1.7-1.33,15.22-2.67,15.89s-12.22.46-12.22.46l-.6-16.22c2.2.2,2.27.6,6.18,0C220.08,155.16,225.71,155.09,225.94,155.56Z"/><path id="Path_5814" data-name="Path 5814" class="cls-18" d="M198.89,155.56c-.26,1.86,1.32,15.22,2.65,15.89s11.63.46,11.63.46l.07-15.95a42.77,42.77,0,0,1-5.17-.56C204.62,154.87,199,154.78,198.89,155.56Z"/><path id="Path_5815" data-name="Path 5815" class="cls-21" d="M206.92,157.62l-2.39-.27-.34,2.93.94,1.33,1.46-1.2Z"/><path id="Path_5816" data-name="Path 5816" class="cls-18" d="M218.19,157.62l2.39-.27.34,2.93-.93,1.33-1.47-1.2Z"/><path id="Path_5817" data-name="Path 5817" class="cls-21" d="M206,158.71a51.32,51.32,0,0,1,2.24-5.79h0c1.3-2.92,3.26-5.68,4.49-5.55h0c1.06-.11,2.72,2.06,3.9,4.68h0a56.22,56.22,0,0,1,2.45,6.52h0a.54.54,0,0,0,.67.35h0a.54.54,0,0,0,.35-.67h0a54.36,54.36,0,0,0-2.51-6.65h0c-1.29-2.64-2.73-5.18-4.86-5.3h0c-2.36.13-4,3.23-5.44,6.16h0a55.29,55.29,0,0,0-2.3,5.92h0a.54.54,0,0,0,.35.67h0a.41.41,0,0,0,.16,0h0a.54.54,0,0,0,.51-.37Z"/></g><g id="Group_2488" data-name="Group 2488"><path id="Path_5818" data-name="Path 5818" d="M236.41,162.4c.74,2.42,3.11,9.16,1.67,9.86-.6.43-3.6.21-6.68.18-3.59,0-7.27.26-7.61,0-1.37-1.06,1.83-10,1.83-10Z"/><path id="Path_5819" data-name="Path 5819" d="M243.36,173.93a23.78,23.78,0,0,0,3.37-.36h0c.67-.18,1.1-.23,1.2-.8h0c0-.35-.25-.48-.46-.63h0a5.28,5.28,0,0,0-.84-.38h0c-1.78-.62-5.45-.4-6.62-1.9h0a5.57,5.57,0,0,1-.29-1.27h0c-.12-.72-.24-1.62-.42-2.5h0c-.39-1.75-.83-3.59-2.3-3.72h0V163c.51,0,1,.74,1.37,1.94h0a31.45,31.45,0,0,1,.71,3.73h0a4.15,4.15,0,0,0,.44,1.58h0c1.6,1.88,5.4,1.49,6.89,2.1h0a4.48,4.48,0,0,1,.8.37h0a3,3,0,0,1-.6.18h0a24,24,0,0,1-3.27.35h0c-.49,0-1,0-1.64,0h0a89,89,0,0,1-10.06-.72h0a29.79,29.79,0,0,1-6.74-1.32h0c-1.12-.65-1.59-2.55-1.58-4.34h0a6.8,6.8,0,0,1,.63-3.29h0a2.78,2.78,0,0,1,1.82-.57h.16l.05-.65h-.2a3.3,3.3,0,0,0-2.31.78h0a6.73,6.73,0,0,0-.8,3.73h0c0,1.88.4,4,1.89,4.9h0c.86.5,3.62,1,7,1.41h0a88.15,88.15,0,0,0,10.14.73h0c.61,0,1.17,0,1.68,0Z"/><path id="Path_5820" data-name="Path 5820" class="cls-8" d="M237,162.1a.27.27,0,0,0-.28-.14l-11.6,0s-.21,0-.26.16a9.29,9.29,0,0,0-.49,2.86c.19.37,6.14,2.33,6.7,2.33s6.33-2,6.52-2.33A9,9,0,0,0,237,162.1Z"/></g><g id="Group_2490" data-name="Group 2490"><path id="Path_5821" data-name="Path 5821" class="cls-23" d="M241.86,168.74c0,3.7,4.85,3.93,8.55,3.93h0c3.7,0,8.55-.23,8.55-3.93v-.23c.12-5.44-4.85-7.63-8.55-7.63h0c-3.7,0-8.67,2.54-8.55,7.63Z"/><path id="Path_5822" data-name="Path 5822" class="cls-23" d="M256.65,162.9a6,6,0,0,1-6.24,5.72h0a6,6,0,0,1-6.24-5.72h0a6,6,0,0,1,6.24-5.72h0A6,6,0,0,1,256.65,162.9Zm-.92,0a5.09,5.09,0,0,0-5.32-4.8h0a5.09,5.09,0,0,0-5.32,4.8h0a5.09,5.09,0,0,0,5.32,4.8h0A5.09,5.09,0,0,0,255.73,162.9Z"/><g id="Group_2489" data-name="Group 2489"><path id="Path_5823" data-name="Path 5823" class="cls-24" d="M256.52,162.7a.33.33,0,0,1,.06.46.36.36,0,0,1-.14.11,21.17,21.17,0,0,1-6,3.24c-.68.12-5.33-2.4-5.91-3a1.23,1.23,0,0,1-.4-.5,9.68,9.68,0,0,1,12.35-.34Z"/></g><path id="Path_5824" data-name="Path 5824" class="cls-41" d="M251.68,166.58a1.27,1.27,0,0,1-1.27,1.27h0a1.27,1.27,0,0,1-1.27-1.27h0a1.27,1.27,0,0,1,1.27-1.27h0a1.27,1.27,0,0,1,1.27,1.27Zm-.46,0a.81.81,0,0,0-.81-.81h0a.81.81,0,0,0-.81.81h0a.81.81,0,0,0,.81.81h0A.81.81,0,0,0,251.22,166.58Z"/></g><path id="Path_5826" data-name="Path 5826" class="cls-1" d="M384.77,142.7l-19.6-11Z"/></g></svg>