<svg id="Layer_1" data-name="Layer 1" xmlns="http://www.w3.org/2000/svg" viewBox="0 0 426.23 229.62"><defs><style>.cls-1{fill:#2f1a31;}.cls-2{fill:#a2bedf;}.cls-3{fill:#7ba1cd;}.cls-4{fill:#704a76;}.cls-5{fill:#020202;}.cls-6{fill:#f6b686;}.cls-7{fill:#ced892;}.cls-8{fill:#0f1020;}.cls-9{fill:#e28568;}.cls-10{fill:#98a7d5;}.cls-11{fill:#446e8e;}.cls-12{fill:#e8a679;}.cls-13{fill:#101132;}.cls-14{fill:#74a1bd;}.cls-15{fill:#fff;}.cls-16{opacity:0.3;}.cls-17{fill:#97b4de;}.cls-18{fill:#db6b49;}.cls-19{fill:#dd8963;}.cls-20{fill:#e08b65;}.cls-21{fill:#fefeff;}.cls-22{fill:#171244;}.cls-23{fill:#bed6dc;}.cls-24{fill:#41438f;}.cls-25{fill:#c05e47;}.cls-26{fill:#ddeae8;}.cls-27{fill:#56335b;}</style></defs><g id="Group_588" data-name="Group 588"><g id="Group_510" data-name="Group 510"><g id="Group_505" data-name="Group 505"><g id="Group_504" data-name="Group 504"><path id="Path_2137" data-name="Path 2137" class="cls-1" d="M202.46,190.76l-.31,0a.43.43,0,0,1-.41-.43l1.69-28.2,4.5-1-4.77,29.1A.65.65,0,0,1,202.46,190.76Z"/></g></g><g id="Group_509" data-name="Group 509"><g id="Group_506" data-name="Group 506"><path id="Path_2138" data-name="Path 2138" class="cls-2" d="M213.86,98l10.57,62.46c.58,3.44,1.15,5.53,3.77,5.5l54.12-.32c3.56,0,6.44-3.89,6.44-8.62,0-7.39-1.68-17.46-10.18-21.36-14.09-6.46-29.67,6.12-38.37,2.38-7.63-3.28-1.82-39.44-19.41-48.26C216.87,87.77,212.89,92.48,213.86,98Z"/></g><g id="Group_507" data-name="Group 507"><path id="Path_2139" data-name="Path 2139" class="cls-2" d="M189.92,89.28h28.91l20.32,58.4s-28.68-4.54-29.4-4.78S189.92,89.28,189.92,89.28Z"/></g><g id="Group_508" data-name="Group 508"><path id="Path_2140" data-name="Path 2140" class="cls-3" d="M185.07,98l10.57,62.46c.58,3.44,2.87,5.87,5.5,5.83l52.39-.66c3.56,0,6.44-3.88,6.44-8.62,0-7.38-1.68-17.45-10.17-21.35-14.09-6.46-29.68,6.12-38.37,2.38-7.64-3.29-1.82-39.44-19.42-48.26C188.08,87.77,184.1,92.48,185.07,98Z"/></g></g></g><g id="Group_587" data-name="Group 587"><g id="Group_511" data-name="Group 511"><path id="Path_2141" data-name="Path 2141" class="cls-1" d="M263.77,189.68s-.09,3.2,2,4.22,8.35,2.18,5.89,4.11c-1.41,1.11-7.71,0-9.5-.1s-3.51.6-4.78-.68.43-7.88.43-7.88a7.22,7.22,0,0,0,2.89.93A5.79,5.79,0,0,0,263.77,189.68Z"/></g><g id="Group_512" data-name="Group 512"><path id="Path_2142" data-name="Path 2142" class="cls-1" d="M283.28,189.65s-.09,3.21,2,4.23,8.35,2.18,5.89,4.11c-1.41,1.11-7.71,0-9.5-.1s-3.52.59-4.78-.68.43-7.88.43-7.88a7.22,7.22,0,0,0,2.89.93A5.7,5.7,0,0,0,283.28,189.65Z"/></g><g id="Group_514" data-name="Group 514"><g id="Group_513" data-name="Group 513"><path id="Path_2143" data-name="Path 2143" class="cls-4" d="M285.61,184.36c-1.59-21-2-35.18-8.61-44.29-7.28-10-25.14-20.06-32.66-20.5-12.27-.72-19.68,4.16-19.68,4.16-9.21,19.14,5.21,21.68,15.88,22.2l1.06.06c6.45.41,17.94,2,22.28,8.47,3.44,5.08,5.83,12.21,6.84,30.61a6.52,6.52,0,0,0,6.69,6.17S286.18,191.91,285.61,184.36Z"/></g></g><g id="Group_516" data-name="Group 516"><g id="Group_515" data-name="Group 515"><path id="Path_2144" data-name="Path 2144" class="cls-4" d="M268.2,185.44c.21-21.06.86-31.82-5.46-41.15-4.06-6-10.17-10.53-18.16-13.46A70.14,70.14,0,0,0,224.66,127c-12.26-.72-18.2-6-18.2-6-9.93,24.5,26.81,23.08,36.26,33.52,4.12,4.55,9.22,13.2,10.23,31.6a6.52,6.52,0,0,0,6.69,6.17S268.12,193.14,268.2,185.44Z"/></g></g><g id="Group_517" data-name="Group 517"><path id="Path_2145" data-name="Path 2145" class="cls-5" d="M268.14,164.75c0-.13-.63-12.62-2.72-17-2.65-5.52-10.34-11.29-18.29-13.71l.05-.13c8,2.43,15.7,8.23,18.37,13.78,2.1,4.39,2.73,16.92,2.73,17Z"/></g><g id="Group_518" data-name="Group 518"><path id="Path_2146" data-name="Path 2146" class="cls-6" d="M209.62,85.66l38.65,3.16s.56-7.27-11.66-9.45a30.72,30.72,0,0,0-3.58-.45,35.34,35.34,0,0,0-6.17.13C214.78,80.36,209.62,85.66,209.62,85.66Z"/></g><g id="Group_519" data-name="Group 519"><path id="Path_2147" data-name="Path 2147" class="cls-7" d="M218.68,80.73S233,89.85,242.2,81c0,0,9.59,4.34,13.83,8.73a15.86,15.86,0,0,1-9.11,7.81s2.41,7.84,1.35,12.77c-.6,2.78-1.37,5.67-2.12,8.25-1.51,5.18-8.35,6.64-13.73,6.52-8.22-.18-17.36,1.31-19.17-.32,0,0-.89-20.7,0-31.19a17.65,17.65,0,0,1-6.79-7.79S213.44,82,218.68,80.73Z"/></g><g id="Group_520" data-name="Group 520"><path id="Path_2148" data-name="Path 2148" class="cls-1" d="M206.42,85.85c-.73.76.64,3.32,3.05,5.73s6,4.79,6.77,4-1.71-4.38-4.13-6.79S207.15,85.08,206.42,85.85Z"/></g><g id="Group_521" data-name="Group 521"><path id="Path_2149" data-name="Path 2149" class="cls-8" d="M232.56,87.69c-1.84,0-3.5-1.38-4.83-4a21.24,21.24,0,0,1-1.6-4.51l.24-.05c0,.09,2,9,6.71,8.31s4-7.85,4-7.92l.25,0c0,.07.77,7.43-4.2,8.18A3.64,3.64,0,0,1,232.56,87.69Z"/></g><g id="Group_522" data-name="Group 522"><path id="Path_2150" data-name="Path 2150" class="cls-9" d="M234.1,88.9a1.05,1.05,0,0,1-1,1.12h0a.78.78,0,0,1-.87-.71.62.62,0,0,1,0-.27c.07-.54.38-1,.85-1A1,1,0,0,1,234.1,88.9Z"/></g><g id="Group_523" data-name="Group 523"><path id="Path_2151" data-name="Path 2151" class="cls-6" d="M226.56,129.28l-.62-9.8c6.09-.38,10.61-2.44,13.83-6.28,6.75-8.07,5.44-21.53,5.42-21.66L255,90.43c.08.71,1.89,17.68-7.65,29.08C242.33,125.44,235.35,128.73,226.56,129.28Z"/></g><g id="Group_551" data-name="Group 551"><g id="Group_524" data-name="Group 524"><path id="Path_2152" data-name="Path 2152" class="cls-10" d="M232.07,127.63s-.45,1.78.19,2.44,2.74,1.58,1.61,2.53c-.66.55-2.79-.34-3.43-.48s-1.35.17-1.64-.59,1.16-4.34,1.16-4.34a1.83,1.83,0,0,0,.93.64A1.67,1.67,0,0,0,232.07,127.63Z"/></g><g id="Group_526" data-name="Group 526"><g id="Group_525" data-name="Group 525"><path id="Path_2153" data-name="Path 2153" class="cls-11" d="M231.22,129.15h-1.07a2.42,2.42,0,0,1-2.11-1.69c-1-2.26-2.57-3-4.06-4.32a18.75,18.75,0,0,0-10.63-4.63v-5.59c.43,0,10.47.07,16.56,5.58a13.25,13.25,0,0,1,4.28,7.69,2.73,2.73,0,0,1-2.48,3A2,2,0,0,1,231.22,129.15Z"/></g></g><g id="Group_527" data-name="Group 527"><path id="Path_2154" data-name="Path 2154" class="cls-10" d="M223.54,132s-.88,1.64-.43,2.41,2.28,2.08.94,2.79c-.78.41-2.64-.89-3.23-1.15s-1.35-.1-1.45-.9,2.22-4,2.22-4a1.49,1.49,0,0,0,1.92.86Z"/></g><g id="Group_529" data-name="Group 529"><g id="Group_528" data-name="Group 528"><path id="Path_2155" data-name="Path 2155" class="cls-11" d="M222.3,133.32l-1.4-.3a1.55,1.55,0,0,1-1.3-1.7,7.59,7.59,0,0,0-1.26-5.72,15,15,0,0,0-6.2-4.64,6.22,6.22,0,0,1-3.87-6.49l.32-2.21c-.67-2.24,10.65,3.61,16.82,9,2.26,2,1.86,5.6.54,9.68A3.13,3.13,0,0,1,222.3,133.32Z"/></g></g><g id="Group_530" data-name="Group 530"><path id="Path_2156" data-name="Path 2156" class="cls-9" d="M225.07,99.24c-1-3.15-8.16-2.59-11.42.31-3.61,3.2-7.67,14.07-5.58,16.76S224.94,119,224.83,115C224.55,105.21,226.64,104.26,225.07,99.24Z"/></g><g id="Group_531" data-name="Group 531"><path id="Path_2157" data-name="Path 2157" class="cls-6" d="M218,97.45c.85-.23,1-1.46,1.06-2.53l.65-2.22.27-1,1.63-5.6.29,5.56L222,95l0,.76a2.24,2.24,0,0,0,.39,1.49,1.08,1.08,0,0,1-.73,1.34,1,1,0,0,1-.3,0A4.41,4.41,0,0,1,218,97.45Z"/></g><g id="Group_532" data-name="Group 532"><path id="Path_2158" data-name="Path 2158" class="cls-6" d="M227.19,89.34a5.55,5.55,0,1,0-4.76,6.54A5.74,5.74,0,0,0,227.19,89.34Z"/></g><g id="Group_533" data-name="Group 533"><path id="Path_2159" data-name="Path 2159" class="cls-12" d="M217.78,92.05a1.29,1.29,0,0,0,1.81-.06l0,0a1.43,1.43,0,0,0-.53-1.86,1.27,1.27,0,0,0-1.81.06l0,0A1.44,1.44,0,0,0,217.78,92.05Z"/></g><g id="Group_535" data-name="Group 535"><g id="Group_534" data-name="Group 534"><path id="Path_2160" data-name="Path 2160" class="cls-13" d="M222.11,89.39a.11.11,0,0,0,.07-.08.14.14,0,0,0-.09-.15,1.29,1.29,0,0,0-1.48.53.12.12,0,0,0,0,.17.14.14,0,0,0,.16,0,2,2,0,0,1,1.23-.45A.11.11,0,0,0,222.11,89.39Z"/></g></g><g id="Group_536" data-name="Group 536"><path id="Path_2161" data-name="Path 2161" class="cls-13" d="M221.34,90.8c0,.28.21.49.41.47s.35-.26.33-.54-.22-.5-.42-.48S221.31,90.52,221.34,90.8Z"/></g><g id="Group_538" data-name="Group 538"><g id="Group_537" data-name="Group 537"><path id="Path_2162" data-name="Path 2162" class="cls-13" d="M226.38,89.48a.12.12,0,0,0,.12-.12.18.18,0,0,0,0-.1,1.29,1.29,0,0,0-1.57-.07.11.11,0,0,0,0,.16.12.12,0,0,0,.16,0,2.07,2.07,0,0,1,1.3.06A.11.11,0,0,0,226.38,89.48Z"/></g></g><g id="Group_539" data-name="Group 539"><path id="Path_2163" data-name="Path 2163" class="cls-13" d="M225.13,90.49a.47.47,0,0,0,.2.6c.2.06.43-.11.51-.38a.46.46,0,0,0-.2-.6C225.44,90.05,225.22,90.22,225.13,90.49Z"/></g><g id="Group_540" data-name="Group 540"><path id="Path_2164" data-name="Path 2164" class="cls-5" d="M223.43,94.37a2.6,2.6,0,0,1-1.59-.65.08.08,0,0,1,0-.1.06.06,0,0,1,.08,0,2,2,0,0,0,2.83,0h0a.07.07,0,0,1,.11,0,.08.08,0,0,1,0,.08A2.08,2.08,0,0,1,223.43,94.37Z"/></g><g id="Group_541" data-name="Group 541"><path id="Path_2165" data-name="Path 2165" class="cls-14" d="M216.75,87.29s-.53-2.87.71-3.14.89.63.89.63,2.36-2.53,3.83-1.6.72,1.11.72,1.11a9,9,0,0,1,3.1,1.14c.9.73-.85,1.67-2.2,1s-2.11-.75-1.9,0-1.4,1.08-2.39.21S217.19,88.34,216.75,87.29Z"/></g><g id="Group_542" data-name="Group 542"><path id="Path_2166" data-name="Path 2166" class="cls-6" d="M224.9,111.23a10,10,0,0,1-4-.81,12.21,12.21,0,0,1-6.18-6.87l4.05-1.34a7.92,7.92,0,0,0,3.84,4.31c1.85.78,4.15.53,6.84-.75l1.83,3.85A14.77,14.77,0,0,1,224.9,111.23Z"/></g><g id="Group_549" data-name="Group 549"><g id="Group_543" data-name="Group 543"><path id="Path_2167" data-name="Path 2167" class="cls-6" d="M231.9,107.21h0a.4.4,0,0,0,.56.12h0l2.89-1.87a.4.4,0,0,0,.12-.55h0a.4.4,0,0,0-.55-.12h0L232,106.65a.41.41,0,0,0-.12.56Z"/></g><g id="Group_544" data-name="Group 544"><path id="Path_2168" data-name="Path 2168" class="cls-6" d="M231.34,106.35h0a.41.41,0,0,0,.56.12h0l3.23-2.08a.4.4,0,0,0,.12-.56h0a.39.39,0,0,0-.55-.12h0l-3.23,2.09a.4.4,0,0,0-.12.55Z"/></g><g id="Group_545" data-name="Group 545"><path id="Path_2169" data-name="Path 2169" class="cls-6" d="M229.51,107.2l.14,0a.51.51,0,0,0,.62-.31l.83-2.47a.49.49,0,0,0-.31-.62l-.13,0a.49.49,0,0,0-.62.31l-.83,2.47A.49.49,0,0,0,229.51,107.2Z"/></g><g id="Group_546" data-name="Group 546"><path id="Path_2170" data-name="Path 2170" class="cls-6" d="M230.78,105.48h0a.39.39,0,0,0,.55.12h0l2.59-1.68a.4.4,0,0,0,.12-.55h0a.4.4,0,0,0-.56-.12h0l-2.59,1.67a.41.41,0,0,0-.12.56Z"/></g><g id="Group_547" data-name="Group 547"><path id="Path_2171" data-name="Path 2171" class="cls-6" d="M231.14,109.67a8.64,8.64,0,0,0,2.75-2.24c.33-.46-1.39-3-2-2.88a8.7,8.7,0,0,0-2.26,1.37Z"/></g><g id="Group_548" data-name="Group 548"><path id="Path_2172" data-name="Path 2172" class="cls-6" d="M232.46,108.07h0a.39.39,0,0,0,.55.12h0l2.59-1.67a.4.4,0,0,0,.12-.55h0a.41.41,0,0,0-.56-.12h0l-2.58,1.67a.39.39,0,0,0-.12.55Z"/></g></g><g id="Group_550" data-name="Group 550"><path id="Path_2173" data-name="Path 2173" class="cls-9" d="M213.4,103.19,215,106s8.09-1.9,7.53-2.8S217,100.1,217,100.1Z"/></g></g><g id="Group_558" data-name="Group 558"><g id="Group_552" data-name="Group 552"><path id="Path_2174" data-name="Path 2174" class="cls-6" d="M219.12,125.34h0a1.17,1.17,0,0,0,1,1.3l9.9,1.2a1.16,1.16,0,0,0,1.3-1h0a1.18,1.18,0,0,0-1-1.3l-9.89-1.2A1.16,1.16,0,0,0,219.12,125.34Z"/></g><g id="Group_553" data-name="Group 553"><path id="Path_2175" data-name="Path 2175" class="cls-6" d="M219.48,122.38h0a1.17,1.17,0,0,0,1,1.3L231.56,125a1.17,1.17,0,0,0,1.3-1h0a1.17,1.17,0,0,0-1-1.3l-11.06-1.34A1.17,1.17,0,0,0,219.48,122.38Z"/></g><g id="Group_554" data-name="Group 554"><path id="Path_2176" data-name="Path 2176" class="cls-6" d="M213.82,120.88l.21.35a1.42,1.42,0,0,0,1.94.47l6.45-4a1.42,1.42,0,0,0,.46-1.95l-.22-.35a1.41,1.41,0,0,0-1.94-.46l-6.44,4A1.42,1.42,0,0,0,213.82,120.88Z"/></g><g id="Group_555" data-name="Group 555"><path id="Path_2177" data-name="Path 2177" class="cls-6" d="M219.84,119.41h0a1.17,1.17,0,0,0,1,1.3l8.87,1.08a1.18,1.18,0,0,0,1.3-1h0a1.18,1.18,0,0,0-1-1.3l-8.87-1.08A1.17,1.17,0,0,0,219.84,119.41Z"/></g><g id="Group_556" data-name="Group 556"><path id="Path_2178" data-name="Path 2178" class="cls-6" d="M213.24,126.67s5.3,4,9.89,2.86c1.59-.41,2.41-9.18.87-10.18s-7.6-1.14-7.6-1.14Z"/></g><g id="Group_557" data-name="Group 557"><path id="Path_2179" data-name="Path 2179" class="cls-6" d="M218.75,128.29h0a1.18,1.18,0,0,0,1,1.3l8.85,1.08a1.18,1.18,0,0,0,1.3-1h0a1.17,1.17,0,0,0-1-1.3l-8.85-1.08A1.18,1.18,0,0,0,218.75,128.29Z"/></g></g><g id="Group_561" data-name="Group 561"><g id="Group_560" data-name="Group 560"><g id="Group_559" data-name="Group 559"><path id="Path_2180" data-name="Path 2180" class="cls-6" d="M217.49,128.4l.1-10c-2.79-.17-6.35-3.15-6.79-8.77-.35-4.48,1-7.9,5.45-14.06.93-1.3-8.49-9.15-9.35-8-6.2,8-8.33,14.66-7.41,23.72C200.62,122.5,213.83,127.86,217.49,128.4Z"/></g></g></g><g id="Group_562" data-name="Group 562"><path id="Path_2181" data-name="Path 2181" class="cls-7" d="M256,89.75S253.1,96.91,243.38,98s.67-9.17.67-9.17S249.17,84.61,256,89.75Z"/></g><g id="Group_586" data-name="Group 586"><g id="Group_563" data-name="Group 563"><path id="Path_2182" data-name="Path 2182" class="cls-9" d="M241.46,76.18l-.05-.15s1.69-.54,2.09-1.74a2.27,2.27,0,0,0-.5-2.07c-.25-.36-.49-.68-.7-1-1.48-2-2-2.78-1.79-4.54l.16,0c-.24,1.7.27,2.39,1.76,4.43.21.29.45.61.7,1a2.4,2.4,0,0,1,.52,2.21A3.58,3.58,0,0,1,241.46,76.18Z"/></g><g id="Group_564" data-name="Group 564"><path id="Path_2183" data-name="Path 2183" class="cls-9" d="M240.59,66.72a7.91,7.91,0,0,0,1.57,5.41c2,2.68.19,4.87-2.3,4s-3.18,2.23-6.38.75S240.59,66.72,240.59,66.72Z"/></g><g id="Group_565" data-name="Group 565"><path id="Path_2184" data-name="Path 2184" class="cls-6" d="M227.19,79.59a3.67,3.67,0,0,0,2.86-2.42l1.39-4,.4-1.15,2.37-6.77V77.41a1.86,1.86,0,0,0,1.67,1.85h0c.56.78,1.38,2.4-.66,3.21-2.38,1-6.47-.7-8.05-2.88Z"/></g><g id="Group_566" data-name="Group 566"><path id="Path_2185" data-name="Path 2185" class="cls-1" d="M231.43,73.09a.37.37,0,0,0,0,.11c.32,2.19,2.74,3,2.74,3V72.12a3.54,3.54,0,0,0-2.36-.07A1,1,0,0,0,231.43,73.09Z"/></g><g id="Group_567" data-name="Group 567"><path id="Path_2186" data-name="Path 2186" class="cls-6" d="M241,65.89c-.31-4.36-3.42-7.69-7-7.44s-6.15,4-5.84,8.35,3.43,7.69,7,7.44S241.3,70.25,241,65.89Z"/></g><g id="Group_568" data-name="Group 568"><path id="Path_2187" data-name="Path 2187" class="cls-6" d="M229.13,67.93a1.57,1.57,0,0,0,2.23,0,.1.1,0,0,0,0,0,1.77,1.77,0,0,0-.53-2.32,1.58,1.58,0,0,0-2.23,0l0,0A1.75,1.75,0,0,0,229.13,67.93Z"/></g><g id="Group_570" data-name="Group 570"><g id="Group_569" data-name="Group 569"><path id="Path_2188" data-name="Path 2188" class="cls-13" d="M235.22,66.38a.15.15,0,0,0,.09-.19.16.16,0,0,0-.09-.09,1.6,1.6,0,0,0-1.86.55.15.15,0,0,0,0,.21.18.18,0,0,0,.21,0,2.5,2.5,0,0,1,1.54-.46A.14.14,0,0,0,235.22,66.38Z"/></g></g><g id="Group_571" data-name="Group 571"><path id="Path_2189" data-name="Path 2189" class="cls-13" d="M234.18,68.06c0,.35.23.62.48.61s.45-.3.43-.65-.23-.62-.48-.61S234.17,67.71,234.18,68.06Z"/></g><g id="Group_573" data-name="Group 573"><g id="Group_572" data-name="Group 572"><path id="Path_2190" data-name="Path 2190" class="cls-13" d="M240.47,66.77a.15.15,0,0,0,.15-.14.17.17,0,0,0-.05-.12,1.6,1.6,0,0,0-1.93-.19.15.15,0,0,0-.06.2h0a.16.16,0,0,0,.2.06,2.45,2.45,0,0,1,1.6.16A.16.16,0,0,0,240.47,66.77Z"/></g></g><g id="Group_574" data-name="Group 574"><path id="Path_2191" data-name="Path 2191" class="cls-13" d="M238.87,67.93a.56.56,0,0,0,.21.75c.24.09.53-.11.65-.44a.57.57,0,0,0-.22-.75C239.28,67.41,239,67.6,238.87,67.93Z"/></g><g id="Group_575" data-name="Group 575"><path id="Path_2192" data-name="Path 2192" class="cls-9" d="M236.85,59.69s.06,2.75-3.33,3.46-5.64,2.32-5,4.75,6.51,7.16,2.6,9.43-3.31-1.49-7.65-.32-5.54-4.65-2.75-8.27.92-12.54,12.3-12.95,7.85,8.95,7.85,8.95S237.06,62.72,236.85,59.69Z"/></g><g id="Group_576" data-name="Group 576"><path id="Path_2193" data-name="Path 2193" class="cls-15" d="M230,77.92l0-.09a2.28,2.28,0,0,0,1.4-1.57c.36-1.83-2-4.43-4-6.73-.55-.61-1.06-1.19-1.52-1.74a4.37,4.37,0,0,1-.62-5,5,5,0,0,1,5.35-2.22c4.28.68,5.87-2,5.89-2l.08,0s-1.63,2.74-6,2.05a4.93,4.93,0,0,0-5.26,2.18,4.24,4.24,0,0,0,.61,4.92c.46.55,1,1.13,1.52,1.74,2.06,2.31,4.4,4.94,4,6.81A2.39,2.39,0,0,1,230,77.92Z"/></g><g id="Group_578" data-name="Group 578"><g id="Group_577" data-name="Group 577"><path id="Path_2194" data-name="Path 2194" class="cls-4" d="M240.39,72a1.93,1.93,0,0,1-1-.22c-1.44-.76-2.14-3.31-1.56-5.68h0a4.3,4.3,0,0,1,2-3,1.84,1.84,0,0,1,1.68.05c1.44.75,2.14,3.3,1.56,5.67a4.27,4.27,0,0,1-2.06,3A2,2,0,0,1,240.39,72Zm-2.29-5.83c-.54,2.25.09,4.65,1.43,5.36a1.58,1.58,0,0,0,1.42,0,4,4,0,0,0,1.9-2.8c.54-2.25-.09-4.66-1.42-5.36a1.6,1.6,0,0,0-1.43,0,4,4,0,0,0-1.9,2.8Z"/></g></g><g id="Group_579" data-name="Group 579" class="cls-16"><path id="Path_2195" data-name="Path 2195" class="cls-15" d="M230.31,65.1c-.35,2.29.64,4.65,2.22,5.27s3.14-.72,3.5-3-.64-4.66-2.22-5.28S230.67,62.81,230.31,65.1Z"/></g><g id="Group_580" data-name="Group 580" class="cls-16"><path id="Path_2196" data-name="Path 2196" class="cls-15" d="M237.78,66.27c-.36,2.3.5,4.71,1.92,5.38s2.84-.65,3.2-3-.5-4.7-1.92-5.37S238.13,64,237.78,66.27Z"/></g><g id="Group_582" data-name="Group 582"><g id="Group_581" data-name="Group 581"><path id="Path_2197" data-name="Path 2197" class="cls-4" d="M233.63,70.58a2.31,2.31,0,0,1-1-.17c-1.74-.66-2.84-3.2-2.44-5.65h0a4.19,4.19,0,0,1,1.84-3.1,2.35,2.35,0,0,1,2.08-.17c1.74.67,2.83,3.21,2.44,5.66a4.21,4.21,0,0,1-1.85,3.1A2.36,2.36,0,0,1,233.63,70.58Zm-.58-9a2.19,2.19,0,0,0-.92.28,4,4,0,0,0-1.7,2.9h0c-.37,2.33.64,4.72,2.26,5.35a2.14,2.14,0,0,0,1.83-.14,4,4,0,0,0,1.71-2.91c.37-2.32-.65-4.72-2.26-5.34a2,2,0,0,0-.92-.14Z"/></g></g><g id="Group_584" data-name="Group 584"><g id="Group_583" data-name="Group 583"><path id="Path_2198" data-name="Path 2198" class="cls-4" d="M238.14,67.1a.34.34,0,0,1-.17,0h0a2.4,2.4,0,0,0-1.94-.2.27.27,0,0,1-.32-.19.26.26,0,0,1,.18-.32h0a2.91,2.91,0,0,1,2.39.27.28.28,0,0,1,.05.38A.27.27,0,0,1,238.14,67.1Z"/></g></g><g id="Group_585" data-name="Group 585"><path id="Path_2199" data-name="Path 2199" class="cls-1" d="M236.12,72.13a3.64,3.64,0,0,1-1.73-.49.21.21,0,0,1-.06-.29.22.22,0,0,1,.27-.07,2.63,2.63,0,0,0,2.51.15.22.22,0,0,1,.29.08.2.2,0,0,1-.06.27A2.1,2.1,0,0,1,236.12,72.13Z"/></g></g></g></g><g id="Group_653" data-name="Group 653"><g id="Group_609" data-name="Group 609"><g id="Group_608" data-name="Group 608"><path id="Path_2212" data-name="Path 2212" class="cls-6" d="M59.09,80.33c4.2.27,8.76-1,13.56-3.9a38.63,38.63,0,0,0,6.2-4.58L73.57,66l2.64,2.93L73.57,66c-2.12,2-8.86,7-14.44,6.35-2.54-.3-4.65-1.77-6.45-4.49l-6.47,4.5c3.07,4.63,7.23,7.37,12,7.93Z"/></g></g><g id="Group_610" data-name="Group 610"><path id="Path_2213" data-name="Path 2213" class="cls-17" d="M22,66.13s3.62-8.43,14.52-7.33,19.3,22.53,23.29,48.43c0,0-19.2,11.29-37.32,1.47-2.85-1.54-7.51,1.15-6.59-4.25C17.58,94.42,18,74.78,22,66.13Z"/></g><g id="Group_611" data-name="Group 611"><path id="Path_2214" data-name="Path 2214" class="cls-17" d="M10.58,69.88l11.16.7s19.77,3.27,25.11,2.65a8.67,8.67,0,0,0,7.07-4.8,28.44,28.44,0,0,0-14.66-9.1c-.92-.22-1.84-.4-2.77-.53a19.63,19.63,0,0,0-4.84-.21C13.62,60.62,10.58,69.88,10.58,69.88Z"/></g><g id="Group_612" data-name="Group 612"><path id="Path_2215" data-name="Path 2215" class="cls-1" d="M10.58,69.88c-.13.88,2.34,2,5.5,2.57s5.84.24,6-.65-2.33-2-5.5-2.57S10.71,69,10.58,69.88Z"/></g><g id="Group_613" data-name="Group 613"><path id="Path_2216" data-name="Path 2216" class="cls-6" d="M31.66,58.59a3.26,3.26,0,0,0,2.78-1.76l1.67-3.29.49-1L39.45,47l-.81,6-.49,3.58-.14,1a1.64,1.64,0,0,0,1.23,1.81h0c.4.74.91,2.24-.95,2.71-2.19.54-5.55-1.37-6.66-3.45Z"/></g><g id="Group_614" data-name="Group 614"><path id="Path_2217" data-name="Path 2217" class="cls-14" d="M32.76,45.55a6.7,6.7,0,0,1-.53,3c-1,2.89,2.27,4.34,3.19,3.56.11-.1.29-5.12.29-5.12l-1-.71Z"/></g><g id="Group_615" data-name="Group 615"><path id="Path_2218" data-name="Path 2218" class="cls-1" d="M36.11,53.44v.1a3.83,3.83,0,0,0,2,3h0l.49-3.57a3.08,3.08,0,0,0-2-.35A.86.86,0,0,0,36.11,53.44Z"/></g><g id="Group_616" data-name="Group 616"><path id="Path_2219" data-name="Path 2219" class="cls-6" d="M45.28,48.31c.25-3.83-2.07-7.1-5.17-7.3S34.29,43.75,34,47.58s2.07,7.1,5.18,7.3S45,52.14,45.28,48.31Z"/></g><g id="Group_617" data-name="Group 617"><path id="Path_2220" data-name="Path 2220" class="cls-14" d="M42.23,42.77c-.17.2.49,3.82-6.18,4.25s-2.17-7.33,2.72-7.2c7,.19,7.77,5,7,6.65S42.23,42.77,42.23,42.77Z"/></g><g id="Group_618" data-name="Group 618"><path id="Path_2221" data-name="Path 2221" class="cls-14" d="M32.33,37.73s2.84,2.17.44,3.9S24,43.76,25.54,47s2.69,8-.43,8.41-5,0-6.46,2.4-6.91.5-6.26-2.4-4-5.77-1.76-8.32,7.4-4.57,8.89-8S30,36.05,32.33,37.73Z"/></g><g id="Group_619" data-name="Group 619"><path id="Path_2222" data-name="Path 2222" class="cls-14" d="M36.86,45.93S34,48.6,34.72,51.58c0,0-1.46-1.82-1.45-2.46a24.28,24.28,0,0,1,.57-2.92Z"/></g><g id="Group_620" data-name="Group 620"><path id="Path_2223" data-name="Path 2223" class="cls-6" d="M34.73,48.68a1.38,1.38,0,0,0,1.93.3l.05,0a1.53,1.53,0,0,0-.19-2.08,1.38,1.38,0,0,0-1.93-.3l-.05,0A1.57,1.57,0,0,0,34.73,48.68Z"/></g><g id="Group_621" data-name="Group 621"><path id="Path_2224" data-name="Path 2224" class="cls-15" d="M13.61,58.44l-.07-.22a2,2,0,0,0,1.37-.95c.27-.63-.11-1.43-.51-2.27a4.1,4.1,0,0,1-.64-2.46c.22-1,1.46-1.14,2.67-1.27.93-.1,1.9-.22,2.27-.72a1.11,1.11,0,0,0,.14-.92c-.09-.49-.22-.93-.34-1.36-.56-2-1-3.49,2.19-6.72,4-4.1,7.18-4.1,10-3.5.34.07,1.31.59,1.27,1.17s-1,.91-2.94,1a7.6,7.6,0,0,0-5.07,3.94c-.92,1.75.09,3.73,1,5.48.61,1.2,1.13,2.23.88,3a1.18,1.18,0,0,1-.67.68,9.58,9.58,0,0,1-2.24.64c-1.88.38-3.67.74-4.1,3.9l-.23,0c.46-3.32,2.32-3.7,4.29-4.1A9.78,9.78,0,0,0,25,53.1a.94.94,0,0,0,.54-.55c.22-.64-.28-1.63-.87-2.78-.87-1.71-2-3.84-1-5.69A7.81,7.81,0,0,1,29,40c2.43-.15,2.73-.62,2.74-.82,0-.39-.76-.86-1.09-.93-2.72-.59-5.79-.58-9.75,3.43-3.09,3.13-2.67,4.62-2.14,6.5.13.43.25.88.35,1.38a1.37,1.37,0,0,1-.18,1.1c-.44.59-1.45.7-2.43.81-1.18.14-2.29.26-2.47,1.1a4,4,0,0,0,.61,2.31c.43.89.84,1.74.52,2.46A2.21,2.21,0,0,1,13.61,58.44Z"/></g><g id="Group_622" data-name="Group 622"><path id="Path_2225" data-name="Path 2225" class="cls-15" d="M36.35,44.89h-.2v-.21A4.71,4.71,0,0,0,40,42.89l.17.12A4.93,4.93,0,0,1,36.35,44.89Z"/></g><g id="Group_624" data-name="Group 624"><g id="Group_623" data-name="Group 623"><path id="Path_2226" data-name="Path 2226" class="cls-4" d="M43.6,52.56A2.58,2.58,0,0,1,42,49.33a3,3,0,0,1,1.3-1.83,2.1,2.1,0,0,1,1.6-.25,2.56,2.56,0,0,1,1.58,3.22,2.9,2.9,0,0,1-1.3,1.83,2.15,2.15,0,0,1-1.24.32A2.25,2.25,0,0,1,43.6,52.56Zm-.21-4.94a2.79,2.79,0,0,0-1.24,1.74,2.45,2.45,0,0,0,1.49,3.07,2,2,0,0,0,1.49-.24,2.79,2.79,0,0,0,1.23-1.75,2.44,2.44,0,0,0-1.48-3.06,1.91,1.91,0,0,0-.33-.06A2,2,0,0,0,43.39,47.62Z"/></g></g><g id="Group_626" data-name="Group 626"><g id="Group_625" data-name="Group 625"><path id="Path_2227" data-name="Path 2227" class="cls-4" d="M38.21,51.44a2.58,2.58,0,0,1-1.58-3.22h0a2.94,2.94,0,0,1,1.3-1.83,2.1,2.1,0,0,1,1.6-.26,2.57,2.57,0,0,1,1.58,3.23,2.9,2.9,0,0,1-1.3,1.83,2.06,2.06,0,0,1-1.23.31A1.51,1.51,0,0,1,38.21,51.44ZM38,46.5a2.84,2.84,0,0,0-1.24,1.75h0a2.45,2.45,0,0,0,1.49,3.06,1.9,1.9,0,0,0,1.49-.24A2.79,2.79,0,0,0,41,49.33a2.46,2.46,0,0,0-1.49-3.07,1.88,1.88,0,0,0-.33,0A2,2,0,0,0,38,46.5Z"/></g></g><g id="Group_628" data-name="Group 628"><g id="Group_627" data-name="Group 627"><path id="Path_2228" data-name="Path 2228" class="cls-4" d="M42.67,49.63a.07.07,0,0,0,.07-.06.07.07,0,0,0,0-.06,3,3,0,0,0-2-.47.08.08,0,0,0-.07.07.07.07,0,0,0,.07.07h0a2.77,2.77,0,0,1,1.9.44Z"/></g></g><g id="Group_629" data-name="Group 629"><path id="Path_2229" data-name="Path 2229" class="cls-18" d="M42.48,52.63a12.38,12.38,0,0,1-3.8-.88,1.88,1.88,0,0,0,1.58,2.13h.21C41.67,54.05,42.48,52.63,42.48,52.63Z"/></g><g id="Group_630" data-name="Group 630"><path id="Path_2230" data-name="Path 2230" class="cls-15" d="M42.48,52.63a2.54,2.54,0,0,1-1.58.28,4.54,4.54,0,0,1-2.22-1.16A18.24,18.24,0,0,0,42.48,52.63Z"/></g><g id="Group_632" data-name="Group 632"><g id="Group_631" data-name="Group 631"><path id="Path_2231" data-name="Path 2231" class="cls-13" d="M40.2,48.05a.13.13,0,0,0,.09-.07.12.12,0,0,0-.06-.17,1.38,1.38,0,0,0-1.68.26.13.13,0,0,0,0,.18.14.14,0,0,0,.18,0A2.17,2.17,0,0,1,40.12,48Z"/></g></g><g id="Group_633" data-name="Group 633"><path id="Path_2232" data-name="Path 2232" class="cls-13" d="M39.1,49.38c0,.3.13.57.35.59s.42-.2.45-.51-.12-.57-.35-.59S39.13,49.08,39.1,49.38Z"/></g><g id="Group_635" data-name="Group 635"><g id="Group_634" data-name="Group 634"><path id="Path_2233" data-name="Path 2233" class="cls-13" d="M44.72,49a.13.13,0,0,0,.15-.1.11.11,0,0,0,0-.11,1.37,1.37,0,0,0-1.65-.4.13.13,0,0,0-.08.16.15.15,0,0,0,.17.08,2.14,2.14,0,0,1,1.37.33Z"/></g></g><g id="Group_636" data-name="Group 636"><path id="Path_2234" data-name="Path 2234" class="cls-13" d="M43.19,49.83a.43.43,0,0,0,.35.49A.42.42,0,0,0,44,50a.44.44,0,0,0-.22-.45A.5.5,0,0,0,43.19,49.83Z"/></g><g id="Group_641" data-name="Group 641"><g id="Group_637" data-name="Group 637"><path id="Path_2235" data-name="Path 2235" class="cls-6" d="M42,101.38s6.08-1.11,7.82,0,3.13,3.86,1.9,3.4a13.91,13.91,0,0,1-2.63-1.49s2.9,2.33,2.06,2.77-3.34-1.61-3.34-1.61,3.23,3.05,2.3,3.21-3.37-2.17-3.37-2.17,2.9,3,1.81,3.12-2.37-2.46-3.21-2-3.13,2.68-4.64.5Z"/></g><g id="Group_638" data-name="Group 638"><path id="Path_2236" data-name="Path 2236" class="cls-19" d="M49.05,103.35s-.7-.75-1.3-.67l0-.15c.68-.1,1.4.68,1.44.72Z"/></g><g id="Group_639" data-name="Group 639"><path id="Path_2237" data-name="Path 2237" class="cls-19" d="M47.77,104.51a2.57,2.57,0,0,0-1.58-.8v-.15a2.7,2.7,0,0,1,1.69.85Z"/></g><g id="Group_640" data-name="Group 640"><path id="Path_2238" data-name="Path 2238" class="cls-19" d="M46.71,105.55s-.84-.9-1.46-.75l0-.15c.71-.16,1.57.76,1.61.8Z"/></g></g><g id="Group_643" data-name="Group 643"><g id="Group_642" data-name="Group 642"><path id="Path_2239" data-name="Path 2239" class="cls-6" d="M18.59,97.42c5.43,6.83,11.58,9.08,22.13,9.68l1.3-5.72c-7.69-.44-12.21-5.4-15.85-10C21,84.89,20.7,76.21,20.87,72.33a1,1,0,0,0-.49-.9c-1.05-.61-3.72-1.8-8.18-1.34a.86.86,0,0,0-.77.75A36.11,36.11,0,0,0,18.59,97.42Z"/></g></g><g id="Group_644" data-name="Group 644" class="cls-16"><path id="Path_2240" data-name="Path 2240" class="cls-20" d="M20.51,95.65a1.4,1.4,0,0,1-.41-.06,2.51,2.51,0,0,1-1.44-1.18h0a2,2,0,0,1,.32-2.7A1.37,1.37,0,0,1,20,91.59a2.53,2.53,0,0,1,1.44,1.19,2,2,0,0,1-.32,2.7A1.3,1.3,0,0,1,20.51,95.65ZM19,94.23a2.14,2.14,0,0,0,1.21,1,1,1,0,0,0,.78-.08A1.63,1.63,0,0,0,21.15,93a2.11,2.11,0,0,0-1.21-1,1,1,0,0,0-.78.08A1.63,1.63,0,0,0,19,94.23Z"/></g><g id="Group_650" data-name="Group 650"><g id="Group_646" data-name="Group 646"><g id="Group_645" data-name="Group 645"><path id="Path_2241" data-name="Path 2241" class="cls-9" d="M77.48,59.68,63,61.48l4.6,19.27a1.89,1.89,0,0,0,2.08,1.45l6.39-.79a1.91,1.91,0,0,0,1.67-1.92l-.26-19.81Z"/></g></g><g id="Group_647" data-name="Group 647"><path id="Path_2242" data-name="Path 2242" class="cls-21" d="M75.23,67.92a4.25,4.25,0,1,0-3.7,4.75,4.25,4.25,0,0,0,3.7-4.75Z"/></g><g id="Group_648" data-name="Group 648"><path id="Path_2243" data-name="Path 2243" class="cls-21" d="M76.52,59.06,63.1,60.73a.72.72,0,0,0-.63.81h0a.73.73,0,0,0,.81.64L77.57,60.4a.72.72,0,0,0,.64-.81h0a.73.73,0,0,0-.82-.64Z"/></g><g id="Group_649" data-name="Group 649"><path id="Path_2244" data-name="Path 2244" class="cls-21" d="M64.23,59.27a.6.6,0,0,0-.53.66h0l0,.25a.61.61,0,0,0,.67.53h0l10.67-1.33c.8-.1,1.88-.1,1.9-.9S64.23,59.27,64.23,59.27Z"/></g></g><g id="Group_652" data-name="Group 652"><g id="Group_651" data-name="Group 651"><path id="Path_2245" data-name="Path 2245" class="cls-6" d="M79.94,70.29s.74-2.35-1.41-3c-2.74-.84-7,.74-5.23,1.3a20.46,20.46,0,0,0,3.88.67s-6-.37-5.62.9S77,71.66,77,71.66s-5.84.19-5.13,1.28,5.38,1.34,5.38,1.34-5.72-.12-4.86,1.12,3.83.71,5.14.77,1.67-.72,1.64-1.92a3.44,3.44,0,0,0,.45-2c-.09-.3.21-.57.24-.79A6.66,6.66,0,0,0,79.94,70.29Z"/></g></g></g><g id="Group_654" data-name="Group 654"><rect id="Rectangle_154" data-name="Rectangle 154" class="cls-9" x="6.81" y="103.63" width="148.98" height="76.32"/></g><g id="Group_655" data-name="Group 655"><path id="Path_2246" data-name="Path 2246" class="cls-4" d="M157.19,113.61,6.75,111.37a3.73,3.73,0,0,1-3.56-3.87h0a3.72,3.72,0,0,1,3.56-3.87H156.21c2,0,5.34,1.9,5.34,4h0a4.8,4.8,0,0,1-4.36,5.94Z"/></g><g id="Group_711" data-name="Group 711"><g id="Group_706" data-name="Group 706"><g id="Group_705" data-name="Group 705"><path id="Path_2287" data-name="Path 2287" class="cls-1" d="M403.72,194.17l.3,0a.42.42,0,0,0,.41-.43l-1.68-28.2-4.5-1L403,193.61A.66.66,0,0,0,403.72,194.17Z"/></g></g><g id="Group_710" data-name="Group 710"><g id="Group_707" data-name="Group 707"><path id="Path_2288" data-name="Path 2288" class="cls-2" d="M392.31,101.37l-10.56,62.46c-.59,3.44-1.15,5.53-3.78,5.5L323.85,169c-3.55,0-6.44-3.89-6.44-8.62,0-7.39,1.68-17.46,10.18-21.36,14.09-6.46,29.68,6.12,38.37,2.38,7.64-3.28,1.82-39.44,19.41-48.26C389.31,91.18,393.28,95.89,392.31,101.37Z"/></g><g id="Group_708" data-name="Group 708"><path id="Path_2289" data-name="Path 2289" class="cls-2" d="M416.26,92.69H387.34L367,151.1s28.68-4.54,29.4-4.78S416.26,92.69,416.26,92.69Z"/></g><g id="Group_709" data-name="Group 709"><path id="Path_2290" data-name="Path 2290" class="cls-3" d="M421.1,101.37l-10.56,62.46c-.58,3.44-2.87,5.87-5.5,5.83L352.65,169c-3.56,0-6.44-3.88-6.45-8.62,0-7.38,1.68-17.45,10.18-21.35,14.09-6.46,29.68,6.12,38.37,2.38,7.64-3.29,1.82-39.44,19.42-48.26C418.1,91.18,422.08,95.89,421.1,101.37Z"/></g></g></g><g id="Group_712" data-name="Group 712"><path id="Path_2291" data-name="Path 2291" class="cls-1" d="M341.7,189.73s.09,3.07-1.93,4-8,2.09-5.64,3.93c1.35,1.06,7.38,0,9.09-.09s3.36.56,4.57-.65-.41-7.54-.41-7.54a6.94,6.94,0,0,1-2.77.89A5.45,5.45,0,0,1,341.7,189.73Z"/></g><g id="Group_713" data-name="Group 713"><path id="Path_2292" data-name="Path 2292" class="cls-1" d="M323.05,189.71s.09,3.07-1.94,4-8,2.08-5.63,3.93c1.35,1.06,7.37,0,9.08-.1s3.37.56,4.58-.65-.42-7.54-.42-7.54a6.9,6.9,0,0,1-2.76.89A5.43,5.43,0,0,1,323.05,189.71Z"/></g><g id="Group_715" data-name="Group 715"><g id="Group_714" data-name="Group 714"><path id="Path_2293" data-name="Path 2293" class="cls-11" d="M320.83,184.65c1.51-20.09,1.87-33.64,8.23-42.34,6.95-9.53,25.6-16.27,32.79-16.69,11.72-.69,17.25,1.06,17.25,1.06,8.8,18.3-5,20.73-15.18,21.23l-1,.06c-6.17.39-17.15,1.95-21.3,8.09-3.29,4.86-5.58,11.68-6.54,29.27a6.24,6.24,0,0,1-6.4,5.9S320.28,191.87,320.83,184.65Z"/></g></g><g id="Group_717" data-name="Group 717"><g id="Group_716" data-name="Group 716"><path id="Path_2294" data-name="Path 2294" class="cls-11" d="M337.47,185.68c-.2-20.14-.83-30.42,5.22-39.34,3.88-5.74,9.72-10.07,17.36-12.87a67.17,67.17,0,0,1,19-3.65c11.73-.68,17-2.1,17-2.1,9.49,23.43-25.22,18.46-34.26,28.44-3.94,4.35-8.82,12.62-9.78,30.21a6.23,6.23,0,0,1-6.4,5.9S337.54,193.05,337.47,185.68Z"/></g></g><g id="Group_718" data-name="Group 718"><path id="Path_2295" data-name="Path 2295" class="cls-5" d="M337.53,165.9h-.14c0-.12.6-12.09,2.62-16.29,2.55-5.31,9.93-10.85,17.56-13.18l0,.13c-7.6,2.32-14.95,7.83-17.48,13.11C338.13,153.83,337.53,165.78,337.53,165.9Z"/></g><g id="Group_720" data-name="Group 720"><g id="Group_719" data-name="Group 719"><path id="Path_2296" data-name="Path 2296" class="cls-6" d="M350,110.61c-4.46.85-9.5,0-15-2.37a42.91,42.91,0,0,1-7.24-4.07l4.87-7-2.43,3.48,2.42-3.49c2.54,1.84,10.4,6.31,16.28,4.86,2.67-.66,4.73-2.51,6.29-5.65l7.51,3.95c-2.67,5.35-6.75,8.83-11.8,10.07Z"/></g></g><g id="Group_721" data-name="Group 721"><path id="Path_2297" data-name="Path 2297" class="cls-9" d="M387.77,90.52s-5-8.52-16.49-5.91-16.18,14.37-17,42.57c0,0,10.65-.39,38.62,8.89,3.31,1.1,8.17.22,6.47-5.42C396.2,120.16,393.14,99.23,387.77,90.52Z"/></g><g id="Group_722" data-name="Group 722"><path id="Path_2298" data-name="Path 2298" class="cls-9" d="M400.42,93l-11.83,2.23s-20.68,6.11-26.47,6.16a9.38,9.38,0,0,1-8.19-4.18,30.63,30.63,0,0,1,14.46-11.67,29.51,29.51,0,0,1,2.89-.94,21.93,21.93,0,0,1,5.15-.86C396,83.53,400.42,93,400.42,93Z"/></g><g id="Group_723" data-name="Group 723"><path id="Path_2299" data-name="Path 2299" class="cls-1" d="M400.42,93c.26.94-2.22,2.49-5.54,3.48s-6.21,1-6.46.1,2.22-2.49,5.54-3.48S400.16,92.08,400.42,93Z"/></g><g id="Group_724" data-name="Group 724"><path id="Path_2300" data-name="Path 2300" class="cls-6" d="M339.26,105.09s-2.76-4.12-5.58-5.39-4.6-.22-4.6-.22l-3-1.21s-.43,11.46,7.42,9.44C334.09,107.55,339.26,105.09,339.26,105.09Z"/></g><g id="Group_725" data-name="Group 725"><path id="Path_2301" data-name="Path 2301" class="cls-8" d="M326.51,92.3l2.89,16.61a2,2,0,0,0,2.26,1.59h.06l7.73-1.56a2,2,0,0,0,1.54-2.26l-2.85-16.36a2,2,0,0,0-2.25-1.6L328.11,90a2,2,0,0,0-1.6,2.26Z"/></g><g id="Group_726" data-name="Group 726"><path id="Path_2302" data-name="Path 2302" class="cls-6" d="M379.38,83.44a4.29,4.29,0,0,1-3.92-1.87l-2.73-4-.79-1.18-4.66-6.88,2,7.66,1.22,4.6.35,1.32a2.16,2.16,0,0,1-1.32,2.57h0c-.4,1.05-.83,3.1,1.68,3.4,3,.36,7-2.69,8.17-5.6Z"/></g><g id="Group_727" data-name="Group 727"><path id="Path_2303" data-name="Path 2303" class="cls-4" d="M373.51,70a7.24,7.24,0,0,0,.95,3.1c1.47,3-1.84,4.93-2.93,4.22-.13-.09-1-5.43-1-5.43l1-.89Z"/></g><g id="Group_728" data-name="Group 728"><path id="Path_2304" data-name="Path 2304" class="cls-1" d="M372.71,77.41s0,.08,0,.13c.29,2.54-2.17,4.22-2.17,4.22h0l-1.22-4.6a4,4,0,0,1,2.62-.78A1.11,1.11,0,0,1,372.71,77.41Z"/></g><g id="Group_729" data-name="Group 729"><path id="Path_2305" data-name="Path 2305" class="cls-6" d="M359.86,72.17c-.94-5,1.56-9.63,5.59-10.4s8.07,2.65,9,7.63-1.56,9.63-5.59,10.4S360.81,77.15,359.86,72.17Z"/></g><g id="Group_730" data-name="Group 730"><path id="Path_2306" data-name="Path 2306" class="cls-4" d="M363,64.42c.25.24,0,5.09,8.78,4.57s1.66-10-4.72-9c-9.21,1.4-9.38,7.8-8.08,9.85S363,64.42,363,64.42Z"/></g><g id="Group_731" data-name="Group 731"><path id="Path_2307" data-name="Path 2307" class="cls-4" d="M370.52,67.69s4.21,3,3.71,7c0,0,1.62-2.61,1.5-3.45a32.66,32.66,0,0,0-1.22-3.74Z"/></g><g id="Group_732" data-name="Group 732"><path id="Path_2308" data-name="Path 2308" class="cls-6" d="M373.75,70.94a1.82,1.82,0,0,1-2.49.71l-.06,0a2.06,2.06,0,0,1-.1-2.76,1.83,1.83,0,0,1,2.49-.71l.06,0A2,2,0,0,1,373.75,70.94Z"/></g><g id="Group_733" data-name="Group 733"><path id="Path_2309" data-name="Path 2309" class="cls-15" d="M370.28,66.29a6.55,6.55,0,0,1-4.5-1.9l.2-.19a6.2,6.2,0,0,0,5.26,1.73l0,.28A6.74,6.74,0,0,1,370.28,66.29Z"/></g><g id="Group_735" data-name="Group 735"><g id="Group_734" data-name="Group 734"><path id="Path_2310" data-name="Path 2310" class="cls-4" d="M362.3,77.6a2.77,2.77,0,0,1-1.68-.21,3.86,3.86,0,0,1-2-2.18,3.41,3.41,0,0,1,1.55-4.49,2.76,2.76,0,0,1,2.13.08,3.88,3.88,0,0,1,2,2.19,3.39,3.39,0,0,1-1.55,4.48A2.32,2.32,0,0,1,362.3,77.6Zm-1.64-6.83a2.9,2.9,0,0,0-.42.12,3.23,3.23,0,0,0-1.45,4.26,3.73,3.73,0,0,0,1.9,2.08,2.62,2.62,0,0,0,2,.08,3.24,3.24,0,0,0,1.45-4.26,3.75,3.75,0,0,0-1.9-2.09,2.69,2.69,0,0,0-1.58-.19Z"/></g></g><g id="Group_737" data-name="Group 737"><g id="Group_736" data-name="Group 736"><path id="Path_2311" data-name="Path 2311" class="cls-4" d="M369.18,75.27a2.86,2.86,0,0,1-1.68-.21,3.88,3.88,0,0,1-2-2.19,3.4,3.4,0,0,1,1.55-4.48,2.76,2.76,0,0,1,2.13.07,3.88,3.88,0,0,1,2,2.19h0a3.38,3.38,0,0,1-1.55,4.48A2.35,2.35,0,0,1,369.18,75.27Zm-1.63-6.84a3,3,0,0,0-.43.12,3.24,3.24,0,0,0-1.45,4.26,3.7,3.7,0,0,0,1.9,2.08,2.57,2.57,0,0,0,2,.08A3.23,3.23,0,0,0,371,70.71h0a3.67,3.67,0,0,0-1.9-2.08,2.6,2.6,0,0,0-1.58-.2Z"/></g></g><g id="Group_739" data-name="Group 739"><g id="Group_738" data-name="Group 738"><path id="Path_2312" data-name="Path 2312" class="cls-4" d="M363.5,73.48a.08.08,0,0,1-.08,0,.09.09,0,0,1,0-.12h0A3.77,3.77,0,0,1,366,72.4a.09.09,0,0,1,.09.09.08.08,0,0,1-.08.09,3.63,3.63,0,0,0-2.42.88Z"/></g></g><g id="Group_740" data-name="Group 740"><path id="Path_2313" data-name="Path 2313" class="cls-18" d="M364.24,77.38a15.92,15.92,0,0,0,4.83-1.76,2.46,2.46,0,0,1-1.73,3l-.27.06C365.53,79.11,364.24,77.38,364.24,77.38Z"/></g><g id="Group_741" data-name="Group 741"><path id="Path_2314" data-name="Path 2314" class="cls-15" d="M364.24,77.38a3.32,3.32,0,0,0,2.11.12,6,6,0,0,0,2.72-1.88A23.66,23.66,0,0,1,364.24,77.38Z"/></g><g id="Group_743" data-name="Group 743"><g id="Group_742" data-name="Group 742"><path id="Path_2315" data-name="Path 2315" class="cls-13" d="M366.48,71a.17.17,0,0,1-.16-.18.17.17,0,0,1,.08-.13,1.83,1.83,0,0,1,2.24.07.17.17,0,0,1,0,.23.19.19,0,0,1-.24,0,3,3,0,0,0-1.86-.06A.19.19,0,0,1,366.48,71Z"/></g></g><g id="Group_744" data-name="Group 744"><path id="Path_2316" data-name="Path 2316" class="cls-13" d="M368.14,72.58a.66.66,0,0,1-.36.83c-.29.07-.59-.2-.68-.6a.66.66,0,0,1,.36-.83C367.75,71.92,368.05,72.19,368.14,72.58Z"/></g><g id="Group_746" data-name="Group 746"><g id="Group_745" data-name="Group 745"><path id="Path_2317" data-name="Path 2317" class="cls-13" d="M360.71,73a.17.17,0,0,1-.21-.1.18.18,0,0,1,0-.16,1.82,1.82,0,0,1,2.1-.78.17.17,0,0,1,.13.2.19.19,0,0,1-.2.12,2.89,2.89,0,0,0-1.75.66A.15.15,0,0,1,360.71,73Z"/></g></g><g id="Group_747" data-name="Group 747"><path id="Path_2318" data-name="Path 2318" class="cls-13" d="M362.85,73.83a.56.56,0,0,1-1.07.32.57.57,0,0,1,.21-.62A.67.67,0,0,1,362.85,73.83Z"/></g><g id="Group_752" data-name="Group 752"><g id="Group_748" data-name="Group 748"><path id="Path_2319" data-name="Path 2319" class="cls-6" d="M371,130.83s-6.65-.37-8.37,1-2.83,4.54-1.57,3.89a14.61,14.61,0,0,0,2.61-1.94s-2.79,2.87-1.83,3.23,3.36-2.16,3.36-2.16-3.05,3.69-2,3.74,3.31-2.77,3.31-2.77-2.7,3.54-1.52,3.57,2.21-2.94,3.17-2.58,3.69,2.45,5-.09Z"/></g><g id="Group_749" data-name="Group 749"><path id="Path_2320" data-name="Path 2320" class="cls-19" d="M363.76,133.88l-.13-.1s.69-1,1.41-1h0V133C364.41,133,363.77,133.87,363.76,133.88Z"/></g><g id="Group_750" data-name="Group 750"><path id="Path_2321" data-name="Path 2321" class="cls-19" d="M365.29,135l-.14-.09a3,3,0,0,1,1.69-1.14l0,.17A2.71,2.71,0,0,0,365.29,135Z"/></g><g id="Group_751" data-name="Group 751"><path id="Path_2322" data-name="Path 2322" class="cls-19" d="M366.56,135.92l-.14-.1s.83-1.16,1.62-1.07l0,.17C367.34,134.85,366.57,135.91,366.56,135.92Z"/></g></g><g id="Group_753" data-name="Group 753"><path id="Path_2323" data-name="Path 2323" class="cls-22" d="M327.72,91.79a.52.52,0,1,1,.5.53h0A.52.52,0,0,1,327.72,91.79Z"/></g><g id="Group_755" data-name="Group 755"><g id="Group_754" data-name="Group 754"><path id="Path_2324" data-name="Path 2324" class="cls-6" d="M395.52,123.5c-4.9,8-11.16,11.23-22.36,13.27L371,130.83c8.15-1.48,12.33-7.38,15.61-12.76,4.66-7.64,3.82-16.95,3.13-21.07a1,1,0,0,1,.4-1c1-.8,3.74-2.42,8.57-2.52a.93.93,0,0,1,.92.7C401.67,101.76,401.68,113.41,395.52,123.5Z"/></g></g><g id="Group_756" data-name="Group 756" class="cls-16"><path id="Path_2325" data-name="Path 2325" class="cls-20" d="M393.06,121.87a1.24,1.24,0,0,1-.54-.1,2.14,2.14,0,0,1-.69-2.85,2.72,2.72,0,0,1,1.38-1.45,1.46,1.46,0,0,1,1.14,0,2.11,2.11,0,0,1,.69,2.84,2.67,2.67,0,0,1-1.38,1.46A1.53,1.53,0,0,1,393.06,121.87Zm.75-4.14a1.52,1.52,0,0,0-.46.1,2.29,2.29,0,0,0-1.16,1.25c-.42,1-.2,2,.49,2.33a1.07,1.07,0,0,0,.84,0,2.29,2.29,0,0,0,1.16-1.25h0c.42-1,.2-2-.48-2.34A1,1,0,0,0,393.81,117.73Z"/></g><g id="Group_758" data-name="Group 758"><g id="Group_757" data-name="Group 757"><path id="Path_2326" data-name="Path 2326" class="cls-6" d="M325.09,97.06a1.82,1.82,0,0,1,.78-2.45h0c2-.91,5.45-.1,4.17.5a16.62,16.62,0,0,1-2.94.89s4.58-.86,4.43.15-4.09,1.7-4.09,1.7,4.53-.41,4.09.5-4,1.55-4,1.55,4.41-.64,3.86.4-2.89.92-3.9,1.09-1.36-.4-1.45-1.33a2.68,2.68,0,0,1-.54-1.49c0-.24-.21-.43-.26-.59A5.73,5.73,0,0,1,325.09,97.06Z"/></g></g><g id="Group_759" data-name="Group 759"><path id="Path_2327" data-name="Path 2327" class="cls-4" d="M377.65,77.57s-4.12-1.21-4.64.62,2.84,1.9,2.32,3.76-3,.75-2.38,3.82,5.4,3.59.49,5.69-9.06,7-4.26,9.94,12.81,1.28,12.95-3.74-.18-6.2,3.8-8.52-4.77-4.38-4-6.75S379,77.86,377.65,77.57Z"/></g><g id="Group_760" data-name="Group 760"><path id="Path_2328" data-name="Path 2328" class="cls-15" d="M372.26,100.33a2.24,2.24,0,0,1-1.66-.74,2.12,2.12,0,0,1-.18-1.91c.37-1.27,2-2.23,3.62-3.15s3.07-1.78,3-2.79a6.25,6.25,0,0,0-1.38-3c-.57-.84-1.07-1.57-1-2.21a.13.13,0,0,1,.14-.1.12.12,0,0,1,.1.15c-.09.54.38,1.22.93,2a6.63,6.63,0,0,1,1.42,3.13c.07,1.17-1.49,2.07-3.14,3s-3.16,1.82-3.5,3a1.84,1.84,0,0,0,.14,1.69,2,2,0,0,0,1.46.64.12.12,0,0,1,.12.13.12.12,0,0,1-.12.12Z"/></g><g id="Group_761" data-name="Group 761"><path id="Path_2329" data-name="Path 2329" class="cls-15" d="M379.78,79.72a.1.1,0,0,1-.09,0,5.39,5.39,0,0,0-4.09-1.79c-.28,0-.45.12-.51.26s.19.64.29.76a.12.12,0,0,1,0,.18.12.12,0,0,1-.16,0c-.06-.06-.5-.59-.34-1,.09-.23.33-.37.71-.42a5.6,5.6,0,0,1,4.3,1.88.12.12,0,0,1,0,.17A.11.11,0,0,1,379.78,79.72Z"/></g><g id="Group_771" data-name="Group 771"><g id="Group_763" data-name="Group 763"><g id="Group_762" data-name="Group 762"><path id="Path_2330" data-name="Path 2330" class="cls-1" d="M248.29,199.13l-.27,0c-.22,0-.38-.48-.36-1l2.14-67.59,4.06-2.58-4.93,69.85C248.9,198.56,248.61,199.17,248.29,199.13Z"/></g></g><g id="Group_765" data-name="Group 765"><g id="Group_764" data-name="Group 764"><path id="Path_2331" data-name="Path 2331" class="cls-1" d="M364.2,199.13l.27,0c.22,0,.38-.48.36-1l-2.14-67.59-4.06-2.58,4.93,69.85C363.59,198.56,363.88,199.17,364.2,199.13Z"/></g></g><g id="Group_766" data-name="Group 766"><path id="Path_2332" data-name="Path 2332" class="cls-14" d="M239.77,131.2c0,4.76,30.07,8.61,67.17,8.61s67.17-3.85,67.17-8.61-30.07-8.62-67.17-8.62S239.77,126.44,239.77,131.2Z"/></g><g id="Group_767" data-name="Group 767"><rect id="Rectangle_155" data-name="Rectangle 155" class="cls-14" x="239.77" y="127.23" width="134.34" height="3.97"/></g><g id="Group_768" data-name="Group 768"><path id="Path_2333" data-name="Path 2333" class="cls-23" d="M239.77,127.23c0,4.75,30.07,8.61,67.17,8.61s67.17-3.86,67.17-8.61-30.07-8.62-67.17-8.62S239.77,122.47,239.77,127.23Z"/></g><g id="Group_769" data-name="Group 769"><path id="Path_2334" data-name="Path 2334" class="cls-24" d="M355,133.51a.23.23,0,0,1-.2-.24.28.28,0,0,1,.18-.3,94.91,94.91,0,0,0,13.37-2.53c.11,0,.22.06.25.2a.28.28,0,0,1-.16.32,94.07,94.07,0,0,1-13.41,2.54Z"/></g><g id="Group_770" data-name="Group 770"><path id="Path_2335" data-name="Path 2335" class="cls-24" d="M251.16,132.29a0,0,0,0,1,0,0c-.27,0-6.62-1.34-9.11-2.56a.27.27,0,0,1-.12-.34.2.2,0,0,1,.23-.17h0c2.44,1.2,9,2.52,9,2.54a.26.26,0,0,1,.18.3A.23.23,0,0,1,251.16,132.29Z"/></g></g><g id="Group_777" data-name="Group 777"><g id="Group_773" data-name="Group 773"><g id="Group_772" data-name="Group 772"><path id="Path_2336" data-name="Path 2336" class="cls-9" d="M265.14,105.31H250.06l2.25,20.36a2,2,0,0,0,2,1.76h6.65a2,2,0,0,0,2-1.76l2.26-20.36Z"/></g></g><g id="Group_774" data-name="Group 774"><path id="Path_2337" data-name="Path 2337" class="cls-21" d="M261.78,113.48a4.4,4.4,0,1,0-4.4,4.4,4.4,4.4,0,0,0,4.4-4.4Z"/></g><g id="Group_775" data-name="Group 775"><path id="Path_2338" data-name="Path 2338" class="cls-21" d="M264.23,104.56h-14a.76.76,0,0,0-.76.75h0a.76.76,0,0,0,.76.76h14.88a.76.76,0,0,0,.76-.76h0a.76.76,0,0,0-.76-.75Z"/></g><g id="Group_776" data-name="Group 776"><path id="Path_2339" data-name="Path 2339" class="cls-21" d="M251.59,103.2a.62.62,0,0,0-.62.62v.27a.62.62,0,0,0,.62.62h11.12c.84,0,1.94.14,2.06-.68S251.59,103.2,251.59,103.2Z"/></g></g><g id="Group_783" data-name="Group 783"><g id="Group_779" data-name="Group 779"><g id="Group_778" data-name="Group 778"><path id="Path_2340" data-name="Path 2340" class="cls-11" d="M366.34,105.68H352l2.15,19.39a1.87,1.87,0,0,0,1.86,1.67h6.33a1.88,1.88,0,0,0,1.87-1.67l2.15-19.39Z"/></g></g><g id="Group_780" data-name="Group 780"><path id="Path_2341" data-name="Path 2341" class="cls-21" d="M363.14,113.45a4.19,4.19,0,1,0-4.19,4.19A4.19,4.19,0,0,0,363.14,113.45Z"/></g><g id="Group_781" data-name="Group 781"><path id="Path_2342" data-name="Path 2342" class="cls-21" d="M365.48,105H352.17a.72.72,0,0,0-.72.72h0a.72.72,0,0,0,.72.72h14.17a.72.72,0,0,0,.72-.72h0a.72.72,0,0,0-.72-.72Z"/></g><g id="Group_782" data-name="Group 782"><path id="Path_2343" data-name="Path 2343" class="cls-21" d="M353.44,103.67a.6.6,0,0,0-.6.59h0v.26a.6.6,0,0,0,.6.59H364c.8,0,1.84.13,2-.65S353.44,103.67,353.44,103.67Z"/></g></g><g id="Group_790" data-name="Group 790"><g id="Group_788" data-name="Group 788"><g id="Group_784" data-name="Group 784"><path id="Path_2344" data-name="Path 2344" class="cls-9" d="M316.52,99.68H293.29l-2,27.62h27l-1.79-27.62Z"/></g><g id="Group_785" data-name="Group 785"><path id="Path_2345" data-name="Path 2345" class="cls-25" d="M293.29,99.68l-2,27.62h3.9l-1.79-27.62Z"/></g><g id="Group_787" data-name="Group 787"><g id="Group_786" data-name="Group 786"><path id="Path_2346" data-name="Path 2346" class="cls-25" d="M316.52,96.85H293.29v2.83h23.23Z"/></g></g></g><g id="Group_789" data-name="Group 789"><path id="Path_2347" data-name="Path 2347" class="cls-21" d="M310.58,111.68a4.4,4.4,0,1,0-4.4,4.4,4.4,4.4,0,0,0,4.4-4.4Z"/></g></g><g id="Group_791" data-name="Group 791"><path id="Path_2348" data-name="Path 2348" class="cls-15" d="M360.37,105.37a.6.6,0,0,1-.6-.6.85.85,0,0,1,0-.22l2.51-6.44a4.44,4.44,0,0,1,2.1-2.43l4.48-2.38a.59.59,0,0,1,.79.3.6.6,0,0,1-.22.75L365,96.74a3.18,3.18,0,0,0-1.53,1.79L360.93,105A.6.6,0,0,1,360.37,105.37Z"/></g><g id="Group_798" data-name="Group 798"><g id="Group_796" data-name="Group 796"><g id="Group_792" data-name="Group 792"><path id="Path_2349" data-name="Path 2349" class="cls-9" d="M69,89.2H53.29L52,107.9H70.23L69,89.2Z"/></g><g id="Group_793" data-name="Group 793"><path id="Path_2350" data-name="Path 2350" class="cls-25" d="M53.29,89.2,52,107.9H54.6L53.39,89.2Z"/></g><g id="Group_795" data-name="Group 795"><g id="Group_794" data-name="Group 794"><path id="Path_2351" data-name="Path 2351" class="cls-25" d="M69,87.28H53.28V89.2H69Z"/></g></g></g><g id="Group_797" data-name="Group 797"><path id="Path_2352" data-name="Path 2352" class="cls-21" d="M65,97.32a3,3,0,1,0-3,3h0A3,3,0,0,0,65,97.32Z"/></g></g><g id="Group_804" data-name="Group 804"><g id="Group_800" data-name="Group 800"><g id="Group_799" data-name="Group 799"><path id="Path_2353" data-name="Path 2353" class="cls-11" d="M40.69,93.64H31l1.46,13.12a1.27,1.27,0,0,0,1.26,1.14H38a1.28,1.28,0,0,0,1.27-1.14l1.45-13.12Z"/></g></g><g id="Group_801" data-name="Group 801"><path id="Path_2354" data-name="Path 2354" class="cls-21" d="M38.52,98.9a2.84,2.84,0,1,0-2.84,2.84,2.84,2.84,0,0,0,2.84-2.84Z"/></g><g id="Group_802" data-name="Group 802"><path id="Path_2355" data-name="Path 2355" class="cls-21" d="M40.11,93.15h-9a.49.49,0,0,0-.49.49h0a.48.48,0,0,0,.49.48h9.6a.48.48,0,0,0,.48-.48h0a.49.49,0,0,0-.48-.49h-.59Z"/></g><g id="Group_803" data-name="Group 803"><path id="Path_2356" data-name="Path 2356" class="cls-21" d="M32,92.28a.4.4,0,0,0-.4.4h0v.17a.4.4,0,0,0,.4.4h7.17c.54,0,1.25.09,1.33-.44S32,92.28,32,92.28Z"/></g></g><g id="Group_595" data-name="Group 595"><g id="Group_594" data-name="Group 594"><g id="Group_593" data-name="Group 593"><path id="Path_2202" data-name="Path 2202" class="cls-17" d="M117.14,158.35H39.08A5.73,5.73,0,0,1,33.37,153l-.91-12.49a7.33,7.33,0,0,1,6.77-7.84l.54,0h83a7.42,7.42,0,0,1,7.41,7.42,6.12,6.12,0,0,1,0,.74l-.63,6.33A12.4,12.4,0,0,1,117.14,158.35Z"/></g></g></g><g id="Group_599" data-name="Group 599"><g id="Group_596" data-name="Group 596"><path id="Path_2203" data-name="Path 2203" class="cls-26" d="M60.48,146.09l-20.31.29a1.4,1.4,0,0,1-1.21-.89c-.14-.91.73-1.18,1.18-1.19l20.32.16a.81.81,0,0,1,.82.8h0A.82.82,0,0,1,60.48,146.09Z"/></g><g id="Group_597" data-name="Group 597"><path id="Path_2204" data-name="Path 2204" class="cls-9" d="M57.89,142.31l-15.33.22a1.06,1.06,0,0,1-.91-.72.84.84,0,0,1,.71-.95,1.08,1.08,0,0,1,.18,0l15.34.14a.64.64,0,0,1,.62.64h0A.65.65,0,0,1,57.89,142.31Z"/></g><g id="Group_598" data-name="Group 598"><path id="Path_2205" data-name="Path 2205" class="cls-26" d="M58,150l-15.33.22a1.08,1.08,0,0,1-.92-.72.84.84,0,0,1,.72-.94h.17l15.34.14a.64.64,0,0,1,.62.65h0A.63.63,0,0,1,58,150Z"/></g></g><g id="Group_603" data-name="Group 603"><g id="Group_600" data-name="Group 600"><path id="Path_2206" data-name="Path 2206" class="cls-26" d="M90.94,146.09l-20.31.29a1.4,1.4,0,0,1-1.21-.89c-.14-.91.73-1.18,1.18-1.19l20.32.16a.81.81,0,0,1,.82.8h0A.82.82,0,0,1,90.94,146.09Z"/></g><g id="Group_601" data-name="Group 601"><path id="Path_2207" data-name="Path 2207" class="cls-9" d="M88.35,142.31,73,142.53a1.08,1.08,0,0,1-.92-.72.85.85,0,0,1,.72-.95,1,1,0,0,1,.17,0l15.34.14a.63.63,0,0,1,.62.64h0A.64.64,0,0,1,88.35,142.31Z"/></g><g id="Group_602" data-name="Group 602"><path id="Path_2208" data-name="Path 2208" class="cls-26" d="M88.46,150l-15.34.22a1.08,1.08,0,0,1-.91-.72.84.84,0,0,1,.71-.94h.18l15.34.14a.64.64,0,0,1,.62.65h0A.63.63,0,0,1,88.46,150Z"/></g></g><g id="Group_607" data-name="Group 607"><g id="Group_604" data-name="Group 604"><path id="Path_2209" data-name="Path 2209" class="cls-26" d="M121.4,146.09l-20.31.29a1.4,1.4,0,0,1-1.21-.89c-.14-.91.73-1.18,1.18-1.19l20.32.16a.81.81,0,0,1,.82.8h0A.82.82,0,0,1,121.4,146.09Z"/></g><g id="Group_605" data-name="Group 605"><path id="Path_2210" data-name="Path 2210" class="cls-9" d="M118.81,142.31l-15.33.22a1.08,1.08,0,0,1-.92-.72.85.85,0,0,1,.72-.95,1,1,0,0,1,.17,0l15.34.14a.63.63,0,0,1,.62.64h0A.64.64,0,0,1,118.81,142.31Z"/></g><g id="Group_606" data-name="Group 606"><path id="Path_2211" data-name="Path 2211" class="cls-26" d="M118.92,150l-15.34.22a1.08,1.08,0,0,1-.91-.72.84.84,0,0,1,.71-.94h.18l15.34.14a.64.64,0,0,1,.62.65h0A.63.63,0,0,1,118.92,150Z"/></g></g><g id="Group_704" data-name="Group 704"><g id="Group_701" data-name="Group 701"><g id="Group_657" data-name="Group 657"><g id="Group_656" data-name="Group 656"><path id="Path_2247" data-name="Path 2247" class="cls-6" d="M90,83.59c-1.44-1.42,2.86-6.74,2.86-6.74.55-.39,9.75,8.33,20.3,5,3.75-1.19,8.94-7.76,9.32-8.74C122.54,73,130.8,76,130.8,76c-.68,1.77-1.46,7.36-5.5,11.08C116.94,94.73,97.74,94,90,83.59Z"/></g></g><g id="Group_658" data-name="Group 658"><path id="Path_2248" data-name="Path 2248" class="cls-1" d="M139.09,189.7s-.07,2.86-2,3.66-7.52,1.53-5.43,3.37c1.2,1.05,6.85.37,8.45.37s3.09.7,4.28-.37,0-7,0-7a6.3,6.3,0,0,1-2.62.69A5.06,5.06,0,0,1,139.09,189.7Z"/></g><g id="Group_659" data-name="Group 659"><path id="Path_2249" data-name="Path 2249" class="cls-11" d="M122.44,103.59s-.39,12.88,3.72,37.58c3,17.84,6.47,35.81,8.19,44.42a6.71,6.71,0,0,0,6.28,5.46l1.65.07a5.65,5.65,0,0,0,5.79-5.49,4.24,4.24,0,0,0,0-.62l-4.17-58.29-1-19.19Z"/></g><g id="Group_660" data-name="Group 660"><path id="Path_2250" data-name="Path 2250" class="cls-1" d="M157.38,189.7s-.07,2.86-2,3.66-7.52,1.53-5.43,3.37c1.2,1.05,6.85.37,8.44.37s3.1.7,4.29-.37,0-7,0-7a6.34,6.34,0,0,1-2.62.69A5,5,0,0,1,157.38,189.7Z"/></g><g id="Group_661" data-name="Group 661"><path id="Path_2251" data-name="Path 2251" class="cls-11" d="M140.72,103.59s-.38,12.88,3.73,37.58c3,17.84,6.47,35.81,8.18,44.42a6.72,6.72,0,0,0,6.28,5.46l1.65.07a5.65,5.65,0,0,0,5.8-5.49c0-.21,0-.42,0-.62l-4.17-58.29-1-19.19Z"/></g><g id="Group_662" data-name="Group 662"><path id="Path_2252" data-name="Path 2252" class="cls-1" d="M163.16,117.71c0,1.55-9.43,2.17-21,1.8s-20.91-2-20.87-3.52,9.39-2.47,21-2.1S163.2,116.15,163.16,117.71Z"/></g><g id="Group_663" data-name="Group 663"><path id="Path_2253" data-name="Path 2253" class="cls-7" d="M160.32,73.72s-2.06-8.14-17.22-8.23c-21.86-.11-19.83,20-21.86,50.5,0,0,21.54-3,41.93,1.34C163.17,117.32,165.06,86.16,160.32,73.72Z"/></g><g id="Group_664" data-name="Group 664"><path id="Path_2254" data-name="Path 2254" class="cls-7" d="M165.91,72.55,156,78s-21.68,2-27.43,1-7.34-5.17-7.34-5.17a31.75,31.75,0,0,1,16.55-8c1-.16,2-.28,3.05-.35a30.93,30.93,0,0,1,5.27.1C159.31,67.09,165.91,72.55,165.91,72.55Z"/></g><g id="Group_665" data-name="Group 665"><path id="Path_2255" data-name="Path 2255" class="cls-6" d="M145.19,63.63,144,59.94l-.33-1.08-2-6.32-.26,6.29-.15,3.77-.05,1.2c0,.81-.53,1-1.13,1.69-.24.28-1.8,2,0,2.8,2.2,1,6.33-.5,7.9-2.44C148,65.85,145.56,64.82,145.19,63.63Z"/></g><g id="Group_666" data-name="Group 666"><path id="Path_2256" data-name="Path 2256" class="cls-11" d="M123.07,117.25s12.59-3.7,38.67,1.38l.2,3.75-38.23,1.35Z"/></g><g id="Group_667" data-name="Group 667"><path id="Path_2257" data-name="Path 2257" class="cls-1" d="M166.12,72.78c.84,1.19-.4,3.53-2.76,5.24s-5,2.13-5.8.94.4-3.53,2.76-5.24S165.28,71.59,166.12,72.78Z"/></g><g id="Group_674" data-name="Group 674"><g id="Group_668" data-name="Group 668"><path id="Path_2258" data-name="Path 2258" class="cls-6" d="M174.84,123.4h0a.91.91,0,0,1,.73,1l-1.4,7.58a.91.91,0,0,1-1,.73h0a.91.91,0,0,1-.73-1l1.4-7.59A.9.9,0,0,1,174.84,123.4Z"/></g><g id="Group_669" data-name="Group 669"><path id="Path_2259" data-name="Path 2259" class="cls-6" d="M172.57,123h0a.91.91,0,0,1,.72,1.06l-1.56,8.48a.9.9,0,0,1-1,.72h0a.91.91,0,0,1-.73-1l1.57-8.48A.91.91,0,0,1,172.57,123Z"/></g><g id="Group_670" data-name="Group 670"><path id="Path_2260" data-name="Path 2260" class="cls-6" d="M172.77,118.45l.21.24a1.11,1.11,0,0,1-.11,1.55l-4.41,3.84a1.1,1.1,0,0,1-1.54-.11l-.22-.24a1.1,1.1,0,0,1,.11-1.54l4.41-3.84A1.1,1.1,0,0,1,172.77,118.45Z"/></g><g id="Group_671" data-name="Group 671"><path id="Path_2261" data-name="Path 2261" class="cls-6" d="M170.29,122.56h0a.91.91,0,0,1,.73,1l-1.26,6.8a.9.9,0,0,1-1,.72h0a.9.9,0,0,1-.72-1l1.25-6.8A.9.9,0,0,1,170.29,122.56Z"/></g><g id="Group_672" data-name="Group 672"><path id="Path_2262" data-name="Path 2262" class="cls-6" d="M177.18,119.36s1.77,4.85-.17,8c-.68,1.07-7.34-.34-7.72-1.71s.91-5.88.91-5.88Z"/></g><g id="Group_673" data-name="Group 673"><path id="Path_2263" data-name="Path 2263" class="cls-6" d="M177.1,123.81h0a.9.9,0,0,1,.73,1h0l-1.25,6.78a.91.91,0,0,1-1.05.73h0a.89.89,0,0,1-.73-1h0l1.25-6.78a.9.9,0,0,1,1-.72Z"/></g></g><g id="Group_676" data-name="Group 676"><g id="Group_675" data-name="Group 675"><path id="Path_2264" data-name="Path 2264" class="cls-6" d="M168.84,120.39c-.91-10-3-24.38-7.79-35.75a34.14,34.14,0,0,0-2.44-5.06c-.7-1.15.55-3.7,2.52-4.91s4.72-1,5.17-.39A30,30,0,0,1,169.18,80c4.46,10.13,7.13,23.2,8.22,40.06Z"/></g></g><g id="Group_692" data-name="Group 692"><g id="Group_677" data-name="Group 677"><path id="Path_2265" data-name="Path 2265" class="cls-27" d="M136.71,50.17a8.31,8.31,0,0,0,0,3.44c.4,1.92,2.35-2.8,2.35-2.8Z"/></g><g id="Group_678" data-name="Group 678"><path id="Path_2266" data-name="Path 2266" class="cls-6" d="M136.48,54.17c.49-3.71,3.38-6.39,6.45-6s5.18,3.74,4.69,7.44-3.38,6.39-6.45,6S136,57.88,136.48,54.17Z"/></g><g id="Group_679" data-name="Group 679"><path id="Path_2267" data-name="Path 2267" class="cls-1" d="M147.76,53.69,145,53.41a2,2,0,0,1-1.47-.89c-.56-.87-1.23-1.32-3.76-1.23-3.22.13-5.34-1.79-5.68-3.47a1.91,1.91,0,0,1,1.42-2.31,1.93,1.93,0,0,1,1.48.25c1.61.82.92-1.19,2.47-1.4,2.9-.4,3.44,1.84,5.81,1.76,3.12-.1,8.69,2.27,6.05,7.75Z"/></g><g id="Group_681" data-name="Group 681"><g id="Group_680" data-name="Group 680"><path id="Path_2268" data-name="Path 2268" class="cls-13" d="M141.75,54.62a.12.12,0,0,1,0-.16.11.11,0,0,1,.09-.05,1.23,1.23,0,0,1,1.31.74.13.13,0,0,1-.05.16h0a.13.13,0,0,1-.16-.06,1.91,1.91,0,0,0-1.09-.62Z"/></g></g><g id="Group_682" data-name="Group 682"><path id="Path_2269" data-name="Path 2269" class="cls-13" d="M142.25,56.08c-.07.26-.29.43-.48.38a.44.44,0,0,1-.21-.57c.07-.26.28-.43.47-.38A.44.44,0,0,1,142.25,56.08Z"/></g><g id="Group_684" data-name="Group 684"><g id="Group_683" data-name="Group 683"><path id="Path_2270" data-name="Path 2270" class="cls-13" d="M137.54,54.28a.09.09,0,0,1-.06-.06.14.14,0,0,1,0-.15.8.8,0,0,1,1.13.09l0,0a.12.12,0,0,1,0,.16.07.07,0,0,1-.11,0h0a1.22,1.22,0,0,0-1-.11Z"/></g></g><g id="Group_685" data-name="Group 685"><path id="Path_2271" data-name="Path 2271" class="cls-13" d="M138.58,55.44c0,.27-.1.51-.29.54s-.38-.18-.42-.45a.45.45,0,0,1,.29-.53C138.36,55,138.55,55.17,138.58,55.44Z"/></g><g id="Group_686" data-name="Group 686"><path id="Path_2272" data-name="Path 2272" class="cls-27" d="M151.36,53.87s-1.87,4.05-4.54,4.35c0,0,2.15-3.09-2.38-5C144.44,53.25,148.6,52.6,151.36,53.87Z"/></g><g id="Group_687" data-name="Group 687"><path id="Path_2273" data-name="Path 2273" class="cls-6" d="M147.61,56.11a1.1,1.1,0,1,1,.44-1.58A1.16,1.16,0,0,1,147.61,56.11Z"/></g><g id="Group_688" data-name="Group 688"><path id="Path_2274" data-name="Path 2274" class="cls-15" d="M138.09,58a11.62,11.62,0,0,0,3.67.29,1.78,1.78,0,0,1-2,1.46l-.19,0C138.41,59.53,138.09,58,138.09,58Z"/></g><g id="Group_689" data-name="Group 689"><path id="Path_2275" data-name="Path 2275" class="cls-1" d="M137.38,45.49h0v-.15a.71.71,0,0,0,.81-.57v0h.16A.85.85,0,0,1,137.38,45.49Z"/></g><g id="Group_690" data-name="Group 690"><path id="Path_2276" data-name="Path 2276" class="cls-15" d="M138.9,50.39a10,10,0,0,1-1.76-.73c-1.18-.63-1.83-1.36-1.89-2.12a1.23,1.23,0,0,1,.28-1.07c.37-.32,1-.17,1.57,0l.24.06v.07l-.25-.05c-.54-.13-1.16-.27-1.5,0a1.15,1.15,0,0,0-.25,1c.14,1.76,3.56,2.77,3.59,2.78Z"/></g><g id="Group_691" data-name="Group 691"><path id="Path_2277" data-name="Path 2277" class="cls-15" d="M145.63,46.83a6.18,6.18,0,0,1-2.77-.63,4.42,4.42,0,0,1-1.23-.91l.05,0a4.12,4.12,0,0,0,1.22.89,6.27,6.27,0,0,0,3.74.55v.08A8.74,8.74,0,0,1,145.63,46.83Z"/></g></g><g id="Group_693" data-name="Group 693"><path id="Path_2278" data-name="Path 2278" class="cls-20" d="M171.2,97.79c-.71,0-1.39-.75-1.56-1.76a2.51,2.51,0,0,1,.17-1.43,1.27,1.27,0,0,1,.91-.77c.77-.13,1.55.66,1.73,1.74h0c.18,1.09-.3,2.08-1.08,2.2Zm-.31-3.6h-.11a.89.89,0,0,0-.63.56A2.09,2.09,0,0,0,170,96c.15.87.74,1.52,1.3,1.43s.91-.9.77-1.77-.67-1.44-1.19-1.44Z"/></g><g id="Group_700" data-name="Group 700"><g id="Group_694" data-name="Group 694"><path id="Path_2279" data-name="Path 2279" class="cls-6" d="M88.24,80.09h0A.9.9,0,0,1,87,80.4l-6.61-4a.89.89,0,0,1-.31-1.23h0a.9.9,0,0,1,1.24-.31l6.61,4A.91.91,0,0,1,88.24,80.09Z"/></g><g id="Group_695" data-name="Group 695"><path id="Path_2280" data-name="Path 2280" class="cls-6" d="M89.43,78.11h0a.9.9,0,0,1-1.24.31L80.79,74a.92.92,0,0,1-.31-1.24h0a.92.92,0,0,1,1.24-.31l7.4,4.44A.91.91,0,0,1,89.43,78.11Z"/></g><g id="Group_696" data-name="Group 696"><path id="Path_2281" data-name="Path 2281" class="cls-6" d="M93.6,79.89l-.3.11a1.1,1.1,0,0,1-1.41-.64l-2-5.48a1.11,1.11,0,0,1,.64-1.41l.3-.11a1.11,1.11,0,0,1,1.41.64l2,5.48A1.1,1.1,0,0,1,93.6,79.89Z"/></g><g id="Group_697" data-name="Group 697"><path id="Path_2282" data-name="Path 2282" class="cls-6" d="M90.62,76.13h0a.91.91,0,0,1-1.24.31l-5.93-3.56a.91.91,0,0,1-.31-1.24h0a.91.91,0,0,1,1.24-.31l5.93,3.56A.92.92,0,0,1,90.62,76.13Z"/></g><g id="Group_698" data-name="Group 698"><path id="Path_2283" data-name="Path 2283" class="cls-6" d="M91.2,83.7s-5.17,0-7.4-3c-.78-1,2.89-6.75,4.3-6.62S93.29,77,93.29,77Z"/></g><g id="Group_699" data-name="Group 699"><path id="Path_2284" data-name="Path 2284" class="cls-6" d="M87.06,82.07h0a.9.9,0,0,1-1.23.31h0l-5.92-3.55a.92.92,0,0,1-.31-1.24h0a.9.9,0,0,1,1.24-.31h0l5.92,3.55a.92.92,0,0,1,.31,1.24Z"/></g></g></g><g id="Group_702" data-name="Group 702"><path id="Path_2285" data-name="Path 2285" class="cls-1" d="M125.14,78.31l-.24-.06A20.44,20.44,0,0,1,127.7,73l.2.15A20.39,20.39,0,0,0,125.14,78.31Z"/></g><g id="Group_703" data-name="Group 703"><path id="Path_2286" data-name="Path 2286" class="cls-1" d="M145.14,146.2c0-.1-1.71-10.58-2.87-14.32s-6.09-6.82-6.14-6.85l.14-.21s5.07,3.19,6.24,7,2.86,14.26,2.88,14.36Z"/></g></g></svg>