<svg id="Layer_1" data-name="Layer 1" xmlns="http://www.w3.org/2000/svg" viewBox="0 0 426.23 229.62"><defs><style>.cls-1,.cls-2{fill:#c2e3ec;}.cls-1{opacity:0.3;}.cls-1,.cls-11{isolation:isolate;}.cls-3{fill:#3c8f7c;}.cls-4{fill:#51c0a5;}.cls-5{fill:#34548a;}.cls-6{fill:#13375b;}.cls-7{fill:#194655;}.cls-8{fill:#f8a491;}.cls-9{fill:#b85742;}.cls-10{fill:#98d5c7;}.cls-11,.cls-13{fill:#f37458;}.cls-11{opacity:0.5;}.cls-12{fill:#fff;}.cls-14{fill:#f8a492;}.cls-15{fill:#eab054;}.cls-16{fill:#f8cc7f;}.cls-17{fill:#476eb5;}.cls-18{fill:#c7dcf2;}.cls-19{fill:#a44c3e;}.cls-20{fill:#bd4e27;}.cls-21{fill:#63b8e7;}.cls-22{fill:#f58d80;}.cls-23{fill:#f9e0b2;}.cls-24{fill:#7c2e91;}</style></defs><g id="Group_503" data-name="Group 503"><path id="Path_1809" data-name="Path 1809" class="cls-1" d="M413.39,219.43V158.29H393.86v-45.1H375.07v20.08H359.52V87H334.07v42.3l-7.62.28V86.93h-8.88V68.75h-5.33V56.54H291.42V68.75h-5.33V86.93h-8.88V110l-4.1.27-1.24-68.46H244.46V78.27l-9.64.27V21.62h-3.3V9.6H202.58v12h-3.3V98.33h-6.09V74.41h-5.08V62.71h-7.36V28.57H170.09V62.71h-7.36v11.7h-5.08v40.46H154.1l-2.8,0V68l-75.13.77V174.29H69.82V160.45H47V187h-6.6v-9.76H25.91v19.8H11.44v22.35Z"/><g id="Group_390" data-name="Group 390"><path id="Path_1815" data-name="Path 1815" class="cls-2" d="M25.87,219.9H11.44v-84L18.66,129l7.21,6.89Z"/><path id="Path_1816" data-name="Path 1816" class="cls-2" d="M69,219.9H54.52v-84L61.74,129,69,135.93Z"/><path id="Path_1817" data-name="Path 1817" class="cls-2" d="M47.41,219.9H33v-84L40.2,129l7.21,6.89Z"/><rect id="Rectangle_129" data-name="Rectangle 129" class="cls-2" x="16.65" y="157.01" width="67.46" height="4.63"/><path id="Path_1818" data-name="Path 1818" class="cls-2" d="M91.61,219.9H77.17v-84L84.39,129l7.22,6.89Z"/><path id="Path_1819" data-name="Path 1819" class="cls-2" d="M106.06,219.9H91.62v-84L98.84,129l7.22,6.89Z"/><path id="Path_1820" data-name="Path 1820" class="cls-2" d="M101.86,219.9H87.42v-84L94.64,129l7.22,6.89Z"/><rect id="Rectangle_130" data-name="Rectangle 130" class="cls-2" x="71.97" y="157.01" width="67.46" height="4.63"/><path id="Path_1821" data-name="Path 1821" class="cls-2" d="M122.75,219.9H108.32v-84l7.21-6.89,7.22,6.89Z"/><path id="Path_1822" data-name="Path 1822" class="cls-2" d="M154.5,219.9H140.06v-84l7.22-6.89,7.22,6.89Z"/><path id="Path_1823" data-name="Path 1823" class="cls-2" d="M138.63,219.9H124.19v-84l7.22-6.89,7.21,6.89Z"/><rect id="Rectangle_131" data-name="Rectangle 131" class="cls-2" x="108.13" y="157.01" width="67.46" height="4.63"/><path id="Path_1824" data-name="Path 1824" class="cls-2" d="M171.19,219.9H156.76v-84L164,129l7.22,6.89Z"/><path id="Path_1825" data-name="Path 1825" class="cls-2" d="M202.94,219.9H188.5v-84l7.22-6.89,7.22,6.89Z"/><path id="Path_1826" data-name="Path 1826" class="cls-2" d="M187.07,219.9H172.63v-84l7.22-6.89,7.22,6.89Z"/><rect id="Rectangle_132" data-name="Rectangle 132" class="cls-2" x="154.63" y="157.01" width="67.46" height="4.63"/><path id="Path_1827" data-name="Path 1827" class="cls-2" d="M219.63,219.9H205.19v-84l7.22-6.89,7.22,6.89Z"/><path id="Path_1828" data-name="Path 1828" class="cls-2" d="M251.38,219.9H236.94v-84l7.22-6.89,7.22,6.89Z"/><path id="Path_1829" data-name="Path 1829" class="cls-2" d="M235.5,219.9H221.07v-84l7.22-6.89,7.21,6.89Z"/><rect id="Rectangle_133" data-name="Rectangle 133" class="cls-2" x="201.13" y="157.01" width="67.46" height="4.63"/><path id="Path_1830" data-name="Path 1830" class="cls-2" d="M268.07,219.9H253.63v-84l7.22-6.89,7.22,6.89Z"/><path id="Path_1831" data-name="Path 1831" class="cls-2" d="M299.82,219.9H285.38v-84L292.6,129l7.22,6.89Z"/><path id="Path_1832" data-name="Path 1832" class="cls-2" d="M283.94,219.9H269.51v-84l7.22-6.89,7.21,6.89Z"/><rect id="Rectangle_134" data-name="Rectangle 134" class="cls-2" x="247.63" y="157.01" width="67.46" height="4.63"/><path id="Path_1833" data-name="Path 1833" class="cls-2" d="M316.51,219.9H302.07v-84l7.22-6.89,7.22,6.89Z"/><path id="Path_1834" data-name="Path 1834" class="cls-2" d="M336.43,219.9H322v-84l7.21-6.89,7.22,6.89Z"/><path id="Path_1835" data-name="Path 1835" class="cls-2" d="M332.38,219.9H318v-84l7.21-6.89,7.22,6.89Z"/><rect id="Rectangle_135" data-name="Rectangle 135" class="cls-2" x="283.45" y="157.01" width="67.46" height="4.63"/><path id="Path_1836" data-name="Path 1836" class="cls-2" d="M347.65,219.9H333.22v-84l7.21-6.89,7.22,6.89Z"/><path id="Path_1837" data-name="Path 1837" class="cls-2" d="M390.73,219.9H376.3v-84l7.22-6.89,7.21,6.89Z"/><path id="Path_1838" data-name="Path 1838" class="cls-2" d="M369.19,219.9H354.76v-84L362,129l7.22,6.89Z"/><rect id="Rectangle_136" data-name="Rectangle 136" class="cls-2" x="338.43" y="157.01" width="67.46" height="4.63"/><path id="Path_1839" data-name="Path 1839" class="cls-2" d="M413.39,219.9H399v-84l7.22-6.89,7.22,6.89Z"/></g><g id="Group_391" data-name="Group 391"><path id="Path_1840" data-name="Path 1840" class="cls-3" d="M48.28,210.71a12.55,12.55,0,0,0,.18-2.12c0-8-7.54-14.57-16.84-14.57s-16.84,6.53-16.84,14.57a12.54,12.54,0,0,0,.17,2.12Z"/><path id="Path_1841" data-name="Path 1841" class="cls-4" d="M67.34,207.13a27.1,27.1,0,0,0,.17-3c0-11.34-7.54-20.54-16.84-20.54s-16.84,9.2-16.84,20.54a24.87,24.87,0,0,0,.18,3Z"/><path id="Path_1842" data-name="Path 1842" class="cls-4" d="M61.17,219.72A12.55,12.55,0,0,1,61,217.6c0-8,7.54-14.57,16.84-14.57s16.84,6.52,16.84,14.57a12.55,12.55,0,0,1-.18,2.12Z"/><path id="Path_1843" data-name="Path 1843" class="cls-3" d="M34.22,219.72a20,20,0,0,1-.23-3c0-11.35,9.56-20.54,21.35-20.54s21.35,9.2,21.35,20.54a20,20,0,0,1-.23,3Z"/><path id="Path_1844" data-name="Path 1844" class="cls-4" d="M50.61,196.19A18.34,18.34,0,0,0,36,203.68a24.62,24.62,0,0,0-5.6-.65c-10.46,0-18.94,6.52-18.94,14.57a10.8,10.8,0,0,0,.2,2.12H69.35a23,23,0,0,0,.2-3C69.55,205.38,61.07,196.19,50.61,196.19Z"/></g><g id="Group_452" data-name="Group 452"><path id="Path_1928" data-name="Path 1928" class="cls-5" d="M134.09,219.59h-1.93l3.91-36.65H138Z"/><path id="Path_1929" data-name="Path 1929" class="cls-5" d="M155.89,219.59h1.93l-3.91-36.65H152Z"/><rect id="Rectangle_137" data-name="Rectangle 137" class="cls-6" x="39.81" y="172.19" width="4.86" height="9.83"/><path id="Path_1930" data-name="Path 1930" class="cls-7" d="M28.88,174.47l101.6-.66.39-18.87L24.3,154.51Z"/><rect id="Rectangle_138" data-name="Rectangle 138" class="cls-7" x="39.11" y="180.31" width="117.43" height="5.25"/><rect id="Rectangle_139" data-name="Rectangle 139" class="cls-5" x="26.52" y="180.31" width="21.23" height="5.25"/><path id="Path_1931" data-name="Path 1931" class="cls-5" d="M24.3,154.51l4.58,20,3.9,0-4.52-19.93Z"/><path id="Path_1932" data-name="Path 1932" class="cls-5" d="M26.23,219.59H24.3l3.91-36.65h1.93Z"/><path id="Path_1933" data-name="Path 1933" class="cls-5" d="M48,219.59H50l-3.91-36.65H44.13Z"/></g><g id="Group_453" data-name="Group 453"><path id="Path_1934" data-name="Path 1934" class="cls-8" d="M145.54,208.65a37.77,37.77,0,0,1,.14,6.11,4.79,4.79,0,0,1-.21.74c-.29.84.5,3.41.5,3.41l10.51,0c.57,0,.19-.36-.28-.69a21.05,21.05,0,0,0-3.8-2c-.16-.07-.74-.43-.94-.55a7.35,7.35,0,0,1-1.52-1.31c-.77-.83-.88-4.89-.88-4.89Z"/><path id="Path_1935" data-name="Path 1935" class="cls-9" d="M151.45,215.67a9.59,9.59,0,0,1-6-.16c-.28.84-.82,3.68-.5,3.68,2.64,0,4.87.5,12.42.38.27,0,.24-.93.06-1.13C157,217.87,151.66,215.79,151.45,215.67Z"/><path id="Path_1936" data-name="Path 1936" class="cls-8" d="M157.43,201a38.75,38.75,0,0,1,2.67,5.5,6.32,6.32,0,0,1,.11.76c.09.88,1.87,2.9,1.87,2.9l9.58-4.33c.52-.23,0-.41-.54-.52a21.49,21.49,0,0,0-4.31-.27c-.17,0-.85-.09-1.09-.11a7.56,7.56,0,0,1-1.92-.56c-1-.44-2.83-4.09-2.83-4.09Z"/><path id="Path_1937" data-name="Path 1937" class="cls-6" d="M121.49,124.9c-1.26-2.55-4.38-4-7.23-4-9,0-10.19,11.62-15.94,16.1-1.73,1.35-3.65,2.45-5.3,3.89a7.86,7.86,0,0,0,.44,2.8,11.39,11.39,0,0,0,1.4,2.62l2.43-1.41L96.24,148a32.32,32.32,0,0,0,7.88,5.47,28.46,28.46,0,0,0,12.38,3.21,101.08,101.08,0,0,0,3.93-10.08,41,41,0,0,0,2.87-12.35A18.85,18.85,0,0,0,121.49,124.9Z"/><path id="Path_1938" data-name="Path 1938" class="cls-9" d="M165.72,204.93a9.43,9.43,0,0,1-5.51,2.34c.09.89.78,3.7,1.07,3.57,2.4-1.1,4.64-1.57,11.46-4.81.24-.12-.17-.95-.42-1.06C171.64,204.66,166,205,165.72,204.93Z"/><path id="Path_1939" data-name="Path 1939" class="cls-8" d="M137.94,179.29c-.65-.1-2.24-1.24-2.8-1.34l-1.77-.29c-.49-1.83-3-11.81-3.26-14.74-.3-3.17-2.55-16.89-2.55-16.89l-5.81,1.05s2.42,10.56,3.08,15.68c.58,4.4,5.4,14.27,6,15.32v.07c.1,1.56.84,1,.84,1l1.22.31s4.3.41,4.57.52S138.6,179.39,137.94,179.29Z"/><path id="Path_1940" data-name="Path 1940" class="cls-10" d="M123.08,138.77c4.1,1.39,5.86,11.79,5.86,11.79s-6.44,1.8-8.09.86c0,0-1.88-8.3-2.55-8Z"/><path id="Path_1941" data-name="Path 1941" class="cls-10" d="M118.61,138h0a1.43,1.43,0,0,0,.41-.09,10.5,10.5,0,0,1,4.06.88c1.58.67,2.53,6.54,2.39,12.92-.06,1-.8,16-.87,16.05-1.88,1.21-13.1,1.8-13.88.77S109.34,149.67,109,149l-.74-10.9C109.53,137.75,116.59,138,118.61,138Z"/><path id="Path_1942" data-name="Path 1942" class="cls-8" d="M114,134a29.34,29.34,0,0,1,.59,5.28c-.15,1.49.56,6.3,3.71,6.31s.6-6.11.3-7.57a54.55,54.55,0,0,1-.36-6Z"/><path id="Path_1943" data-name="Path 1943" class="cls-11" d="M118.3,134.26c0-1.24-.06-2.27-.06-2.27L114,134s.15.78.3,1.76A3.69,3.69,0,0,0,118.3,134.26Z"/><path id="Path_1944" data-name="Path 1944" class="cls-8" d="M112.46,123.53a5.27,5.27,0,0,0-2.23,2.87c-.6,2,.08,7,4.3,8.24s6-2.79,5.17-5.92S116.94,121.62,112.46,123.53Z"/><path id="Path_1945" data-name="Path 1945" class="cls-8" d="M120.22,127.51c-.08.84-.54,1.48-1,1.43s-.82-.77-.74-1.61.54-1.48,1-1.44S120.31,126.66,120.22,127.51Z"/><path id="Path_1946" data-name="Path 1946" class="cls-6" d="M113,123.28s-.76,5.64-2.59,6.66-1.06,3.52-1.06,3.52-1.65-5.81-.21-7.68A8,8,0,0,1,113,123.28Z"/><path id="Path_1947" data-name="Path 1947" class="cls-8" d="M111.44,130.75c.5.73.5,1.6,0,1.94s-1.3,0-1.8-.73-.49-1.6,0-1.94S111,130,111.44,130.75Z"/><path id="Path_1948" data-name="Path 1948" class="cls-12" d="M117.58,131.06l-3,.75a1.35,1.35,0,0,0,1.67.84C117.89,132.29,117.58,131.06,117.58,131.06Z"/><path id="Path_1949" data-name="Path 1949" class="cls-8" d="M91,179.57c.05-.14.17-.14.29-.15a31.71,31.71,0,0,0,3.5-.37,2.78,2.78,0,0,0,.56-.17,1.46,1.46,0,0,1,1-.06,1.94,1.94,0,0,0,.54,0c.59,0,2.26-.65,3.12-.83a.5.5,0,0,0,.39-.39c.74-3.39,2.33-11,2.49-13.5.2-3.19,2-17.58,2-17.58l5.92,1.45s-2.08,10.65-2.59,15.8c-.39,4-4.09,12.5-5.25,15a2.49,2.49,0,0,1-2.22,2,.77.77,0,0,0-.46.26,3.28,3.28,0,0,1-.72.67,1.74,1.74,0,0,0-.49.52c-.24.37-.45.76-.66,1.15s-.28.34-.5.29a.47.47,0,0,1-.36-.51,2.38,2.38,0,0,1,.31-1.17.62.62,0,0,0-.07-.84,2.51,2.51,0,0,0-.45-.47.74.74,0,0,0-.61-.2,11.07,11.07,0,0,1-1.27.28l-.36.08-.19.05a7.88,7.88,0,0,1-.87.1l-.68,0a3.25,3.25,0,0,1-.69-.08.8.8,0,0,1-.55-.2c-.07,0-.13-.12-.1-.21a.19.19,0,0,1,.18-.15,8.2,8.2,0,0,0,.86-.18l-1.11,0a1,1,0,0,1-.76-.3C91,179.79,90.94,179.71,91,179.57Z"/><path id="Path_1950" data-name="Path 1950" class="cls-10" d="M108.38,138.1c-2.9-.52-5.52,12.46-5.52,12.46s6.44,1.8,8.09.86c0,0,1.87-8.3,2.54-8Z"/><path id="Path_1951" data-name="Path 1951" class="cls-9" d="M124.75,166.68v2.37L147,173.73l5.52,16.61-3.08-2.1.71,25.57-4.68,0s-8.12-21.46-5.46-32.25l-24.65.37s-11.17-4.31-5.41-17.32Z"/><path id="Path_1952" data-name="Path 1952" class="cls-13" d="M124.75,169.05s23.11.15,24.75,1.42,13.95,32.67,13.95,32.67l-5.37,2s-10.68-17.82-11.25-19.09-4.7-10.56-6.28-11.51S124.75,169.05,124.75,169.05Z"/></g><path id="Path_1953" data-name="Path 1953" class="cls-14" d="M84.66,159.79c-2-.77-19.1-7.25-19.77-7.75s-9.65-11.3-9.65-11.3l6.23-2.45,8,10.24c.58.34,11.7,6.26,11.7,6.26s2,1.14,3.23,1.74c.34,0,.67-.06.93-.1a7.76,7.76,0,0,0,1.51-.46,9.33,9.33,0,0,1,2-.51c.32,0,1,0,1.4,0s.88,0,1.09.07a1.87,1.87,0,0,0,.62-.1.36.36,0,0,1,.42.26.33.33,0,0,1,0,.27,1.47,1.47,0,0,1-.82.44c-.72.2-1.9.1-1.86.21a23,23,0,0,0,2.06,1.06,24.57,24.57,0,0,1,2.68,1.43c.34.33.2.6-.08.61S91,158.62,91,158.62s-.39-.14-.31.06,2.82,1.26,3.21,1.5.52.57.13.72-3.35-1.13-3.35-1.13-.36-.16-.37,0,2.35,1,2.52,1.2a.33.33,0,0,1,0,.47.3.3,0,0,1-.25.11,15.31,15.31,0,0,1-3-1.11s-.21,0-.17.08,2,1,2.13,1.26a.23.23,0,0,1-.07.32h0c-.36.32-2.15-.8-3.11-1.05S84.72,159.82,84.66,159.79Z"/><path id="Path_1954" data-name="Path 1954" class="cls-5" d="M61.39,133.51s1.54.29,4.14,4.77c2.43,4.19,4.58,8.88,4.58,8.88l-4.36,4.6s-3.2-9.85-3.48-10.17S61.39,133.51,61.39,133.51Z"/><path id="Path_1955" data-name="Path 1955" class="cls-8" d="M76,212.26l-.23,3.92c-.18.72-.32,1.45-.43,2.18,0,1.7,8-1.44,6.2-2.2-.16-.06-1-.58-1.06-1.16-.09-.89-.29-2.69-.29-2.69Z"/><path id="Path_1956" data-name="Path 1956" class="cls-8" d="M87.24,212.25s-.24,3.92-.24,3.93c-.18.72-.32,1.45-.43,2.18,0,1.7,8-1.44,6.2-2.2-.16-.07-1.37-.28-1.42-.86-.08-.89-.24-3.65-.24-3.65Z"/><path id="Path_1957" data-name="Path 1957" class="cls-15" d="M63.65,171.14l19.1.08s8.63-.23,10,2.78,1.45,38.75,1.45,38.75-4.51.26-4.75,0l-5.69-19.93a16.18,16.18,0,0,1-.56-6l.5-5.33-7.88.41s-8.94-.15-11.88-3.14S63.65,171.14,63.65,171.14Z"/><path id="Path_1958" data-name="Path 1958" class="cls-16" d="M50.7,169l20.54,1.27s8.84.73,10.2,3.74S81,212.75,81,212.75s-5.2.23-5.18,0-2.45-14.7-3.63-20.22a19.86,19.86,0,0,1-.39-5.33l.54-5.8s-21.8-.2-22.75-1.17C46.64,177.24,50.7,169,50.7,169Z"/><path id="Path_1959" data-name="Path 1959" class="cls-17" d="M61.39,133.51a52.48,52.48,0,0,0-8.31.42,20.65,20.65,0,0,0-4.42.62c-1.5.68-4.41,1.47-3.24,8.42.84,5,2.71,21.27,3.88,29.62l20.81-2.3C65.8,153.77,64.21,133.76,61.39,133.51Z"/><path id="Path_1960" data-name="Path 1960" class="cls-8" d="M54.58,127.46,52.66,134s3.26,3.76,5.52,3.39c1.9-.3,1-3,1-3s-.47-3.69.1-5.5S54.58,127.46,54.58,127.46Z"/><path id="Path_1961" data-name="Path 1961" class="cls-13" d="M55.36,129.73A11.81,11.81,0,0,0,59,131.45a9.87,9.87,0,0,1,.27-2.65c.26-.84-.72-1.19-1.86-1.32-1.5-.08-2.85,0-2.85,0l-.37,1.25A5.33,5.33,0,0,0,55.36,129.73Z"/><g id="Group_454" data-name="Group 454"><path id="Path_1962" data-name="Path 1962" class="cls-8" d="M54.13,117.28c-.15-.06-1.72,7.89.18,10.23s5.81,3.31,7.34,1.66c1.69-1.82,2.14-10.45-.88-12.92S54.13,117.28,54.13,117.28Z"/><path id="Path_1963" data-name="Path 1963" class="cls-6" d="M59.84,111.88a8.72,8.72,0,0,0-4.77,2.36c-1.12.06-2.66.58-4.38,3.09a6.56,6.56,0,0,0,1.2,8.59,5.1,5.1,0,0,1,2,3.89l.42-1a5.94,5.94,0,0,0,.43-2.43,4.84,4.84,0,0,0-.27-1.5c-.46-1.2,1.27-1.86,1.8-2.8.41-.72.54-2.42,1.18-3.61l.75-.9a4.27,4.27,0,0,1,3.18-.69C62.87,117.31,63,111.43,59.84,111.88Z"/><path id="Path_1964" data-name="Path 1964" class="cls-8" d="M56,123.49c0,1-.53,1.75-1.1,1.73s-1-.84-.93-1.82.53-1.76,1.1-1.73S56.09,122.51,56,123.49Z"/></g><path id="Path_1965" data-name="Path 1965" class="cls-8" d="M43,147.16l5.59,1.74s-1.06,4.87-1.07,5.45c0,0,9.52,5.09,13.5,6.69l-.11,3.48c-.78-.28-1.4-.59-1.79-.71l-12.94-4s-4.8-1.71-4.95-2.63S43,147.16,43,147.16Z"/><path id="Path_1966" data-name="Path 1966" class="cls-5" d="M41.37,150.42S44,139.5,45.5,136.7a4.09,4.09,0,0,1,6.63-1.26c2,1.9-3.81,16.46-3.81,16.46Z"/><path id="Path_1967" data-name="Path 1967" class="cls-16" d="M81.57,215.81s-1.88.52-2.84.65-2.23-1-2.91-.67S75.1,219,75.1,219s10.07.84,12.89,0C89.12,218.67,85.4,217,81.57,215.81Z"/><path id="Path_1968" data-name="Path 1968" class="cls-16" d="M92.73,215.81s-1.87.52-2.83.65-2.23-1-2.91-.67-.72,3.25-.72,3.25,10.06.84,12.89,0C100.28,218.67,96.56,217,92.73,215.81Z"/><path id="Path_1969" data-name="Path 1969" class="cls-12" d="M58.63,126.19l2.76,0a1.22,1.22,0,0,1-1.28,1.1C58.63,127.35,58.63,126.19,58.63,126.19Z"/><g id="Group_455" data-name="Group 455"><path id="Path_1970" data-name="Path 1970" class="cls-16" d="M140,149.94a.41.41,0,0,0,0,.11l.06.66,0,.18-6,1.77-4.32-.44-.2-1.06.33-.07.33.21.34-.19.32.2.34-.19.33.2.33-.2.34.19.33-.21.34.18.32-.21.34.17.32-.22.35.17.31-.23.35.15.3-.23.36.14.3-.24.36.13.29-.26.37.13.28-.27.37.11.27-.28.37.09.26-.29.38.07.23-.3.39.05.22-.31.33-.07C139.94,149.7,140,149.82,140,149.94Z"/><path id="Path_1971" data-name="Path 1971" class="cls-6" d="M140,150.8c.08,0,.2,4.21.49,5.3s1,5,1,5l-10.45,1.65s-.27-5.6-.6-7.32-.85-3.16-.78-3.19S137.6,151.89,140,150.8Z"/><path id="Path_1972" data-name="Path 1972" class="cls-18" d="M131.38,157.48c.24,1.27,2.3,1.94,4.59,1.51s4-1.81,3.72-3.08-2.3-1.95-4.59-1.52S131.14,156.21,131.38,157.48Z"/></g><path id="Path_1973" data-name="Path 1973" class="cls-15" d="M118.7,158.18a3,3,0,0,0,1.94-.81,2.85,2.85,0,0,1,2.27-.81c1.61.38,2,2.17.84,3.62-1,1.27-4.87,3.08-6.42.41C116.24,158.73,117.46,158.23,118.7,158.18Z"/><g id="Group_456" data-name="Group 456"><path id="Path_1974" data-name="Path 1974" class="cls-13" d="M123.52,158.93a2.48,2.48,0,0,1-1-.48,3.78,3.78,0,0,1-.9-.74c-.07-.08,0-.17.12-.12.33.18.64.4,1,.61a4.19,4.19,0,0,1,.86.58.09.09,0,0,1,0,.13l-.06,0Z"/></g><g id="Group_457" data-name="Group 457"><path id="Path_1975" data-name="Path 1975" class="cls-13" d="M122.81,159.71c-.56.08-1.57-.85-2-1.26-.09-.1.06-.27.17-.18a7.21,7.21,0,0,0,.93.72,2.78,2.78,0,0,1,.9.6.08.08,0,0,1,0,.11l0,0Z"/></g><g id="Group_458" data-name="Group 458"><path id="Path_1976" data-name="Path 1976" class="cls-13" d="M121.37,160.27a1.86,1.86,0,0,1-.47-.5c-.17-.2-.35-.37-.51-.57a.2.2,0,0,1,.27-.29,2.34,2.34,0,0,1,.9,1.24.12.12,0,0,1-.11.14.11.11,0,0,1-.08,0Z"/></g><g id="Group_459" data-name="Group 459"><path id="Path_1977" data-name="Path 1977" class="cls-13" d="M120.28,160.58a1.6,1.6,0,0,1-.42-.9c0-.23.5,0,.6.82a.1.1,0,0,1-.1.1.06.06,0,0,1-.07,0Z"/></g><g id="Group_460" data-name="Group 460"><path id="Path_1978" data-name="Path 1978" class="cls-13" d="M119.5,159.9c.23.68-.17.7-.23.53a.84.84,0,0,1,0-.52.12.12,0,0,1,.15-.07A.12.12,0,0,1,119.5,159.9Z"/></g><g id="Group_466" data-name="Group 466"><path id="Path_1979" data-name="Path 1979" class="cls-15" d="M119.65,161s-.49,2.27-3.72,2.68c-3,.38-3.84-2.68-2.43-3.33s3-.94,3.79-1.54C118.67,157.66,120.17,159.79,119.65,161Z"/><path id="Path_1980" data-name="Path 1980" class="cls-16" d="M114.76,158.54a2,2,0,0,1,.43.86,2.39,2.39,0,0,1-.48,2.12c-1.21,1.5-5,1.9-4.94-.15s2.18-1.09,3-1.9c.35-.36.48-.87.92-1.13A1,1,0,0,1,114.76,158.54Z"/><g id="Group_461" data-name="Group 461"><path id="Path_1981" data-name="Path 1981" class="cls-13" d="M113.92,159.28a2.06,2.06,0,0,1,.51.51c.13.18.3.38.25.61a.11.11,0,0,1-.14.08c-.2-.08-.27-.27-.38-.44s-.27-.4-.38-.61,0-.21.14-.15Z"/></g><g id="Group_462" data-name="Group 462"><path id="Path_1982" data-name="Path 1982" class="cls-13" d="M113.49,159.78a3.36,3.36,0,0,1,.7,1.25.13.13,0,0,1-.14.12.11.11,0,0,1-.08,0,1.78,1.78,0,0,1-.32-.57c-.11-.21-.23-.42-.33-.64s.08-.22.17-.13Z"/></g><g id="Group_463" data-name="Group 463"><path id="Path_1983" data-name="Path 1983" class="cls-13" d="M112.77,160.15a5.41,5.41,0,0,1,.48,1.31c0,.1-.14.16-.2.08a3.66,3.66,0,0,1-.47-1.32c0-.11.14-.18.19-.07Z"/></g><g id="Group_464" data-name="Group 464"><path id="Path_1984" data-name="Path 1984" class="cls-13" d="M112.12,160.5a1.47,1.47,0,0,1,.17.47c.1.38.18.58,0,.65a.18.18,0,0,1-.24-.06.17.17,0,0,1,0-.05,3.87,3.87,0,0,1-.17-.95.13.13,0,0,1,.13-.12.13.13,0,0,1,.1.06Z"/></g><g id="Group_465" data-name="Group 465"><path id="Path_1985" data-name="Path 1985" class="cls-13" d="M111.36,160.81c.21.21.32.6.14.69a.17.17,0,0,1-.2,0c-.14-.12,0-.31-.11-.54a.1.1,0,0,1,0-.14.1.1,0,0,1,.13,0Z"/></g></g><g id="Group_468" data-name="Group 468"><path id="Path_1986" data-name="Path 1986" class="cls-16" d="M116.34,158.39c.5-.7,1.47-.62,2.59-.28,1,.29,2.93.61,3.45.7s2.51.15,3.52.09c1.17-.08,2.13,0,2.46.85s.54,2.75-5.79,2.25l-1.09-.13C115.2,161,115.84,159.1,116.34,158.39Z"/><path id="Path_1987" data-name="Path 1987" class="cls-13" d="M114.88,158c.49-.34.91-.32,2.58.5a10.7,10.7,0,0,0,1.55.58,17.52,17.52,0,0,0,6.44.73,10,10,0,0,0,1.63-.23c1.81-.43,2.23-.35,2.63.09s.36,1.86-1.74,2.1-6,.61-6,.53a2.44,2.44,0,0,1,0-.47,3.78,3.78,0,0,1-.1.46c-.06.07-3.75-1.16-5.75-1.86S114.4,158.31,114.88,158Z"/><path id="Path_1988" data-name="Path 1988" class="cls-16" d="M116.11,160.4c.5-.71,1.47-.63,2.59-.29a35.16,35.16,0,0,0,3.45.7,33.69,33.69,0,0,0,3.53.09c1.16-.08,2.12.06,2.46.86s.53,2.75-5.79,2.24l-1.1-.12C115,163,115.61,161.1,116.11,160.4Z"/><g id="Group_467" data-name="Group 467"><path id="Path_1989" data-name="Path 1989" class="cls-19" d="M119.89,161.16a1.71,1.71,0,0,0,1.45-.53,1.28,1.28,0,0,0,.19-.23l.09-.1a1.39,1.39,0,0,1,.8-.52.84.84,0,0,1,.77.23c0,.09.1.18.14.27a1.74,1.74,0,0,0,1.57,1.25c1,.09,1.44-1,1.58-1.4a.41.41,0,0,0,0-.08.54.54,0,0,1,.64-.15,2.39,2.39,0,0,1,.83.75.4.4,0,0,0,.57.06.41.41,0,0,0,.06-.57,3.17,3.17,0,0,0-1.16-1,1.31,1.31,0,0,0-1.68.57l0,.12c-.17.43-.4.91-.76.88-.59,0-.73-.38-.9-.77a1.75,1.75,0,0,0-.26-.46,1.64,1.64,0,0,0-1.53-.51,2.23,2.23,0,0,0-1.29.8l-.1.12a.79.79,0,0,1-.14.17.91.91,0,0,1-1.29.05.86.86,0,0,1-.21-.29,3.06,3.06,0,0,1-.13-.43,2.09,2.09,0,0,0-.35-.86,1.64,1.64,0,0,0-2-.32.4.4,0,0,0-.17.55.39.39,0,0,0,.53.17.84.84,0,0,1,1,.1,1.41,1.41,0,0,1,.2.55,3,3,0,0,0,.18.58,1.77,1.77,0,0,0,1.29,1Z"/></g></g><path id="Path_1990" data-name="Path 1990" class="cls-5" d="M80.66,219H77.11l7.18-50.25h3.54Z"/><path id="Path_1991" data-name="Path 1991" class="cls-5" d="M119.72,219h3.55l-7.18-50.25h-3.55Z"/><path id="Path_1992" data-name="Path 1992" class="cls-5" d="M184.53,219H181l7.18-50.25h3.54Z"/><path id="Path_1993" data-name="Path 1993" class="cls-5" d="M223.6,219h3.54L220,168.78h-3.54Z"/><path id="Path_1994" data-name="Path 1994" class="cls-15" d="M208.84,155.26s-.13,3.12-4.34,4.4c-3.87,1.18-5.7-2.68-4-3.87s3.82-1.93,4.68-2.9C206.79,151.11,209.27,153.59,208.84,155.26Z"/><g id="Group_479" data-name="Group 479"><path id="Path_1995" data-name="Path 1995" class="cls-16" d="M201.74,153.16a2.86,2.86,0,0,1,.77,1.05,3.2,3.2,0,0,1-.16,2.92c-1.26,2.27-6.18,3.65-6.6.92s2.65-1.94,3.5-3.19c.39-.56.44-1.26,1-1.7A1.32,1.32,0,0,1,201.74,153.16Z"/><path id="Path_1996" data-name="Path 1996" class="cls-16" d="M207.81,153a4,4,0,0,0,2.61-1.09,3.86,3.86,0,0,1,3.06-1.1c2.17.52,2.67,2.93,1.14,4.88-1.34,1.72-6.57,4.16-8.66.56C204.5,153.77,206.14,153.1,207.81,153Z"/><g id="Group_469" data-name="Group 469"><path id="Path_1997" data-name="Path 1997" class="cls-13" d="M214.41,154a3.35,3.35,0,0,1-1.29-.65,5.24,5.24,0,0,1-1.2-1c-.1-.1.05-.22.15-.17.45.25.87.55,1.3.83a5.55,5.55,0,0,1,1.15.78.13.13,0,0,1,0,.18.09.09,0,0,1-.09,0Z"/></g><g id="Group_470" data-name="Group 470"><path id="Path_1998" data-name="Path 1998" class="cls-13" d="M213.43,155.09c-.75.11-2.11-1.14-2.62-1.7-.13-.13.08-.36.22-.24a9.17,9.17,0,0,0,1.26,1c.37.24,1,.43,1.2.8a.11.11,0,0,1,0,.15l0,0Z"/></g><g id="Group_471" data-name="Group 471"><path id="Path_1999" data-name="Path 1999" class="cls-13" d="M211.47,155.85a2.71,2.71,0,0,1-.64-.67c-.22-.27-.47-.5-.69-.78a.26.26,0,0,1,0-.37.27.27,0,0,1,.33,0,3,3,0,0,1,1.21,1.68.16.16,0,0,1-.14.18.14.14,0,0,1-.11,0Z"/></g><g id="Group_472" data-name="Group 472"><path id="Path_2000" data-name="Path 2000" class="cls-13" d="M210,156.26a2,2,0,0,1-.57-1.21c0-.3.67,0,.8,1.1a.13.13,0,0,1-.12.15.13.13,0,0,1-.11-.05Z"/></g><g id="Group_473" data-name="Group 473"><path id="Path_2001" data-name="Path 2001" class="cls-13" d="M208.9,155.35c.31.92-.23.93-.31.71a1.28,1.28,0,0,1,0-.7.16.16,0,0,1,.21-.08.11.11,0,0,1,.08.07Z"/></g><g id="Group_474" data-name="Group 474"><path id="Path_2002" data-name="Path 2002" class="cls-13" d="M200.8,154.34a2.71,2.71,0,0,1,.79.56c.21.21.48.43.47.75a.16.16,0,0,1-.18.14c-.27-.06-.41-.3-.6-.5s-.44-.47-.65-.73c-.08-.1,0-.28.16-.22Z"/></g><g id="Group_475" data-name="Group 475"><path id="Path_2003" data-name="Path 2003" class="cls-13" d="M200.33,155.1a4.51,4.51,0,0,1,1.21,1.5c0,.15-.15.24-.27.16a2.42,2.42,0,0,1-.55-.68c-.2-.26-.4-.5-.58-.77s.06-.32.19-.21Z"/></g><g id="Group_476" data-name="Group 476"><path id="Path_2004" data-name="Path 2004" class="cls-13" d="M199.46,155.74a8,8,0,0,1,.94,1.63c0,.13-.15.25-.25.16a4.92,4.92,0,0,1-.92-1.64C199.17,155.75,199.37,155.61,199.46,155.74Z"/></g><g id="Group_477" data-name="Group 477"><path id="Path_2005" data-name="Path 2005" class="cls-13" d="M198.67,156.36a2.06,2.06,0,0,1,.34.59c.23.48.37.73.19.85a.24.24,0,0,1-.34,0l0-.06a4.88,4.88,0,0,1-.44-1.23.16.16,0,0,1,.14-.18.15.15,0,0,1,.14.05Z"/></g><g id="Group_478" data-name="Group 478"><path id="Path_2006" data-name="Path 2006" class="cls-20" d="M203.43,164.33h7.38a7.72,7.72,0,0,0,7.72-7.71H195.71a7.72,7.72,0,0,0,7.72,7.71Z"/><path id="Path_2007" data-name="Path 2007" class="cls-13" d="M203.43,164.33h7.38a7.72,7.72,0,0,0,7.72-7.71H195.71a7.72,7.72,0,0,0,7.72,7.71Z"/><path id="Path_2008" data-name="Path 2008" class="cls-9" d="M215.57,156.62h3a7.71,7.71,0,0,1-7.71,7.71h-2.95a7.71,7.71,0,0,0,7.71-7.71Z"/></g></g><g id="Group_480" data-name="Group 480"><path id="Rectangle_140" data-name="Rectangle 140" class="cls-13" d="M101.31,161.87H97.38a4.11,4.11,0,0,1-4.11-4.11h12.15a4.11,4.11,0,0,1-4.11,4.11Z"/><path id="Path_2009" data-name="Path 2009" class="cls-9" d="M103.85,157.76h1.57a4.11,4.11,0,0,1-4.11,4.11H99.74A4.11,4.11,0,0,0,103.85,157.76Z"/></g><g id="Group_481" data-name="Group 481"><path id="Path_2010" data-name="Path 2010" class="cls-20" d="M97.38,164.42h3.93a4.11,4.11,0,0,0,4.11-4.11H93.27a4.11,4.11,0,0,0,4.1,4.11Z"/><path id="Path_2011" data-name="Path 2011" class="cls-21" d="M97.38,164.42h3.93a4.11,4.11,0,0,0,4.11-4.11H93.27a4.11,4.11,0,0,0,4.1,4.11Z"/><path id="Path_2012" data-name="Path 2012" class="cls-17" d="M103.85,160.31h1.57a4.11,4.11,0,0,1-4.11,4.11H99.74A4.11,4.11,0,0,0,103.85,160.31Z"/></g><g id="Group_483" data-name="Group 483"><path id="Path_2013" data-name="Path 2013" class="cls-22" d="M142.33,160c-.1,1.68-2.3,3.26-4.53,3.26s-4.35-1.67-4.35-3.34c0-2.41,1.25-2.41,2.84-2.28.3,0,.61.06.94.07a5.24,5.24,0,0,0,.57,0l.6,0,.72-.07C140.9,157.4,142.48,157.18,142.33,160Z"/><g id="Group_482" data-name="Group 482"><path id="Path_2014" data-name="Path 2014" class="cls-4" d="M136.66,155.26h0Z"/><path id="Path_2015" data-name="Path 2015" class="cls-4" d="M140,156.55a.31.31,0,0,0-.43,0h0c.31,0,.17.37-.09.62a3.86,3.86,0,0,1-1.69,0h-.08c.29-.86-.07-2.8-1.21-2.46l.19.53.13,0c.47-.05.88,1.3.76,2-.69,0-1.9.36-2,.14s.25-.34.25-.34l.36.1s-.35-.51-.7-.38a.54.54,0,0,0-.41.66.51.51,0,0,0,.1.21,6.46,6.46,0,0,0,1.7.11,2.36,2.36,0,0,0-1,.82c-.34.53.36,1.28.36,1.28s-.38-.74,0-1.15a8.41,8.41,0,0,1,1.24-.88l0,1.85a1.49,1.49,0,0,0,.41-1.06,2.38,2.38,0,0,0-.12-.84l.37,0a4.26,4.26,0,0,1,.85.36c.42.25-.22.95-.22.95a1,1,0,0,0,.5-.44c.34-.62,0-.78-.34-.92.23,0,.46,0,.8-.07C140.26,157.49,140.19,156.77,140,156.55Z"/></g></g><rect id="Rectangle_141" data-name="Rectangle 141" class="cls-17" x="80.12" y="164.13" width="39.42" height="4.64"/><rect id="Rectangle_142" data-name="Rectangle 142" class="cls-5" x="116.87" y="164.13" width="107.76" height="4.64"/><g id="Group_486" data-name="Group 486"><path id="Path_2016" data-name="Path 2016" class="cls-3" d="M158.93,161.88s2.59-6.53,2.47-7.64-1.12-1.66-1.7-.4-.79,2.67-1.23,2.17,1.12-5.76-.66-6.1-.63,6.74-1.33,6.58-1.07-7.72-3-7.11,1.24,7.67.51,7.67-1.89-6.69-4-5.66,2.65,6.17,1.89,7-3.77-5.44-5.71-3.65,4.77,5.45,4.52,5.73-5.73-4.25-7-2.53,4.26,2.61,3.92,3.17-3.13-.37-3,.74,6.11,1.09,6.11,1.09Z"/><path id="Path_2017" data-name="Path 2017" class="cls-3" d="M170,159.07c-.57-.25-.82-.67-.37-1.1a1.59,1.59,0,0,1,2.25.21l0,0a1.7,1.7,0,0,1,0,1.84,2.12,2.12,0,0,1-1.63.95l.08.31a2.55,2.55,0,0,0,.52-.15,2.61,2.61,0,0,0,1.24-1,2.1,2.1,0,0,0,.08-2.1,1.94,1.94,0,0,0-2.71-.43,1.88,1.88,0,0,0-.36.33c-.39.6,0,1.25.7,1.55Z"/><path id="Path_2018" data-name="Path 2018" class="cls-17" d="M168.82,161.13s-4.16-.32-4.56-.45-.3-1-1.84-1.27-2.5.18-2.69.94.92,1.38,1.32.87.51-1.1,1.41-1a2.94,2.94,0,0,1,1.59.82Z"/><g id="Group_484" data-name="Group 484"><path id="Path_2019" data-name="Path 2019" class="cls-16" d="M154.45,160.09s.49,2.92,4.47,2.48,5.38.9,8.83.74c2.78-.13,6.4-3.79,5-8.32S155.12,148.92,154.45,160.09Z"/><path id="Path_2020" data-name="Path 2020" class="cls-13" d="M154.45,159.89a1.47,1.47,0,0,0,.09.66c.3.79,1.3,2.54,4.4,2.2,4.06-.44,5.36.75,8.81.57,2.78-.15,6.43-3.49,5.09-7.56S155.53,150.13,154.45,159.89Z"/><path id="Path_2021" data-name="Path 2021" class="cls-23" d="M172.84,155.76c-1.4-3.71-15.63-5.18-18.07,2.77a9.25,9.25,0,0,0-.32,1.36,7.41,7.41,0,0,1,5-6.48c4.63-1.87,10.5-.75,12.61,1.19A2.52,2.52,0,0,1,172.84,155.76Z"/><path id="Path_2022" data-name="Path 2022" class="cls-22" d="M169.53,161.76s2.56-1.22,2.66-3.35a4.62,4.62,0,0,0-3.5-4.3c-1.65-.36.32.46,1,3.15S168.17,161.81,169.53,161.76Z"/><path id="Path_2023" data-name="Path 2023" class="cls-22" d="M156.35,160a1.23,1.23,0,0,1-1.23-1.22c0-.06,0-.11,0-.17a3.78,3.78,0,0,1,1.46-2.18c2.4-2,9.55-3.74,10.16-2.24s-3.19,1.9-3.71,4.09C162.63,160,158.29,160,156.35,160Z"/><path id="Path_2024" data-name="Path 2024" class="cls-22" d="M156.56,160.86a.6.6,0,0,0-.49.68.85.85,0,0,0,.11.26,2.14,2.14,0,0,0,2.06.7,30.08,30.08,0,0,1,6.57.17c2,.22,3.53.25,3.46-.38s-3.77-1.61-4.56-2.14S158.37,160.5,156.56,160.86Z"/></g><g id="Group_485" data-name="Group 485"><path id="Path_2025" data-name="Path 2025" class="cls-7" d="M143.41,160.25a3.22,3.22,0,0,0,2.76,3c2.75.6,7.28-.73,7.74-1.22a1.52,1.52,0,0,0,.31-1.33c-.05-.41-.18-.17-1.92-.68s-2-.08-3.64-.86S143.49,158.63,143.41,160.25Z"/><path id="Path_2026" data-name="Path 2026" class="cls-4" d="M153.27,161.51a1.42,1.42,0,0,0,.85-.6h0c.24-.37.18-.86-1.56-1.37a19,19,0,0,1-3.77-1.1c-1.69-.79-5.33.17-5.4,1.78a.69.69,0,0,0,0,.25,4,4,0,0,0,2.76,1.71A17.85,17.85,0,0,0,153.27,161.51Z"/><path id="Path_2027" data-name="Path 2027" class="cls-23" d="M144,160.78a.85.85,0,0,1-.06-1.12c.8-1.07,3.42-1.63,4.71-1a8.78,8.78,0,0,0,2.34.76c.7.15,3.52.61,2.88,1.56-.34.51-1.51.57-2.13.7s-1.23.24-1.85.32a8.93,8.93,0,0,1-2,.13C147.44,162,145.29,162.21,144,160.78Z"/><path id="Path_2028" data-name="Path 2028" class="cls-13" d="M148.92,159c1.25.17,2.14.87,2,1.56s-1.27,1.11-2.52,1-2.15-.87-2-1.56S147.67,158.81,148.92,159Z"/></g></g><g id="Group_487" data-name="Group 487"><path id="Path_2029" data-name="Path 2029" class="cls-3" d="M167,158.1c-.57-.24-.82-.67-.37-1.1a1.6,1.6,0,0,1,2.25.22l0,0a1.7,1.7,0,0,1,0,1.84,2,2,0,0,1-.71.67,2.1,2.1,0,0,1-.92.28l.08.31a2.38,2.38,0,0,0,.52-.15,2.61,2.61,0,0,0,1.24-1,2.1,2.1,0,0,0,.08-2.1,2,2,0,0,0-2.71-.44,2.31,2.31,0,0,0-.36.34c-.39.6,0,1.25.7,1.55Z"/><path id="Path_2030" data-name="Path 2030" class="cls-6" d="M155.08,160c0-1.44,1.63-2.62,3.65-2.62a4,4,0,0,1,3.32,1.52c3,.12,5.34.9,5.34,1.85,0,.45-.47.76-.85,1a8,8,0,0,1-2.25.68,28.28,28.28,0,0,1-2.9.33,19,19,0,0,1-2.82,0,5.28,5.28,0,0,1-2.13-.57,2.3,2.3,0,0,1-1.36-2.17Z"/><path id="Path_2031" data-name="Path 2031" class="cls-17" d="M165.79,160.17s-4.16-.32-4.56-.45-.3-1-1.84-1.28-2.5.19-2.69.95.92,1.37,1.32.86.51-1.09,1.42-1a3,3,0,0,1,1.58.83Z"/><path id="Path_2032" data-name="Path 2032" class="cls-3" d="M165.44,160l.44.21-.35.29.48.14-.47.3h0l.52.28-.42.33.52.21-.07.32a1.87,1.87,0,0,0,1.7-1.21,1.51,1.51,0,0,0,0-.37c-.13-1.29-2.38-1.24-2.38-1.24l.34.2-.22.07.27.21Z"/></g><g id="Group_489" data-name="Group 489"><path id="Path_2033" data-name="Path 2033" class="cls-9" d="M146.68,160.4c-.07,1.33-1.82,2.58-3.59,2.58s-3.44-1.32-3.44-2.65c0-1.91,1-1.91,2.25-1.8l.74.06h.45l.48,0,.57-.05C145.55,158.37,146.81,158.2,146.68,160.4Z"/><g id="Group_488" data-name="Group 488"><path id="Path_2034" data-name="Path 2034" class="cls-3" d="M142.19,156.68h0S142.18,156.68,142.19,156.68Z"/><path id="Path_2035" data-name="Path 2035" class="cls-3" d="M144.82,157.7a.25.25,0,0,0-.34,0h0c.24,0,.13.29-.07.49a3.08,3.08,0,0,1-1.35,0H143c.23-.68-.06-2.22-.95-1.95l.15.42a.17.17,0,0,1,.1,0c.37,0,.7,1,.6,1.55-.55,0-1.5.29-1.61.12s.2-.27.2-.27l.28.07s-.27-.4-.55-.3a.43.43,0,0,0-.33.52.38.38,0,0,0,.08.17,5.58,5.58,0,0,0,1.35.09,1.89,1.89,0,0,0-.83.65c-.27.42.28,1,.28,1s-.3-.59,0-.91a6.22,6.22,0,0,1,1-.7l0,1.47a1.17,1.17,0,0,0,.33-.85,1.86,1.86,0,0,0-.1-.66l.3,0a3.63,3.63,0,0,1,.67.28c.34.2-.17.76-.17.76a.84.84,0,0,0,.4-.34c.27-.5,0-.63-.27-.74a5.71,5.71,0,0,0,.63-.06C145,158.45,145,157.88,144.82,157.7Z"/></g></g><g id="Group_490" data-name="Group 490"><path id="Path_2036" data-name="Path 2036" class="cls-4" d="M192.16,143.54V132.7h-2.7v10.84h0a2,2,0,0,0-2,2h0v18.67h6.68V145.54a2,2,0,0,0-2-2Z"/><path id="Path_2037" data-name="Path 2037" class="cls-3" d="M192.16,143.54V132.7h-1.39v10.84a2,2,0,0,1,2,2h0v18.67h1.4V145.54a2,2,0,0,0-2-2Z"/><rect id="Rectangle_143" data-name="Rectangle 143" class="cls-9" x="189.45" y="132.7" width="2.7" height="5.26"/><rect id="Rectangle_144" data-name="Rectangle 144" class="cls-9" x="187.47" y="152.03" width="6.68" height="9.5"/></g><path id="Path_2038" data-name="Path 2038" class="cls-4" d="M173.36,164.21H132.89a2.49,2.49,0,0,1-2.49-2.49h45.44A2.49,2.49,0,0,1,173.36,164.21Z"/><path id="Path_2039" data-name="Path 2039" class="cls-21" d="M128.91,164.13H111.32c-.6,0-1.08-.73-1.08-1.63H130C130,163.4,129.51,164.13,128.91,164.13Z"/><g id="Group_491" data-name="Group 491"><path id="Path_2040" data-name="Path 2040" class="cls-16" d="M183.7,153.11c0,.59.36,1.06.77,1s.74-.49.73-1.08-.35-1.06-.76-1.05S183.69,152.51,183.7,153.11Zm1.15-.54c0,.13-.18.25-.4.25s-.4-.1-.41-.24.18-.25.4-.25.4.1.41.23Zm-1,.82c0-.21.25-.39.56-.39s.57.16.58.37-.25.39-.57.39-.57-.16-.57-.37Z"/><path id="Path_2041" data-name="Path 2041" class="cls-24" d="M186.17,154.36a2.68,2.68,0,0,1,.26,1.08l.13,7.82a.86.86,0,0,1-.85.87h0l-4.48.08a.86.86,0,0,1-.87-.85h0l-.13-7.82a2.56,2.56,0,0,1,.22-1.09Z"/><path id="Path_2042" data-name="Path 2042" class="cls-24" d="M186.17,154.36a2.68,2.68,0,0,1,.26,1.08l.13,7.82a.86.86,0,0,1-.85.87h0l-4.48.08a.86.86,0,0,1-.87-.85h0l-.13-7.82a2.56,2.56,0,0,1,.22-1.09Z"/><path id="Path_2043" data-name="Path 2043" class="cls-13" d="M180.23,155.54l.12,7.82a.86.86,0,0,0,.88.84l4.48-.07a.86.86,0,0,0,.85-.87h0l-.13-7.82a2.64,2.64,0,0,0-.26-1.08l-5.72.09A2.42,2.42,0,0,0,180.23,155.54Z"/><path id="Path_2044" data-name="Path 2044" class="cls-22" d="M185.37,163.28l-.13-7.82a2.67,2.67,0,0,0-.25-1.08l1.18,0a2.68,2.68,0,0,1,.26,1.08l.13,7.82a.86.86,0,0,1-.85.87h0l-1.19,0A.86.86,0,0,0,185.37,163.28Z"/><path id="Path_2045" data-name="Path 2045" class="cls-9" d="M180.23,155.54l.12,7.82a.86.86,0,0,0,.88.84l1.83,0a.86.86,0,0,1-.89-.84l-.12-7.82a2.56,2.56,0,0,1,.22-1.09l-1.82,0A2.42,2.42,0,0,0,180.23,155.54Z"/><path id="Path_2046" data-name="Path 2046" class="cls-7" d="M180.45,154.45l5.72-.09h0a.46.46,0,0,0-.46-.45l-4.81.08A.44.44,0,0,0,180.45,154.45Z"/><rect id="Rectangle_145" data-name="Rectangle 145" class="cls-7" x="180.34" y="161.77" width="6.2" height="0.97" transform="translate(-2.64 3.04) rotate(-0.94)"/></g><g id="Group_492" data-name="Group 492"><path id="Path_2047" data-name="Path 2047" class="cls-16" d="M68,155.11c-.08.58.2,1.1.61,1.15s.8-.37.88-1-.2-1.1-.61-1.16S68.12,154.52,68,155.11Zm1.21-.37c0,.14-.21.22-.43.19s-.39-.16-.37-.3.21-.22.43-.19.39.16.37.3Zm-1.07.68c0-.21.3-.35.62-.31s.54.24.51.45-.3.35-.61.31-.54-.25-.52-.46Z"/><path id="Path_2048" data-name="Path 2048" class="cls-24" d="M70.3,156.7a2.61,2.61,0,0,1,.1,1.11l-1,7.76a.87.87,0,0,1-1,.74h0L64,165.73a.86.86,0,0,1-.75-1h0l1-7.76a2.55,2.55,0,0,1,.37-1Z"/><path id="Path_2049" data-name="Path 2049" class="cls-24" d="M70.3,156.7a2.61,2.61,0,0,1,.1,1.11l-1,7.76a.87.87,0,0,1-1,.74h0L64,165.73a.86.86,0,0,1-.75-1h0l1-7.76a2.55,2.55,0,0,1,.37-1Z"/><path id="Path_2050" data-name="Path 2050" class="cls-4" d="M64.24,157l-1,7.76a.86.86,0,0,0,.74,1l4.44.58a.87.87,0,0,0,1-.74l1-7.76a2.41,2.41,0,0,0-.1-1.1L64.62,156A2.62,2.62,0,0,0,64.24,157Z"/><path id="Path_2051" data-name="Path 2051" class="cls-10" d="M68.21,165.42l1-7.76a2.61,2.61,0,0,0-.1-1.11l1.18.15a2.78,2.78,0,0,1,.1,1.11l-1,7.76a.87.87,0,0,1-1,.74h0l-1.18-.16A.85.85,0,0,0,68.21,165.42Z"/><path id="Path_2052" data-name="Path 2052" class="cls-3" d="M64.24,157l-1,7.76a.86.86,0,0,0,.74,1l1.82.24a.87.87,0,0,1-.76-1l1-7.76a2.62,2.62,0,0,1,.38-1L64.62,156A2.56,2.56,0,0,0,64.24,157Z"/><path id="Path_2053" data-name="Path 2053" class="cls-16" d="M64.62,156l5.68.73h0a.46.46,0,0,0-.4-.5h0l-4.77-.62a.45.45,0,0,0-.51.39Z"/><rect id="Rectangle_146" data-name="Rectangle 146" class="cls-16" x="65.96" y="161.02" width="0.97" height="6.21" transform="matrix(0.13, -0.99, 0.99, 0.13, -104.87, 208.85)"/></g><g id="Group_495" data-name="Group 495"><g id="Group_493" data-name="Group 493"><path id="Path_2054" data-name="Path 2054" class="cls-6" d="M333.88,219.7a.78.78,0,0,1-.77-.63l-11.86-58.19a.79.79,0,0,1,1.55-.32l11.86,58.19a.79.79,0,0,1-.62.93Z"/></g><g id="Group_494" data-name="Group 494"><path id="Path_2055" data-name="Path 2055" class="cls-6" d="M291.35,219.7l-.17,0a.78.78,0,0,1-.6-.94h0L304,158.8a.79.79,0,0,1,1-.57.78.78,0,0,1,.57.91l-13.41,59.94A.79.79,0,0,1,291.35,219.7Z"/></g><path id="Path_2056" data-name="Path 2056" class="cls-13" d="M288.75,140a24.6,24.6,0,0,0,49.19,0Z"/><path id="Path_2057" data-name="Path 2057" class="cls-9" d="M333.9,140c-1.87,11.72-11.47,19.15-23.72,19.15-5.85,0-11.77-.51-16-3.91A24.6,24.6,0,0,0,337.94,140Z"/><path id="Rectangle_147" data-name="Rectangle 147" class="cls-9" d="M289.45,139.85h48.49v1.77H287.68A1.77,1.77,0,0,1,289.45,139.85Z"/><path id="Path_2058" data-name="Path 2058" class="cls-7" d="M340.3,140.11a2.41,2.41,0,1,1-1.87-2.84A2.41,2.41,0,0,1,340.3,140.11Z"/><path id="Path_2059" data-name="Path 2059" class="cls-6" d="M339.48,139.94a1.57,1.57,0,1,1-1.22-1.85h0A1.58,1.58,0,0,1,339.48,139.94Z"/><rect id="Rectangle_148" data-name="Rectangle 148" class="cls-6" x="298.06" y="186.78" width="29.9" height="3.04"/><path id="Rectangle_149" data-name="Rectangle 149" class="cls-22" d="M295.72,134.69H315a1.53,1.53,0,0,1,1.53,1.52h0a1.53,1.53,0,0,1-1.53,1.52H295.72a1.52,1.52,0,0,1-1.53-1.52h0A1.52,1.52,0,0,1,295.72,134.69Z"/><path id="Rectangle_150" data-name="Rectangle 150" class="cls-13" d="M301.43,134.69H315a1.52,1.52,0,0,1,1.52,1.52h0a1.52,1.52,0,0,1-1.52,1.52H301.43a1.52,1.52,0,0,1-1.52-1.52h0A1.52,1.52,0,0,1,301.43,134.69Z"/><path id="Rectangle_151" data-name="Rectangle 151" class="cls-13" d="M320.28,134.69h9.93a1.48,1.48,0,0,1,1.48,1.48h0a1.48,1.48,0,0,1-1.48,1.48h-9.93a1.48,1.48,0,0,1-1.48-1.48h0a1.48,1.48,0,0,1,1.48-1.48Z"/><path id="Rectangle_152" data-name="Rectangle 152" class="cls-7" d="M292.73,137.61h40.82a1.12,1.12,0,0,1,1.12,1.12h0a1.12,1.12,0,0,1-1.12,1.12H292.73a1.12,1.12,0,0,1-1.12-1.12h0a1.12,1.12,0,0,1,1.12-1.12Z"/></g><g id="Group_497" data-name="Group 497"><path id="Path_2060" data-name="Path 2060" class="cls-16" d="M363.44,92.35a13.67,13.67,0,0,0,1.77-.31,8.45,8.45,0,0,1,2-.33,4.57,4.57,0,0,1,3.56,1.78c1,1.57,3.33.93,1.49,7.75-2.09,7.72-6.27,6-6.35,5.82l-2.85-5.8s-1.91,2.62-1.89,2.51S356.31,93.24,363.44,92.35Z"/><path id="Path_2061" data-name="Path 2061" class="cls-8" d="M330.61,105.39c.24-.53,2.47,1,3,.7s-2-2.76-1.77-3.2c.45-.81,2.9,2.52,3.14,2.16s-2.13-3.92-1.3-4.13,2.06,4,2.48,3.68-1.5-3.76-.71-4.49c.42-.39,2.53,6.38,3.26,6.65s1.52-2.7,2.21-2.6-2.19,5.48-2,5.9,2.9,9.66,4.52,12.27c.95-.47,6.49-2.5,7.38-3,.38,2,1.6,3.55,2.1,5.53-3.07,1.4-11.51,4-12.41,3.67-2.75-1-4.27-14.2-4.74-16.67s-1.65-2.94-2.33-4.23S330.37,105.92,330.61,105.39Z"/><path id="Path_2062" data-name="Path 2062" class="cls-9" d="M348.17,128.09s11.9-3.46,14.86-6,3.52-8.26.71-10.21S346,120.09,346,120.09Z"/><path id="Path_2063" data-name="Path 2063" class="cls-8" d="M352.25,210.93l.23,4.27c.09.54.43,1.87.43,2.36,0,1.85-8.06-1.56-6.25-2.38.16-.08,1-.64,1.07-1.26.09-1,.3-2.93.3-2.93Z"/><path id="Path_2064" data-name="Path 2064" class="cls-13" d="M346.68,215.16c.94.28,1.9.52,2.86.71s2.25-1.05,2.93-.73.68,3.83.68,3.83-10.1.61-12.95-.33C339.07,218.27,342.81,216.47,346.68,215.16Z"/><path id="Path_2065" data-name="Path 2065" class="cls-8" d="M370,211.34l.24,4.26c.09.54.43,1.88.43,2.37,0,1.84-8.06-1.57-6.25-2.38.16-.08,1.27-1.06,1.32-1.68.09-1,0-2.51,0-2.51Z"/><path id="Path_2066" data-name="Path 2066" class="cls-13" d="M364.44,215.57c.94.28,1.89.52,2.86.71s2.24-1.05,2.93-.73.78,3.53.78,3.53-10.8.8-13.33,0C356.54,218.79,360.57,216.88,364.44,215.57Z"/><path id="Path_2067" data-name="Path 2067" class="cls-5" d="M357.23,149.91l-3.41,1.5-7.16,34.87.29,26.13,5.74.14s2.68-22.86,2.68-24.63,12.37-31,12.37-31Z"/><path id="Path_2068" data-name="Path 2068" class="cls-17" d="M359.86,151.83s2.51,26.86,2.51,31.39,2,29.87,2,29.87l5.76,0s.42-7.73,1-19.09c.1-1.78-.13-5.37,0-7.21.9-13.26,2.66-25.73,1.82-30.68-.14-.8-.39-2.87-.89-3.4C368.36,148.71,359.86,151.83,359.86,151.83Z"/><path id="Path_2069" data-name="Path 2069" class="cls-13" d="M369.35,111.66s4,.56,5,1.35a14.07,14.07,0,0,1,2.48,2.85S372,139.35,372,143.31c0,3.05,1.06,10.56,1.06,10.56s-14.75.95-20.33-1.3c0,0,1.76-8.93,1.76-11.27s2.11-23.67,2.59-25.16,1.23-3.78,3.93-4.38S369.35,111.66,369.35,111.66Z"/><path id="Path_2070" data-name="Path 2070" class="cls-8" d="M368.26,105.34l1,6.56s-3.59,7.81-5.73,7.13c-1.8-.57-.69-7.48-.69-7.48,0-.17,1-3.94.68-5.57C363.13,104.14,368.26,105.34,368.26,105.34Z"/><path id="Path_2071" data-name="Path 2071" class="cls-13" d="M363.5,106c-.29-1.86,4.76-.65,4.76-.65l.08.55.15,1s-1.71,4.06-5.41,3.5A24.94,24.94,0,0,0,363.5,106Z"/><g id="Group_496" data-name="Group 496"><path id="Path_2072" data-name="Path 2072" class="cls-7" d="M354.89,143.46h0a.91.91,0,0,1-1-.73l-5.05-22.8.2,0,6.65,22.36a1,1,0,0,1-.63,1.17Z"/><path id="Path_2073" data-name="Path 2073" class="cls-7" d="M349.17,114.56s.8,5.41-.16,5.51-2.2-5.73-2.2-5.73,1.46,4.42,2,4.36S349.17,114.56,349.17,114.56Z"/><path id="Path_2074" data-name="Path 2074" class="cls-22" d="M352.54,112a1.67,1.67,0,0,1,1,2.12,1.64,1.64,0,0,1-.28.48,1.82,1.82,0,0,1-1.43.62c-2.21.07-5,.8-6.42,2.42s-4-.32-2.06-2.48C345,113.26,349.23,110.76,352.54,112Z"/></g><path id="Path_2075" data-name="Path 2075" class="cls-16" d="M348.08,173.08l14.7,2.89a4.59,4.59,0,0,0,5.37-3.67,4,4,0,0,0,.07-.48l1.94-22.8-16.47-1.86Z"/><path id="Path_2076" data-name="Path 2076" class="cls-16" d="M372.69,148.29l.4,1.59-6.54.78s-.85-2.14-.31-2.08l3.92.44Z"/><path id="Path_2077" data-name="Path 2077" class="cls-8" d="M350.77,137.26c.12-.09.11-.16.11-.16A1.08,1.08,0,0,1,351,136a14.44,14.44,0,0,1,1.62-.29,1.21,1.21,0,0,1,.5-.23c.18,0,1.49-.52,1.74-.54a16.22,16.22,0,0,1,1.59.53,5.81,5.81,0,0,1,1.49.81c.17.1,3.6-.08,4.49-.11s1.7-.12,1.7-.12,5.64-.84,11.52-1.27L374.63,130l5.55-.64c.38,2.74,1.36,7,1.41,8.31.08,2.55-8.62,2.29-16.32,1.93h0l-2.37-.12c-1,0-2.66.09-3.42.13h0a9.88,9.88,0,0,0-1.23.22,8.12,8.12,0,0,1-1.09.23,3.44,3.44,0,0,0-.51.25c-.13.07-1.9.13-2.18.15a4.77,4.77,0,0,1-.92-.15l-1.18,0c-.86,0-.57-.88-.57-.88-.41,0-.61-.16-.68-.4a2,2,0,0,1,0-.55s-.14-.07-.14-.07c-.26,0-.44-.3-.46-.49A.85.85,0,0,1,350.77,137.26Z"/><path id="Path_2078" data-name="Path 2078" class="cls-13" d="M373.63,112.64a10.05,10.05,0,0,1,4.73,3.3c2.19,2.5,3.57,16.51,3.57,16.51l-7.55,1.24-.6-6.77-2-3.1Z"/><path id="Path_2079" data-name="Path 2079" class="cls-8" d="M366.53,95.17a3.8,3.8,0,0,0-4.88,2.24,3.69,3.69,0,0,0-.18.65,32.11,32.11,0,0,0-.42,3.65c-.15,3.33,1.47,6.62,3,6.66s5.74-2,6-6.71C370.23,98.75,368.86,96.05,366.53,95.17Z"/><path id="Path_2080" data-name="Path 2080" class="cls-8" d="M368.93,102a1.11,1.11,0,0,0,2.18-.39,1.09,1.09,0,0,0-1.05-.91A1.23,1.23,0,0,0,368.93,102Z"/><path id="Path_2081" data-name="Path 2081" class="cls-16" d="M370.06,100.71s-1.85.07-2.27-1.19-2.26-4.18-5.44-3.78,3.12-1.93,3.36-1.88l3.09.61s1.82,2.26,1.86,2.47.23,2.51.23,2.51Z"/><path id="Path_2082" data-name="Path 2082" class="cls-12" d="M362.7,104.57l2.67.26a1.16,1.16,0,0,1-1.33.92C362.6,105.66,362.7,104.57,362.7,104.57Z"/></g><path id="Path_2083" data-name="Path 2083" class="cls-14" d="M61,161a13.26,13.26,0,0,1,2.16-1.79,3.24,3.24,0,0,1,1.33-.38s1-.05,1.1.19a.53.53,0,0,1-.27.6c-.18.08-.59.05-.77.14a1.58,1.58,0,0,0-.43.92c0,.24,3,0,3,0s.86-.12,1.15-.18,1-.27,1-.27,1-.25,1.09.09-.82.68-1.72,1a16.82,16.82,0,0,0-2,.65c0,.24,1.67.14,1.67.14a6.27,6.27,0,0,1,1.13-.22c.46-.22,1.28-.36,1.32.05a6.89,6.89,0,0,1-1.06.6s-.74.2-1.09.32q-1,.21-2,.33c-.35.08-.22.17-.23.21a8.65,8.65,0,0,0,1.13-.06,6.85,6.85,0,0,0,1.1-.07,7.51,7.51,0,0,1,1.16-.15c.86,0,.73.52-.06.7l-1,.22c-1.3.28-2.53.25-2.55.4s2.23.1,2.23.1,1.22.32,0,.58a9.57,9.57,0,0,1-2.5.25,8.85,8.85,0,0,1-2.62-.12c-.82-.22-2-.58-2.54-.76Z"/><path id="Path_2084" data-name="Path 2084" class="cls-3" d="M64.05,158.48l-.3,2.29a7.09,7.09,0,0,0,1.84,0l.14-1.13-.1-.94-.41-.53Z"/><g id="Group_498" data-name="Group 498"><path id="Path_2085" data-name="Path 2085" class="cls-8" d="M383.7,213.49s.18,3,.18,3a15.9,15.9,0,0,1,.33,1.67c0,1.3-6.16-1.1-4.78-1.68.12,0,.78-.45.82-.89.06-.68.22-2.05.22-2.05Z"/><path id="Path_2086" data-name="Path 2086" class="cls-16" d="M379.45,216.47s1.44.4,2.18.5,1.72-.74,2.24-.51.56,2.48.56,2.48-7.76.64-9.94,0C373.63,218.65,376.49,217.39,379.45,216.47Z"/><path id="Path_2087" data-name="Path 2087" class="cls-6" d="M393.88,166.07s.68,4.55-.17,6.54-7.3,21.54-7.38,23.14S384.1,215,384.1,215l-4.48-.12-1-19.59,2-24.63,2-6.22Z"/><path id="Path_2088" data-name="Path 2088" class="cls-8" d="M396.3,213.49s.18,3,.18,3a15.9,15.9,0,0,1,.33,1.67c0,1.3-6.16-1.1-4.78-1.68.12,0,1-.74,1-1.18a16.21,16.21,0,0,0,0-1.76Z"/><path id="Path_2089" data-name="Path 2089" class="cls-16" d="M392,216.47s1.45.4,2.19.5,1.72-.74,2.24-.51.6,2.48.6,2.48-7.79.74-10,0C386.24,218.62,389.09,217.39,392,216.47Z"/><path id="Path_2090" data-name="Path 2090" class="cls-7" d="M394.9,166.31a34.3,34.3,0,0,1,.62,8.87c-.42,3.83-.46,17.42-.46,17.42l1.63,21.75-3.85.08s-6.46-22.57-6.37-22-1.53-15.3-1.53-15.3l7.33-11.28Z"/><path id="Path_2091" data-name="Path 2091" class="cls-8" d="M364.86,164c-.13-.38,1.69-.66,1.79-1s-2.29-.43-2.37-.76c-.16-.61,2.62-.11,2.56-.39s-2.88-1-2.57-1.44,2.87,1,3,.66-2.5-1.16-2.45-1.89c0-.39,4.23,2,4.72,1.77s-.51-2.05-.12-2.32,1.54,3.48,1.81,3.61,6.12,2.65,8.14,3.18c.25-.68,2.23-4.34,2.45-5,1.13.82,2.76.17,3.93.92-.87,2.12-3.37,8.47-4,8.73-1.81.8-9.93-4.2-11.32-5.2s-2.19-.68-3.13-1S365,164.39,364.86,164Z"/><path id="Path_2092" data-name="Path 2092" class="cls-16" d="M380,162.87l5.54.86s.49-4.55.6-6.73c.13-2.64.08-6.05-.24-6a4.87,4.87,0,0,0-2.9,1.54C380.3,155.83,380,162.87,380,162.87Z"/><path id="Path_2093" data-name="Path 2093" class="cls-23" d="M383.24,156.41c-.16.8-4.07,21-4.07,21,9.89,5.42,17.16,2.84,17.16,2.84s-.37-14.94.13-17c.34-1.37,1.55-10.4.67-10.7a27.41,27.41,0,0,0-4.28-1.19,37.44,37.44,0,0,0-6.86-.27A10.86,10.86,0,0,0,383.24,156.41Z"/><path id="Path_2094" data-name="Path 2094" class="cls-16" d="M391.2,134.59s-3.67-1.61-4.64,1.57a2.34,2.34,0,0,0-2.55,2.09,2.18,2.18,0,0,0,.15,1.07s-3.07,1.84-.75,5.81c0,0-.6,4,4,3.86a2.48,2.48,0,0,0,2.83.85,4.94,4.94,0,0,0,2.54-1.05s3.76.8,4.62-2.6c0,0,2.48-.8.55-3.91,0,0,1.89-4.37-2.08-5.34C395.82,136.94,395.05,132.67,391.2,134.59Z"/><path id="Path_2095" data-name="Path 2095" class="cls-8" d="M394,144.2c-.23.82,0,1.61.59,1.76s1.19-.38,1.42-1.2,0-1.61-.59-1.77S394.18,143.38,394,144.2Z"/><path id="Path_2096" data-name="Path 2096" class="cls-8" d="M384.3,142.94c0,.85.5,1.53,1.08,1.52s1-.72,1-1.57-.51-1.53-1.08-1.52S384.27,142.09,384.3,142.94Z"/><path id="Path_2097" data-name="Path 2097" class="cls-8" d="M388.47,148.15c0,.06-.33,2.24-.51,3.39a.92.92,0,0,0,.58,1c1.09.4,3.21.92,4.55-.48a.61.61,0,0,0,.16-.48l-.56-5.09Z"/><path id="Path_2098" data-name="Path 2098" class="cls-22" d="M388.29,149.37a4.16,4.16,0,0,0,4.07-.65l.53-.41-.2-1.83-4.22,1.67S388.39,148.71,388.29,149.37Z"/><path id="Path_2099" data-name="Path 2099" class="cls-8" d="M390.76,137.21a5.1,5.1,0,0,1,2.92,1.94c1.14,1.61,2.07,6.45-1.42,8.86s-6.38-.71-6.54-3.84S386.65,136.93,390.76,137.21Z"/><path id="Path_2100" data-name="Path 2100" class="cls-12" d="M387.42,145.58l3.63,0a1.59,1.59,0,0,1-1.69,1.41C387.41,147.05,387.42,145.58,387.42,145.58Z"/><path id="Path_2101" data-name="Path 2101" class="cls-16" d="M387.22,137.89a6.62,6.62,0,0,1,3,.42c1.12.6,3.77,5,4.52,4.75s1.07-3,.77-3.53a20.88,20.88,0,0,0-1.75-2.44,16.56,16.56,0,0,0-2.07-.77c-.3,0-2.68.07-2.68.07Z"/><path id="Path_2102" data-name="Path 2102" class="cls-8" d="M385.73,174.86c-.34-.2.87-1.59.71-1.94s-2,1.14-2.31.94c-.51-.37,1.94-1.76,1.72-2s-2.82,1.12-2.9.55,2.83-1.08,2.68-1.38-2.66.71-3.09.11c-.23-.31,4.52-1.19,4.76-1.66s-1.7-1.25-1.58-1.7,3.41,1.67,3.7,1.61,6.39-1.89,8.29-2.78c-.24-.68-1.07-4.76-1.31-5.4,1.39-.1,2.23-1.64,3.6-1.81.7,2.18,2.85,8.66,2.56,9.25-.88,1.77-10.32,3.14-12,3.26s-2.12.87-3,1.23S386.07,175.07,385.73,174.86Z"/><path id="Path_2103" data-name="Path 2103" class="cls-16" d="M401.83,163.34l-6.38,3.08s-1-4.68-1.75-7.58c-.64-2.49,2.54-6.92,3.6-6.31C399.66,153.88,401.83,163.34,401.83,163.34Z"/></g><g id="Group_502" data-name="Group 502"><path id="Path_2104" data-name="Path 2104" class="cls-22" d="M217.7,129.1h1l-.12,1Z"/><path id="Path_2105" data-name="Path 2105" class="cls-8" d="M243.86,126.42a70.79,70.79,0,0,0-1.15-9.19,46,46,0,0,0-2.81,6.2c-.14.31-3,7.66-3,7.66l-14-.38.24,3.4c.55,0,18.62,2.48,19.55,2.19S244.08,130.57,243.86,126.42Z"/><path id="Path_2106" data-name="Path 2106" class="cls-8" d="M223.31,130.87l-.14,3.23c-.58,0-1.13,0-1.93.09l-1.06-4.48-.18-.26h0s-1.23-1-1.13-1.4.93.07,1.19.23a33.2,33.2,0,0,1,2.87,2.43Z"/><path id="Path_2107" data-name="Path 2107" class="cls-9" d="M246.16,111.76l-4.4,17.09c-1.63-.66-3-1.62-4.6-2.29C241.07,115.51,246.16,111.76,246.16,111.76Z"/><path id="Path_2108" data-name="Path 2108" class="cls-16" d="M242.56,102.47c-.54-2.48-1.08-5,.36-7.7A7,7,0,0,1,248.43,91c6.6-.79,5.19,5.38,14.41,6.71,2.87.41,5.53.81,7.92,2.24,4.32,2.57,5.95,6.7,3.09,13.43-7,16.47-23.81,2.15-26.37-.76S242.91,104.06,242.56,102.47Z"/><path id="Path_2109" data-name="Path 2109" class="cls-8" d="M269,206.5s.48,4.78,1.68,5.65,2.82,4.12,2,5.87a2.05,2.05,0,0,1-1.33,1,3.53,3.53,0,0,1-4.23-2,10.12,10.12,0,0,1-.83-3.64,13,13,0,0,0-1.39-5.84Z"/><path id="Path_2110" data-name="Path 2110" class="cls-8" d="M250.39,208.46a40,40,0,0,0-.07,6.38c.17.83,1.09,2.56.66,3.35a2.09,2.09,0,0,1-.9,1l-11,.18c-.6,0-.2-.38.28-.73a22.24,22.24,0,0,1,3.94-2.17c.16-.08.76-.46,1-.59a7.37,7.37,0,0,0,1.56-1.39c.79-.87.86-5.11.86-5.11Z"/><path id="Path_2111" data-name="Path 2111" class="cls-6" d="M241.82,144.46s-1.38,7.82-.47,12.94S246.6,210,246.6,210l4.84.27s1-19.84.83-22.6a42.46,42.46,0,0,0-1.62-7.38l.49-16-6.1-21Z"/><path id="Path_2112" data-name="Path 2112" class="cls-5" d="M256,142.82s3.8,5.71,4.71,10.44-.66,19.27,1.08,25.47c.94,3.36,4.52,8.54,5.06,12.88s2.68,15.69,2.68,15.69l-4.83,1L253.5,179.89l-8.81-25.64L242.44,141Z"/><path id="Path_2113" data-name="Path 2113" class="cls-23" d="M253,110.3a9.62,9.62,0,0,1,5.32,2.54c2,2.17-3.22,19.6-3.58,22.36s3,9.2,3,9.2-12.45,2.3-15.84.07c0,0-.36-19.85,0-21.82s3.39-10,4.11-10.77S253,110.3,253,110.3Z"/><path id="Path_2114" data-name="Path 2114" class="cls-8" d="M251.27,103.58l.08.4A37.48,37.48,0,0,0,253,110.3c.71,1.33-2.42,5.58-5.42,5.06-.9-.15.75-3.9.67-4.3-.15-.76-.35-1.8-.57-2.86-.11-.6-.23-1.21-.35-1.78l-.58-3Z"/><path id="Path_2115" data-name="Path 2115" class="cls-13" d="M251.35,104l-.08-.4-4.5-.11.58,3,.35,1.77a4.16,4.16,0,0,0,2.15-1.08,5.57,5.57,0,0,0,1.63-2.42C251.43,104.41,251.38,104.17,251.35,104Z"/><path id="Path_2116" data-name="Path 2116" class="cls-8" d="M248.56,92.87a5.29,5.29,0,0,1,3.17,2c1.33,1.72,2.77,7-.54,9.92s-6.57-.38-7.06-3.84S243.74,92.74,248.56,92.87Z"/><path id="Path_2117" data-name="Path 2117" class="cls-8" d="M243.17,100.06c.2.83.75,1.4,1.22,1.26s.67-.93.47-1.77-.76-1.4-1.23-1.26S243,99.22,243.17,100.06Z"/><path id="Path_2118" data-name="Path 2118" class="cls-16" d="M248,92.79s2.84,5,4.87,5.28,2.3,2.92,2.3,2.92-.73-6.18-2.74-7.38A7.47,7.47,0,0,0,248,92.79Z"/><path id="Path_2119" data-name="Path 2119" class="cls-8" d="M252.21,99.28c-.17.9.16,1.72.74,1.84s1.17-.52,1.34-1.41-.17-1.72-.74-1.84S252.37,98.38,252.21,99.28Z"/><path id="Path_2120" data-name="Path 2120" class="cls-13" d="M266.76,216.23a5.4,5.4,0,0,0,5.3-2.21c.67,1.3,1.08,2.93.59,4a3.18,3.18,0,0,1-4.46.58,3.24,3.24,0,0,1-.71-.77A9.56,9.56,0,0,1,266.76,216.23Z"/><path id="Path_2121" data-name="Path 2121" class="cls-13" d="M244.32,215.86a10,10,0,0,0,6.24-.25,5.09,5.09,0,0,1,.5,2.6c-.27.78-.65.95-1,1-2.65.07-9.7.16-11.72.19A.33.33,0,0,1,238,219a.29.29,0,0,1,.08-.21C238.61,218.22,244.1,216,244.32,215.86Z"/><g id="Group_499" data-name="Group 499"><path id="Path_2122" data-name="Path 2122" class="cls-13" d="M219.06,124.82s0,.07,0,.11c0,.23-.05.45-.07.68a1.11,1.11,0,0,0,0,.19l6.2,1.86,4.45-.45.21-1.08-.35-.08-.33.22-.35-.2-.34.21-.35-.2-.34.2-.34-.21-.35.2-.33-.22-.36.19-.33-.22-.35.17-.33-.23-.36.17-.32-.24-.36.16-.31-.24-.37.15-.31-.26-.37.14-.3-.27-.38.13-.28-.28-.39.11-.27-.29-.39.1-.26-.3-.39.07-.25-.32-.39,0-.22-.33-.35-.06C219.09,124.57,219.07,124.7,219.06,124.82Z"/><path id="Path_2123" data-name="Path 2123" class="cls-6" d="M219,125.71c-.08,0-.23,4.33-.53,5.45s-1.07,5.14-1.07,5.14l10.76,1.75s.31-5.78.65-7.55.9-3.25.82-3.28S221.49,126.84,219,125.71Z"/><path id="Path_2124" data-name="Path 2124" class="cls-10" d="M227.87,132.63c-.25,1.31-2.37,2-4.73,1.54s-4.08-1.89-3.82-3.2,2.37-2,4.73-1.54S228.13,131.32,227.87,132.63Z"/></g><path id="Path_2125" data-name="Path 2125" class="cls-8" d="M220.12,132.42a.77.77,0,0,1-.49.9c-.69.25-1.89.53-2.33-.29-.63-1.19-.1-4.08.4-3.93s2.63,2,2.4,2.5A1.16,1.16,0,0,0,220.12,132.42Z"/><g id="Group_500" data-name="Group 500"><path id="Path_2126" data-name="Path 2126" class="cls-16" d="M239.53,129.16c.11.58.53,1,.93.91s.65-.6.55-1.18-.53-1-.93-.92S239.43,128.58,239.53,129.16Zm1-.72c0,.13-.13.27-.35.31s-.42,0-.44-.17.13-.27.35-.31.42,0,.45.17Zm-.81,1c0-.21.18-.43.49-.48s.59.06.63.27-.18.42-.49.48-.58-.07-.62-.27Z"/><path id="Path_2127" data-name="Path 2127" class="cls-24" d="M242.18,130a2.64,2.64,0,0,1,.43,1L244,138.7a.86.86,0,0,1-.69,1h0l-4.4.82a.87.87,0,0,1-1-.69l-1.42-7.69a2.45,2.45,0,0,1,0-1.11Z"/><path id="Path_2128" data-name="Path 2128" class="cls-24" d="M242.18,130a2.64,2.64,0,0,1,.43,1L244,138.7a.86.86,0,0,1-.69,1h0l-4.4.82a.87.87,0,0,1-1-.69l-1.42-7.69a2.45,2.45,0,0,1,0-1.11Z"/><path id="Path_2129" data-name="Path 2129" class="cls-13" d="M236.51,132.14l1.42,7.7a.86.86,0,0,0,1,.68l4.4-.81a.86.86,0,0,0,.69-1h0l-1.42-7.7a2.56,2.56,0,0,0-.43-1l-5.63,1A2.6,2.6,0,0,0,236.51,132.14Z"/><path id="Path_2130" data-name="Path 2130" class="cls-22" d="M242.86,138.92l-1.42-7.7a2.62,2.62,0,0,0-.43-1l1.17-.21a2.64,2.64,0,0,1,.43,1L244,138.7a.86.86,0,0,1-.69,1h0l-1.16.22a.85.85,0,0,0,.69-1Z"/><path id="Path_2131" data-name="Path 2131" class="cls-9" d="M236.51,132.14l1.42,7.69a.87.87,0,0,0,1,.69l1.8-.34a.86.86,0,0,1-1-.68h0l-1.42-7.7a2.6,2.6,0,0,1,0-1.11l-1.79.33A2.65,2.65,0,0,0,236.51,132.14Z"/><path id="Path_2132" data-name="Path 2132" class="cls-7" d="M236.55,131l5.63-1h0a.47.47,0,0,0-.53-.37h0l-4.74.88a.45.45,0,0,0-.36.53Z"/><rect id="Rectangle_153" data-name="Rectangle 153" class="cls-7" x="237.68" y="137.74" width="6.2" height="0.97" transform="translate(-21.1 46.04) rotate(-10.47)"/></g><g id="Group_501" data-name="Group 501"><path id="Path_2133" data-name="Path 2133" class="cls-14" d="M245.63,134.85a11,11,0,0,0-1.55-1.72,2.61,2.61,0,0,0-1-.47s-.83-.17-.93,0a.43.43,0,0,0,.15.52c.14.09.48.12.62.21a1.36,1.36,0,0,1,.23.8,10.26,10.26,0,0,1-2.46-.39s-.7-.2-.92-.29-.75-.33-.75-.33-.81-.33-.9-.07.59.65,1.28,1a13,13,0,0,1,1.54.77c0,.2-1.39-.09-1.39-.09a4.2,4.2,0,0,0-.9-.32c-.35-.24-1-.45-1.08-.13a5.26,5.26,0,0,0,.79.62s.58.25.85.39a14.54,14.54,0,0,0,1.58.51c.28.12.15.17.16.2a7,7,0,0,1-.91-.19,5.42,5.42,0,0,1-.89-.19,5.82,5.82,0,0,0-.93-.26c-.7-.15-.67.32,0,.57l.77.29c1,.39,2,.52,2,.64a7.67,7.67,0,0,1-1.84-.19s-1,.1-.11.46a8.13,8.13,0,0,0,2,.51,7.46,7.46,0,0,0,2.16.23c.7-.08,1.69-.23,2.16-.3Z"/><path id="Path_2134" data-name="Path 2134" class="cls-8" d="M262.07,125.86l-4.78.71s.26,4.07.2,4.54c0,0-8.41,2.94-11.86,3.74l-.34,2.83c.67-.13,1.22-.3,1.55-.35l11.06-1.62s4.13-.78,4.38-1.51S262.07,125.86,262.07,125.86Z"/></g><path id="Path_2135" data-name="Path 2135" class="cls-9" d="M257.66,112.21s1.6.76,3,4c1.34,3.1,2.39,14.1,2.39,14.1l-6.78.59-1.86-4.2a13.27,13.27,0,0,1,1.37-13.18C256.53,112.53,257.21,111.92,257.66,112.21Z"/><path id="Path_2136" data-name="Path 2136" class="cls-22" d="M242.87,132.45l0,.18.21,1.54s-.71-.28-.78-.44-.55-1-.53-1.07a2.16,2.16,0,0,1,.27-.33,2.12,2.12,0,0,1,.5-.05Z"/></g></g></svg>