<svg id="Layer_1" data-name="Layer 1" xmlns="http://www.w3.org/2000/svg" viewBox="0 0 426.23 229.62"><defs><style>.cls-1{fill:#8aa4d5;}.cls-2{fill:#b64a3f;}.cls-3{fill:#fab17d;}.cls-4{fill:#ef9e68;}.cls-5{fill:#fff;}.cls-6{fill:#22356b;}.cls-7{fill:#1b2e59;}.cls-8{fill:#eaf2fb;}.cls-9{fill:#c7dcf2;}.cls-10{fill:#2a478c;}.cls-11{fill:#224077;}.cls-12{fill:#35488c;}.cls-13{fill:#b2c1e3;}.cls-14{fill:#c75447;}.cls-15{fill:#a63d38;}.cls-16{fill:#a8c4e7;}.cls-17{fill:#e9945b;}.cls-18{fill:#efdece;}.cls-19{fill:#294e97;}.cls-20{fill:#fcecdb;}.cls-21{fill:#aa453e;}.cls-22{fill:#ca4c43;}.cls-23{fill:#719ad1;}.cls-24{fill:#5d8bc8;}.cls-25{fill:#f4d2b8;}.cls-26{fill:#5d8ac7;}.cls-27{fill:#b6463c;}.cls-28{fill:#f89747;}.cls-29{fill:#ec7d29;}</style></defs><g id="Group_2182" data-name="Group 2182"><g id="Group_2175" data-name="Group 2175"><g id="Group_2174" data-name="Group 2174"><g id="Group_2173" data-name="Group 2173"><g id="Group_2171" data-name="Group 2171"><path id="Path_5084" data-name="Path 5084" class="cls-1" d="M88.36,140.92h-.12a.69.69,0,0,1-.68-.48l-7.68-32.89h0l-.56-2.4,2.63-.11.86,4.48,5.92,30.94a.4.4,0,0,1-.35.45Z"/></g><g id="Group_2172" data-name="Group 2172"><path id="Path_5085" data-name="Path 5085" class="cls-1" d="M49.31,105.16l-1.26,5.41-7,29.88a.69.69,0,0,1-.68.48h-.12a.4.4,0,0,1-.37-.43v0l6.31-33,.47-2.43Z"/></g><path id="Path_5086" data-name="Path 5086" class="cls-1" d="M49.31,105.16l-1.26,5.41a4,4,0,0,0-1.84-3.09l.47-2.43Z"/><path id="Path_5087" data-name="Path 5087" class="cls-1" d="M82.8,109.52a4.35,4.35,0,0,0-2.92-2h0l-.56-2.39L82,105Z"/></g><path id="Rectangle_681" data-name="Rectangle 681" class="cls-1" d="M45.41,95.94H80.82a4.73,4.73,0,0,1,4.73,4.73h0a4.73,4.73,0,0,1-4.73,4.73H45.41a4.73,4.73,0,0,1-4.73-4.73h0a4.74,4.74,0,0,1,4.73-4.73Z"/></g><path id="Rectangle_682" data-name="Rectangle 682" class="cls-1" d="M51.18,58.48h24a11.3,11.3,0,0,1,11.3,11.3V87.64a11.3,11.3,0,0,1-11.3,11.3h-24a11.31,11.31,0,0,1-11.31-11.3h0V69.78a11.31,11.31,0,0,1,11.31-11.3Z"/></g><path id="Path_5088" data-name="Path 5088" class="cls-2" d="M64.18,27.05s-5.11-1.94-8.06.5-5,15-3.95,17.35,3.95,3.75,3.95,3.75a4.83,4.83,0,0,1-.39-2.46s.84,2.71,3.08,3.23,10.24-.12,11.79-.77c1.79-.76,2.8-1.54,3.25-3.75S76.1,23.17,64.18,27.05Z"/><path id="Path_5089" data-name="Path 5089" class="cls-3" d="M77.28,87.74A64,64,0,0,0,73,74.8c2.32-9.65,0-20.5,0-20.5a27.36,27.36,0,0,0-3.9-.74c-.17-.86-.64-3.45-.84-5.68,0-.26,0-.52,0-.76a11.91,11.91,0,0,1,0-1.69l-1.64.11L59.75,46h-.29s0,.6,0,1.5a21.44,21.44,0,0,1-.65,6.08c-2.9.3-4.86.72-4.86.72-1.9.32-1.5,12,2,21.13,1.63,4.19-3,10.67-3,12.31S77.67,89.93,77.28,87.74Z"/><path id="Path_5090" data-name="Path 5090" class="cls-4" d="M68.19,47.88a6.25,6.25,0,0,1-4.26,2.36c-2.65,0-4.42-2.73-4.42-2.73A11.3,11.3,0,0,1,59.74,46l6.75-.44c.57.5,1.12,1,1.65,1.58C68.15,47.36,68.17,47.62,68.19,47.88Z"/><path id="Rectangle_683" data-name="Rectangle 683" class="cls-3" d="M61.7,31.93h4a4.51,4.51,0,0,1,4.5,4.5v5.88a6.37,6.37,0,0,1-6.37,6.36h0A6.68,6.68,0,0,1,57.2,42h0V36.43A4.51,4.51,0,0,1,61.7,31.93Z"/><path id="Path_5091" data-name="Path 5091" class="cls-5" d="M61.68,44.52s.14.88,2.3.91c0,0,1.82,0,1.84-.93A5.85,5.85,0,0,0,61.68,44.52Z"/><path id="Path_5092" data-name="Path 5092" class="cls-6" d="M45.74,98.57s4.49-10.39,8.6-12.42,20.48-.23,22.93,1.59,5.6,10.83,5.6,10.83Z"/><path id="Path_5093" data-name="Path 5093" class="cls-7" d="M49.83,98.57s1.6-6.23,5.17-6.5,8.31,3,10,2.13,4.92-3.11,7.92-2.54,7.5,6.91,7.5,6.91Z"/><g id="Group_2178" data-name="Group 2178"><path id="Path_5094" data-name="Path 5094" class="cls-3" d="M69.36,137.43l-4.24.3s-2.37-6.65-5-14.41c-.25-.73-.5-1.46-.75-2.21-2.2-6.47-4.45-13.35-5.6-17.61-.27-1-.48-1.94-.63-2.79-1.28-7.36,2-8.17,2.81-8.36s6.19-3,9.79,6.46a68,68,0,0,1,3.14,20.52C68.79,127.43,69.36,137.43,69.36,137.43Z"/><path id="Path_5095" data-name="Path 5095" class="cls-8" d="M69.36,137.43l-4.25.93L64,138.6a158.27,158.27,0,0,0-4.69-17.49,19.54,19.54,0,0,0,9.1-1.76C69.31,128.32,69.36,137.43,69.36,137.43Z"/><path id="Path_5096" data-name="Path 5096" class="cls-9" d="M65.11,138.36,64,138.6a158.27,158.27,0,0,0-4.69-17.49,19,19,0,0,0,5.57-.53S63.48,133.58,65.11,138.36Z"/><g id="Group_2177" data-name="Group 2177"><path id="Path_5097" data-name="Path 5097" class="cls-6" d="M70.31,139.77c.06.2.11.38.15.55a.69.69,0,0,1-.5.83h0L65,142.21a.68.68,0,0,1-.81-.51,9.48,9.48,0,0,1-.16-3.1.7.7,0,0,1,.33-.5,6.19,6.19,0,0,1,4.6-1,.66.66,0,0,1,.4.29A10.35,10.35,0,0,1,70.31,139.77Z"/><g id="Group_2176" data-name="Group 2176"><path id="Path_5098" data-name="Path 5098" class="cls-6" d="M69.13,137.31a3.07,3.07,0,0,0-2.51-.67,3,3,0,0,0-2.35,1.56l-.22.3a3.31,3.31,0,0,1,2.54-2.14,3.07,3.07,0,0,1,2.77,1.07Z"/></g><path id="Path_5099" data-name="Path 5099" class="cls-6" d="M70.31,139.77c.06.2.11.38.15.55a.69.69,0,0,1-.5.83h0L65,142.21a.68.68,0,0,1-.81-.51c-.07-.31-.12-.62-.16-.94,0,0,.57,1,3.57.36C69.41,140.7,70.07,140.15,70.31,139.77Z"/></g></g><path id="Path_5100" data-name="Path 5100" class="cls-10" d="M84.67,79.82l-6.84.12c-.53-1.2-1.44-5.16-2.34-7.56.33,1.46.66,3,1,4.46,1.21,5.76,2.12,11.18,2,12.34-.32,2.65-10.65,1.46-13.31.82s-8.72.82-13.56.73c-2.79-.06-1.93-7.81-.7-14.38.29-1.58.61-3.09.9-4.4-1.57,3.11-2.28,7-2.66,8,0,0-6.68-.43-6.69-.45-.22-1.18,2.3-19.89,7.42-23.72a9.71,9.71,0,0,1,7.37-2s1.68,3,6.54,3.22a9.22,9.22,0,0,0,7.45-3.1s4,.1,5.7,1.88S82.15,63.92,84.67,79.82Z"/><path id="Path_5101" data-name="Path 5101" class="cls-11" d="M78.44,89.18c-.32,2.65-10.65,1.46-13.31.82s-8.72.82-13.56.73c-2.79-.06-1.93-7.81-.7-14.38,0,0,5.25,9.19,11.79,9.12s13.81-8.63,13.81-8.63C77.67,82.6,78.58,88,78.44,89.18Z"/><path id="Path_5102" data-name="Path 5102" class="cls-5" d="M59.25,51.83s2.28,4.47,4.5,5.17c0,0-3.15,1.19-7.75-3.31A3.79,3.79,0,0,1,59.25,51.83Z"/><path id="Path_5103" data-name="Path 5103" class="cls-5" d="M68.81,51.83S66,56.3,63.75,57c0,0,3.72,1.19,8.32-3.31A3.79,3.79,0,0,0,68.81,51.83Z"/><circle id="Ellipse_59" data-name="Ellipse 59" class="cls-12" cx="63.79" cy="56.99" r="0.36"/><path id="Path_5104" data-name="Path 5104" class="cls-11" d="M63.06,66.18a.69.69,0,1,1,.69.69h0A.69.69,0,0,1,63.06,66.18Z"/><path id="Path_5105" data-name="Path 5105" class="cls-11" d="M63.06,77.23a.69.69,0,1,1,.69.69h0A.69.69,0,0,1,63.06,77.23Z"/><path id="Path_5106" data-name="Path 5106" class="cls-3" d="M79,80.38,80.09,96h3.39s2.66-16.33.82-16.83S79,80.38,79,80.38Z"/><path id="Path_5107" data-name="Path 5107" class="cls-3" d="M83.55,99.43c.37-.22.26-1.26-.09-1.52a4.54,4.54,0,0,0-3.67-.83c-1.8.51-.72,4.23.63,4.29C81.4,101.42,82.68,99.94,83.55,99.43Z"/><path id="Path_5108" data-name="Path 5108" class="cls-3" d="M83.48,96l0,2.65c-.44,0-2.9.87-3.66-.13-.3-.4.25-1.43.29-2.52C80.19,92.74,83.48,96,83.48,96Z"/><path id="Path_5109" data-name="Path 5109" class="cls-11" d="M77.83,79.94s-.43,2.3.63,2.63,6.44.5,6.77,0-.13-4.37-.93-4.65S78.33,78.69,77.83,79.94Z"/><path id="Path_5110" data-name="Path 5110" class="cls-3" d="M47.94,80.38,46.85,96h-3.4s-2.65-16.33-.81-16.83S47.94,80.38,47.94,80.38Z"/><path id="Path_5111" data-name="Path 5111" class="cls-3" d="M43.39,99.43c-.38-.22-.27-1.26.08-1.52a4.55,4.55,0,0,1,3.67-.83c1.81.51.72,4.23-.62,4.29C45.53,101.42,44.25,99.94,43.39,99.43Z"/><path id="Path_5112" data-name="Path 5112" class="cls-3" d="M43.45,96l0,2.65c.43,0,2.89.87,3.65-.13.3-.4-.25-1.43-.28-2.52C46.75,92.74,43.45,96,43.45,96Z"/><path id="Path_5113" data-name="Path 5113" class="cls-11" d="M49.11,79.94s.43,2.3-.63,2.63-6.44.5-6.78,0,.13-4.37.94-4.65S48.61,78.69,49.11,79.94Z"/><path id="Path_5114" data-name="Path 5114" class="cls-2" d="M64.6,32.81s1,3.58,3.59,4.59c0,0-1.2-2.06-.77-3.07,0,0,1.15,4,2.82,5.43,0,0,2.4-8.38-4.42-8.8s-9.55,3.15-9.6,5.72a10.65,10.65,0,0,0,1,4.55s.75-4.76,3.74-6.15S64.6,32.81,64.6,32.81Z"/><g id="Group_2181" data-name="Group 2181"><path id="Path_5115" data-name="Path 5115" class="cls-3" d="M71.68,121.12c-2.72,9-5.6,17.4-5.6,17.4l-4.86-1s1-9.22,1.15-17.86c0-.68.62-13.9,1.16-18.06,1.33-10.23,5.4-9.6,6.29-9.47s6.88-.42,6.57,9.73C76.28,105.15,74,113.33,71.68,121.12Z"/><path id="Path_5116" data-name="Path 5116" class="cls-5" d="M71.68,121.12c-1.55,5.09-3.14,10-4.24,13.3-.83,2.52-1.36,4.1-1.36,4.1l-5.17-.94s.38-7.9,1.46-17.91c.67.39,2.22.9,5.41,1.21C68.88,121,70.17,121.07,71.68,121.12Z"/><g id="Group_2180" data-name="Group 2180"><path id="Path_5117" data-name="Path 5117" class="cls-12" d="M66.1,141.37c0,.2,0,.4-.07.56a.69.69,0,0,1-.77.59h0l-5-.85a.69.69,0,0,1-.57-.78,9.56,9.56,0,0,1,1-2.94.67.67,0,0,1,.49-.34,6.19,6.19,0,0,1,4.63.82.66.66,0,0,1,.27.42A10.62,10.62,0,0,1,66.1,141.37Z"/><g id="Group_2179" data-name="Group 2179"><path id="Path_5118" data-name="Path 5118" class="cls-12" d="M65.91,138.65a3.09,3.09,0,0,0-2.08-1.56,3,3,0,0,0-2.76.58l-.32.2a3.3,3.3,0,0,1,3.16-1,3.07,3.07,0,0,1,2.17,2Z"/></g><path id="Path_5119" data-name="Path 5119" class="cls-12" d="M66.1,141.37c0,.2,0,.4-.07.56a.69.69,0,0,1-.77.59h0l-5-.85a.69.69,0,0,1-.57-.78c.05-.31.12-.62.2-.93,0,0,.14,1.18,3.18,1.65C64.91,141.9,65.73,141.63,66.1,141.37Z"/></g></g></g><g id="Group_2183" data-name="Group 2183"><rect id="Rectangle_684" data-name="Rectangle 684" class="cls-10" x="16.29" y="92.6" width="4.63" height="62.94"/><path id="Rectangle_685" data-name="Rectangle 685" class="cls-13" d="M13.53,86.18H115.62a3.21,3.21,0,0,1,3.2,3.21h0a3.21,3.21,0,0,1-3.2,3.21H13.53a3.21,3.21,0,0,1-3.21-3.21h0a3.21,3.21,0,0,1,3.21-3.21Z"/><rect id="Rectangle_686" data-name="Rectangle 686" class="cls-10" x="110.1" y="92.6" width="4.63" height="62.94"/><rect id="Rectangle_687" data-name="Rectangle 687" class="cls-13" x="16.11" y="102.8" width="98.63" height="24.06"/></g><g id="Group_2194" data-name="Group 2194"><g id="Group_2192" data-name="Group 2192"><g id="Group_2187" data-name="Group 2187"><g id="Group_2186" data-name="Group 2186"><g id="Group_2184" data-name="Group 2184"><path id="Path_5120" data-name="Path 5120" class="cls-1" d="M268.43,141.88h-.12a.65.65,0,0,1-.64-.46l-7.29-31.22h0l-.53-2.27,2.49-.11.82,4.26,5.62,29.36a.4.4,0,0,1-.34.43Z"/></g><g id="Group_2185" data-name="Group 2185"><path id="Path_5121" data-name="Path 5121" class="cls-1" d="M231.36,107.94l-1.2,5.14-6.62,28.35a.66.66,0,0,1-.65.46h-.11a.38.38,0,0,1-.35-.41v0l6-31.3.45-2.31Z"/></g><path id="Path_5122" data-name="Path 5122" class="cls-1" d="M231.36,107.94l-1.2,5.14a3.75,3.75,0,0,0-1.74-2.94l.45-2.31Z"/><path id="Path_5123" data-name="Path 5123" class="cls-1" d="M263.15,112.09a4.16,4.16,0,0,0-2.77-1.88h0l-.53-2.27,2.49-.11Z"/></g><path id="Rectangle_688" data-name="Rectangle 688" class="cls-1" d="M227.66,99.19h33.61a4.49,4.49,0,0,1,4.49,4.49h0a4.48,4.48,0,0,1-4.49,4.48H227.66a4.48,4.48,0,0,1-4.49-4.48h0A4.49,4.49,0,0,1,227.66,99.19Z"/></g><rect id="Rectangle_689" data-name="Rectangle 689" class="cls-1" x="223.49" y="63.63" width="44.23" height="38.41" rx="10.73"/><path id="Path_5124" data-name="Path 5124" class="cls-7" d="M246,27.64s-6.7-1.43-10.82,1.61-1.34,10.28-2.95,12.16-3.48,2.59-1.61,6.35-1.87,4.78-1.87,7.49,3.9,3.51,4,5.92,12.27,4.65,17.45,4.74,11.18-6.15,11.89-7.37,2.6-6.67,0-9.44-.53-6.53-1.51-8.67-4.74-3.4-4.12-5.19S255.76,25.67,246,27.64Z"/><path id="Path_5125" data-name="Path 5125" class="cls-3" d="M259.2,88.44A62.57,62.57,0,0,0,255,75.73c2.28-9.48,0-20.14,0-20.14a27.78,27.78,0,0,0-3.83-.72c-.16-.85-.62-3.39-.82-5.58,0-.26,0-.5-.05-.75a11.36,11.36,0,0,1,0-1.65l-1.61.1-6.63.43-.28,0s0,.59.05,1.48a21.07,21.07,0,0,1-.63,6c-2.85.29-4.78.7-4.78.7-1.87.31-1.48,11.81,2,20.75,1.6,4.11-2.93,10.48-2.93,12.09S259.59,90.59,259.2,88.44Z"/><path id="Path_5126" data-name="Path 5126" class="cls-4" d="M250.28,49.29a6.14,6.14,0,0,1-4.19,2.31c-2.6,0-4.34-2.68-4.34-2.68a10.73,10.73,0,0,1,.23-1.49l6.63-.44c.56.49,1.1,1,1.62,1.55C250.24,48.78,250.26,49,250.28,49.29Z"/><path id="Path_5127" data-name="Path 5127" class="cls-3" d="M246,50.06h0a6.57,6.57,0,0,1-6.55-6.55V38a4.43,4.43,0,0,1,4.42-4.41h4A4.43,4.43,0,0,1,252.3,38v5.77A6.27,6.27,0,0,1,246,50.06Z"/><path id="Path_5128" data-name="Path 5128" class="cls-5" d="M243.88,46s.14.87,2.27.9c0,0,1.78,0,1.8-.91A5.76,5.76,0,0,0,243.88,46Z"/><path id="Path_5129" data-name="Path 5129" class="cls-7" d="M246.28,31.84s-.57,6.77-6.61,8.22-.77-11.43,3.3-10.45S246.28,31.84,246.28,31.84Z"/><path id="Path_5130" data-name="Path 5130" class="cls-7" d="M245.56,31.84s.57,6.77,6.6,8.22.77-11.43-3.3-10.45S245.56,31.84,245.56,31.84Z"/><path id="Path_5131" data-name="Path 5131" class="cls-6" d="M228.22,99.08s4.41-10.21,8.45-12.2,20.12-.22,22.53,1.57,5.5,10.64,5.5,10.64Z"/><path id="Path_5132" data-name="Path 5132" class="cls-7" d="M232.25,99.08s1.57-6.12,5.07-6.39,8.17,3,9.83,2.1,4.83-3.06,7.77-2.5,7.37,6.79,7.37,6.79Z"/><path id="Path_5133" data-name="Path 5133" class="cls-3" d="M247.94,137.66l-4.17.06s-2-6.66-4.12-14.42c-.2-.73-.41-1.46-.61-2.2-1.79-6.48-3.6-13.35-4.49-17.59-.21-1-.36-1.94-.46-2.77-.84-7.29,2.45-7.9,3.23-8s6.24-2.62,9.23,6.89c1,3.2,2,12,1.51,20.29C247.54,127.82,247.94,137.66,247.94,137.66Z"/><path id="Path_5134" data-name="Path 5134" class="cls-3" d="M257.7,120.35c-1.74,9-3.69,17.57-3.69,17.57l-4.84-.48s0-9.11-.71-17.56c-.06-.67-.82-13.65-.73-17.77C248,92,252,92.17,252.91,92.22s6.67-1.12,7.41,8.82C260.56,104.27,259.21,112.49,257.7,120.35Z"/><path id="Path_5135" data-name="Path 5135" class="cls-5" d="M257.7,120.35c-1,5.12-2,10.09-2.77,13.43-.55,2.54-.92,4.14-.92,4.14l-5.13-.39s-.45-7.76-.42-17.65c.69.32,2.26.65,5.41.63C255,120.5,256.22,120.45,257.7,120.35Z"/><g id="Group_2189" data-name="Group 2189"><path id="Path_5136" data-name="Path 5136" class="cls-12" d="M254.35,140.61v.56a.67.67,0,0,1-.69.65h0l-4.95-.32a.68.68,0,0,1-.63-.7,9.3,9.3,0,0,1,.68-3,.67.67,0,0,1,.44-.38,6.1,6.1,0,0,1,4.61.33.6.6,0,0,1,.3.38A10.25,10.25,0,0,1,254.35,140.61Z"/><g id="Group_2188" data-name="Group 2188"><path id="Path_5137" data-name="Path 5137" class="cls-12" d="M253.89,138a3,3,0,0,0-2.19-1.31,2.93,2.93,0,0,0-2.64.85l-.29.23a3.26,3.26,0,0,1,3-1.35,3,3,0,0,1,2.33,1.75Z"/></g><path id="Path_5138" data-name="Path 5138" class="cls-6" d="M254.35,140.61v.56a.67.67,0,0,1-.69.65h0l-4.95-.32a.68.68,0,0,1-.63-.7c0-.31,0-.63.1-.94,0,0,.26,1.14,3.28,1.3C253.25,141.25,254,140.9,254.35,140.61Z"/></g><path id="Path_5139" data-name="Path 5139" class="cls-5" d="M247.94,137.66l-4.22.67-1.08.17a156.75,156.75,0,0,0-3.6-17.41,19.15,19.15,0,0,0,9-1.21C248.41,128.72,247.94,137.66,247.94,137.66Z"/><g id="Group_2191" data-name="Group 2191"><path id="Path_5140" data-name="Path 5140" class="cls-12" d="M248.74,140c0,.2.08.38.11.55a.67.67,0,0,1-.53.78h0l-4.9.76a.67.67,0,0,1-.76-.55,9.25,9.25,0,0,1,0-3.06A.62.62,0,0,1,243,138a6.1,6.1,0,0,1,4.57-.68.62.62,0,0,1,.38.31A10.11,10.11,0,0,1,248.74,140Z"/><g id="Group_2190" data-name="Group 2190"><path id="Path_5141" data-name="Path 5141" class="cls-12" d="M247.72,137.54a3,3,0,0,0-2.42-.81,3,3,0,0,0-2.4,1.4l-.23.28a3.22,3.22,0,0,1,2.61-1.95,3,3,0,0,1,2.66,1.2Z"/></g><path id="Path_5142" data-name="Path 5142" class="cls-6" d="M248.73,140c.05.2.08.38.12.55a.67.67,0,0,1-.54.78h0l-4.9.75a.66.66,0,0,1-.76-.54,7.3,7.3,0,0,1-.1-.94s.5,1.06,3.47.56C247.8,140.87,248.48,140.36,248.73,140Z"/></g><path id="Path_5143" data-name="Path 5143" class="cls-14" d="M268.29,84l-5.78-2.88-1.74-.87c-.51-1.17-2.25-4.83-3.33-6.93.33,1.44.66,2.93,1,4.38,1.19,5.66,2.09,11,2,12.13-.32,2.6-10.47,1.43-13.08.8s-8.56.8-13.32.71c-2.74-.05-1.9-7.67-.69-14.12.29-1.55.6-3,.88-4.32-1.53,3-3.12,6.28-3.5,7.3L227.37,82l-3.72,2s0,0,0,0c-.22-1.16,3.58-23.07,8.61-26.82a9.52,9.52,0,0,1,7.24-2s1.65,2.94,6.42,3.16a9.05,9.05,0,0,0,7.32-3.05s4,.1,5.6,1.85S268.12,73.51,268.29,84Z"/><path id="Path_5144" data-name="Path 5144" class="cls-2" d="M260.35,89.86c-.32,2.6-10.47,1.43-13.08.8s-8.56.8-13.32.71c-2.74-.05-1.9-7.67-.69-14.12,0,0,5.15,9,11.58,9s13.56-8.48,13.56-8.48C259.59,83.4,260.49,88.72,260.35,89.86Z"/><path id="Path_5145" data-name="Path 5145" class="cls-5" d="M241.5,53.17s2.24,4.39,4.42,5.08c0,0-3.1,1.17-7.62-3.25A3.71,3.71,0,0,1,241.5,53.17Z"/><path id="Path_5146" data-name="Path 5146" class="cls-5" d="M250.89,53.17s-2.8,4.39-5,5.08c0,0,3.65,1.17,8.17-3.25A3.7,3.7,0,0,0,250.89,53.17Z"/><path id="Path_5147" data-name="Path 5147" class="cls-5" d="M233.24,81.91l-1.61,1.41-3.41,3.07A4.25,4.25,0,0,1,223.48,84a8.79,8.79,0,0,1,3.3-2.93,15.25,15.25,0,0,1,2.7-1.13,2.41,2.41,0,0,1,2.42.59Z"/><path id="Path_5148" data-name="Path 5148" class="cls-5" d="M268.29,84s-2.08,2.78-7.75,2.38l-1-3.6L258,81.19l1.48-.9a2.93,2.93,0,0,1,2.31-.34,16.41,16.41,0,0,1,1.91.63A9.55,9.55,0,0,1,268.29,84Z"/><path id="Path_5149" data-name="Path 5149" class="cls-12" d="M245.6,58.23a.36.36,0,1,1,.71,0,.35.35,0,0,1-.35.35h0A.35.35,0,0,1,245.6,58.23Z"/><path id="Path_5150" data-name="Path 5150" class="cls-15" d="M245.24,67.26a.68.68,0,1,1,.68.68.67.67,0,0,1-.68-.68Z"/><path id="Path_5151" data-name="Path 5151" class="cls-15" d="M245.24,78.12a.68.68,0,1,1,.68.68.68.68,0,0,1-.68-.68Z"/></g><g id="Group_2193" data-name="Group 2193"><rect id="Rectangle_690" data-name="Rectangle 690" class="cls-10" x="206.23" y="92.74" width="4.55" height="61.82"/><rect id="Rectangle_691" data-name="Rectangle 691" class="cls-13" x="200.37" y="86.44" width="106.58" height="6.3" rx="3.15"/><rect id="Rectangle_692" data-name="Rectangle 692" class="cls-10" x="298.38" y="92.74" width="4.55" height="61.82"/><rect id="Rectangle_693" data-name="Rectangle 693" class="cls-13" x="206.05" y="102.76" width="96.88" height="23.63"/></g><path id="Path_5152" data-name="Path 5152" class="cls-4" d="M259.27,80.83l-11.48,3.28v2.32s14.3.55,15.07-.53c.58-.82.27-2.45-.09-3.27A3.14,3.14,0,0,0,259.27,80.83Z"/><path id="Path_5153" data-name="Path 5153" class="cls-4" d="M247.79,84.11a46.76,46.76,0,0,0-4.88.41,20.58,20.58,0,0,0-2.43,1.93h7.31Z"/><path id="Path_5154" data-name="Path 5154" class="cls-3" d="M230.65,80.83l11.81,3.28-.32,2.32s-14.77.7-15.33-.51a5.15,5.15,0,0,1,.35-3.3A3.13,3.13,0,0,1,230.65,80.83Z"/><path id="Path_5155" data-name="Path 5155" class="cls-3" d="M242.46,84.11a36.37,36.37,0,0,1,4.3.41,30,30,0,0,1,2.69,1.93h-7.31Z"/></g><g id="Group_2210" data-name="Group 2210"><g id="Group_2205" data-name="Group 2205"><g id="Group_2204" data-name="Group 2204"><g id="Group_2202" data-name="Group 2202"><path id="Path_5169" data-name="Path 5169" class="cls-16" d="M194,204.58h-.17a.94.94,0,0,1-.95-.67l-10.75-46h0l-.78-3.35,3.67-.16,1.2,6.27L194.53,204a.55.55,0,0,1-.49.62Z"/></g><g id="Group_2203" data-name="Group 2203"><path id="Path_5170" data-name="Path 5170" class="cls-16" d="M139.39,154.55l-1.77,7.58-9.77,41.79a.94.94,0,0,1-.94.67h-.17a.57.57,0,0,1-.52-.61v0l8.84-46.14.65-3.41Z"/></g><path id="Path_5171" data-name="Path 5171" class="cls-16" d="M139.39,154.55l-1.77,7.58a5.56,5.56,0,0,0-2.56-4.33l.65-3.41Z"/><path id="Path_5172" data-name="Path 5172" class="cls-16" d="M186.24,160.66a6.09,6.09,0,0,0-4.09-2.75h0l-.78-3.35,3.67-.16Z"/></g><path id="Rectangle_698" data-name="Rectangle 698" class="cls-16" d="M133.93,141.66h49.54a6.61,6.61,0,0,1,6.61,6.61h0a6.62,6.62,0,0,1-6.62,6.62H133.93a6.61,6.61,0,0,1-6.61-6.62h0A6.61,6.61,0,0,1,133.93,141.66Z"/></g><path id="Rectangle_699" data-name="Rectangle 699" class="cls-16" d="M143.6,89.25h33.55A15.82,15.82,0,0,1,193,105.07v25a15.82,15.82,0,0,1-15.82,15.82H143.6A15.82,15.82,0,0,1,127.78,130h0v-25A15.82,15.82,0,0,1,143.6,89.25Z"/><path id="Path_5173" data-name="Path 5173" class="cls-12" d="M169.77,63.13s3.43-5.2,4.26-6.54c2.49-4,2.9-20.93-13.36-18.47,0,0-5.61-1.52-9.5,1.18-4.11,2.85-8.12,12.52.53,23.83Z"/><path id="Path_5174" data-name="Path 5174" class="cls-3" d="M180.42,126.64c-1.6-8.81-6.27-18.86-6.27-18.86,3.39-14-.07-29.86-.07-29.86a39,39,0,0,0-5.68-1.08c-.24-1.26-.92-5-1.21-8.28,0-.38-.06-.75-.09-1.1a18.36,18.36,0,0,1,0-2.46l-2.39.16-9.82.64-.42,0s.06.87.07,2.19a31.12,31.12,0,0,1-.94,8.86c-4.23.43-7.09,1-7.09,1-2.77.47-2.19,17.53,3,30.79,2.38,6.1-4.35,15.55-4.35,17.93S181,129.83,180.42,126.64Z"/><path id="Path_5175" data-name="Path 5175" class="cls-4" d="M167.19,68.56C166.26,69.64,163.93,72,161,72c-3.86.07-6.44-4-6.44-4a16.77,16.77,0,0,1,.34-2.22l9.83-.64a30.63,30.63,0,0,1,2.4,2.3C167.13,67.81,167.15,68.18,167.19,68.56Z"/><path id="Path_5176" data-name="Path 5176" class="cls-3" d="M160.9,69.71h0A9.75,9.75,0,0,1,151.17,60v-8.1a6.57,6.57,0,0,1,6.56-6.55h5.9a6.57,6.57,0,0,1,6.55,6.55v8.55A9.3,9.3,0,0,1,160.9,69.71Z"/><path id="Path_5177" data-name="Path 5177" class="cls-12" d="M161.24,42.68s-.84,10-9.8,12.19-1.14-17,4.9-15.5S161.24,42.68,161.24,42.68Z"/><path id="Path_5178" data-name="Path 5178" class="cls-12" d="M160.18,42.68s.84,10,9.8,12.19,1.14-17-4.9-15.5S160.18,42.68,160.18,42.68Z"/><path id="Path_5179" data-name="Path 5179" class="cls-6" d="M134.46,142.43S141,127.28,147,124.33s29.84-.33,33.42,2.32,8.16,15.78,8.16,15.78Z"/><path id="Path_5180" data-name="Path 5180" class="cls-7" d="M140.43,142.43s2.33-9.09,7.53-9.48,12.12,4.4,14.58,3.11,7.16-4.53,11.53-3.71S185,142.43,185,142.43Z"/><path id="Path_5181" data-name="Path 5181" class="cls-3" d="M163.71,199.67l-6.2.07s-2.9-9.67-6.1-21c-.3-1.05-.6-2.12-.91-3.2-2.65-9.41-5.34-19.4-6.66-25.57-.32-1.47-.54-2.81-.68-4-1.24-10.6,3.63-11.48,4.79-11.69s9.25-3.81,13.7,10c1.5,4.66,3,17.5,2.24,29.5C163.12,185.36,163.71,199.67,163.71,199.67Z"/><path id="Path_5182" data-name="Path 5182" class="cls-3" d="M178.19,174.49c-2.58,13.12-5.47,25.55-5.47,25.55l-7.18-.7S164.08,159,163.41,148c-.9-14.7,6.36-14.44,7.68-14.37s9.9-1.63,11,12.82C182.43,151.13,180.43,163.07,178.19,174.49Z"/><path id="Path_5183" data-name="Path 5183" class="cls-5" d="M178.19,174c-1.46,7.6-3,15-4.11,19.92-.82,3.77-1.36,6.15-1.36,6.15l-7.62-.59s-.66-11.5-.62-26.18c1,.47,3.35,1,8,.94C174.11,174.2,176,174.13,178.19,174Z"/><g id="Group_2207" data-name="Group 2207"><path id="Path_5184" data-name="Path 5184" class="cls-2" d="M173.23,204c0,.3,0,.58,0,.83a1,1,0,0,1-1,1h0l-7.35-.48a1,1,0,0,1-.93-1,13.74,13.74,0,0,1,1-4.42,1,1,0,0,1,.65-.57c3.73-1,6,0,6.84.48a.9.9,0,0,1,.44.57A15,15,0,0,1,173.23,204Z"/><g id="Group_2206" data-name="Group 2206"><path id="Path_5185" data-name="Path 5185" class="cls-2" d="M172.54,200.12a4.44,4.44,0,0,0-3.25-1.94,4.35,4.35,0,0,0-3.91,1.27l-.43.33c.07-.08,1.75-2.45,4.41-2a4.46,4.46,0,0,1,3.47,2.6Z"/></g><path id="Path_5186" data-name="Path 5186" class="cls-2" d="M173.23,204c0,.3,0,.58,0,.83a1,1,0,0,1-1,1h0l-7.35-.47a1,1,0,0,1-.93-1c0-.46.08-.93.15-1.39,0,0,.38,1.69,4.86,1.92C171.59,205,172.74,204.46,173.23,204Z"/></g><path id="Path_5187" data-name="Path 5187" class="cls-5" d="M163.71,199.66l-6.26,1-1.6.26a231.61,231.61,0,0,0-5.35-25.83,28.6,28.6,0,0,0,13.39-1.8C164.4,186.39,163.71,199.66,163.71,199.66Z"/><g id="Group_2209" data-name="Group 2209"><path id="Path_5188" data-name="Path 5188" class="cls-2" d="M164.89,203.14c.07.3.12.56.17.81a1,1,0,0,1-.8,1.17h0L157,206.25a1,1,0,0,1-1.13-.81,13.57,13.57,0,0,1,0-4.54,1,1,0,0,1,.52-.7c3.43-1.74,5.87-1.29,6.78-1a1,1,0,0,1,.56.47A15,15,0,0,1,164.89,203.14Z"/><g id="Group_2208" data-name="Group 2208"><path id="Path_5189" data-name="Path 5189" class="cls-2" d="M163.38,199.47a4.42,4.42,0,0,0-3.59-1.2,4.37,4.37,0,0,0-3.55,2.08l-.35.42c.05-.09,1.17-2.78,3.88-2.9a4.47,4.47,0,0,1,3.94,1.79Z"/></g><path id="Path_5190" data-name="Path 5190" class="cls-2" d="M164.89,203.14c.07.3.12.56.17.81a1,1,0,0,1-.8,1.17h0L157,206.25a1,1,0,0,1-1.13-.81,13.15,13.15,0,0,1-.16-1.39s.74,1.57,5.16.82C163.5,204.42,164.51,203.66,164.89,203.14Z"/></g><path id="Path_5191" data-name="Path 5191" class="cls-14" d="M193.89,120.1l-8.56-4.28-2.58-1.29c-.77-1.73-3.34-7.16-4.94-10.27.49,2.14,1,4.34,1.42,6.5,1.76,8.4,3.09,16.3,2.89,18-.48,3.85-15.53,2.12-19.4,1.19S150,131.13,143,131c-4.06-.08-2.81-11.38-1-21,.43-2.3.89-4.5,1.32-6.42-2.28,4.54-4.64,9.33-5.19,10.84L133.2,117l-5.51,2.9a.19.19,0,0,1,0-.07c-.33-1.73,5.3-34.22,12.76-39.79a14.1,14.1,0,0,1,10.75-2.9s2.45,4.36,9.53,4.69a13.45,13.45,0,0,0,10.85-4.53s5.91.15,8.3,2.74S193.66,104.49,193.89,120.1Z"/><path id="Path_5192" data-name="Path 5192" class="cls-2" d="M182.12,128.75c-.48,3.85-15.53,2.11-19.4,1.19S150,131.13,143,131c-4.06-.07-2.81-11.37-1-21,0,0,7.65,13.39,17.18,13.3s20.12-12.58,20.12-12.58C181,119.16,182.32,127.05,182.12,128.75Z"/><path id="Path_5193" data-name="Path 5193" class="cls-17" d="M183.26,114.47S168.85,124.89,162.2,128l1.11,4.17s20.66-4.09,30.34-12.36Z"/><path id="Path_5194" data-name="Path 5194" class="cls-17" d="M162.2,128s-4.95-1.53-6.48-.67-3.65,4.78-2.19,4.84,9.78,0,9.78,0Z"/><path id="Path_5195" data-name="Path 5195" class="cls-5" d="M154.16,74.32s3.32,6.52,6.55,7.53c0,0-4.6,1.74-11.29-4.82A5.49,5.49,0,0,1,154.16,74.32Z"/><path id="Path_5196" data-name="Path 5196" class="cls-5" d="M168.09,74.32s-4.15,6.52-7.38,7.53c0,0,5.43,1.74,12.13-4.82A5.51,5.51,0,0,0,168.09,74.32Z"/><path id="Path_5197" data-name="Path 5197" class="cls-3" d="M138.06,114.47s14.41,10.42,21.05,13.57L158,132.21s-20.65-4.09-30.34-12.36Z"/><path id="Path_5198" data-name="Path 5198" class="cls-3" d="M159.11,128s5-1.53,6.49-.67,3.64,4.78,2.19,4.84-9.79,0-9.79,0Z"/><path id="Path_5199" data-name="Path 5199" class="cls-5" d="M141.91,117l-2.4,2.09-6.19,5.39c-3.42-.26-5.9-4.33-5.9-4.33a13.08,13.08,0,0,1,4.9-4.35,22.92,22.92,0,0,1,6.14-2.23Z"/><path id="Path_5200" data-name="Path 5200" class="cls-5" d="M193.89,120.1s-2.47,4.07-5.9,4.33l-7-6.13L179.4,117l2.93-3.33a24.37,24.37,0,0,1,4.75,1.37C189.52,116,192.31,117.57,193.89,120.1Z"/><path id="Path_5201" data-name="Path 5201" class="cls-12" d="M160.25,81.83a.52.52,0,0,1,.52-.52.52.52,0,0,1,.53.52.53.53,0,0,1-.53.53h0A.52.52,0,0,1,160.25,81.83Z"/><path id="Path_5202" data-name="Path 5202" class="cls-15" d="M159.7,95.23a1,1,0,1,1,1,1A1,1,0,0,1,159.7,95.23Z"/><path id="Path_5203" data-name="Path 5203" class="cls-15" d="M159.7,111.33a1,1,0,1,1,1,1A1,1,0,0,1,159.7,111.33Z"/><path id="Path_5204" data-name="Path 5204" class="cls-12" d="M152.08,64.07s-1.57,4.46-7.57,5.65-5.19,8.13-5.19,8.13,1.06-3.29,2.53-3.52c0,0-2.94,6.87-.16,11.7s3.81,9,3.17,10.21c0,0,6.4-3.59,6.31-8.09s-.16-10.46,1.47-11.53c0,0,2-.63,1.52-2.3a73.71,73.71,0,0,1-.75-8.14A20.82,20.82,0,0,1,152.08,64.07Z"/><path id="Path_5205" data-name="Path 5205" class="cls-5" d="M157.25,64.42s.12,1.28,3.23,1.5c0,0,2.6.2,2.71-1.17A8.4,8.4,0,0,0,157.25,64.42Z"/></g><g id="Group_2221" data-name="Group 2221"><rect id="Rectangle_706" data-name="Rectangle 706" class="cls-10" x="90.25" y="120.8" width="6.54" height="88.77"/><path id="Rectangle_707" data-name="Rectangle 707" class="cls-1" d="M86.36,111.75h144a4.52,4.52,0,0,1,4.52,4.53h0a4.52,4.52,0,0,1-4.52,4.52h-144a4.52,4.52,0,0,1-4.52-4.52h0A4.52,4.52,0,0,1,86.36,111.75Z"/><rect id="Rectangle_708" data-name="Rectangle 708" class="cls-10" x="222.57" y="120.8" width="6.53" height="88.77"/><rect id="Rectangle_709" data-name="Rectangle 709" class="cls-1" x="90" y="135.19" width="139.1" height="33.93"/></g><g id="Group_2226" data-name="Group 2226"><g id="Group_2225" data-name="Group 2225"><g id="Group_2224" data-name="Group 2224"><g id="Group_2222" data-name="Group 2222"><path id="Path_5238" data-name="Path 5238" class="cls-16" d="M376.41,209.44l-.17,0a1,1,0,0,1-.95-.68l-10.74-46h0l-.79-3.35,3.68-.16,1.2,6.27,8.29,43.28a.56.56,0,0,1-.5.62Z"/></g><g id="Group_2223" data-name="Group 2223"><path id="Path_5239" data-name="Path 5239" class="cls-16" d="M321.78,159.42,320,167l-9.76,41.79a1,1,0,0,1-.95.68l-.17,0a.55.55,0,0,1-.51-.6v0l8.83-46.14.66-3.41Z"/></g><path id="Path_5240" data-name="Path 5240" class="cls-16" d="M321.78,159.42,320,167a5.53,5.53,0,0,0-2.56-4.32l.66-3.41Z"/><path id="Path_5241" data-name="Path 5241" class="cls-16" d="M368.64,165.53a6.11,6.11,0,0,0-4.1-2.75h0l-.78-3.35,3.68-.16Z"/></g><path id="Rectangle_710" data-name="Rectangle 710" class="cls-16" d="M316.32,146.53h49.54a6.61,6.61,0,0,1,6.61,6.61h0a6.61,6.61,0,0,1-6.61,6.61H316.32a6.61,6.61,0,0,1-6.61-6.61h0A6.61,6.61,0,0,1,316.32,146.53Z"/></g><path id="Rectangle_711" data-name="Rectangle 711" class="cls-16" d="M326,94.12h33.55a15.82,15.82,0,0,1,15.82,15.81h0v25a15.82,15.82,0,0,1-15.82,15.82H326a15.82,15.82,0,0,1-15.82-15.82h0v-25A15.81,15.81,0,0,1,326,94.12Z"/><path id="Path_5242" data-name="Path 5242" class="cls-6" d="M330.05,210s-.06-7.43,3.23-8,8.06-2.36,8.72,8Z"/><path id="Path_5243" data-name="Path 5243" class="cls-6" d="M347,210s-.06-7.43,3.23-8,8.06-2.36,8.73,8Z"/><path id="Path_5244" data-name="Path 5244" class="cls-7" d="M324.57,130.68a50.33,50.33,0,0,0-3.76,14h46.45s-4.26-13.59-8.07-15.1S324.57,130.68,324.57,130.68Z"/><path id="Path_5245" data-name="Path 5245" class="cls-12" d="M333.93,61.26s-3.11-6.6-5-11.79c-2.26-6.19,1.36-14.72,13.9-14.22,0,0,4.07-.07,5.39-.88,0,0-.34,1.43-.76,1.74,0,0,9.94.64,9.8,5.09-.46,13.61-3.89,17.94-3.89,17.94Z"/><path id="Path_5246" data-name="Path 5246" class="cls-3" d="M364,128.53c-1.63-9-6.41-19.29-6.41-19.29,3.47-14.38-.07-30.55-.07-30.55a41,41,0,0,0-5.81-1.1c-.24-1.28-.95-5.14-1.24-8.47,0-.38-.06-.76-.09-1.13a19.11,19.11,0,0,1,0-2.51l-2.44.16-10.05.66-.43,0s.06.89.08,2.24a32.17,32.17,0,0,1-1,9.06c-4.32.45-7.25,1.07-7.25,1.07-2.83.48-2.24,17.93,3.05,31.48,2.44,6.25-4.44,15.91-4.44,18.35S364.55,131.79,364,128.53Z"/><path id="Path_5247" data-name="Path 5247" class="cls-4" d="M350.42,69.13c-.94,1.1-3.32,3.46-6.35,3.51-3.95.07-6.59-4.07-6.59-4.07a16,16,0,0,1,.35-2.27l12-1.81c.47.3.39,2.39.5,3.5C350.36,68.36,350.39,68.74,350.42,69.13Z"/><path id="Path_5248" data-name="Path 5248" class="cls-3" d="M343.89,69.34h0a10,10,0,0,1-10-9.94V51.11a6.73,6.73,0,0,1,6.7-6.7h6a6.73,6.73,0,0,1,6.7,6.7v8.75A9.51,9.51,0,0,1,343.89,69.34Z"/><path id="Path_5249" data-name="Path 5249" class="cls-5" d="M340.6,63.17s.21,1.31,3.44,1.36c0,0,2.71,0,2.73-1.39A8.63,8.63,0,0,0,340.6,63.17Z"/><path id="Path_5250" data-name="Path 5250" class="cls-14" d="M377.74,121.84,369,117.46l-2.64-1.32c-.78-1.77-3.42-7.32-5-10.5.37,1.59.73,3.22,1.07,4.84.13.6.26,1.2.38,1.81,1.8,8.58,3.17,16.66,2.95,18.4-.48,3.93-15.87,2.16-19.84,1.21s-13,1.22-20.21,1.08c-4.15-.07-2.87-11.63-1.05-21.42.44-2.35.91-4.6,1.35-6.57-2.34,4.65-4.75,9.55-5.31,11.09l-5,2.62-5.49,2.89-.15.07a.19.19,0,0,1,0-.07h0c-.33-1.79,5.43-35,13.06-40.7.23-.19.46-.37.71-.54a14.63,14.63,0,0,1,10.28-2.42s2.51,4.46,9.75,4.8a13.76,13.76,0,0,0,11.09-4.63,19.16,19.16,0,0,1,6.3,1.31,6.68,6.68,0,0,1,2.19,1.48C365.79,83.5,377.5,105.87,377.74,121.84Z"/><path id="Path_5251" data-name="Path 5251" class="cls-2" d="M365.69,130.68c-.48,3.94-15.87,2.17-19.84,1.22s-13,1.22-20.21,1.08c-4.15-.08-2.87-11.64-1.05-21.43,0,0,7.83,13.7,17.58,13.6s20.57-12.87,20.57-12.87C364.54,120.87,365.91,129,365.69,130.68Z"/><path id="Path_5252" data-name="Path 5252" class="cls-17" d="M366.72,115.74S354.3,129,348.24,133.49l1.93,4s19.2-7.27,27.3-17.46Z"/><path id="Path_5253" data-name="Path 5253" class="cls-17" d="M349.81,132.56s-5.12,1.43-5.95,3-.48,6.13.81,5.37,8.4-5.43,8.4-5.43Z"/><path id="Path_5254" data-name="Path 5254" class="cls-5" d="M337.1,75s3.39,6.66,6.7,7.7c0,0-4.7,1.78-11.55-4.94A5.61,5.61,0,0,1,337.1,75Z"/><path id="Path_5255" data-name="Path 5255" class="cls-5" d="M351.35,75s-4.25,6.66-7.55,7.7c0,0,5.55,1.78,12.4-4.94A5.61,5.61,0,0,0,351.35,75Z"/><path id="Path_5256" data-name="Path 5256" class="cls-3" d="M320.67,115.74s12.94,12.79,19.16,17l-1.77,4s-18.35-6.24-26.84-16.11Z"/><path id="Path_5257" data-name="Path 5257" class="cls-3" d="M335.2,131.63s5.3.36,6.43,1.75,1.72,5.9.3,5.43-9.33-3.61-9.33-3.61Z"/><path id="Path_5258" data-name="Path 5258" class="cls-15" d="M342.77,96.4a1,1,0,1,1,1,1,1,1,0,0,1-1-1Z"/><path id="Path_5259" data-name="Path 5259" class="cls-15" d="M342.77,112.87a1,1,0,1,1,1,1,1,1,0,0,1-1-1Z"/><path id="Path_5260" data-name="Path 5260" class="cls-12" d="M354.34,41.93c-.25-.17-17.64-2.58-17.64-2.58l-4.94,3.51-.75,5,2.92,3.3s.93-3.2,3.11-3.3,9.36,4.15,11.45,2.23,3.55-2.61,4.45-1.27S354.59,42.1,354.34,41.93Z"/><path id="Path_5261" data-name="Path 5261" class="cls-10" d="M344.32,203a21.57,21.57,0,0,1-7.47,1.27,25.31,25.31,0,0,1-9.34-1.72s-2.6-18.2-4.14-33.76c-.89-8.85-1.43-16.85-1-20.16,1.28-9.15,5.45-14.44,10.7-14s10.16,4.08,10.53,8.5S344.32,203,344.32,203Z"/><path id="Path_5262" data-name="Path 5262" class="cls-10" d="M362.26,189.54c-.94,7.54-1.71,13-1.71,13a24.34,24.34,0,0,1-16.8.5s.11-42.86.38-56.22c0-1.84.07-3.12.11-3.66.36-4.41,5.26-8.07,10.5-8.53s9.43,4.82,10.74,14C366.34,154.58,364,175.56,362.26,189.54Z"/><path id="Path_5263" data-name="Path 5263" class="cls-5" d="M327.87,98.08,325.94,105c-2.34,4.64-4.75,9.54-5.31,11.09l-5,2.61-5.49,2.89H310c-.33-1.78,5.43-35,13.06-40.69a6.4,6.4,0,0,1,.71-.55C326.23,85,330.75,94.64,327.87,98.08Z"/><path id="Path_5264" data-name="Path 5264" class="cls-5" d="M324.57,118.61l-2.45,2.14-6.33,5.52c-3.5-.27-6-4.43-6-4.43a13.31,13.31,0,0,1,5-4.45,23.13,23.13,0,0,1,6.29-2.28Z"/><path id="Path_5265" data-name="Path 5265" class="cls-5" d="M377.74,121.84l-5.12-2.56L369,117.46l-2.64-1.32c-.78-1.77-3.42-7.32-5-10.5.37,1.59.73,3.22,1.07,4.85l-3.8-14.09c-1.68-2.48,1.88-14.55,2.63-17a6.68,6.68,0,0,1,2.19,1.48,45.74,45.74,0,0,1,4.55,7.84h0C372.16,97.3,377.58,111,377.74,121.84Z"/><path id="Path_5266" data-name="Path 5266" class="cls-5" d="M377.74,121.84s-2.53,4.16-6,4.43l-7.2-6.27-1.59-1.39,3-3.4a24.7,24.7,0,0,1,4.85,1.4C373.27,117.61,376.12,119.25,377.74,121.84Z"/><path id="Path_5267" data-name="Path 5267" class="cls-11" d="M362.26,189.54c-.94,7.54-1.71,13-1.71,13a24.34,24.34,0,0,1-16.8.5s.11-42.86.38-56.22c.3-1.3.47-2.07.5-2.17C344.57,145.53,342,184.13,362.26,189.54Z"/><path id="Path_5268" data-name="Path 5268" class="cls-11" d="M336.85,204.31a25.31,25.31,0,0,1-9.34-1.72s-2.6-18.2-4.14-33.76C323.45,169.26,328.84,195.42,336.85,204.31Z"/></g><g id="Group_2227" data-name="Group 2227"><rect id="Rectangle_712" data-name="Rectangle 712" class="cls-10" x="270.87" y="119.19" width="6.54" height="88.77"/><path id="Rectangle_713" data-name="Rectangle 713" class="cls-1" d="M264.81,110.14h144a4.52,4.52,0,0,1,4.52,4.52h0a4.52,4.52,0,0,1-4.52,4.53h-144a4.53,4.53,0,0,1-4.53-4.53h0A4.52,4.52,0,0,1,264.81,110.14Z"/><rect id="Rectangle_714" data-name="Rectangle 714" class="cls-10" x="403.18" y="119.19" width="6.54" height="88.77"/><rect id="Rectangle_715" data-name="Rectangle 715" class="cls-1" x="270.61" y="133.58" width="139.1" height="33.93"/></g><g id="Group_2255" data-name="Group 2255"><g id="Group_2253" data-name="Group 2253"><g id="Group_2251" data-name="Group 2251"><rect id="Rectangle_727" data-name="Rectangle 727" class="cls-18" x="99.1" y="106.92" width="18.68" height="3.14"/><path id="Path_5313" data-name="Path 5313" class="cls-19" d="M118.18,109.73H90.06L90,106.92h28.18a.17.17,0,0,0,.17-.16h0a.18.18,0,0,0-.18-.17h-29a.58.58,0,0,0-.49.28,2.82,2.82,0,0,0,.18,3.2h29.3a.19.19,0,0,0,.19-.19A.15.15,0,0,0,118.18,109.73Z"/><path id="Path_5314" data-name="Path 5314" class="cls-20" d="M107.51,109.73l-18.1,0a.58.58,0,0,1-.58-.57h0v-1.91a.35.35,0,0,1,.35-.35h18.33Z"/><path id="Path_5315" data-name="Path 5315" class="cls-18" d="M102.11,108.43l5.4-.05v.19Z"/><path id="Path_5316" data-name="Path 5316" class="cls-18" d="M105.57,109.09l1.94-.1v.12Z"/></g><g id="Group_2252" data-name="Group 2252"><rect id="Rectangle_728" data-name="Rectangle 728" class="cls-18" x="96.29" y="103.45" width="16.5" height="3.14"/><path id="Path_5317" data-name="Path 5317" class="cls-21" d="M113.15,106.25H88.31l-.08-2.8h24.91a.15.15,0,0,0,.14-.16h0a.16.16,0,0,0-.15-.17H87.5a.51.51,0,0,0-.44.29,3.1,3.1,0,0,0,.16,3.19h25.89a.18.18,0,0,0,.17-.19.14.14,0,0,0-.13-.15Z"/><path id="Path_5318" data-name="Path 5318" class="cls-20" d="M103.73,106.26h-16a.55.55,0,0,1-.51-.57v-1.91a.32.32,0,0,1,.31-.34h16.2Z"/><path id="Path_5319" data-name="Path 5319" class="cls-18" d="M99,105l4.78,0v.18Z"/><path id="Path_5320" data-name="Path 5320" class="cls-18" d="M102,105.61l1.72-.1v.13Z"/></g></g><g id="Group_2254" data-name="Group 2254"><path id="Path_5321" data-name="Path 5321" class="cls-22" d="M102.66,108.43a1.91,1.91,0,0,0-.53.22.73.73,0,0,0-.38.6.22.22,0,0,1,0,.14h-1.5a.61.61,0,0,0,.08-.3.66.66,0,0,1,.15-.43,1,1,0,0,1,.26-.23Z"/><path id="Path_5322" data-name="Path 5322" class="cls-21" d="M101.73,109.39c-.11.27-.57.34-.57.34l-.53-.13-.76.13a1,1,0,0,0,.36-.34Z"/><path id="Path_5323" data-name="Path 5323" class="cls-21" d="M102.66,108.43a1.91,1.91,0,0,0-.53.22h-1.67a.88.88,0,0,1,.25-.22Z"/></g></g><g id="Group_2277" data-name="Group 2277"><g id="Group_2268" data-name="Group 2268"><g id="Group_2267" data-name="Group 2267"><path id="Rectangle_732" data-name="Rectangle 732" class="cls-20" d="M367.06,101.6h13.2a2.38,2.38,0,0,1,2.38,2.38h0a2.43,2.43,0,0,1-2.43,2.43H367.06V101.6Z"/><path id="Path_5340" data-name="Path 5340" class="cls-23" d="M394.26,103.58v.72a2.1,2.1,0,0,1-2.11,2.11h-25.5a.31.31,0,0,1-.31-.31V106a.31.31,0,0,1,.31-.3h15.54a1.46,1.46,0,0,0,.22-.33,2,2,0,0,0,.23-.92v-.92a2,2,0,0,0-.42-1.2H366.65a.3.3,0,0,1-.31-.3v-.11a.31.31,0,0,1,.31-.31h25.64a2,2,0,0,1,2,2Z"/><path id="Path_5341" data-name="Path 5341" class="cls-24" d="M394.19,103H382.58a1.91,1.91,0,0,0-.36-.71H366.65a.31.31,0,0,1-.31-.31v-.1a.31.31,0,0,1,.31-.31h25.64A2,2,0,0,1,394.19,103Z"/></g><path id="Path_5342" data-name="Path 5342" class="cls-25" d="M367.06,104l1.89.09-1.89,0Z"/><path id="Path_5343" data-name="Path 5343" class="cls-25" d="M367.06,104.76l4.5.08-4.5,0Z"/></g><g id="Group_2272" data-name="Group 2272"><g id="Group_2270" data-name="Group 2270"><g id="Group_2269" data-name="Group 2269"><path id="Path_5344" data-name="Path 5344" class="cls-10" d="M370.31,110.14H384.8V106.4H370.19a1.81,1.81,0,0,0-1.81,1.81h0a1.93,1.93,0,0,0,1.93,1.93Z"/><path id="Rectangle_733" data-name="Rectangle 733" class="cls-20" d="M400.46,110.14H384a1.9,1.9,0,0,1-1.9-1.89h0a1.85,1.85,0,0,1,1.85-1.85h16.53v3.74Z"/><path id="Path_5345" data-name="Path 5345" class="cls-10" d="M381,110.14h20a.28.28,0,0,0,.28-.28h0a.27.27,0,0,0-.28-.28H381a.28.28,0,0,0-.28.28h0a.29.29,0,0,0,.28.28Z"/><path id="Path_5346" data-name="Path 5346" class="cls-10" d="M381,107h20a.28.28,0,0,0,.28-.28h0a.27.27,0,0,0-.28-.28H381a.28.28,0,0,0-.28.28h0a.29.29,0,0,0,.28.28Z"/></g><path id="Path_5347" data-name="Path 5347" class="cls-25" d="M400.46,108.27l-2.23.06,2.23,0Z"/><path id="Path_5348" data-name="Path 5348" class="cls-25" d="M400.46,107.41l-5.3.06,5.3,0Z"/></g><g id="Group_2271" data-name="Group 2271"><path id="Path_5349" data-name="Path 5349" class="cls-23" d="M395.21,107.46a.79.79,0,0,1,.3.42.4.4,0,0,1,0,.15c0,.35,0,1.15,0,1.15l.67-.4.67.4V108.1a.9.9,0,0,0-.17-.53.27.27,0,0,0-.18-.11Z"/><path id="Path_5350" data-name="Path 5350" class="cls-26" d="M395.21,107.46a.79.79,0,0,1,.3.42l1.35,0s-.05-.38-.33-.44Z"/></g></g><g id="Group_2276" data-name="Group 2276"><g id="Group_2274" data-name="Group 2274"><g id="Group_2273" data-name="Group 2273"><path id="Rectangle_734" data-name="Rectangle 734" class="cls-20" d="M397.09,101.61H382.86a2.77,2.77,0,0,1-2.77-2.78h0a2.71,2.71,0,0,1,2.71-2.71h14.29v5.49Z"/><path id="Path_5351" data-name="Path 5351" class="cls-27" d="M380.43,98.25v1.18a1.38,1.38,0,0,0,.7,1.18,1.36,1.36,0,0,0,.68.18h16.08a.34.34,0,0,1,.34.34h0v.14a.34.34,0,0,1-.34.34H370.11a2.35,2.35,0,0,1-2.35-2.35h0v-.93A2.21,2.21,0,0,1,370,96.12h27.92a.34.34,0,0,1,.34.34h0v.14a.34.34,0,0,1-.34.34H381.76a1.29,1.29,0,0,0-1,.43A1.31,1.31,0,0,0,380.43,98.25Z"/></g><path id="Path_5352" data-name="Path 5352" class="cls-25" d="M397.09,98.86,395,99l2.06.06Z"/><path id="Path_5353" data-name="Path 5353" class="cls-25" d="M397.09,97.6l-4.9.09,4.9.06Z"/></g><g id="Group_2275" data-name="Group 2275"><path id="Path_5354" data-name="Path 5354" class="cls-28" d="M392.23,97.67a1.06,1.06,0,0,1,.43.46.53.53,0,0,1,0,.16c0,.38,0,1.25,0,1.25l.95-.44,1,.44V98.37a.78.78,0,0,0-.24-.58.42.42,0,0,0-.26-.12Z"/><path id="Path_5355" data-name="Path 5355" class="cls-29" d="M392.23,97.67a1.06,1.06,0,0,1,.43.46l1.92,0a.61.61,0,0,0-.47-.48Z"/></g></g></g><g id="Group_2284" data-name="Group 2284"><g id="Group_2279" data-name="Group 2279"><g id="Group_2278" data-name="Group 2278"><path id="Rectangle_735" data-name="Rectangle 735" class="cls-20" d="M277.94,80.11h9.75a1.76,1.76,0,0,1,1.76,1.75h0a1.8,1.8,0,0,1-1.8,1.8h-9.71V80.11Z"/><path id="Path_5356" data-name="Path 5356" class="cls-23" d="M298,81.57v.54a1.54,1.54,0,0,1-1.55,1.55H277.63a.22.22,0,0,1-.23-.22h0v-.08a.23.23,0,0,1,.23-.23h11.49a1.46,1.46,0,0,0,.33-.92v-.68a1.49,1.49,0,0,0-.05-.36,1.54,1.54,0,0,0-.26-.53H277.63a.23.23,0,0,1-.23-.23h0v-.08a.22.22,0,0,1,.23-.22h18.94A1.46,1.46,0,0,1,298,81.57Z"/><path id="Path_5357" data-name="Path 5357" class="cls-24" d="M298,81.17H289.4a1.4,1.4,0,0,0-.27-.53h-11.5a.23.23,0,0,1-.23-.23h0v-.08a.22.22,0,0,1,.23-.22h18.94A1.47,1.47,0,0,1,298,81.17Z"/></g><path id="Path_5358" data-name="Path 5358" class="cls-25" d="M277.94,81.88l1.4.06-1.4,0Z"/><path id="Path_5359" data-name="Path 5359" class="cls-25" d="M277.94,82.44l3.32.06-3.32,0Z"/></g><g id="Group_2283" data-name="Group 2283"><g id="Group_2281" data-name="Group 2281"><g id="Group_2280" data-name="Group 2280"><path id="Path_5360" data-name="Path 5360" class="cls-10" d="M280.33,86.42H291V83.65h-10.8A1.34,1.34,0,0,0,278.9,85h0a1.43,1.43,0,0,0,1.43,1.43Z"/><path id="Rectangle_736" data-name="Rectangle 736" class="cls-20" d="M302.62,86.42H290.43A1.4,1.4,0,0,1,289,85h0a1.37,1.37,0,0,1,1.37-1.37h12.22v2.77Z"/><path id="Path_5361" data-name="Path 5361" class="cls-10" d="M288.22,86.42H303a.21.21,0,0,0,.21-.21h0A.22.22,0,0,0,303,86H288.22a.21.21,0,0,0-.2.21h0a.2.2,0,0,0,.2.21Z"/><path id="Path_5362" data-name="Path 5362" class="cls-10" d="M288.22,84.07H303a.22.22,0,0,0,.21-.21h0a.22.22,0,0,0-.21-.21H288.22a.2.2,0,0,0-.2.21h0a.21.21,0,0,0,.2.21Z"/></g><path id="Path_5363" data-name="Path 5363" class="cls-25" d="M302.62,85l-1.65,0,1.65,0Z"/><path id="Path_5364" data-name="Path 5364" class="cls-25" d="M302.62,84.4l-3.92,0,3.92,0Z"/></g><g id="Group_2282" data-name="Group 2282"><path id="Path_5365" data-name="Path 5365" class="cls-23" d="M298.74,84.44a.68.68,0,0,1,.22.31.43.43,0,0,1,0,.11c0,.26,0,.85,0,.85l.5-.3.5.3v-.8a.64.64,0,0,0-.13-.4.22.22,0,0,0-.13-.08Z"/><path id="Path_5366" data-name="Path 5366" class="cls-26" d="M298.74,84.44a.68.68,0,0,1,.22.31h1s0-.28-.25-.32Z"/></g></g></g></svg>