<svg id="Layer_1" data-name="Layer 1" xmlns="http://www.w3.org/2000/svg" xmlns:xlink="http://www.w3.org/1999/xlink" viewBox="0 0 426.23 229.62"><defs><style>.cls-1{fill:none;}.cls-2{fill:#8f99cd;}.cls-3{fill:#c1c8e6;}.cls-4{fill:#dce2f3;}.cls-5{fill:#fff;}.cls-6{fill:#eef1f9;}.cls-7{fill:#fae8e4;}.cls-8{fill:#eb7873;}.cls-9{clip-path:url(#clip-path);}.cls-10{fill:#b85d59;}.cls-11{fill:#37327f;}.cls-12{fill:#f5ccc4;}.cls-13{clip-path:url(#clip-path-2);}.cls-14{fill:#302f6d;}.cls-15{fill:#f1cac4;}.cls-16{clip-path:url(#clip-path-3);}.cls-17{fill:#c69e9b;}.cls-18{fill:#d46a67;}.cls-19{fill:#5656a5;}.cls-20{clip-path:url(#clip-path-4);}</style><clipPath id="clip-path"><path class="cls-1" d="M276.67,108.26s.33,13-5.75,11.14c-5.49-1.71-6.46-9.57-5.15-12.8S276.69,99.37,276.67,108.26Z"/></clipPath><clipPath id="clip-path-2"><path class="cls-1" d="M289.4,126.81l.83-1.12a3.35,3.35,0,0,1,2-1.28l3.36-.74.4.83a5,5,0,0,1,.36,3.35l-.27,1.08-4.67.2Z"/></clipPath><clipPath id="clip-path-3"><path class="cls-1" d="M337.09,82.15s-.33,13,5.75,11.14c5.49-1.71,6.46-9.57,5.16-12.8S337.08,73.26,337.09,82.15Z"/></clipPath><clipPath id="clip-path-4"><path class="cls-1" d="M196.25,78S193.44,91.51,198,89.12s8.22-6.35,8-9.47S198.75,70.4,196.25,78Z"/></clipPath></defs><g id="Group_2527" data-name="Group 2527"><path id="Path_6277" data-name="Path 6277" class="cls-2" d="M45.72,225H386S392.74,72.1,351.1,37.6C316.75,9.14,272.65,1.38,217.41,2c-48,.58-98.25-3.17-146.72,43.55S45.72,225,45.72,225Z"/><path id="Path_6278" data-name="Path 6278" class="cls-3" d="M387.44,226.75H38.58c-.87,0-1.59-1.16-1.59-2.6h0c0-1.44.71-2.6,1.59-2.6H387.44c.88,0,1.6,1.16,1.6,2.6h0C389,225.59,388.32,226.75,387.44,226.75Z"/></g><g id="Group_2528" data-name="Group 2528"><rect id="Rectangle_768" data-name="Rectangle 768" class="cls-4" x="63.41" y="145.23" width="267.17" height="76.51"/><path id="Path_6279" data-name="Path 6279" class="cls-3" d="M339.7,150.26H54.29a2.51,2.51,0,0,1-2.52-2.51h0a2.52,2.52,0,0,1,2.52-2.52H339.7a2.51,2.51,0,0,1,2.51,2.52h0A2.51,2.51,0,0,1,339.7,150.26Z"/></g><path id="Path_6280" data-name="Path 6280" class="cls-5" d="M127.74,145.21h8L132,142.8V136a3.47,3.47,0,0,0,3.23-3.47v-8.76h-7v8.76a3.47,3.47,0,0,0,3.23,3.47v6.79Z"/><g id="Group_2538" data-name="Group 2538"><g id="Group_2531" data-name="Group 2531"><path id="Path_6281" data-name="Path 6281" class="cls-3" d="M162.6,178.88H131.67a2.54,2.54,0,0,1-2.54-2.53h0a2.54,2.54,0,0,1,2.54-2.54H162.6a2.54,2.54,0,0,1,2.54,2.54h0a2.53,2.53,0,0,1-2.54,2.53Z"/><g id="Group_2529" data-name="Group 2529"><path id="Path_6282" data-name="Path 6282" class="cls-3" d="M147.14,212.33a.57.57,0,0,1-.58-.57h0V178.88a.57.57,0,0,1,.53-.62.58.58,0,0,1,.62.53v33A.58.58,0,0,1,147.14,212.33Z"/></g><g id="Group_2530" data-name="Group 2530"><path id="Path_6283" data-name="Path 6283" class="cls-3" d="M157.74,222.32a.57.57,0,0,1-.42-.19l-10.18-10.88L137,222.13a.57.57,0,0,1-.82,0,.59.59,0,0,1,0-.82l11-11.79,11,11.79a.58.58,0,0,1,0,.82.58.58,0,0,1-.4.16Z"/></g></g><g id="Group_2534" data-name="Group 2534"><path id="Path_6284" data-name="Path 6284" class="cls-3" d="M214.09,178.88H183.16a2.54,2.54,0,0,1-2.54-2.53h0a2.54,2.54,0,0,1,2.54-2.54h30.93a2.54,2.54,0,0,1,2.54,2.54h0A2.54,2.54,0,0,1,214.09,178.88Z"/><g id="Group_2532" data-name="Group 2532"><path id="Path_6285" data-name="Path 6285" class="cls-3" d="M198.62,212.33a.57.57,0,0,1-.57-.57h0V178.88a.57.57,0,0,1,.53-.62.58.58,0,0,1,.62.53v33A.58.58,0,0,1,198.62,212.33Z"/></g><g id="Group_2533" data-name="Group 2533"><path id="Path_6286" data-name="Path 6286" class="cls-3" d="M209.23,222.32a.57.57,0,0,1-.42-.19l-10.19-10.88-10.18,10.88a.57.57,0,0,1-.82,0,.59.59,0,0,1,0-.82l11-11.79,11,11.79a.59.59,0,0,1,0,.82.58.58,0,0,1-.4.16Z"/></g></g><g id="Group_2537" data-name="Group 2537"><path id="Path_6287" data-name="Path 6287" class="cls-3" d="M317.07,178.88H286.14a2.53,2.53,0,0,1-2.54-2.53h0a2.54,2.54,0,0,1,2.54-2.54h30.93a2.54,2.54,0,0,1,2.54,2.54h0A2.54,2.54,0,0,1,317.07,178.88Z"/><g id="Group_2535" data-name="Group 2535"><path id="Path_6288" data-name="Path 6288" class="cls-3" d="M301.6,212.33a.57.57,0,0,1-.58-.57h0V178.88a.59.59,0,0,1,.53-.62.57.57,0,0,1,.62.53.14.14,0,0,1,0,.09v32.88A.56.56,0,0,1,301.6,212.33Z"/></g><g id="Group_2536" data-name="Group 2536"><path id="Path_6289" data-name="Path 6289" class="cls-3" d="M312.21,222.32a.57.57,0,0,1-.42-.19L301.6,211.25l-10.19,10.88a.56.56,0,0,1-.81,0,.57.57,0,0,1,0-.82l11-11.79,11,11.79a.58.58,0,0,1,0,.82.59.59,0,0,1-.4.16Z"/></g></g></g><g id="Group_2566" data-name="Group 2566"><g id="Group_2539" data-name="Group 2539"><path id="Path_6290" data-name="Path 6290" class="cls-3" d="M330.88,145.23h-.6V35.88H63.71V145.23h-.6v-110H330.89Z"/><rect id="Rectangle_769" data-name="Rectangle 769" class="cls-3" x="63.41" y="74.04" width="267.17" height="0.6"/><rect id="Rectangle_770" data-name="Rectangle 770" class="cls-3" x="63.41" y="110.88" width="267.17" height="0.6"/></g><g id="Group_2540" data-name="Group 2540"><path id="Path_6291" data-name="Path 6291" class="cls-5" d="M315.89,47.53h-8l3.74,2.41v6.78a3.48,3.48,0,0,0-3.23,3.47V69h7V60.19a3.48,3.48,0,0,0-3.23-3.47V49.93Z"/><path id="Path_6292" data-name="Path 6292" class="cls-5" d="M306.23,47.53h-8L302,49.94v6.78a3.48,3.48,0,0,0-3.23,3.47V69h7V60.19a3.48,3.48,0,0,0-3.23-3.47V49.93Z"/><path id="Path_6293" data-name="Path 6293" class="cls-5" d="M296.58,47.53h-8l3.74,2.41v6.78a3.48,3.48,0,0,0-3.23,3.47V69h7V60.19a3.48,3.48,0,0,0-3.23-3.47V49.93Z"/><path id="Path_6294" data-name="Path 6294" class="cls-5" d="M286.92,47.53h-8l3.73,2.41v6.78a3.48,3.48,0,0,0-3.23,3.47V69h7V60.19a3.48,3.48,0,0,0-3.23-3.47V49.93Z"/><rect id="Rectangle_771" data-name="Rectangle 771" class="cls-3" x="276.5" y="49.42" width="54.08" height="1.49"/></g><g id="Group_2544" data-name="Group 2544"><g id="Group_2541" data-name="Group 2541"><path id="Path_6295" data-name="Path 6295" class="cls-5" d="M283.77,93.24V84.09h-2.49v9.15a3.44,3.44,0,0,0-2.18,3.2V111.2H286V96.44A3.44,3.44,0,0,0,283.77,93.24Z"/><path id="Path_6296" data-name="Path 6296" class="cls-5" d="M291.66,93.24V84.09h-2.49v9.15a3.44,3.44,0,0,0-2.18,3.2V111.2h6.85V96.44A3.43,3.43,0,0,0,291.66,93.24Z"/><path id="Path_6297" data-name="Path 6297" class="cls-5" d="M299.55,93.24V84.09h-2.49v9.15a3.44,3.44,0,0,0-2.18,3.2V111.2h6.85V96.44A3.43,3.43,0,0,0,299.55,93.24Z"/><rect id="Rectangle_772" data-name="Rectangle 772" class="cls-6" x="279.82" y="97.65" width="5.19" height="11.36"/><rect id="Rectangle_773" data-name="Rectangle 773" class="cls-6" x="287.82" y="97.65" width="5.19" height="11.36"/><rect id="Rectangle_774" data-name="Rectangle 774" class="cls-6" x="295.82" y="97.65" width="5.19" height="11.36"/></g><g id="Group_2542" data-name="Group 2542"><path id="Path_6298" data-name="Path 6298" class="cls-5" d="M258.46,93.24V84.09H256v9.15a3.44,3.44,0,0,0-2.18,3.2V111.2h6.85V96.44A3.44,3.44,0,0,0,258.46,93.24Z"/><path id="Path_6299" data-name="Path 6299" class="cls-5" d="M266.35,93.24V84.09h-2.49v9.15a3.43,3.43,0,0,0-2.18,3.2V111.2h6.85V96.44A3.44,3.44,0,0,0,266.35,93.24Z"/><path id="Path_6300" data-name="Path 6300" class="cls-5" d="M274.24,93.24V84.09h-2.49v9.15a3.44,3.44,0,0,0-2.18,3.2V111.2h6.85V96.44A3.43,3.43,0,0,0,274.24,93.24Z"/><rect id="Rectangle_775" data-name="Rectangle 775" class="cls-6" x="254.51" y="97.65" width="5.19" height="11.36"/><rect id="Rectangle_776" data-name="Rectangle 776" class="cls-6" x="262.51" y="97.65" width="5.19" height="11.36"/><rect id="Rectangle_777" data-name="Rectangle 777" class="cls-6" x="270.51" y="97.65" width="5.19" height="11.36"/></g><g id="Group_2543" data-name="Group 2543"><path id="Path_6301" data-name="Path 6301" class="cls-5" d="M267.12,60.85l-2.18-1.43-.78-7.76a1.7,1.7,0,1,0-2.38-.28,2.37,2.37,0,0,0,.27.28l-.78,7.76-2.18,1.43a5.83,5.83,0,0,0-2.59,5.37l.71,7.82H269l.71-7.82A5.8,5.8,0,0,0,267.12,60.85Z"/><rect id="Rectangle_778" data-name="Rectangle 778" class="cls-6" x="262.05" y="51.58" width="2.1" height="0.15"/><rect id="Rectangle_779" data-name="Rectangle 779" class="cls-6" x="258.56" y="63.33" width="9.1" height="8.15" rx="3"/></g></g><g id="Group_2552" data-name="Group 2552"><g id="Group_2545" data-name="Group 2545"><path id="Path_6302" data-name="Path 6302" class="cls-5" d="M75.7,89.35V84.49H72.15v4.86A6.38,6.38,0,0,0,67,95.61v9A6.37,6.37,0,0,0,73.34,111h1.17a6.37,6.37,0,0,0,6.37-6.37v-9A6.37,6.37,0,0,0,75.7,89.35Z"/><rect id="Rectangle_780" data-name="Rectangle 780" class="cls-6" x="68.96" y="93.88" width="9.92" height="11.97" rx="2.76"/><rect id="Rectangle_781" data-name="Rectangle 781" class="cls-5" x="71.54" y="84.21" width="4.77" height="1.78"/><rect id="Rectangle_782" data-name="Rectangle 782" class="cls-6" x="72.15" y="85.92" width="3.55" height="0.15"/></g><g id="Group_2546" data-name="Group 2546"><path id="Path_6303" data-name="Path 6303" class="cls-5" d="M90.74,89.35V84.49H87.19v4.86A6.37,6.37,0,0,0,82,95.61v9A6.37,6.37,0,0,0,88.38,111h1.17a6.37,6.37,0,0,0,6.37-6.37v-9A6.38,6.38,0,0,0,90.74,89.35Z"/><rect id="Rectangle_783" data-name="Rectangle 783" class="cls-6" x="84" y="93.88" width="9.92" height="11.97" rx="2.76"/><rect id="Rectangle_784" data-name="Rectangle 784" class="cls-5" x="86.58" y="84.21" width="4.77" height="1.78"/><rect id="Rectangle_785" data-name="Rectangle 785" class="cls-6" x="87.19" y="85.92" width="3.55" height="0.15"/></g><g id="Group_2547" data-name="Group 2547"><path id="Path_6304" data-name="Path 6304" class="cls-5" d="M105.77,89.35V84.49h-3.54v4.86a6.37,6.37,0,0,0-5.18,6.26v9a6.37,6.37,0,0,0,6.37,6.37h1.17a6.37,6.37,0,0,0,6.37-6.37v-9A6.37,6.37,0,0,0,105.77,89.35Z"/><rect id="Rectangle_786" data-name="Rectangle 786" class="cls-6" x="99.04" y="93.88" width="9.92" height="11.97" rx="2.76"/><rect id="Rectangle_787" data-name="Rectangle 787" class="cls-5" x="101.62" y="84.21" width="4.77" height="1.78"/><rect id="Rectangle_788" data-name="Rectangle 788" class="cls-6" x="102.23" y="85.92" width="3.55" height="0.15"/></g><g id="Group_2548" data-name="Group 2548"><path id="Path_6305" data-name="Path 6305" class="cls-5" d="M126.49,94c-.86-1-1-7.16-1.09-10.36h.29V81.35h-3.08v2.29h.29c0,3.19-.22,9.34-1.08,10.36-1.16,1.41-6.68,4.06-5.68,16.85h16C133.17,98.06,127.65,95.41,126.49,94Z"/><rect id="Rectangle_789" data-name="Rectangle 789" class="cls-6" x="122.9" y="83.56" width="2.5" height="0.15"/><rect id="Rectangle_790" data-name="Rectangle 790" class="cls-6" x="119.91" y="98.97" width="8.49" height="9.1"/></g><g id="Group_2549" data-name="Group 2549"><path id="Path_6306" data-name="Path 6306" class="cls-5" d="M144.61,94c-.86-1-1-7.16-1.08-10.36h.29V81.35h-3.08v2.29H141c0,3.19-.23,9.34-1.09,10.36-1.16,1.41-6.68,4.06-5.68,16.85h16C151.29,98.06,145.77,95.41,144.61,94Z"/><rect id="Rectangle_791" data-name="Rectangle 791" class="cls-6" x="141.03" y="83.56" width="2.5" height="0.15"/><rect id="Rectangle_792" data-name="Rectangle 792" class="cls-6" x="138.03" y="98.97" width="8.49" height="9.1"/></g><g id="Group_2551" data-name="Group 2551"><g id="Group_2550" data-name="Group 2550"><path id="Path_6307" data-name="Path 6307" class="cls-5" d="M158.5,92.89V83.74H156v9.15a3.42,3.42,0,0,0-2.19,3.19v14.77h6.86V96.08A3.43,3.43,0,0,0,158.5,92.89Z"/><path id="Path_6308" data-name="Path 6308" class="cls-5" d="M166.39,92.89V83.74H163.9v9.15a3.41,3.41,0,0,0-2.18,3.19v14.77h6.85V96.08A3.43,3.43,0,0,0,166.39,92.89Z"/><path id="Path_6309" data-name="Path 6309" class="cls-5" d="M174.28,92.89V83.74h-2.49v9.15a3.41,3.41,0,0,0-2.18,3.19v14.77h6.85V96.08A3.43,3.43,0,0,0,174.28,92.89Z"/><rect id="Rectangle_793" data-name="Rectangle 793" class="cls-6" x="154.55" y="97.29" width="5.19" height="11.36"/><rect id="Rectangle_794" data-name="Rectangle 794" class="cls-6" x="162.55" y="97.29" width="5.19" height="11.36"/><rect id="Rectangle_795" data-name="Rectangle 795" class="cls-6" x="170.54" y="97.29" width="5.19" height="11.36"/></g><rect id="Rectangle_796" data-name="Rectangle 796" class="cls-6" x="156.01" y="85.24" width="2.49" height="0.15"/><rect id="Rectangle_797" data-name="Rectangle 797" class="cls-6" x="163.9" y="85.24" width="2.49" height="0.15"/><rect id="Rectangle_798" data-name="Rectangle 798" class="cls-6" x="171.79" y="85.24" width="2.49" height="0.15"/></g></g><g id="Group_2565" data-name="Group 2565"><g id="Group_2553" data-name="Group 2553"><path id="Path_6310" data-name="Path 6310" class="cls-5" d="M194.48,53.07V48.21h-3.55v4.86a6.37,6.37,0,0,0-5.18,6.26v9a6.37,6.37,0,0,0,6.37,6.37h1.17a6.37,6.37,0,0,0,6.37-6.37v-9A6.38,6.38,0,0,0,194.48,53.07Z"/><rect id="Rectangle_799" data-name="Rectangle 799" class="cls-6" x="187.74" y="57.6" width="9.92" height="11.97" rx="2.76"/><rect id="Rectangle_800" data-name="Rectangle 800" class="cls-5" x="190.32" y="47.94" width="4.77" height="1.78"/><rect id="Rectangle_801" data-name="Rectangle 801" class="cls-6" x="190.93" y="49.64" width="3.55" height="0.15"/></g><g id="Group_2554" data-name="Group 2554"><path id="Path_6311" data-name="Path 6311" class="cls-5" d="M165.53,60.85l-2.18-1.43-.78-7.76a1.69,1.69,0,1,0-2.1-2.66,1.69,1.69,0,0,0-.28,2.38,1.85,1.85,0,0,0,.28.28l-.79,7.76-2.18,1.43a5.83,5.83,0,0,0-2.59,5.37l.71,7.82h11.8l.71-7.82A5.8,5.8,0,0,0,165.53,60.85Z"/><rect id="Rectangle_802" data-name="Rectangle 802" class="cls-6" x="160.47" y="51.58" width="2.1" height="0.15"/><rect id="Rectangle_803" data-name="Rectangle 803" class="cls-6" x="156.97" y="63.33" width="9.1" height="8.15" rx="3"/></g><g id="Group_2555" data-name="Group 2555"><path id="Path_6312" data-name="Path 6312" class="cls-5" d="M179.82,60.85l-2.18-1.43-.78-7.76a1.69,1.69,0,1,0-2.38-.28,2.47,2.47,0,0,0,.28.28L174,59.42l-2.18,1.43a5.81,5.81,0,0,0-2.59,5.37l.71,7.82h11.79l.71-7.82A5.8,5.8,0,0,0,179.82,60.85Z"/><rect id="Rectangle_804" data-name="Rectangle 804" class="cls-6" x="174.76" y="51.58" width="2.1" height="0.15"/><rect id="Rectangle_805" data-name="Rectangle 805" class="cls-6" x="171.26" y="63.33" width="9.1" height="8.15" rx="3"/></g><g id="Group_2557" data-name="Group 2557"><g id="Group_2556" data-name="Group 2556"><path id="Path_6313" data-name="Path 6313" class="cls-5" d="M75.17,56.39V47.24H72.68v9.15a3.43,3.43,0,0,0-2.18,3.19V74.34h6.85V59.58A3.41,3.41,0,0,0,75.17,56.39Z"/><path id="Path_6314" data-name="Path 6314" class="cls-5" d="M83.06,56.39V47.24H80.57v9.15a3.43,3.43,0,0,0-2.18,3.19V74.34h6.85V59.58A3.41,3.41,0,0,0,83.06,56.39Z"/><path id="Path_6315" data-name="Path 6315" class="cls-5" d="M91,56.39V47.24H88.46v9.15a3.43,3.43,0,0,0-2.18,3.19V74.34h6.86V59.58A3.42,3.42,0,0,0,91,56.39Z"/><rect id="Rectangle_806" data-name="Rectangle 806" class="cls-6" x="71.23" y="60.79" width="5.19" height="11.36"/><rect id="Rectangle_807" data-name="Rectangle 807" class="cls-6" x="79.22" y="60.79" width="5.19" height="11.36"/><rect id="Rectangle_808" data-name="Rectangle 808" class="cls-6" x="87.22" y="60.79" width="5.19" height="11.36"/></g><rect id="Rectangle_809" data-name="Rectangle 809" class="cls-6" x="72.68" y="48.74" width="2.49" height="0.15"/><rect id="Rectangle_810" data-name="Rectangle 810" class="cls-6" x="80.57" y="48.74" width="2.49" height="0.15"/><rect id="Rectangle_811" data-name="Rectangle 811" class="cls-6" x="88.46" y="48.74" width="2.49" height="0.15"/></g><g id="Group_2564" data-name="Group 2564"><g id="Group_2563" data-name="Group 2563"><g id="Group_2558" data-name="Group 2558"><path id="Path_6316" data-name="Path 6316" class="cls-5" d="M103,55.44v-8.2H100.9v8.2c-2.16,1.15-3.77,5.78-3.77,11.34a23.48,23.48,0,0,0,1.1,7.39h7.42a23.48,23.48,0,0,0,1.1-7.39C106.75,61.22,105.13,56.59,103,55.44Z"/><path id="Path_6317" data-name="Path 6317" class="cls-6" d="M98.85,66a15.3,15.3,0,0,0,.59,4.31.46.46,0,0,0,.44.32H104a.44.44,0,0,0,.43-.32A14.61,14.61,0,0,0,105,66a14.22,14.22,0,0,0-.78-4.88.46.46,0,0,0-.43-.3h-3.75a.44.44,0,0,0-.42.3A14.22,14.22,0,0,0,98.85,66Z"/></g><g id="Group_2559" data-name="Group 2559"><path id="Path_6318" data-name="Path 6318" class="cls-5" d="M113.66,55.44v-8.2h-2.07v8.2c-2.16,1.15-3.77,5.78-3.77,11.34a23.48,23.48,0,0,0,1.1,7.39h7.41a22.92,22.92,0,0,0,1.1-7.39C117.43,61.22,115.82,56.59,113.66,55.44Z"/><path id="Path_6319" data-name="Path 6319" class="cls-6" d="M109.54,66a15,15,0,0,0,.59,4.31.45.45,0,0,0,.43.32h4.13a.45.45,0,0,0,.43-.32,14.61,14.61,0,0,0,.59-4.31,14.22,14.22,0,0,0-.78-4.88.46.46,0,0,0-.43-.3h-3.75a.44.44,0,0,0-.42.3A14,14,0,0,0,109.54,66Z"/></g><g id="Group_2560" data-name="Group 2560"><path id="Path_6320" data-name="Path 6320" class="cls-5" d="M124.35,55.44v-8.2h-2.08v8.2c-2.15,1.15-3.77,5.78-3.77,11.34a23.48,23.48,0,0,0,1.1,7.39H127a23.48,23.48,0,0,0,1.1-7.39C128.12,61.22,126.51,56.59,124.35,55.44Z"/><path id="Path_6321" data-name="Path 6321" class="cls-6" d="M120.23,66a14.61,14.61,0,0,0,.59,4.31.44.44,0,0,0,.43.32h4.12a.46.46,0,0,0,.44-.32A15.3,15.3,0,0,0,126.4,66a14.22,14.22,0,0,0-.79-4.88.44.44,0,0,0-.42-.3h-3.75a.46.46,0,0,0-.43.3A14.22,14.22,0,0,0,120.23,66Z"/></g><g id="Group_2561" data-name="Group 2561"><path id="Path_6322" data-name="Path 6322" class="cls-5" d="M135,55.44v-8.2H133v8.2c-2.16,1.15-3.77,5.78-3.77,11.34a23.48,23.48,0,0,0,1.1,7.39h7.42a23.48,23.48,0,0,0,1.1-7.39C138.81,61.22,137.2,56.59,135,55.44Z"/><path id="Path_6323" data-name="Path 6323" class="cls-6" d="M130.91,66a15.3,15.3,0,0,0,.59,4.31.46.46,0,0,0,.44.32h4.12a.44.44,0,0,0,.43-.32,14.61,14.61,0,0,0,.59-4.31,14.22,14.22,0,0,0-.78-4.88.46.46,0,0,0-.42-.3h-3.76a.45.45,0,0,0-.42.3A14.22,14.22,0,0,0,130.91,66Z"/></g><g id="Group_2562" data-name="Group 2562"><path id="Path_6324" data-name="Path 6324" class="cls-5" d="M145.72,55.44v-8.2h-2.07v8.2c-2.16,1.15-3.77,5.78-3.77,11.34a23.48,23.48,0,0,0,1.1,7.39h7.41a23.2,23.2,0,0,0,1.11-7.39C149.49,61.22,147.88,56.59,145.72,55.44Z"/><path id="Path_6325" data-name="Path 6325" class="cls-6" d="M141.6,66a15,15,0,0,0,.59,4.31.45.45,0,0,0,.43.32h4.13a.45.45,0,0,0,.43-.32,14.61,14.61,0,0,0,.59-4.31,14.22,14.22,0,0,0-.78-4.88.46.46,0,0,0-.43-.3h-3.75a.44.44,0,0,0-.42.3A14.22,14.22,0,0,0,141.6,66Z"/></g></g><rect id="Rectangle_812" data-name="Rectangle 812" class="cls-6" x="100.9" y="48.34" width="2.08" height="0.15"/><rect id="Rectangle_813" data-name="Rectangle 813" class="cls-6" x="111.59" y="48.17" width="2.08" height="0.15"/><rect id="Rectangle_814" data-name="Rectangle 814" class="cls-6" x="122.27" y="48.17" width="2.08" height="0.15"/><rect id="Rectangle_815" data-name="Rectangle 815" class="cls-6" x="132.96" y="48.17" width="2.08" height="0.15"/><rect id="Rectangle_816" data-name="Rectangle 816" class="cls-6" x="143.65" y="48.17" width="2.08" height="0.15"/></g></g></g><g id="Group_2583" data-name="Group 2583"><g id="Group_2569" data-name="Group 2569"><path id="Path_6326" data-name="Path 6326" class="cls-3" d="M265.58,178.88H234.64a2.54,2.54,0,0,1-2.54-2.53h0a2.54,2.54,0,0,1,2.54-2.54h30.94a2.54,2.54,0,0,1,2.53,2.54h0A2.53,2.53,0,0,1,265.58,178.88Z"/><g id="Group_2567" data-name="Group 2567"><path id="Path_6327" data-name="Path 6327" class="cls-3" d="M250.11,212.33a.58.58,0,0,1-.58-.57h0V178.88a.58.58,0,0,1,.61-.55.57.57,0,0,1,.55.55v32.88a.58.58,0,0,1-.58.57Z"/></g><g id="Group_2568" data-name="Group 2568"><path id="Path_6328" data-name="Path 6328" class="cls-3" d="M260.72,222.32a.57.57,0,0,1-.42-.19l-10.19-10.88-10.18,10.88a.57.57,0,0,1-.82,0,.58.58,0,0,1,0-.82h0l11-11.79,11,11.79a.58.58,0,0,1,0,.82.59.59,0,0,1-.4.16Z"/></g></g><g id="Group_2582" data-name="Group 2582"><g id="Group_2577" data-name="Group 2577"><path id="Path_6329" data-name="Path 6329" class="cls-7" d="M264,162.7l9.16-24.16a16.5,16.5,0,0,0-5.06-18.67h0a11.31,11.31,0,0,0-15.91,1.69,10.13,10.13,0,0,0-.93,1.35c-4.44,7.47-9.65,19.9-12.8,39.79Z"/><g id="Group_2576" data-name="Group 2576"><g id="Group_2575" data-name="Group 2575"><g id="Group_2574" data-name="Group 2574"><g id="Group_2573" data-name="Group 2573"><g id="Group_2572" data-name="Group 2572"><path id="Path_6330" data-name="Path 6330" class="cls-8" d="M265.59,107.14a117.87,117.87,0,0,1-2.18,12.52,5.18,5.18,0,0,0,3.65,6.13l.15,0c2.91.72,4.9-14.84,4.9-14.84Z"/><g id="Group_2571" data-name="Group 2571"><path id="Path_6331" data-name="Path 6331" class="cls-8" d="M276.67,108.26s.33,13-5.75,11.14c-5.49-1.71-6.46-9.57-5.15-12.8S276.69,99.37,276.67,108.26Z"/><g class="cls-9"><g id="Group_2570" data-name="Group 2570"><path id="Path_6332" data-name="Path 6332" class="cls-10" d="M275.51,111.68c-1.17.55-2.57,0-3.84.2a11.87,11.87,0,0,0-1.82.63,2.7,2.7,0,0,1-1.88.08,2.14,2.14,0,0,1-1.11-1.35,5.69,5.69,0,0,1-.19-1.79,2.64,2.64,0,0,1,.15-1,2.31,2.31,0,0,1,1.4-1.08,13.82,13.82,0,0,1,3.41-.83c1.13-.15,2.26-.18,3.39-.24.58,0,1.45-.18,1.89.31a1.79,1.79,0,0,1,.3,1.12,6.51,6.51,0,0,1-.14,1.53,3.39,3.39,0,0,1-1.29,2.23Z"/></g></g></g></g><path id="Path_6334" data-name="Path 6334" class="cls-10" d="M270.6,119.32s-2.94-1.69-3.6-3.95a8.42,8.42,0,0,0,3,6.19S270.43,120.07,270.6,119.32Z"/></g></g></g></g><path id="Path_6335" data-name="Path 6335" class="cls-11" d="M268.63,109.34a5.6,5.6,0,0,0-1.88,2c-2.5,4.06-1.64,9.23-1.87,14a9.22,9.22,0,0,1-.76,3.65,4,4,0,0,1-2.79,2.29,3.18,3.18,0,0,1-3.54-2.78.28.28,0,0,1,0-.09,6.68,6.68,0,0,0-3.18.31c-1.06.2-2.37.08-2.9-.85-.73-1.27.57-3,0-4.3-.38-.8-1.3-1.15-1.9-1.8a2.69,2.69,0,0,1,.39-3.78,1.89,1.89,0,0,1,.27-.2,6.6,6.6,0,0,0,1.75-.9c1.24-1.3-.6-3.66.34-5.19.61-1,2-1,3.15-1.31,3.17-.72,5.21-3.69,7.79-5.67a13.91,13.91,0,0,1,9-2.87c2.26.09,4.65,1.14,4.67,3.75,0,2.08-2.9,2.82-4.5,3A9.37,9.37,0,0,0,268.63,109.34Z"/><path id="Path_6336" data-name="Path 6336" class="cls-11" d="M277.57,106.2c.95,1,2.13,3.89.55,5-1.23.85-3.12-1.27-3.88-2-1-1-2.46-2.4-2.06-4s2.17-1.34,3.26-.78A8.59,8.59,0,0,1,277.57,106.2Z"/></g><path id="Path_6337" data-name="Path 6337" class="cls-11" d="M289.66,192.24s-2.27-29-15.48-33.92a22.67,22.67,0,0,0-13.76-1.09l-22,5.47s-5.35,11.58,4.22,13.1a113.4,113.4,0,0,0,16.68.84l6.81,17Z"/><g id="Group_2578" data-name="Group 2578"><path id="Path_6338" data-name="Path 6338" class="cls-8" d="M286.75,192.42l2.91,14.88h-4.78l-5.76-14.41Z"/><path id="Path_6339" data-name="Path 6339" class="cls-8" d="M277.4,192.92l2.91,14.89h-4.78l-5.75-14.42Z"/><path id="Path_6340" data-name="Path 6340" class="cls-11" d="M284,205.11s3.11,2,5.52,1.5c0,0,4.55,6.84,4.25,7.51s-6.73-3.19-7.81-5c0,0-.86.86-1.1.8s-2.2-1-2.2-1Z"/><path id="Path_6341" data-name="Path 6341" class="cls-11" d="M274.24,204.32s3.1,2,5.52,1.49c0,0,4.55,6.85,4.24,7.52s-6.73-3.2-7.81-5c0,0-.85.86-1.09.8s-2.2-1-2.2-1Z"/></g><path id="Path_6342" data-name="Path 6342" class="cls-7" d="M278.38,138.93s7.7,2.14,8.94,7.65-1,11.65-1,11.65l-7.06-1.58s-.5-8.73-3.39-10.07-9.38-.46-9.38-.46l3.65-8.59Z"/><g id="Group_2581" data-name="Group 2581"><path id="Path_6343" data-name="Path 6343" class="cls-7" d="M260.29,143.23c4,1.7,8.44,3.16,12.36,3.33,10,.44,20.18-16.56,20.18-16.56l-4.19-3.89s-10.05,9-16.21,9.44c-1.8.14-4-.67-6.26-1.88Z"/><path id="Path_6344" data-name="Path 6344" class="cls-12" d="M270.16,146.3s-11.34-2.17-13.87-13.55c0,0-.67,12.93,13.32,15Z"/><path id="Path_6345" data-name="Path 6345" class="cls-11" d="M293.71,119.63l-.58-6.21-1.69.16.58,6.21a2.33,2.33,0,0,0-1.28,2.3l.93,10,4.65-.44-.93-10A2.33,2.33,0,0,0,293.71,119.63Z"/><g id="Group_2580" data-name="Group 2580"><path id="Path_6346" data-name="Path 6346" class="cls-8" d="M289.4,126.81l.83-1.12a3.35,3.35,0,0,1,2-1.28l3.36-.74.4.83a5,5,0,0,1,.36,3.35l-.27,1.08-4.67.2Z"/><g class="cls-13"><g id="Group_2579" data-name="Group 2579"><path id="Path_6347" data-name="Path 6347" class="cls-10" d="M291.68,128.08a6.62,6.62,0,0,0,1.33.1l1.81,0a3.6,3.6,0,0,1,1.49.22,1.11,1.11,0,0,1,.53.43.63.63,0,0,1,0,.65.86.86,0,0,1-.5.31,4.32,4.32,0,0,1-1,.13,26,26,0,0,1-4.5-.2,3.54,3.54,0,0,1-1.39-.4,1.89,1.89,0,0,1-.75-.88,1.27,1.27,0,0,1,0-1.11.73.73,0,0,1,.69-.33,2.06,2.06,0,0,1,.95.43,4.41,4.41,0,0,0,1.22.58Z"/></g></g></g></g><path id="Path_6349" data-name="Path 6349" class="cls-12" d="M275.15,146.33s6.75-1.79,8.37-4.9C283.52,141.43,282.08,146.92,275.15,146.33Z"/><path id="Path_6350" data-name="Path 6350" class="cls-8" d="M280.17,156.86v2.25a5.5,5.5,0,0,0-.83,2.78c-.17,1.94-.6,3.58,0,3.67s1.37-2.86,1.37-2.86-1.54,6.58.59,6.63,5.36-6.27,3.63-9.58l-.28-1.88Z"/></g></g><g id="Group_2596" data-name="Group 2596"><g id="Group_2595" data-name="Group 2595"><g id="Group_2593" data-name="Group 2593"><path id="Path_6351" data-name="Path 6351" class="cls-14" d="M365.91,134.76v31.39l5.94,45.39h-8.56l-10-35.22a56.88,56.88,0,0,1-2.17-15.57v-26Z"/><path id="Path_6352" data-name="Path 6352" class="cls-8" d="M340.26,135h25.65V108.09a14.32,14.32,0,0,0-12.54-14.21l-6-.75L344.12,95a14.31,14.31,0,0,0-7.07,14.17Z"/><g id="Group_2590" data-name="Group 2590"><g id="Group_2589" data-name="Group 2589"><g id="Group_2588" data-name="Group 2588"><g id="Group_2587" data-name="Group 2587"><g id="Group_2586" data-name="Group 2586"><path id="Path_6353" data-name="Path 6353" class="cls-15" d="M348.17,81a120.46,120.46,0,0,0,2.18,12.52,5.19,5.19,0,0,1-3.65,6.14l-.14,0c-2.91.72-4.91-14.84-4.91-14.84Z"/><g id="Group_2585" data-name="Group 2585"><path id="Path_6354" data-name="Path 6354" class="cls-15" d="M337.09,82.15s-.33,13,5.75,11.14c5.49-1.71,6.46-9.57,5.16-12.8S337.08,73.26,337.09,82.15Z"/><g class="cls-16"><g id="Group_2584" data-name="Group 2584"><path id="Path_6355" data-name="Path 6355" class="cls-17" d="M337.46,85.79s8.16-1,8.47-6.89h0l-9.49,2.7Z"/></g></g></g></g><path id="Path_6357" data-name="Path 6357" class="cls-17" d="M343.16,93.21s2.94-1.69,3.61-3.95a8.43,8.43,0,0,1-3,6.19S343.33,94,343.16,93.21Z"/></g></g><path id="Path_6358" data-name="Path 6358" class="cls-11" d="M349,86.21a9.13,9.13,0,0,0,1.25-4.62,8,8,0,0,0-.32-3.54,3,3,0,0,0-2.7-2,2.87,2.87,0,0,0-2.35,1.67,5.31,5.31,0,0,0-.48,2.32,6.25,6.25,0,0,0,.38,1.7,7.07,7.07,0,0,0,2.23,3.35A6.69,6.69,0,0,0,349,86.21Z"/></g></g><path id="Path_6359" data-name="Path 6359" class="cls-14" d="M340.26,135l-3.87,27.68a21.63,21.63,0,0,0,.13,6.86l7.58,42H354l-3.69-43.43L357.42,135Z"/><path id="Path_6360" data-name="Path 6360" class="cls-8" d="M356.16,98c.85.94-4,7.3-4.5,7.94C342,117.5,326,113.17,313,112.21c0,0-.74-.07-.74,0l-.85,7.1C324.66,124,341,127.66,355,124.5c6.33-1.43,11.09-5,9.53-12-1.06-4.78-4-9.17-7-12.94C357.06,99,356.63,98.46,356.16,98Z"/><path id="Path_6361" data-name="Path 6361" class="cls-11" d="M337.36,81.61c-3.28-.25-6.43-2.72-6.42-6.26a3.11,3.11,0,0,1,1.77-2.9,2.11,2.11,0,0,1,2.74,1.2,1.87,1.87,0,0,1,.07.22,2.75,2.75,0,1,1,5.4-1,2.84,2.84,0,0,1,0,.92,1.87,1.87,0,0,1,3.59,1,2.3,2.3,0,0,1,3.18.68,1.77,1.77,0,0,1,.21.41c.65,2-2,3.41-3.44,4.08A16.17,16.17,0,0,1,338,81.63Z"/><path id="Path_6362" data-name="Path 6362" class="cls-18" d="M339.48,125.56s19.12,1,23.85-8.85c0,0-1.44,11.07-23.85,8.85"/><path id="Path_6363" data-name="Path 6363" class="cls-8" d="M337.09,105.4l-3.6,16a11.65,11.65,0,0,1-6.36,8.38l-16.35,7.77,3.74,7.24,16.57-7.24c2.86-1.09,9.35-3.41,9-6.45Z"/><g id="Group_2592" data-name="Group 2592"><path id="Path_6364" data-name="Path 6364" class="cls-11" d="M304.24,109.29l-2.14-5.86-1.59.58,2.13,5.86a2.33,2.33,0,0,0-.65,2.55l3.44,9.46,4.39-1.6-3.44-9.45A2.33,2.33,0,0,0,304.24,109.29Z"/><g id="Group_2591" data-name="Group 2591"><path id="Path_6365" data-name="Path 6365" class="cls-15" d="M312.16,112.78l-3.28-.09a7.45,7.45,0,0,0-3.49.77l-2.56,1.27V115a7.46,7.46,0,0,0,1.9,5h0l3.93-1.34a9.9,9.9,0,0,0,.95-.38l2-.93Z"/><path id="Path_6366" data-name="Path 6366" class="cls-17" d="M312.16,112.78l-2.55,5.45,2-.94Z"/></g></g><path id="Path_6367" data-name="Path 6367" class="cls-18" d="M339,113.65s0-8.35,1.55-12.42c0,0-1.84,3.87-3.15,12.55Z"/><path id="Path_6368" data-name="Path 6368" class="cls-18" d="M339,125.48l1,6.66a4.8,4.8,0,0,1-2.09,2.25s-.68-5.37-.94-9Z"/></g><g id="Group_2594" data-name="Group 2594"><path id="Path_6369" data-name="Path 6369" class="cls-15" d="M345.61,211.54l.77,4.92h6.36l-.43-4.92Z"/><path id="Path_6370" data-name="Path 6370" class="cls-14" d="M352.74,215.38a8.15,8.15,0,0,1-6.67-.89l-3,3-4.47,1.62a4.94,4.94,0,0,0-3.09,3.38h0l18.12-.5Z"/><path id="Path_6371" data-name="Path 6371" class="cls-15" d="M364.45,211.54l.77,4.92h6.36l-.43-4.92Z"/><path id="Path_6372" data-name="Path 6372" class="cls-14" d="M371.58,215.38a8.15,8.15,0,0,1-6.67-.89l-3,3-4.48,1.62a4.9,4.9,0,0,0-3.08,3.38h0l18.11-.5Z"/></g></g><path id="Path_6373" data-name="Path 6373" class="cls-15" d="M311.46,138.85l-.84.53s-5,2.77-5.37,4.93c-.54,3.12.16,6.84,1.87,5a13.62,13.62,0,0,0,2.57-4.44s.16,3.69,1,3.53c1.39-.26.1-3.52,1.5-4.41a7.83,7.83,0,0,1,1.53-.77Z"/></g><g id="Group_2635" data-name="Group 2635"><g id="Group_2629" data-name="Group 2629"><g id="Group_2628" data-name="Group 2628"><g id="Group_2627" data-name="Group 2627"><g id="Group_2626" data-name="Group 2626"><path id="Path_6425" data-name="Path 6425" class="cls-8" d="M106.3,109.38a110.37,110.37,0,0,1-1.76,11.29,4.66,4.66,0,0,0,3.38,5.45l.13,0c2.63.6,4.17-13.42,4.17-13.42Z"/><g id="Group_2625" data-name="Group 2625"><path id="Path_6426" data-name="Path 6426" class="cls-8" d="M116.28,110.21s-1.33,13.74-5,10.1-6-8.49-4.84-11.41S116.15,102.22,116.28,110.21Z"/></g></g></g></g><path id="Path_6427" data-name="Path 6427" class="cls-11" d="M122,107.53a7.05,7.05,0,0,0,.85-3.45,3.66,3.66,0,0,0-1.7-3,4,4,0,0,0-2.26-.4,6.63,6.63,0,0,0-5.19,3.34c-2.7-1.06-6-1.37-8.28.49-1.87,1.57-2.4,4.19-2.81,6.59a5.18,5.18,0,0,0-.07,2.18,2.68,2.68,0,0,0,1.85,1.88,2.77,2.77,0,0,0,2.12-.35c.54-.31,1.14,0,1.74,0a13,13,0,0,0,4-.14,14.22,14.22,0,0,0,7.06-3.58A12.69,12.69,0,0,0,122,107.53Z"/></g><path id="Path_6428" data-name="Path 6428" class="cls-19" d="M87.94,134.29l-6.12,28.8h32.06l6.18-28.76c1.23-5.7-2.71-11.26-9-12.78l-.39-.09C100.33,119.1,89.92,125,87.94,134.29Z"/><path id="Path_6429" data-name="Path 6429" class="cls-14" d="M97.6,178.88l-6.29,25.44h9.74l11.43-25.44Z"/><path id="Path_6430" data-name="Path 6430" class="cls-11" d="M126.41,168.45c-1.35-4.41-12.53-5.35-12.53-5.35H81.82S79,173.81,93.92,173.81h18.57l-6.33,30.51h9.55S130,180.06,126.41,168.45Z"/><g id="Group_2630" data-name="Group 2630"><path id="Path_6431" data-name="Path 6431" class="cls-8" d="M114.65,204.32l-.66,4.16h-6.36l.57-4.16Z"/><path id="Path_6432" data-name="Path 6432" class="cls-14" d="M107.63,207.39a8.12,8.12,0,0,0,6.67-.89l3,3,4.48,1.62a4.89,4.89,0,0,1,3.08,3.38h0l-18.11-.5Z"/></g><g id="Group_2631" data-name="Group 2631"><path id="Path_6433" data-name="Path 6433" class="cls-8" d="M99,204.32l-.67,4.16H91.94l.57-4.16Z"/><path id="Path_6434" data-name="Path 6434" class="cls-14" d="M91.93,207.39a8.12,8.12,0,0,0,6.67-.89l3,3,4.47,1.62a4.92,4.92,0,0,1,3.09,3.38h0L91,214Z"/></g><g id="Group_2634" data-name="Group 2634"><path id="Path_6435" data-name="Path 6435" class="cls-3" d="M112.49,178.88H81.55A2.54,2.54,0,0,1,79,176.35h0a2.54,2.54,0,0,1,2.54-2.54h30.94a2.53,2.53,0,0,1,2.53,2.54h0A2.53,2.53,0,0,1,112.49,178.88Z"/><g id="Group_2632" data-name="Group 2632"><path id="Path_6436" data-name="Path 6436" class="cls-3" d="M97,212.33a.58.58,0,0,1-.58-.57V178.88a.57.57,0,0,1,.53-.62.57.57,0,0,1,.62.53v33A.57.57,0,0,1,97,212.33Z"/></g><g id="Group_2633" data-name="Group 2633"><path id="Path_6437" data-name="Path 6437" class="cls-3" d="M107.63,222.32a.55.55,0,0,1-.42-.19L97,211.25,86.83,222.13a.57.57,0,0,1-.82,0,.58.58,0,0,1,0-.82l11-11.79,11,11.79a.58.58,0,0,1,0,.82.59.59,0,0,1-.4.16Z"/></g></g><path id="Path_6438" data-name="Path 6438" class="cls-19" d="M118.5,126.56l10.17,14.5a1.87,1.87,0,0,0,1.83.76l21.74-3.76v7.17s-34.81,17.86-41,0Z"/><path id="Path_6439" data-name="Path 6439" class="cls-15" d="M152.24,139.87s6.23.32,7.78,5.36h-7.78Z"/></g><g id="Group_2644" data-name="Group 2644"><g id="Group_2642" data-name="Group 2642"><path id="Path_6440" data-name="Path 6440" class="cls-5" d="M150.94,131.65c-.09-.27-1-.2-2,.13l-2.12-5.09a.9.9,0,0,0,.37-.63l.62-4.9L141,123.91l4.84,2.83a1,1,0,0,0,.68.1l2.1,5.06c-.94.36-1.61.82-1.53,1.06s1,.2,2.1-.17S151,131.92,150.94,131.65Z"/><path id="Path_6441" data-name="Path 6441" class="cls-5" d="M239.27,58.24H234c-.25,9.89-6.65,18.37-12.47,24.1a31.56,31.56,0,0,1-16.44,8.55L196,92.55A16.63,16.63,0,0,0,184,101.84c-2.49,5.32-6.49,11.83-11.77,14-9.43,3.84-20.79,4.72-20.79,4.72v5.76s24.46,2.1,35.55-7.51c1-.84,1.85-1.64,2.65-2.43l1.44,12h21.09l1.94-15.84a23.54,23.54,0,0,1,8.43-15.29C241.74,81.32,239.27,58.24,239.27,58.24Z"/><g id="Group_2640" data-name="Group 2640"><g id="Group_2639" data-name="Group 2639"><g id="Group_2638" data-name="Group 2638"><path id="Path_6442" data-name="Path 6442" class="cls-15" d="M206,80.16a105.41,105.41,0,0,0-1.67,11.3,4.66,4.66,0,0,1-4.85,4.21h-.13c-2.69-.21,0-14.06,0-14.06Z"/><g id="Group_2637" data-name="Group 2637"><path id="Path_6443" data-name="Path 6443" class="cls-15" d="M196.25,78S193.44,91.51,198,89.12s8.22-6.35,8-9.47S198.75,70.4,196.25,78Z"/><g class="cls-20"><g id="Group_2636" data-name="Group 2636"><path id="Path_6444" data-name="Path 6444" class="cls-17" d="M194.63,82.91s7.24,1.47,9.17-3.49h0l-8.86-.37Z"/></g></g></g></g><path id="Path_6446" data-name="Path 6446" class="cls-17" d="M198.33,89s3.59-1.83,4.79-3.57c0,0-1.39,4.27-4.93,5.85C198.19,91.23,198.27,89.63,198.33,89Z"/></g><path id="Path_6447" data-name="Path 6447" class="cls-11" d="M193.23,80.5a5.07,5.07,0,0,1-1.48-.5,3.83,3.83,0,0,1-1.53-4.32,7.1,7.1,0,0,1,3-3.76,9.63,9.63,0,0,1,8.48-1.31,7,7,0,0,1,4.55,6.48c0,1.36-1.43,1.87-2.49,2.33a18,18,0,0,1-4.88,1.32,17.3,17.3,0,0,1-5.08-.12C193.64,80.58,193.43,80.55,193.23,80.5Z"/><path id="Path_6448" data-name="Path 6448" class="cls-11" d="M203.32,78.85a8.27,8.27,0,0,0,1.59,6.39,12,12,0,0,0,2.9-3.24,5.78,5.78,0,0,0,.69-4.22,3.11,3.11,0,0,0-1.05-1.71,2.64,2.64,0,0,0-3.25.25,3.47,3.47,0,0,0-.95,3.25"/></g><path id="Path_6449" data-name="Path 6449" class="cls-14" d="M191,128.33l-5.28,16.9h29l-2.61-16.9Z"/><g id="Group_2641" data-name="Group 2641"><path id="Path_6450" data-name="Path 6450" class="cls-5" d="M245.74,56.84l-3.92,2.71L235.47,52a3.27,3.27,0,0,1,.4-4.6l.25-.19h0a3.26,3.26,0,0,1,4.54.83l.15.23Z"/><rect id="Rectangle_818" data-name="Rectangle 818" class="cls-3" x="234.61" y="49.63" width="6.53" height="0.24" transform="translate(13.76 143.74) rotate(-34.56)"/></g><path id="Path_6451" data-name="Path 6451" class="cls-15" d="M234.7,58.24a11.31,11.31,0,0,1,2-5.15c1.71-2.26,3.16-2,3.16-2l-2.09,3.55,1.49,1.77-1.11,1.79Z"/><path id="Path_6452" data-name="Path 6452" class="cls-15" d="M151.4,121.41s-4.94.65-6.73,3,2.75,0,2.75,0l-.23,1.78,4.21-1Z"/></g><path id="Path_6453" data-name="Path 6453" class="cls-8" d="M193.32,93.28l-3.72,23.08,1.43,12h21.09l1.57-12.83-5-25.49-3.57.88L200.65,104,196,92.56Z"/><path id="Path_6454" data-name="Path 6454" class="cls-14" d="M189.48,116.38c0-.09-1.47-8.69-.78-15.28l.24,0c-.69,6.55.76,15.12.77,15.21Z"/><path id="Path_6455" data-name="Path 6455" class="cls-14" d="M214.85,109.13h-.24c0-.52.47-12.88,2.61-15.9l.19.13C215.31,96.32,214.85,109,214.85,109.13Z"/><g id="Group_2643" data-name="Group 2643"><rect id="Rectangle_819" data-name="Rectangle 819" class="cls-14" x="200.57" y="104.04" width="0.24" height="24.29" transform="translate(-0.29 0.51) rotate(-0.14)"/><path id="Path_6456" data-name="Path 6456" class="cls-5" d="M200.24,106.85a.58.58,0,1,1-.58-.58h0A.58.58,0,0,1,200.24,106.85Z"/><path id="Path_6457" data-name="Path 6457" class="cls-5" d="M200.24,110.35a.58.58,0,1,1-.58-.58h0A.58.58,0,0,1,200.24,110.35Z"/><path id="Path_6458" data-name="Path 6458" class="cls-5" d="M200.24,113.86a.58.58,0,1,1-.58-.59h0A.58.58,0,0,1,200.24,113.86Z"/><path id="Path_6459" data-name="Path 6459" class="cls-5" d="M200.24,117.36a.58.58,0,1,1-.58-.58h0A.58.58,0,0,1,200.24,117.36Z"/><path id="Path_6460" data-name="Path 6460" class="cls-5" d="M200.24,120.86a.58.58,0,1,1-.58-.58h0A.58.58,0,0,1,200.24,120.86Z"/><path id="Path_6461" data-name="Path 6461" class="cls-5" d="M200.24,124.37a.58.58,0,1,1-.58-.58h0A.58.58,0,0,1,200.24,124.37Z"/></g></g><g id="Group_2647" data-name="Group 2647"><circle id="Ellipse_60" data-name="Ellipse 60" class="cls-8" cx="138.81" cy="33.63" r="8.11"/><path id="Path_6465" data-name="Path 6465" class="cls-11" d="M140.09,19.66V3.22a1.28,1.28,0,0,0-2.56,0V19.66a16,16,0,0,0-14.76,16h32.08A16,16,0,0,0,140.09,19.66Z"/></g></svg>