<svg id="Layer_1" data-name="Layer 1" xmlns="http://www.w3.org/2000/svg" viewBox="0 0 426.23 229.62"><defs><style>.cls-1{fill:#f8a492;}.cls-2{fill:#f8a491;}.cls-3{fill:#0c183d;}.cls-4{fill:#f15c54;}.cls-5{fill:#f37769;}.cls-6{fill:#03668a;}.cls-7{fill:#f37458;}.cls-8{fill:#f79c8d;}.cls-9{fill:#f58d80;}.cls-10{fill:#f8cc7f;}.cls-11{fill:#fcb669;}.cls-12{fill:#fff;}.cls-13{fill:#fff8f3;}.cls-14{fill:#213064;}.cls-15{fill:#65b3c6;}.cls-16{fill:#f37258;}.cls-17{fill:#f5daa1;}.cls-18{fill:#b85742;}.cls-19{fill:#1b1a50;}</style></defs><g id="Group_925" data-name="Group 925"><g id="Group_889" data-name="Group 889"><g id="Group_888" data-name="Group 888"><g id="Group_886" data-name="Group 886"><path id="Path_2859" data-name="Path 2859" class="cls-1" d="M167.56,53.5c-.45-.6-9.43-13.75-9.43-13.75l-2.57-4.28c-1-2.21-3.07-6.73-3.65-6.63s-.49.62-.4,1.09,1.82,4.3,1.79,4.34-.36-.29-.56-.18c-.4.21-.81.42-.81.8,0,.2.1.42.07.47s-.16,0-.25,0-.81.4-.81.73.34.49.25.58-3.3-1.83-3.68-1.69-.37.49,0,.86,3.14,2.27,3.49,2.63a11.8,11.8,0,0,0,2,1.89,4.81,4.81,0,0,1,1.25.84c.24.24,9.58,17.37,10.09,17.84s13.48,9,13.48,9l1.78-7.07Z"/><g id="Group_883" data-name="Group 883"><path id="Path_2860" data-name="Path 2860" class="cls-2" d="M182.1,154s-.42,4.67-.43,4.68c-.11.59-.55,2-.57,2.58-.07,2,9.08-1.4,7.09-2.38-.18-.08-1.38-1.2-1.42-1.9-.06-1.06,0-2.75,0-2.75Z"/><path id="Path_2861" data-name="Path 2861" class="cls-3" d="M188.17,158.9a32.47,32.47,0,0,1-3.23.67c-1.09.11-2.47-1.24-3.25-.92s-1.07,4.83-1.07,4.83,11.7.6,14.57-.13C196.48,163,192.44,160.5,188.17,158.9Z"/></g><g id="Group_884" data-name="Group 884"><path id="Path_2862" data-name="Path 2862" class="cls-2" d="M199.48,154.65s-.42,4.67-.43,4.67c-.11.59-.55,2.05-.57,2.59-.07,2,9.08-1.4,7.09-2.38-.18-.08-1.39-1.2-1.42-1.9-.06-1.06,0-2.75,0-2.75Z"/><path id="Path_2863" data-name="Path 2863" class="cls-3" d="M205.55,159.51a31.9,31.9,0,0,1-3.23.67c-1.09.11-2.47-1.24-3.25-.92s-1,4.09-1,4.09,10.76.73,13.63,0C213,163,209.83,161.11,205.55,159.51Z"/></g><path id="Path_2864" data-name="Path 2864" class="cls-1" d="M211.41,32.35A5,5,0,0,0,212,34.8a46.37,46.37,0,0,1-2.21,4.47s-6.5,12.17-6.88,12.81L191.8,60.81l2.56,6.82s11.85-9.82,12.38-10.44,7.48-18.1,8.14-19.61c0,0,1.43-1.53,2.3-2.52a11.47,11.47,0,0,0,1.48-2.62s1.2-2.7.49-2.92-1.1,2.36-1.26,2.24.21-1.25.17-1.7-.43-.39-.51-.19a10.52,10.52,0,0,1-.53,1.19s-.18.06-.08-.34.26-.37.44-1.15c.07-.32-1.09-.34-1.09-.34s-.25,1-.5.89a22.91,22.91,0,0,1,.42-2.34c.16-1.08-2.9-.39-2.9-.39s2,.05,1.95.32-.43,1.27-.43,1.27-1.33,3.22-1.55,3.1a1.64,1.64,0,0,1-.65-.88c0-.23.26-.64.28-.86a.58.58,0,0,0-.43-.58c-.27,0-.76,1-.76,1A3.94,3.94,0,0,0,211.41,32.35Z"/><path id="Path_2865" data-name="Path 2865" class="cls-4" d="M186.8,94.67s12.52,33,12.92,35.92c.29,2.15-1,26.45-1,26.45l6.46.12,3.24-27.69-7.27-35.33Z"/><path id="Path_2866" data-name="Path 2866" class="cls-5" d="M180.74,96l5,36.31-4.91,24,7.35.26,6.69-25.77,1.79-28.42L194,93.11Z"/><path id="Path_2867" data-name="Path 2867" class="cls-6" d="M200.08,53.77s1.36,7.33,2.45,8.5c0,0-5.91,3.66-5.69,5.19s5.34,30.33,5.34,30.33-12.85,6.12-20.65,4.79c0,0-4.77-32.75-6.24-34.33s-6.13-4.17-6.13-4.17,3.78-6.68,3.82-7.89c0,0,8.29,4.21,9.66,5.68s4.19-.23,4.86-.49C187.5,61.38,199,54.35,200.08,53.77Z"/><path id="Path_2868" data-name="Path 2868" class="cls-2" d="M184,55.29l-1.3,6.64s2.64,4.76,4.91,4.15c1.9-.52,1.87-4.21,1.87-4.21s-.9-3.85-.52-5.74S184,55.29,184,55.29Z"/><path id="Path_2869" data-name="Path 2869" class="cls-7" d="M188.94,56.13c.37-1.9-5-.84-5-.84l-.1.56a3.25,3.25,0,0,0,.54,1A7,7,0,0,0,189,59,10.13,10.13,0,0,1,188.94,56.13Z"/><g id="Group_885" data-name="Group 885"><path id="Path_2870" data-name="Path 2870" class="cls-2" d="M183.45,45.73c-.14-.06-1.46,7.63.45,9.83s5.76,3,7.21,1.4c1.6-1.8,1.82-10.1-1.2-12.4S183.45,45.73,183.45,45.73Z"/><path id="Path_2871" data-name="Path 2871" class="cls-4" d="M179.13,45.46c-1.85,3.1.24,6.88,2.36,8.63a4.82,4.82,0,0,1,2,3.69l.39-1a5.55,5.55,0,0,0,.36-2.35A4.4,4.4,0,0,0,184,53c-.49-1.14,1.19-1.82,1.69-2.73.38-.7.45-2.35,1.06-3.51l.7-.88,3.09-.75V38.93S182.38,40,179.13,45.46Z"/><path id="Path_2872" data-name="Path 2872" class="cls-2" d="M185.48,51.65c0,.94-.47,1.7-1,1.69s-1-.79-1-1.73.47-1.7,1-1.69S185.5,50.7,185.48,51.65Z"/></g><path id="Path_2873" data-name="Path 2873" class="cls-8" d="M155.57,35.47c-1-2.21-3.08-6.73-3.66-6.63s-.49.62-.4,1.09,1.83,4.26,1.79,4.3Z"/><path id="Path_2874" data-name="Path 2874" class="cls-9" d="M153.5,35.37l-1.24,1.94s.51.63,1,.63,1-1.11,1-1.11a6.31,6.31,0,0,0,.25,1.67c.17.15.57-2,.57-2l-.89-1.43Z"/><path id="Path_2875" data-name="Path 2875" class="cls-8" d="M154.22,36.46c0,.53-.41.55-.76.42a4.06,4.06,0,0,1-1.53-1.73.94.94,0,0,1,.75-1.09.89.89,0,0,1,.23,0C153.52,34,154.22,35.93,154.22,36.46Z"/><path id="Path_2876" data-name="Path 2876" class="cls-8" d="M151,36.24s1.47,1.48,2,1.41.54-.45.54-.73-1.66-1.65-1.66-1.65-.18-.13-.49.17l-.31.31S150.82,36,151,36.24Z"/><path id="Path_2877" data-name="Path 2877" class="cls-1" d="M157.58,38.93s-.72-3-.87-3.43-.19-.36-.22-.38a10.23,10.23,0,0,0-2.76-.78c-.5.1-1.83.92-1.71,1.78s1.7-.53,2-.53.65.57.65.78-.39,1.64-.15,2.13S157.58,38.93,157.58,38.93Z"/></g><g id="Group_887" data-name="Group 887"><path id="Path_2878" data-name="Path 2878" class="cls-3" d="M194.72,13.9l-.89.91-.26-.25.89-.91Z"/><path id="Path_2879" data-name="Path 2879" class="cls-3" d="M195.4,11.08l.89-.91.26.25-.89.91Z"/><path id="Path_2880" data-name="Path 2880" class="cls-3" d="M197.9,12.72l.9-.91.25.25-.89.91Z"/><path id="Path_2881" data-name="Path 2881" class="cls-3" d="M200.33,14.09l.89-.92.26.25-.9.92Z"/><path id="Path_2882" data-name="Path 2882" class="cls-3" d="M196.34,16.23l-.89.91-.26-.25.89-.91Z"/><path id="Path_2883" data-name="Path 2883" class="cls-3" d="M198.18,18.46l-.89.91-.26-.25.89-.91Z"/><path id="Path_2884" data-name="Path 2884" class="cls-3" d="M194.41,15l-.46.27a.67.67,0,0,1-.78-.1h0a.64.64,0,0,1-.11-.76l.25-.48Z"/><path id="Path_2885" data-name="Path 2885" class="cls-3" d="M195.7,10l.47-.27a.65.65,0,0,1,.77.1h0a.62.62,0,0,1,.12.76l-.26.48Z"/><path id="Path_2886" data-name="Path 2886" class="cls-3" d="M198.21,11.61l.47-.27a.65.65,0,0,1,.77.1h0a.64.64,0,0,1,.12.77l-.26.47Z"/><path id="Path_2887" data-name="Path 2887" class="cls-3" d="M200.63,13l.47-.27a.65.65,0,0,1,.77.1h0a.64.64,0,0,1,.12.77l-.26.47Z"/><path id="Path_2888" data-name="Path 2888" class="cls-3" d="M196,17.34l-.46.27a.65.65,0,0,1-.77-.1h0a.64.64,0,0,1-.12-.77l.26-.47Z"/><path id="Path_2889" data-name="Path 2889" class="cls-3" d="M197.87,19.57l-.46.27a.67.67,0,0,1-.78-.1h0a.65.65,0,0,1-.11-.77l.25-.47Z"/><path id="Path_2890" data-name="Path 2890" class="cls-4" d="M220.83,37.64s-9.28,3.66-10.15,6.17c-.64,1.87,14,5.58,14.72,6.71s3.46,11,6.37,12.18,11.79-3.37,11.79-3.37-1.47-1.74,1.13-6.39,2-5.78.24-7.52-10.51-4.05-11.57-5.08S228,27.56,226.73,27.22,220.83,37.64,220.83,37.64Z"/><path id="Path_2891" data-name="Path 2891" class="cls-6" d="M201.27,20.24a2.62,2.62,0,0,0-2.77-.53s-7.22-9.28-7-9.48,1-1,.82-1.53.07-1.14.6-.62,6.37,6.17,8.94,6.46A3.25,3.25,0,0,0,203.08,18c1.93,1.57,23.28,21.74,23.28,21.74l-2.76,2.82Z"/><path id="Path_2892" data-name="Path 2892" class="cls-3" d="M201.83,14.54c-2.57-.29-8.4-5.95-8.94-6.46s-.83.1-.6.62-.62,1.34-.82,1.53,7,9.48,7,9.48a2.6,2.6,0,0,1,2.76.53l.05,0,2-2.05-.23-.2A3.23,3.23,0,0,1,201.83,14.54Z"/><path id="Path_2893" data-name="Path 2893" class="cls-10" d="M204.2,19.72l-1.33,1.36-.84-.81,1.33-1.36Z"/><path id="Path_2894" data-name="Path 2894" class="cls-10" d="M207.59,22.85l-1.41,1.44-.8-.77,1.41-1.44Z"/><path id="Path_2895" data-name="Path 2895" class="cls-10" d="M210.48,25.66l-1.4,1.43-.8-.77,1.4-1.44Z"/><path id="Path_2896" data-name="Path 2896" class="cls-10" d="M213.07,28.16l-1.47,1.5-.8-.77,1.47-1.5Z"/><path id="Path_2897" data-name="Path 2897" class="cls-10" d="M215.35,30.25l-1.53,1.56-.61-.59,1.53-1.57Z"/><path id="Path_2898" data-name="Path 2898" class="cls-10" d="M218.31,33.1l-1.58,1.62-.62-.6,1.57-1.62Z"/><path id="Path_2899" data-name="Path 2899" class="cls-10" d="M220.78,35.5l-1.58,1.61-.53-.51L220.25,35Z"/><path id="Path_2900" data-name="Path 2900" class="cls-10" d="M222.17,36.57l-1.72,1.76-.23-.23,1.72-1.75Z"/><path id="Path_2901" data-name="Path 2901" class="cls-10" d="M223.45,37.81l-1.72,1.75-.25-.23,1.72-1.76Z"/><path id="Path_2902" data-name="Path 2902" class="cls-10" d="M224.55,38.87l-1.87,1.91-.18-.17,1.87-1.91Z"/><path id="Path_2903" data-name="Path 2903" class="cls-3" d="M228.75,41.31,225.13,45a.5.5,0,0,1-.7,0l-1.61-1.56a.49.49,0,0,1,0-.69h0l3.63-3.7a.5.5,0,0,1,.7,0l1.61,1.56a.5.5,0,0,1,0,.7Z"/><path id="Path_2904" data-name="Path 2904" class="cls-5" d="M228.27,41.5l-2.85,2.91a.34.34,0,0,1-.48,0L223.52,43a.32.32,0,0,1,0-.47h0l2.86-2.91a.34.34,0,0,1,.48,0L228.27,41a.33.33,0,0,1,0,.47Z"/><path id="Path_2905" data-name="Path 2905" class="cls-3" d="M233.75,46.15l-3.63,3.7a.5.5,0,0,1-.7,0l-1.61-1.56a.49.49,0,0,1,0-.69h0l3.63-3.7a.5.5,0,0,1,.7,0l1.61,1.56a.49.49,0,0,1,0,.69Z"/><path id="Path_2906" data-name="Path 2906" class="cls-5" d="M233.27,46.33l-2.86,2.92a.34.34,0,0,1-.48,0l-1.42-1.37a.34.34,0,0,1,0-.48h0l2.86-2.92a.34.34,0,0,1,.48,0l1.42,1.38a.34.34,0,0,1,0,.48Z"/><path id="Path_2907" data-name="Path 2907" class="cls-3" d="M231.58,52.12l-1.52-1.64L234.49,46,236,47.58Z"/><path id="Path_2908" data-name="Path 2908" class="cls-11" d="M233.17,52.15a.35.35,0,1,1-.36.34.34.34,0,0,1,.36-.34Z"/><path id="Path_2909" data-name="Path 2909" class="cls-3" d="M237,48.8l-3.68,3.77-.22-.2,3.69-3.77Z"/><path id="Path_2910" data-name="Path 2910" class="cls-3" d="M233.9,52.54l-.68.69-.8-.78.68-.68Z"/><path id="Path_2911" data-name="Path 2911" class="cls-11" d="M236.88,48.53a.35.35,0,0,1,.34.36.36.36,0,0,1-.36.35.37.37,0,0,1-.35-.36.36.36,0,0,1,.36-.35Z"/><path id="Path_2912" data-name="Path 2912" class="cls-3" d="M237.61,48.93l-.67.68-.8-.77.67-.69Z"/></g><path id="Path_2913" data-name="Path 2913" class="cls-6" d="M154.6,42.13l3.42-3.2,3.3,4.4-4.08,3.6Z"/><path id="Path_2914" data-name="Path 2914" class="cls-12" d="M155.75,43.49l-1.42,2.35,2.4-1S156.6,43.64,155.75,43.49Z"/><path id="Path_2915" data-name="Path 2915" class="cls-12" d="M158,42l2.37.45-1.85,1.2S157.72,42.73,158,42Z"/><path id="Path_2916" data-name="Path 2916" class="cls-12" d="M159.24,40.55l2.46-.21-1.53,1.45Z"/></g><path id="Path_2917" data-name="Path 2917" class="cls-1" d="M214.43,31.86c.19-.1.29-.42,0-.83-.15-.21-1.16-.4-1.16-.4a3.67,3.67,0,0,0-1.51.11l1,1c.11-.13.35-.24.43-.2C214,32,214.28,31.93,214.43,31.86Z"/><path id="Path_2918" data-name="Path 2918" class="cls-1" d="M215.58,28.17s-2,.36-2.33,0a.47.47,0,0,1-.09-.65.37.37,0,0,1,.13-.12,9.31,9.31,0,0,1,2.47-.15c.31.1.35.08.42.32S215.58,28.17,215.58,28.17Z"/><path id="Path_2919" data-name="Path 2919" class="cls-1" d="M216.43,29.13c-.45.23-1.58,1.06-1.42,1.4s2.22-.6,2.33-.8a.65.65,0,0,0,0-.2C217.39,29.28,217,28.83,216.43,29.13Z"/><path id="Path_2920" data-name="Path 2920" class="cls-1" d="M217.81,29.68c-.6-.13-1.78,1.6-1.61,1.9s1.55-.67,1.72-.84S218.08,29.74,217.81,29.68Z"/></g><g id="Group_890" data-name="Group 890"><path id="Path_2921" data-name="Path 2921" class="cls-13" d="M185.48,80a4.4,4.4,0,0,1,1,1.86,7.12,7.12,0,0,1,.48,2.23l2.86,1.55,2.22-.34,1.84-2.49s-.34-3.6-.07-4h-.67s.09,2.84-.5,3.23a11.38,11.38,0,0,1-4.5.83c-.8-.19-1.4-2.22-1.48-2.71S185.48,80,185.48,80Z"/><path id="Path_2922" data-name="Path 2922" class="cls-13" d="M193.9,73.94a4.67,4.67,0,0,0-3.38-3.26,5.49,5.49,0,0,0-.8-.06,5.84,5.84,0,0,0-4.17,1.55,4.09,4.09,0,0,0-1.15,1.77c-.62,2.13,1,4.08.92,4.69s-.38,1.19-.3,1.68,1.79,0,2.13.26.42,1.56.42,1.56,3.41.59,5.06-.88c0,0-.3-1.52.08-1.69s1.79,0,1.93-.5-.69-1.43-.73-1.71A5.38,5.38,0,0,0,193.9,73.94Zm-5.67,4.11a1.66,1.66,0,0,1-2.34,0l0,0a1.26,1.26,0,0,1,.42-1.7,3.4,3.4,0,0,1,1.74-.63c.37.08.61,1.74.2,2.3Zm2.25,2.14-1,.15-.54-.15.33-2,.56-.09,1,1.8ZM193,77a1.67,1.67,0,0,1-2.26.68c-.56-.42-.83-2.08-.5-2.26a3.33,3.33,0,0,1,1.85.08A1.26,1.26,0,0,1,193,77Z"/></g><g id="Group_893" data-name="Group 893"><g id="Group_892" data-name="Group 892"><path id="Path_2923" data-name="Path 2923" class="cls-2" d="M144.93,69.54l1.15-1.8-2.63.92a16.18,16.18,0,0,0-2,2,7.2,7.2,0,0,0-.43,1.12,1,1,0,0,1-.66.6L122.6,77s-8.09-12.92-8.17-12.84l-.74,13.18c.66.65,6.7,6.31,6.86,6.28,1.12-.21,21.19-8.38,21.19-8.38l2.9-.78,3-2.79Z"/><path id="Path_2924" data-name="Path 2924" class="cls-2" d="M128,140.74s-1.32,6.23-1.17,7.6c.2,2,9.56-2.45,7.5-3.11-.48-.16-2-.76-2.1-.84-.63-.46-.46-3.39-.46-3.39Z"/><path id="Path_2925" data-name="Path 2925" class="cls-4" d="M138.47,146.15l-5.92-1.72a15.16,15.16,0,0,1-5.69.36,24.71,24.71,0,0,0-.45,5.42s12.32.1,15.18-1.13S138.47,146.15,138.47,146.15Z"/><path id="Path_2926" data-name="Path 2926" class="cls-14" d="M134.73,109.69c-1-6.91-22.38-13.85-23.16-14.32-1.27-.77-3.42-7.56-3.42-7.56L92.88,93.88l10.34,12.84c.14.48,21.28,8.28,22.26,8,0,0-.25,3.8-.39,5.42-.48,5.65.8,22.65.8,22.65l5.93-.52S135.74,116.55,134.73,109.69Z"/><path id="Path_2927" data-name="Path 2927" class="cls-2" d="M100.48,154.46s-.81,6.74-.67,8.11c.21,2,9.56-2.45,7.5-3.11-.47-.16-2-.76-2.09-.84-.64-.46-.46-3.39-.46-3.39Z"/><path id="Path_2928" data-name="Path 2928" class="cls-3" d="M112.86,127.5c.23-1.34-3.42-15.4-5.68-25.81-.07-.35,1.56-8.77,2.35-11.71l-17,2.29S92,102.58,94,105.12c1.38,1.78,7.89,23.2,7.89,23.2l-3,27.61,6.44.38S112.1,131.87,112.86,127.5Z"/><path id="Path_2929" data-name="Path 2929" class="cls-12" d="M108.29,59.92l-4.35-.63c-.52-.09-6.49,15.54-8.44,21.47S94,89.1,94,89.1a21.5,21.5,0,0,0,9.17,3.58c4.64.79,6.44-.36,6.44-.36s4.6-14.13,4.33-17.93c-.17-2.31,0-10.42,0-10.42S108.54,60,108.29,59.92Z"/><path id="Path_2930" data-name="Path 2930" class="cls-15" d="M96.93,60.68s-2.44,8-3.5,13.64c-1.68,9-5,19-5.06,20.48s.33,2.22,7.95,2.8c1.72.13,5.54.63,6.54.51a19.54,19.54,0,0,0,.58-3.39l.76-35.4S98.43,60.18,96.93,60.68Z"/><path id="Path_2931" data-name="Path 2931" class="cls-4" d="M105.49,158.66a12.9,12.9,0,0,1-5.69.54,13,13,0,0,0-.41,4.17s13.49.94,16.36-.3S105.49,158.66,105.49,158.66Z"/><path id="Path_2932" data-name="Path 2932" class="cls-2" d="M144.08,69.81l-2.34-1.07,2-1.95A27.52,27.52,0,0,1,147,65.26a.82.82,0,0,1,.09,1,10.49,10.49,0,0,1-1.83,1.34l-.46,1.93Z"/><path id="Path_2933" data-name="Path 2933" class="cls-16" d="M145.24,67.69l-.2.9a2.78,2.78,0,0,1-.94,1.5l-.32.25.59-.16a2.49,2.49,0,0,0,1.26-.8l.18-.21Z"/><path id="Path_2934" data-name="Path 2934" class="cls-15" d="M116.32,84.74c-.35-6.42-1.28-17.3-1.89-20.56l-6.06-4.25c.94,1.44,4,5.14,4.15,10.78,0,.4-2.87,21.62-2.87,21.62l.93,1.68c.6.26,5.08.23,5.36-.09C116.51,93.27,116.53,88.58,116.32,84.74Z"/><g id="Group_891" data-name="Group 891"><path id="Path_2935" data-name="Path 2935" class="cls-3" d="M152.69,61.66,152,60.52l.32-.21.73,1.14Z"/><path id="Path_2936" data-name="Path 2936" class="cls-3" d="M155.45,63l.74,1.14-.32.2-.74-1.14Z"/><path id="Path_2937" data-name="Path 2937" class="cls-3" d="M153.17,65.25l.73,1.14-.32.2-.73-1.14Z"/><path id="Path_2938" data-name="Path 2938" class="cls-3" d="M151.18,67.44l.73,1.14-.32.21-.73-1.14Z"/><path id="Path_2939" data-name="Path 2939" class="cls-3" d="M149.89,62.79l-.74-1.14.32-.21.74,1.14Z"/><path id="Path_2940" data-name="Path 2940" class="cls-3" d="M147.14,64.18,146.4,63l.32-.21.74,1.14Z"/><path id="Path_2941" data-name="Path 2941" class="cls-3" d="M151.61,61.09l-.16-.55a.68.68,0,0,1,.28-.78h0a.66.66,0,0,1,.82.06l.43.38Z"/><path id="Path_2942" data-name="Path 2942" class="cls-3" d="M156.53,63.6l.16.55a.69.69,0,0,1-.28.78h0a.68.68,0,0,1-.82-.06l-.43-.38Z"/><path id="Path_2943" data-name="Path 2943" class="cls-3" d="M154.24,65.82l.17.55a.69.69,0,0,1-.28.78h0a.68.68,0,0,1-.82-.06l-.43-.38Z"/><path id="Path_2944" data-name="Path 2944" class="cls-3" d="M152.25,68l.17.54a.68.68,0,0,1-.28.78h0a.66.66,0,0,1-.82-.06l-.43-.37Z"/><path id="Path_2945" data-name="Path 2945" class="cls-3" d="M148.81,62.22l-.17-.55a.69.69,0,0,1,.28-.78h0a.68.68,0,0,1,.82.06l.43.38Z"/><path id="Path_2946" data-name="Path 2946" class="cls-3" d="M146.06,63.6l-.17-.55a.7.7,0,0,1,.28-.78h0a.68.68,0,0,1,.82.06l.43.38Z"/><path id="Path_2947" data-name="Path 2947" class="cls-5" d="M121.9,83.18S114.1,77.66,113,78s-4.18,6.45-5.53,6.91-12.2,1-14.14,3.75.72,13,.72,13,2.16-1.12,6.37,2.68,5.53,3.47,7.76,2,6.67-10,8-10.82,14.44-1.64,15.09-2.83,0-3.12-4.06-3.37-6.44-1.16-7.06-2.11S121.9,83.18,121.9,83.18Z"/><path id="Path_2948" data-name="Path 2948" class="cls-4" d="M113,78h0c-1.13.33-4.17,6.44-5.52,6.91s-12.21,1-14.14,3.74.72,13,.72,13,2.16-1.11,6.37,2.68l.13.12,2-11.46,6.8-.57Z"/><path id="Path_2949" data-name="Path 2949" class="cls-6" d="M144.57,67a2.79,2.79,0,0,0,1.2-2.75s11.33-5.32,11.49-5.07.81,1.32,1.4,1.21,1.16.34.5.77-7.9,5.16-8.81,7.76a3.44,3.44,0,0,0-3.92.48c-2.08,1.63-28.05,19.06-28.05,19.06L116.1,84.9Z"/><path id="Path_2950" data-name="Path 2950" class="cls-3" d="M150.35,68.89c.91-2.6,8.15-7.33,8.81-7.76s.1-.89-.5-.77-1.24-1-1.4-1.21-11.49,5.07-11.49,5.07a2.79,2.79,0,0,1-1.2,2.75l0,0,1.65,2.56a2.42,2.42,0,0,0,.26-.2A3.47,3.47,0,0,1,150.35,68.89Z"/><path id="Path_2951" data-name="Path 2951" class="cls-10" d="M144.42,70.13l-1.1-1.7,1-.67,1.1,1.7Z"/><path id="Path_2952" data-name="Path 2952" class="cls-10" d="M140.36,72.92l-1.16-1.8,1-.65,1.17,1.8Z"/><path id="Path_2953" data-name="Path 2953" class="cls-10" d="M136.77,75.26l-1.16-1.8,1-.65,1.16,1.8Z"/><path id="Path_2954" data-name="Path 2954" class="cls-10" d="M133.56,77.36l-1.21-1.88,1-.65,1.21,1.88Z"/><path id="Path_2955" data-name="Path 2955" class="cls-10" d="M130.86,79.24l-1.27-2,.76-.49,1.27,2Z"/><path id="Path_2956" data-name="Path 2956" class="cls-10" d="M127.2,81.63l-1.3-2,.77-.5,1.3,2Z"/><path id="Path_2957" data-name="Path 2957" class="cls-10" d="M124.13,83.64l-1.3-2,.66-.44,1.3,2Z"/><path id="Path_2958" data-name="Path 2958" class="cls-10" d="M122.69,84.83l-1.42-2.2.29-.19,1.42,2.2Z"/><path id="Path_2959" data-name="Path 2959" class="cls-10" d="M121.1,85.86l-1.41-2.2.3-.2,1.42,2.2Z"/><path id="Path_2960" data-name="Path 2960" class="cls-10" d="M119.74,86.76l-1.55-2.4.22-.14L120,86.61Z"/><path id="Path_2961" data-name="Path 2961" class="cls-17" d="M116.22,90.55l-3-4.64a.53.53,0,0,1,.15-.73l2-1.3a.53.53,0,0,1,.73.16h0l3,4.63a.53.53,0,0,1-.15.73l-2,1.3a.53.53,0,0,1-.73-.15Z"/><path id="Path_2962" data-name="Path 2962" class="cls-5" d="M116.14,90l-2.35-3.65a.36.36,0,0,1,.1-.5l1.77-1.16a.37.37,0,0,1,.5.11h0l2.35,3.65a.37.37,0,0,1-.1.5l-1.77,1.15a.34.34,0,0,1-.49-.1Z"/><path id="Path_2963" data-name="Path 2963" class="cls-3" d="M110.75,94.75a.53.53,0,0,1-.73-.15h0L107,90a.52.52,0,0,1,.16-.73l2-1.3a.52.52,0,0,1,.72.15h0l3,4.64a.53.53,0,0,1-.15.73Z"/><path id="Path_2964" data-name="Path 2964" class="cls-5" d="M110,94.05l-2.36-3.65a.36.36,0,0,1,.11-.5l1.76-1.15a.37.37,0,0,1,.5.1h0l2.36,3.65a.36.36,0,0,1-.11.5l-1.76,1.15a.37.37,0,0,1-.5-.1Z"/><path id="Path_2965" data-name="Path 2965" class="cls-3" d="M104.34,91l2-1.2,3.66,5.67-2,1.2Z"/><path id="Path_2966" data-name="Path 2966" class="cls-11" d="M103.93,92.58a.37.37,0,0,1-.45.27.38.38,0,0,1-.28-.45.38.38,0,0,1,.46-.27.37.37,0,0,1,.27.45Z"/><path id="Path_2967" data-name="Path 2967" class="cls-3" d="M106.5,97.36l-3-4.71.27-.18,3,4.72Z"/><path id="Path_2968" data-name="Path 2968" class="cls-3" d="M103.35,93.25l-.56-.87,1-.64.56.86Z"/><path id="Path_2969" data-name="Path 2969" class="cls-11" d="M106.81,97.28a.38.38,0,0,1-.45.28.38.38,0,0,1-.27-.46.37.37,0,1,1,.72.18Z"/><path id="Path_2970" data-name="Path 2970" class="cls-3" d="M106.23,98l-.56-.86,1-.65.56.86Z"/></g><path id="Path_2971" data-name="Path 2971" class="cls-1" d="M112,93.18s-.81-.17-1.07-.24-1.23-.42-1.23-.42-3.11-1.3-3-1.52.64-.64.86-.62.62.25.84.26a.54.54,0,0,0,.56-.41c0-.26-1-.73-1-.73a3.85,3.85,0,0,0-1.49-.33,4.87,4.87,0,0,0-2.39.57c-.1,0-10.93-7.5-10.82-7.82.62-1.91,2.41-7.5,3.29-10.23,1.19-3.68.38-11,.38-11s-4.5,1-5.32,3.5c-2,5.95-5.83,17.45-4.45,20.29,1.12,2.3,11.79,7,14.67,8.47.51.48,1.36,1.27,2,1.82a11.17,11.17,0,0,0,2.54,1.44,12.21,12.21,0,0,0,2.6,1c1.29.35.22-.56.22-.56s-2.27-1.07-2.16-1.23,1.3.53,2.72.94l1.06.3c.88.24,1.27-.21.39-.6a8.5,8.5,0,0,0-1.22-.46,8,8,0,0,1-1.12-.5,10.7,10.7,0,0,1-1.15-.52s0-.17.34-.07,1.42.58,2.12.71c.4.07,1.23.26,1.23.26a7.39,7.39,0,0,0,1.33,0c.16-.39-.72-.68-1.28-.71a6.4,6.4,0,0,0-1.22-.38s-1.7-.75-1.6-1a19.11,19.11,0,0,1,2.26.41c1,.16,2.13.16,2.19,0S112,93.18,112,93.18Z"/><path id="Path_2972" data-name="Path 2972" class="cls-2" d="M108.71,57l-.22,3s.59,4.55-.62,5.16-3.66-5.83-3.66-5.83l1.26-7.73Z"/><path id="Path_2973" data-name="Path 2973" class="cls-7" d="M108.55,59.08c-1.62-.84-3.42-3.49-3.08-7.43L108.71,57Z"/><path id="Path_2974" data-name="Path 2974" class="cls-2" d="M112.12,46.35A2.77,2.77,0,0,1,114,49a24.11,24.11,0,0,1-.23,4.07c-.43,3-2.85,5-4.3,4.79s-4.48-2.22-3.93-6.44c.23-1.81.54-4.19,2.32-4.92A6.57,6.57,0,0,1,112.12,46.35Z"/><path id="Path_2975" data-name="Path 2975" class="cls-3" d="M104.94,54.65s-3.45-6-2.57-9.53,4.63-4.31,7.35-3.55A18.63,18.63,0,0,1,113,42.8c2.59,1.21,4,3,2.63,5-1.78,2.72-6.58-1.59-8-1-1.19.46-.24,2.78-1.39,3.19s-.64.33-.76,1.68A28.3,28.3,0,0,1,104.94,54.65Z"/><path id="Path_2976" data-name="Path 2976" class="cls-3" d="M117.36,45.2c1.41.15,4,2.25,4,2.25s-1.35-2.87-3.57-3.74a32.53,32.53,0,0,0-3.49-1c.39-2.26,5.14-2.26,5.14-2.26a11.39,11.39,0,0,0-5.69-.72c-2.82.51-7.61,2-7.61,2v5.06s.09-1.65,1.71,0,5.63,1.49,6.86,3.44a3,3,0,0,1-.33,3.6A2.44,2.44,0,0,0,117,51.62a4.56,4.56,0,0,0-1.38-3.83c2.39.7,4.26,6.7,4.26,6.7a9,9,0,0,0,.33-4C119.94,47.93,117.36,45.2,117.36,45.2Z"/><path id="Path_2977" data-name="Path 2977" class="cls-2" d="M104.37,50c-.14.86.17,1.63.68,1.71s1.06-.54,1.2-1.4-.17-1.62-.68-1.71S104.51,49.13,104.37,50Z"/><path id="Path_2978" data-name="Path 2978" class="cls-2" d="M107,129.52s5.07-1.36,5.07-.82-.32,1.62-.83,1.79a55.05,55.05,0,0,1-6.29,1.81C104.12,132.3,104.06,130.44,107,129.52Z"/><path id="Path_2979" data-name="Path 2979" class="cls-2" d="M103.75,124.57c1.51-1.2,6.85-2.69,7.39-2.15a1.91,1.91,0,0,1,.27,1.59s-6.52,1.9-7,2.06S103.43,124.82,103.75,124.57Z"/><path id="Path_2980" data-name="Path 2980" class="cls-2" d="M102.14,117.44s6.42-2.33,7.09-1.66a1.35,1.35,0,0,1,.36,1.42s-7.44,3.11-7.75,2.4S101.11,117.93,102.14,117.44Z"/><path id="Path_2981" data-name="Path 2981" class="cls-2" d="M147.66,71.69s2.46-5.87,1.49-5.87S147.06,69,147.06,69s.86-2.93.17-3.1S145,72,144.38,72.63s.26,1.84.26,1.84Z"/></g><path id="Path_2982" data-name="Path 2982" class="cls-5" d="M137.51,41.07V53.22l3.24-.91-2.14,15.13V55.07l-3.79.81Z"/></g><path id="Path_2983" data-name="Path 2983" class="cls-15" d="M327.43,38.07V49.83l3.14-.89L328.5,63.59v-12l-3.67.79Z"/><path id="Path_2984" data-name="Path 2984" class="cls-15" d="M307.79,55.46l6.52,4.91.82-2.1,7.25,7.25-6.63-5-1.1,2.36Z"/><rect id="Rectangle_177" data-name="Rectangle 177" class="cls-3" x="40.26" y="124.02" width="18.14" height="37.43" transform="translate(-64.76 43.79) rotate(-30)"/><path id="Path_2986" data-name="Path 2986" class="cls-6" d="M205.15,12.85l-1.05-.21.15-1.72-1.49-.5-.1-1.31-.66.05.13,1.75,1.41.47-.15,1.79,1.57.31Z"/><path id="Path_2990" data-name="Path 2990" class="cls-5" d="M255.76,17.44l.85-1.44-.7-1.52a.25.25,0,0,1,.11-.31.26.26,0,0,1,.15,0l1.64.37L259,13.39a.24.24,0,0,1,.33,0,.31.31,0,0,1,.06.13l.16,1.67L261,16a.23.23,0,0,1,.09.31.35.35,0,0,1-.11.1l-1.54.66-.32,1.65a.24.24,0,0,1-.27.18.22.22,0,0,1-.13-.08l-1.11-1.25-1.66.2a.24.24,0,0,1-.26-.2A.2.2,0,0,1,255.76,17.44Z"/><path id="Path_2991" data-name="Path 2991" class="cls-5" d="M78.83,43.68l.86-1.44L79,40.72a.21.21,0,0,1,.11-.3.23.23,0,0,1,.14,0l1.64.37,1.23-1.14a.22.22,0,0,1,.32,0,.2.2,0,0,1,.06.14l.16,1.66,1.46.82a.23.23,0,0,1,.09.31.18.18,0,0,1-.11.1l-1.54.67L82.23,45a.23.23,0,0,1-.27.18.27.27,0,0,1-.13-.07l-1.11-1.26-1.66.2a.24.24,0,0,1-.26-.2A.4.4,0,0,1,78.83,43.68Z"/><path id="Path_2992" data-name="Path 2992" class="cls-5" d="M136.65,37.12l.85-1.44-.7-1.52a.23.23,0,0,1,.12-.3.22.22,0,0,1,.14,0l1.64.37,1.22-1.14a.24.24,0,0,1,.33,0,.25.25,0,0,1,.06.14l.16,1.66,1.46.82A.23.23,0,0,1,142,36a.26.26,0,0,1-.11.1l-1.55.67L140,38.42a.22.22,0,0,1-.27.18.21.21,0,0,1-.13-.07l-1.11-1.26-1.66.2a.23.23,0,0,1-.25-.21A.35.35,0,0,1,136.65,37.12Z"/><path id="Path_2993" data-name="Path 2993" class="cls-5" d="M102.24,25.88l-.77-2.4-2.41-.73a.35.35,0,0,1-.23-.43.3.3,0,0,1,.13-.18L101,20.67,101,18.15a.35.35,0,0,1,.55-.29l2,1.49,2.37-.82a.35.35,0,0,1,.45.21.41.41,0,0,1,0,.22l-.79,2.39,1.52,2a.36.36,0,0,1-.07.49.38.38,0,0,1-.21.07l-2.52,0L102.85,26a.34.34,0,0,1-.48.09A.38.38,0,0,1,102.24,25.88Z"/><path id="Path_2994" data-name="Path 2994" class="cls-5" d="M275.19,42.19l.85-1.44-.7-1.52a.24.24,0,0,1,.11-.31.26.26,0,0,1,.15,0l1.64.37,1.23-1.14a.22.22,0,0,1,.32,0,.25.25,0,0,1,.06.14L279,40l1.46.81a.23.23,0,0,1,.09.31.21.21,0,0,1-.11.1l-1.54.67-.32,1.64a.23.23,0,0,1-.27.18.21.21,0,0,1-.13-.07l-1.11-1.26-1.66.2a.23.23,0,0,1-.26-.2A.32.32,0,0,1,275.19,42.19Z"/><path id="Path_2995" data-name="Path 2995" class="cls-9" d="M235.28,31.69,235,30l-1.52-.7a.24.24,0,0,1-.11-.31.35.35,0,0,1,.1-.11l1.48-.78.19-1.66a.24.24,0,0,1,.26-.21.21.21,0,0,1,.13.07l1.2,1.16,1.64-.33a.25.25,0,0,1,.28.18.26.26,0,0,1,0,.15l-.74,1.5.82,1.46a.22.22,0,0,1-.08.31.21.21,0,0,1-.15,0l-1.66-.24-1.13,1.24a.25.25,0,0,1-.33,0A.29.29,0,0,1,235.28,31.69Z"/><path id="Path_2996" data-name="Path 2996" class="cls-5" d="M315.12,23.56l.85-1.44-.7-1.52a.24.24,0,0,1,.11-.31.26.26,0,0,1,.15,0l1.64.36,1.22-1.13a.23.23,0,0,1,.33,0,.26.26,0,0,1,.06.13l.16,1.67,1.46.82a.23.23,0,0,1,.09.31.35.35,0,0,1-.11.1l-1.54.66-.32,1.64a.24.24,0,0,1-.27.19.22.22,0,0,1-.13-.08L317,23.71l-1.66.2a.24.24,0,0,1-.26-.2A.2.2,0,0,1,315.12,23.56Z"/><g id="Group_907" data-name="Group 907"><path id="Path_2997" data-name="Path 2997" class="cls-4" d="M279.42,68.75a.72.72,0,1,1-.72-.71.72.72,0,0,1,.72.71Z"/><rect id="Rectangle_195" data-name="Rectangle 195" class="cls-3" x="233.19" y="125.36" width="3.61" height="1.01"/><rect id="Rectangle_196" data-name="Rectangle 196" class="cls-3" x="235.53" y="139.66" width="3.61" height="1.01"/><g id="Group_894" data-name="Group 894"><path id="Path_2998" data-name="Path 2998" class="cls-9" d="M314,75.32c-.62-.1-3,1.17-3,1.17l.2,2.63c-3,3.77-7.54,8.67-8,8.57l-8.4-7.89-4.62,5.79s12.14,9,13.56,9c1.27,0,6.92-6.68,9.39-13.6a4,4,0,0,0,.83-1,12.22,12.22,0,0,0,1.12-2.6C315.09,77.15,314.61,75.41,314,75.32Z"/><path id="Path_2999" data-name="Path 2999" class="cls-4" d="M302,84.82l-5.53,6.64a81.79,81.79,0,0,1-8-6.39c-2.61-2.71-5.47-8.54-5-8.75a10,10,0,0,1,5.49-.71C295.06,76.87,302,84.82,302,84.82Z"/></g><path id="Path_3000" data-name="Path 3000" class="cls-5" d="M279.84,75.5s-4.32.56-5.46,1.33a14.78,14.78,0,0,0-2.7,2.83s5.3,23.25,5.31,27.16c0,3,.23,6.42.23,6.42s12.34-.29,18.41-2.51c0,0,.4-3.57.4-5.9s-2.29-23.42-2.81-24.9-1.34-3.74-4.27-4.33S279.84,75.5,279.84,75.5Z"/><path id="Path_3001" data-name="Path 3001" class="cls-2" d="M281,69.24l-1,6.27s3.25,5.38,5.59,4.71c1.95-.56,1.37-4.83,1.37-4.83s-1.07-3.67-.75-5.51S281,69.24,281,69.24Z"/><path id="Path_3002" data-name="Path 3002" class="cls-7" d="M286.19,69.88c.32-1.84-5.17-.64-5.17-.64l-.09.54a2.84,2.84,0,0,0,.6.9,7.57,7.57,0,0,0,4.8,2A9.08,9.08,0,0,1,286.19,69.88Z"/><path id="Path_3003" data-name="Path 3003" class="cls-2" d="M280.12,60.05c-.16,0-1.25,7.4.82,9.45s6.1,2.72,7.54,1.1c1.6-1.78,1.52-9.78-1.7-11.9S280.12,60.05,280.12,60.05Z"/><path id="Path_3004" data-name="Path 3004" class="cls-3" d="M287.4,59.24a4.51,4.51,0,0,0-3.18.83l-.7.87a12.08,12.08,0,0,0-.75,2.77,3.11,3.11,0,0,1-.22.65c-.48.9-2.2,1.61-1.66,2.69a4,4,0,0,1,.37,1.36,5,5,0,0,1-.28,2.27l-.37,1a4.56,4.56,0,0,0-2.23-3.5,6,6,0,0,1-1.75-7.87c1.73-3.59,4.37-4.65,6.3-4.39A6.46,6.46,0,0,1,287.4,59.24Z"/><path id="Path_3005" data-name="Path 3005" class="cls-2" d="M273.29,78.49c-4.54.13-5.32,13.85-5.32,18s.9,9.48,1.8,9.69l4.24-6.09s.17-11,1.1-11.83S274.74,78.45,273.29,78.49Z"/><path id="Path_3006" data-name="Path 3006" class="cls-4" d="M275.18,76.47A11.18,11.18,0,0,0,270,79.73c-2.38,2.48-3.87,16.34-3.87,16.34l8.2,1.23.66-6.71,2.19-3.06Z"/><path id="Path_3007" data-name="Path 3007" class="cls-14" d="M279.13,110.73s-18.43,8.65-18.5,16,17,31.3,17,31.3l-5.86,2.47,11-.58-12.1-29.35,17-11.4L305.93,129l-14.21,30.39,7.6.18s-4.22-1.52-3.27-2.77c.29-.38,21.07-28.93,21.62-33.92s-25.2-12.85-25.2-12.85Z"/><path id="Path_3008" data-name="Path 3008" class="cls-6" d="M234,114.53l5.33,31.8H262l3.42-31.1Z"/><path id="Path_3009" data-name="Path 3009" class="cls-3" d="M265.44,115.24,234,114.53l.21,1.23,4.51.08,1.11,4.39h1.95v-4.34l12.86.22-.23,4.12h2l1.13-4.07,7.79.14Z"/><path id="Path_3010" data-name="Path 3010" class="cls-3" d="M260.35,145.16l-.56-1.35h-1.25v1.35h-15.1l.12-1.35h-1.28l-.6,1.35h-2.54l.2,1.18H262l.13-1.18Z"/><g id="Group_895" data-name="Group 895"><path id="Path_3011" data-name="Path 3011" class="cls-3" d="M234.71,136a.62.62,0,0,1-.62-.53l-2.66-15.14a.62.62,0,0,1,.48-.75.63.63,0,0,1,.76.48v.05l2.67,15.14a.64.64,0,0,1-.52.74h-.11Z"/></g><g id="Group_896" data-name="Group 896"><path id="Path_3012" data-name="Path 3012" class="cls-3" d="M240.23,163.43l-5.12-26.31a.39.39,0,0,0-.45-.31.38.38,0,0,0-.3.44h0l5.09,26.17Z"/></g><g id="Group_897" data-name="Group 897"><path id="Path_3013" data-name="Path 3013" class="cls-3" d="M262.55,163.43l3-25.75a.37.37,0,0,0-.33-.42h0a.37.37,0,0,0-.42.33l-3,25.84Z"/></g><rect id="Rectangle_197" data-name="Rectangle 197" class="cls-3" x="279.13" y="108.99" width="8.45" height="1.74"/><rect id="Rectangle_198" data-name="Rectangle 198" class="cls-3" x="283.35" y="110.05" width="0.93" height="14.45"/><g id="Group_898" data-name="Group 898"><rect id="Rectangle_199" data-name="Rectangle 199" class="cls-3" x="246.94" y="78.36" width="1.52" height="75.45"/></g><rect id="Rectangle_200" data-name="Rectangle 200" class="cls-3" x="246.26" y="90.7" width="2.79" height="4.99"/><path id="Path_3014" data-name="Path 3014" class="cls-6" d="M263.24,86.35c-1.67,3.24-10,2.29-18.56-2.12s-14.19-10.62-12.52-13.87,10-2.29,18.56,2.13S264.91,83.11,263.24,86.35Z"/><path id="Path_3015" data-name="Path 3015" class="cls-10" d="M256.14,82.7c-.9,1.76-5.42,1.25-10.08-1.15s-7.71-5.77-6.8-7.53,5.42-1.25,10.08,1.15S257.05,80.94,256.14,82.7Z"/><g id="Group_899" data-name="Group 899"><path id="Path_3016" data-name="Path 3016" class="cls-3" d="M234,163.43,248,144l-.62-.45L233,163.43Z"/></g><g id="Group_900" data-name="Group 900"><path id="Path_3017" data-name="Path 3017" class="cls-3" d="M263,163.43l-15-19.85-.6.46,14.68,19.39Z"/></g><path id="Path_3018" data-name="Path 3018" class="cls-3" d="M328.24,77c.22.42,1.3.27,2.39-.32s1.81-1.41,1.58-1.83-1.3-.27-2.39.33S328,76.58,328.24,77Z"/><g id="Group_901" data-name="Group 901"><rect id="Rectangle_201" data-name="Rectangle 201" class="cls-3" x="330.22" y="75.91" width="1.52" height="75.47" transform="translate(-2.21 6.64) rotate(-1.15)"/></g><g id="Group_902" data-name="Group 902"><path id="Path_3019" data-name="Path 3019" class="cls-3" d="M347.8,163.43l-16-22.3-.6.49,15.53,21.81Z"/></g><g id="Group_903" data-name="Group 903"><path id="Path_3020" data-name="Path 3020" class="cls-3" d="M317,163.43l14.9-21.82-.62-.47L316,163.43Z"/></g><g id="Group_904" data-name="Group 904"><path id="Path_3021" data-name="Path 3021" class="cls-3" d="M318.09,155.16l1.11,0-.88-46.81-1.11,0Z"/></g><g id="Group_905" data-name="Group 905"><path id="Path_3022" data-name="Path 3022" class="cls-3" d="M330.28,163.43l-11.56-16.3-.44.36,11.28,15.94Z"/></g><g id="Group_906" data-name="Group 906"><path id="Path_3023" data-name="Path 3023" class="cls-3" d="M307.94,163.43l10.78-15.94-.45-.35-11.06,16.29Z"/></g><rect id="Rectangle_202" data-name="Rectangle 202" class="cls-3" x="329.17" y="88.26" width="2.79" height="4.98" transform="translate(-1.75 6.63) rotate(-1.15)"/><path id="Path_3024" data-name="Path 3024" class="cls-14" d="M281.23,98.87a.46.46,0,0,1-.27-.58l5.83-15.47a.84.84,0,0,1,.1-1.17.83.83,0,0,1,1.17.09.84.84,0,0,1-.1,1.17.81.81,0,0,1-.44.2l-5.72,15.5A.45.45,0,0,1,281.23,98.87Z"/><path id="Path_3025" data-name="Path 3025" class="cls-14" d="M318.68,79.77a.58.58,0,0,1-.19,0l-15-7a.83.83,0,1,1,.18-1.15.82.82,0,0,1,.16.45l15,6.92a.46.46,0,0,1,.22.6.47.47,0,0,1-.41.26Z"/><path id="Path_3026" data-name="Path 3026" class="cls-6" d="M310.08,102.56,306,121.43H288.33L285.68,103Z"/><path id="Path_3027" data-name="Path 3027" class="cls-3" d="M285.68,103l24.4-.42-.16.73-3.5,0-.87,2.6H304v-2.57l-10,.13.18,2.44H292.7l-.88-2.41-6.05.08Z"/><path id="Path_3028" data-name="Path 3028" class="cls-3" d="M289.64,120.73l.43-.8h1v.8h11.72l-.1-.8h1l.46.8h2l-.15.7H288.34l-.1-.7Z"/><path id="Path_3029" data-name="Path 3029" class="cls-8" d="M312.89,74.72s-1.2,3.46-.5,3.42,1.47-2.19,1.25-2.78A1,1,0,0,0,312.89,74.72Z"/><path id="Path_3030" data-name="Path 3030" class="cls-8" d="M314.48,75.78s-.69,2.39-1.16,2.56-.39-1-.14-2a4.18,4.18,0,0,1,.35-1.14S314.41,75.25,314.48,75.78Z"/><path id="Path_3031" data-name="Path 3031" class="cls-8" d="M313,75.11s-1.15,1.7-1.5,1.54.4-2.46,1.11-2.32C313,74.41,313,75.11,313,75.11Z"/><path id="Path_3032" data-name="Path 3032" class="cls-2" d="M282.62,95.1s-12.23,11.27-13.24,11.59l.55-7.4L281.58,92s2.6-3.65,3.3-3.53.84.57,1,.91a3.07,3.07,0,0,1,.52,1.3,5.24,5.24,0,0,1-1.06,3C284.87,94.05,282.62,95.1,282.62,95.1Z"/><path id="Path_3033" data-name="Path 3033" class="cls-6" d="M258.19,102.56l4.13,18.87h17.61L282.58,103Z"/><path id="Path_3034" data-name="Path 3034" class="cls-3" d="M282.58,103l-24.4-.42.16.73,3.5,0,.87,2.6h1.51v-2.57l10,.13-.17,2.44h1.54l.87-2.41,6.06.08Z"/><path id="Path_3035" data-name="Path 3035" class="cls-3" d="M278.63,120.73l-.43-.8h-1v.8H265.5l.1-.8h-1l-.47.8h-2l.16.7h17.61l.1-.7Z"/><ellipse id="Ellipse_30" data-name="Ellipse 30" class="cls-3" cx="284.59" cy="137.25" rx="26.83" ry="27.42"/><ellipse id="Ellipse_31" data-name="Ellipse 31" class="cls-5" cx="284.59" cy="137.25" rx="21.5" ry="21.97"/><path id="Path_3036" data-name="Path 3036" class="cls-4" d="M287.4,59.24c-1.6.94-4.49,4.36-4.63,4.47l-4.31,4.77c-1.83-1.7-4.11-3.53-2-8.31,1.64-3.63,4.5-4.52,6.42-4.26C285.76,56.3,287.6,59.13,287.4,59.24Z"/><path id="Path_3037" data-name="Path 3037" class="cls-2" d="M282.44,65.68c0,.91-.43,1.65-1,1.66s-1-.72-1.06-1.63.43-1.65,1-1.66S282.43,64.77,282.44,65.68Z"/><path id="Path_3038" data-name="Path 3038" class="cls-4" d="M278.24,68.86s-1.3.76-1.38,1.78a23.18,23.18,0,0,0,.14,3A10.16,10.16,0,0,0,278.93,71,3.09,3.09,0,0,0,278.24,68.86Z"/><path id="Path_3039" data-name="Path 3039" class="cls-4" d="M278.22,68.41a4.42,4.42,0,0,0-2.33-1.21,6.44,6.44,0,0,0-2.75,1.28Z"/><path id="Path_3040" data-name="Path 3040" class="cls-18" d="M320.91,108.05A2.1,2.1,0,0,1,319,106.8a1.44,1.44,0,0,0-1.34-.84h0a1.45,1.45,0,0,0-1.34.84,2.09,2.09,0,0,1-1.92,1.25H303.85v1h28.72v-1Z"/><path id="Path_3041" data-name="Path 3041" class="cls-2" d="M311,76.49s1.65-1.33,2.27-1.1-1.39,2.22-1.39,2.22l-.67,1.5S310.69,77.1,311,76.49Z"/><path id="Path_3042" data-name="Path 3042" class="cls-6" d="M314.85,84.22c1.73,3.21,10,2.09,18.51-2.5s14-10.9,12.24-14.11-10-2.09-18.51,2.49S313.12,81,314.85,84.22Z"/></g><rect id="Rectangle_203" data-name="Rectangle 203" class="cls-14" x="31.67" y="163.47" width="364.81" height="24.94"/><rect id="Rectangle_204" data-name="Rectangle 204" class="cls-17" x="31.67" y="218.83" width="364.81" height="4.35"/><g id="Group_910" data-name="Group 910"><path id="Path_3043" data-name="Path 3043" class="cls-15" d="M71.38,218.83V177.34a3.14,3.14,0,0,0-3.14-3.14H34.81a3.14,3.14,0,0,0-3.14,3.14v41.49Z"/><path id="Path_3044" data-name="Path 3044" class="cls-6" d="M68.86,218.83V177.34a.61.61,0,0,0-.62-.61H34.81a.61.61,0,0,0-.61.61v41.49Z"/><g id="Group_908" data-name="Group 908"><path id="Path_3045" data-name="Path 3045" class="cls-3" d="M58.3,186.55a6,6,0,1,1-6-6.05,6.05,6.05,0,0,1,6,6.05Z"/><path id="Path_3046" data-name="Path 3046" class="cls-6" d="M54.36,186.55a2.11,2.11,0,1,1-2.11-2.11,2.12,2.12,0,0,1,2.11,2.11Z"/></g><g id="Group_909" data-name="Group 909"><path id="Path_3047" data-name="Path 3047" class="cls-3" d="M60.82,210a8.58,8.58,0,1,1-8.57-8.58h0A8.58,8.58,0,0,1,60.82,210Z"/><path id="Path_3048" data-name="Path 3048" class="cls-6" d="M55.24,210a3,3,0,1,1-3-3h0A3,3,0,0,1,55.24,210Z"/></g></g><g id="Group_913" data-name="Group 913"><path id="Path_3049" data-name="Path 3049" class="cls-15" d="M396.48,218.83V177a3.14,3.14,0,0,0-3.14-3.14H359.91a3.14,3.14,0,0,0-3.14,3.14h0v41.8Z"/><path id="Path_3050" data-name="Path 3050" class="cls-6" d="M394,218.83V177a.61.61,0,0,0-.62-.61H359.91a.61.61,0,0,0-.62.61h0v41.8Z"/><g id="Group_911" data-name="Group 911"><path id="Path_3051" data-name="Path 3051" class="cls-3" d="M369.85,186.24a6,6,0,1,0,6-6.05,6,6,0,0,0-6,6.05Z"/><path id="Path_3052" data-name="Path 3052" class="cls-6" d="M373.79,186.24a2.11,2.11,0,1,0,2.11-2.11,2.12,2.12,0,0,0-2.11,2.11Z"/></g><g id="Group_912" data-name="Group 912"><circle id="Ellipse_32" data-name="Ellipse 32" class="cls-3" cx="375.9" cy="209.67" r="8.58"/><path id="Path_3053" data-name="Path 3053" class="cls-6" d="M372.91,209.67a3,3,0,1,0,3-3h0A3,3,0,0,0,372.91,209.67Z"/></g></g><rect id="Rectangle_205" data-name="Rectangle 205" class="cls-3" x="360.52" y="133.29" width="37.43" height="18.14" transform="translate(66.33 399.61) rotate(-60)"/><g id="Group_924" data-name="Group 924"><g id="Group_914" data-name="Group 914"><path id="Path_3054" data-name="Path 3054" class="cls-9" d="M146.55,213.22s3.85-16.95,4.68-20.37.66-14.94.67-15.43-5.19-4.6-4.5-5,2.55,2.23,3.24,1.6.59-8.56,1.17-8.37c1.09.37.25,4.86.79,4.94s.42-4.77,1.37-5-.33,4.6,0,4.85,1.82-4.33,2.58-3.72c.41.33-1.4,4.05-.78,4.12s2.46-2.55,2.9-2.13-1.85,2-2.13,3.66-1.36,2.69-1,5.44,3.18,12.86,2,18.44-4.06,17.4-4.06,17.4Z"/><path id="Path_3055" data-name="Path 3055" class="cls-2" d="M142.08,206.65s-.56,4.2-.71,5.84.79,2.08,4.12,2.08,2.06-1.92,1.74-3.53-.69-6.59-.69-6.59Z"/><path id="Path_3056" data-name="Path 3056" class="cls-7" d="M145.09,208a4.15,4.15,0,0,1-4.58,1.32c0-.9-.08-1.56-.08-1.56l4.46-2.2S145,206.66,145.09,208Z"/><path id="Path_3057" data-name="Path 3057" class="cls-2" d="M138.6,195.43a6.12,6.12,0,0,0-2.49,3.39c-.66,2.31.14,8.26,4.89,9.67s6.77-3.31,5.78-7S143.64,193.16,138.6,195.43Z"/><path id="Path_3058" data-name="Path 3058" class="cls-2" d="M147.26,200.45c-.09.93-.57,1.64-1.09,1.59s-.87-.84-.79-1.77.57-1.65,1.09-1.6S147.34,199.52,147.26,200.45Z"/><path id="Path_3059" data-name="Path 3059" class="cls-18" d="M139.63,194.14s-.9,7.24-3.13,8.56-1.28,4.52-1.28,4.52-2.07-7.45-.31-9.85A9.76,9.76,0,0,1,139.63,194.14Z"/><path id="Path_3060" data-name="Path 3060" class="cls-2" d="M137.71,204.22c.52.81.53,1.76,0,2.14s-1.37,0-1.9-.8-.53-1.76,0-2.14S137.18,203.41,137.71,204.22Z"/><path id="Path_3061" data-name="Path 3061" class="cls-9" d="M137.89,211.92s-6.09-15.61-7.63-19-5-16.3-5.1-16.81,4.41-5.77,3.61-6.09-2.18,2.81-3,2.3-2.34-8.7-2.9-8.38c-1,.6.72,5.05.18,5.24s-1.4-4.82-2.4-4.82,1.27,4.66.94,5-2.76-4.09-3.42-3.31c-.35.42,2.26,3.89,1.63,4.09s-3.05-2.14-3.41-1.61,2.31,1.69,2.93,3.33,2,2.5,2.14,5.4-.35,13.24,2,18.76,7.37,17.73,7.37,17.73Z"/><path id="Path_3062" data-name="Path 3062" class="cls-15" d="M153.46,218.83l3.19-17.76-8.94-3.22-2.62,15c-1.87-.12-2.71-.26-4.59-.35.21-.56-6.64-12.74-6.64-12.74s-6.6,3.28-7.54,5.34c0,0,4.07,8.38,6.38,13.78Z"/><path id="Path_3063" data-name="Path 3063" class="cls-4" d="M110.61,203.54c1.78,8.74,11,7.7,11,7.7.25.07,1,.93,1.78,1.4,3.18,2,7.41,2.83,10.49.73,5,2.55,11.42-.65,12.38-5.29,3.66-1.16,4.25-4.52,3.94-8.45,2.23-4.58-2.28-10.42-7.07-11.55a9.38,9.38,0,0,0-7.23,1.36,9,9,0,0,0-11.74,1.19C116.14,185.45,108.75,194.38,110.61,203.54Z"/></g><g id="Group_915" data-name="Group 915"><path id="Path_3064" data-name="Path 3064" class="cls-2" d="M236.73,209.81s-.57,4.19-.71,5.84.78,2.07,4.12,2.07,2.06-1.91,1.73-3.52-.68-6.59-.68-6.59Z"/><path id="Path_3065" data-name="Path 3065" class="cls-9" d="M241.2,216.38s3.85-16.95,4.68-20.37.65-14.93.67-15.43-5.19-4.59-4.5-5,2.55,2.22,3.23,1.59.59-8.56,1.17-8.37c1.09.37.26,4.86.8,4.93s.42-4.77,1.36-4.95-.33,4.6,0,4.85,1.83-4.33,2.59-3.72c.41.33-1.4,4.05-.78,4.12s2.46-2.55,2.9-2.13-1.85,2-2.13,3.65-1.36,2.7-1,5.45,3.18,12.86,2,18.44-4.05,17.4-4.05,17.4Z"/><path id="Path_3066" data-name="Path 3066" class="cls-7" d="M239.74,211.16a4.16,4.16,0,0,1-4.58,1.31c0-.9-.08-1.56-.08-1.56l4.46-2.2S239.62,209.82,239.74,211.16Z"/><path id="Path_3067" data-name="Path 3067" class="cls-2" d="M233.25,198.6a6,6,0,0,0-2.49,3.38c-.66,2.31.13,8.26,4.88,9.67s6.78-3.31,5.79-7S238.28,196.32,233.25,198.6Z"/><path id="Path_3068" data-name="Path 3068" class="cls-2" d="M241.9,203.61c-.08.93-.57,1.64-1.09,1.59s-.87-.84-.78-1.77.56-1.64,1.08-1.59S242,202.68,241.9,203.61Z"/><path id="Path_3069" data-name="Path 3069" class="cls-18" d="M234.27,197.3s-.9,7.24-3.13,8.56-1.28,4.53-1.28,4.53-2.07-7.45-.31-9.85A9.82,9.82,0,0,1,234.27,197.3Z"/><path id="Path_3070" data-name="Path 3070" class="cls-2" d="M232.35,207.38c.53.81.53,1.76,0,2.14s-1.38,0-1.9-.8-.53-1.76,0-2.14S231.83,206.57,232.35,207.38Z"/><path id="Path_3071" data-name="Path 3071" class="cls-9" d="M232.54,215.08s-6.09-15.61-7.64-19-5-16.3-5.1-16.81,4.42-5.77,3.61-6.09-2.17,2.81-3,2.3-2.33-8.7-2.89-8.38c-1,.6.72,5.05.18,5.24s-1.4-4.82-2.41-4.82,1.27,4.66.94,5-2.75-4.09-3.41-3.31c-.36.42,2.25,3.88,1.63,4.09s-3.05-2.14-3.41-1.61,2.31,1.69,2.93,3.33,1.94,2.5,2.14,5.4-.35,13.24,2,18.76,7.36,17.73,7.36,17.73Z"/><path id="Path_3072" data-name="Path 3072" class="cls-6" d="M248.67,218.83l2.63-14.6-9-3.22-.85,9.15a6,6,0,0,1-6.3,5.46h0c.21-.56.3-1,.2-1.12-1.95-3.16-6.84-11.62-6.84-11.62s-6.6,3.28-7.54,5.34c0,0,2.72,5.62,5,10.62Z"/><path id="Path_3073" data-name="Path 3073" class="cls-19" d="M215.37,218.83h16.41c7.41-.93,9.37-5.4,9.75-7.23,3.65-1.16,3.68-4.87,3.37-8.8,2.22-4.58-2.23-10.68-7.07-11.55-12-2.16-26.28,13.29-24.66,22.49A10.44,10.44,0,0,0,215.37,218.83Z"/></g><g id="Group_919" data-name="Group 919"><g id="Group_916" data-name="Group 916"><path id="Path_3074" data-name="Path 3074" class="cls-2" d="M264.28,191.31c1.21-2,2.22-3.8,2.54-4.52s.61-2.69.89-3.44a8.21,8.21,0,0,1,.84-1.77,35,35,0,0,1,3.93-3.05c.6-.17,2.14-.65,2.47-.24s-2.25,1.32-2.25,1.32l-1,.62c1.65-.52,4.16-1.85,4.5-1.27s-2.09,1.69-3.77,2.51c1.65-.59,4.25-1,4.36-.52s-2.9.9-4.45,2.31c-.57.52-.29,1.52-.48,2.07a4.37,4.37,0,0,1-.63,1.37l-1.54,1.6a18.76,18.76,0,0,0-.79,2.17c-.25.85-.76,2.05-1,3.14l0,.19A10.33,10.33,0,0,1,264.28,191.31Z"/><path id="Path_3075" data-name="Path 3075" class="cls-2" d="M271.43,184.27a2.8,2.8,0,0,0,1.75-.31c.83-.48,1.27-1.57,1.75-1.4s-.35,1.49-.75,2.27-4.45,3.47-4.45,3.47Z"/></g><path id="Path_3076" data-name="Path 3076" class="cls-1" d="M299.9,175.08c1.76,2.13,2.06,1.73,2.27,2a23.13,23.13,0,0,1,.48,3.7h4.88c-.23-1.53-.4-2.63-.46-3,0,0,.49-2.55.75-4.16a13.76,13.76,0,0,0-.2-3.68,14.45,14.45,0,0,0-.67-3.44c-.51-1.58-.76.19-.76.19s.42,3.13.17,3.13-.33-1.72-.87-3.49c-.14-.45-.29-.9-.42-1.3-.35-1.08-1.11-1.14-.93,0a12.17,12.17,0,0,0,.35,1.59,7.89,7.89,0,0,1,.24,1.52,11.91,11.91,0,0,1,.24,1.57c-.05,0-.15.19-.32-.29a27.27,27.27,0,0,0-.7-2.7c-.2-.46-.57-1.46-.57-1.46a9.62,9.62,0,0,0-.93-1.36c-.54.14-.24,1.26.12,1.85a7.43,7.43,0,0,0,.44,1.53s.36,2.3,0,2.37a22.57,22.57,0,0,1-1.12-2.63c-.56-1.18-1.31-2.28-1.57-2.2-.43.15,0,1.54,0,1.54s.38.95.49,1.28.39,1.57.39,1.57.69,4.19.38,4.23a1.81,1.81,0,0,1-1.22-.44c-.13-.24-.15-.82-.29-1a.67.67,0,0,0-.83-.27c-.31.16-.1,1.59-.1,1.59A4.56,4.56,0,0,0,299.9,175.08Z"/><g id="Group_918" data-name="Group 918"><path id="Path_3077" data-name="Path 3077" class="cls-2" d="M281.77,207.86l-.83,3.52s-1.59,5-.3,6.16,6.51-5.7,6.51-5.7l.42-9.09Z"/><path id="Path_3078" data-name="Path 3078" class="cls-4" d="M295.56,197.34c-.14,1.38-1,2.41-2,2.32s-1.64-1.29-1.5-2.67,1-2.41,2-2.32S295.69,196,295.56,197.34Z"/><path id="Path_3079" data-name="Path 3079" class="cls-4" d="M290.84,191.46c-.08.79-1.09,1.34-2.27,1.22s-2.06-.85-2-1.64,1.1-1.34,2.27-1.22S290.92,190.67,290.84,191.46Z"/><path id="Path_3080" data-name="Path 3080" class="cls-2" d="M285.31,192.94a4.79,4.79,0,0,0-6.34,2.39,5.71,5.71,0,0,0-.28.79,39,39,0,0,0-.84,4.54c-.48,4.16,1.27,8.43,3.17,8.62s7.39-2,8.16-7.89C289.66,197.74,288.16,194.25,285.31,192.94Z"/><path id="Path_3081" data-name="Path 3081" class="cls-2" d="M287.74,201.72a1.4,1.4,0,1,0,1.52-1.53A1.53,1.53,0,0,0,287.74,201.72Z"/><path id="Path_3082" data-name="Path 3082" class="cls-4" d="M277.32,190.06c-2.11,1.36-3,3.64-2.05,5.1s3.47,1.55,5.58.2,3-3.64,2-5.1S279.42,188.7,277.32,190.06Z"/><path id="Path_3083" data-name="Path 3083" class="cls-18" d="M282.3,191.83c-.07.67.69,1.3,1.7,1.4s1.86-.37,1.93-1-.69-1.3-1.69-1.4S282.37,191.16,282.3,191.83Z"/><path id="Path_3084" data-name="Path 3084" class="cls-18" d="M276.39,196.48a1.56,1.56,0,1,0,1.7-1.42A1.57,1.57,0,0,0,276.39,196.48Z"/><g id="Group_917" data-name="Group 917"><path id="Path_3085" data-name="Path 3085" class="cls-15" d="M269.73,217.79l-.37,1H300.7c1.2-3.42,5.39-13.88,7.39-19.28,1.93-5.2.09-21-.33-21.2-1.56-.9-6.25-.16-6.49.46s1,12.83,0,16.94c-1.3,5.33-9.13,13.94-11.24,14.94-1.3-.14-9,.47-9,.46h0s-3.62-1.72-5.24-2.43c-2.41-1.06-11-3.51-11-3.51s4.78-12.78,5.15-14c.1-.34-5-2.48-5.86-1.25,0,0-9,19.19-8.48,20.67C256.42,212.74,269.73,217.79,269.73,217.79Z"/></g><path id="Path_3086" data-name="Path 3086" class="cls-4" d="M283.58,189.1s3.16-3.22,5,1.26a2,2,0,0,1,2.75.9,1.48,1.48,0,0,1,.12.29s3.26-.8,3.48,4.83c0,0,1.65-.2,1.64,2.09a6.39,6.39,0,0,1-1.13,3.71s.83.89.21,2.94a2.41,2.41,0,0,1-1.8,1.89s-.64,3-1.82,3.75a3.12,3.12,0,0,1-2.65.21s-.56,1.58-1.83,1.31-2.76-1.34-4.26-.84-4-.44-5.12-1.07c-1.72-.93-4-2.61-2.22-7.53a4.17,4.17,0,0,1,.24-5.19s-1-4.53,2.07-6.85S283.58,189.1,283.58,189.1Z"/></g></g><g id="Group_920" data-name="Group 920"><path id="Path_3087" data-name="Path 3087" class="cls-1" d="M171.77,198.52c-.14-.79-2.7-19.06-2.78-19.7a39.11,39.11,0,0,0,.84-3.9,3.1,3.1,0,0,0-1.11-1.64c.2-7.41-.16-7.49-.66-7.52-1,0-1,6.18-1,6.19s0-.4-.49-.43c-1.67-.11-1.1,1-1.62.75a1.26,1.26,0,0,0-1.14.43c-.16.33.06.57-.07.61s-2.42-3.5-2.87-3.54-.62.3-.43.88,2,3.84,2.21,4.4a13.79,13.79,0,0,0,1,2.9,5.19,5.19,0,0,1,.84,1.46c.12.37,1,22.32,1.25,23.05s9.1,15.81,9.1,15.81l5.33-6.24Z"/><path id="Path_3088" data-name="Path 3088" class="cls-1" d="M200.14,198.52c.14-.79,2.7-19.06,2.77-19.7,0,0-.86-3.4-.84-3.9a3.1,3.1,0,0,1,1.11-1.64c-.2-7.41.16-7.49.66-7.52,1,0,1,6.18,1,6.19s0-.4.49-.43c1.67-.11,1.1,1,1.62.75a1.26,1.26,0,0,1,1.14.43c.16.33-.06.57.07.61s2.33-3.18,2.69-3.44.53.2.34.78-1.76,3.84-1.94,4.4a13.25,13.25,0,0,1-1,2.9,5.44,5.44,0,0,0-.84,1.46c-.11.43-.19.87-.26,1.3h0c-.22,5.85-.71,21-1,21.75s-7,15.27-7,15.27l-5.89-5.06Z"/><path id="Path_3089" data-name="Path 3089" class="cls-4" d="M170.78,218.83h30.87v-3.37l3.36-9L196.62,202l-3.05,4.81a3.13,3.13,0,0,1-2.74,1.47l-10.74-.22a3.92,3.92,0,0,1-3.45-2.24l-2.42-5.13-8.07,6.64,4.1,8.58Z"/><path id="Path_3090" data-name="Path 3090" class="cls-14" d="M182.83,192a5.48,5.48,0,0,0-4.62,3.71c-1.11,3.46-1.75,12.84,2.31,15.87s10.42-.21,11.54-3.88S193.66,189.92,182.83,192Z"/></g><g id="Group_923" data-name="Group 923"><path id="Path_3091" data-name="Path 3091" class="cls-9" d="M332,211.07s-2.54-16.56-3.32-20.17-1.31-17-1.32-17.52,5.57-4.67,4.85-5.16-2.73,2.27-3.43,1.59-.39-9-1-8.81c-1.16.35-.4,5.08-1,5.15s-.31-5-1.3-5.23.22,4.83-.17,5.09-1.8-4.59-2.61-4c-.44.34,1.35,4.29.7,4.35s-2.51-2.75-3-2.31,1.89,2.15,2.13,3.88,1.36,2.86.92,5.74-3.23,12.85-2.18,18.74,3.32,18.9,3.32,18.9Z"/><g id="Group_921" data-name="Group 921"><path id="Path_3092" data-name="Path 3092" class="cls-9" d="M103,195.94s-1.38,6-2.07,6.67a10.89,10.89,0,0,1-4.09,1.56c-.89.12-.79-8.68-.79-8.68Z"/><path id="Path_3093" data-name="Path 3093" class="cls-2" d="M93.88,203,93,206.4s-.19,3,1.19,3.24c1.66.32,4.14-2.17,4.14-2.17l1.43-9.62Z"/><path id="Path_3094" data-name="Path 3094" class="cls-1" d="M151,210.92a13,13,0,0,0-1.58.58,9.29,9.29,0,0,1-1.5.45,11.53,11.53,0,0,1-1.55.46s-.2-.12.26-.35,1.87-.62,2.66-1.09c.45-.27,1.42-.77,1.42-.77a10,10,0,0,0,1.3-1.12c-.18-.51-1.28-.06-1.84.38a8.43,8.43,0,0,0-1.51.66s-2.28.69-2.37.38a27,27,0,0,1,2.55-1.49c1.15-.72,2.2-1.63,2.09-1.87-.18-.41-1.54.26-1.54.26s-.93.52-1.25.66-1.54.62-1.54.62-4.15,1.28-4.22,1a1.87,1.87,0,0,1,.35-1.27c.22-.17.8-.27,1-.44a.68.68,0,0,0,.2-.86c-.18-.29-1.6.12-1.6.12a4.74,4.74,0,0,0-1.72.94,6.15,6.15,0,0,0-1.85,2.54,17.14,17.14,0,0,1-3,.84v4.91l2.66-.79s2.6.12,4.23.15a14.39,14.39,0,0,0,3.68-.73,15,15,0,0,0,3.4-1.16c1.56-.74-.24-.73-.24-.73s-3.11.87-3.13.62,1.71-.57,3.43-1.37l1.28-.6C152.16,211.34,152.17,210.57,151,210.92Z"/><path id="Path_3095" data-name="Path 3095" class="cls-1" d="M71.05,161.6s-.22,1-.26,1.35-.12,1.61-.12,1.61,0,4.26.34,4.24a1.82,1.82,0,0,0,1.13-.63c.09-.26,0-.83.1-1.09a.67.67,0,0,1,.78-.4c.33.1.37,1.54.37,1.54a4.47,4.47,0,0,1-.38,1.87c-1.37,2.4-1.73,2.06-1.9,2.37a58.33,58.33,0,0,0,.38,6.06l2.38,17.67h0a4.62,4.62,0,0,1-2.06.49c-2.19.67-2.67.15-4.85.67-.16-2.67-.55-21.48-.57-23.4,0,0-.92-2.43-1.45-4a13.75,13.75,0,0,1-.43-3.67,14.72,14.72,0,0,1,.08-3.51c.24-1.65.78.06.78.06s.12,3.16.37,3.12,0-1.76.27-3.59c.06-.47.12-.94.19-1.36.16-1.12.9-1.31.92-.11a11.19,11.19,0,0,1-.07,1.64,8.82,8.82,0,0,0,0,1.54,10.45,10.45,0,0,0,0,1.58s.18.16.26-.33,0-1.93.24-2.79c.12-.49.31-1.53.31-1.53a9.73,9.73,0,0,1,.69-1.5c.55,0,.45,1.19.2,1.84a7.18,7.18,0,0,1-.18,1.59s0,2.33.37,2.34a26.13,26.13,0,0,0,.66-2.78c.34-1.27.9-2.48,1.17-2.44C71.28,160.15,71.05,161.6,71.05,161.6Z"/><path id="Path_3096" data-name="Path 3096" class="cls-5" d="M83.89,216.51c-.08.78-.17,1.55-.25,2.32h49.45a46,46,0,0,0,5-2.48l-1.84-5.66s-9.94,1.53-15.87,1.81c-5.28.24-12.67-2.39-14.93-2.9-.76-.18-16.28-4.31-16.75-4.53-2.27-1.06-12.89-11.91-12.89-11.91l-4-15.52-6.05-.6s1.06,21,1.21,21.7S79.85,213.39,83.89,216.51Z"/><path id="Path_3097" data-name="Path 3097" class="cls-2" d="M92.72,201.38l-.59,4.78s.72,3.2,2.1,3.48c1.66.32,4.83-1.87,4.83-1.87l.74-9.93Z"/><path id="Path_3098" data-name="Path 3098" class="cls-9" d="M103.31,197.91c-.46,1-1.33,1.56-1.92,1.27s-.7-1.31-.24-2.29,1.33-1.56,1.93-1.27S103.79,196.93,103.31,197.91Z"/><path id="Path_3099" data-name="Path 3099" class="cls-15" d="M94.21,184.48a8.37,8.37,0,0,0-3.93,1.35A3.54,3.54,0,0,0,89,189a32.52,32.52,0,0,0,1.72,10c.54,1.52,1.5,4.4,3.34,4.83a4.83,4.83,0,0,0,5.14-2.2s5-6.6,5.32-11.1C105,184.44,100.17,183.73,94.21,184.48Z"/></g><g id="Group_922" data-name="Group 922"><path id="Path_3100" data-name="Path 3100" class="cls-9" d="M354,193.7c.14-.78,2.69-18.93,2.77-19.57a38.94,38.94,0,0,1-.84-3.87,3.12,3.12,0,0,1,1.1-1.63c-.2-7.37.15-7.44.66-7.47.95-.06.76,2.26,1,5.82a1.66,1.66,0,0,0,0,.32c.06,0,0-.39.49-.42,1.66-.11,1.09,1,1.6.75a1.23,1.23,0,0,1,1.14.42c.16.32-.06.56.07.61s2.4-3.47,2.85-3.52.62.3.43.87-2,3.82-2.2,4.36a12.7,12.7,0,0,1-1,2.88,4.93,4.93,0,0,0-.83,1.46c-.13.37-1,22.17-1.25,22.9s-9,15.7-9,15.7l-5.3-6.2Z"/><path id="Path_3101" data-name="Path 3101" class="cls-14" d="M325.77,218.83h29.6l-.42-8.27,3.42-8.71-8.09-4.69-4.87,6.24-13.12-.86-2-6.79-10,5.15L324.36,211Z"/><path id="Path_3102" data-name="Path 3102" class="cls-15" d="M336.85,187.24a5.44,5.44,0,0,0-4.59,3.68c-1.1,3.44-1.74,12.77,2.3,15.78s10.34-.22,11.46-3.87S347.61,185.16,336.85,187.24Z"/></g></g></g><path id="Path_3103" data-name="Path 3103" class="cls-3" d="M41.54,143.85,31.67,161v2.51l1.09.63,11-19Z"/><path id="Path_3104" data-name="Path 3104" class="cls-3" d="M396.48,159.87,387,143.47l-2.17,1.26,11,19,.67-.39Z"/></g></svg>