<svg id="Layer_1" data-name="Layer 1" xmlns="http://www.w3.org/2000/svg" viewBox="0 0 426.23 229.62"><defs><style>.cls-1{fill:#417aa5;opacity:0.1;}.cls-1,.cls-6{isolation:isolate;}.cls-2{fill:#194655;}.cls-3{fill:#c3d7ef;}.cls-4{fill:#6b93cc;}.cls-5{fill:#8cb0dd;}.cls-18,.cls-6{fill:#fff;}.cls-6{opacity:0.3;}.cls-7{fill:#f58d80;}.cls-8{fill:#f8cc7f;}.cls-9{fill:#0d2e35;}.cls-10{fill:#0c2d47;}.cls-11{fill:#13375b;}.cls-12{fill:#b85742;}.cls-13{fill:#f37458;}.cls-14{fill:#f8a491;}.cls-15{fill:#f9e0b2;}.cls-16{fill:#34548a;}.cls-17{fill:#3c8f7c;}.cls-19{fill:#f8a492;}.cls-20{fill:#f58c81;}.cls-21{fill:#266654;}.cls-22{fill:#0b1629;}.cls-23{fill:#a14333;}.cls-24{fill:#98d5c7;}.cls-25{fill:#476eb5;}</style></defs><g id="Group_821" data-name="Group 821"><g id="Group_806" data-name="Group 806"><path id="Rectangle_156" data-name="Rectangle 156" class="cls-1" d="M73.63,26h0a29.5,29.5,0,0,1,29.5,29.5V98.18a29.5,29.5,0,0,1-29.5,29.5h0a29.5,29.5,0,0,1-29.5-29.5h0V55.53A29.5,29.5,0,0,1,73.63,26Z"/><path id="Rectangle_157" data-name="Rectangle 157" class="cls-2" d="M73.63,44.73h0A19.83,19.83,0,0,1,93.46,64.56V93a19.83,19.83,0,0,1-19.83,19.82h0A19.82,19.82,0,0,1,53.81,93V64.56A19.82,19.82,0,0,1,73.63,44.73Z"/><path id="Path_2357" data-name="Path 2357" class="cls-3" d="M73.63,109.69h0a18,18,0,0,1-18-18V65.85a18,18,0,0,1,18-18h0a18,18,0,0,1,18,18V91.66A18,18,0,0,1,73.63,109.69Z"/><path id="Path_2358" data-name="Path 2358" class="cls-4" d="M60.1,53.12s12.68,11.29,26.76,0l-5.29-4.9-10.68-1.3-7.4,3Z"/><g id="Group_805" data-name="Group 805"><path id="Path_2359" data-name="Path 2359" class="cls-5" d="M73.63,45.92h0a18,18,0,0,0-18,18h0v1.9a18,18,0,0,1,18-18h0a18,18,0,0,1,18,18V64A18,18,0,0,0,73.63,45.92Z"/><path id="Path_2360" data-name="Path 2360" class="cls-5" d="M73.63,109.69h0a18,18,0,0,1-18-18h0v2a18,18,0,0,0,18,18h0a18,18,0,0,0,18-18h0v-2a18,18,0,0,1-18,18Z"/></g><path id="Path_2361" data-name="Path 2361" class="cls-6" d="M91.7,74.4,55.6,81.76v-5.7L91.7,68.7Z"/><path id="Path_2362" data-name="Path 2362" class="cls-6" d="M91.7,82.3,55.6,89.66v-3.3L91.7,79Z"/></g><g id="Group_808" data-name="Group 808"><path id="Rectangle_158" data-name="Rectangle 158" class="cls-1" d="M199.69,26h0a29.5,29.5,0,0,1,29.5,29.5V98.18a29.5,29.5,0,0,1-29.5,29.5h0a29.5,29.5,0,0,1-29.5-29.5h0V55.53A29.5,29.5,0,0,1,199.69,26Z"/><path id="Rectangle_159" data-name="Rectangle 159" class="cls-2" d="M199.69,44.73h0a19.83,19.83,0,0,1,19.83,19.83V93a19.83,19.83,0,0,1-19.83,19.82h0A19.82,19.82,0,0,1,179.87,93V64.56A19.82,19.82,0,0,1,199.69,44.73Z"/><path id="Rectangle_160" data-name="Rectangle 160" class="cls-3" d="M199.69,47.82h0a18,18,0,0,1,18,18V91.66a18,18,0,0,1-18,18h0a18,18,0,0,1-18-18V65.85A18,18,0,0,1,199.69,47.82Z"/><path id="Path_2363" data-name="Path 2363" class="cls-4" d="M186.16,53.12s12.68,11.29,26.76,0l-5.29-4.9L197,46.92l-7.4,3Z"/><g id="Group_807" data-name="Group 807"><path id="Path_2364" data-name="Path 2364" class="cls-5" d="M199.69,45.92h0a18,18,0,0,0-18,18v1.9a18,18,0,0,1,18-18h0a18,18,0,0,1,18,18V64A18,18,0,0,0,199.69,45.92Z"/><path id="Path_2365" data-name="Path 2365" class="cls-5" d="M199.69,109.69h0a18,18,0,0,1-18-18v2a18,18,0,0,0,18,18h0a18,18,0,0,0,18-18v-2A18,18,0,0,1,199.69,109.69Z"/></g><path id="Path_2366" data-name="Path 2366" class="cls-6" d="M217.76,74.4l-36.1,7.36v-5.7l36.1-7.36Z"/><path id="Path_2367" data-name="Path 2367" class="cls-6" d="M217.76,82.3l-36.1,7.36v-3.3L217.76,79Z"/></g><g id="Group_810" data-name="Group 810"><path id="Rectangle_161" data-name="Rectangle 161" class="cls-1" d="M338.69,26h0a29.5,29.5,0,0,1,29.5,29.5V98.18a29.5,29.5,0,0,1-29.5,29.5h0a29.5,29.5,0,0,1-29.5-29.5h0V55.53A29.5,29.5,0,0,1,338.69,26Z"/><path id="Path_2368" data-name="Path 2368" class="cls-2" d="M338.69,112.77h0A19.82,19.82,0,0,1,318.87,93V64.56a19.82,19.82,0,0,1,19.82-19.83h0a19.83,19.83,0,0,1,19.83,19.83h0V93a19.82,19.82,0,0,1-19.83,19.82Z"/><path id="Path_2369" data-name="Path 2369" class="cls-3" d="M338.69,109.69h0a18,18,0,0,1-18-18h0V65.85a18,18,0,0,1,18-18h0a18,18,0,0,1,18,18h0V91.66a18,18,0,0,1-18,18Z"/><path id="Path_2370" data-name="Path 2370" class="cls-4" d="M325.16,53.12s12.68,11.29,26.77,0l-5.3-4.9L336,46.92l-7.39,3Z"/><g id="Group_809" data-name="Group 809"><path id="Path_2371" data-name="Path 2371" class="cls-5" d="M338.69,45.92h0a18,18,0,0,0-18,18h0v1.9a18,18,0,0,1,18-18h0a18,18,0,0,1,18,18h0V64a18,18,0,0,0-18-18Z"/><path id="Path_2372" data-name="Path 2372" class="cls-5" d="M338.69,109.69h0a18,18,0,0,1-18-18h0v2a18,18,0,0,0,18,18h0a18,18,0,0,0,18-18h0v-2a18,18,0,0,1-18,18Z"/></g><path id="Path_2373" data-name="Path 2373" class="cls-6" d="M356.76,74.4l-36.1,7.36v-5.7l36.1-7.36Z"/><path id="Path_2374" data-name="Path 2374" class="cls-6" d="M356.76,82.3l-36.1,7.36v-3.3L356.76,79Z"/></g><g id="Group_811" data-name="Group 811"><path id="Path_2375" data-name="Path 2375" class="cls-7" d="M43.36,194.31s-.91,6.3-2.77,8.5S31,207.18,30,208.38a3.32,3.32,0,0,0-.94,2.21L50.77,210l-.24-6.55.86-7.08Z"/><path id="Path_2376" data-name="Path 2376" class="cls-8" d="M39.23,203.91s5.59,2.25,8.29.91,2.62-1.71,3.4-1.21S52,210.25,52,210.25L27.53,211c-1.7,0-2.56-1.29-1.18-2.36A19.93,19.93,0,0,1,29,207.05C30.93,206,39.23,203.91,39.23,203.91Z"/><path id="Path_2377" data-name="Path 2377" class="cls-8" d="M107.51,127.58c-2.3-1-18.82,3.62-18.82,3.62s-31.58,2.05-35.47,8c-1.07,1.63-13,46.47-11.58,57l10.1,3.36S62.51,165,61.67,143.57c5.34,2.24,31,13.8,42,6.16C111.43,144.28,109.81,128.61,107.51,127.58Z"/><path id="Path_2378" data-name="Path 2378" class="cls-7" d="M73.12,188s7.62,9.15,7.67,10-.3,9.48-1.21,10.28-3.57,1.36-2.72,2.25c.65.68,5.63.53,8.93.35,1-.05,2.17-7.74,2.55-8.87.56-1.64,1.9-5.34,1.4-6.49a9.7,9.7,0,0,0-3.07-2.77c-1.74-1.12-8.4-10.39-8.4-10.39Z"/><path id="Path_2379" data-name="Path 2379" class="cls-9" d="M86.56,192.6S81.44,207,79.44,207.72c-.53.18-3.09.65-3.57,1.78a5.24,5.24,0,0,0,0,1.48H86.54s1.35-6.36,1.88-9.15c0,0,2.83-6.82,2.51-7.44S86.56,192.6,86.56,192.6Z"/><path id="Path_2380" data-name="Path 2380" class="cls-10" d="M121.53,169.47l5,21.8a87.13,87.13,0,0,1,2.24,19.64H52.3v-1a87,87,0,0,1,1.76-17.41l4.7-23Z"/><path id="Path_2381" data-name="Path 2381" class="cls-11" d="M145,32.24l.54.21a7.43,7.43,0,0,1,4.68,7.88c-2.5,19.21-10.38,79.75-10.51,79.34l-8.45-1.08Z"/><path id="Path_2382" data-name="Path 2382" class="cls-12" d="M138.09,27.37h-2a5.71,5.71,0,0,0-5.48,5.15l-4.85,37.37A6,6,0,0,0,130,76.53l1.6.41Z"/><path id="Path_2383" data-name="Path 2383" class="cls-13" d="M148.4,29.75l-12.55,96L120.2,159l-8.7-11.68s4.47-29.84,9-43.76c4.38-13.66,12.6-49.1,13.37-73.67a7,7,0,0,1,.94-3.27c1-1.76,3-4.22,6.16-4.6a6.82,6.82,0,0,1,7.51,6A6.59,6.59,0,0,1,148.4,29.75Z"/><path id="Path_2384" data-name="Path 2384" class="cls-14" d="M32.24,192.39s-5.7,8-5.2,10.58c.27,1.36,1.47,3.14.78,4.42a3.46,3.46,0,0,1-1.47,1.6l-17.79.29c-1,0-.33-.61.45-1.18a35.62,35.62,0,0,1,6.4-3.53c.27-.13,1.24-.75,1.59-1a12.35,12.35,0,0,0,2.54-2.25c1.28-1.42,6.9-13,6.9-13Z"/><path id="Path_2385" data-name="Path 2385" class="cls-15" d="M112.53,132.89s4,12.06-2,17.68-41.81,5-53.59,5c0,0-4.82,13.22-5.36,15.36s-23.91,29.84-23.91,29.84l-6.43-4.11s25.17-48.95,27.13-51.09,30-10.72,37-12.68S112.53,132.89,112.53,132.89Z"/><path id="Path_2386" data-name="Path 2386" class="cls-15" d="M15.8,204.06a18.48,18.48,0,0,0,11.64-.45c.57,1.63,1.34,3.67.93,4.86-.5,1.44-1.2,1.77-1.82,1.78-4.94.13-18.09.31-21.85.36a.63.63,0,0,1-.63-.61.6.6,0,0,1,.15-.4C5.15,208.49,15.4,204.31,15.8,204.06Z"/><path id="Path_2387" data-name="Path 2387" class="cls-11" d="M117.89,178.25l2.77,15a3.85,3.85,0,0,1-3.09,4.48,3.23,3.23,0,0,1-.69.07H65.15A3.85,3.85,0,0,1,61.31,194a5.27,5.27,0,0,1,0-.56l2.21-15a3.84,3.84,0,0,1,3.8-3.29h46.75A3.85,3.85,0,0,1,117.89,178.25Z"/><path id="Path_2388" data-name="Path 2388" class="cls-12" d="M59.59,167h-7a3.22,3.22,0,0,1-3.22-3.22h0v-6.61a11.77,11.77,0,0,1,5.93-10.22h0a11.7,11.7,0,0,1,6-1.55c9.21.11,36,.53,50.2,2L120.2,159l-27.57,3.48Z"/><path id="Path_2389" data-name="Path 2389" class="cls-11" d="M115.72,170.8H58.08a4,4,0,0,1-4-4v-6.9a4,4,0,0,1,3.74-4l49.93-2.78a12.56,12.56,0,0,0,8.59-4.07h0a12.51,12.51,0,0,0,2.82-5L127.31,116l12.44,3.67L128.44,161A13.17,13.17,0,0,1,115.72,170.8Z"/><path id="Path_2390" data-name="Path 2390" class="cls-10" d="M119.49,163l-.61-3.63a2.85,2.85,0,0,0-3-2.38l-47.75,2.73a2.85,2.85,0,0,0-2.66,2.36l-.28,1.57a2.87,2.87,0,0,0,2.33,3.32,2.41,2.41,0,0,0,.54.05l48.63-.68a2.88,2.88,0,0,0,2.83-2.91C119.52,163.25,119.51,163.11,119.49,163Z"/><path id="Path_2391" data-name="Path 2391" class="cls-11" d="M112.35,162a2.48,2.48,0,1,0,2.48-2.48A2.48,2.48,0,0,0,112.35,162Z"/><circle id="Ellipse_29" data-name="Ellipse 29" class="cls-11" cx="70.48" cy="163.39" r="2"/><path id="Path_2392" data-name="Path 2392" class="cls-7" d="M90.11,102.71l-6.07,11s9.78,4.34,10,4.47,4.41-11.09,4.41-11.09Z"/><path id="Path_2393" data-name="Path 2393" class="cls-16" d="M93.66,91.54c6.43-12.43,11.07-11.08,11.07-11.08L96,108.72c-2.49-1.17-5.15-4.6-7.64-5.8Q90.72,97.1,93.66,91.54Z"/><path id="Path_2394" data-name="Path 2394" class="cls-17" d="M116,79.91s7.89.79,10.4,4.76-7.59,30.62-8.88,34.92-3.71,18.13-3.71,18.13-19.46-1.89-24.11-6.32c0,0,4.7-31.67,5.79-34.71s7.89-15,9.22-16.09S116,79.91,116,79.91Z"/><path id="Path_2395" data-name="Path 2395" class="cls-2" d="M98.8,60.29c1.54-8.73,9.46-14.88,17.45-10.47a19.3,19.3,0,0,1,5.44,4.66C125,59,125.7,64.55,129.11,69a34.85,34.85,0,0,1-4.8,3l-2.11-3,.66,3.74c-5.51,2.55-13.26,4.6-23.77,4.33A47.4,47.4,0,0,1,98.8,60.29Z"/><path id="Path_2396" data-name="Path 2396" class="cls-14" d="M115.15,68.78s0,.25,0,.66c0,2,.3,8.59.92,10.49.74,2.3-5.23,8.26-9.75,6.66-1.34-.48,2.21-6,2.19-6.67,0-1.25-.08-3-.12-4.7,0-1-.05-2-.08-2.93-.06-2.67-.12-4.85-.12-4.85Z"/><path id="Path_2397" data-name="Path 2397" class="cls-13" d="M115.16,69.44c0-.41,0-.65,0-.65l-7-1.35s.06,2.19.12,4.86c0,.93.05,1.92.08,2.9A6.55,6.55,0,0,0,112,74.05a9.09,9.09,0,0,0,3.17-3.43C115.17,70.14,115.16,69.74,115.16,69.44Z"/><path id="Path_2398" data-name="Path 2398" class="cls-14" d="M110.36,52.69a6.26,6.26,0,0,1,5.36,2.48c2,2.81,4,11.42-1.26,16s-10.31-.82-10.93-6.43S102.8,52.34,110.36,52.69Z"/><path id="Path_2399" data-name="Path 2399" class="cls-14" d="M102,64.61c.59,1.25,1.61,2,2.28,1.58s.75-1.7.16-2.95-1.61-2-2.28-1.57S101.41,63.37,102,64.61Z"/><path id="Path_2400" data-name="Path 2400" class="cls-2" d="M110,51.77s4.24,8.23,7.42,8.67,3.49,4.78,3.49,4.78-.88-10-4-12A11.45,11.45,0,0,0,110,51.77Z"/><path id="Path_2401" data-name="Path 2401" class="cls-14" d="M116.54,62.47c-.3,1.44.19,2.78,1.09,3s1.87-.79,2.16-2.24-.19-2.78-1.08-3S116.84,61,116.54,62.47Z"/><path id="Path_2402" data-name="Path 2402" class="cls-18" d="M108.36,68.63l4.2-.78a1.92,1.92,0,0,1-1.66,2C108.67,70.37,108.36,68.63,108.36,68.63Z"/><path id="Path_2403" data-name="Path 2403" class="cls-11" d="M130.49,119.75a2.65,2.65,0,1,0,1.83-3.27,2.66,2.66,0,0,0-1.83,3.27Z"/><path id="Path_2404" data-name="Path 2404" class="cls-5" d="M65.33,88.64l20,3.34a1.42,1.42,0,0,1,1,1.25l3.35,32c.06.61-.29,1-.8.95l-20-3.34a1.43,1.43,0,0,1-1-1.26L64.53,89.59C64.46,89,64.82,88.55,65.33,88.64Z"/><path id="Path_2405" data-name="Path 2405" class="cls-18" d="M78.34,102.06A1.79,1.79,0,0,1,77,104.13a1.75,1.75,0,0,1-1.7-1.77,1.79,1.79,0,0,1,1.37-2.07A1.75,1.75,0,0,1,78.34,102.06Z"/><path id="Path_2406" data-name="Path 2406" class="cls-11" d="M138,114l-54.44,4.56a3.08,3.08,0,0,0-3,3h0a3.08,3.08,0,0,0,3.09,3l54.38,1.4Z"/><path id="Path_2407" data-name="Path 2407" class="cls-19" d="M91.75,114.79a18.1,18.1,0,0,0-1.85-3.44,4.29,4.29,0,0,0-1.5-1.2s-1.3-.61-1.52-.34a.74.74,0,0,0,0,.91c.19.21.74.39.93.59a2.24,2.24,0,0,1,.06,1.4c-.12.3-3.88-1.64-3.88-1.64s-1-.61-1.38-.84-1.09-.85-1.09-.85-1.2-.87-1.45-.47c-.14.23.7,1.3,1.69,2.2A26.16,26.16,0,0,1,84,113c-.15.31-2.24-.7-2.24-.7a7.09,7.09,0,0,0-1.34-.89c-.46-.53-1.45-1.14-1.72-.64a11.16,11.16,0,0,0,1,1.33s.85.64,1.24,1a27.77,27.77,0,0,0,2.38,1.48c.41.3.18.34.19.4a14.41,14.41,0,0,1-1.43-.68,9.19,9.19,0,0,1-1.37-.68,11.71,11.71,0,0,0-1.42-.8c-1.08-.52-1.22.27-.29.92l1.13.79c1.53,1.06,3.13,1.68,3.08,1.87s-2.93-1.06-2.93-1.06-1.74-.25-.37.72A13.69,13.69,0,0,0,83,117.67a13.5,13.5,0,0,0,3.44,1.25c1.17.14,2.86.3,3.67.38Z"/><path id="Path_2408" data-name="Path 2408" class="cls-14" d="M123.76,106.77l-8.11-.77s-1.22,6.78-1.5,7.53c0,0-16.64.74-22.61.65l-1.47,5.11c1.16,0,3.57.08,4.14.12L113,121.24s7.08.38,7.77-.72S123.76,106.77,123.76,106.77Z"/><path id="Path_2409" data-name="Path 2409" class="cls-16" d="M124.05,114s5.55-18.42,5.15-23.45-5.85-10.07-9.86-8.62-6.09,28.35-6.09,28.35Z"/><path id="Path_2410" data-name="Path 2410" class="cls-14" d="M69.44,109.35l-1.5,5.1-.08-.07a7.66,7.66,0,0,1-1.8-2.2L63,106.55l1.38-4.19s3.54-.76,3.79-.44-1.83,1.33-1.83,1.33,1.73-.36,1.84.06-1.52,1.35-1.52,1.35Z"/><path id="Path_2411" data-name="Path 2411" class="cls-5" d="M66.62,104.67c-.11.2.62,10.76.62,10.76s4.3-4.56,4.46-4.76-2.41-4.88-2.41-4.88Z"/></g><g id="Group_814" data-name="Group 814"><path id="Path_2412" data-name="Path 2412" class="cls-11" d="M278.12,32.54l.54.21a7.43,7.43,0,0,1,4.67,7.88c-2.48,19.11-10.51,79-10.51,79l-8.45-.78Z"/><path id="Path_2413" data-name="Path 2413" class="cls-12" d="M271.16,27.37h-2a5.72,5.72,0,0,0-5.49,5.15L258.86,71.9a6,6,0,0,0,4.21,6.65l1.59.41Z"/><path id="Path_2414" data-name="Path 2414" class="cls-13" d="M281.48,29.75l-12.55,96L253.28,159l-13.6-15s9.37-26.49,13.84-40.41c4.39-13.66,12.6-49.1,13.38-73.67a6.88,6.88,0,0,1,.94-3.27c1-1.76,3-4.22,6.16-4.59a6.8,6.8,0,0,1,7.5,6A7,7,0,0,1,281.48,29.75Z"/><path id="Path_2415" data-name="Path 2415" class="cls-20" d="M158.84,197.9a16.23,16.23,0,0,1-2.8,5.45c-1.92,2.26-9.88,4.47-10.93,5.69a3.4,3.4,0,0,0-1,2.27l22.35-.57-.23-6.73-.06-5.33Z"/><path id="Path_2416" data-name="Path 2416" class="cls-12" d="M154.65,204.48s5.74,2.33,8.52,1,2.69-1.75,3.5-1.23,1.08,6.82,1.08,6.82l-25.14.69c-1.75,0-2.63-1.33-1.21-2.42a19.92,19.92,0,0,1,2.74-1.62C146.11,206.56,154.65,204.48,154.65,204.48Z"/><path id="Path_2417" data-name="Path 2417" class="cls-14" d="M236.74,73.73c-1.55-.78-9.5,4-9,5.54s-4.54,20.09-4.54,20.09l-14.28-7.59s-2.64-3.39-3.14-3.9c-.94-1-2.31-1.76-3.25-1.36s1.15,1.23,1.32,1.42c.46.54-.74,1.06-.74,1.06s-4-1.17-4.37-2.32-1.63-3.41-2.29-2.72c-.34.35.05,2.07.36,2.87-.44-.88-1-1.86-1.35-1.89-.62-.06-.74.74-.56,1.08s2,4.08,2.4,4.46,7.23,3.75,8.3,4.58c0,0,20.23,14.8,21.48,15,1.1.2,3.26-6.95,5.7-11.92S241.58,76.14,236.74,73.73Z"/><path id="Path_2418" data-name="Path 2418" class="cls-2" d="M204.29,89.11l-.44.62a.69.69,0,0,1-1,.19l-12.23-8.58a.7.7,0,0,1-.14-1h0l.45-.61a.69.69,0,0,1,1-.19l12.22,8.58a.69.69,0,0,1,.14,1Z"/><path id="Path_2419" data-name="Path 2419" class="cls-20" d="M174.46,197.9a16,16,0,0,1-2.79,5.45c-1.92,2.26-9.89,4.47-10.94,5.69a3.45,3.45,0,0,0-1,2.27l22.36-.57-.23-6.73-.06-5.33Z"/><path id="Path_2420" data-name="Path 2420" class="cls-13" d="M170.28,204.48s5.74,2.33,8.52,1,2.69-1.75,3.5-1.23,1.08,6.82,1.08,6.82l-25.14.69c-1.75,0-2.63-1.33-1.21-2.42a19.92,19.92,0,0,1,2.74-1.62C161.74,206.56,170.28,204.48,170.28,204.48Z"/><path id="Path_2421" data-name="Path 2421" class="cls-21" d="M237.37,122.37c-1.94-1.73-18.76,5.82-18.76,5.82s-33.23-.27-38.87,4.32c-1.55,1.27-23.42,67.72-23.42,67.72l10.27,2.14s17.16-31.7,21.22-38.24a65.17,65.17,0,0,0,6.95-14.92c10.81,2.32,18.77,5.5,39.48-1C243.58,145.33,239.31,124.09,237.37,122.37Z"/><path id="Path_2422" data-name="Path 2422" class="cls-17" d="M244.45,127.24c-2.37-1.06-29.52-2.39-29.52-2.39s-27.58,2.29-31.69,4.76c-1.71,1-9.8,64.87-11,70.23l10.3,2S197,167.93,196.13,145.9c5.49,2.3,34.42,8.23,45.68.38C249.83,140.68,246.81,128.3,244.45,127.24Z"/><path id="Path_2423" data-name="Path 2423" class="cls-8" d="M240.62,67c-8.12.35-17.5,20.28-18.4,22.42,2.4,1.41,8.11,1.17,10.6,2.45l9.1-25C241.49,66.91,241.05,67,240.62,67Z"/><path id="Path_2424" data-name="Path 2424" class="cls-15" d="M250.75,68.81a6.9,6.9,0,0,1,5.85,5.35c1,4.86-1.25,26.84-4.11,37.05s-5.4,23.65-5.4,23.65c-18.61,2.32-26.94-10.54-26.94-10.54s5.51-34.54,8.53-41.56c6.31-14.68,13.24-15.9,13.24-15.9Z"/><path id="Path_2425" data-name="Path 2425" class="cls-14" d="M250.62,58.83l-.42,10.55s-8,11.11-11.21,9.4c-2.67-1.44,1.16-11.9,1.16-11.9s2.66-5.5,2.76-8.5S250.62,58.83,250.62,58.83Z"/><path id="Path_2426" data-name="Path 2426" class="cls-13" d="M242.9,58.39c.1-3,7.72.44,7.72.44l0,.88A4.89,4.89,0,0,1,249.44,61a10.7,10.7,0,0,1-7.59,1.81A15.81,15.81,0,0,0,242.9,58.39Z"/><g id="Group_812" data-name="Group 812"><path id="Path_2427" data-name="Path 2427" class="cls-14" d="M254.72,44.59c.24,0-.44,12-4.07,14.67s-9.68,2.58-11.29-.37c-1.78-3.26.78-15.87,6.09-18.3S254.72,44.59,254.72,44.59Z"/><path id="Path_2428" data-name="Path 2428" class="cls-22" d="M248.44,34.65a13.14,13.14,0,0,1,6.05,5.2c1.6.51,3.66,1.84,5.22,6.1a9.71,9.71,0,0,1-4.95,11.93c-3.78,1.91-4.3,4.86-4.3,4.86l-.22-1.62a8.6,8.6,0,0,1,.28-3.67,7.06,7.06,0,0,1,.94-2.05c1.12-1.55-1.15-3.16-1.58-4.71-.32-1.19.13-3.69-.37-5.66l-.75-1.57s-2-2.27-4.37-2.2S244,32.81,248.44,34.65Z"/><path id="Path_2429" data-name="Path 2429" class="cls-14" d="M249.63,52.81c-.3,1.43.12,2.73,1,2.9s1.73-.84,2-2.27-.12-2.73-.94-2.9S249.93,51.38,249.63,52.81Z"/></g><path id="Path_2430" data-name="Path 2430" class="cls-18" d="M244.22,56.18l-4.35-1.56a2,2,0,0,0,1.4,2.44C243.58,58,244.22,56.18,244.22,56.18Z"/><g id="Group_813" data-name="Group 813"><path id="Path_2431" data-name="Path 2431" class="cls-20" d="M219.45,115.18s-4.25.4-4.32.78-.3.78,3.5.86S219.45,115.18,219.45,115.18Z"/><path id="Path_2432" data-name="Path 2432" class="cls-14" d="M249,86.49s.17,6.48.27,9.6a70.41,70.41,0,0,1-.52,12.4s-13.86,4.62-20,6.6a6.21,6.21,0,0,1-3,0,30.15,30.15,0,0,0-7.1-.3,21.64,21.64,0,0,0-4,2.58c-.42.54-1,1.28-.69,1.64,0,0-.9,1.5-.52,1.65s2.4-.9,3.09-1.32a3.76,3.76,0,0,1,2.31-.56c.56.13,3,1.2,4.27,1.09s30.32-2.89,31.75-3.34c2.68-.85,6.8-23.55,5.54-29.8S249,86.49,249,86.49Z"/></g><path id="Path_2433" data-name="Path 2433" class="cls-8" d="M262.73,93.37c-.81-11.81-2.81-26.23-11.36-27.62-3.37-.54-8.32,6.06-4.15,29.9C251.65,95.36,258.13,94.75,262.73,93.37Z"/><path id="Path_2434" data-name="Path 2434" class="cls-11" d="M271.11,114l-54.44,4.56a3.09,3.09,0,0,0-3,3h0a3.08,3.08,0,0,0,3.09,3l54.39,1.4Z"/><path id="Path_2435" data-name="Path 2435" class="cls-10" d="M254.6,169.47l5,21.8a87.13,87.13,0,0,1,2.24,19.64H185.37v-1a87,87,0,0,1,1.76-17.41l4.7-23Z"/><path id="Path_2436" data-name="Path 2436" class="cls-11" d="M251,178.25l2.77,15a3.84,3.84,0,0,1-3.08,4.48,3.33,3.33,0,0,1-.7.07H198.23a3.84,3.84,0,0,1-3.84-3.85,3.52,3.52,0,0,1,0-.56l2.2-15a3.83,3.83,0,0,1,3.8-3.29h46.74A3.85,3.85,0,0,1,251,178.25Z"/><path id="Path_2437" data-name="Path 2437" class="cls-12" d="M192.66,167h-7a3.22,3.22,0,0,1-3.22-3.22v-6.61a11.77,11.77,0,0,1,5.93-10.22h0a11.81,11.81,0,0,1,6-1.55c9.2.11,36.24-2.47,50.48-1L253.28,159l-27.58,3.48Z"/><path id="Path_2438" data-name="Path 2438" class="cls-11" d="M248.79,170.8H191.16a4,4,0,0,1-4-4v-6.9a4,4,0,0,1,3.75-4l49.92-2.78a12.6,12.6,0,0,0,8.6-4.07h0a12.61,12.61,0,0,0,2.81-5L260.38,116l12.44,3.67L261.51,161A13.15,13.15,0,0,1,248.79,170.8Z"/><path id="Path_2439" data-name="Path 2439" class="cls-10" d="M252.56,163l-.61-3.63a2.85,2.85,0,0,0-3-2.38l-47.75,2.73a2.85,2.85,0,0,0-2.65,2.36l-.28,1.57a2.85,2.85,0,0,0,2.32,3.32,2.47,2.47,0,0,0,.54.05l48.63-.68a2.88,2.88,0,0,0,2.83-2.91A3,3,0,0,0,252.56,163Z"/><path id="Path_2440" data-name="Path 2440" class="cls-11" d="M245.42,162a2.48,2.48,0,1,0,2.48-2.48A2.48,2.48,0,0,0,245.42,162Z"/><path id="Path_2441" data-name="Path 2441" class="cls-11" d="M201.06,163.07a2.48,2.48,0,1,0,2.48-2.48A2.49,2.49,0,0,0,201.06,163.07Z"/></g><g id="Group_820" data-name="Group 820"><path id="Path_2442" data-name="Path 2442" class="cls-11" d="M413.82,32.54l.54.21A7.41,7.41,0,0,1,419,40.63c-2.48,19.11-10.51,79-10.51,79l-8.44-.78Z"/><path id="Path_2443" data-name="Path 2443" class="cls-10" d="M390.3,169.47l5.05,21.8a87.13,87.13,0,0,1,2.24,19.64H321.08v-1a87,87,0,0,1,1.75-17.41l4.7-23Z"/><path id="Path_2444" data-name="Path 2444" class="cls-12" d="M406.87,27.37h-2a5.7,5.7,0,0,0-5.48,5.15l-4.85,37.37a6,6,0,0,0,4.21,6.64l1.59.41Z"/><path id="Path_2445" data-name="Path 2445" class="cls-13" d="M417.18,29.75l-12.55,96L389,159l-8.7-11.68s4.47-29.84,8.94-43.76c4.39-13.66,12.6-49.1,13.38-73.67a7,7,0,0,1,.94-3.27c1-1.76,3-4.22,6.16-4.6a6.81,6.81,0,0,1,7.5,6A7.09,7.09,0,0,1,417.18,29.75Z"/><path id="Path_2446" data-name="Path 2446" class="cls-11" d="M386.66,178.25l2.77,15a3.84,3.84,0,0,1-3.08,4.48,3.26,3.26,0,0,1-.7.07H333.93a3.85,3.85,0,0,1-3.84-3.85,5.27,5.27,0,0,1,0-.56l2.21-15a3.83,3.83,0,0,1,3.8-3.29h46.74A3.84,3.84,0,0,1,386.66,178.25Z"/><path id="Path_2447" data-name="Path 2447" class="cls-12" d="M328.36,167h-7a3.22,3.22,0,0,1-3.21-3.22h0v-6.61a11.79,11.79,0,0,1,5.92-10.22h0a11.71,11.71,0,0,1,6-1.55c9.2.11,36,.53,50.2,2L389,159l-27.57,3.48Z"/><path id="Path_2448" data-name="Path 2448" class="cls-11" d="M384.49,170.8H326.86a4,4,0,0,1-4-4v-6.9a4,4,0,0,1,3.74-4l49.93-2.78a12.58,12.58,0,0,0,8.59-4.07h0a12.63,12.63,0,0,0,2.82-5L396.09,116l12.43,3.67L397.22,161A13.17,13.17,0,0,1,384.49,170.8Z"/><path id="Path_2449" data-name="Path 2449" class="cls-10" d="M388.26,163l-.6-3.63a2.85,2.85,0,0,0-3-2.38l-47.75,2.73a2.85,2.85,0,0,0-2.66,2.36l-.28,1.57a2.87,2.87,0,0,0,2.32,3.32,2.47,2.47,0,0,0,.54.05l48.64-.68a2.87,2.87,0,0,0,2.82-2.91A2,2,0,0,0,388.26,163Z"/><path id="Path_2450" data-name="Path 2450" class="cls-11" d="M381.12,162a2.48,2.48,0,1,0,2.48-2.48A2.49,2.49,0,0,0,381.12,162Z"/><path id="Path_2451" data-name="Path 2451" class="cls-11" d="M336.77,163.07a2.48,2.48,0,1,0,2.48-2.48A2.48,2.48,0,0,0,336.77,163.07Z"/><g id="Group_819" data-name="Group 819"><g id="Group_815" data-name="Group 815"><path id="Path_2452" data-name="Path 2452" class="cls-7" d="M313.31,193.45s-.95,6.57-2.89,8.87-10,4.56-11.08,5.81a3.48,3.48,0,0,0-1,2.3l22.68-.64-.25-6.84.9-7.38Z"/><path id="Path_2453" data-name="Path 2453" class="cls-12" d="M309,203.47s5.83,2.35,8.64.95,3-2.06,3.54-1.26c2.13,3.08.5,8.17.5,8.17l-25.54,0c-1.78-1-2-1.87-.58-3a20,20,0,0,1,2.78-1.66C300.35,205.6,309,203.47,309,203.47Z"/><path id="Path_2454" data-name="Path 2454" class="cls-23" d="M379.75,126c-2.4-1.08-19.64,3.77-19.64,3.77s-36.25.26-40.3,6.42c-1.12,1.7-7.51,55.88-8.77,61.32l10.53,3.51s11.24-36,10.36-58.35c5.58,2.34,32.34,14.4,43.77,6.43C383.83,143.46,382.15,127.11,379.75,126Z"/><path id="Path_2455" data-name="Path 2455" class="cls-14" d="M301.72,191.45s-6,8.39-5.43,11c.28,1.42,1.53,3.28.81,4.61a3.62,3.62,0,0,1-1.53,1.68l-18.56.3c-1,0-.34-.64.47-1.24a37.76,37.76,0,0,1,6.68-3.68c.27-.14,1.29-.78,1.65-1a12.91,12.91,0,0,0,2.65-2.35c1.34-1.48,7.2-13.56,7.2-13.56Z"/><path id="Path_2456" data-name="Path 2456" class="cls-12" d="M385,131.57s4.19,12.58-2.09,18.45-43.61,5.22-55.9,5.22c0,0-5,13.79-5.59,16s-24.95,31.12-24.95,31.12l-6.7-4.29S316,147,318.05,144.8s31.28-11.18,38.54-13.23S385,131.57,385,131.57Z"/><path id="Path_2457" data-name="Path 2457" class="cls-13" d="M283.71,204.37a22.58,22.58,0,0,0,13-.3c1.91,3.09.57,7.29-.08,7.31-5.15.13-19.72,0-23.64,0a.64.64,0,0,1-.65-.63.57.57,0,0,1,.15-.42C273.47,209.17,283.29,204.63,283.71,204.37Z"/></g><path id="Path_2458" data-name="Path 2458" class="cls-22" d="M388.22,64.46A34.78,34.78,0,0,0,379.3,50c-3.69-3.5-12.26-4.14-16.89-2.37-14.68,5.61-6.52,26-13,37.07-2,3.39-2.5,7.89-4.25,11.4-6.48,13,2.55,26.79,14.78,31.3,8.49,3.13,19.69,2.46,25.86-4.9a26.49,26.49,0,0,0,5.51-13.79c.89-7.08.32-14.63.16-21.74C391.31,79.38,390.65,71.69,388.22,64.46Z"/><path id="Path_2459" data-name="Path 2459" class="cls-17" d="M360.49,100.93s7.53-5.51,9.81-9.45-1.55-1.38-5.46-2.42c-1.48-.39-1.11-9.08-3.91-6.25-4.59,4.63-8.34,13.83-8.34,13.83Z"/><path id="Path_2460" data-name="Path 2460" class="cls-8" d="M353.47,94.94l8.67.43v8.35l-8.88-.6Z"/><path id="Path_2461" data-name="Path 2461" class="cls-24" d="M371.64,78.82s7.94-1.6,11.58,1.41-.66,30-.64,34.45,2.56,17.08,2.56,17.08-23.41,4.37-27.26-2.32c0,0-1.84-25.6-1.69-28.82s3.67-16.36,4.65-17.77S371.64,78.82,371.64,78.82Z"/><path id="Path_2462" data-name="Path 2462" class="cls-14" d="M371.8,66.53s.05.23.12.64c.36,1.94,1.75,8.37,2.69,10.14,1.13,2.14-3.88,9-8.7,8.13-1.44-.25,1.21-6.27,1.08-6.9-.24-1.22-.57-2.89-.91-4.59l-.57-2.86c-.51-2.61-.93-4.74-.93-4.74Z"/><path id="Path_2463" data-name="Path 2463" class="cls-13" d="M371.92,67.17c-.07-.4-.12-.64-.12-.64l-7.22-.18s.42,2.13.94,4.74l.56,2.84a6.79,6.79,0,0,0,3.45-1.73,9.12,9.12,0,0,0,2.61-3.88C372.05,67.86,372,67.47,371.92,67.17Z"/><path id="Path_2464" data-name="Path 2464" class="cls-14" d="M366.94,50.12a6.52,6.52,0,0,1,5.54,2.37c2.13,2.75,4.44,11.28-.87,15.92s-10.54-.61-11.32-6.18S359.21,49.92,366.94,50.12Z"/><path id="Path_2465" data-name="Path 2465" class="cls-22" d="M366.56,49.21s4.55,8.11,7.81,8.48,3.68,4.69,3.68,4.69-1.17-9.93-4.39-11.85A12,12,0,0,0,366.56,49.21Z"/><path id="Path_2466" data-name="Path 2466" class="cls-18" d="M364.89,65.34l5-.25a2.19,2.19,0,0,1-2.21,2.08C365,67.38,364.89,65.34,364.89,65.34Z"/><g id="Group_817" data-name="Group 817"><path id="Path_2467" data-name="Path 2467" class="cls-14" d="M322.81,97.46a4.38,4.38,0,0,0-.4-2.62c-.42-1-.37-3.09-1-2.72s0,2.24-.47,2.07-2.11-4-2.66-3.61,1.2,3.82.74,3.67-1.71-3.5-2.48-3,1.82,3.8,1.41,4.06-2-1.88-2.63-1.49,2.3,2.81,2,2.73-2.16-.8-2.3-.42,3.8,2.15,4.16,3.11,6.4,10.75,8.41,11,11.65-4.9,12.52-6.81.27-4.1-1-4.51-10.32,4.72-10.72,4.59S322.81,97.46,322.81,97.46Z"/><path id="Path_2468" data-name="Path 2468" class="cls-7" d="M321.06,93.91a2.63,2.63,0,0,0-.49.86,2.4,2.4,0,0,0,.24,2.07A4.12,4.12,0,0,1,321.06,93.91Z"/><path id="Path_2469" data-name="Path 2469" class="cls-14" d="M352.09,144.88a12.48,12.48,0,0,1-3.4,1.41c.42,3,3,10.23,3,10.23a2.06,2.06,0,0,0,1.1-1.37c.08-.87.46-4.86,1.82-6.05.35-.31,4.27-3.8,7.43-7.06-1.1-1.26-4.58-1.52-5.51-2.89C354.71,140.81,352.36,144.63,352.09,144.88Z"/><path id="Path_2470" data-name="Path 2470" class="cls-5" d="M350.85,145.56s1.7,5.94,2.18,6.69-.36,6.36-1.21,6.19-5.18-10.29-4.94-11.36S350.85,145.56,350.85,145.56Z"/><path id="Path_2471" data-name="Path 2471" class="cls-14" d="M357.77,155a12.14,12.14,0,0,1-2.31,2.84c2,2.3,8,7.05,8,7.05a1.88,1.88,0,0,0,.27-1.67c-.38-.77-2.33-5.52-1.73-7.17a38.48,38.48,0,0,1,2.35-5.44,41.7,41.7,0,0,1-4.8-2C358.82,151,357.89,154.71,357.77,155Z"/><path id="Path_2472" data-name="Path 2472" class="cls-16" d="M357.09,120.81s11.24,11.1,12.38,13.24c.85,1.6-4.33,18-4.33,18s-4.88-.37-6.91-2.34c0,0,2.58-11.47,2-12s-13.37-8-13.37-8l1.59-6.8Z"/><path id="Path_2473" data-name="Path 2473" class="cls-25" d="M344.92,113.62s4.47,5.92,6.78,7.24c1.76,1,16.37,8.29,15.61,12.8-.43,2.56-7.24,11.89-7.24,11.89l-5.9-4.55s3.4-4.36,3.24-5-13.25-2.5-16.41-5.47S339.77,119,339.77,119Z"/><path id="Path_2474" data-name="Path 2474" class="cls-15" d="M348.39,95.85a33.81,33.81,0,0,0,5.08-.91c1.35-.49,10.18,28.68,7.09,29.34-6.45,1.39-21,4.47-21,4.47a21.17,21.17,0,0,1-1.08-11.6A50.3,50.3,0,0,0,340,106.72l-7.73,2.88-2.81-7.94s10.05-4.74,12.79-5.3C343,96.21,348.39,95.85,348.39,95.85Z"/><path id="Path_2475" data-name="Path 2475" class="cls-5" d="M357.1,156.11s4.87,4.45,5.75,4.87c.72.35,2.38,5.61,1.47,5.9s-10-6.22-10.33-7.31S357.1,156.11,357.1,156.11Z"/><g id="Group_816" data-name="Group 816"><path id="Path_2476" data-name="Path 2476" class="cls-11" d="M348.49,76.36a4.16,4.16,0,0,1,4.87,1.92c1.91,3,.88,2.71,1.8,4.21s3.36,1.19,3.36,3.52-1.08,2.68-1.08,2.68a4,4,0,0,1-.1,3.67,6.88,6.88,0,0,1-6,3.2,10.51,10.51,0,0,1-6.81,1c-3.41-.88-2.22-.88-3.61-.88s-5.17-1.92-4.55-4.7c0,0-2.3-2.73-.07-5s2.65-4.5,3.94-7.49S346.94,75.63,348.49,76.36Z"/></g><path id="Path_2477" data-name="Path 2477" class="cls-14" d="M350.47,92.31s-.13,4.12.26,4.5a1.5,1.5,0,0,1,.36,2c-.57,1-3,.35-4.19-.21a5.37,5.37,0,0,1-1.81-1.54l.57-6.52Z"/><path id="Path_2478" data-name="Path 2478" class="cls-13" d="M348.83,94a5.78,5.78,0,0,1-3.25-2.55l.08-.91,4.8,1.75s0,1,0,2.07A5.6,5.6,0,0,1,348.83,94Z"/><path id="Path_2479" data-name="Path 2479" class="cls-14" d="M344.82,85.9s-.12-2.42-1.6-2-.35,4.12.88,4S344.82,85.9,344.82,85.9Z"/><path id="Path_2480" data-name="Path 2480" class="cls-14" d="M349.48,78A4.4,4.4,0,0,1,353,79.75c1.18,1.81,2.47,7,.51,10.54S349.05,93,348,92.62a6.16,6.16,0,0,1-4.1-4.5C342.88,84.79,343.62,77.3,349.48,78Z"/></g><g id="Group_818" data-name="Group 818"><path id="Path_2481" data-name="Path 2481" class="cls-19" d="M347.82,103.77a19.12,19.12,0,0,0-1.54-3.61,4.45,4.45,0,0,0-1.39-1.34s-1.24-.73-1.5-.49a.75.75,0,0,0-.05.92c.17.22.7.46.87.68a2.14,2.14,0,0,1-.07,1.41c-.14.29-3.72-2-3.72-2s-1-.71-1.31-1-1-1-1-1-1.12-1-1.4-.61c-.17.21.58,1.37,1.48,2.36a24.91,24.91,0,0,1,2,2.08c-.18.29-2.18-.92-2.18-.92a7.25,7.25,0,0,0-1.26-1c-.41-.57-1.34-1.28-1.66-.8A10.3,10.3,0,0,0,336,100s.79.73,1.14,1.1c.72.6,1.47,1.17,2.25,1.7.38.34.15.36.15.41a11.61,11.61,0,0,1-1.36-.81,9.87,9.87,0,0,1-1.32-.8,10.4,10.4,0,0,0-1.34-.94c-1-.63-1.25.15-.38.89l1.06.9c1.43,1.2,3,2,2.91,2.16s-2.83-1.33-2.83-1.33-1.72-.42-.44.68a13.74,13.74,0,0,0,2.94,1.94,12.64,12.64,0,0,0,3.32,1.57c1.16.25,2.84.57,3.64.73Z"/><path id="Path_2482" data-name="Path 2482" class="cls-14" d="M379.14,98.54,371.09,97s-1.85,6.67-2.21,7.39c0,0-15.09,0-21.06-.63l-2.13,4.36c1.16.15,2.13.2,2.69.3,1.1.2,18.61,3.58,18.61,3.58s7.05,1,7.84,0S379.14,98.54,379.14,98.54Z"/></g><path id="Path_2483" data-name="Path 2483" class="cls-17" d="M379,109.61s7.5-17.22,7.64-22.06-4.74-10.07-8.88-9-9.1,26.69-9.1,26.69Z"/><path id="Path_2484" data-name="Path 2484" class="cls-18" d="M349,89l3-.16a1.29,1.29,0,0,1-1.31,1.24C349,90.19,349,89,349,89Z"/></g><path id="Path_2485" data-name="Path 2485" class="cls-11" d="M406.81,114l-54.44,4.56a3.09,3.09,0,0,0-3,3h0a3.09,3.09,0,0,0,3.1,3l54.38,1.4Z"/></g></g></svg>