<svg id="Layer_1" data-name="Layer 1" xmlns="http://www.w3.org/2000/svg" viewBox="0 0 426.23 229.62"><defs><style>.cls-1{fill:#fd5e5a;}.cls-2{fill:#9d0000;}.cls-3{fill:#d4c3f1;}.cls-4{fill:#70748f;}.cls-5,.cls-54{fill:#c2d6ff;}.cls-6{fill:#260e0d;}.cls-7{fill:#2f1954;}.cls-8{fill:red;}.cls-9{fill:#bf0000;}.cls-10{fill:#fc7575;}.cls-11{fill:#121841;}.cls-12{fill:#2846a6;}.cls-13{fill:#18287d;}.cls-14{fill:#172866;}.cls-15{fill:#132c32;}.cls-16{fill:#462c52;}.cls-17{fill:#476168;}.cls-18{fill:#35494e;}.cls-19{fill:#193a42;}.cls-20{fill:#6b5675;}.cls-21{fill:#8cc63f;}.cls-22{fill:#35213e;}.cls-23{fill:#959bbe;}.cls-24{fill:#4b4e5f;}.cls-25{fill:#f93661;}.cls-26{fill:#ff0303;}.cls-27{fill:#ffebb8;}.cls-28{fill:#ea6c18;}.cls-29{fill:#5bbc99;}.cls-30{fill:#ff7e27;}.cls-31{fill:#161616;}.cls-32{fill:#352203;}.cls-33,.cls-35{fill:#3f3854;}.cls-34{fill:#4e4963;}.cls-35{opacity:0.44;}.cls-135,.cls-141,.cls-142,.cls-144,.cls-35,.cls-38,.cls-44,.cls-50,.cls-54,.cls-72,.cls-78,.cls-86,.cls-97{isolation:isolate;}.cls-36{fill:#605c77;}.cls-37{fill:#3a9b76;}.cls-38{fill:#f9b2b2;opacity:0.29;}.cls-39{fill:#7f1ca0;}.cls-40{fill:#ffad1d;}.cls-41{fill:#e86605;}.cls-42{fill:#fc8c38;}.cls-43{fill:#3c17ad;}.cls-44{fill:#631384;opacity:0.13;}.cls-45{fill:#6d6072;}.cls-46{fill:#514756;}.cls-47{fill:#ffb024;}.cls-48{fill:#ff350d;}.cls-49{fill:#fff27d;}.cls-50{fill:#e0e075;opacity:0.43;}.cls-51{fill:#260a0a;}.cls-52{fill:#e53e3e;}.cls-53{fill:#890c0c;}.cls-142,.cls-54{opacity:0.22;}.cls-55{fill:#f0ff2e;}.cls-56{fill:#dee227;}.cls-57{fill:#fb8603;}.cls-58{fill:#006837;}.cls-59{fill:#f15a24;}.cls-60{fill:#dff4fd;}.cls-61{fill:#b8dfe8;}.cls-62{fill:#131f26;}.cls-63{fill:#552e5d;}.cls-64{fill:#b9bcfc;}.cls-65{fill:#42210b;}.cls-66{fill:#e4e5fe;}.cls-67{fill:#661b50;}.cls-68{fill:#ff4242;}.cls-69{fill:#ffd9d9;}.cls-70{fill:#fff7cf;}.cls-71{fill:#8fc3ea;}.cls-72{fill:#c5deed;}.cls-144,.cls-72{opacity:0.26;}.cls-73{fill:#1f2b66;}.cls-74{fill:#2c439b;}.cls-75{fill:#15204c;}.cls-76{fill:#f8fcff;}.cls-77{fill:#3d4ec4;}.cls-78{fill:#182356;opacity:0.32;}.cls-79{fill:#ff7b0f;}.cls-80{fill:#c8541b;}.cls-81{fill:#fbb03b;}.cls-82{fill:#bc842c;}.cls-83,.cls-86{fill:#9695fc;}.cls-84{fill:#e24242;}.cls-85{fill:#ed1e79;}.cls-86{opacity:0.24;}.cls-87{fill:#e5e54a;}.cls-88{fill:#edf731;}.cls-89{fill:#ead063;}.cls-90{fill:#efd84b;}.cls-91{fill:#fcf759;}.cls-92{fill:#26b25e;}.cls-93{fill:#eff1f4;}.cls-94{fill:#39e57f;}.cls-95{fill:#f7f5d5;}.cls-96{fill:#e83e1c;}.cls-97{fill:#302d2e;}.cls-141,.cls-97{opacity:0.49;}.cls-98{fill:#d64c70;}.cls-99{fill:#9e005d;}.cls-100{fill:#515259;}.cls-101{fill:#252730;}.cls-102{fill:#bd4643;}.cls-103{fill:#bfc3d8;}.cls-104{fill:#6f717f;}.cls-105{fill:#ea6868;}.cls-106{fill:#140f4b;}.cls-107{fill:#1b1464;}.cls-108{fill:#ffda88;}.cls-109{fill:#c5c6fe;}.cls-110{fill:#f98a8a;}.cls-111{fill:#e3e4ff;}.cls-112{fill:#0f1d5b;}.cls-113{fill:#2a8001;}.cls-114{fill:#38ab01;}.cls-115{fill:#3a9b07;}.cls-116{fill:#1b2b80;}.cls-117{fill:#3d241c;}.cls-118{fill:#2b1712;}.cls-119{fill:#18eaef;}.cls-120{fill:#ff7900;}.cls-121{fill:#281708;}.cls-122{fill:#563c36;}.cls-123{fill:#592c13;}.cls-124{fill:#7c4121;}.cls-125{fill:#653870;}.cls-126{fill:#4b2654;}.cls-127{fill:#91ace8;}.cls-128{fill:#6d91e0;}.cls-129{fill:#2d1e66;}.cls-130{fill:#e6e100;}.cls-131{fill:#422549;}.cls-132{fill:#723c19;}.cls-133{fill:#c42521;}.cls-134{fill:#cc0202;}.cls-135{fill:#b20f0f;opacity:0.35;}.cls-136{fill:#594540;}.cls-137,.cls-142{fill:#97f0ff;}.cls-138{fill:#35180e;}.cls-139{fill:#ff2a00;}.cls-140{fill:#fff;}.cls-141{fill:#4b6568;}.cls-143{fill:#4c0d0c;}.cls-144{fill:#ffaca1;}.cls-145{fill:#f33;}.cls-146{fill:#e03c38;}.cls-147{fill:#fd8b89;}.cls-148{fill:#15332a;}.cls-149{fill:#e7a8a6;}.cls-150{fill:#c5669e;}</style></defs><g id="Group_160" data-name="Group 160"><path id="Path_1" data-name="Path 1" class="cls-1" d="M278.68,72.31c-.75.83-2.34,3.57-3.06,3.81-4.42,1.45-17-.75-17-.75l4.2,3.55s12.28,3.68,18.66.92A20.2,20.2,0,0,0,284,78.15C283,75.73,281.38,73.09,278.68,72.31Z"/><path id="Path_2" data-name="Path 2" class="cls-2" d="M290.44,69.26l-3.51-11.13s-4.73,10.2-8.63,14.48a12.3,12.3,0,0,1,6.8,5.94C289.73,75.31,290.44,69.26,290.44,69.26Z"/><path id="Path_3" data-name="Path 3" class="cls-3" d="M421.56,192.22c0,7-93.62,12.75-209.1,12.75S3.35,199.26,3.35,192.22,97,179.47,212.46,179.47,421.56,185.17,421.56,192.22Z"/><path id="Path_4" data-name="Path 4" class="cls-4" d="M419.69,134.27l-15-25.18h-8.12v26.15Z"/><path id="Path_5" data-name="Path 5" class="cls-5" d="M248.32,86.88c-.25-1-.78-2-1.84-2h-4a2.29,2.29,0,0,0-2.05,1.27l-10.8,21.59h24.12Zm-1.54,3.39h-5c-.66,0-1.15-.48-1-1l.91-2.82a1,1,0,0,1,1-.6H246a1,1,0,0,1,1,.62l.81,2.81C247.92,89.8,247.43,90.27,246.78,90.27Z"/><path id="Path_6" data-name="Path 6" class="cls-6" d="M284.79,176.63c-4.22,0-4.12,1.7-4.12,1.7H293s-.61-5.22-.7-6.45h-2.9C289.1,173.39,288,176.63,284.79,176.63Z"/><path id="Path_7" data-name="Path 7" class="cls-6" d="M307.56,177.26c-3.84,0-4.63-4.56-4.74-5.38h-2.77v.4c0,.56-.72,6.68-.72,6.68h12.35S311.78,177.26,307.56,177.26Z"/><path id="Path_8" data-name="Path 8" class="cls-7" d="M305.78,142l3.94-32.64-1.11-9.67H286.9l-.15,8.52-2.28,33.17S290.13,169,290,169.46h4.1c0-.1-1.15-30.29-1.15-30.29l4.68-26.89,1.83,28.23s-.83,25.44-.85,29h3.86C302.49,169.38,305.78,142,305.78,142Z"/><path id="Path_9" data-name="Path 9" class="cls-8" d="M309.39,59.91a14.18,14.18,0,0,0-12.94-4.15l-7.61,2.73-1.6,13.22-1.34,29,24-.48,1.31-27.52S311.75,62.51,309.39,59.91Z"/><path id="Path_10" data-name="Path 10" class="cls-9" d="M311.22,74.64l-.49-11.8-5.32,11.73-5.34,2.17L289.9,74.31l-1.13.94s4.63,12.4,12.89,14.19c6,1.3,8.43-5.35,9.29-9Z"/><path id="Path_11" data-name="Path 11" class="cls-10" d="M295.21,48.68a60.54,60.54,0,0,1-.57,7.84A2.18,2.18,0,0,0,295.81,59a4.47,4.47,0,0,0,2.61.24c2.82-.53,2.91-3.64,2.91-3.64l-.95-9.47Z"/><path id="Path_12" data-name="Path 12" class="cls-1" d="M300.34,46l-5.17,2.57s0,1.92-.16,4c1.35.07,3.05-.68,4.85-2.94.27-.34.52-.67.75-1Z"/><path id="Path_13" data-name="Path 13" class="cls-10" d="M295.61,34.83a9.08,9.08,0,0,0-2.53,4c-.77,2.48-1.44,4.27-1.44,4.27l.81.52s-.64,3.46-.14,4.63c.77,1.79,4,3.24,7.66-.78s4-7.58,3.35-9.32S297.05,33.94,295.61,34.83Z"/><path id="Path_14" data-name="Path 14" class="cls-11" d="M301.22,38.48a4.44,4.44,0,0,0-4-.84c-2.35.63-3.14-.35-2.68-.85A3.09,3.09,0,0,1,291.74,35c-.76-1.84-.57-7.42,3.07-6.36s2.9,3.57,2.9,3.57,1.16-1.21,2.26-.57a1.57,1.57,0,0,1,1,1.52s1,2.05,2.39,2.32,1.25,3.31,1.25,3.31.81.64.24,2.85-4,5.63-4,6.68a4.49,4.49,0,0,1-.16-3.52c.67-2.16.67-3.43-.05-3.43S301.22,38.48,301.22,38.48Z"/><path id="Path_15" data-name="Path 15" class="cls-10" d="M300.25,43.23s.24-1.82.76-1.82,1,.2.88,1.23-.67,2.17-1.35,1.7a.81.81,0,0,1-.3-1.09Z"/><path id="Path_16" data-name="Path 16" class="cls-11" d="M307.72,38.51a.62.62,0,0,0-.32-.39c-.48-.23-1.13.26-1.56.6l-.08-.1a3.29,3.29,0,0,1,1-.86,1,1,0,0,1,1.37.43l.06.13Z"/><path id="Path_17" data-name="Path 17" class="cls-11" d="M307.29,41a2.16,2.16,0,0,0,0-.84c-.32-1.37-1.83-1.25-1.9-1.29v-.09a2,2,0,0,1,2.45,1.52,1.87,1.87,0,0,1,0,.25,2.26,2.26,0,0,1,0,.58Z"/><ellipse id="Ellipse_1" data-name="Ellipse 1" class="cls-12" cx="294.19" cy="40.44" rx="0.4" ry="0.81"/><path id="Path_18" data-name="Path 18" class="cls-12" d="M295.56,39.58a1.67,1.67,0,0,0-1.86-.27l-.15-.58a1.79,1.79,0,0,1,2.07.32Z"/><path id="Path_19" data-name="Path 19" class="cls-1" d="M300.56,42.51s.3-.62.58-.53.33,1.33-.15,1.85S300.1,43.49,300.56,42.51Z"/><path id="Path_20" data-name="Path 20" class="cls-13" d="M292.58,46.79l.14.89a3.8,3.8,0,0,0,2.71-1.74A3.77,3.77,0,0,1,292.58,46.79Z"/><g id="Group_1" data-name="Group 1"><path id="Path_21" data-name="Path 21" class="cls-14" d="M313.6,45.53h0a.19.19,0,0,1-.13-.21h0c1.87-7.45-3.06-13.09-3.11-13.15a.16.16,0,0,1,0-.24.18.18,0,0,1,.25,0h0c.05.06,5.1,5.84,3.19,13.46A.17.17,0,0,1,313.6,45.53Z"/></g><g id="Group_2" data-name="Group 2"><path id="Path_22" data-name="Path 22" class="cls-14" d="M315.64,55a.21.21,0,0,1-.11,0,.18.18,0,0,1,0-.25c3.32-4,3.29-10.55,3.29-10.62a.18.18,0,0,1,.17-.17.17.17,0,0,1,.18.17c0,.07,0,6.75-3.38,10.85A.16.16,0,0,1,315.64,55Z"/></g><path id="Path_23" data-name="Path 23" class="cls-15" d="M222.35,134.71l10.72,47.9H396.91Z"/><rect id="Rectangle_5" data-name="Rectangle 5" class="cls-16" x="325.03" y="64.51" width="1.8" height="6.91"/><rect id="Rectangle_6" data-name="Rectangle 6" class="cls-16" x="316.41" y="69.49" width="38.48" height="28.76" rx="10.44"/><path id="Path_24" data-name="Path 24" class="cls-17" d="M404.26,134.71H174.77l10.71,47.9H398.76Z"/><path id="Path_25" data-name="Path 25" class="cls-18" d="M163.37,182.6H376.64c-142.76,0-219-42.92-224-47.9Z"/><rect id="Rectangle_7" data-name="Rectangle 7" class="cls-19" x="174.41" y="114.31" width="232.02" height="13.25"/><path id="Rectangle_8" data-name="Rectangle 8" class="cls-20" d="M326.54,69.49h16.69a10.26,10.26,0,0,1,10.26,10.26V88a10.26,10.26,0,0,1-10.26,10.26H326.54A10.26,10.26,0,0,1,316.28,88V79.75a10.26,10.26,0,0,1,10.26-10.26Z"/><path id="Rectangle_9" data-name="Rectangle 9" class="cls-16" d="M319.65,57.86h15.93A3.42,3.42,0,0,1,339,61.28h0a3.42,3.42,0,0,1-3.42,3.41H319.65a3.41,3.41,0,0,1-3.42-3.41h0A3.42,3.42,0,0,1,319.65,57.86Z"/><rect id="Rectangle_10" data-name="Rectangle 10" class="cls-21" x="317.96" y="59.38" width="2.54" height="3.84"/><rect id="Rectangle_11" data-name="Rectangle 11" class="cls-21" x="328.75" y="58.17" width="7.38" height="0.66"/><rect id="Rectangle_12" data-name="Rectangle 12" class="cls-22" x="332.08" y="83.63" width="5.87" height="18.33"/><rect id="Rectangle_13" data-name="Rectangle 13" class="cls-16" x="331.95" y="83.63" width="4.51" height="18.33"/><rect id="Rectangle_14" data-name="Rectangle 14" class="cls-23" x="255.26" y="134.71" width="2.82" height="47.9"/><rect id="Rectangle_15" data-name="Rectangle 15" class="cls-23" x="204.9" y="134.71" width="2.82" height="47.9"/><rect id="Rectangle_16" data-name="Rectangle 16" class="cls-23" x="180.44" y="182.6" width="219.85" height="5.86"/><rect id="Rectangle_17" data-name="Rectangle 17" class="cls-23" x="173.72" y="182.6" width="243.79" height="5.86"/><rect id="Rectangle_18" data-name="Rectangle 18" class="cls-24" x="173.72" y="186.77" width="243.79" height="1.69"/><rect id="Rectangle_19" data-name="Rectangle 19" class="cls-23" x="171.04" y="126.47" width="237.38" height="4.79"/><rect id="Rectangle_20" data-name="Rectangle 20" class="cls-21" x="333.43" y="59.38" width="2.54" height="3.84"/><rect id="Rectangle_21" data-name="Rectangle 21" class="cls-21" x="329.56" y="59.38" width="2.54" height="3.84"/><rect id="Rectangle_22" data-name="Rectangle 22" class="cls-21" x="325.7" y="59.38" width="2.54" height="3.84"/><rect id="Rectangle_23" data-name="Rectangle 23" class="cls-21" x="321.83" y="59.38" width="2.54" height="3.84"/><rect id="Rectangle_24" data-name="Rectangle 24" class="cls-25" x="310.18" y="139.66" width="24.53" height="25.28"/><path id="Path_26" data-name="Path 26" class="cls-23" d="M350.37,137.61h-56A1.42,1.42,0,0,0,293,139h0a1.41,1.41,0,0,0,1.4,1.41h10.44v22.75H294.4a1.4,1.4,0,0,0-1.4,1.4h0a1.41,1.41,0,0,0,1.4,1.41h56.29a14.19,14.19,0,0,0,14.19-13.94,14.46,14.46,0,0,0-14.48-14.44Zm-7.66,25.57H307.65V140.43h35.06Zm8,0h-5.17V140.43h5.17a11.38,11.38,0,0,1,0,22.75Z"/><g id="Group_8" data-name="Group 8"><g id="Group_3" data-name="Group 3"><path id="Path_27" data-name="Path 27" class="cls-26" d="M191.66,109.46c-1-.19-1.9-.42-2.83-.7l.46-12.2c1-.21,1.91-.37,2.88-.49a27.45,27.45,0,0,1,8.34.28,28.75,28.75,0,0,1,3.29.82c0,.11.07.22.11.32l-.44,11.45c0,.1-.08.21-.13.31a31.48,31.48,0,0,1-3.34.57A27.78,27.78,0,0,1,191.66,109.46Z"/><path id="Path_28" data-name="Path 28" class="cls-27" d="M191.66,109.46l.51-13.39a27.45,27.45,0,0,1,8.34.28L200,109.81A27.45,27.45,0,0,1,191.66,109.46Z"/><path id="Path_29" data-name="Path 29" class="cls-28" d="M191.51,101.44l-.22-1,10.57-1.9.21,1Z"/><rect id="Rectangle_26" data-name="Rectangle 26" class="cls-28" x="197.38" y="97.46" width="1" height="8.05" transform="translate(88.94 295.36) rotate(-87.82)"/><path id="Path_30" data-name="Path 30" class="cls-28" d="M191.36,101.85l-.58,1.1,8.42,3.81.58-1.1Z"/><rect id="Rectangle_27" data-name="Rectangle 27" class="cls-28" x="199.43" y="102.33" width="0.87" height="3.45" transform="translate(88.27 299.8) rotate(-87.81)"/></g><g id="Group_7" data-name="Group 7"><path id="Path_31" data-name="Path 31" class="cls-29" d="M191.66,109.46c-1-.19-1.9-.42-2.83-.7l.46-12.2c1-.21,1.91-.37,2.88-.49a27.45,27.45,0,0,1,8.34.28,28.75,28.75,0,0,1,3.29.82c0,.11.07.22.11.32l-.44,11.45c0,.1-.08.21-.13.31a31.48,31.48,0,0,1-3.34.57A27.78,27.78,0,0,1,191.66,109.46Z"/><path id="Path_32" data-name="Path 32" class="cls-27" d="M191.66,109.46l.51-13.39a27.45,27.45,0,0,1,8.34.28L200,109.81A27.45,27.45,0,0,1,191.66,109.46Z"/><path id="Path_33" data-name="Path 33" class="cls-30" d="M201.44,101.67l-3.39-.35a.6.6,0,0,0-.65.53.52.52,0,0,0,0,.3l1.39,3.11a.58.58,0,0,0,.78.3.55.55,0,0,0,.24-.19l2-2.76a.6.6,0,0,0-.13-.83A.65.65,0,0,0,201.44,101.67Z"/><path id="Path_34" data-name="Path 34" class="cls-30" d="M196.66,104.15l-3.39-.35a.59.59,0,0,0-.65.53.52.52,0,0,0,0,.3l1.39,3.11a.59.59,0,0,0,.78.3.63.63,0,0,0,.24-.19l2-2.76a.59.59,0,0,0-.14-.83A.57.57,0,0,0,196.66,104.15Z"/><path id="Path_35" data-name="Path 35" class="cls-30" d="M196.35,98.09,193,97.74a.6.6,0,0,0-.65.53.61.61,0,0,0,.05.3l1.39,3.11a.59.59,0,0,0,.78.3.57.57,0,0,0,.24-.19l2-2.76a.6.6,0,0,0-.13-.83A.57.57,0,0,0,196.35,98.09Z"/><path id="Path_36" data-name="Path 36" class="cls-31" d="M200.47,102.47a.19.19,0,1,1,0-.38.2.2,0,0,1,.18.2.19.19,0,0,1-.2.18Z"/><path id="Path_37" data-name="Path 37" class="cls-31" d="M199.13,103.66a.15.15,0,1,1,.15-.14.15.15,0,0,1-.15.14Z"/><path id="Path_38" data-name="Path 38" class="cls-31" d="M198.74,102.37a.17.17,0,0,1-.16-.17.16.16,0,0,1,.18-.16.17.17,0,0,1,.16.17A.18.18,0,0,1,198.74,102.37Z"/><path id="Path_39" data-name="Path 39" class="cls-31" d="M198.85,99.58a.15.15,0,0,1-.16-.17.17.17,0,1,1,.33,0A.15.15,0,0,1,198.85,99.58Z"/><path id="Path_40" data-name="Path 40" class="cls-31" d="M194.18,98.6a.16.16,0,0,1-.16-.17.17.17,0,0,1,.17-.16.17.17,0,0,1,.16.17h0a.15.15,0,0,1-.17.15Z"/><path id="Path_41" data-name="Path 41" class="cls-31" d="M193.92,100.57a.19.19,0,0,1-.18-.19.2.2,0,0,1,.2-.18.18.18,0,0,1,.17.19.18.18,0,0,1-.19.18Z"/><path id="Path_42" data-name="Path 42" class="cls-31" d="M192.37,102.75a.15.15,0,1,1,0-.29.15.15,0,0,1,.14.15.14.14,0,0,1-.15.14Z"/><path id="Path_43" data-name="Path 43" class="cls-31" d="M195.71,102.59a.16.16,0,0,1-.16-.17.17.17,0,0,1,.17-.17.18.18,0,0,1,.16.18h0A.17.17,0,0,1,195.71,102.59Z"/><path id="Path_44" data-name="Path 44" class="cls-31" d="M195.44,104.78a.19.19,0,0,1-.18-.2.19.19,0,0,1,.19-.18.18.18,0,0,1,.18.2.19.19,0,0,1-.19.18Z"/><path id="Path_45" data-name="Path 45" class="cls-32" d="M199.81,104.48a1.73,1.73,0,1,0-1.79,1.77A1.78,1.78,0,0,0,199.81,104.48Zm-2.91.27a1,1,0,1,1,.92,1.13,1,1,0,0,1-.92-1.13Z"/><g id="Group_4" data-name="Group 4"><path id="Path_46" data-name="Path 46" class="cls-33" d="M195.75,101.62a1.52,1.52,0,0,1-1.4,1.14h0c-.82-.06-1.1-1.07-.8-1.92a1.22,1.22,0,1,1,2.2.78Z"/><path id="Path_47" data-name="Path 47" class="cls-34" d="M195.62,101.92a1.43,1.43,0,0,1-1.27.84h0a1,1,0,0,1-.2-1.1.91.91,0,0,1,1-.69A.83.83,0,0,1,195.62,101.92Z"/><path id="Path_48" data-name="Path 48" class="cls-35" d="M193.83,101.63c.3-.82,1-1.31,1.63-1.09a.9.9,0,0,1,.4.29,1.19,1.19,0,0,0-.68-1.09,1.43,1.43,0,0,0-1.63,1.1,1.65,1.65,0,0,0,.16,1.58A2.11,2.11,0,0,1,193.83,101.63Z"/><path id="Path_49" data-name="Path 49" class="cls-36" d="M195.11,102.33a.4.4,0,1,1-.73-.34.4.4,0,0,1,.5-.21A.42.42,0,0,1,195.11,102.33Z"/></g><g id="Group_5" data-name="Group 5"><path id="Path_50" data-name="Path 50" class="cls-33" d="M198.32,98.39a1.56,1.56,0,0,1,.8,1.63h0c-.26.78-1.3.82-2.07.33a1.22,1.22,0,0,1,.67-2.35,1.23,1.23,0,0,1,.6.39Z"/><path id="Path_51" data-name="Path 51" class="cls-34" d="M198.58,98.59a1.44,1.44,0,0,1,.54,1.43h0A1,1,0,0,1,198,100a.9.9,0,0,1-.43-1.17A.82.82,0,0,1,198.58,98.59Z"/><path id="Path_52" data-name="Path 52" class="cls-35" d="M197.89,100.26a1.42,1.42,0,0,1-.69-1.84.85.85,0,0,1,.38-.32,1.17,1.17,0,0,0-1.22.41,1.43,1.43,0,0,0,.69,1.84,1.68,1.68,0,0,0,1.58.21A1.93,1.93,0,0,1,197.89,100.26Z"/><path id="Path_53" data-name="Path 53" class="cls-36" d="M198.87,99.18a.4.4,0,0,1,.07.57.42.42,0,0,1-.57.07.41.41,0,0,1-.09-.54A.42.42,0,0,1,198.87,99.18Z"/></g><g id="Group_6" data-name="Group 6"><path id="Path_54" data-name="Path 54" class="cls-33" d="M195.33,106.69a1.5,1.5,0,0,1-1.4,1.14h0c-.81-.06-1.1-1.08-.8-1.93s1-1.31,1.63-1.09A1.41,1.41,0,0,1,195.33,106.69Z"/><path id="Path_55" data-name="Path 55" class="cls-34" d="M195.2,107a1.4,1.4,0,0,1-1.26.84h0a1,1,0,0,1-.2-1.1.9.9,0,0,1,1-.69A.83.83,0,0,1,195.2,107Z"/><path id="Path_56" data-name="Path 56" class="cls-35" d="M193.42,106.7c.29-.82,1-1.31,1.63-1.09a1,1,0,0,1,.4.29,1.16,1.16,0,0,0-.69-1.09c-.6-.22-1.33.27-1.63,1.09a1.72,1.72,0,0,0,.16,1.59A1.93,1.93,0,0,1,193.42,106.7Z"/><path id="Path_57" data-name="Path 57" class="cls-36" d="M194.7,107.4a.41.41,0,1,1-.23-.55A.41.41,0,0,1,194.7,107.4Z"/></g></g><rect id="Rectangle_28" data-name="Rectangle 28" class="cls-37" x="198.52" y="102.66" width="11.51" height="1.16" transform="translate(93.32 303.43) rotate(-87.82)"/><rect id="Rectangle_29" data-name="Rectangle 29" class="cls-29" x="201.66" y="105.92" width="4.99" height="1.16" transform="translate(89.94 306.45) rotate(-87.82)"/><rect id="Rectangle_30" data-name="Rectangle 30" class="cls-37" x="182.4" y="102.09" width="12.22" height="1.1" transform="translate(78.77 287.11) rotate(-87.82)"/><rect id="Rectangle_31" data-name="Rectangle 31" class="cls-29" x="183.92" y="103.67" width="9.05" height="1.1" transform="translate(77.14 288.57) rotate(-87.82)"/><path id="Path_58" data-name="Path 58" class="cls-38" d="M196.39,104.8c-3.49-.13-6.11-1.86-6.18-3.87-.12-3.59,2.92-4.55,6.41-4.42s6.31,2.89,6.23,4.9S199.88,104.93,196.39,104.8Z"/><path id="Path_59" data-name="Path 59" class="cls-29" d="M200,109.81a29.09,29.09,0,0,0,3.34-.56c0-.1.09-.21.14-.32l.1-2.77c0,.1-.08.21-.13.32a29.09,29.09,0,0,1-3.34.56A27.71,27.71,0,0,1,188.94,106l-.11,2.77a25.41,25.41,0,0,0,2.83.7A27.16,27.16,0,0,0,200,109.81Z"/></g><g id="Group_12" data-name="Group 12"><path id="Path_60" data-name="Path 60" class="cls-39" d="M207.08,95.94a3.23,3.23,0,0,0-.29,1.34V107a1.06,1.06,0,0,0,1.05,1.06h5.44a1,1,0,0,0,1.05-1.06h0V97.28a3.08,3.08,0,0,0-.29-1.34Z"/><path id="Path_61" data-name="Path 61" class="cls-39" d="M207.08,95.94a3.23,3.23,0,0,0-.29,1.34V107a1.06,1.06,0,0,0,1.05,1.06h5.44a1,1,0,0,0,1.05-1.06h0V97.28a3.08,3.08,0,0,0-.29-1.34Z"/><path id="Path_62" data-name="Path 62" class="cls-40" d="M214.33,97.27V107a1,1,0,0,1-1.05,1.05h-5.44a1,1,0,0,1-1.05-1.05h0V97.27a3.26,3.26,0,0,1,.29-1.34h7A3.26,3.26,0,0,1,214.33,97.27Z"/><path id="Path_63" data-name="Path 63" class="cls-41" d="M214,95.94h-3.5a3.23,3.23,0,0,1,.29,1.34V107a1.06,1.06,0,0,1-1.05,1.06h3.5a1.05,1.05,0,0,0,1.05-1.06h0V97.28A3.23,3.23,0,0,0,214,95.94Z"/><path id="Path_64" data-name="Path 64" class="cls-42" d="M208.23,107V97.27a3.26,3.26,0,0,1,.29-1.34h-1.44a3.26,3.26,0,0,0-.29,1.34V107a1,1,0,0,0,1.05,1.05h1.44a1,1,0,0,1-1.05-1.05Z"/><path id="Path_65" data-name="Path 65" class="cls-43" d="M210.4,97.43c-1.11,0-3.06.59-3.15.9.09.32,2,.88,3.15.9s3-.58,3.15-.9C213.45,98,211.51,97.46,210.4,97.43Z"/><rect id="Rectangle_32" data-name="Rectangle 32" class="cls-43" x="206.79" y="105.04" width="7.55" height="1.2"/><path id="Path_66" data-name="Path 66" class="cls-44" d="M214.33,97.27V107a1,1,0,0,1-1.05,1.05h-2.22a1.05,1.05,0,0,0,1.06-1.05V97.27a3.26,3.26,0,0,0-.29-1.34h2.22A3.25,3.25,0,0,1,214.33,97.27Z"/><path id="Path_67" data-name="Path 67" class="cls-45" d="M214,95.93h-7a.56.56,0,0,1,.55-.56h5.86a.54.54,0,0,1,.55.56Z"/><path id="Rectangle_33" data-name="Rectangle 33" class="cls-46" d="M208.32,94.83h1.29a.54.54,0,0,1,.54.54h-2.34v0A.51.51,0,0,1,208.32,94.83Z"/><path id="Path_68" data-name="Path 68" class="cls-45" d="M209.93,95.7a5.42,5.42,0,0,1-2.47,0A5.42,5.42,0,0,1,209.93,95.7Z"/><g id="Group_10" data-name="Group 10"><path id="Path_69" data-name="Path 69" class="cls-47" d="M211.86,103.66l-2.34-4a2.33,2.33,0,0,0-.81,3.14,2.29,2.29,0,0,0,3.13.88Z"/><g id="Group_9" data-name="Group 9"><path id="Path_70" data-name="Path 70" class="cls-48" d="M210.12,103.35l.3-1.47-1.24.71A1.72,1.72,0,0,0,210.12,103.35Z"/><path id="Path_71" data-name="Path 71" class="cls-48" d="M210.66,102l-.29,1.43a1.76,1.76,0,0,0,1-.1Z"/><path id="Path_72" data-name="Path 72" class="cls-48" d="M210.33,101.63c-.49-.18-.92-.33-1.36-.45a1.78,1.78,0,0,0,.09,1.18Z"/><path id="Path_73" data-name="Path 73" class="cls-48" d="M209.06,100.94c.4.11.8.25,1.23.41l-.65-1.16A1.72,1.72,0,0,0,209.06,100.94Z"/></g></g><path id="Path_74" data-name="Path 74" class="cls-49" d="M212.44,100.83l-3.05,3.49a2.3,2.3,0,0,0,3.22-.21A2.33,2.33,0,0,0,212.44,100.83Z"/><g id="Group_11" data-name="Group 11"><path id="Path_75" data-name="Path 75" class="cls-48" d="M212.69,102.58l-1.48.18,1.06,1A1.81,1.81,0,0,0,212.69,102.58Z"/><path id="Path_76" data-name="Path 76" class="cls-48" d="M211.24,102.5l1.44-.18a1.83,1.83,0,0,0-.43-1Z"/><path id="Path_77" data-name="Path 77" class="cls-48" d="M211,102.92a13.82,13.82,0,0,0,0,1.44,1.75,1.75,0,0,0,1.08-.45Z"/><path id="Path_78" data-name="Path 78" class="cls-48" d="M210.75,104.36c0-.42,0-.84,0-1.31l-.89,1A1.69,1.69,0,0,0,210.75,104.36Z"/></g><path id="Path_79" data-name="Path 79" class="cls-50" d="M211.81,102.13c0,3.08-1.09,5.58-2.42,5.58s-2.41-2.5-2.41-5.58,1.08-5.58,2.41-5.58S211.81,99.05,211.81,102.13Z"/></g><g id="Group_15" data-name="Group 15"><g id="Group_14" data-name="Group 14"><g id="Group_13" data-name="Group 13"><path id="Path_82" data-name="Path 82" class="cls-51" d="M246.94,100.34Z"/><path id="Path_86" data-name="Path 86" class="cls-51" d="M247.83,98.11a5.73,5.73,0,0,0-.52,1,3.1,3.1,0,0,0-.25,1.09H247A3.4,3.4,0,0,1,247,99a6.46,6.46,0,0,1,.34-1.16Z"/></g><path id="Path_87" data-name="Path 87" class="cls-52" d="M250.44,104c-.11.44-.22.87-.35,1.28-.49,1.57-1.16,2.77-2.35,2.77a1.85,1.85,0,0,0-1.46,0c-1.48,0-2.15-1.9-2.7-4a3.39,3.39,0,0,1,.36-3.12,3,3,0,0,1,2.34-.94,1.77,1.77,0,0,0,1.46,0C249.23,100,251.32,100.39,250.44,104Z"/><path id="Path_88" data-name="Path 88" class="cls-53" d="M250.09,105.31c-.49,1.57-1.16,2.77-2.35,2.77a1.85,1.85,0,0,0-1.46,0c-1.48,0-2.15-1.9-2.7-4a3.39,3.39,0,0,1,.36-3.12c.48,1.4,1.28,3.12,2.48,3.81A6,6,0,0,0,250.09,105.31Z"/></g></g><g id="Group_18" data-name="Group 18"><g id="Group_17" data-name="Group 17"><g id="Group_16" data-name="Group 16"><path id="Path_91" data-name="Path 91" class="cls-51" d="M238.41,100.34Z"/><path id="Path_95" data-name="Path 95" class="cls-51" d="M239.31,98.11a5.78,5.78,0,0,0-.53,1,3.33,3.33,0,0,0-.25,1.09h-.07a3.4,3.4,0,0,1,0-1.19,5.71,5.71,0,0,1,.33-1.16Z"/></g><path id="Path_96" data-name="Path 96" class="cls-52" d="M241.92,104c-.11.44-.23.87-.35,1.28-.49,1.57-1.17,2.77-2.35,2.77a1.85,1.85,0,0,0-1.46,0c-1.49,0-2.15-1.9-2.7-4a3.36,3.36,0,0,1,.36-3.12,3,3,0,0,1,2.34-.94,1.77,1.77,0,0,0,1.46,0C240.71,100,242.8,100.39,241.92,104Z"/><path id="Path_97" data-name="Path 97" class="cls-53" d="M241.57,105.31c-.49,1.57-1.17,2.77-2.35,2.77a1.85,1.85,0,0,0-1.46,0c-1.49,0-2.15-1.9-2.7-4a3.37,3.37,0,0,1,.36-3.12c.47,1.4,1.27,3.12,2.47,3.81A6,6,0,0,0,241.57,105.31Z"/></g></g><path id="Path_98" data-name="Path 98" class="cls-54" d="M245,93.16s-5.29,13.73-2.82,14.5,9.24.91,9.87-.43S249.33,88.81,245,93.16Z"/><rect id="Rectangle_34" data-name="Rectangle 34" class="cls-23" x="171.04" y="108.45" width="237.38" height="5.36"/><g id="Group_19" data-name="Group 19"><path id="Path_99" data-name="Path 99" class="cls-55" d="M269.86,74.5c0,.1-.22.2-.59.29a2.42,2.42,0,0,1-.56,1,5.85,5.85,0,0,1-4.27,1.54c-2.4,0-4.39-1.06-4.8-2.45-.59-.1-.93-.22-.93-.35s.31-.25.86-.35a2.46,2.46,0,0,1,1-1.67,6.4,6.4,0,0,1,3.84-1.14c2.64,0,4.8,1.28,4.88,2.88C269.66,74.31,269.86,74.4,269.86,74.5Z"/><path id="Path_100" data-name="Path 100" class="cls-56" d="M268.71,75.76a5.85,5.85,0,0,1-4.27,1.54c-2.4,0-4.39-1.06-4.8-2.45-.59-.1-.93-.22-.93-.35s.31-.25.86-.35a2.43,2.43,0,0,1,1-1.67C263,73.76,266.71,75.58,268.71,75.76Z"/></g><g id="Group_20" data-name="Group 20"><ellipse id="Ellipse_2" data-name="Ellipse 2" class="cls-57" cx="404.66" cy="103.97" rx="4.69" ry="4.16"/><path id="Path_101" data-name="Path 101" class="cls-58" d="M405.36,100.57c0,.09-.24.16-.54.16s-.55-.07-.55-.16.24-.16.55-.16S405.36,100.48,405.36,100.57Z"/><path id="Path_102" data-name="Path 102" class="cls-59" d="M406.51,101.32a.13.13,0,0,1-.13.13.13.13,0,0,1-.14-.13.14.14,0,0,1,.14-.14.13.13,0,0,1,.13.14Z"/><path id="Path_103" data-name="Path 103" class="cls-59" d="M407.56,101.4a.21.21,0,0,1-.21.22.22.22,0,0,1-.22-.22.21.21,0,0,1,.22-.21.21.21,0,0,1,.21.21Z"/><path id="Path_104" data-name="Path 104" class="cls-59" d="M406.75,102a.12.12,0,0,1-.12.12.12.12,0,0,1-.12-.12.14.14,0,0,1,.12-.12.12.12,0,0,1,.12.12Z"/><path id="Path_105" data-name="Path 105" class="cls-59" d="M405.37,102.16a.07.07,0,0,1-.14,0,.08.08,0,0,1,.07-.07h0A.08.08,0,0,1,405.37,102.16Z"/><path id="Path_106" data-name="Path 106" class="cls-59" d="M407.34,103a.09.09,0,0,1-.1.1.11.11,0,0,1-.11-.11.11.11,0,1,1,.21,0Z"/><circle id="Ellipse_3" data-name="Ellipse 3" class="cls-59" cx="408.45" cy="102.54" r="0.12"/><path id="Path_107" data-name="Path 107" class="cls-59" d="M403.81,100.74a.17.17,0,0,1-.18.17.17.17,0,0,1-.17-.17.18.18,0,0,1,.17-.17h0A.18.18,0,0,1,403.81,100.74Z"/><path id="Path_108" data-name="Path 108" class="cls-59" d="M402.68,101.05a.13.13,0,0,1-.14.13.13.13,0,0,1-.13-.13.13.13,0,0,1,.13-.14.14.14,0,0,1,.14.14Z"/><path id="Path_109" data-name="Path 109" class="cls-59" d="M401.73,101.74a.12.12,0,0,1-.12.11.11.11,0,0,1-.12-.11.12.12,0,0,1,.12-.12.12.12,0,0,1,.12.12Z"/><path id="Path_110" data-name="Path 110" class="cls-59" d="M403.46,101.55a.1.1,0,0,1-.1.1.11.11,0,0,1-.1-.1.1.1,0,0,1,.1-.1h0A.09.09,0,0,1,403.46,101.55Z"/><path id="Path_111" data-name="Path 111" class="cls-59" d="M402.68,102.73s-.06.06-.14.06-.13,0-.13-.06.06-.06.13-.06S402.68,102.69,402.68,102.73Z"/></g><path id="Path_112" data-name="Path 112" class="cls-10" d="M258.57,72.36a11,11,0,0,0-1.19,1.7c-.75,1.23.46,2.45.69,2.71a9.71,9.71,0,0,0,1.82,1.49,4.18,4.18,0,0,0,1.44.61c.82.16,3.3-2.92,3.1-3.2s-.32-.34-.53-.28-2.66,1.78-2.66,1.78,2.37-2.43,2.29-3.14-.52-.61-.72-.43-3.06,2.49-3.06,2.49,2.19-2.9,2.13-3.36-.65-.77-1.62.4a18.85,18.85,0,0,1-1.85,1.73s1.33-2.17,1.25-2.86S258.57,72.36,258.57,72.36Z"/><rect id="Rectangle_35" data-name="Rectangle 35" class="cls-60" x="287.37" y="62.8" width="6.53" height="3.92"/><g id="Group_21" data-name="Group 21"><path id="Path_113" data-name="Path 113" class="cls-61" d="M400.73,112H257.57a.85.85,0,0,1,0-1.7H400.73a.85.85,0,0,1,0,1.7Z"/></g><g id="Group_22" data-name="Group 22"><path id="Path_114" data-name="Path 114" class="cls-61" d="M400.73,129.5H257.57a.85.85,0,0,1-.85-.85.84.84,0,0,1,.85-.84H400.73a.84.84,0,0,1,.84.84A.85.85,0,0,1,400.73,129.5Z"/></g><g id="Group_24" data-name="Group 24"><rect id="Rectangle_36" data-name="Rectangle 36" class="cls-62" x="280.89" y="76.34" width="0.41" height="1.45"/><path id="Path_115" data-name="Path 115" class="cls-5" d="M281.48,66s2.4,4.78,2.13,6.77-1.6,4.4-2.67,3.82,0-2.91-.38-4.28-3.05-4.61-3.05-4.61Z"/><path id="Path_116" data-name="Path 116" class="cls-63" d="M281.49,66l-1.1.47c.59,1.25,2.11,4.69,1.9,6.3a6.53,6.53,0,0,1-1.61,3.57.81.81,0,0,0,.27.25c1.06.58,2.39-1.83,2.66-3.82S281.49,66,281.49,66Z"/><path id="Path_117" data-name="Path 117" class="cls-64" d="M282.61,64.29a3.35,3.35,0,0,0-3.26-2.91h0c-1.41,0-7.7,2.06-7.8,2.89l5.36,4.53s5.4-2.45,5.72-3.71A2.38,2.38,0,0,0,282.61,64.29Z"/><path id="Path_118" data-name="Path 118" class="cls-65" d="M271.51,64.27a8.62,8.62,0,0,0,1,2.1,22.69,22.69,0,0,0,4.36,2.43c.43,0-.75-2.65-1.77-3.67S272,63.57,271.51,64.27Z"/><path id="Path_119" data-name="Path 119" class="cls-63" d="M273.73,67a8.62,8.62,0,0,1-1-2.1c.26-.41,1.1-.39,2-.1-1.1-.79-2.79-1.13-3.18-.52a9,9,0,0,0,1,2.1,26.61,26.61,0,0,0,3.9,2.27A19.87,19.87,0,0,1,273.73,67Z"/><path id="Path_120" data-name="Path 120" class="cls-66" d="M279.66,61.73S274,63,273.84,63.42s1.48,1.59,2.29,1.07S279.66,61.73,279.66,61.73Z"/><g id="Group_23" data-name="Group 23"><path id="Path_121" data-name="Path 121" class="cls-62" d="M301.69,106.51c-.61-.06-15-1.43-16.72-5.62a2.84,2.84,0,0,1,.16-2.71,4.64,4.64,0,0,1-2.81-1.48c-1.34-1.55-.52-4.18.87-6.24a2.3,2.3,0,0,1-.9-1c-1.33-3-1.34-11.65-1.34-12h.28c0,.09,0,9,1.32,11.9a1.92,1.92,0,0,0,.8.93,10.78,10.78,0,0,1,1.4-1.62c1-.9,1.76-1.18,2.18-.76a1,1,0,0,1,.17,1.09,3.4,3.4,0,0,1-2.82,1.8,2.16,2.16,0,0,1-.83-.14c-1.28,1.92-2.2,4.46-.92,5.93a4.49,4.49,0,0,0,2.78,1.42,4.15,4.15,0,0,1,.27-.32c1.37-1.37,4.09-1.94,5-1.56a.44.44,0,0,1,.33.4c0,.44-.61.92-1.63,1.3a8.42,8.42,0,0,1-3.85.48,2.51,2.51,0,0,0-.2,2.55c1.68,4,16.33,5.43,16.48,5.45ZM285.64,98a8.12,8.12,0,0,0,3.55-.48c1-.37,1.44-.8,1.44-1,0-.06-.05-.1-.15-.15-.76-.31-3.36.17-4.69,1.5Zm-2-7.62a2.07,2.07,0,0,0,.66.1,3.17,3.17,0,0,0,2.56-1.62.68.68,0,0,0-.11-.79c-.29-.28-1,0-1.78.77a9.74,9.74,0,0,0-1.33,1.54Z"/></g></g><rect id="Rectangle_37" data-name="Rectangle 37" class="cls-17" x="308.47" y="102.55" width="60.9" height="5.64"/><rect id="Rectangle_38" data-name="Rectangle 38" class="cls-19" x="357.31" y="102.55" width="13.25" height="5.64"/><path id="Path_122" data-name="Path 122" class="cls-67" d="M302,74.69A12.49,12.49,0,0,0,303.43,77c1.49,2,4.7,3.83,5.17,3.36l.7-4.93-4.91-2.38Z"/><path id="Path_123" data-name="Path 123" class="cls-10" d="M287,70.42c-1.21-1.21-6.08-1.43-6.43-.69s.35,1,0,1.73.25,1.29.25,1.63.55,1.16,2.57,1.61,2.4-1.17,5.53.52,11.82,7.64,15.2,7.08,8-16,6.37-20.49-5.81-3.94-6.74,1.72-1,11.33-2,11.65S288.2,71.63,287,70.42Z"/><path id="Path_124" data-name="Path 124" class="cls-68" d="M302.2,74.23s7.06,2.11,6.64,5.7c0,0,4.53-11,3.07-17.43s-5.57-4.55-6.32-3.66C302.2,62.88,302.2,74.23,302.2,74.23Z"/><path id="Path_125" data-name="Path 125" class="cls-69" d="M308.24,57.82a3.55,3.55,0,0,0-2.71.87c-2.46,2.11-3.36,12.21-3.65,15.43C301.54,68.68,302.74,56.31,308.24,57.82Z"/><path id="Path_126" data-name="Path 126" class="cls-1" d="M304.17,81.14s.88.22.88.89-2.25,1-2.25.17S304.17,81.14,304.17,81.14Z"/><rect id="Rectangle_39" data-name="Rectangle 39" class="cls-70" x="312" y="147.6" width="18.25" height="5.17"/><g id="Group_109" data-name="Group 109"><g id="Group_101" data-name="Group 101"><g id="Group_72" data-name="Group 72"><rect id="Rectangle_57" data-name="Rectangle 57" class="cls-24" x="66.81" y="160.12" width="8.23" height="1.16" transform="translate(-93.38 98.58) rotate(-45.47)"/></g><g id="Group_73" data-name="Group 73"><rect id="Rectangle_58" data-name="Rectangle 58" class="cls-24" x="64.23" y="148.82" width="8.09" height="1.15" transform="translate(-84.19 88.29) rotate(-43.6)"/></g><g id="Group_74" data-name="Group 74"><rect id="Rectangle_59" data-name="Rectangle 59" class="cls-24" x="74.53" y="160.12" width="8.37" height="1.15" transform="translate(-90.08 101.3) rotate(-44.51)"/></g><g id="Group_75" data-name="Group 75"><rect id="Rectangle_60" data-name="Rectangle 60" class="cls-24" x="60.94" y="137.12" width="8.22" height="1.15" transform="translate(-76.92 82.59) rotate(-43.5)"/></g><path id="Path_298" data-name="Path 298" class="cls-24" d="M125.17,126.94,64.1,118.73l-.86.69,10.44,38.86h43.1a7.08,7.08,0,0,0,1.52-.17l.06-.05.3,0a7,7,0,0,0,5-6.09l2-24.36Zm-15-1.08,9.67,1.3-.6,9.37-9.07-.39Zm-11.83,20.6-8.43-.14-1.11-10.18,9.15.4ZM89,146.3,80,146.15l-2-10.48,9.85.43Zm8.46-22.15.47,11.46-9.22-.4-1.36-12.42Zm-11.06-1.49,1.38,12.51-9.93-.43-2.63-13.58Zm-22-3L74.22,121l2.65,13.67-8.62-.38Zm4.1,15.55,8.57.37,2,10.51L71.37,146Zm5.91,22.1-2.78-10.42,7.66.12,2,10.3Zm7.82,0-2-10.28,8.86.15,1.11,10.13Zm8.9,0L90,147.24l8.37.14.4,10Zm18.12,0H99.71l-.4-10,9.93.16Zm0-10.72-10-.17-.4-9.9,10.38.45Zm0-10.54-10.41-.45-.46-11.38,10.87,1.47Zm8.64,21.17-.25,0a6,6,0,0,1-.85.06h-6.62v-9.78l8.35.13Zm.69-10.48-8.41-.14v-9.58l9,.39Zm4.19,5.07a6,6,0,0,1-3.49,5l-.48.22,0-.53c.08-.8.15-1.93.26-3.55l.34-5.23,3.67.06Zm.41-5-3.68-.06.6-9.31,3.83.16Zm.83-10.13-3.85-.16.6-9.3,4,.54Z"/><g id="Group_76" data-name="Group 76"><rect id="Rectangle_61" data-name="Rectangle 61" class="cls-24" x="92.44" y="159.83" width="7.97" height="1.15" transform="translate(-82.16 104.4) rotate(-41.58)"/></g><g id="Group_92" data-name="Group 92"><rect id="Rectangle_62" data-name="Rectangle 62" class="cls-24" x="102.97" y="159.84" width="7.69" height="1.15" transform="translate(-81.06 117.45) rotate(-43.46)"/><g id="Group_79" data-name="Group 79"><g id="Group_78" data-name="Group 78"><path id="Path_299" data-name="Path 299" class="cls-71" d="M80.81,146.76v12.57a3.17,3.17,0,0,1-3.25,3.07H70a3.16,3.16,0,0,1-3.25-3.07V146.76A3.17,3.17,0,0,1,70,143.68h.38a2.41,2.41,0,0,1-2.48-2.35v-7.5a2.41,2.41,0,0,1,2.23-2.34h7a2.41,2.41,0,0,1,2.48,2.35v7.5a2.41,2.41,0,0,1-2.48,2.35h.38A3.18,3.18,0,0,1,80.81,146.76Z"/><path id="Path_300" data-name="Path 300" class="cls-72" d="M70.51,159.33V146.76a3.17,3.17,0,0,1,3.24-3.08h.39a2.42,2.42,0,0,1-2.49-2.35v-7.5a2.41,2.41,0,0,1,2.24-2.34H70.14a2.41,2.41,0,0,0-2.23,2.34v7.5a2.41,2.41,0,0,0,2.48,2.35H70a3.17,3.17,0,0,0-3.25,3.08v12.57A3.16,3.16,0,0,0,70,162.4h3.74A3.16,3.16,0,0,1,70.51,159.33Z"/><rect id="Rectangle_63" data-name="Rectangle 63" class="cls-73" x="70.14" y="130.24" width="6.66" height="1.37"/><path id="Path_301" data-name="Path 301" class="cls-74" d="M76.49,128.1v2.14h-6V128.1a1.08,1.08,0,0,1,1.12-1h3.79a1.1,1.1,0,0,1,.66.2A1,1,0,0,1,76.49,128.1Z"/><g id="Group_77" data-name="Group 77"><rect id="Rectangle_64" data-name="Rectangle 64" class="cls-75" x="70.46" y="130.26" width="0.31" height="1.35"/><rect id="Rectangle_65" data-name="Rectangle 65" class="cls-75" x="71.11" y="130.26" width="0.31" height="1.35"/><rect id="Rectangle_66" data-name="Rectangle 66" class="cls-75" x="71.76" y="130.26" width="0.31" height="1.35"/><rect id="Rectangle_67" data-name="Rectangle 67" class="cls-75" x="72.42" y="130.26" width="0.31" height="1.35"/><rect id="Rectangle_68" data-name="Rectangle 68" class="cls-75" x="73.07" y="130.26" width="0.31" height="1.35"/><rect id="Rectangle_69" data-name="Rectangle 69" class="cls-75" x="73.72" y="130.26" width="0.31" height="1.35"/><rect id="Rectangle_70" data-name="Rectangle 70" class="cls-75" x="74.37" y="130.26" width="0.31" height="1.35"/><rect id="Rectangle_71" data-name="Rectangle 71" class="cls-75" x="75.02" y="130.26" width="0.31" height="1.35"/><rect id="Rectangle_72" data-name="Rectangle 72" class="cls-75" x="75.68" y="130.26" width="0.31" height="1.35"/><rect id="Rectangle_73" data-name="Rectangle 73" class="cls-75" x="76.33" y="130.26" width="0.31" height="1.35"/></g><rect id="Rectangle_74" data-name="Rectangle 74" class="cls-76" x="68.46" y="146.11" width="10.11" height="13.16"/><path id="Path_302" data-name="Path 302" class="cls-77" d="M78.57,146.11v1.69c-3.48-1-4.17.49-7.07.89a6.4,6.4,0,0,1-3-.24v-2.34Z"/><path id="Path_303" data-name="Path 303" class="cls-77" d="M77.31,158.37a8.42,8.42,0,0,0,1.26-.49v1.39H68.46v-1.88a3.36,3.36,0,0,1,2.67-.24C74.08,157.84,75.39,159,77.31,158.37Z"/><rect id="Rectangle_75" data-name="Rectangle 75" class="cls-77" x="69.21" y="149.49" width="8.4" height="0.93"/><rect id="Rectangle_76" data-name="Rectangle 76" class="cls-77" x="70.66" y="150.97" width="5.5" height="0.33"/><rect id="Rectangle_77" data-name="Rectangle 77" class="cls-77" x="69.46" y="154.67" width="8.47" height="1.06"/></g><path id="Path_304" data-name="Path 304" class="cls-78" d="M80.81,146.76v12.57a3.17,3.17,0,0,1-3.25,3.07H71.43a11.16,11.16,0,0,0,2.27-3.13c.19-.37.37-.76.53-1.16a23.94,23.94,0,0,0,.84-2.38c.1-.34.19-.7.28-1.06.27-1.07.5-2.2.68-3.37l0-.33c0-.18.06-.37.08-.55l.12-.93c.08-.66.15-1.33.2-2,0-.46.07-.92.1-1.38a109.65,109.65,0,0,0-.18-14.5s0-.09,0-.13c0-.3,0-.6-.07-.89,0-.12,0-.23,0-.35-.09-1-.18-2-.27-3a1.06,1.06,0,0,1,.45.86v2.13h.32v1.24h.37a2.41,2.41,0,0,1,2.48,2.35v7.5a2.41,2.41,0,0,1-2.48,2.35h.38A3.17,3.17,0,0,1,80.81,146.76Z"/></g><g id="Group_82" data-name="Group 82"><g id="Group_81" data-name="Group 81"><path id="Path_305" data-name="Path 305" class="cls-71" d="M84.13,151.86v8.39A2.07,2.07,0,0,1,82,162.3H77.16a2.07,2.07,0,0,1-2.1-2.05h0v-8.39a2.08,2.08,0,0,1,2.1-2.06h.25a1.58,1.58,0,0,1-1.6-1.56v-5a1.58,1.58,0,0,1,1.44-1.56h4.54a1.6,1.6,0,0,1,1.6,1.57v5a1.59,1.59,0,0,1-1.6,1.57H82a2.08,2.08,0,0,1,2.1,2Z"/><path id="Path_306" data-name="Path 306" class="cls-72" d="M77.49,160.25v-8.39a2.08,2.08,0,0,1,2.09-2.06h.25a1.58,1.58,0,0,1-1.6-1.56v-5a1.59,1.59,0,0,1,1.44-1.56H77.26a1.58,1.58,0,0,0-1.44,1.56v5a1.57,1.57,0,0,0,1.6,1.56h-.25a2.08,2.08,0,0,0-2.1,2h0v8.39a2.08,2.08,0,0,0,2.1,2.05h2.42a2.06,2.06,0,0,1-2.1-2.05Z"/><rect id="Rectangle_78" data-name="Rectangle 78" class="cls-73" x="77.25" y="140.83" width="4.3" height="0.92"/><path id="Path_307" data-name="Path 307" class="cls-74" d="M81.35,139.4v1.43H77.46V139.4a.7.7,0,0,1,.72-.7h2.44a.71.71,0,0,1,.43.14A.68.68,0,0,1,81.35,139.4Z"/><g id="Group_80" data-name="Group 80"><rect id="Rectangle_79" data-name="Rectangle 79" class="cls-75" x="77.46" y="140.84" width="0.2" height="0.9"/><rect id="Rectangle_80" data-name="Rectangle 80" class="cls-75" x="77.88" y="140.84" width="0.2" height="0.9"/><rect id="Rectangle_81" data-name="Rectangle 81" class="cls-75" x="78.3" y="140.84" width="0.2" height="0.9"/><rect id="Rectangle_82" data-name="Rectangle 82" class="cls-75" x="78.72" y="140.84" width="0.2" height="0.9"/><rect id="Rectangle_83" data-name="Rectangle 83" class="cls-75" x="79.14" y="140.84" width="0.2" height="0.9"/><rect id="Rectangle_84" data-name="Rectangle 84" class="cls-75" x="79.56" y="140.84" width="0.2" height="0.9"/><rect id="Rectangle_85" data-name="Rectangle 85" class="cls-75" x="79.98" y="140.84" width="0.2" height="0.9"/><rect id="Rectangle_86" data-name="Rectangle 86" class="cls-75" x="80.4" y="140.84" width="0.2" height="0.9"/><rect id="Rectangle_87" data-name="Rectangle 87" class="cls-75" x="80.82" y="140.84" width="0.2" height="0.9"/><rect id="Rectangle_88" data-name="Rectangle 88" class="cls-75" x="81.24" y="140.84" width="0.2" height="0.9"/></g><rect id="Rectangle_89" data-name="Rectangle 89" class="cls-76" x="76.17" y="151.42" width="6.53" height="8.78"/><path id="Path_308" data-name="Path 308" class="cls-77" d="M82.69,151.42v1.13c-2.24-.63-2.69.33-4.56.6a4,4,0,0,1-2-.17v-1.56Z"/><path id="Path_309" data-name="Path 309" class="cls-77" d="M81.87,159.61a5.85,5.85,0,0,0,.82-.33v.93H76.17V159a2.07,2.07,0,0,1,1.72-.16C79.79,159.25,80.64,160,81.87,159.61Z"/><rect id="Rectangle_90" data-name="Rectangle 90" class="cls-77" x="76.65" y="153.68" width="5.42" height="0.62"/><rect id="Rectangle_91" data-name="Rectangle 91" class="cls-77" x="77.58" y="154.67" width="3.55" height="0.22"/><rect id="Rectangle_92" data-name="Rectangle 92" class="cls-77" x="76.81" y="157.14" width="5.47" height="0.71"/></g><path id="Path_310" data-name="Path 310" class="cls-78" d="M84.13,151.86v8.39A2.07,2.07,0,0,1,82,162.3h-4a7.57,7.57,0,0,0,1.46-2.09c.12-.25.24-.51.35-.77q.3-.78.54-1.59l.18-.71c.18-.72.32-1.47.44-2.25l0-.22c0-.12,0-.25,0-.37s.06-.41.08-.62c.05-.44.09-.89.13-1.34s0-.61.07-.92a78.2,78.2,0,0,0-.12-9.68.19.19,0,0,0,0-.08c0-.2,0-.4,0-.6s0-.15,0-.23c0-.69-.11-1.36-.17-2a.7.7,0,0,1,.29.57v1.42h.2v.83h.24a1.58,1.58,0,0,1,1.6,1.56v5a1.58,1.58,0,0,1-1.6,1.57H82a2.07,2.07,0,0,1,2.1,2Z"/></g><path id="Path_311" data-name="Path 311" class="cls-79" d="M109.51,154.6c-2.91,1.9-9.83-3.55-15.44-12.17s-7.8-17.15-4.88-19.05,9.83,3.55,15.44,12.17S112.43,152.7,109.51,154.6Z"/><path id="Path_312" data-name="Path 312" class="cls-80" d="M96.76,127.58c-.3-.2-5.11-2.61-6.42-1.31s2.89,2.28,5.29,3.85S101,130.45,96.76,127.58Z"/><path id="Path_313" data-name="Path 313" class="cls-80" d="M101.16,133.3c-.3-.2-5.11-2.62-6.42-1.31s2.89,2.28,5.29,3.85S105.38,136.17,101.16,133.3Z"/><path id="Path_314" data-name="Path 314" class="cls-81" d="M89.71,138l7.89,24.87h11.56l6.7-7.63-11.2-20.79H94.79Z"/><path id="Path_315" data-name="Path 315" class="cls-82" d="M109.16,162.86,94.78,134.44,89.71,138l7.89,24.87Z"/><path id="Path_316" data-name="Path 316" class="cls-83" d="M92.82,139.83a7,7,0,0,0-7.16-5.35l-1.52.09a6.94,6.94,0,0,0-6.55,6.78l-.48,21.81,21.14-.06Zm-3.15,1.63a9.46,9.46,0,0,1-4,.41,10.84,10.84,0,0,1-4.26-.65c-4-1.79,3.52-7.52,8-4.4,1,.71,2.44,3.7.28,4.64Z"/><path id="Path_317" data-name="Path 317" class="cls-84" d="M86.85,148.56a4.18,4.18,0,1,1-4.61-3.71,4.19,4.19,0,0,1,4.61,3.71Z"/><path id="Path_318" data-name="Path 318" class="cls-84" d="M95.24,158.65c0,2.07-2,3.75-4.56,3.75s-4.55-1.68-4.55-3.75,2-3.76,4.55-3.76S95.24,156.57,95.24,158.65Z"/><path id="Path_319" data-name="Path 319" class="cls-85" d="M94.6,151.65a4.82,4.82,0,1,1-5-4.56h.24A4.7,4.7,0,0,1,94.6,151.65Z"/><path id="Path_320" data-name="Path 320" class="cls-85" d="M86.89,158.8c0,1.88-1.9,3.4-4.24,3.4s-4.25-1.52-4.25-3.4,1.9-3.4,4.25-3.4S86.89,156.92,86.89,158.8Z"/><path id="Path_321" data-name="Path 321" class="cls-86" d="M92.82,139.83a7,7,0,0,0-7.16-5.35l-1.52.09a6.94,6.94,0,0,0-6.55,6.78l-.48,21.81,21.14-.06Zm-3.15,1.63a9.46,9.46,0,0,1-4,.41,10.84,10.84,0,0,1-4.26-.65c-4-1.79,3.52-7.52,8-4.4,1,.71,2.44,3.7.28,4.64Z"/><g id="Group_87" data-name="Group 87"><path id="Path_322" data-name="Path 322" class="cls-87" d="M89.76,157.59c2.11,1.8,7.26,5.07,11.69,4.84,4.75-.26,8.76-2,10.5-4.19a79.31,79.31,0,0,1-12.1,1.45C96.59,159.87,92.33,157.7,89.76,157.59Z"/><path id="Path_323" data-name="Path 323" class="cls-88" d="M103.72,138.7a4.34,4.34,0,0,1,.66,1.67c.54,2.78-.8,6.91-3.72,10.65-3.76,4.82-8.81,7.27-11.65,5.77q.38-.31.78-.69l.32-.3A81,81,0,0,0,97.89,147,88.81,88.81,0,0,0,103.72,138.7Z"/><path id="Path_324" data-name="Path 324" class="cls-89" d="M102.55,159.39c5.61-1.57,9.66-5,9.78-8.1a88.21,88.21,0,0,1-9.65,3.25,73.16,73.16,0,0,1-13,2.59C91.13,160,96.65,161,102.55,159.39Z"/><g id="Group_83" data-name="Group 83"><path id="Path_325" data-name="Path 325" class="cls-90" d="M112.3,151.66a22.52,22.52,0,0,1-10.13,5.8c-6.39,1.68-14.4-.37-14.48-.39l0-.11c.08,0,8,2.06,14.42.38a22.26,22.26,0,0,0,10.19-6Z"/></g><g id="Group_85" data-name="Group 85"><path id="Path_326" data-name="Path 326" class="cls-91" d="M102.37,154.56c4.63-3.52,7.13-8.22,6.1-11.13a88.32,88.32,0,0,1-7.76,6.57c-4.29,3.26-10.24,5.62-13,7C90.08,159.13,97.49,158.27,102.37,154.56Z"/><g id="Group_84" data-name="Group 84"><path id="Path_327" data-name="Path 327" class="cls-90" d="M108.59,143.82a23.37,23.37,0,0,1-7.25,8.42C96,156.05,87.8,157,87.72,157v.12l.11,0h0c1-.12,8.52-1.14,13.57-4.72a23.52,23.52,0,0,0,7.21-8.33Z"/></g></g><g id="Group_86" data-name="Group 86"><path id="Path_328" data-name="Path 328" class="cls-90" d="M103.72,138.7a4.34,4.34,0,0,1,.66,1.67,30.39,30.39,0,0,1-4.87,8.3c-2.77,3.52-7.16,6.11-9.72,7.43-1.23.63-2,1-2.06,1l0-.11s1-.42,2.43-1.17c2.59-1.36,6.69-3.86,9.31-7.2A19.07,19.07,0,0,0,103.72,138.7Z"/></g></g><g id="Group_89" data-name="Group 89"><g id="Group_88" data-name="Group 88"><path id="Path_329" data-name="Path 329" class="cls-92" d="M75.16,142.08,74,158.53H68.28l-1.35-16.45Z"/><path id="Path_330" data-name="Path 330" class="cls-93" d="M73.94,158.53v2a1.41,1.41,0,0,1-1.41,1.41H69.69a1.41,1.41,0,0,1-1.41-1.41h0v-2Z"/><rect id="Rectangle_93" data-name="Rectangle 93" class="cls-94" x="66.93" y="140.91" width="8.23" height="1.17"/><path id="Path_331" data-name="Path 331" class="cls-95" d="M74.37,144.72l-.14,1.63-.12,1.46-.64,7.54H68.71L68,147.81l-.14-1.46-.17-1.63Z"/><path id="Path_332" data-name="Path 332" class="cls-96" d="M74.23,146.35l-.12,1.46H68l-.14-1.46Z"/></g><path id="Path_333" data-name="Path 333" class="cls-97" d="M73.47,161.58a1.41,1.41,0,0,1-.94.36H69.69a1.41,1.41,0,0,1-1.41-1.41h0v-2l-1.35-16.45v-1.17h.2c.06.34.12.73.2,1.17.13.76.29,1.66.48,2.64.1.52.21,1.07.32,1.63s.2,1,.31,1.46c.54,2.54,1.2,5.06,2,7.54a33.06,33.06,0,0,0,1.22,3.18,11.8,11.8,0,0,0,1.82,3.05Z"/></g><g id="Group_91" data-name="Group 91"><g id="Group_90" data-name="Group 90"><path id="Path_334" data-name="Path 334" class="cls-98" d="M88.5,155.4l-15.35,6-2.46-5.19L85,148Z"/><path id="Path_335" data-name="Path 335" class="cls-93" d="M73.11,161.33l-1.81.85a1.4,1.4,0,0,1-1.87-.66h0l-1.22-2.58a1.4,1.4,0,0,1,.67-1.86h0l1.81-.85Z"/><rect id="Rectangle_94" data-name="Rectangle 94" class="cls-99" x="86.69" y="147.32" width="1.17" height="8.23" transform="translate(-56.41 51.91) rotate(-25.34)"/><path id="Path_336" data-name="Path 336" class="cls-95" d="M85.78,155.81l-1.53.57-1.37.52-7.09,2.64-2-4.3,6.49-3.91,1.26-.75,1.4-.85Z"/><path id="Path_337" data-name="Path 337" class="cls-96" d="M84.25,156.38l-1.37.52-2.63-5.57,1.25-.75Z"/></g><path id="Path_338" data-name="Path 338" class="cls-97" d="M70.15,162.21a1.42,1.42,0,0,1-.72-.69l-1.22-2.58a1.4,1.4,0,0,1,.66-1.86h0l1.81-.85L85,148l1.06-.5.09.19-1,.67c-.63.44-1.37,1-2.18,1.56l-1.34,1-1.18.9a77.29,77.29,0,0,0-6,5c-.83.78-1.62,1.6-2.36,2.45a12,12,0,0,0-2,3Z"/></g></g><path id="Path_339" data-name="Path 339" class="cls-100" d="M75.74,192.72a3.87,3.87,0,1,0,3.86-3.87A3.86,3.86,0,0,0,75.74,192.72Z"/><circle id="Ellipse_6" data-name="Ellipse 6" class="cls-100" cx="108.28" cy="192.72" r="3.87"/><path id="Path_340" data-name="Path 340" class="cls-100" d="M107.35,185.89a3.87,3.87,0,1,0,3.86-3.87h0a3.86,3.86,0,0,0-3.86,3.87Z"/><circle id="Ellipse_7" data-name="Ellipse 7" class="cls-100" cx="86.43" cy="185.89" r="3.87"/><g id="Group_93" data-name="Group 93"><path id="Path_341" data-name="Path 341" class="cls-24" d="M81.49,183a.77.77,0,0,0,.74-1l-7.1-24.88a.78.78,0,0,0-.95-.53c-.41.12-.61,1.26-.5,1.67l7.07,24.16A.76.76,0,0,0,81.49,183Z"/></g><g id="Group_94" data-name="Group 94"><path id="Path_342" data-name="Path 342" class="cls-101" d="M83.69,185.89a2.74,2.74,0,1,0,2.74-2.75h0A2.75,2.75,0,0,0,83.69,185.89Z"/><path id="Path_343" data-name="Path 343" class="cls-102" d="M85.93,186.89h.86a1,1,0,0,0,1-.9l.76-3.92h-4.2L85,186A1,1,0,0,0,85.93,186.89Z"/><path id="Path_344" data-name="Path 344" class="cls-103" d="M85.66,185.74a.77.77,0,1,0,.77-.77h0A.78.78,0,0,0,85.66,185.74Z"/><path id="Path_345" data-name="Path 345" class="cls-101" d="M108.47,185.89a2.74,2.74,0,1,0,2.74-2.75h0A2.75,2.75,0,0,0,108.47,185.89Z"/><path id="Path_346" data-name="Path 346" class="cls-102" d="M110.7,186.89h.87a1,1,0,0,0,1-.9l.77-3.92h-4.2l.61,3.88A1,1,0,0,0,110.7,186.89Z"/><path id="Path_347" data-name="Path 347" class="cls-103" d="M110.44,185.74a.77.77,0,1,0,.77-.77h0A.78.78,0,0,0,110.44,185.74Z"/></g><path id="Path_348" data-name="Path 348" class="cls-101" d="M105.53,192.72a2.75,2.75,0,1,0,2.75-2.74h0A2.74,2.74,0,0,0,105.53,192.72Z"/><g id="Group_95" data-name="Group 95"><rect id="Rectangle_95" data-name="Rectangle 95" class="cls-24" x="56.58" y="121.62" width="8.33" height="1.15" transform="translate(-66.71 73.45) rotate(-42.64)"/></g><path id="Path_349" data-name="Path 349" class="cls-4" d="M120.19,133.29l5.49-5.71-.51-.64-5.65,5.52Z"/><path id="Path_350" data-name="Path 350" class="cls-4" d="M119.46,142.18l4.2-4.19-.06,1.25-4.25,4.33Z"/><path id="Path_351" data-name="Path 351" class="cls-4" d="M118.63,152.22l4.59-4.7-.06,1.38-4.65,4.57Z"/><path id="Path_352" data-name="Path 352" class="cls-104" d="M63.05,141.39l7.94.35,1.92,9.9-7.14-.12ZM81.86,129l9.47,1.27.44,10.87-8.62-.38Zm-.26,11.7-9.33-.4-2.51-12.93,10.52,1.42Zm10.23,2,.38,9.31-7.84-.13-1.05-9.55Zm1-12.2,10.24,1.38v9.77l-9.81-.42ZM104.66,132l9,1.21c-.17,2.56-.36,5.62-.57,8.79l-8.47-.37Zm10.57,1.42,3.36.45-.68,8.34-3.24-.14Zm2.55,10.32-.71,8.6-3.07-.05.57-8.69Zm-5.31,8.52-7.81-.13v-9l8.37.36c-.19,3-.39,6-.57,8.73Zm-9.35-.15L93.75,152l-.38-9.27,9.75.43Zm0,1.54v9.19H94.19l-.38-9.35Zm-10.47,9.19H85.59l-1-9.5,7.73.13Zm-8.61,0H76.66l-1.87-9.66,8.2.13Zm-9.56-11.21-1.91-9.85,9.2.4,1,9.59Zm-15.6-25.79,9.28,1.25,2.53,13.07-8.06-.35Zm54.45,36.48c.07-.82.15-2,.26-3.67l.32-4.82,3,0-.31,3.74a5.7,5.7,0,0,1-3.31,4.69Zm-2.36.52h-6.31V153.7l7.71.13c-.28,4.26-.5,7.68-.6,9a4.25,4.25,0,0,1-.8.05Zm-44.78-9.8,7,.11,1.88,9.69H68.82ZM57.1,125.16l10.54,39.25H111a7.14,7.14,0,0,0,1.6-.18h0a.44.44,0,0,0,.33-.1,7.26,7.26,0,0,0,5.24-6.36l2-24.48-.67-.82L58,124.19Z"/><path id="Path_353" data-name="Path 353" class="cls-1" d="M125.68,127.58l-5.49,5.71-1.68,20.19,5.42-4.58Z"/><path id="Path_354" data-name="Path 354" class="cls-1" d="M107.77,193.73h.87a1,1,0,0,0,1-.9l.77-3.92h-4.2l.61,3.87A1.05,1.05,0,0,0,107.77,193.73Z"/><g id="Group_96" data-name="Group 96"><path id="Path_355" data-name="Path 355" class="cls-24" d="M75,189.68h36.11a4.14,4.14,0,0,0,3-1.25l3.61-3.69a1.93,1.93,0,0,0-1.37-3.27H81.49a.77.77,0,0,0-.76.78.76.76,0,0,0,.76.76h34.79a.38.38,0,0,1,.38.39.4.4,0,0,1-.11.27l-3.61,3.69a2.64,2.64,0,0,1-1.87.78H75a.77.77,0,0,0-.06,1.54Z"/></g><g id="Group_97" data-name="Group 97"><path id="Path_356" data-name="Path 356" class="cls-104" d="M75,189.68l.2,0a.77.77,0,0,0,.54-.94h0l-7.64-28.16a.76.76,0,0,0-.93-.55h0a.69.69,0,0,0-.44.89l0,0,7.51,28.16A.77.77,0,0,0,75,189.68Z"/></g><path id="Path_357" data-name="Path 357" class="cls-103" d="M107.51,192.57a.77.77,0,1,0,.77-.77h0A.77.77,0,0,0,107.51,192.57Z"/><circle id="Ellipse_8" data-name="Ellipse 8" class="cls-101" cx="79.6" cy="192.72" r="2.74"/><path id="Path_358" data-name="Path 358" class="cls-1" d="M79.1,193.73H80a1.06,1.06,0,0,0,1-.9l.76-3.92H77.5l.62,3.87A1,1,0,0,0,79.1,193.73Z"/><path id="Path_359" data-name="Path 359" class="cls-103" d="M78.83,192.57a.77.77,0,1,0,.77-.77h0A.78.78,0,0,0,78.83,192.57Z"/><g id="Group_98" data-name="Group 98"><path id="Path_360" data-name="Path 360" class="cls-24" d="M63.74,119.88a.64.64,0,0,0,.24,0,.44.44,0,0,0,.32-.53l0-.1-7-11.94-5.5-2.56a.66.66,0,0,0-.79.17.43.43,0,0,0,.11.59l.1,0,5.2,2.42,6.82,11.67A.6.6,0,0,0,63.74,119.88Z"/></g><g id="Group_99" data-name="Group 99"><path id="Path_361" data-name="Path 361" class="cls-104" d="M57.64,125.44a.73.73,0,0,0,.25,0,.68.68,0,0,0,.27-.84l-7-11.72-5.51-2.57a.66.66,0,0,0-.79.17A.43.43,0,0,0,45,111l.1,0,5.2,2.42,6.81,11.65A.65.65,0,0,0,57.64,125.44Z"/></g><g id="Group_100" data-name="Group 100"><path id="Path_362" data-name="Path 362" class="cls-84" d="M45.12,111.3a.79.79,0,0,0,.49-.17l6.5-5.27a.77.77,0,0,0-1-1.2h0l-6.5,5.27a.77.77,0,0,0-.12,1.08.79.79,0,0,0,.6.29Z"/></g></g><path id="Path_363" data-name="Path 363" class="cls-105" d="M51.51,104.71c-.62-.61-1.41-.85-3.41-.85s-7.15-.3-7.54-2.31S43.78,82.3,42,79.62s-3.79-3.84-5.06-1.55c0,0-1.83,27,0,28.87,1.44,1.45,7.33-.2,10.3-.42a3.72,3.72,0,0,0,.68,1.45c.48.47.59,1.38.94,1s0-1.65,0-2.29h0c1.1,1.1.07,3.34.7,3.34s.63-2.58.63-3.28.11,2.08.46,2.08.37-.93.43-1.82c0,.58.12,1.1.24,1C51.61,107.73,52.12,105.33,51.51,104.71Z"/><g id="Group_107" data-name="Group 107"><path id="Path_364" data-name="Path 364" class="cls-84" d="M36.69,116.13s6.75,25.23,7.58,32S37.79,187,37.79,187a12.14,12.14,0,0,0,2.07,3.59c1.17,1.17,3.24.83,3.58,1.79s-8.82,0-10.41,0c0,0,1-3,1.73-5.17S31.86,168,33,161.7a36.45,36.45,0,0,1,2.9-9.58l-11.78-20.4Z"/><path id="Path_365" data-name="Path 365" class="cls-10" d="M38.32,120.7c-8.08-2.87-15.58-8.44-23.78-9.77a22,22,0,0,0-.32,4.93c.55,11.3,8.41,26.6,8.41,26.6A37.89,37.89,0,0,0,19,153.22c-.68,5.23.14,27.84.14,30.32S16.43,192,16.43,192l4.68,3.73.83-3.45a26.29,26.29,0,0,1-.55-5.31c0-2.89,9.46-31.64,9.46-31.64S34.66,127.26,38.32,120.7Z"/><path id="Path_366" data-name="Path 366" class="cls-106" d="M22.84,131.2l12.1,20.36-1.56,5.52,12.2.59V144.43c0-1.76-5.33-29.1-5.33-29.1l-11,1.39Z"/><path id="Path_367" data-name="Path 367" class="cls-107" d="M42,105.59c-5.93-4.06-13.2-5.64-20.51-8-5.34,5.54-8.16,12.94-7.3,21.89.66,6.9,4.63,22.34,4.63,22.34L15,157.08l25,.32,2-28.3A157.69,157.69,0,0,1,42,105.59Z"/><path id="Path_368" data-name="Path 368" class="cls-108" d="M42.07,79c-1-4.14-5.59-7.24-12-7.24s-9.22,3.69-9.22,3.69L21.37,97l-5.27,6c7.31,2.4,17.93,4.65,25.9,2.65C42.86,94.8,42.7,81.52,42.07,79Z"/><g id="Group_105" data-name="Group 105"><path id="Path_369" data-name="Path 369" class="cls-109" d="M34.6,69.21a6.37,6.37,0,0,0,6,.36c3.4-1.51,7.77-4.76,5-10.11a23.74,23.74,0,0,0-7.8-8.38Z"/><path id="Path_370" data-name="Path 370" class="cls-10" d="M36.23,65.12A21.88,21.88,0,0,0,36,67.8a15.74,15.74,0,0,0,.39,5.12c1,2.82-4.84,4.08-6.19,1.14s.84-10,.84-10Z"/><path id="Path_371" data-name="Path 371" class="cls-105" d="M31,64.09l5.21,1A24,24,0,0,0,36,67.8l-.42.12a5.82,5.82,0,0,1-5.12-1.61C30.74,65,31,64.09,31,64.09Z"/><path id="Path_372" data-name="Path 372" class="cls-110" d="M37.82,51.08a6.67,6.67,0,0,1,2,5A20.93,20.93,0,0,0,40,61.42a6.07,6.07,0,0,1-4.51,4.78c-3.08.69-6.76-1.91-6.84-4.36s.22-6.74,2.12-8.68S37.82,51.08,37.82,51.08Z"/><path id="Path_373" data-name="Path 373" class="cls-111" d="M37.82,51.08S31.16,56,29.67,58.9s2.42,6.89,2.13,8.49-5.7,5.3-7.86,3.35-.66-5.15-.66-5.15-4,.12-3.83-3.07,2.79-7.56,6.43-9.68C33.69,48.3,37.82,51.08,37.82,51.08Z"/><path id="Path_374" data-name="Path 374" class="cls-109" d="M19.43,60.55C22.08,51.69,33,48.2,37.82,51.08c-4.89-2.26-15.08,1.5-17.67,9.66-.31,1.13-.58,2.39,0,3.3a3.84,3.84,0,0,0,3.11,1.33h.36c0,.16-1.8,3.21.3,5.36-1.46-1.17-1.57-3.22-1-4.93a4.17,4.17,0,0,1-3.34-1.42C18.82,63.32,19.09,61.83,19.43,60.55Z"/><path id="Path_375" data-name="Path 375" class="cls-110" d="M30.81,58.09a1.18,1.18,0,0,0-1.22-1.15,1.13,1.13,0,0,0-.48.11c-1.59.5-.82,3,.23,3.28S30.81,58.09,30.81,58.09Z"/><g id="Group_102" data-name="Group 102"><path id="Path_376" data-name="Path 376" class="cls-13" d="M34.75,62.63c-1.23-.24-1.75-.74-1.59-.65-.1-.09-.24.06-.14.15s.72.83,3.46.85a.1.1,0,0,0,.1-.1.11.11,0,0,0-.1-.1A16.59,16.59,0,0,1,34.75,62.63Z"/></g><g id="Group_103" data-name="Group 103"><path id="Path_377" data-name="Path 377" class="cls-13" d="M35,63.52a.1.1,0,0,0,.11-.09.11.11,0,0,0-.1-.11,2.27,2.27,0,0,1-1-.29c-.17-.16-.58.37,1,.49Z"/></g><g id="Group_104" data-name="Group 104"><path id="Path_378" data-name="Path 378" class="cls-13" d="M36.23,60.62c-.07-.32-.32-.88-.67-.8a3.79,3.79,0,0,0-1,.44c.35,0,.68-.2,1-.25C35.76,59.9,35.93,60.25,36.23,60.62Z"/></g><path id="Path_379" data-name="Path 379" class="cls-13" d="M37.69,59.11a.48.48,0,0,0,.41.55.48.48,0,0,0,.55-.41.49.49,0,0,0-.41-.55h-.07A.45.45,0,0,0,37.69,59.11Z"/><path id="Path_380" data-name="Path 380" class="cls-13" d="M34.07,58.79a.46.46,0,0,1-.55.33.45.45,0,0,1-.4-.49h0a.46.46,0,0,1,.55-.33.45.45,0,0,1,.4.49Z"/><path id="Path_381" data-name="Path 381" class="cls-109" d="M39.06,57c.7.11.62.56.62.56a5.07,5.07,0,0,1-.69-.29H37.24A4.9,4.9,0,0,1,39.06,57Z"/><path id="Path_382" data-name="Path 382" class="cls-109" d="M33.55,56.28c-.7-.06-.74.4-.74.4a4.57,4.57,0,0,0,.74-.12l1.7.41A4.69,4.69,0,0,0,33.55,56.28Z"/></g><path id="Path_383" data-name="Path 383" class="cls-112" d="M21.94,192.23s-.11-.49-.24-1.3a13.51,13.51,0,0,1-4.44-.9c-.46,1.14-.84,1.93-.84,1.93l4.69,3.72Z"/><path id="Path_384" data-name="Path 384" class="cls-112" d="M39.86,190.58l-.08-.08a9.86,9.86,0,0,1-2.27,1A18.53,18.53,0,0,1,33.83,190c-.43,1.3-.8,2.36-.8,2.36,1.59,0,10.76,1,10.41,0S41,191.75,39.86,190.58Z"/><g id="Group_106" data-name="Group 106"><path id="Path_385" data-name="Path 385" class="cls-113" d="M25,138.16H23.84c0-5.48-2.51-9.94-5.6-9.94s-5.61,4.46-5.61,9.94H11.51c0-6.2,3-11.07,6.73-11.07S25,132,25,138.16Z"/></g><path id="Path_386" data-name="Path 386" class="cls-10" d="M17.85,101a52.54,52.54,0,0,1,3.9-10.35c2.45-4.87,1.85-10.46-.9-15.17-4.32,6.88-9,17.49-10.14,23.77-1.25,6.77,5.44,17.69,6.57,21.71s-1.64,6.69-.74,8.47,1.78.88,2.54,1.08a3.63,3.63,0,0,0,2.8-.43c.32-.32-1.09-6.78-1.09-8.79S16,108.31,17.85,101Z"/><path id="Path_387" data-name="Path 387" class="cls-114" d="M7.09,136.15l20.73.06,1.93,17.9H3.35Z"/><path id="Path_388" data-name="Path 388" class="cls-113" d="M9.79,136.15l.77,18H3.35l3.74-18Z"/><path id="Path_389" data-name="Path 389" class="cls-115" d="M12.63,138.16l1.69,13.73,14.6.38-12.37-1.88Z"/><path id="Path_390" data-name="Path 390" class="cls-105" d="M30.25,58.29S29.79,57,29,57.51s-.11,2.3.44,2.1a1.1,1.1,0,0,0,.87-1.29Z"/></g><g id="Group_108" data-name="Group 108"><path id="Path_391" data-name="Path 391" class="cls-116" d="M7,106.28a.29.29,0,0,1-.29-.28c0-13.19,4.44-18.39,4.63-18.6a.28.28,0,0,1,.4,0,.29.29,0,0,1,0,.4h0S7.24,93.05,7.24,106a.29.29,0,0,1-.28.28Z"/></g></g><g id="Group_128" data-name="Group 128"><g id="Group_113" data-name="Group 113"><rect id="Rectangle_96" data-name="Rectangle 96" class="cls-117" x="169.09" y="87.55" width="23.64" height="6.8" transform="translate(-10.41 157.26) rotate(-45.81)"/><path id="Path_392" data-name="Path 392" class="cls-118" d="M173.25,98.81c1.27,1.24,2.07,2.53,1.85,3l-4.88-4.74C170.68,96.82,172,97.58,173.25,98.81Z"/><path id="Path_393" data-name="Path 393" class="cls-118" d="M191.58,84.84c-.48.17-1.76-.59-3-1.79s-2-2.46-1.87-3Z"/><path id="Path_394" data-name="Path 394" class="cls-119" d="M187.6,86.37,176.2,98.09a1.23,1.23,0,0,1-1.75,0l-.61-.59a1.23,1.23,0,0,1,0-1.75L185.22,84A1.24,1.24,0,0,1,187,84l.61.59A1.25,1.25,0,0,1,187.6,86.37Z"/><g id="Group_110" data-name="Group 110"><path id="Path_395" data-name="Path 395" class="cls-119" d="M181.31,95.41l-.72.74-7.16-2.4.72-.74Z"/></g><g id="Group_111" data-name="Group 111"><path id="Path_396" data-name="Path 396" class="cls-119" d="M183.77,92.88l-.72.74-7.15-2.4.71-.74Z"/></g><g id="Group_112" data-name="Group 112"><path id="Path_397" data-name="Path 397" class="cls-119" d="M182.52,94.17l-.72.73-7.15-2.4.71-.73Z"/></g><path id="Path_398" data-name="Path 398" class="cls-120" d="M183.88,87.29h0a.16.16,0,0,1,.09.14v0a.16.16,0,0,1-.08.14h0a.16.16,0,0,0-.09.12v0a.16.16,0,0,0,0,.14h0a.15.15,0,0,1,0,.16v0a.14.14,0,0,1-.12.1h0a.17.17,0,0,0-.12.08v0a.14.14,0,0,0,0,.15h0a.16.16,0,0,1,0,.16v0a.17.17,0,0,1-.15,0h0a.14.14,0,0,0-.14,0h0a.2.2,0,0,0-.06.14h0a.14.14,0,0,1-.07.14h0a.15.15,0,0,1-.16,0h0a.17.17,0,0,0-.14,0h0a.16.16,0,0,0-.1.1h0a.14.14,0,0,1-.12.11h0a.14.14,0,0,1-.15-.06h0a.16.16,0,0,0-.13-.06h0a.16.16,0,0,0-.13.06h0a.14.14,0,0,1-.15.06h0a.17.17,0,0,1-.13-.1h0a.13.13,0,0,0-.1-.1h0a.16.16,0,0,0-.15,0h0a.15.15,0,0,1-.16,0h0a.18.18,0,0,1-.08-.15h0a.16.16,0,0,0-.06-.13l0,0a.17.17,0,0,0-.14,0h0a.14.14,0,0,1-.16-.05v0a.15.15,0,0,1,0-.16h0a.17.17,0,0,0,0-.14l0,0a.15.15,0,0,0-.12-.08h0a.17.17,0,0,1-.13-.1v0a.15.15,0,0,1,0-.16h0a.15.15,0,0,0,0-.14v0a.17.17,0,0,0-.09-.11h0a.17.17,0,0,1-.09-.14v0a.17.17,0,0,1,.08-.14h0a.14.14,0,0,0,.09-.11v0a.15.15,0,0,0-.05-.13h0a.16.16,0,0,1,0-.16v0a.14.14,0,0,1,.12-.1h0a.14.14,0,0,0,.12-.08v0a.14.14,0,0,0,0-.14h0a.13.13,0,0,1,0-.16l0,0a.14.14,0,0,1,.15-.06h0a.17.17,0,0,0,.14,0l0,0a.13.13,0,0,0,.05-.13h0a.16.16,0,0,1,.08-.14l0,0a.15.15,0,0,1,.16,0h0a.16.16,0,0,0,.15,0h0a.16.16,0,0,0,.1-.11h0a.15.15,0,0,1,.12-.1h0a.17.17,0,0,1,.15,0h0a.17.17,0,0,0,.13.07h0a.15.15,0,0,0,.12-.07h0a.16.16,0,0,1,.15-.06h0a.15.15,0,0,1,.12.11h0a.24.24,0,0,0,.1.1h0a.17.17,0,0,0,.14,0h0a.15.15,0,0,1,.16,0l0,0a.14.14,0,0,1,.09.14h0a.14.14,0,0,0,.06.13l0,0a.17.17,0,0,0,.14,0h0a.13.13,0,0,1,.15,0l0,0a.15.15,0,0,1,0,.16h0a.14.14,0,0,0,0,.14v0a.14.14,0,0,0,.12.08h0a.17.17,0,0,1,.13.1v0a.16.16,0,0,1,0,.16h0a.15.15,0,0,0,0,.13v0A.2.2,0,0,0,183.88,87.29Z"/><path id="Path_399" data-name="Path 399" class="cls-120" d="M187.73,86.65h0a.16.16,0,0,1,.08.14v0a.16.16,0,0,1-.08.14h0a.15.15,0,0,0-.08.11v0a.15.15,0,0,0,0,.13h0a.17.17,0,0,1,0,.16v0a.17.17,0,0,1-.13.1h0a.14.14,0,0,0-.12.08v0a.17.17,0,0,0,0,.14h0a.18.18,0,0,1,0,.16l0,0a.15.15,0,0,1-.15.06h0a.17.17,0,0,0-.14,0l0,0a.13.13,0,0,0-.05.13h0a.15.15,0,0,1-.08.14l0,0a.15.15,0,0,1-.16,0h0a.2.2,0,0,0-.15,0h0a.16.16,0,0,0-.1.11h0a.19.19,0,0,1-.12.11h0a.14.14,0,0,1-.15-.06h0a.17.17,0,0,0-.13-.07h0a.19.19,0,0,0-.12.07h0a.16.16,0,0,1-.15.06h0a.14.14,0,0,1-.12-.11h0a.24.24,0,0,0-.1-.1h0a.17.17,0,0,0-.14,0h0a.12.12,0,0,1-.16,0h0a.16.16,0,0,1-.08-.14h0a.16.16,0,0,0-.06-.13l0,0a.17.17,0,0,0-.14,0h0a.13.13,0,0,1-.15,0l0,0a.15.15,0,0,1,0-.16h0a.14.14,0,0,0,0-.14v0a.15.15,0,0,0-.12-.07h0a.17.17,0,0,1-.13-.1v0a.16.16,0,0,1,0-.16h0a.18.18,0,0,0,0-.13v0a.14.14,0,0,0-.09-.11h0a.16.16,0,0,1-.08-.14v0a.14.14,0,0,1,.08-.14h0a.15.15,0,0,0,.08-.11v0a.18.18,0,0,0,0-.14h0a.16.16,0,0,1,0-.16v0a.17.17,0,0,1,.12-.1h0a.17.17,0,0,0,.12-.08l0,0a.2.2,0,0,0,0-.15h0a.14.14,0,0,1,0-.16v0a.18.18,0,0,1,.16,0h0a.15.15,0,0,0,.13,0l0,0a.18.18,0,0,0,.06-.13h0a.15.15,0,0,1,.07-.15h0a.15.15,0,0,1,.16,0h0a.17.17,0,0,0,.14,0h0a.22.22,0,0,0,.1-.11h0a.14.14,0,0,1,.12-.11h0a.18.18,0,0,1,.16,0h0a.13.13,0,0,0,.12.07h0a.17.17,0,0,0,.13-.07h0a.16.16,0,0,1,.15-.06h0a.16.16,0,0,1,.13.11h0a.14.14,0,0,0,.1.1h0a.2.2,0,0,0,.15,0h0a.15.15,0,0,1,.16,0h0a.15.15,0,0,1,.08.14h0a.16.16,0,0,0,.06.13l0,0a.15.15,0,0,0,.14,0h0a.18.18,0,0,1,.16,0l0,0a.16.16,0,0,1,0,.16h0a.16.16,0,0,0,0,.15v0a.2.2,0,0,0,.12.08h0a.14.14,0,0,1,.13.1v0a.15.15,0,0,1,0,.16h0a.18.18,0,0,0,0,.14v0A.16.16,0,0,0,187.73,86.65Z"/><path id="Path_400" data-name="Path 400" class="cls-120" d="M183.62,90.94h0a.16.16,0,0,1,.08.14v0a.14.14,0,0,1-.08.14h0a.15.15,0,0,0-.08.11v0a.15.15,0,0,0,0,.13h0a.17.17,0,0,1,0,.16v0a.17.17,0,0,1-.13.1h0a.15.15,0,0,0-.11.08l0,0a.19.19,0,0,0,0,.15h0a.14.14,0,0,1,0,.16l0,0a.16.16,0,0,1-.15.05h0a.17.17,0,0,0-.14,0l0,0a.14.14,0,0,0-.05.13h0a.18.18,0,0,1-.08.15h0a.15.15,0,0,1-.16,0h0a.18.18,0,0,0-.14,0h0a.16.16,0,0,0-.1.11h0a.15.15,0,0,1-.12.11h0a.16.16,0,0,1-.15-.06h0a.16.16,0,0,0-.13-.06h0a.16.16,0,0,0-.13.06h0a.15.15,0,0,1-.15.06h0a.15.15,0,0,1-.12-.1h0a.16.16,0,0,0-.1-.1h0a.14.14,0,0,0-.14,0h0a.15.15,0,0,1-.16,0l0,0a.15.15,0,0,1-.08-.14h0a.16.16,0,0,0-.06-.13l0,0a.17.17,0,0,0-.14,0h0a.13.13,0,0,1-.15,0l0,0a.15.15,0,0,1,0-.16h0a.14.14,0,0,0,0-.14v0a.15.15,0,0,0-.12-.07h0a.17.17,0,0,1-.13-.1v0a.16.16,0,0,1,0-.16h0a.15.15,0,0,0,0-.13v0a.14.14,0,0,0-.09-.11h0a.16.16,0,0,1-.08-.14v0a.16.16,0,0,1,.08-.14h0a.15.15,0,0,0,.08-.11v0a.18.18,0,0,0,0-.14h0a.16.16,0,0,1,0-.16v0a.17.17,0,0,1,.13-.1h0a.15.15,0,0,0,.11-.08l0,0a.19.19,0,0,0,0-.15h0a.14.14,0,0,1,0-.16l0,0a.16.16,0,0,1,.15,0h0a.17.17,0,0,0,.14,0l0,0a.19.19,0,0,0,.05-.13h0a.18.18,0,0,1,.08-.15h0a.15.15,0,0,1,.16,0h0a.18.18,0,0,0,.14,0h0a.18.18,0,0,0,.1-.11h0a.15.15,0,0,1,.12-.11h0a.16.16,0,0,1,.15.06h0a.16.16,0,0,0,.13.06h0a.16.16,0,0,0,.13-.06h0a.15.15,0,0,1,.15-.06h0a.15.15,0,0,1,.12.1h0a.16.16,0,0,0,.1.1h0a.14.14,0,0,0,.14,0h0a.15.15,0,0,1,.16,0l0,0a.15.15,0,0,1,.08.14h0a.14.14,0,0,0,.06.13h0a.14.14,0,0,0,.14,0h0a.13.13,0,0,1,.15,0l0,0a.15.15,0,0,1,0,.16h0a.14.14,0,0,0,0,.14v0a.16.16,0,0,0,.12.08h0a.15.15,0,0,1,.13.1v0a.15.15,0,0,1,0,.16h0a.18.18,0,0,0,0,.14v0A.14.14,0,0,0,183.62,90.94Z"/><path id="Path_401" data-name="Path 401" class="cls-121" d="M181.28,87.33a.14.14,0,0,1,0,.18.11.11,0,0,1-.17,0,.13.13,0,0,1,.18-.18Z"/><path id="Path_402" data-name="Path 402" class="cls-121" d="M181.83,86.6a.18.18,0,0,1-.25.25.2.2,0,0,1,0-.25.18.18,0,0,1,.25,0Z"/><path id="Path_403" data-name="Path 403" class="cls-121" d="M182.34,87.92a.15.15,0,0,1,0,.23.16.16,0,0,1-.23-.23.15.15,0,0,1,.23,0Z"/><path id="Path_404" data-name="Path 404" class="cls-121" d="M182.74,87a.23.23,0,1,1-.32,0,.22.22,0,0,1,.32,0Z"/><path id="Path_405" data-name="Path 405" class="cls-121" d="M181.43,88.12a.11.11,0,0,1,0,.14.09.09,0,0,1-.13,0h0a.09.09,0,0,1,0-.13.1.1,0,0,1,.13,0Z"/><path id="Path_406" data-name="Path 406" class="cls-121" d="M183.21,88.1a.17.17,0,1,1-.24,0,.16.16,0,0,1,.24,0Z"/><path id="Path_407" data-name="Path 407" class="cls-121" d="M181.38,90.39a.22.22,0,0,1-.31.31.21.21,0,0,1,0-.31A.23.23,0,0,1,181.38,90.39Z"/><path id="Path_408" data-name="Path 408" class="cls-121" d="M181.88,91.48a.23.23,0,0,1,0,.31.22.22,0,0,1-.31,0,.22.22,0,0,1,.31-.31Z"/><path id="Path_409" data-name="Path 409" class="cls-121" d="M181.09,91.06a.13.13,0,1,1-.19,0h0A.14.14,0,0,1,181.09,91.06Z"/><path id="Path_410" data-name="Path 410" class="cls-121" d="M182.55,90.86a.23.23,0,1,1-.31.1.1.1,0,0,1,0,0A.19.19,0,0,1,182.55,90.86Z"/><path id="Path_411" data-name="Path 411" class="cls-121" d="M182,90.43a.08.08,0,0,1-.11.11.08.08,0,1,1,.11-.11Z"/><path id="Path_412" data-name="Path 412" class="cls-121" d="M182.67,91.71a.19.19,0,0,1,0,.26.18.18,0,0,1-.27,0,.19.19,0,0,1,0-.26A.2.2,0,0,1,182.67,91.71Z"/><path id="Path_413" data-name="Path 413" class="cls-121" d="M182.66,90.34a.13.13,0,0,1,0,.19.13.13,0,0,1-.19-.19.13.13,0,0,1,.19,0Z"/><path id="Path_414" data-name="Path 414" class="cls-121" d="M183,91.29a.1.1,0,0,1,0,.14.11.11,0,0,1-.14,0,.11.11,0,0,1,0-.15h0A.1.1,0,0,1,183,91.29Z"/><path id="Path_415" data-name="Path 415" class="cls-121" d="M185.55,86.05a.18.18,0,1,1-.26,0,.19.19,0,0,1,.26,0Z"/><path id="Path_416" data-name="Path 416" class="cls-121" d="M185.18,87.49a.15.15,0,1,1-.21,0,.17.17,0,0,1,.21,0Z"/><path id="Path_417" data-name="Path 417" class="cls-121" d="M186.31,87.08a.21.21,0,0,1,0,.29.22.22,0,0,1-.3,0,.23.23,0,0,1,0-.29.21.21,0,0,1,.3,0Z"/><path id="Path_418" data-name="Path 418" class="cls-121" d="M186.43,86.55a.08.08,0,1,1-.11,0,.07.07,0,0,1,.11,0Z"/><path id="Path_419" data-name="Path 419" class="cls-121" d="M186.75,85.71a.14.14,0,0,1,0,.17.12.12,0,0,1-.16,0,.12.12,0,0,1,0-.17.12.12,0,0,1,.16,0Z"/><path id="Path_420" data-name="Path 420" class="cls-121" d="M187,87.29a.08.08,0,0,1,0,.12.09.09,0,0,1-.12,0,.08.08,0,0,1,0-.12h0A.08.08,0,0,1,187,87.29Z"/><path id="Path_421" data-name="Path 421" class="cls-121" d="M186.37,87.87a.11.11,0,1,1-.15,0,.11.11,0,0,1,.15,0Z"/><path id="Path_422" data-name="Path 422" class="cls-121" d="M185.45,86.9a.12.12,0,0,1,0,.15.1.1,0,0,1-.15-.14h0A.1.1,0,0,1,185.45,86.9Z"/><path id="Path_423" data-name="Path 423" class="cls-121" d="M186.14,86.13a0,0,0,1,1-.07,0s0,0,.06,0Z"/><path id="Path_424" data-name="Path 424" class="cls-121" d="M187.08,86.69a.14.14,0,0,1-.05.18.14.14,0,0,1-.18-.05.12.12,0,0,1,0-.15A.16.16,0,0,1,187.08,86.69Z"/><path id="Path_425" data-name="Path 425" class="cls-121" d="M185,86.55s0,.08,0,.12-.1.06-.12,0a.1.1,0,0,1,0-.12C184.93,86.53,185,86.52,185,86.55Z"/><path id="Path_426" data-name="Path 426" class="cls-122" d="M184.09,87.69c1,1-.54,4.3-3.51,7.36s-6.22,4.71-7.25,3.71.54-4.3,3.51-7.35S183.05,86.69,184.09,87.69Z"/></g><g id="Group_118" data-name="Group 118"><path id="Path_427" data-name="Path 427" class="cls-123" d="M161.83,93.05c.37,1.66,9.19,14.3,9.86,14.91a18.72,18.72,0,0,0,5,2c1,.17,2.45.42,2.32.71s-2-.13-2.35,0-.35.26,1.48.77,2.05.9,1.9,1.22-3.48-1-3.43-.78a22.51,22.51,0,0,0,3.24,1.84c.5.25.4.6,0,.78a2.93,2.93,0,0,1-1.25-.41,22.88,22.88,0,0,0-2.89-1.44s1.66.9,2.89,1.44c.49.32.81.62.72.83-.3.65-4.7-1.69-5.2-1.94s-1.45.47-1.32,1.1,1.38.71,1.55,1.48-1.66.62-2.5-.36-.82-4.08-3-6.12-9.25-9.78-12.63-15.77c-1.7-3-2.6-11.43-1.84-16.3a19.93,19.93,0,0,0-.72-8.91S161.5,91.58,161.83,93.05Z"/><path id="Path_428" data-name="Path 428" class="cls-124" d="M152.41,190.27l11.5-.13s-7.25-1.62-8-4.25a23.24,23.24,0,0,1,.18-5,12.45,12.45,0,0,0-2.85.32c.18,3,.29,5,.29,5Z"/><path id="Path_429" data-name="Path 429" class="cls-63" d="M135.21,93.75s-1.06,4.38,0,6.75,6.94,1.5,6.94,1.5l-1.93-10.06Z"/><path id="Path_430" data-name="Path 430" class="cls-125" d="M139.21,87.25l-2.1.35A3.27,3.27,0,0,0,134.48,90L133,95.82h6.25Z"/><path id="Path_431" data-name="Path 431" class="cls-58" d="M136,77.49s-.6,19.7,3.58,23.89,9.92,1.25,9.92,1.25L148.41,74Z"/><path id="Path_432" data-name="Path 432" class="cls-126" d="M137.86,77c.77,3.31,4.71,13.52,5.48,15.72,1.08,3.13-.66,7-2,10,3.88,2.14,8.18-.06,8.18-.06L148.41,74Z"/><path id="Path_433" data-name="Path 433" class="cls-114" d="M146.72,64.53s-10.53.39-12.14,2-2.12,15.1-2.12,15.1h15.48S148.36,64.45,146.72,64.53Z"/><path id="Path_434" data-name="Path 434" class="cls-113" d="M146.72,64.53s-1.23.39-3,.75a7.57,7.57,0,0,0-5.15,3.66,5.29,5.29,0,0,0-.74,2.6c0,3.56-.19,8.46-.25,10.08h10.33S148.37,64.45,146.72,64.53Z"/><path id="Path_435" data-name="Path 435" class="cls-124" d="M136.53,187.4l-3.9,4,1,3.67,4.7-5.94a67.8,67.8,0,0,1,1.76-8.09,27.87,27.87,0,0,0-3.76-.29C136.45,185.1,136.53,187.4,136.53,187.4Z"/><path id="Path_436" data-name="Path 436" class="cls-127" d="M160.16,149.88l2.73-35.41c-7.81,1.39-15.44-2.08-22.17-5.83a29,29,0,0,0-1.51,10.75l1.38,28.87a19.15,19.15,0,0,0-4.06,9.88c-.4,3.83-.63,15.38-.49,23a42.51,42.51,0,0,1,4.51.3c2.76-10.22,6.48-26.37,6.48-29.29,0-4.38,3.3-30.51,3.3-30.51h2.08l1.13,27.63s-2.38,3.63-1.63,12.38c.48,5.62.18,14.38.5,19.79a20.79,20.79,0,0,1,3.68-.53C157,170.91,160.16,149.88,160.16,149.88Z"/><g id="Group_114" data-name="Group 114"><path id="Path_437" data-name="Path 437" class="cls-128" d="M146.12,111.41l-.73-.34-1.8,33.13-5.94,37,.75,0,5.93-36.94Z"/></g><path id="Path_438" data-name="Path 438" class="cls-128" d="M140.72,108.63c-.31.92-.58,1.86-.8,2.8,6.65,3.46,15.13,7,22.7,6.37l.26-3.34C155.08,115.86,147.45,112.39,140.72,108.63Z"/><path id="Path_439" data-name="Path 439" class="cls-99" d="M164.42,115.19l-1.13-5.44s-4.3-30.56-7-37.31-2.45-7.88-9.08-8.63c-2.74-.31-6.18,1.64-7.42,2.8-1.76,1.63-.66,4.11-.15,6,0,0,6,20.37,6,24.12,0,1.69-1.38,4.65-2.9,7.38a27.81,27.81,0,0,0-2.24,4.38C147.19,112.26,156.62,116.58,164.42,115.19Z"/><path id="Path_440" data-name="Path 440" class="cls-129" d="M135.35,188.62s-1,2.49-.22,2.49a9.73,9.73,0,0,0,2.81-1.4l-4.27,5.4-1-3.67Z"/><path id="Path_441" data-name="Path 441" class="cls-129" d="M152.87,188.62l-.46,1.65,11.5-.13-4.65-1.52S154.12,189.34,152.87,188.62Z"/><g id="Group_117" data-name="Group 117"><path id="Path_442" data-name="Path 442" class="cls-130" d="M142.06,41.72a3.73,3.73,0,0,1,2.47-.44c.94-.18,1.75,0,2,.57.43.8-.35,2-1.73,2.76a3.68,3.68,0,0,1-2.47.44c-.94.18-1.75,0-2.05-.57C139.9,43.68,140.68,42.45,142.06,41.72Z"/><path id="Path_443" data-name="Path 443" class="cls-131" d="M141.51,43.76a6.1,6.1,0,0,1,4.24-1.24c2.36.17,6.41,1.15,6.74,5.81.46,6.61-8.29,8.58-8.29,8.58s-.74.11-3.38-3.13C138.65,51.12,138.36,46.25,141.51,43.76Z"/><g id="Group_116" data-name="Group 116"><path id="Path_444" data-name="Path 444" class="cls-132" d="M144.34,56.57s-.36,1.13-.76,3-.91,4.33-.4,5.88c.17.51,5,3.92,6.57,2.19a11.89,11.89,0,0,1-1.25-4.56,5.13,5.13,0,0,1,1.26-4S144.54,57.21,144.34,56.57Z"/><path id="Path_445" data-name="Path 445" class="cls-123" d="M149.76,59a4.88,4.88,0,0,0-1.26,3,11.42,11.42,0,0,1-4.58-4c.24-1,.41-1.49.41-1.49C144.54,57.21,149.74,59,149.76,59Z"/><path id="Path_446" data-name="Path 446" class="cls-124" d="M150.22,45.68c.85.54,2.38,2.06,2.25,3.35s.94,3,.53,5.62-1.83,4.3-2.51,4.58-5.06-.36-6.19-2.16-4.43-4.23-1.63-8.84S148.53,44.63,150.22,45.68Z"/><path id="Path_447" data-name="Path 447" d="M150.26,52.15a2.21,2.21,0,0,0,1,.5,9.66,9.66,0,0,1-.64,1.13,9.41,9.41,0,0,1,.25-.91,1.81,1.81,0,0,1-1.3-1.54A2.91,2.91,0,0,0,150.26,52.15Z"/><path id="Path_448" data-name="Path 448" d="M148.71,51.11a1.19,1.19,0,0,0-1.37-.7c-.54.23-.67.81-1.2,1,.52.12.9-.53,1.3-.68A1.49,1.49,0,0,1,148.71,51.11Z"/><path id="Path_449" data-name="Path 449" d="M150.48,51.39a1.17,1.17,0,0,1,1.36-.7c.54.23.54.45,1,.77-.51.11-.67-.31-1.07-.46S150.9,51.1,150.48,51.39Z"/><path id="Path_450" data-name="Path 450" d="M147.2,48.34a1.71,1.71,0,0,0-1.41.71c1-.61,1.45-.47,2-.09s.63.66.78.47S147.87,48.43,147.2,48.34Z"/><path id="Path_451" data-name="Path 451" d="M151.53,49.28a2.23,2.23,0,0,1,1,.35c-.62-.9-1.33-1-1.93.08-.1.17.12.34.24.19S151.36,49.3,151.53,49.28Z"/><g id="Group_115" data-name="Group 115"><path id="Path_452" data-name="Path 452" d="M150.41,56.16a2.73,2.73,0,0,0,.9-.14.08.08,0,0,0,.05-.11h0a.09.09,0,0,0-.11,0h0a3,3,0,0,1-2.61-.45.09.09,0,0,0-.1.14h0A3.18,3.18,0,0,0,150.41,56.16Z"/></g><path id="Path_453" data-name="Path 453" d="M147,51.14c0,.4.21.72.48.72s.47-.32.47-.72-.21-.72-.47-.72S147,50.74,147,51.14Z"/><path id="Path_454" data-name="Path 454" d="M151,51.27c0,.33.19.59.42.59s.42-.26.42-.59-.19-.58-.42-.58S151,51,151,51.27Z"/></g><path id="Path_455" data-name="Path 455" class="cls-130" d="M143.23,40.3A1.73,1.73,0,1,0,145,38.58h0a1.73,1.73,0,0,0-1.73,1.72Z"/><path id="Path_456" data-name="Path 456" class="cls-131" d="M137,42.49a1.71,1.71,0,0,1-.15-2.41,1.85,1.85,0,0,1,.74-.49,2.71,2.71,0,0,1,2.12-3.18,3.31,3.31,0,0,1,.55,0l.3,0a2.72,2.72,0,0,1,3.86,0,2.52,2.52,0,0,1,.3.35,1.82,1.82,0,0,1,.52-.08,1.73,1.73,0,0,1,1.73,1.72h0v.05A1.73,1.73,0,0,1,149,39.63a1.52,1.52,0,0,1,.06.42,9.18,9.18,0,0,1-4.48-.11,2.54,2.54,0,0,1-.32.34,1.6,1.6,0,0,1,.15.68,8.14,8.14,0,0,0-4.58,3l-.29,0v0a1.73,1.73,0,1,1-3.46,0,1.71,1.71,0,0,1,.86-1.51Z"/></g><path id="Path_457" data-name="Path 457" class="cls-113" d="M145.85,69.09c-2.82-3-4.82-3.59-4.94-3.64l-1.73,1a18.72,18.72,0,0,1,5.36,4,15.61,15.61,0,0,1,4.29,12.88C147.59,94.9,144,96,144,96l.05,2c.52-.11,5.3-1.49,6.69-14.49A17.67,17.67,0,0,0,145.85,69.09Z"/></g><g id="Group_126" data-name="Group 126"><path id="Path_458" data-name="Path 458" class="cls-133" d="M155.66,174.21v16.87a7.55,7.55,0,0,0,7.55,7.54H186a7.55,7.55,0,0,0,7.54-7.54h0V174.21Zm10.8,18.9a1.13,1.13,0,0,1-1.12,1.13h-.84a1.13,1.13,0,0,1-1.12-1.13h0v-6.72a1.12,1.12,0,0,1,1.12-1.12h.84a1.12,1.12,0,0,1,1.12,1.12h0Zm0-10.27a1.12,1.12,0,0,1-1.12,1.12h-.84a1.12,1.12,0,0,1-1.12-1.12v-6.73A1.12,1.12,0,0,1,164.5,175h.84a1.12,1.12,0,0,1,1.12,1.12h0Zm5,10.27a1.13,1.13,0,0,1-1.12,1.13h-.84a1.13,1.13,0,0,1-1.12-1.13h0v-6.72a1.12,1.12,0,0,1,1.12-1.12h.84a1.12,1.12,0,0,1,1.12,1.12h0Zm0-10.27a1.12,1.12,0,0,1-1.12,1.12h-.84a1.12,1.12,0,0,1-1.12-1.12h0v-6.73a1.12,1.12,0,0,1,1.12-1.12h.84a1.12,1.12,0,0,1,1.12,1.12h0Zm5,10.27a1.14,1.14,0,0,1-1.13,1.13h-.84a1.12,1.12,0,0,1-1.12-1.12h0v-6.72a1.12,1.12,0,0,1,1.12-1.12h.84a1.13,1.13,0,0,1,1.13,1.12h0Zm0-10.27a1.13,1.13,0,0,1-1.13,1.12h-.84a1.12,1.12,0,0,1-1.12-1.12h0v-6.73a1.12,1.12,0,0,1,1.12-1.12h.84a1.13,1.13,0,0,1,1.13,1.12h0Zm5,10.27a1.13,1.13,0,0,1-1.12,1.13h-.85a1.13,1.13,0,0,1-1.12-1.13h0v-6.72a1.12,1.12,0,0,1,1.12-1.12h.85a1.12,1.12,0,0,1,1.12,1.12h0Zm0-10.27a1.12,1.12,0,0,1-1.12,1.12h-.85a1.12,1.12,0,0,1-1.12-1.12h0v-6.73a1.12,1.12,0,0,1,1.12-1.12h.85a1.12,1.12,0,0,1,1.12,1.12h0Zm5,10.27a1.13,1.13,0,0,1-1.12,1.13h-.84a1.13,1.13,0,0,1-1.12-1.13h0v-6.72a1.11,1.11,0,0,1,1.12-1.12h.84a1.12,1.12,0,0,1,1.12,1.12h0Zm0-10.27a1.12,1.12,0,0,1-1.12,1.12h-.84a1.12,1.12,0,0,1-1.12-1.12v-6.73a1.11,1.11,0,0,1,1.12-1.12h.84a1.12,1.12,0,0,1,1.12,1.12h0Zm5,10.27a1.13,1.13,0,0,1-1.12,1.13h-.84a1.13,1.13,0,0,1-1.12-1.13h0v-6.72a1.12,1.12,0,0,1,1.12-1.12h.84a1.12,1.12,0,0,1,1.12,1.12h0Zm0-10.27A1.12,1.12,0,0,1,190.3,184h-.84a1.12,1.12,0,0,1-1.12-1.12h0v-6.73a1.12,1.12,0,0,1,1.12-1.12h.84a1.12,1.12,0,0,1,1.12,1.12h0Z"/><path id="Rectangle_97" data-name="Rectangle 97" class="cls-133" d="M157.27,171.11h34.61a3.1,3.1,0,0,1,3.11,3.1H154.16a3.1,3.1,0,0,1,3.11-3.1Z"/><g id="Group_123" data-name="Group 123"><g id="Group_119" data-name="Group 119"><path id="Path_459" data-name="Path 459" class="cls-26" d="M194.63,193.11c-.4,1-.83,1.95-1.32,2.9l-10.51-4.28c0-1.13.15-2.23.29-3.32a37.27,37.27,0,0,1,2.31-9.11c.45-1.15,1-2.28,1.53-3.38l.31,0,9.87,4,.24.24c-.06,1.31-.17,2.6-.34,3.86A37.6,37.6,0,0,1,194.63,193.11Z"/><path id="Path_460" data-name="Path 460" class="cls-27" d="M194.63,193.11l-11.54-4.7a37.27,37.27,0,0,1,2.31-9.11L197,184A37.4,37.4,0,0,1,194.63,193.11Z"/><path id="Path_461" data-name="Path 461" class="cls-28" d="M187.61,190.8l-.9-.07,1-12.23.91.07Z"/><path id="Path_462" data-name="Path 462" class="cls-28" d="M188.52,188.36l-.86-.35,2.26-8.78.86.35Z"/><path id="Path_463" data-name="Path 463" class="cls-28" d="M187.93,191.09l.81,1,5.41-8.1-.81-1Z"/><path id="Path_464" data-name="Path 464" class="cls-28" d="M191.84,184.42l-.75-.3,1-3.76.74.3Z"/></g><g id="Group_120" data-name="Group 120"><path id="Path_465" data-name="Path 465" class="cls-26" d="M194.63,193.11c-.4,1-.83,1.95-1.32,2.9l-10.51-4.28c0-1.13.15-2.23.29-3.32a37.27,37.27,0,0,1,2.31-9.11c.45-1.15,1-2.28,1.53-3.38l.31,0,9.87,4,.24.24c-.06,1.31-.17,2.6-.34,3.86A37.6,37.6,0,0,1,194.63,193.11Z"/><path id="Path_466" data-name="Path 466" class="cls-27" d="M194.63,193.11l-11.54-4.7a37.27,37.27,0,0,1,2.31-9.11L197,184A37.4,37.4,0,0,1,194.63,193.11Z"/><path id="Path_467" data-name="Path 467" class="cls-28" d="M187.61,190.8l-.9-.07,1-12.23.91.07Z"/><path id="Path_468" data-name="Path 468" class="cls-28" d="M188.52,188.36l-.86-.35,2.26-8.78.86.35Z"/><path id="Path_469" data-name="Path 469" class="cls-28" d="M187.93,191.09l.81,1,5.41-8.1-.81-1Z"/><path id="Path_470" data-name="Path 470" class="cls-28" d="M191.84,184.42l-.75-.3,1-3.76.74.3Z"/></g><path id="Path_471" data-name="Path 471" class="cls-134" d="M197.14,179.94l-9.92-4,.33-1.27,9.92,4Z"/><path id="Path_472" data-name="Path 472" class="cls-135" d="M197.14,179.94l-4.3-1.75.33-1.27,4.3,1.75Z"/><path id="Path_473" data-name="Path 473" class="cls-134" d="M193,197.22l-10.53-4.29.31-1.2L193.32,196Z"/><path id="Path_474" data-name="Path 474" class="cls-135" d="M193,197.22l-7.8-3.18.31-1.2,7.8,3.18Z"/><path id="Path_475" data-name="Path 475" class="cls-38" d="M191.75,186.46c-1,3.8-3.15,6.16-4.91,5.62-3.16-1-3.24-4.63-2.26-8.44s4.09-6.06,5.82-5.35S192.73,182.65,191.75,186.46Z"/><path id="Path_476" data-name="Path 476" class="cls-135" d="M197,184c.17-1.27.28-2.56.34-3.87l-.24-.24-2.39-1,.24.24c-.06,1.31-.17,2.6-.34,3.87a37.64,37.64,0,0,1-2.38,9.08c-.39,1-.83,2-1.31,2.9l2.38,1a31.48,31.48,0,0,0,1.32-2.9A37.52,37.52,0,0,0,197,184Z"/><g id="Group_122" data-name="Group 122"><path id="Path_477" data-name="Path 477" class="cls-136" d="M181.36,192.5a.14.14,0,0,1-.12-.16.14.14,0,0,1,.16-.13.15.15,0,0,1,0,.29Z"/><path id="Path_478" data-name="Path 478" class="cls-136" d="M172.45,188.31a.14.14,0,0,1-.11-.18.16.16,0,0,1,.14-.12.16.16,0,0,1,.16.15.16.16,0,0,1-.15.16Z"/><path id="Path_479" data-name="Path 479" class="cls-136" d="M170.06,187.48a.17.17,0,0,1-.15-.18.16.16,0,0,1,.19-.15.16.16,0,0,1,.14.18h0a.16.16,0,0,1-.18.15Z"/><path id="Path_480" data-name="Path 480" class="cls-136" d="M169.15,188.71a.22.22,0,0,1-.2-.24.22.22,0,0,1,.25-.2.22.22,0,1,1,0,.44Z"/><path id="Path_481" data-name="Path 481" class="cls-136" d="M169.92,189.07a.14.14,0,1,1,.15-.12.14.14,0,0,1-.15.12Z"/><g id="Group_121" data-name="Group 121"><path id="Path_482" data-name="Path 482" class="cls-137" d="M177.73,194.51a1.46,1.46,0,0,1,.82.13,3.06,3.06,0,0,0,.54.38,4.7,4.7,0,0,0,2,.52,3,3,0,0,0,2.29-1,1.94,1.94,0,0,1,1.44-.65H187l.28-2.54-2.15-.49a1.91,1.91,0,0,1-1-.78,4,4,0,0,0-3.45-1.72,5.28,5.28,0,0,0-.9.14,3.38,3.38,0,0,0-.62.26,1.53,1.53,0,0,1-.82-.05.89.89,0,0,1-.64-.62,1.15,1.15,0,0,0-1-.83L165.89,186a1.14,1.14,0,0,0-1.25,1l-.67,6.07a1.13,1.13,0,0,0,1,1.25l10.88,1.2A1.11,1.11,0,0,0,177,195,.9.9,0,0,1,177.73,194.51Z"/><path id="Path_483" data-name="Path 483" class="cls-137" d="M177.73,194.51a1.46,1.46,0,0,1,.82.13,3.06,3.06,0,0,0,.54.38,4.7,4.7,0,0,0,2,.52,3,3,0,0,0,2.29-1,1.94,1.94,0,0,1,1.44-.65H187l.28-2.54-2.15-.49a1.91,1.91,0,0,1-1-.78,4,4,0,0,0-3.45-1.72,5.28,5.28,0,0,0-.9.14,3.38,3.38,0,0,0-.62.26,1.53,1.53,0,0,1-.82-.05.89.89,0,0,1-.64-.62,1.15,1.15,0,0,0-1-.83L165.89,186a1.14,1.14,0,0,0-1.25,1l-.67,6.07a1.13,1.13,0,0,0,1,1.25l10.88,1.2A1.11,1.11,0,0,0,177,195,.9.9,0,0,1,177.73,194.51Z"/><path id="Path_484" data-name="Path 484" class="cls-138" d="M175.85,195.56,165,194.36a1.13,1.13,0,0,1-1-1.25l.67-6.06a1.13,1.13,0,0,1,1.25-1l10.88,1.2a1.15,1.15,0,0,1,1,.83.86.86,0,0,0,.64.61,1.52,1.52,0,0,0,.82.05,4.66,4.66,0,0,1,.61-.26,5.61,5.61,0,0,1,.9-.14,4,4,0,0,1,3.4,1.64l-.48,4.3a2.18,2.18,0,0,0-.28.25,2.93,2.93,0,0,1-2.28,1,4.7,4.7,0,0,1-2-.52,3.58,3.58,0,0,1-.55-.38,1.41,1.41,0,0,0-.81-.13.86.86,0,0,0-.76.46A1.13,1.13,0,0,1,175.85,195.56Z"/><path id="Path_485" data-name="Path 485" class="cls-136" d="M183.1,190.25a.3.3,0,1,1,.06-.6.31.31,0,0,1,.27.33h0A.3.3,0,0,1,183.1,190.25Z"/><path id="Path_486" data-name="Path 486" class="cls-136" d="M182,190.39a.14.14,0,0,1-.12-.14.13.13,0,0,1,.15-.12.14.14,0,0,1,.12.14h0A.13.13,0,0,1,182,190.39Z"/><path id="Path_487" data-name="Path 487" class="cls-136" d="M182.6,191.73a.17.17,0,1,1,.19-.15h0A.18.18,0,0,1,182.6,191.73Z"/><rect id="Rectangle_98" data-name="Rectangle 98" class="cls-139" x="167.63" y="186.84" width="8.37" height="8.13" transform="matrix(0.11, -0.99, 0.99, 0.11, -36.81, 340.71)"/><rect id="Rectangle_99" data-name="Rectangle 99" class="cls-140" x="171.46" y="190.93" width="7.15" height="0.71" transform="translate(-34.35 344.22) rotate(-83.69)"/><rect id="Rectangle_100" data-name="Rectangle 100" class="cls-140" x="165.08" y="190.29" width="7.15" height="0.58" transform="translate(-39.31 337.27) rotate(-83.69)"/><path id="Path_488" data-name="Path 488" class="cls-141" d="M177,195a.89.89,0,0,1,.77-.46,1.42,1.42,0,0,1,.81.13,4,4,0,0,0,.54.38,4.74,4.74,0,0,0,2,.52,3,3,0,0,0,2.29-1,2,2,0,0,1,1.45-.65H187l.15-1.35H185a2,2,0,0,0-1.45.65,3,3,0,0,1-2.29,1,4.73,4.73,0,0,1-2-.51,3.36,3.36,0,0,1-.54-.39,1.51,1.51,0,0,0-.81-.13.88.88,0,0,0-.76.46,1.13,1.13,0,0,1-1.13.6L165.12,193a1.14,1.14,0,0,1-1-1.25l-.15,1.36a1.14,1.14,0,0,0,1,1.25l10.88,1.2A1.13,1.13,0,0,0,177,195Z"/><path id="Path_489" data-name="Path 489" class="cls-142" d="M181.28,192.65a1.76,1.76,0,1,1,1.73-1.78.83.83,0,0,1,0,.22A1.64,1.64,0,0,1,181.28,192.65Z"/><path id="Path_490" data-name="Path 490" class="cls-139" d="M188.44,194.43l-1.47-.16.37-3.41,1.47.17a.16.16,0,0,1,.15.18h0l-.34,3.07A.17.17,0,0,1,188.44,194.43Z"/><path id="Rectangle_101" data-name="Rectangle 101" class="cls-141" d="M188.8,192.7l-.14,1.28a.48.48,0,0,1-.53.42h0l-1.16-.13h0l.19-1.75h0l1.64.18Z"/><rect id="Rectangle_102" data-name="Rectangle 102" class="cls-143" x="185.23" y="192.33" width="3.43" height="0.43" transform="translate(-24.98 357.19) rotate(-83.69)"/><path id="Path_491" data-name="Path 491" class="cls-144" d="M187.44,192.34l-.26,0,.14-1.25h.26c.66.08,1.16.42,1.12.77S188.1,192.41,187.44,192.34Z"/></g></g></g><path id="Path_492" data-name="Path 492" class="cls-145" d="M159.88,174.21v16.87a7.54,7.54,0,0,0,7.54,7.54h22.74a7.55,7.55,0,0,0,7.55-7.54h0V174.21Zm5.81,18.9a1.13,1.13,0,0,1-1.12,1.13h-.84a1.13,1.13,0,0,1-1.13-1.12h0v-6.72a1.12,1.12,0,0,1,1.12-1.12h.85a1.12,1.12,0,0,1,1.12,1.12h0Zm0-10.27a1.12,1.12,0,0,1-1.12,1.12h-.84a1.13,1.13,0,0,1-1.13-1.12h0v-6.73a1.12,1.12,0,0,1,1.12-1.12h.85a1.12,1.12,0,0,1,1.12,1.12h0Zm5,10.27a1.13,1.13,0,0,1-1.12,1.13h-.84a1.13,1.13,0,0,1-1.12-1.13h0v-6.72a1.12,1.12,0,0,1,1.12-1.12h.84a1.12,1.12,0,0,1,1.12,1.12h0Zm0-10.27a1.12,1.12,0,0,1-1.12,1.12h-.84a1.12,1.12,0,0,1-1.12-1.12h0v-6.73a1.12,1.12,0,0,1,1.12-1.12h.84a1.12,1.12,0,0,1,1.12,1.12h0Zm5,10.27a1.13,1.13,0,0,1-1.12,1.13h-.84a1.13,1.13,0,0,1-1.12-1.13h0v-6.72a1.12,1.12,0,0,1,1.12-1.12h.84a1.12,1.12,0,0,1,1.12,1.12h0Zm0-10.27a1.12,1.12,0,0,1-1.12,1.12h-.84a1.12,1.12,0,0,1-1.12-1.12h0v-6.73a1.12,1.12,0,0,1,1.12-1.12h.84a1.12,1.12,0,0,1,1.12,1.12h0Zm5,10.27a1.14,1.14,0,0,1-1.13,1.13h-.84a1.13,1.13,0,0,1-1.12-1.13h0v-6.72a1.12,1.12,0,0,1,1.12-1.12h.84a1.13,1.13,0,0,1,1.13,1.12h0Zm0-10.27a1.13,1.13,0,0,1-1.13,1.12h-.84a1.12,1.12,0,0,1-1.12-1.12h0v-6.73A1.12,1.12,0,0,1,178.7,175h.84a1.13,1.13,0,0,1,1.13,1.12h0Zm5,10.27a1.14,1.14,0,0,1-1.13,1.13h-.84a1.13,1.13,0,0,1-1.12-1.13v-6.72a1.12,1.12,0,0,1,1.12-1.12h.84a1.13,1.13,0,0,1,1.13,1.12h0Zm0-10.27a1.13,1.13,0,0,1-1.13,1.12h-.84a1.12,1.12,0,0,1-1.12-1.12v-6.73a1.12,1.12,0,0,1,1.12-1.12h.84a1.13,1.13,0,0,1,1.13,1.12h0Zm5,10.27a1.13,1.13,0,0,1-1.12,1.13h-.84a1.14,1.14,0,0,1-1.13-1.13h0v-6.72a1.13,1.13,0,0,1,1.13-1.12h.84a1.12,1.12,0,0,1,1.12,1.12h0Zm0-10.27a1.12,1.12,0,0,1-1.12,1.12h-.84a1.13,1.13,0,0,1-1.13-1.12h0v-6.73a1.13,1.13,0,0,1,1.13-1.12h.84a1.12,1.12,0,0,1,1.12,1.12h0Zm5,10.27a1.13,1.13,0,0,1-1.12,1.13h-.84a1.13,1.13,0,0,1-1.12-1.13h0v-6.72a1.11,1.11,0,0,1,1.12-1.12h.84a1.12,1.12,0,0,1,1.12,1.12h0Zm0-10.27a1.12,1.12,0,0,1-1.12,1.12h-.84a1.12,1.12,0,0,1-1.12-1.12h0v-6.73a1.11,1.11,0,0,1,1.12-1.12h.84a1.12,1.12,0,0,1,1.12,1.12h0Z"/><rect id="Rectangle_103" data-name="Rectangle 103" class="cls-146" x="159.88" y="174.21" width="37.83" height="0.5"/><path id="Rectangle_104" data-name="Rectangle 104" class="cls-8" d="M161.48,171.11H196.1a3.1,3.1,0,0,1,3.1,3.1H158.38a3.1,3.1,0,0,1,3.1-3.1Z"/><path id="Path_493" data-name="Path 493" class="cls-147" d="M159.27,171.94H198.2a2.14,2.14,0,0,1,.67.11,2,2,0,0,0-1.67-.94H160.27a2,2,0,0,0-1.67.94A2.14,2.14,0,0,1,159.27,171.94Z"/><g id="Group_124" data-name="Group 124"><path id="Path_494" data-name="Path 494" class="cls-148" d="M168.07,173.62l-.24.3a1.89,1.89,0,0,1-2.65.33h0l-13.9-10.79,2.55-3.28L167.73,171a1.88,1.88,0,0,1,.34,2.65Z"/><path id="Path_495" data-name="Path 495" class="cls-149" d="M167.34,172.22a.85.85,0,0,1,.15,1.19.83.83,0,0,1-1.18.15.85.85,0,0,1,1-1.34Z"/></g><g id="Group_125" data-name="Group 125"><path id="Path_496" data-name="Path 496" class="cls-148" d="M182.14,173.53l-.13-.36a1.88,1.88,0,0,1,1.1-2.43h0l16.46-6.21,1.47,3.89-16.46,6.21A1.9,1.9,0,0,1,182.14,173.53Z"/><path id="Path_497" data-name="Path 497" class="cls-149" d="M183.71,173.64a.85.85,0,1,1,.49-1.09.84.84,0,0,1-.49,1.09Z"/></g></g><path id="Path_498" data-name="Path 498" class="cls-131" d="M143.23,50.42s1.09-4.79,2.64-5.3l-5.36,2.09-.3,5.17,4,4.54-1.16-4Z"/><path id="Path_499" data-name="Path 499" class="cls-124" d="M143.45,50.69s-.57-1.24-1.4-1.24-.76,4.31.53,4S143.45,50.69,143.45,50.69Z"/><path id="Path_500" data-name="Path 500" class="cls-123" d="M142.22,50.17c-.51.4-.43,2,0,2a.84.84,0,0,0,.7-.23C143.59,51.14,142.77,49.73,142.22,50.17Z"/><path id="Path_501" data-name="Path 501" class="cls-132" d="M178.88,91.59c1.92,0,2.94,0,3.17-.19s-.18-1.3-2.46-1-3.31-.33-3-1.16,2.58.55,3,.16-2.46-1.86-4.22-1.37-23-.92-23.34-1.94c-.1-.28-.61-1.56-1.38-3.33A32.24,32.24,0,0,0,144,86.38a22.62,22.62,0,0,0,4,4.85c3.23,2.32,20.7,0,22,0s5.39,2.66,6.89,2.21,3.48-.3,4-.84-1-.68-2.65-.57S177,91.59,178.88,91.59Z"/><path id="Path_502" data-name="Path 502" class="cls-150" d="M142.78,67.25a3.78,3.78,0,0,0-5.32.31,3.84,3.84,0,0,0-.73,1.25c-1.14,3.11,2.36,13.38,6.23,19.06a59.05,59.05,0,0,1,8.64-5.42A102.27,102.27,0,0,0,142.78,67.25Z"/><g id="Group_127" data-name="Group 127"><path id="Path_503" data-name="Path 503" class="cls-116" d="M126.3,83.89a.28.28,0,0,1-.28-.28c0-14.85,6.65-23.18,6.72-23.26a.29.29,0,0,1,.4,0,.27.27,0,0,1,0,.39c-.07.09-6.6,8.28-6.6,22.9a.29.29,0,0,1-.28.29Z"/></g></g><g id="Group_129" data-name="Group 129"><path id="Path_504" data-name="Path 504" class="cls-116" d="M398.71,101l-.09,0L391,98.35a.28.28,0,0,1-.16-.37.27.27,0,0,1,.34-.16l7.61,2.61a.28.28,0,0,1,.18.36.29.29,0,0,1-.27.19Z"/></g><g id="Group_130" data-name="Group 130"><path id="Path_505" data-name="Path 505" class="cls-116" d="M398.49,103.26h-.06l-13.25-2.69a.28.28,0,0,1,.11-.55l13.25,2.68a.29.29,0,0,1,.22.34.28.28,0,0,1-.27.22Z"/></g></g></svg>