<svg id="Layer_1" data-name="Layer 1" xmlns="http://www.w3.org/2000/svg" viewBox="0 0 426.23 229.62"><defs><style>.cls-1{fill:#9fc1f4;opacity:0.4;}.cls-2{fill:#b77446;}.cls-3{fill:#365da4;}.cls-4{fill:#285493;}.cls-5{fill:#163560;}.cls-6{fill:#a86337;}.cls-7{fill:#80bdcc;}.cls-8{fill:#fff;}.cls-9{fill:#5f9aa8;}.cls-10{fill:#82b378;}.cls-11{fill:#acd1a3;}.cls-12,.cls-13{fill:#e37970;}.cls-13{opacity:0.2;}.cls-14{fill:#dde3f2;}.cls-15{fill:#2b478b;}.cls-16{fill:#ee9849;}.cls-17{fill:#e58638;}.cls-18{fill:#ce6d25;}.cls-19{fill:#d38957;}.cls-20{fill:#2f5791;}.cls-21{fill:#e49963;}.cls-22{fill:#a8d29f;}.cls-23{fill:#ed975d;}.cls-24{fill:#c65447;}.cls-25{fill:#466aa5;}.cls-26{fill:#d68d5d;}.cls-27{fill:#c45446;}.cls-28{fill:#283250;}</style></defs><path class="cls-1" d="M518.06,122.1H365.85l-1-7.12a1.37,1.37,0,0,0-.13-.45c.61-10.94,3.08-19.91,3.51-26.28,1-3.45.36-5.44-.58-6.58l.77.12c-3.88-3.43-5.8-26.65-6-28.64a7.49,7.49,0,0,0-.13-1c-.35-2.18-1.41-7.42-4-9.5l-10.68.76s-4.12,2-7.16,11h0a6.77,6.77,0,0,0-1.45,3.41c-.5,4.05,2.07,5.61,2.07,5.61.39,4.56,1.56,9.94,3.62,10.16a21.47,21.47,0,0,0,2.2,0,18.7,18.7,0,0,1-.65,5.21l-.7.13h0l-.42.09h0l-.34.09c-.66.17-1.38.45-2,.66,0,0-6.88,1.88-16.86,18.26h-1.48c-.2-.08-.39-.17-.57-.26a4.8,4.8,0,0,0-.55-.23l.07-1.65.2-4.64.1-2.23h.31l-.2-1.5h-7l-.29,1.5h.31l.14,2.23.29,4.64.05.92a2.09,2.09,0,0,0-1.12.42,1,1,0,0,0-.25.8h-3.35l.09-2.14.2-4.64.1-2.23h.31l-.2-1.5h-7l-.29,1.5h.31l.13,2a8.25,8.25,0,0,0-1.78.58,14,14,0,0,1-2,.78c-5.9.85-10.46,1.09-13.47,1.37a1.34,1.34,0,0,0-.11-1.43c-.89-.84-4.6-.5-6.77.19-10.53-14.43-17.89-19-17.89-19a2.23,2.23,0,0,0-.38-.17c4.85-3.49-1.78-3.62-.35-15.32.7-5.7-1.08-14.82-12.45-13.36s-14.95,12.63-12.66,17.6-3.3,6.17-5.06,11.51C232,78.34,231.45,84,229,86.6c-6.77,7.08,3.66,17.44,12.63,18.52a27.28,27.28,0,0,1-.08,2.83c0,.34-.09.72-.17,1.14-.63,3.22-2.73,8.77-4.07,13h-72a24.25,24.25,0,0,0-.81-4.39c.7-.42,1.09-.86,1.08-1.34-.09-3.33-8.49-20.9-11.14-23.86,0-2.42,0-5.91,0-8.24a25,25,0,0,0,.62-4.19c0-.41,0-.8,0-1.17h0c0-3.33-.87-5.22-1.7-6.28a3.66,3.66,0,0,0-1.67-1.29c-1.91-.77-4.92-.63-6.34-.51h0l-1.9.17h0l-.8.08c-1.06-.55-2.89-3.06-4.12-7.22h0s.42-2.51,1.89-2.12c2.3.6,5.1-4.84,2.39-10.41a16.33,16.33,0,0,0-.92-1.63,3.62,3.62,0,0,0,1.43,0c1.17-.3,2.2-3.74,2.19-4.81s-1.1-4.31-3-4.9-4.13,1.23-4.13,1.23c.58-1.47,3.92-1.86,3.92-1.86-6.8.23-7.12,4.69-7.13,5.11-5.27-2.81-10.13,6.12-10.89,7.6a4.29,4.29,0,0,0-1,1.41c-1.56,3.25,1.61,7.53,1.61,7.53,1.25,3.47,3.38,7.62,5.06,7.34,0,0,.58-.14,1.44-.43.22.73.46,1.59.68,2.44h0c.42,1.67.71,3.27.48,3.75l-1.81.75c-.67.28-1.25.55-1.76.81a13.76,13.76,0,0,0-2.86,1.76h0s-2.32,4-2.67,5.09h0c-2.81,6.19-5.82,16.3-8.33,19.08-.69.78-3,2-5.59,3.26-1.88-.43-4.57-.3-6.25,1-2.3,1.79-4.88,1.32-6.29,1.56-1.19.2-2.3.37-2.75.91h-.92a13.81,13.81,0,0,0,12.34,13.74H-44.9a4,4,0,0,0-4,4v92.55a4,4,0,0,0,4,4h563a4,4,0,0,0,4-4V126.08A4,4,0,0,0,518.06,122.1ZM341.14,63c0,.15,0,.31,0,.47C341.16,63.28,341.15,63.12,341.14,63ZM135.32,122.1H108.68a13.76,13.76,0,0,0,8.44-4.12l.12,0c2.79-1.1,5.76-2.57,6.62-2.76h0l.2,0c1.2-.25,2.64-.55,4.18-.91,1.11-.25,2.27-.53,3.44-.83,1,4.1,2.19,7.28,3.69,8.19C135.38,121.74,135.35,121.92,135.32,122.1Zm168-26a24,24,0,0,1,3.33-.27h0v.06l.13,2.09-.91-.13a13.55,13.55,0,0,1-2-.77,8,8,0,0,0-1.58-.54Zm-34.77-2.62c.49.54,1,1,1.46,1.53l-1.57.16C268.44,94.55,268.48,94,268.51,93.44Zm66.8,19c-.19,1.35-.27,5.29-.3,9.66H269.36c-.52-3.67-1.35-8.18-1.52-10a67,67,0,0,1,.06-9.89c2.74-.92,5.35-1.94,7.34-2.77a30.46,30.46,0,0,0,5.92,3.37l.6,0h0l.6-.06h.08l.56-.07.16,0,.49-.07.25,0,.41-.07.33-.06.34-.06.4-.09.28-.05.46-.1.17,0h0l1.42-.33.09,0,1.42-.38.11,0,1.41-.41.11,0,1.47-.46c1.62-.51,3.22-1.08,4.66-1.64a5.92,5.92,0,0,0,4.84,2.53,25.32,25.32,0,0,1,3.33.28,102.08,102.08,0,0,0,10.9,4.26c2,.63,4.08,1.22,6.07,1.67a31.2,31.2,0,0,0,5.16.77,28.88,28.88,0,0,0,5.27-2.92c1,.4,2.08.8,3.21,1.2Z"/><path class="cls-2" d="M84.49,220.28c.18,2.26,3.4,2.06,7,1.61s2.64.68,7.72.71,6.81-1.65,7-2.38-2.23-1.17-4.85-1.79c-.33-.07-.66-.16-1-.24A13.27,13.27,0,0,1,93,213.36c-2.2-2.82-4.21-15.67-4.21-15.67l-7.93,1.48s4.61,11,5.09,14.63c.21,1.62-.94,2.7-1.21,4.12A8.48,8.48,0,0,0,84.49,220.28Z"/><path class="cls-3" d="M91.49,222.09c1.44-.35,2.66.48,7.74.51s6.81-1.65,7-2.38-2.23-1.17-4.85-1.79l0,0A14.23,14.23,0,0,1,94,219.87c-3.41-.32-6.9-1.71-9.25-2a8.48,8.48,0,0,0-.22,2.36C84.67,222.54,87.18,223.15,91.49,222.09Z"/><path class="cls-3" d="M91.58,207a13.13,13.13,0,0,1-4,1.73,8.12,8.12,0,0,1-4.29-.06S69.16,173.23,70,161.27c0-.29,0-.59,0-.92a51.19,51.19,0,0,0-.79-8c-.19-1.17-.41-2.39-.65-3.65-.57-3-1.27-6.13-2-9.38-.33-1.42-.69-2.87-1-4.3-3.54-14.15-7.87-28.1-7.87-28.1s25.44-8.31,26.87-.54c.56,3,2.39,14.9,1.57,33.14a262.46,262.46,0,0,0,1,39.41A215.88,215.88,0,0,0,91.58,207Z"/><path class="cls-4" d="M70,160.35a51.19,51.19,0,0,0-.79-8c-.19-1.17-.41-2.39-.65-3.65-.57-3-1.27-6.13-2-9.38-.33-1.42-.69-2.87-1-4.3.51-4.32.91-7.28.91-7.28A36.19,36.19,0,0,1,70,160.35Z"/><path class="cls-2" d="M52.4,220.28c.18,2.26,3.37,2.26,7,1.81s2.66.48,7.74.51,6.81-1.65,7-2.38-2.23-1.17-4.85-1.79c-.33-.07-.66-.16-1-.24-3-.72-4.93-2.92-7.46-4.83s-.73-10.57-.73-10.57l-7.46-2.67s1.13,8.82,1.13,13.68c0,1.63-.94,2.7-1.21,4.12A8.48,8.48,0,0,0,52.4,220.28Z"/><path class="cls-3" d="M59.4,222.09c.84-.19,2.66.48,7.74.51s6.81-1.65,7-2.38-2.23-1.17-4.85-1.79l0,0a14.23,14.23,0,0,1-7.44,1.39c-3.41-.32-6.9-1.71-9.25-2a8.48,8.48,0,0,0-.22,2.36C52.58,222.54,54.74,223.17,59.4,222.09Z"/><path class="cls-3" d="M72.92,104.13s-8.27,41.25-9.67,63.69-3.15,41-3.15,41a10.76,10.76,0,0,1-3.87.54,14.41,14.41,0,0,1-3.92-.8s-8.21-33.77-5.49-47.29.45-26-.85-37.21C44.1,108,51.29,100.54,56.32,95.45S72.92,104.13,72.92,104.13Z"/><path class="cls-5" d="M78.79,28.59c.82-6.71-.09-15.78-13.69-15.76-11.74,0-18.62,14.91-15.91,20.76s-3.89,7.27-6,13.57C41.45,52.57,40.83,59.29,38,62.3,28.67,72,46.86,87,57.82,83.82c20-5.74,22.54-6.6,21.83-22.29-.36-8-6.62-11.15-2.65-13.48C86.6,42.43,76.93,43.79,78.79,28.59Z"/><path class="cls-6" d="M75.84,46a37.76,37.76,0,0,0-4.5-.75,18.87,18.87,0,0,1-.61-8.11l-10-3c-.48,10.6-1.43,11.92-1.63,12.08a45.16,45.16,0,0,0-6.6,2.13s6.36,36.42,3.63,43.37a73.23,73.23,0,0,0-3.78,13.12l29.67.37s-.41-23.86,1-32.3S75.84,46,75.84,46Z"/><path class="cls-2" d="M71.54,39.36s-12.18,0-12-7.61-1.35-12.69,6.43-13,9.24,2.61,9.81,5.16S74.71,39.17,71.54,39.36Z"/><path class="cls-7" d="M99.42,81.36c1.81-.09,3.62-.51,6.08-.68l-.16-9a5.07,5.07,0,0,1-3.85-1.34C88.39,51.89,79.65,46.85,79.65,46.85s-1-.59-4.86-1.12c0,0-.56,7-4.16,7.6-6.22,1-11.24-4.68-12.71-7,0,0-7.15,1.81-9.25,4.2-1.5,1.72-1.31,5.83-.86,8.42a12.14,12.14,0,0,0,.45,1.88C48.71,62,50.38,70.61,51.14,74l.06.25.14.59v0c0,.18.08.32.11.41l.06.17h0A28.47,28.47,0,0,1,52.89,87a13.61,13.61,0,0,1-.34,1.84c-1,5.11-5.14,15.18-6,19.8a6.09,6.09,0,0,0,3,2.53A28.49,28.49,0,0,0,55.25,113a53.37,53.37,0,0,0,5.82.93c1.27.14,2.63.26,4,.34l.58,0c8.94.44,18.94.22,20.25-4,.62-2-1.87-14.29-2.2-17.94-.58-6.4.36-15.16.79-21.94A43.81,43.81,0,0,0,99.42,81.36Z"/><path class="cls-5" d="M67.31,17.25s1.34,2.53-2.59,6.82S60.61,36,60.61,36,54,23.57,57.52,19.6,67.31,17.25,67.31,17.25Z"/><path class="cls-5" d="M63.81,14.31s5.94-2,11.83,3.82c2.53,2.5,2.15,7.41.79,10.26,0,0-2.09-6.11-5.88-7.44S63.81,14.31,63.81,14.31Z"/><path class="cls-8" d="M68.62,35s.14.93,2.42,1c0,0,1.92.05,1.95-1A6.18,6.18,0,0,0,68.62,35Z"/><path class="cls-9" d="M72,100.58c-1.69,5.74-2.67,10.47-6.92,13.66-1.39-.08-2.75-.2-4-.34a53.37,53.37,0,0,1-5.82-.93,28.49,28.49,0,0,1-5.72-1.83,6.09,6.09,0,0,1-3-2.53c.86-4.62,5-14.69,6-19.8.09-.5.16-1,.19-1.34a33.32,33.32,0,0,0-1.23-12h0c-.06-.19-.11-.39-.17-.58v0c0-.12-.08-.33-.14-.59L51.14,74c-.68-3.24-2.72-13.18-3.17-14.51-.14-.42,0-1.36-.19-2.24l3.57-3.44s20.49,8.75,25,20.82S74.45,92.34,72,100.58Z"/><path class="cls-9" d="M112.65,78.48a57.38,57.38,0,0,1-13.23,2.88,43.88,43.88,0,0,1-15-11.15c-.32-1.4-.62-3.73,1.07-3.06,2.37.95,11.13,12.2,14.45,12.43C102.26,79.75,109,79,112.65,78.48Z"/><path class="cls-6" d="M134.93,73.25c-1-1.21-6.34-1.29-8.46-.58a15.74,15.74,0,0,1-2.42.59c-9.43,0-15.61-1.78-18.71-1.61a16.9,16.9,0,0,0-1.9,9.24c2.39-.2,5.18-.58,7.61-1,6.57-1.11,12.64-2.06,13.18-2.23a32.38,32.38,0,0,1,3.93.23C133,78.43,135.91,74.47,134.93,73.25Z"/><path class="cls-10" d="M91.9,69.72a2.67,2.67,0,0,1,1.64,0v-.77a4.07,4.07,0,0,1,0-.5h7.94a4.07,4.07,0,0,1,0,.5v1.56a4,4,0,0,1-7,2.64h0A6.31,6.31,0,0,1,92.06,72C91.47,71.24,91.27,70.11,91.9,69.72Zm.42,1.44c.2.51,1.1.79,1.55.9a3.88,3.88,0,0,1-.32-1.31,1.17,1.17,0,0,0-1-.54C92.24,70.26,92.07,70.5,92.32,71.16Z"/><path class="cls-11" d="M100.89,68.92v1.56a4,4,0,0,1-4,4,3.27,3.27,0,0,1-.54,0,4,4,0,0,0,3.46-4V68.92a4.07,4.07,0,0,0,0-.5h1.08A4.07,4.07,0,0,1,100.89,68.92Z"/><rect class="cls-10" x="95.91" y="74.13" width="3.27" height="0.49" transform="translate(195.08 148.75) rotate(180)"/><path class="cls-10" d="M111.54,69.72a2.64,2.64,0,0,1,1.63,0v-.77a4,4,0,0,1,0-.5h7.93a4.07,4.07,0,0,1,0,.5v1.56a4,4,0,0,1-7,2.64h0A6.37,6.37,0,0,1,111.69,72C111.1,71.24,110.91,70.11,111.54,69.72Zm.42,1.44c.2.51,1.1.79,1.54.9a4.12,4.12,0,0,1-.32-1.32,1.15,1.15,0,0,0-1-.53C111.88,70.26,111.7,70.5,112,71.16Z"/><path class="cls-11" d="M120.52,68.92v1.56a4,4,0,0,1-4,4,3.08,3.08,0,0,1-.53,0,4,4,0,0,0,3.46-4V68.92a4.07,4.07,0,0,0,0-.5h1.07A4.07,4.07,0,0,1,120.52,68.92Z"/><rect class="cls-10" x="115.54" y="74.13" width="3.27" height="0.49" transform="translate(234.35 148.75) rotate(180)"/><path class="cls-12" d="M102.27,65.5l0,1,0,.73.2,4.66,0,.4.1,2.33h6.42l.15-2.33,0-.4.29-4.66,0-.73.08-1.33,0,0a4,4,0,0,0-2.39.3c-.9.58-1.88-.54-2.7-.22s-.87.74-1.53.47A3.24,3.24,0,0,0,102.27,65.5Z"/><polygon class="cls-13" points="102.24 64.81 102.27 65.5 102.31 66.5 102.35 67.23 102.55 71.89 102.57 72.29 102.67 74.62 109.09 74.62 109.24 72.29 109.26 71.89 109.55 67.23 109.6 66.5 109.68 65.17 109.7 64.81 102.24 64.81"/><path class="cls-13" d="M102.2,64.81v-.12a3.74,3.74,0,1,1,7.47,0v.12Z"/><path class="cls-7" d="M106.58,74l.33,0c0-.21-1.07-14-1.23-15a1.81,1.81,0,0,0-1.2-1.33h0l-5.23-.93-.06.33,5.22.92a1.45,1.45,0,0,1,1,1.07C105.52,60,106.58,74,106.58,74Z"/><polygon class="cls-5" points="102.31 66.5 102.35 67.23 102.55 71.89 109.26 71.89 109.55 67.23 109.6 66.5 102.31 66.5"/><path class="cls-14" d="M128.72,71.3c0-.06,0-1.15-1.83-1.54s-1.28-1.31-1.28-1.31-2.67,1.3-2.14,2.85S128.72,71.3,128.72,71.3Z"/><polygon class="cls-12" points="123.42 74.62 128.81 74.62 129.73 70.72 122.62 70.72 123.42 74.62"/><path class="cls-15" d="M136.08,76.87H91.46a1.13,1.13,0,0,1-1.13-1.12h0a1.13,1.13,0,0,1,1.13-1.13h44.62a1.12,1.12,0,0,1,1.12,1.13h0A1.12,1.12,0,0,1,136.08,76.87Z"/><path class="cls-16" d="M62.11,61H83.79s7.49,66.77,3.78,90.9H50.41S63.16,78.35,62.11,61Z"/><path class="cls-17" d="M76.36,74.65C74.34,69.26,69.14,64.54,64,61H62.11c.53,8.75-2.43,31.67-5.5,52.3L54.7,125.7C59,122.51,70.32,106.32,72,100.58,74.45,92.34,80.87,86.72,76.36,74.65Z"/><path class="cls-7" d="M93.84,81S83.16,84.64,74.2,85.56a39.47,39.47,0,0,1-7.11.18,35.55,35.55,0,0,1-14.74-15c-11.17-21.13-.27-21.78-.27-21.78s8.42,7,19,27c.37.7,1.53.71,4.56.51,3.24-.22,9.51.7,18.35.59a5,5,0,0,1,0,1.38C93.89,80.66,93.84,81,93.84,81Z"/><path class="cls-2" d="M106.81,76.4c-1-1.29-6.79-1.34-9-.56a19.65,19.65,0,0,1-3.73.81v0c-8.84.11-15.2-.46-18.44-.24a10.31,10.31,0,0,1-1.4,9.17A121.22,121.22,0,0,0,94,81.27a26.16,26.16,0,0,1,5.63.12C104.77,81.94,107.85,77.69,106.81,76.4Z"/><path class="cls-17" d="M53,87.21l7.79.39-.38,2.34-7.55-.78a.75.75,0,0,1-.67-.79l0-.45A.75.75,0,0,1,53,87.21Z"/><path class="cls-16" d="M56.12,46.87a1.68,1.68,0,0,0-1.88.63s6.61,9.53,8,13.64L64.51,61S59.2,50.14,56.12,46.87Z"/><path class="cls-17" d="M64.06,61c-.88-.61-1.76-1.2-2.63-1.74a18.74,18.74,0,0,1,.81,1.89Z"/><path class="cls-16" d="M73.84,45.55a49.26,49.26,0,0,1,7.65,15.91l2.3-.51a49.22,49.22,0,0,0-8.3-15.22S74.52,45.14,73.84,45.55Z"/><path class="cls-16" d="M360.64,172.35h0a.9.9,0,0,0,.93-.85c-.53-32.62,12.09-57.71,12.22-58,.21-.42.17-1.35-1.19-1.47-1.19-.1-1.93.16-2.14.57a129.77,129.77,0,0,0-6,16.41c-2.89,9.57-5.07,25.24-4.8,42.48A.9.9,0,0,0,360.64,172.35Z"/><path class="cls-16" d="M332.5,172.35h0a.9.9,0,0,0,.93-.85c-.53-32.62,12.09-57.71,12.22-58,.21-.42.17-1.35-1.19-1.47-1.19-.1-1.93.16-2.14.57a129.77,129.77,0,0,0-6,16.41c-2.89,9.57-5.07,25.24-4.79,42.48A.88.88,0,0,0,332.5,172.35Z"/><path class="cls-16" d="M369,123.56a.91.91,0,0,0,.92-.69.84.84,0,0,0-.76-1c-.81-.12-19.95-3-28.52-.6a.82.82,0,0,0-.61,1,1,1,0,0,0,1.18.55c8.13-2.27,27.44.62,27.63.65Z"/><path class="cls-16" d="M366.78,129.05a.92.92,0,0,0,.93-.69.84.84,0,0,0-.77-1c-.81-.13-19.95-3-28.51-.6a.82.82,0,0,0-.62,1,1,1,0,0,0,1.18.54c8.14-2.26,27.44.62,27.64.65Z"/><path class="cls-16" d="M361.76,172.35H304.1s1.34-5.57,34.74-4.74C362.47,168.19,361.76,172.35,361.76,172.35Z"/><path class="cls-17" d="M366.46,222.38c-6.69-29.76-5-48-5-48.25,0-.46-.95-.88-1.46-.89s-2.83-.14-3.1.25-1.7,23,8.27,48.89Z"/><path class="cls-17" d="M317.5,222.38c6.69-29.76,5-48,5-48.25,0-.46.94-.88,1.46-.89s2.83-.14,3.1.25,1.7,23-8.27,48.89Z"/><path class="cls-18" d="M301.94,222.38c6.69-29.76,5-48,5-48.25,0-.46,1-.88,1.46-.89s2.83-.14,3.1.25,1.7,23-8.27,48.89Z"/><path class="cls-18" d="M349.53,222.38c-6.69-29.76-5-48-5-48.25,0-.46-.94-.88-1.46-.89s-2.83-.14-3.1.25-1.7,23,8.27,48.89Z"/><path class="cls-17" d="M303.77,174.13H362a.89.89,0,0,0,.89-.89h0a.89.89,0,0,0-.89-.89H303.77a.89.89,0,0,0-.89.89h0A.89.89,0,0,0,303.77,174.13Z"/><path class="cls-16" d="M137.55,172.57h0a.87.87,0,0,1-.92-.84c.52-32.63-12.09-57.71-12.22-58-.22-.42-.17-1.35,1.19-1.47,1.18-.11,1.92.15,2.13.57a127.12,127.12,0,0,1,6,16.41c2.88,9.57,5.07,25.24,4.79,42.48A.89.89,0,0,1,137.55,172.57Z"/><path class="cls-16" d="M165.69,172.57h0a.87.87,0,0,1-.92-.84,136.41,136.41,0,0,0-12.22-58c-.22-.42-.18-1.35,1.18-1.47,1.19-.11,1.93.15,2.14.57a127.12,127.12,0,0,1,6,16.41c2.88,9.57,5.07,25.24,4.79,42.48A.89.89,0,0,1,165.69,172.57Z"/><path class="cls-16" d="M129.22,123.79a.91.91,0,0,1-.92-.69.84.84,0,0,1,.77-1c.81-.12,19.94-3,28.51-.6a.81.81,0,0,1,.61,1,1,1,0,0,1-1.17.54c-8.14-2.26-27.45.62-27.64.65Z"/><path class="cls-16" d="M131.41,129.28a.9.9,0,0,1-.92-.69.84.84,0,0,1,.76-1c.81-.12,19.95-3,28.52-.59a.82.82,0,0,1,.61,1,1,1,0,0,1-1.17.54c-8.14-2.26-27.45.62-27.64.65Z"/><path class="cls-16" d="M136.43,172.57H194.1s-1.35-5.57-34.74-4.74C135.72,168.42,136.43,172.57,136.43,172.57Z"/><path class="cls-17" d="M131.74,222.61c6.68-29.76,5-48,4.95-48.26,0-.46.95-.87,1.47-.89s2.83-.13,3.09.26,1.7,23-8.27,48.89Z"/><path class="cls-17" d="M180.69,222.61c-6.69-29.76-5-48-5-48.26,0-.46-.94-.87-1.46-.89s-2.83-.13-3.1.26-1.69,23,8.27,48.89Z"/><path class="cls-18" d="M196.25,222.61c-6.69-29.76-5-48-5-48.26,0-.46-.94-.87-1.46-.89s-2.83-.13-3.1.26-1.69,23,8.27,48.89Z"/><path class="cls-18" d="M148.67,222.61c6.68-29.76,5-48,5-48.26,0-.46.95-.87,1.46-.89s2.84-.13,3.1.26,1.7,23-8.27,48.89Z"/><path class="cls-17" d="M194.42,174.35H136.17a.89.89,0,0,1-.89-.89h0a.89.89,0,0,1,.89-.89h58.25a.89.89,0,0,1,.89.89h0A.89.89,0,0,1,194.42,174.35Z"/><path class="cls-2" d="M289.25,131.06s-3.37-2.09-4.83-1.78-5.47,1.47-5.6,3.12,5.73,4.26,10.05,2.8S289.25,131.06,289.25,131.06Z"/><path class="cls-19" d="M307.13,219a1.75,1.75,0,0,1-1,1.6h0c-1.14.63-3,.15-5.17.05-.28,0-.71.53-.94.53h-.31c-2.16.06-1.93.71-6,1.06-4.7.4-6.43-1-6.71-1.69s1.79-1.19,4-1.91l.33-.1.9-.29c2.68-.89,5.32-1.95,6-4.66.7-2.88-1.4-10.91-1.4-10.91l7.44-.8s.72,8.39,1.19,11a29.15,29.15,0,0,0,1.25,3.7,2.41,2.41,0,0,1,.08.25A8.3,8.3,0,0,1,307.13,219Z"/><path class="cls-20" d="M287,220.59c.15.35.46,1.37,2.43,1.79h7.47l.07,0a14.35,14.35,0,0,1,6-1.25A17.09,17.09,0,0,0,305,221h0a2.85,2.85,0,0,0,1-.31h0l.12-.07h0l.11-.07h0l.2-.13.09-.08.08-.07.06-.06.1-.12h0a.35.35,0,0,1,0-.08.56.56,0,0,0,.05-.08h0a.43.43,0,0,1,0-.07h0a.08.08,0,0,0,0,0,.3.3,0,0,0,0-.08.42.42,0,0,1,0-.1.29.29,0,0,0,0-.09l0-.11s0-.07,0-.1v-.06a.34.34,0,0,0,0-.1.61.61,0,0,0,0-.14h0v-.11s0-.08,0-.12a.49.49,0,0,0,0-.12.49.49,0,0,0,0-.12,1.1,1.1,0,0,0,0-.18v0a.36.36,0,0,0,0-.11c0-.06,0-.11,0-.17l-.06-.28,0-.12-.06-.26,0-.13a2.68,2.68,0,0,1-.07-.27.65.65,0,0,1,0-.13,2.41,2.41,0,0,0-.08-.25c-2.23.52-5.35,2.08-8.48,2.67l-.14,0a13.63,13.63,0,0,1-4.46,0,12.07,12.07,0,0,1-2.6-.67C288.74,219.4,286.72,220,287,220.59Z"/><polygon class="cls-20" points="302.9 222.38 302.9 221.83 302.9 221.4 302.9 221.1 302.9 220.88 303.03 220.86 306.38 220.33 306.25 220.57 306.25 220.57 306.25 220.57 306.17 220.72 305.92 221.19 305.92 221.19 305.29 222.38 302.9 222.38"/><path class="cls-5" d="M345.57,147.48l-24.08-2.3s-36.87.17-40.31,5c0,0-6.58,4.56.86,23.42s16.18,37.71,16.18,37.71a17,17,0,0,0,5.28.37,21.39,21.39,0,0,0,2.83-.51s-1.68-28.14-5.4-39.09-4.86-8.82,1.72-8.21,27.76,5.47,37.49,4.25S345.57,147.48,345.57,147.48Z"/><path class="cls-21" d="M311.77,219a1.75,1.75,0,0,1-1,1.6h0c-1.15.63-3,.15-5.17.05-.28,0-.72.53-.94.53h-.31c-2.17.06-1.94.71-6.06,1.06-4.7.4-6.43-1-6.7-1.69s1.78-1.19,4-1.91l.33-.1.9-.29c2.68-.89,5.32-1.95,6-4.66.69-2.88-1.4-10.91-1.4-10.91l7.44-.8s.71,8.39,1.18,11a29.14,29.14,0,0,0,1.26,3.7l.07.25A8.3,8.3,0,0,1,311.77,219Z"/><path class="cls-3" d="M348.94,149.19l-22.59-1.91s-36.87.16-40.3,4.88c0,0-5.57,3.49,1.87,21.75s15,38.37,15,38.37a18.68,18.68,0,0,0,3.69.06c2.54-.2,3.38-1,3.38-1s-.52-25-4.24-35.6-5.15-9.52,1.43-8.93,25.09,5.2,37.84,2.76C354.63,167.69,348.94,149.19,348.94,149.19Z"/><path class="cls-3" d="M291.58,220.5a.15.15,0,0,0,0,.09,2.61,2.61,0,0,0,2,1.69l.39.1h7.47a15.06,15.06,0,0,1,1.41-.55,12.8,12.8,0,0,1,3-.64h0c.59-.06,1.12-.08,1.62-.09,1.4,0,2.46,0,3.24-.46h0l.11-.07h0l.19-.13.09-.08.08-.07.06-.06.06-.07.06-.07,0,0,0-.07s0,0,0-.08l.06-.12h0l0-.08a.19.19,0,0,1,0-.07h0s0-.06,0-.08a.29.29,0,0,0,0-.09.36.36,0,0,0,0-.1s0,0,0-.06h0a.34.34,0,0,1,0-.1V219a8.3,8.3,0,0,0-.38-2.16l-.07-.25a43.13,43.13,0,0,0-4.28,1.44,27.17,27.17,0,0,1-4.21,1.23,13.67,13.67,0,0,1-4.78,0,12.07,12.07,0,0,1-2.42-.64l-2,.67-.34.13-.3.11-.28.11-.13.06-.13.06a1.51,1.51,0,0,0-.22.11.31.31,0,0,0-.1,0l-.18.11-.11.08-.07.06a.08.08,0,0,0,0,0,.31.31,0,0,0-.09.14s0,0,0,0h0Z"/><polygon class="cls-3" points="307.54 220.88 307.54 222.38 309.93 222.38 310.89 220.57 310.9 220.57 310.9 220.57 311.02 220.33 307.68 220.86 307.54 220.88"/><path class="cls-22" d="M287.61,135.42a2.15,2.15,0,0,0,.18.61c.95,2.09,20.8,4.77,23.28,3.43,1.11-.6,2.72-10.6,4.16-21.48,1.78-13.46,3.31-28.25,3.31-28.25s-8.24,2.6-9.19,7-1.14,31.48-3.63,32.82-13,.19-16.59.76C289.13,130.3,287.23,133.3,287.61,135.42Z"/><path class="cls-5" d="M318,58.56c1.54-1.24,3.78-1.09,5.22-1a2.4,2.4,0,0,0-1.1-.53,8.16,8.16,0,0,1,2.89.76s7.56-3.87,11.05,6.05c0,0-.6-.75-1.43-1.6,2,5.71,0,14.34-6.39,15.88C324.1,79.12,302.2,71.25,318,58.56Z"/><path class="cls-6" d="M318,91.92s4,2.11,7,1.28c2.86-.78,4.72-4.48,4.68-4.49-1.21-.24-1.56-1.9-1.53-9l-.55.11-9.19,1.82s.21,2.89.22,5.62C318.61,89.5,318.47,91.67,318,91.92Z"/><path class="cls-5" d="M328.53,78.78a26.87,26.87,0,0,0,3.34-7.9c.47-2.6-.86-12.24-10.54-10.85a13,13,0,0,0-5.46,2.06c-2.1,1.42-5.14,4.49-1.74,12.9l.88,2.84Z"/><path class="cls-2" d="M316.67,84.18s12.17.2,12.18-7.38,1.59-12.66-6.18-13.11-9.29,2.44-9.9,5S313.51,83.93,316.67,84.18Z"/><path class="cls-5" d="M317.12,63.5s3.34,8.9,8.45,10.21,7.33,0,7.33,0a50,50,0,0,1-2.22-9.21S319.64,59.27,317.12,63.5Z"/><path class="cls-10" d="M313.7,101c.21-.86-1.61-1.51-2.06-.74a16.58,16.58,0,0,0-1.33,4.71c-1,4.13,0,9.79,0,9.79Z"/><path class="cls-5" d="M318,64.23s-2.49,2-3.1,3.91-.88,5.91-2,5.77c0,0-2.51-6,.31-9.46C316.12,60.82,318,64.23,318,64.23Z"/><path class="cls-8" d="M319.38,79.58s-.23,1-2.62.82c0,0-2-.13-1.95-1.18A6.44,6.44,0,0,1,319.38,79.58Z"/><path class="cls-10" d="M287.61,135.42a2.15,2.15,0,0,0,.18.61c.95,2.09,20.8,4.77,23.28,3.43,1.11-.6,3.05-13,1.65-24.17-1.5,6.37-2,19.42-5.47,20C303.27,136,292.81,134.69,287.61,135.42Z"/><path class="cls-22" d="M309.56,115.23c4.93,23.78.81,27.43,3.37,29.76l2.29,1c2.67,2.32,2.74-.49,11.13,3.15A134.83,134.83,0,0,0,340,154.53a28.42,28.42,0,0,0,4.68,1.06c2.7.31,4.71-.16,5.37-2,1.91-5.29-7.25-19.36-5-29a2.21,2.21,0,0,0,.05-.25,10.56,10.56,0,0,0,.12-2.86c-.43-5.35-3.81-13.13-7.32-19.78C334,94.45,330,88.5,329.66,88.71c-10.2,6.06-11.12,1-11.12,1S307.88,107.12,309.56,115.23Z"/><path class="cls-10" d="M314.41,145.66h0c2.67,2.32,3.55-.16,11.94,3.48A134.83,134.83,0,0,0,340,154.53a27.43,27.43,0,0,1,4.68,1.06c2.7.31,4.71-.16,5.37-2,1.91-5.29-7.25-19.36-5-29a2.21,2.21,0,0,0,.05-.25,8.85,8.85,0,0,0,.12-2.86c-.49-4.07-3.48-8.48-6.87-14.91-2.26,2.4-19.29-.38-15.26,23.28C324.32,137.17,315.47,140,314.41,145.66Z"/><path class="cls-2" d="M315.23,146.87s-3.75-.89-5.46-.19-5.16,2.48-4.84,3.43,4.39,1.47,6.11.51,3,.26,5.08-.44S315.23,146.87,315.23,146.87Z"/><path class="cls-22" d="M329.66,88.71s13.84.19,16.32,6.87,1.72,30.14-1.91,37.2-24.23,16.6-26.52,17-3.72-3.15-3.62-3.53,21.65-17.84,21.56-19.65S329.66,88.71,329.66,88.71Z"/><path class="cls-23" d="M225.17,116.43a58.69,58.69,0,0,1,4.29-4.79,13,13,0,0,1,4.29-1.22c.2.18.2.44-.21.8s-2,1.29-1.77,1.4,5-2.27,5.68-1.47-.39,4.09-2.23,5.67-7.31,2.25-7.66,2.47C224.64,121.16,225.17,116.43,225.17,116.43Z"/><path class="cls-21" d="M192,219.18a1.66,1.66,0,0,0,1,1.54h0c1.15.61,3.16.68,5.35.58l.76,0h.31c2.17.05,1.94.68,6.06,1,4.7.39,5.64-1.74,5.92-2.37s-1-.41-3.25-1.11c-.11,0-.06-.32-.17-.35l-.9-.28c-2.68-.87-5.48-1.64-6.14-4.27-.7-2.79,1.4-10.57,1.4-10.57l-7.44-.78s-.72,8.14-1.18,10.67a27.4,27.4,0,0,1-1.26,3.59c0,.08,0,.16-.07.24A7.86,7.86,0,0,0,192,219.18Z"/><path class="cls-24" d="M192,220a1.66,1.66,0,0,0,1.11,1.45h0a13.93,13.93,0,0,0,5.38.12c.27,0,.53-.06.75-.07h.31c2.17-.13,2,.51,6.13.51,4.71,0,6.32-1.53,6.54-2.19s-1.87-1-4.17-1.5a14.28,14.28,0,0,1-7.13,1.19c-3.17-.31-6.4-1.55-8.67-1.87l-.06.25A7.91,7.91,0,0,0,192,220Z"/><path class="cls-21" d="M240.31,210.22c.42,2.06,3.36,1.72,6.65.91s2.51.16,7.19-.36,6.11-2.27,6.25-3-2.19-.84-4.67-1.13l-.94-.11c-2.8-.35-4.85-2.16-7.4-3.64s-6-7.14-6-7.14l-6.42.51s3.37,5.12,4.67,7.34a7.7,7.7,0,0,1,.63,4.38A8.53,8.53,0,0,0,240.31,210.22Z"/><path class="cls-24" d="M247,211.13c3.29-.8,2.51.16,7.19-.36s6.11-2.27,6.25-3-2.19-.84-4.67-1.13l0,0a13.26,13.26,0,0,1-6.71,2.09c-3.18.07-6.54-.84-8.74-.8a8.53,8.53,0,0,0,.05,2.2C240.73,212.28,243.67,211.94,247,211.13Z"/><path class="cls-3" d="M215.7,169.14,201.85,206.4a12.54,12.54,0,0,1-4.16-.38,17.9,17.9,0,0,1-4-2s3.43-35.78,9.73-43.22S215.7,169.14,215.7,169.14Z"/><path class="cls-25" d="M160.94,154.07s39.78-13.45,48.65-10.59,35.51,55.86,35.51,55.86a5.1,5.1,0,0,1-2.24,1.41,20.85,20.85,0,0,1-5.22.54s-24-20.6-26.9-26.61-4-11.74-6.87-11.17-36.92,14-44.65,6-5.7-18.42-5.7-18.42Z"/><path class="cls-5" d="M185.25,91.5a22.8,22.8,0,0,0,1.69-7.8c-.05.42-.77,5.65-2.78,8.62-8.27,5.43-24.13,23.57-23.82,27,0,0-5.58-9.47-5.68-9.53s-10.3-13.1,1.91-20.6c6.21-3.82,6.17-8.71,5.92-13s1.69-22.56,14.12-17.77a8.1,8.1,0,0,1,2.89-.76,2.4,2.4,0,0,0-1.1.53,9.58,9.58,0,0,1,5.22,1C188.18,61.82,192.25,85.05,185.25,91.5Z"/><path class="cls-21" d="M183.67,92.59s-4,2.11-7,1.28c-2.86-.78-4.72-4.48-4.68-4.49,1.21-.24,1.55-1.9,1.53-9l.55.11,9.19,1.82s-.21,2.89-.22,5.62C183,90.17,183.15,92.34,183.67,92.59Z"/><path class="cls-26" d="M183.23,82.27s-.21,2.89-.22,5.62c-5.14-.15-7.86-4.84-9-7.44Z"/><path class="cls-5" d="M173.09,79.45a27.06,27.06,0,0,1-3.35-7.9c-.46-2.6.87-12.24,10.55-10.85a13.09,13.09,0,0,1,5.46,2.06c2.1,1.42,5.14,4.49,1.74,12.9l-.88,2.84Z"/><path class="cls-21" d="M185,84.85s-12.17.2-12.18-7.38S171.18,64.81,179,64.36s9.29,2.44,9.9,5S188.11,84.6,185,84.85Z"/><path class="cls-5" d="M184.5,64.17s-3.34,8.9-8.45,10.21-7.33,0-7.33,0a35.41,35.41,0,0,0,3.24-10S182,59.94,184.5,64.17Z"/><path class="cls-5" d="M183.67,64.9s2.49,2,3.09,3.91.88,5.91,2,5.77c0,0,2.51-6-.31-9.46C185.5,61.49,183.67,64.9,183.67,64.9Z"/><path class="cls-12" d="M156.57,125.33c-1.2-5,2.88-14.8,7.15-22.89,3.86-7.33,7.88-13.27,8.24-13.06,10.2,6.06,11.12,1,11.12,1s9.26,1.23,11.89,5.75c3.63,6.25,7.58,25,11.46,24.71,1.78-.13,19.72-6.87,19.72-6.87s3,2.8,2.41,6.23a187.81,187.81,0,0,1-16.34,9.72c-4,2-7.54,3.4-9.22,3-3.42-.8-8.74-8.71-11.62-13.37l0,0c-3.68,20.81,1.32,25.54-1.21,27.74s-6.49-1.11-14.88,2.53c-5.51,2.39-13.15,5.84-18.29,6.45-2.7.31-4.71-.16-5.37-2C149.7,149,158.86,134.92,156.57,125.33Z"/><path class="cls-8" d="M182.24,80.25s.23,1,2.62.82c0,0,2-.13,1.95-1.18A6.44,6.44,0,0,0,182.24,80.25Z"/><path class="cls-27" d="M151.61,154.28c.66,1.82,2.67,2.29,5.37,2,3.56-1.56,18.94-7.51,18.76-11.55-.25-6-3-6.17-1-13.55,1.53-5.92-12.68-16.94-14.95-19.33-4.26,8.08-4.38,8.47-3.18,13.5C158.86,134.92,149.7,149,151.61,154.28Z"/><path class="cls-27" d="M191.38,119.57c2.88,4.66,8.2,12.57,11.62,13.37,1.68.4,5.26-1,9.22-3a24.18,24.18,0,0,1-8.43.46c-3-.29-3.81-3.91-8.49-9.35C192.27,117.52,191.53,118.41,191.38,119.57Z"/><path class="cls-21" d="M177.13,131s2.57-2,5-1.53,3.62,2.15,3.53,2.91a4.35,4.35,0,0,1-3.25,3.1c-1.86.19-7.15-1.14-7.15-1.14Z"/><path class="cls-12" d="M172,89.38S162,90,158.6,94.78c-4.83,6.74-13.22,34.27-10.93,40.56,0,0,9.41,1,16.14,1,3.51,0,14-1.12,14-1.12s.73-3.42-.28-5.08-17.56-4.32-18.32-5.08,9.54-14.89,9.54-17.18S172,89.38,172,89.38Z"/><path class="cls-15" d="M176.57,137.87H311.5a2.62,2.62,0,0,1,2.61,2.62v3.41a2.62,2.62,0,0,1-2.61,2.62H246.3v66.11c11.47.46,21.24,4.39,25.22,9.75h-54.8c3.95-5.38,13.57-9.29,25-9.75V146.52H176.57A2.63,2.63,0,0,1,174,143.9v-3.41A2.63,2.63,0,0,1,176.57,137.87Z"/><path class="cls-10" d="M257.77,108.91a52.9,52.9,0,0,0-5.49,14.54s-.9-8.7-3.7-12.29c0,0,1.82,9.36.84,14.67l5.92.8S255.06,115.3,257.77,108.91Z"/><path class="cls-22" d="M243.08,110.72s4.29,9.57,5.35,16l2.86-.73C251.12,124.83,248.07,114.51,243.08,110.72Z"/><path class="cls-22" d="M251.53,130.79s0,0,0-.06h0Z"/><path class="cls-22" d="M263.65,107.3s-8.57,10.56-10.75,20.51c0,0,1.43-13.43-2.86-18.65,0,0,3,9.57.65,18.19l5.51,1.45S259.12,114.32,263.65,107.3Z"/><polygon class="cls-27" points="246.78 123.45 246.94 127.01 247.27 134.46 247.41 137.89 256.87 137.89 257.08 134.46 257.54 127.01 257.77 123.45 246.78 123.45"/><path class="cls-28" d="M517.42,223H-58.81a.83.83,0,0,1-.86-.78h0a.83.83,0,0,1,.86-.78H517.42a.82.82,0,0,1,.86.78h0A.82.82,0,0,1,517.42,223Z"/></svg>